<svg width="36" height="36" viewBox="0 0 36 36" fill="none" xmlns="http://www.w3.org/2000/svg">
<g opacity="0.7">
<path fill-rule="evenodd" clip-rule="evenodd" d="M24.9464 6C25.5891 6 26.1101 6.46807 26.1101 7.04545V8.09091H29.6012C30.8862 8.09091 31.9286 9.02734 31.9286 10.1818V26.9091C31.9286 28.0636 30.8862 29 29.6012 29H6.32738C5.04234 29 4 28.0636 4 26.9091V10.1818C4 9.02734 5.04234 8.09091 6.32738 8.09091H9.81845V7.04545C9.81845 6.50931 10.2677 6.06742 10.8464 6.00703L10.9821 6C11.6248 6 12.1458 6.46807 12.1458 7.04545V8.09091H23.7827V7.04545C23.7827 6.50931 24.232 6.06742 24.8107 6.00703L24.9464 6ZM29.6012 16.4545H6.32738V26.9091H29.6012V16.4545ZM9.81845 10.1818H6.32738V14.3636H29.6012V10.1818H26.1101V11.2273C26.1101 11.7634 25.6609 12.2053 25.0821 12.2657L24.9464 12.2727C24.3037 12.2727 23.7827 11.8047 23.7827 11.2273V10.1818H12.1458V11.2273C12.1458 11.7634 11.6966 12.2053 11.1179 12.2657L10.9821 12.2727C10.3395 12.2727 9.81845 11.8047 9.81845 11.2273V10.1818Z" fill="url(#paint0_linear_974_135486)"/>
</g>
<defs>
<linearGradient id="paint0_linear_974_135486" x1="4" y1="29" x2="29.8076" y2="31.1743" gradientUnits="userSpaceOnUse">
<stop stop-color="#1DD13B"/>
<stop offset="1" stop-color="#27C6E5"/>
</linearGradient>
</defs>
</svg>
