<svg width="36" height="36" viewBox="0 0 29 36" fill="none" xmlns="http://www.w3.org/2000/svg">
<g opacity="0.7">
<path d="M17.0919 15.0607C17.6777 14.4749 17.6777 13.5251 17.0919 12.9393L7.54597 3.3934C6.96018 2.80761 6.01043 2.80761 5.42465 3.3934C4.83886 3.97919 4.83886 4.92893 5.42465 5.51472L13.9099 14L5.42465 22.4853C4.83886 23.0711 4.83886 24.0208 5.42465 24.6066C6.01043 25.1924 6.96018 25.1924 7.54597 24.6066L17.0919 15.0607ZM13.0312 15.5H16.0312V12.5H13.0312V15.5Z" fill="url(#paint0_linear_974_136505)"/>
<path d="M27.0919 15.0607C27.6777 14.4749 27.6777 13.5251 27.0919 12.9393L17.546 3.3934C16.9602 2.80761 16.0104 2.80761 15.4246 3.3934C14.8389 3.97919 14.8389 4.92893 15.4246 5.51472L23.9099 14L15.4246 22.4853C14.8389 23.0711 14.8389 24.0208 15.4246 24.6066C16.0104 25.1924 16.9602 25.1924 17.546 24.6066L27.0919 15.0607ZM23.0312 15.5H26.0312V12.5H23.0312V15.5Z" fill="url(#paint1_linear_974_136505)"/>
</g>
<defs>
<linearGradient id="paint0_linear_974_136505" x1="13.0312" y1="15" x2="15.7072" y2="15.557" gradientUnits="userSpaceOnUse">
<stop stop-color="#1DD13B"/>
<stop offset="1" stop-color="#27C6E5"/>
</linearGradient>
<linearGradient id="paint1_linear_974_136505" x1="23.0312" y1="15" x2="25.7072" y2="15.557" gradientUnits="userSpaceOnUse">
<stop stop-color="#1DD13B"/>
<stop offset="1" stop-color="#27C6E5"/>
</linearGradient>
</defs>
</svg>
