<svg width="36" height="36" viewBox="0 0 36 36" fill="none" xmlns="http://www.w3.org/2000/svg">
<g opacity="0.7">
<path fill-rule="evenodd" clip-rule="evenodd" d="M19.0002 6C18.4479 6 18.0002 6.44772 18.0002 7V17C18.0002 17.5523 18.4479 18 19.0002 18H29.0002C29.5525 18 30.0002 17.5523 30.0002 17C30.0002 10.9247 25.0755 6 19.0002 6ZM14.7278 6.45166C15.2592 6.30133 15.8119 6.61028 15.9622 7.14171C16.1126 7.67315 15.8036 8.22582 15.2722 8.37614C11.0032 9.58369 8 13.4966 8 17.9999C8 23.5226 12.4773 27.9999 18 27.9999C22.5095 27.9999 26.4263 24.9887 27.6283 20.7123C27.7778 20.1806 28.3299 19.8708 28.8616 20.0202C29.3933 20.1697 29.7031 20.7218 29.5537 21.2535C28.1107 26.3871 23.4114 29.9999 18 29.9999C11.3727 29.9999 6 24.6272 6 17.9999C6 12.5959 9.60322 7.90124 14.7278 6.45166ZM20.0002 8.055V16H27.9442L27.9044 15.6821C27.3168 11.6773 24.0918 8.52999 20.0498 8.06055L20.0002 8.055Z" fill="url(#paint0_linear_974_135491)"/>
</g>
<defs>
<linearGradient id="paint0_linear_974_135491" x1="6" y1="29.9999" x2="28.228" y2="31.5422" gradientUnits="userSpaceOnUse">
<stop stop-color="#1DD13B"/>
<stop offset="1" stop-color="#27C6E5"/>
</linearGradient>
</defs>
</svg>
