<svg width="36" height="36" viewBox="0 0 36 36" fill="none" xmlns="http://www.w3.org/2000/svg">
<g opacity="0.7">
<path fill-rule="evenodd" clip-rule="evenodd" d="M19.7574 12.0005L24 7.75781L28.2427 12.0005L24 16.2431L19.7574 12.0005ZM18.3432 13.4147C17.5621 12.6336 17.5621 11.3673 18.3432 10.5862L22.5858 6.3436C23.3669 5.56255 24.6332 5.56255 25.4142 6.3436L29.6569 10.5862C30.4379 11.3673 30.4379 12.6336 29.6569 13.4147L25.4142 17.6573C24.6332 18.4384 23.3669 18.4384 22.5858 17.6573L18.3432 13.4147ZM9 9.00045H15V15.0005H9L9 9.00045ZM7 9.00045C7 7.89588 7.89543 7.00045 9 7.00045H15C16.1046 7.00045 17 7.89588 17 9.00045V15.0005C17 16.105 16.1046 17.0005 15 17.0005H9C7.89543 17.0005 7 16.105 7 15.0005V9.00045ZM15 21.0005H9L9 27.0005H15V21.0005ZM9 19.0005C7.89543 19.0005 7 19.8959 7 21.0005V27.0005C7 28.105 7.89543 29.0005 9 29.0005H15C16.1046 29.0005 17 28.105 17 27.0005V21.0005C17 19.8959 16.1046 19.0005 15 19.0005H9ZM21 21.0005H27V27.0005H21V21.0005ZM19 21.0005C19 19.8959 19.8954 19.0005 21 19.0005H27C28.1046 19.0005 29 19.8959 29 21.0005V27.0005C29 28.105 28.1046 29.0005 27 29.0005H21C19.8954 29.0005 19 28.105 19 27.0005V21.0005Z" fill="url(#paint0_linear_974_135071)"/>
</g>
<defs>
<linearGradient id="paint0_linear_974_135071" x1="7" y1="29.0005" x2="28.5264" y2="30.494" gradientUnits="userSpaceOnUse">
<stop stop-color="#1DD13B"/>
<stop offset="1" stop-color="#27C6E5"/>
</linearGradient>
</defs>
</svg>
