<svg width="81" height="81" viewBox="0 0 81 81" fill="none" xmlns="http://www.w3.org/2000/svg">
<rect x="0.970581" y="0.925079" width="79" height="79" rx="11.5" fill="#FBC362" stroke="#FBC362"/>
<path d="M62.3492 39.2773V18.6178C62.3492 14.8143 59.4102 11.731 55.7983 11.731H25.1429C21.5249 11.731 18.592 14.8164 18.592 18.5963V62.2537C18.592 66.0454 21.5235 69.1191 25.1449 69.1191H36.0949" stroke="white" stroke-width="2"/>
<g filter="url(#filter0_d_249_5003)">
<mask id="path-3-inside-1_249_5003" fill="white">
<path d="M34.2667 43.9932H31.6199C31.3504 43.9932 31.1317 43.7876 31.1317 43.5343V34.6434C31.1317 34.3901 31.3504 34.1844 31.6199 34.1844H34.2667C34.5362 34.1844 34.7549 34.3901 34.7549 34.6434V43.5343C34.7549 43.7885 34.5372 43.9932 34.2667 43.9932ZM32.108 43.0753H33.7786V35.1024H32.108V43.0753Z"/>
</mask>
<path d="M32.108 43.0753H31.108V44.0753H32.108V43.0753ZM33.7786 43.0753V44.0753H34.7786V43.0753H33.7786ZM33.7786 35.1024H34.7786V34.1024H33.7786V35.1024ZM32.108 35.1024V34.1024H31.108V35.1024H32.108ZM34.2667 42.9932H31.6199V44.9932H34.2667V42.9932ZM31.6199 42.9932C31.8436 42.9932 32.1317 43.1781 32.1317 43.5343H30.1317C30.1317 44.3971 30.8571 44.9932 31.6199 44.9932V42.9932ZM32.1317 43.5343V34.6434H30.1317V43.5343H32.1317ZM32.1317 34.6434C32.1317 34.9996 31.8436 35.1844 31.6199 35.1844V33.1844C30.8571 33.1844 30.1317 33.7805 30.1317 34.6434H32.1317ZM31.6199 35.1844H34.2667V33.1844H31.6199V35.1844ZM34.2667 35.1844C34.0429 35.1844 33.7549 34.9996 33.7549 34.6434H35.7549C35.7549 33.7805 35.0294 33.1844 34.2667 33.1844V35.1844ZM33.7549 34.6434V43.5343H35.7549V34.6434H33.7549ZM33.7549 43.5343C33.7549 43.179 34.0439 42.9932 34.2667 42.9932V44.9932C35.0304 44.9932 35.7549 44.398 35.7549 43.5343H33.7549ZM32.108 44.0753H33.7786V42.0753H32.108V44.0753ZM34.7786 43.0753V35.1024H32.7786V43.0753H34.7786ZM33.7786 34.1024H32.108V36.1024H33.7786V34.1024ZM31.108 35.1024V43.0753H33.108V35.1024H31.108Z" fill="white" mask="url(#path-3-inside-1_249_5003)"/>
<mask id="path-5-inside-2_249_5003" fill="white">
<path d="M40.0105 43.9932H37.3646C37.0951 43.9932 36.8764 43.7876 36.8764 43.5343V37.7469C36.8764 37.4935 37.0951 37.2879 37.3646 37.2879H40.0115C40.2809 37.2879 40.4996 37.4935 40.4996 37.7469V43.5343C40.4987 43.7885 40.2809 43.9932 40.0105 43.9932ZM37.8528 43.0753H39.5233V38.2058H37.8528V43.0753Z"/>
</mask>
<path d="M40.4996 43.5343L41.4996 43.5381V43.5343H40.4996ZM37.8528 43.0753H36.8528V44.0753H37.8528V43.0753ZM39.5233 43.0753V44.0753H40.5233V43.0753H39.5233ZM39.5233 38.2058H40.5233V37.2058H39.5233V38.2058ZM37.8528 38.2058V37.2058H36.8528V38.2058H37.8528ZM40.0105 42.9932H37.3646V44.9932H40.0105V42.9932ZM37.3646 42.9932C37.5884 42.9932 37.8764 43.1781 37.8764 43.5343H35.8764C35.8764 44.3971 36.6019 44.9932 37.3646 44.9932V42.9932ZM37.8764 43.5343V37.7469H35.8764V43.5343H37.8764ZM37.8764 37.7469C37.8764 38.103 37.5884 38.2879 37.3646 38.2879V36.2879C36.6019 36.2879 35.8764 36.884 35.8764 37.7469H37.8764ZM37.3646 38.2879H40.0115V36.2879H37.3646V38.2879ZM40.0115 38.2879C39.7877 38.2879 39.4996 38.103 39.4996 37.7469H41.4996C41.4996 36.884 40.7742 36.2879 40.0115 36.2879V38.2879ZM39.4996 37.7469V43.5343H41.4996V37.7469H39.4996ZM39.4997 43.5304C39.501 43.179 39.7867 42.9932 40.0105 42.9932V44.9932C40.7752 44.9932 41.4963 44.398 41.4996 43.5381L39.4997 43.5304ZM37.8528 44.0753H39.5233V42.0753H37.8528V44.0753ZM40.5233 43.0753V38.2058H38.5233V43.0753H40.5233ZM39.5233 37.2058H37.8528V39.2058H39.5233V37.2058ZM36.8528 38.2058V43.0753H38.8528V38.2058H36.8528Z" fill="white" mask="url(#path-5-inside-2_249_5003)"/>
<mask id="path-7-inside-3_249_5003" fill="white">
<path d="M45.8312 43.9932H43.1844C42.9149 43.9932 42.6962 43.7876 42.6962 43.5342V31.9025C42.6962 31.6492 42.9149 31.4435 43.1844 31.4435H45.8312C46.1007 31.4435 46.3194 31.6492 46.3194 31.9025V43.5351C46.3194 43.7885 46.1017 43.9932 45.8312 43.9932ZM43.6725 43.0753H45.3431V32.3615H43.6725V43.0753Z"/>
</mask>
<path d="M46.3194 43.5351H47.3194H46.3194ZM43.6725 43.0753H42.6725V44.0753H43.6725V43.0753ZM45.3431 43.0753V44.0753H46.3431V43.0753H45.3431ZM45.3431 32.3615H46.3431V31.3615H45.3431V32.3615ZM43.6725 32.3615V31.3615H42.6725V32.3615H43.6725ZM45.8312 42.9932H43.1844V44.9932H45.8312V42.9932ZM43.1844 42.9932C43.4081 42.9932 43.6962 43.178 43.6962 43.5342H41.6962C41.6962 44.3971 42.4217 44.9932 43.1844 44.9932V42.9932ZM43.6962 43.5342V31.9025H41.6962V43.5342H43.6962ZM43.6962 31.9025C43.6962 32.2587 43.4081 32.4435 43.1844 32.4435V30.4435C42.4217 30.4435 41.6962 31.0396 41.6962 31.9025H43.6962ZM43.1844 32.4435H45.8312V30.4435H43.1844V32.4435ZM45.8312 32.4435C45.6075 32.4435 45.3194 32.2587 45.3194 31.9025H47.3194C47.3194 31.0396 46.594 30.4435 45.8312 30.4435V32.4435ZM45.3194 31.9025V43.5351H47.3194V31.9025H45.3194ZM45.3194 43.5351C45.3194 43.1777 45.6098 42.9932 45.8312 42.9932V44.9932C46.5936 44.9932 47.3194 44.3993 47.3194 43.5351H45.3194ZM43.6725 44.0753H45.3431V42.0753H43.6725V44.0753ZM46.3431 43.0753V32.3615H44.3431V43.0753H46.3431ZM45.3431 31.3615H43.6725V33.3615H45.3431V31.3615ZM42.6725 32.3615V43.0753H44.6725V32.3615H42.6725Z" fill="white" mask="url(#path-7-inside-3_249_5003)"/>
<mask id="path-9-inside-4_249_5003" fill="white">
<path d="M51.465 43.9932H48.8181C48.5487 43.9932 48.33 43.7876 48.33 43.5343V27.6434C48.33 27.3901 48.5487 27.1845 48.8181 27.1845H51.465C51.7345 27.1845 51.9532 27.3901 51.9532 27.6434V43.5343C51.9532 43.7885 51.7354 43.9932 51.465 43.9932ZM49.3063 43.0753H50.9768V28.1024H49.3063V43.0753Z"/>
</mask>
<path d="M49.3063 43.0753H48.3063V44.0753H49.3063V43.0753ZM50.9768 43.0753V44.0753H51.9768V43.0753H50.9768ZM50.9768 28.1024H51.9768V27.1024H50.9768V28.1024ZM49.3063 28.1024V27.1024H48.3063V28.1024H49.3063ZM51.465 42.9932H48.8181V44.9932H51.465V42.9932ZM48.8181 42.9932C49.0419 42.9932 49.33 43.1781 49.33 43.5343H47.33C47.33 44.3971 48.0554 44.9932 48.8181 44.9932V42.9932ZM49.33 43.5343V27.6434H47.33V43.5343H49.33ZM49.33 27.6434C49.33 27.9996 49.0419 28.1845 48.8181 28.1845V26.1845C48.0554 26.1845 47.33 26.7806 47.33 27.6434H49.33ZM48.8181 28.1845H51.465V26.1845H48.8181V28.1845ZM51.465 28.1845C51.2412 28.1845 50.9532 27.9996 50.9532 27.6434H52.9532C52.9532 26.7806 52.2277 26.1845 51.465 26.1845V28.1845ZM50.9532 27.6434V43.5343H52.9532V27.6434H50.9532ZM50.9532 43.5343C50.9532 43.179 51.2422 42.9932 51.465 42.9932V44.9932C52.2287 44.9932 52.9532 44.398 52.9532 43.5343H50.9532ZM49.3063 44.0753H50.9768V42.0753H49.3063V44.0753ZM51.9768 43.0753V28.1024H49.9768V43.0753H51.9768ZM50.9768 27.1024H49.3063V29.1024H50.9768V27.1024ZM48.3063 28.1024V43.0753H50.3063V28.1024H48.3063Z" fill="white" mask="url(#path-9-inside-4_249_5003)"/>
<mask id="path-11-inside-5_249_5003" fill="white">
<path d="M54.4066 43.9932H28.6194C28.3499 43.9932 28.1312 43.7876 28.1312 43.5343C28.1312 43.2809 28.3499 43.0753 28.6194 43.0753H54.4066C54.6761 43.0753 54.8948 43.2809 54.8948 43.5343C54.8948 43.7885 54.6761 43.9932 54.4066 43.9932Z"/>
</mask>
<path d="M54.4066 42.9932H28.6194V44.9932H54.4066V42.9932ZM28.6194 42.9932C28.8432 42.9932 29.1312 43.1781 29.1312 43.5343H27.1312C27.1312 44.3971 27.8567 44.9932 28.6194 44.9932V42.9932ZM29.1312 43.5343C29.1312 43.8905 28.8432 44.0753 28.6194 44.0753V42.0753C27.8567 42.0753 27.1312 42.6714 27.1312 43.5343H29.1312ZM28.6194 44.0753H54.4066V42.0753H28.6194V44.0753ZM54.4066 44.0753C54.1828 44.0753 53.8948 43.8905 53.8948 43.5343H55.8948C55.8948 42.6714 55.1693 42.0753 54.4066 42.0753V44.0753ZM53.8948 43.5343C53.8948 43.1777 54.1841 42.9932 54.4066 42.9932V44.9932C55.168 44.9932 55.8948 44.3993 55.8948 43.5343H53.8948Z" fill="white" mask="url(#path-11-inside-5_249_5003)"/>
<mask id="path-13-inside-6_249_5003" fill="white">
<path d="M32.9438 31.8906C31.6394 31.8906 30.5781 30.8929 30.5781 29.6665C30.5781 28.4402 31.6394 27.4424 32.9438 27.4424C34.2482 27.4424 35.3095 28.4402 35.3095 29.6665C35.3095 30.1475 35.1484 30.6046 34.8447 30.9892C34.3995 31.5538 33.6888 31.8906 32.9438 31.8906ZM32.9438 28.3594C32.1774 28.3594 31.5545 28.946 31.5545 29.6656C31.5545 30.3853 32.1784 30.9718 32.9438 30.9718C33.388 30.9718 33.7952 30.779 34.0617 30.4422C34.2394 30.2164 34.3331 29.9474 34.3341 29.6647C34.3331 28.9451 33.7093 28.3594 32.9438 28.3594ZM34.8213 29.6665H34.8311H34.8213Z"/>
</mask>
<path d="M34.8447 30.9892L34.0599 30.3696L34.0596 30.37L34.8447 30.9892ZM34.0617 30.4422L34.8459 31.0627L34.8476 31.0606L34.0617 30.4422ZM34.3341 29.6647L35.3341 29.6682L35.3341 29.6633L34.3341 29.6647ZM32.9438 30.8906C32.1327 30.8906 31.5781 30.2833 31.5781 29.6665H29.5781C29.5781 31.5024 31.1462 32.8906 32.9438 32.8906V30.8906ZM31.5781 29.6665C31.5781 29.0497 32.1327 28.4424 32.9438 28.4424V26.4424C31.1462 26.4424 29.5781 27.8307 29.5781 29.6665H31.5781ZM32.9438 28.4424C33.755 28.4424 34.3095 29.0497 34.3095 29.6665H36.3095C36.3095 27.8307 34.7414 26.4424 32.9438 26.4424V28.4424ZM34.3095 29.6665C34.3095 29.9171 34.2277 30.157 34.0599 30.3696L35.6296 31.6089C36.0691 31.0522 36.3095 30.378 36.3095 29.6665H34.3095ZM34.0596 30.37C33.812 30.6839 33.3957 30.8906 32.9438 30.8906V32.8906C33.9819 32.8906 34.9871 32.4236 35.6299 31.6085L34.0596 30.37ZM32.9438 27.3594C31.6837 27.3594 30.5545 28.3369 30.5545 29.6656H32.5545C32.5545 29.5551 32.6711 29.3594 32.9438 29.3594V27.3594ZM30.5545 29.6656C30.5545 30.9948 31.6851 31.9718 32.9438 31.9718V29.9718C32.6716 29.9718 32.5545 29.7757 32.5545 29.6656H30.5545ZM32.9438 31.9718C33.6813 31.9718 34.3821 31.6488 34.8459 31.0627L33.2775 29.8217C33.2082 29.9092 33.0948 29.9718 32.9438 29.9718V31.9718ZM34.8476 31.0606C35.162 30.6611 35.3324 30.1761 35.3341 29.6682L33.3341 29.6612C33.3339 29.7187 33.3169 29.7716 33.2759 29.8238L34.8476 31.0606ZM35.3341 29.6633C35.3323 28.3347 34.2019 27.3594 32.9438 27.3594V29.3594C33.2166 29.3594 33.334 29.5555 33.3341 29.6661L35.3341 29.6633ZM34.8213 30.6665H34.8311V28.6665H34.8213V30.6665ZM34.8311 28.6665H34.8213V30.6665H34.8311V28.6665Z" fill="white" mask="url(#path-13-inside-6_249_5003)"/>
<mask id="path-15-inside-7_249_5003" fill="white">
<path d="M37.1782 33.0755C37.0767 33.0755 36.9752 33.0462 36.8883 32.9847L34.1623 31.0855C33.9456 30.935 33.9006 30.6467 34.0608 30.4439C34.2219 30.2401 34.5275 30.1979 34.7432 30.3484L37.4682 32.2485C37.685 32.399 37.7299 32.6873 37.5697 32.8901C37.475 33.0122 37.3266 33.0755 37.1782 33.0755Z"/>
</mask>
<path d="M36.8883 32.9847L37.466 32.1684L37.4599 32.1642L36.8883 32.9847ZM34.1623 31.0855L34.7339 30.265L34.7327 30.2642L34.1623 31.0855ZM34.0608 30.4439L33.2763 29.8237L33.2758 29.8243L34.0608 30.4439ZM34.7432 30.3484L34.1711 31.1686L34.1713 31.1687L34.7432 30.3484ZM37.4682 32.2485L36.8962 33.0688L36.8978 33.0698L37.4682 32.2485ZM37.5697 32.8901L36.7848 32.2705L36.7796 32.2772L37.5697 32.8901ZM37.1782 32.0755C37.2695 32.0755 37.3727 32.1024 37.466 32.1684L36.3106 33.8009C36.5776 33.9899 36.8839 34.0755 37.1782 34.0755V32.0755ZM37.4599 32.1642L34.7339 30.265L33.5907 31.906L36.3166 33.8052L37.4599 32.1642ZM34.7327 30.2642C34.9758 30.433 35.0528 30.8011 34.8457 31.0635L33.2758 29.8243C32.7485 30.4924 32.9153 31.437 33.5919 31.9068L34.7327 30.2642ZM34.8452 31.0641C34.6693 31.2866 34.3773 31.3124 34.1711 31.1686L35.3154 29.5283C34.6776 29.0833 33.7744 29.1936 33.2763 29.8237L34.8452 31.0641ZM34.1713 31.1687L36.8962 33.0688L38.0402 31.4282L35.3152 29.5281L34.1713 31.1687ZM36.8978 33.0698C36.6547 32.901 36.5777 32.5329 36.7848 32.2705L38.3547 33.5097C38.882 32.8416 38.7152 31.897 38.0386 31.4272L36.8978 33.0698ZM36.7796 32.2772C36.8954 32.1279 37.0538 32.0755 37.1782 32.0755V34.0755C37.5995 34.0755 38.0546 33.8965 38.3599 33.5031L36.7796 32.2772Z" fill="white" mask="url(#path-15-inside-7_249_5003)"/>
<mask id="path-17-inside-8_249_5003" fill="white">
<path d="M38.6874 35.8918C37.383 35.8918 36.3217 34.894 36.3217 33.6677C36.3217 33.1877 36.4828 32.7296 36.7865 32.3441C37.5959 31.3188 39.3347 31.1784 40.3169 32.054C40.7856 32.4726 41.0541 33.061 41.0541 33.6677C41.0531 34.894 39.9918 35.8918 38.6874 35.8918ZM38.6874 32.3615C38.2422 32.3615 37.8351 32.5543 37.5695 32.8912C37.3918 33.1179 37.2971 33.3868 37.2971 33.6686C37.2971 34.3892 37.921 34.9748 38.6865 34.9748C39.4529 34.9748 40.0758 34.3892 40.0758 33.6686C40.0758 33.307 39.9215 32.9701 39.6423 32.7204C39.3845 32.4882 39.0448 32.3615 38.6874 32.3615Z"/>
</mask>
<path d="M36.7865 32.3441L36.0016 31.7245L36.0009 31.7254L36.7865 32.3441ZM40.3169 32.054L40.9831 31.3082L40.9824 31.3076L40.3169 32.054ZM41.0541 33.6677L42.0541 33.6685V33.6677H41.0541ZM37.5695 32.8912L36.7842 32.2721L36.7824 32.2743L37.5695 32.8912ZM39.6423 32.7204L38.9729 33.4634L38.9757 33.4659L39.6423 32.7204ZM38.6874 34.8918C37.8763 34.8918 37.3217 34.2845 37.3217 33.6677H35.3217C35.3217 35.5036 36.8898 36.8918 38.6874 36.8918V34.8918ZM37.3217 33.6677C37.3217 33.4181 37.4036 33.1767 37.5721 32.9628L36.0009 31.7254C35.5621 32.2825 35.3217 32.9573 35.3217 33.6677H37.3217ZM37.5714 32.9637C37.7738 32.7073 38.1335 32.5184 38.5683 32.4829C39.0028 32.4474 39.3983 32.5748 39.6515 32.8005L40.9824 31.3076C40.2534 30.6576 39.2883 30.4174 38.4055 30.4895C37.523 30.5616 36.6086 30.9556 36.0016 31.7245L37.5714 32.9637ZM39.6508 32.7999C39.9153 33.0361 40.0541 33.3567 40.0541 33.6677H42.0541C42.0541 32.7653 41.6559 31.9091 40.9831 31.3082L39.6508 32.7999ZM40.0541 33.6669C40.0536 34.2845 39.4984 34.8918 38.6874 34.8918V36.8918C40.4853 36.8918 42.0526 35.5036 42.0541 33.6685L40.0541 33.6669ZM38.6874 31.3615C37.9497 31.3615 37.2478 31.684 36.7842 32.2721L38.3548 33.5103C38.4224 33.4246 38.5347 33.3615 38.6874 33.3615V31.3615ZM36.7824 32.2743C36.4712 32.6714 36.2971 33.1561 36.2971 33.6686H38.2971C38.2971 33.6175 38.3124 33.5644 38.3566 33.508L36.7824 32.2743ZM36.2971 33.6686C36.2971 34.9992 37.4282 35.9748 38.6865 35.9748V33.9748C38.4138 33.9748 38.2971 33.7792 38.2971 33.6686H36.2971ZM38.6865 35.9748C39.9461 35.9748 41.0758 34.9987 41.0758 33.6686H39.0758C39.0758 33.7797 38.9596 33.9748 38.6865 33.9748V35.9748ZM41.0758 33.6686C41.0758 33.0103 40.7911 32.4061 40.3088 31.975L38.9757 33.4659C39.052 33.5341 39.0758 33.6037 39.0758 33.6686H41.0758ZM40.3117 31.9775C39.862 31.5724 39.2807 31.3615 38.6874 31.3615V33.3615C38.8089 33.3615 38.9071 33.4041 38.9729 33.4634L40.3117 31.9775Z" fill="white" mask="url(#path-17-inside-8_249_5003)"/>
<mask id="path-19-inside-9_249_5003" fill="white">
<path d="M39.9798 32.8451C39.8588 32.8451 39.7377 32.8038 39.644 32.7194C39.4487 32.545 39.4409 32.254 39.6254 32.0704L42.861 28.8651C43.0475 28.6815 43.355 28.6741 43.5513 28.8476C43.7466 29.022 43.7554 29.313 43.5698 29.4966L40.3342 32.7019C40.2376 32.7974 40.1087 32.8451 39.9798 32.8451Z"/>
</mask>
<path d="M39.644 32.7194L40.3133 31.9764L40.3101 31.9735L39.644 32.7194ZM39.6254 32.0704L38.9216 31.36L38.9201 31.3615L39.6254 32.0704ZM42.861 28.8651L42.1595 28.1524L42.1572 28.1546L42.861 28.8651ZM43.5513 28.8476L44.2174 28.1018L44.2136 28.0984L43.5513 28.8476ZM43.5698 29.4966L42.8664 28.7858L42.8661 28.7862L43.5698 29.4966ZM40.3342 32.7019L41.0369 33.4134L41.038 33.4123L40.3342 32.7019ZM39.9798 31.8451C40.0824 31.8451 40.2066 31.8803 40.3133 31.9764L38.9746 33.4623C39.2688 33.7274 39.6351 33.8451 39.9798 33.8451V31.8451ZM40.3101 31.9735C40.5424 32.181 40.5557 32.5555 40.3307 32.7793L38.9201 31.3615C38.3261 31.9525 38.355 32.9089 38.9778 33.4652L40.3101 31.9735ZM40.3292 32.7808L43.5648 29.5755L42.1572 28.1546L38.9216 31.36L40.3292 32.7808ZM43.5626 29.5777C43.372 29.7653 43.0836 29.7689 42.889 29.5968L44.2136 28.0984C43.6265 27.5793 42.723 27.5977 42.1595 28.1524L43.5626 29.5777ZM42.8852 29.5935C42.6555 29.3884 42.6374 29.0125 42.8664 28.7858L44.2733 30.2074C44.8733 29.6135 44.8376 28.6557 44.2174 28.1018L42.8852 29.5935ZM42.8661 28.7862L39.6305 31.9915L41.038 33.4123L44.2736 30.207L42.8661 28.7862ZM39.6315 31.9904C39.7355 31.8877 39.8652 31.8451 39.9798 31.8451V33.8451C40.3522 33.8451 40.7396 33.707 41.0369 33.4134L39.6315 31.9904Z" fill="white" mask="url(#path-19-inside-9_249_5003)"/>
<mask id="path-21-inside-10_249_5003" fill="white">
<path d="M44.5083 30.1255C43.8991 30.1255 43.3211 29.9089 42.8797 29.5142C42.4121 29.0965 42.1426 28.5091 42.1426 27.9014C42.1426 26.6751 43.2039 25.6773 44.5083 25.6773C45.2054 25.6773 45.8635 25.9646 46.3145 26.4649C46.6758 26.866 46.874 27.3764 46.874 27.9014C46.874 29.1277 45.8127 30.1255 44.5083 30.1255ZM44.5083 26.5943C43.7419 26.5943 43.119 27.1808 43.119 27.9005C43.119 28.2631 43.2722 28.599 43.5515 28.8478C43.8102 29.0791 44.15 29.2067 44.5073 29.2067C45.2737 29.2067 45.8967 28.6201 45.8967 27.9005C45.8967 27.5921 45.7795 27.2919 45.5686 27.0569C45.304 26.7632 44.9174 26.5943 44.5083 26.5943Z"/>
</mask>
<path d="M42.8797 29.5142L43.5464 28.7688L43.5458 28.7683L42.8797 29.5142ZM46.3145 26.4649L47.0576 25.7957L47.0572 25.7952L46.3145 26.4649ZM46.874 27.9014H45.874H46.874ZM43.5515 28.8478L44.218 28.1023L44.2167 28.1011L43.5515 28.8478ZM45.5686 27.0569L46.3128 26.389L46.3116 26.3876L45.5686 27.0569ZM44.5083 29.1255C44.1366 29.1255 43.7982 28.994 43.5464 28.7688L42.2131 30.2595C42.844 30.8238 43.6615 31.1255 44.5083 31.1255V29.1255ZM43.5458 28.7683C43.2816 28.5324 43.1426 28.2124 43.1426 27.9014H41.1426C41.1426 28.8057 41.5425 29.6607 42.2137 30.26L43.5458 28.7683ZM43.1426 27.9014C43.1426 27.2846 43.6971 26.6773 44.5083 26.6773V24.6773C42.7106 24.6773 41.1426 26.0655 41.1426 27.9014H43.1426ZM44.5083 26.6773C44.9329 26.6773 45.3174 26.8523 45.5718 27.1345L47.0572 25.7952C46.4095 25.0769 45.4779 24.6773 44.5083 24.6773V26.6773ZM45.5714 27.1341C45.7717 27.3564 45.874 27.63 45.874 27.9014H47.874C47.874 27.1227 47.5799 26.3756 47.0576 25.7957L45.5714 27.1341ZM45.874 27.9014C45.874 28.5182 45.3194 29.1255 44.5083 29.1255V31.1255C46.3059 31.1255 47.874 29.7373 47.874 27.9014H45.874ZM44.5083 25.5943C43.2481 25.5943 42.119 26.5718 42.119 27.9005H44.119C44.119 27.7899 44.2356 27.5943 44.5083 27.5943V25.5943ZM42.119 27.9005C42.119 28.5581 42.4015 29.1625 42.8863 29.5944L44.2167 28.1011C44.143 28.0355 44.119 27.968 44.119 27.9005H42.119ZM42.885 29.5933C43.3329 29.9937 43.912 30.2067 44.5073 30.2067V28.2067C44.3879 28.2067 44.2875 28.1644 44.218 28.1023L42.885 29.5933ZM44.5073 30.2067C45.7675 30.2067 46.8967 29.2292 46.8967 27.9005H44.8967C44.8967 28.011 44.78 28.2067 44.5073 28.2067V30.2067ZM46.8967 27.9005C46.8967 27.3377 46.6831 26.8016 46.3128 26.389L44.8244 27.7248C44.8759 27.7822 44.8967 27.8464 44.8967 27.9005H46.8967ZM46.3116 26.3876C45.8504 25.8756 45.1901 25.5943 44.5083 25.5943V27.5943C44.6447 27.5943 44.7577 27.6508 44.8256 27.7262L46.3116 26.3876Z" fill="white" mask="url(#path-21-inside-10_249_5003)"/>
<mask id="path-23-inside-11_249_5003" fill="white">
<path d="M45.9428 27.2193C45.8041 27.2193 45.6665 27.1643 45.5698 27.0569C45.3951 26.8632 45.4214 26.574 45.6264 26.4097L48.6492 24.0021C48.8562 23.8378 49.1637 23.8625 49.3375 24.0553C49.5123 24.249 49.4859 24.5381 49.2809 24.7024L46.2581 27.1101C46.1654 27.1835 46.0531 27.2193 45.9428 27.2193Z"/>
</mask>
<path d="M45.5698 27.0569L46.3131 26.3879L46.3122 26.3869L45.5698 27.0569ZM45.6264 26.4097L45.0034 25.6275L45.0011 25.6294L45.6264 26.4097ZM48.6492 24.0021L48.0275 23.2188L48.0262 23.2199L48.6492 24.0021ZM49.3375 24.0553L48.5948 24.7249L48.5951 24.7252L49.3375 24.0553ZM49.2809 24.7024L49.9039 25.4846L49.9062 25.4828L49.2809 24.7024ZM46.2581 27.1101L46.8789 27.8941L46.8812 27.8923L46.2581 27.1101ZM45.9428 26.2193C46.0635 26.2193 46.2046 26.2673 46.3131 26.3879L44.8265 27.7258C45.1284 28.0612 45.5448 28.2193 45.9428 28.2193V26.2193ZM46.3122 26.3869C46.5331 26.6316 46.4837 27.0042 46.2518 27.1901L45.0011 25.6294C44.3591 26.1439 44.257 27.0947 44.8274 27.7268L46.3122 26.3869ZM46.2495 27.1919L49.2722 24.7843L48.0262 23.2199L45.0034 25.6275L46.2495 27.1919ZM49.2709 24.7853C49.0714 24.9436 48.7805 24.9309 48.5948 24.7249L50.0802 23.3857C49.547 22.7942 48.6409 22.7319 48.0275 23.2188L49.2709 24.7853ZM48.5951 24.7252C48.3743 24.4805 48.4236 24.1079 48.6556 23.9221L49.9062 25.4828C50.5482 24.9683 50.6503 24.0174 50.08 23.3854L48.5951 24.7252ZM48.6579 23.9202L45.6351 26.3279L46.8812 27.8923L49.9039 25.4846L48.6579 23.9202ZM45.6374 26.3261C45.7299 26.2528 45.839 26.2193 45.9428 26.2193V28.2193C46.2672 28.2193 46.6008 28.1142 46.8789 27.8941L45.6374 26.3261Z" fill="white" mask="url(#path-23-inside-11_249_5003)"/>
<mask id="path-25-inside-12_249_5003" fill="white">
<path d="M50.3985 25.4377C49.7023 25.4377 49.0433 25.1513 48.5922 24.6502C48.231 24.249 48.0318 23.7387 48.0318 23.2136C48.0318 21.9864 49.0931 20.9886 50.3985 20.9886C51.7029 20.9886 52.7641 21.9864 52.7641 23.2127C52.7641 24.44 51.7029 25.4377 50.3985 25.4377ZM50.3985 21.9065C49.632 21.9065 49.0091 22.4931 49.0091 23.2127C49.0091 23.5211 49.1263 23.8213 49.3372 24.0563C49.6027 24.35 49.9894 24.5189 50.3985 24.5189C51.1649 24.5189 51.7878 23.9323 51.7878 23.2127C51.7878 22.4931 51.1639 21.9065 50.3985 21.9065Z"/>
</mask>
<path d="M48.5922 24.6502L49.3355 23.9812L49.3353 23.9809L48.5922 24.6502ZM48.0318 23.2136H47.0318H48.0318ZM52.7641 23.2127H51.7641H52.7641ZM49.3372 24.0563L48.5929 24.7242L48.5954 24.7269L49.3372 24.0563ZM50.3985 24.4377C49.9738 24.4377 49.5891 24.2629 49.3355 23.9812L47.8489 25.3191C48.4975 26.0398 49.4308 26.4377 50.3985 26.4377V24.4377ZM49.3353 23.9809C49.1342 23.7577 49.0318 23.4838 49.0318 23.2136H47.0318C47.0318 23.9935 47.3277 24.7404 47.8491 25.3194L49.3353 23.9809ZM49.0318 23.2136C49.0318 22.5959 49.5863 21.9886 50.3985 21.9886V19.9886C48.5998 19.9886 47.0318 21.3769 47.0318 23.2136H49.0318ZM50.3985 21.9886C51.2096 21.9886 51.7641 22.5959 51.7641 23.2127H53.7641C53.7641 21.3769 52.1961 19.9886 50.3985 19.9886V21.9886ZM51.7641 23.2127C51.7641 23.8307 51.2093 24.4377 50.3985 24.4377V26.4377C52.1964 26.4377 53.7641 25.0492 53.7641 23.2127H51.7641ZM50.3985 20.9065C49.1383 20.9065 48.0091 21.884 48.0091 23.2127H50.0091C50.0091 23.1022 50.1257 22.9065 50.3985 22.9065V20.9065ZM48.0091 23.2127C48.0091 23.7755 48.2227 24.3116 48.5929 24.7242L50.0814 23.3883C50.0299 23.331 50.0091 23.2667 50.0091 23.2127H48.0091ZM48.5954 24.7269C49.0569 25.2374 49.7163 25.5189 50.3985 25.5189V23.5189C50.2624 23.5189 50.1485 23.4626 50.0789 23.3856L48.5954 24.7269ZM50.3985 25.5189C51.6586 25.5189 52.7878 24.5414 52.7878 23.2127H50.7878C50.7878 23.3233 50.6712 23.5189 50.3985 23.5189V25.5189ZM52.7878 23.2127C52.7878 21.8835 51.6572 20.9065 50.3985 20.9065V22.9065C50.6707 22.9065 50.7878 23.1026 50.7878 23.2127H52.7878Z" fill="white" mask="url(#path-25-inside-12_249_5003)"/>
</g>
<path fill-rule="evenodd" clip-rule="evenodd" d="M57.8424 54.096C57.8424 52.0218 56.1608 50.3402 54.0867 50.3402C52.0125 50.3402 50.3309 52.0218 50.3309 54.096V54.8471C50.3309 56.9213 52.0125 58.6029 54.0867 58.6029L54.255 58.599C56.2683 58.5002 57.8424 56.8516 57.8424 54.8471V54.096ZM51.8334 54.0959C51.8334 52.8515 52.8424 51.8424 54.0869 51.8424C55.3313 51.8424 56.3403 52.8515 56.3403 54.0959V54.8471C56.3403 56.0495 55.3956 57.039 54.1999 57.0978L54.0684 57.1008C52.8424 57.1005 51.8334 56.0915 51.8334 54.8471V54.0959ZM57.4667 59.3539C57.2303 59.3539 57.0076 59.4653 56.8658 59.6544L54.0865 63.3601L51.3072 59.6544C51.1654 59.4653 50.9427 59.3539 50.7063 59.3539H50.3307C47.8414 59.3539 45.8238 61.3718 45.8238 63.8609V67.3163C45.8238 68.3173 46.6351 69.119 47.6356 69.119H60.5374C61.5379 69.119 62.3492 68.3173 62.3492 67.3163V63.8609C62.3492 61.3718 60.3316 59.3539 57.8423 59.3539H57.4667ZM47.3263 63.8609C47.3263 62.2518 48.5911 60.9381 50.1809 60.86L50.3309 60.8563L53.4858 65.0628C53.7862 65.4634 54.3871 65.4634 54.6876 65.0628L57.8425 60.8563C59.502 60.8563 60.8471 62.2015 60.8471 63.8609V67.3163C60.8471 67.4836 60.7124 67.6168 60.5376 67.6168H47.6358C47.461 67.6168 47.3263 67.4836 47.3263 67.3163V63.8609ZM58.5934 66.121H57.0911C56.6763 66.121 56.34 65.7847 56.34 65.3699C56.34 64.955 56.6763 64.6187 57.0911 64.6187H58.5934C59.0083 64.6187 59.3446 64.955 59.3446 65.3699C59.3446 65.7847 59.0083 66.121 58.5934 66.121Z" fill="white"/>
<defs>
<filter id="filter0_d_249_5003" x="24.1312" y="16.9886" width="34.7635" height="31.0046" filterUnits="userSpaceOnUse" color-interpolation-filters="sRGB">
<feFlood flood-opacity="0" result="BackgroundImageFix"/>
<feColorMatrix in="SourceAlpha" type="matrix" values="0 0 0 0 0 0 0 0 0 0 0 0 0 0 0 0 0 0 127 0" result="hardAlpha"/>
<feOffset/>
<feGaussianBlur stdDeviation="2"/>
<feColorMatrix type="matrix" values="0 0 0 0 1 0 0 0 0 1 0 0 0 0 1 0 0 0 0.12 0"/>
<feBlend mode="normal" in2="BackgroundImageFix" result="effect1_dropShadow_249_5003"/>
<feBlend mode="normal" in="SourceGraphic" in2="effect1_dropShadow_249_5003" result="shape"/>
</filter>
</defs>
</svg>
