<svg width="81" height="81" viewBox="0 0 81 81" fill="none" xmlns="http://www.w3.org/2000/svg">
<rect x="0.813293" y="1.29895" width="79" height="79" rx="11.5" fill="#474351" stroke="#474351"/>
<path d="M62.1919 39.6511V18.9917C62.1919 15.1881 59.2529 12.1048 55.641 12.1048H24.9856C21.3676 12.1048 18.4347 15.1902 18.4347 18.9701V62.6276C18.4347 66.4192 21.3662 69.4929 24.9876 69.4929H35.9376" stroke="white" stroke-width="2"/>
<path fill-rule="evenodd" clip-rule="evenodd" d="M52.6358 46.9327C58.8652 46.9327 63.9158 51.9834 63.9158 58.2128C63.9158 64.4423 58.8652 69.4929 52.6358 69.4929C46.4063 69.4929 41.3557 64.4423 41.3557 58.2128C41.3557 51.9834 46.4063 46.9327 52.6358 46.9327ZM52.6357 48.668C47.3647 48.668 43.0911 52.9417 43.0911 58.2127C43.0911 63.4837 47.3647 67.7574 52.6357 67.7574C57.9068 67.7574 62.1804 63.4837 62.1804 58.2127C62.1804 52.9417 57.9068 48.668 52.6357 48.668ZM49.1651 53.8744C49.1651 53.1929 49.9147 52.7774 50.4927 53.1386L57.4343 57.4771C57.978 57.8169 57.978 58.6089 57.4343 58.9487L50.4927 63.2872C49.9147 63.6484 49.1651 63.2329 49.1651 62.5514V53.8744ZM50.9004 60.9856L55.3371 58.2127L50.9004 55.4397V60.9856Z" fill="white"/>
<path fill-rule="evenodd" clip-rule="evenodd" d="M33.1248 26.2588C34.4632 23.7647 37.2298 22.1513 40.3139 22.1513C41.9201 22.1513 43.464 22.5911 44.7757 23.3982C45.0815 23.5863 45.4956 23.5115 45.7008 23.2313C45.906 22.9511 45.8245 22.5714 45.5188 22.3833C43.9895 21.4424 42.1874 20.9291 40.3139 20.9291C36.7165 20.9291 33.4888 22.8113 31.9284 25.7193C31.7659 26.0222 31.902 26.3885 32.2324 26.5374C32.5627 26.6864 32.9623 26.5617 33.1248 26.2588ZM32.6223 31.5074C32.4189 30.8432 32.3137 30.1659 32.3137 29.4848C32.3137 29.3039 32.3208 29.1522 32.3369 29.0099C32.3748 28.6742 32.1086 28.3739 31.7423 28.3392C31.3761 28.3044 31.0485 28.5484 31.0106 28.8842C30.9894 29.0723 30.9804 29.2648 30.9804 29.4848C30.9804 30.2794 31.1027 31.0677 31.3385 31.8378C31.4381 32.1627 31.8061 32.3522 32.1606 32.261C32.5151 32.1698 32.7218 31.8324 32.6223 31.5074ZM48.3137 29.4848C48.3137 28.0119 47.8339 26.5966 46.9536 25.3949C46.7484 25.1147 46.8298 24.735 47.1354 24.5469C47.4411 24.3587 47.8553 24.4333 48.0605 24.7135C49.087 26.1148 49.6471 27.7668 49.6471 29.4848C49.6471 30.2916 49.5256 31.0828 49.287 31.8316C49.1838 32.1556 48.8136 32.3415 48.4602 32.2469C48.1068 32.1523 47.9039 31.813 48.0071 31.489C48.21 30.8523 48.3137 30.1765 48.3137 29.4848ZM40.9804 37.4292V34.9848C40.9804 34.6472 40.6819 34.3736 40.3137 34.3736C39.9456 34.3736 39.6471 34.6472 39.6471 34.9848V37.4292C39.6471 37.7667 39.9456 38.0403 40.3137 38.0403C40.6819 38.0403 40.9804 37.7667 40.9804 37.4292ZM40.9804 29.4848V32.5403C40.9804 32.8778 40.6819 33.1514 40.3137 33.1514C39.9456 33.1514 39.6471 32.8778 39.6471 32.5403V29.4848C39.6471 29.1472 39.9456 28.8736 40.3137 28.8736C40.6819 28.8736 40.9804 29.1472 40.9804 29.4848ZM35.1471 34.9848V29.4848C35.1471 28.6894 35.3623 27.9195 35.7669 27.233C35.942 26.9361 35.8212 26.5653 35.4973 26.4049C35.1734 26.2444 34.7689 26.3551 34.5939 26.652C34.0848 27.5158 33.8137 28.4852 33.8137 29.4848V34.9848C33.8137 35.3223 34.1122 35.5959 34.4804 35.5959C34.8486 35.5959 35.1471 35.3223 35.1471 34.9848ZM40.3136 24.6721C39.4459 24.6721 38.606 24.8694 37.8572 25.2403C37.5333 25.4008 37.1288 25.2901 36.9537 24.9932C36.7787 24.6963 36.8994 24.3255 37.2234 24.165C38.1656 23.6983 39.2232 23.4499 40.3136 23.4499C43.8947 23.4499 46.8136 26.1254 46.8136 29.4082V34.9082C46.8136 35.2458 46.5151 35.5194 46.1469 35.5194C45.7788 35.5194 45.4803 35.2458 45.4803 34.9082V29.4082C45.4803 26.8004 43.1583 24.6721 40.3136 24.6721ZM43.9804 36.9404V33.4571C43.9804 33.1196 43.6819 32.846 43.3137 32.846C42.9456 32.846 42.6471 33.1196 42.6471 33.4571V36.9404C42.6471 37.2779 42.9456 37.5515 43.3137 37.5515C43.6819 37.5515 43.9804 37.2779 43.9804 36.9404ZM43.9804 29.4848V30.707C43.9804 31.0445 43.6819 31.3181 43.3137 31.3181C42.9456 31.3181 42.6471 31.0445 42.6471 30.707V29.4848C42.6471 28.9077 42.3988 28.3688 41.9595 27.9709C41.5312 27.5734 40.9432 27.3459 40.3137 27.3459C39.0219 27.3459 37.9804 28.3006 37.9804 29.4848V36.9403C37.9804 37.2778 37.6819 37.5514 37.3137 37.5514C36.9456 37.5514 36.6471 37.2778 36.6471 36.9403V29.4848C36.6471 27.6256 38.2856 26.1236 40.3137 26.1236C41.3015 26.1236 42.2305 26.4832 42.9022 27.1067C43.5881 27.7277 43.9804 28.5793 43.9804 29.4848Z" fill="white"/>
</svg>
