<svg width="81" height="81" viewBox="0 0 81 81" fill="none" xmlns="http://www.w3.org/2000/svg">
<rect x="0.813293" y="0.925079" width="79" height="79" rx="11.5" fill="#024D66" stroke="#024D66"/>
<path d="M62.1919 39.2773V18.6178C62.1919 14.8143 59.2529 11.731 55.641 11.731H24.9856C21.3676 11.731 18.4347 14.8164 18.4347 18.5963V62.2537C18.4347 66.0454 21.3662 69.1191 24.9876 69.1191H35.9376" stroke="white" stroke-width="2"/>
<path d="M55.1394 45.2844C55.5337 44.6773 56.4224 44.6773 56.8167 45.2844L69.902 65.4311C70.3341 66.0964 69.8567 66.9758 69.0634 66.9758H42.8927C42.0994 66.9758 41.622 66.0964 42.0541 65.4311L55.1394 45.2844Z" stroke="white" stroke-width="2"/>
<path d="M55.0634 61.3203C55.0634 61.0723 55.1274 60.8683 55.2554 60.7083C55.3834 60.5403 55.6154 60.4563 55.9514 60.4563C56.2794 60.4563 56.5114 60.5403 56.6474 60.7083C56.7834 60.8683 56.8514 61.0723 56.8514 61.3203C56.8514 61.5683 56.7834 61.7763 56.6474 61.9443C56.5194 62.1043 56.2874 62.1843 55.9514 62.1843C55.6234 62.1843 55.3914 62.1003 55.2554 61.9323C55.1274 61.7643 55.0634 61.5603 55.0634 61.3203ZM55.2794 53.6523H56.6234L56.5754 59.2323H55.3154L55.2794 53.6523Z" fill="white"/>
<ellipse cx="30.8823" cy="30.2101" rx="1.57184" ry="1.57184" fill="white"/>
<ellipse cx="37.1697" cy="30.2101" rx="1.57184" ry="1.57184" fill="white"/>
<ellipse cx="43.4569" cy="30.2101" rx="1.57184" ry="1.57184" fill="white"/>
<ellipse cx="49.7443" cy="30.2101" rx="1.57184" ry="1.57184" fill="white"/>
</svg>
