<svg width="81" height="81" viewBox="0 0 81 81" fill="none" xmlns="http://www.w3.org/2000/svg">
<rect x="1.00781" y="0.973877" width="79" height="79" rx="11.5" fill="#E45131" stroke="#E45131"/>
<rect width="23.6891" height="2.78531" rx="1.39266" transform="matrix(-1 0 0 1 52.0605 34.9091)" fill="white"/>
<rect width="23.6891" height="2.78531" rx="1.39266" transform="matrix(-1 0 0 1 52.0605 34.9091)" stroke="white"/>
<path fill-rule="evenodd" clip-rule="evenodd" d="M17.9975 23.7612H62.4344C64.0912 23.7612 65.4343 25.1044 65.4343 26.7612V42.0867H67.4343V26.7612C67.4343 23.9998 65.1958 21.7612 62.4344 21.7612H17.9975C15.2361 21.7612 12.9975 23.9998 12.9975 26.7612V54.1866C12.9975 56.948 15.2361 59.1866 17.9975 59.1866H41.5362V57.1866H17.9975C16.3406 57.1866 14.9975 55.8434 14.9975 54.1866V26.7612C14.9975 25.1044 16.3406 23.7612 17.9975 23.7612Z" fill="white"/>
<path fill-rule="evenodd" clip-rule="evenodd" d="M61.1409 49.9543V48.1078C61.1409 46.0687 59.2756 44.4149 56.9746 44.4149C54.674 44.4149 52.8082 46.0683 52.8082 48.1078V49.9543C51.6576 49.9543 50.725 50.7809 50.725 51.8007V57.3401C50.725 58.3599 51.6576 59.1865 52.8082 59.1865H61.1409C62.2915 59.1865 63.2241 58.3599 63.2241 57.3401V51.8007C63.2241 50.7809 62.2915 49.9543 61.1409 49.9543ZM54.8914 48.1078C54.8914 47.088 55.8242 46.2614 56.9746 46.2614C58.1252 46.2614 59.0577 47.0882 59.0577 48.1078V49.9543H54.8914V48.1078ZM56.217 52.1794C56.217 51.6565 56.641 51.2325 57.1639 51.2325C57.6869 51.2325 58.1108 51.6565 58.1108 52.1794V53.1263C58.1108 53.208 58.1005 53.2872 58.0811 53.3628C58.6635 53.6858 59.0577 54.3069 59.0577 55.0201C59.0577 56.066 58.2098 56.9139 57.1639 56.9139C56.118 56.9139 55.2701 56.066 55.2701 55.0201C55.2701 54.3069 55.6643 53.6858 56.2468 53.3628C56.2273 53.2872 56.217 53.208 56.217 53.1263V52.1794Z" fill="white"/>
</svg>
