<svg width="81" height="81" viewBox="0 0 81 81" fill="none" xmlns="http://www.w3.org/2000/svg">
<rect x="1.16476" y="0.973877" width="79" height="79" rx="11.5" fill="#090E3F" stroke="#090E3F"/>
<line x1="10.9042" y1="50.7397" x2="59.9727" y2="50.7397" stroke="white" stroke-width="1.5"/>
<line x1="32.6839" y1="45.4824" x2="41.6985" y2="45.4824" stroke="white" stroke-width="1.5" stroke-linecap="round"/>
<mask id="path-4-inside-1_249_5004" fill="white">
<path fill-rule="evenodd" clip-rule="evenodd" d="M30.4289 19.6932H45.7058C45.9819 19.6932 46.2058 19.9171 46.2058 20.1932V26.9556H47.7058V20.1932C47.7058 19.0887 46.8103 18.1932 45.7058 18.1932H30.4289C29.3243 18.1932 28.4289 19.0887 28.4289 20.1932V33.7177C28.4289 33.7255 28.4289 33.7333 28.429 33.741V26.9556H29.9289V20.1932C29.9289 19.9171 30.1527 19.6932 30.4289 19.6932Z"/>
</mask>
<path fill-rule="evenodd" clip-rule="evenodd" d="M30.4289 19.6932H45.7058C45.9819 19.6932 46.2058 19.9171 46.2058 20.1932V26.9556H47.7058V20.1932C47.7058 19.0887 46.8103 18.1932 45.7058 18.1932H30.4289C29.3243 18.1932 28.4289 19.0887 28.4289 20.1932V33.7177C28.4289 33.7255 28.4289 33.7333 28.429 33.741V26.9556H29.9289V20.1932C29.9289 19.9171 30.1527 19.6932 30.4289 19.6932Z" fill="white"/>
<path d="M46.2058 26.9556H45.2058V27.9556H46.2058V26.9556ZM47.7058 26.9556V27.9556H48.7058V26.9556H47.7058ZM28.429 33.741L27.4291 33.7525L29.429 33.741H28.429ZM28.429 26.9556V25.9556H27.429V26.9556H28.429ZM29.9289 26.9556V27.9556H30.9289V26.9556H29.9289ZM45.7058 18.6932H30.4289V20.6932H45.7058V18.6932ZM47.2058 20.1932C47.2058 19.3648 46.5342 18.6932 45.7058 18.6932V20.6932C45.4296 20.6932 45.2058 20.4694 45.2058 20.1932H47.2058ZM47.2058 26.9556V20.1932H45.2058V26.9556H47.2058ZM46.2058 27.9556H47.7058V25.9556H46.2058V27.9556ZM48.7058 26.9556V20.1932H46.7058V26.9556H48.7058ZM48.7058 20.1932C48.7058 18.5364 47.3626 17.1932 45.7058 17.1932V19.1932C46.2581 19.1932 46.7058 19.641 46.7058 20.1932H48.7058ZM45.7058 17.1932H30.4289V19.1932H45.7058V17.1932ZM30.4289 17.1932C28.772 17.1932 27.4289 18.5364 27.4289 20.1932H29.4289C29.4289 19.641 29.8766 19.1932 30.4289 19.1932V17.1932ZM27.4289 20.1932V33.7177H29.4289V20.1932H27.4289ZM27.4289 33.7177C27.4289 33.7293 27.4289 33.7409 27.4291 33.7525L29.4289 33.7296C29.4289 33.7256 29.4289 33.7217 29.4289 33.7177H27.4289ZM29.429 33.741V26.9556H27.429V33.741H29.429ZM28.429 27.9556H29.9289V25.9556H28.429V27.9556ZM28.9289 20.1932V26.9556H30.9289V20.1932H28.9289ZM30.4289 18.6932C29.6004 18.6932 28.9289 19.3648 28.9289 20.1932H30.9289C30.9289 20.4694 30.705 20.6932 30.4289 20.6932V18.6932Z" fill="white" mask="url(#path-4-inside-1_249_5004)"/>
<path fill-rule="evenodd" clip-rule="evenodd" d="M47.7057 26.2055H13.9041C11.833 26.2055 10.1541 27.8844 10.1541 29.9555V59.0044C10.1541 61.0755 11.833 62.7544 13.9041 62.7544H56.9726C59.0436 62.7544 60.7226 61.0755 60.7226 59.0044V46.2325H59.2226V59.0044C59.2226 60.2471 58.2152 61.2544 56.9726 61.2544H13.9041C12.6614 61.2544 11.6541 60.2471 11.6541 59.0044V29.9555C11.6541 28.7129 12.6614 27.7055 13.9041 27.7055H47.7057V26.2055Z" fill="white"/>
<path d="M59.2946 19.603C59.0398 19.8522 58.8996 20.1859 58.8996 20.5427L59.2946 19.603Z" fill="white" stroke="white" stroke-width="2"/>
</svg>
