<svg width="81" height="81" viewBox="0 0 81 81" fill="none" xmlns="http://www.w3.org/2000/svg">
<rect x="1.32178" y="0.973877" width="79" height="79" rx="11.5" fill="#9AC12A" stroke="#9AC12A"/>
<path d="M62.7004 39.326V18.6666C62.7004 14.8631 59.7614 11.7797 56.1495 11.7797H25.4941C21.8761 11.7797 18.9432 14.8652 18.9432 18.6451V62.3025C18.9432 66.0941 21.8747 69.1679 25.4961 69.1679H36.4461" stroke="white" stroke-width="2"/>
<path fill-rule="evenodd" clip-rule="evenodd" d="M56.8575 41.7336C57.2425 41.7336 57.5547 42.0458 57.5547 42.4308V43.204C57.5547 43.5171 57.7212 43.813 58.0265 44.0212L58.1222 44.081L58.2402 44.1429C58.5509 44.2865 58.8854 44.2813 59.1524 44.1281L59.8301 43.7377C60.1631 43.5458 60.5886 43.6597 60.7814 43.9922L62.6066 47.1421C62.7999 47.4758 62.6856 47.9032 62.3513 48.0957L61.6813 48.4817C61.3834 48.6528 61.2035 48.9913 61.2044 49.3921L61.2086 49.5219C61.2372 49.874 61.4106 50.1679 61.682 50.3239L62.3513 50.7094C62.6856 50.9019 62.7999 51.3293 62.6066 51.6631L60.7814 54.8129C60.5886 55.1454 60.1631 55.2593 59.8301 55.0674L59.1536 54.6777C58.8557 54.5068 58.4758 54.5192 58.141 54.7136L58.008 54.7949C57.7212 54.9921 57.5547 55.288 57.5547 55.6011V56.3743C57.5547 56.7593 57.2425 57.0715 56.8575 57.0715H53.2064C52.8214 57.0715 52.5092 56.7593 52.5092 56.3743V55.6011C52.5092 55.288 52.3427 54.9921 52.0374 54.7839L51.9417 54.7241L51.8237 54.6622C51.513 54.5186 51.1785 54.5238 50.9114 54.677L50.2338 55.0674C49.9008 55.2593 49.4753 55.1455 49.2826 54.813L47.4567 51.6632C47.2632 51.3293 47.3777 50.9017 47.7121 50.7092L48.3826 50.3234C48.6805 50.1523 48.8604 49.8138 48.8595 49.413L48.8553 49.2832C48.8267 48.9311 48.6533 48.6372 48.3821 48.4814L47.7121 48.0959C47.3777 47.9034 47.2632 47.4758 47.4567 47.142L49.2826 43.9921C49.4753 43.6596 49.9008 43.5458 50.2338 43.7377L50.9103 44.1275C51.2082 44.2983 51.5881 44.2859 51.9229 44.0915L52.0559 44.0102C52.3427 43.813 52.5092 43.5171 52.5092 43.204V42.4308C52.5092 42.0458 52.8214 41.7336 53.2064 41.7336H56.8575ZM53.9038 43.1279V43.2039C53.9038 44.0158 53.4753 44.7515 52.8087 45.1856L52.6612 45.2753L52.4917 45.3685C51.7644 45.736 50.9173 45.7388 50.2156 45.3362L50.1404 45.2929L49.014 47.2361L49.0773 47.2725C49.8262 47.7027 50.2561 48.5114 50.2541 49.392L50.25 49.5662C50.2044 50.3874 49.7821 51.1276 49.0778 51.5322L49.014 51.5689L50.1404 53.5121L50.2167 53.4681C50.961 53.0411 51.8706 53.0709 52.6297 53.5115L52.7882 53.6072C53.4753 54.0534 53.9038 54.7892 53.9038 55.6011V55.6771H56.1605V55.6011C56.1605 54.7892 56.5891 54.0534 57.2556 53.6194L57.4031 53.5297L57.5726 53.4365C58.2999 53.069 59.147 53.0662 59.8487 53.4688L59.9238 53.512L61.0499 51.5687L60.987 51.5325C60.2381 51.1023 59.8083 50.2936 59.8102 49.4129L59.8143 49.2387C59.8599 48.4176 60.2821 47.6774 60.9863 47.273L61.0499 47.2363L59.9238 45.293L59.8476 45.3369C59.1033 45.7639 58.1937 45.7341 57.4346 45.2935L57.2761 45.1978C56.5891 44.7515 56.1605 44.0158 56.1605 43.2039V43.1279H53.9038ZM55.032 46.6138C56.5723 46.6138 57.8207 47.8622 57.8207 49.4025C57.8207 50.9427 56.5723 52.1911 55.032 52.1911C53.4918 52.1911 52.2433 50.9427 52.2433 49.4025C52.2433 47.8622 53.4918 46.6138 55.032 46.6138ZM55.032 48.0081C54.2619 48.0081 53.6377 48.6323 53.6377 49.4024C53.6377 50.1726 54.2619 50.7968 55.032 50.7968C55.8022 50.7968 56.4264 50.1726 56.4264 49.4024C56.4264 48.6323 55.8022 48.0081 55.032 48.0081Z" fill="white"/>
<path fill-rule="evenodd" clip-rule="evenodd" d="M47.2769 58.4314C47.5464 58.4314 47.7649 58.6499 47.7649 58.9194V59.4606C47.7649 59.6798 47.8815 59.8869 48.0952 60.0327L48.1622 60.0746L48.2447 60.1179C48.4623 60.2184 48.6964 60.2148 48.8833 60.1075L49.3577 59.8342C49.5908 59.6999 49.8887 59.7796 50.0236 60.0124L51.3012 62.2173C51.4366 62.4509 51.3565 62.7501 51.1226 62.8848L50.6535 63.155C50.445 63.2748 50.3191 63.5118 50.3197 63.7923L50.3226 63.8832C50.3427 64.1296 50.464 64.3354 50.6541 64.4445L51.1226 64.7144C51.3565 64.8492 51.4366 65.1484 51.3012 65.382L50.0236 67.5869C49.8887 67.8197 49.5908 67.8994 49.3577 67.765L48.8841 67.4922C48.6756 67.3726 48.4097 67.3813 48.1753 67.5174L48.0823 67.5743C47.8815 67.7123 47.7649 67.9194 47.7649 68.1386V68.6799C47.7649 68.9494 47.5464 69.1679 47.2769 69.1679H44.7211C44.4516 69.1679 44.2331 68.9494 44.2331 68.6799V68.1386C44.2331 67.9194 44.1165 67.7123 43.9028 67.5666L43.8358 67.5247L43.7532 67.4814C43.5357 67.3808 43.3016 67.3845 43.1146 67.4918L42.6403 67.765C42.4072 67.8993 42.1094 67.8197 41.9745 67.5869L40.6963 65.3821C40.5608 65.1483 40.641 64.849 40.8751 64.7143L41.3445 64.4442C41.553 64.3245 41.6789 64.0875 41.6783 63.807L41.6754 63.7161C41.6553 63.4696 41.534 63.2639 41.3441 63.1548L40.8751 62.885C40.641 62.7502 40.5608 62.4509 40.6963 62.2172L41.9745 60.0123C42.1094 59.7796 42.4072 59.6999 42.6403 59.8342L43.1139 60.1071C43.3224 60.2267 43.5883 60.218 43.8227 60.0819L43.9157 60.025C44.1165 59.8869 44.2331 59.6798 44.2331 59.4606V58.9194C44.2331 58.6499 44.4516 58.4314 44.7211 58.4314H47.2769ZM45.2091 59.4074V59.4606C45.2091 60.0289 44.9091 60.5439 44.4425 60.8478L44.3393 60.9106L44.2207 60.9758C43.7116 61.2331 43.1186 61.235 42.6274 60.9532L42.5747 60.9229L41.7862 62.2831L41.8306 62.3086C42.3548 62.6097 42.6557 63.1758 42.6543 63.7923L42.6514 63.9142C42.6195 64.489 42.324 65.0072 41.8309 65.2904L41.7862 65.3161L42.5747 66.6763L42.6282 66.6455C43.1492 66.3466 43.7859 66.3675 44.3172 66.6759L44.4282 66.7429C44.9091 67.0553 45.2091 67.5703 45.2091 68.1386V68.1918H46.7888V68.1386C46.7888 67.5703 47.0888 67.0553 47.5554 66.7514L47.6586 66.6886L47.7773 66.6234C48.2864 66.3661 48.8794 66.3642 49.3706 66.646L49.4231 66.6763L50.2114 65.3159L50.1674 65.2906C49.6432 64.9895 49.3422 64.4233 49.3436 63.8069L49.3465 63.685C49.3784 63.1102 49.674 62.592 50.1668 62.3089L50.2114 62.2833L49.4231 60.9229L49.3698 60.9537C48.8487 61.2526 48.2121 61.2317 47.6807 60.9233L47.5697 60.8563C47.0888 60.5439 46.7888 60.0289 46.7888 59.4606V59.4074H45.2091ZM45.9989 61.8475C47.0771 61.8475 47.951 62.7214 47.951 63.7996C47.951 64.8778 47.0771 65.7517 45.9989 65.7517C44.9208 65.7517 44.0469 64.8778 44.0469 63.7996C44.0469 62.7214 44.9208 61.8475 45.9989 61.8475ZM45.9988 62.8234C45.4597 62.8234 45.0228 63.2604 45.0228 63.7995C45.0228 64.3386 45.4597 64.7755 45.9988 64.7755C46.5379 64.7755 46.9748 64.3386 46.9748 63.7995C46.9748 63.2604 46.5379 62.8234 45.9988 62.8234Z" fill="white"/>
<path fill-rule="evenodd" clip-rule="evenodd" d="M38.941 20.9305C38.726 21.0317 38.5254 21.1699 38.3495 21.3452L24.2951 35.3496C23.463 36.1788 23.463 37.5608 24.2951 38.3901L25.6821 39.7721C26.0519 40.1406 26.6067 40.1406 26.9766 39.7721C27.9012 38.8507 29.473 38.8507 30.3977 39.8642C31.3223 40.7856 31.3224 42.2597 30.4902 43.2732C30.1204 43.6417 30.1204 44.1945 30.4902 44.5631L31.9696 46.0372C32.3394 46.4058 32.8942 46.6822 33.449 46.6822C34.0037 46.6822 34.5585 46.4979 34.9284 46.0372L41.9433 39.0472H39.2619L38.442 39.8642L36.7776 38.2058L36.1304 38.8507L37.7947 40.5092L33.6339 44.6552C33.5414 44.7473 33.3566 44.8395 33.2641 44.6552L32.3395 43.7339C33.3566 42.0754 33.0791 39.9564 31.6922 38.4822C30.3052 37.1002 28.0862 36.8238 26.4218 37.8373L25.5896 37.008C25.4972 36.9159 25.4972 36.7316 25.5896 36.6395L29.7505 32.4935L31.4148 34.1519L32.062 33.5069L30.3977 31.8485L38.941 23.3355V20.9305ZM32.7115 35.2985L33.3653 34.647L35.6536 36.9272L34.9998 37.5787L32.7115 35.2985Z" fill="white"/>
<path d="M57.7399 31.6935C57.8553 31.6066 57.9244 31.4713 57.9272 31.3267L57.9397 30.7282L57.9749 29.0443L57.9809 28.754C57.9849 28.5752 57.8872 28.4095 57.7296 28.3261L57.4726 28.1902L49.9768 24.224L49.9657 24.4938C49.9695 24.3991 49.9478 24.3074 49.9054 24.2267C49.8994 24.2155 49.8931 24.2044 49.8864 24.1936C49.8381 24.116 49.7696 24.0509 49.6855 24.0064L57.7399 31.6935ZM57.7399 31.6935C57.6245 31.7809 57.476 31.8106 57.336 31.774L57.7399 31.6935ZM44.6429 36.1794L44.6433 36.1791C44.6431 36.1792 44.6429 36.1794 44.6427 36.1795L44.6429 36.1794Z" fill="white" stroke="white" stroke-width="2"/>
</svg>
