<svg width="81" height="81" viewBox="0 0 81 81" fill="none" xmlns="http://www.w3.org/2000/svg">
<rect x="1.32178" y="0.809082" width="79" height="79" rx="11.5" fill="#6FB4B7" stroke="#6FB4B7"/>
<rect x="18.946" y="11.6725" width="43.76" height="57.2598" rx="7" stroke="white" stroke-width="2"/>
<path d="M36.5772 39.3351L35.7325 40.1768L38.6891 43.1229L39.5338 42.2812L36.5772 39.3351Z" fill="white"/>
<path d="M56.7556 31.91L46.9593 22.1485C45.8841 21.0771 44.0922 21.0771 43.017 22.1485L24.8581 40.2429C23.7829 41.3143 23.7829 43.0999 24.8581 44.1713L26.6501 45.9569C27.1279 46.4331 27.8448 46.4331 28.3226 45.9569C29.5173 44.7665 31.5482 44.7665 32.7428 46.076C33.9375 47.2664 33.9376 49.1711 32.8624 50.4805C32.3845 50.9567 32.3845 51.671 32.8624 52.1471L34.7738 54.0518C35.2517 54.528 35.9685 54.8851 36.6853 54.8851C37.4021 54.8851 38.1188 54.647 38.5967 54.0518L56.7556 35.9574C57.2335 35.4812 57.5918 34.767 57.5918 34.0527C57.5918 33.1004 57.353 32.3861 56.7556 31.91ZM55.0831 34.1718L43.1365 46.076L40.986 43.9332L40.1498 44.7665L42.3001 46.9093L36.9241 52.2662C36.8047 52.3852 36.5659 52.5043 36.4464 52.2662L35.2517 51.0758C36.5659 48.933 36.2074 46.195 34.4154 44.2904C32.6234 42.5047 29.7563 42.1476 27.6059 43.4571L26.5306 42.3857C26.4112 42.2666 26.4112 42.0286 26.5306 41.9095L31.9066 36.5526L34.0571 38.6954L34.8933 37.8621L32.7428 35.7193L44.6894 23.8151C44.8089 23.6961 45.0479 23.6961 45.1673 23.8151L54.9636 33.5766C55.0831 33.6956 55.0831 33.8146 55.0831 33.8146C55.0831 33.8146 55.2025 34.0527 55.0831 34.1718Z" fill="white"/>
<path fill-rule="evenodd" clip-rule="evenodd" d="M44.6037 32.542L46.2976 30.8485C46.9017 30.2432 48.0361 30.3806 48.6602 31.0053C49.2852 31.6297 49.423 32.7639 48.818 33.3683L47.1242 35.0621L48.1485 39.7607C48.2127 40.0573 48.1217 40.3664 47.9074 40.5797L47.1348 41.3528C46.7865 41.7011 46.2216 41.7011 45.8742 41.3528C45.8342 41.3128 45.7982 41.2688 45.7629 41.2172L43.8455 38.3411L42.5185 39.6674L42.6235 40.6725C42.6511 40.9396 42.5568 41.2045 42.3671 41.3942L41.4546 42.3071C41.2489 42.513 40.9042 42.4695 40.756 42.219L39.5262 40.1396L37.4468 38.9098C37.1963 38.7616 37.1528 38.4168 37.3587 38.2111L38.2708 37.2999C38.4606 37.1092 38.7262 37.0151 38.994 37.0428L39.9984 37.1473L41.3251 35.8206L38.4522 33.905C38.4019 33.8721 38.3555 33.8341 38.3129 33.7915C37.9653 33.4438 37.9653 32.88 38.3129 32.5315L39.0866 31.7578C39.3011 31.5442 39.6096 31.4536 39.9058 31.5179L44.6037 32.542ZM46.5045 40.7228L47.2778 39.949L46.3755 35.8111L44.4879 37.6984L46.5045 40.7228ZM43.4389 37.4874L41.7382 39.1873C41.6432 39.2823 41.5961 39.4151 41.6101 39.5487L41.7368 40.7641L41.2304 41.2708L40.2348 39.5875C40.1966 39.5229 40.1427 39.469 40.0782 39.4308L38.395 38.4353L38.902 37.9291L40.1171 38.0556C40.2506 38.0695 40.3833 38.0224 40.4783 37.9275L42.3393 36.0664C42.5381 35.8676 42.5053 35.5367 42.2714 35.3807L38.9433 33.1611L39.7164 32.3886L44.6516 33.4644C44.7998 33.4967 44.9543 33.4514 45.0615 33.3442L46.9279 31.4783C47.1461 31.2597 47.7247 31.3298 48.03 31.6353C48.336 31.9411 48.4063 32.5199 48.188 32.738L46.3219 34.6041C46.3178 34.6082 46.3137 34.6124 46.3097 34.6167L43.449 37.4771C43.4456 37.4805 43.4422 37.4839 43.4389 37.4874Z" fill="white"/>
<rect x="43.0092" y="51.9685" width="11.1514" height="2.14451" rx="1.07225" fill="white"/>
<rect x="43.0092" y="54.5419" width="11.1514" height="2.14451" rx="1.07225" fill="white"/>
<rect x="43.0092" y="57.1154" width="11.1514" height="2.14451" rx="1.07225" fill="white"/>
</svg>
