<svg width="81" height="81" viewBox="0 0 81 81" fill="none" xmlns="http://www.w3.org/2000/svg">
<rect x="1.32178" y="1.29883" width="79" height="79" rx="11.5" fill="#D2C47B" stroke="#D2C47B"/>
<path d="M62.7004 39.651V18.9915C62.7004 15.188 59.7614 12.1047 56.1495 12.1047H25.4941C21.8761 12.1047 18.9432 15.1901 18.9432 18.97V62.6275C18.9432 66.4191 21.8747 69.4928 25.4961 69.4928H36.4461" stroke="white" stroke-width="2"/>
<path fill-rule="evenodd" clip-rule="evenodd" d="M45.064 29.8316C45.064 27.4912 43.1666 25.5938 40.8262 25.5938C38.4858 25.5938 36.5883 27.4912 36.5883 29.8316V30.6792C36.5883 33.0196 38.4858 34.9171 40.8262 34.9171L41.0161 34.9127C43.2878 34.8013 45.064 32.9409 45.064 30.6792V29.8316ZM38.2834 29.8316C38.2834 28.4274 39.4219 27.2889 40.8261 27.2889C42.2303 27.2889 43.3688 28.4274 43.3688 29.8316V30.6792C43.3688 32.036 42.3028 33.1525 40.9537 33.2188L40.8053 33.2222C39.4219 33.2219 38.2834 32.0834 38.2834 30.6792V29.8316ZM44.6401 35.7645C44.3733 35.7645 44.1221 35.8901 43.9621 36.1036L40.826 40.2849L37.69 36.1036C37.5299 35.8901 37.2787 35.7645 37.012 35.7645H36.5882C33.7793 35.7645 31.5027 38.0415 31.5027 40.85V44.7489C31.5027 45.8784 32.4181 46.7831 33.5471 46.7831H48.105C49.234 46.7831 50.1494 45.8784 50.1494 44.7489V40.85C50.1494 38.0415 47.8728 35.7645 45.0639 35.7645H44.6401ZM33.1978 40.85C33.1978 39.0344 34.6249 37.552 36.4189 37.4639L36.5881 37.4597L40.1479 42.2061C40.4869 42.6582 41.165 42.6582 41.504 42.2061L45.0638 37.4597C46.9364 37.4597 48.4541 38.9776 48.4541 40.85V44.7489C48.4541 44.9378 48.3021 45.088 48.1049 45.088H33.547C33.3498 45.088 33.1978 44.9378 33.1978 44.7489V40.85ZM45.9116 43.4003H44.2165C43.7484 43.4003 43.3689 43.0208 43.3689 42.5527C43.3689 42.0846 43.7484 41.7052 44.2165 41.7052H45.9116C46.3797 41.7052 46.7592 42.0846 46.7592 42.5527C46.7592 43.0208 46.3797 43.4003 45.9116 43.4003Z" fill="white"/>
<path fill-rule="evenodd" clip-rule="evenodd" d="M52.783 61.5934L52.5612 61.7036L52.4313 61.5704L51.4837 60.6173C50.6043 59.738 49.3778 59.7013 48.4713 60.5068L48.3549 60.6166L46.7811 62.1816L46.1971 62.7736C45.2997 63.671 45.2623 64.898 46.0849 65.8229L46.1971 65.9418L46.9726 66.7051L47.1532 66.891C47.1809 66.9203 47.2078 66.949 47.234 66.9775L47.3879 67.1492C48.1038 67.9375 49.0237 68.2691 50.1298 68.2183C51.3154 68.1603 52.4626 67.8058 53.7471 67.1754C56.1609 65.9973 58.2456 64.3663 59.9675 62.3119C61.336 60.715 62.3635 59.0337 63.0286 57.2302C63.4388 56.1192 63.6271 55.1784 63.5674 54.1944C63.5153 53.3939 63.1951 52.7065 62.6094 52.1454L62.4739 52.015L61.371 50.9228L61.1567 50.7187C60.2491 49.9122 59.0218 49.9489 58.1424 50.8282L57.0549 51.9158L56.1862 52.7778L55.89 53.0873C55.0879 53.9858 55.0874 55.1315 55.8786 56.0199L56.0948 56.2469L56.5219 56.6778L57.0726 57.2134C56.8429 57.6725 56.5434 58.1192 56.1507 58.6022C55.1987 59.7778 54.1544 60.7388 53.0206 61.4624L52.8699 61.5478C52.8428 61.5624 52.8141 61.5774 52.783 61.5934ZM59.3602 52.046C59.6051 51.8011 59.8104 51.8011 60.0682 52.059L60.2714 52.256L61.1256 53.1053L61.4192 53.3902C61.6926 53.6521 61.8247 53.9357 61.8486 54.3025C61.8914 55.0087 61.7476 55.7274 61.4128 56.6339C60.8222 58.2355 59.9012 59.7426 58.6537 61.1984C57.0807 63.0751 55.1884 64.5556 52.99 65.6285C51.897 66.1649 50.9642 66.4532 50.0482 66.498C49.4305 66.5264 49.0115 66.3753 48.6749 66.005C48.5008 65.805 48.3353 65.6305 48.0934 65.3901L47.4149 64.724C47.151 64.4601 47.151 64.2553 47.4225 63.9837L47.8488 63.5504L49.5724 61.8347C49.8165 61.5902 50.021 61.5902 50.267 61.8363L51.0785 62.6508L51.598 63.1854C51.9824 63.5697 52.4723 63.6677 52.9683 63.4211L53.5144 63.1535L53.7258 63.0426L53.9263 62.927C55.2449 62.086 56.4253 60.9996 57.488 59.6874C58.0702 58.9713 58.4993 58.293 58.826 57.5173C59.002 57.0505 58.906 56.598 58.5468 56.2415L57.9179 55.6347L57.5261 55.2468C57.4865 55.2069 57.4476 55.1674 57.4089 55.1279L57.1578 54.8665C56.9617 54.643 56.9627 54.4745 57.1695 54.2404L57.4151 53.9845L59.3602 52.046Z" fill="white"/>
</svg>
