<svg width="80" height="81" viewBox="0 0 80 81" fill="none" xmlns="http://www.w3.org/2000/svg">
<rect y="0.309082" width="80" height="80" rx="12" fill="#DB7D1F"/>
<path fill-rule="evenodd" clip-rule="evenodd" d="M52.0618 14.0286C52.0618 13.4763 51.6141 13.0286 51.0618 13.0286C50.5095 13.0286 50.0618 13.4763 50.0618 14.0286V16.9657H26.9536V14.0287C26.9536 13.4764 26.5059 13.0287 25.9536 13.0287C25.4013 13.0287 24.9536 13.4764 24.9536 14.0287V16.9657H14.9025C12.6934 16.9657 10.9025 18.7566 10.9025 20.9657V25.7256H10.8352V27.7256H10.9025V63.6275C10.9025 65.8367 12.6934 67.6275 14.9026 67.6275H46.6703V65.6275H14.9026C13.798 65.6275 12.9025 64.7321 12.9025 63.6275V27.7256H63.4614V42.6387H65.4614V20.9657C65.4614 18.7566 63.6706 16.9657 61.4614 16.9657H52.0618V14.0286ZM50.0618 18.9657V21.7105C50.0618 22.2628 50.5095 22.7105 51.0618 22.7105C51.6141 22.7105 52.0618 22.2628 52.0618 21.7105V18.9657H61.4614C62.566 18.9657 63.4614 19.8611 63.4614 20.9657V25.7256H12.9025V20.9657C12.9025 19.8611 13.798 18.9657 14.9025 18.9657H24.9536V21.7105C24.9536 22.2628 25.4013 22.7105 25.9536 22.7105C26.5059 22.7105 26.9536 22.2628 26.9536 21.7105V18.9657H50.0618ZM18.0813 37.7747C18.0813 37.5538 18.2603 37.3747 18.4813 37.3747H21.0172C21.2381 37.3747 21.4172 37.5538 21.4172 37.7747V40.3106C21.4172 40.5316 21.2381 40.7106 21.0172 40.7106H18.4813C18.2603 40.7106 18.0813 40.5316 18.0813 40.3106V37.7747ZM18.4813 45.7145C18.2603 45.7145 18.0813 45.8936 18.0813 46.1145V48.6504C18.0813 48.8713 18.2603 49.0504 18.4813 49.0504H21.0172C21.2381 49.0504 21.4172 48.8713 21.4172 48.6504V46.1145C21.4172 45.8936 21.2381 45.7145 21.0172 45.7145H18.4813ZM26.421 46.1145C26.421 45.8936 26.6001 45.7145 26.821 45.7145H29.3569C29.5778 45.7145 29.7569 45.8936 29.7569 46.1145V48.6504C29.7569 48.8713 29.5778 49.0504 29.3569 49.0504H26.821C26.6001 49.0504 26.421 48.8713 26.421 48.6504V46.1145ZM26.821 37.3747C26.6001 37.3747 26.421 37.5538 26.421 37.7747V40.3106C26.421 40.5316 26.6001 40.7106 26.821 40.7106H29.3569C29.5778 40.7106 29.7569 40.5316 29.7569 40.3106V37.7747C29.7569 37.5538 29.5778 37.3747 29.3569 37.3747H26.821ZM34.7607 37.7747C34.7607 37.5538 34.9398 37.3747 35.1607 37.3747H37.6966C37.9175 37.3747 38.0966 37.5538 38.0966 37.7747V40.3106C38.0966 40.5316 37.9175 40.7106 37.6966 40.7106H35.1607C34.9398 40.7106 34.7607 40.5316 34.7607 40.3106V37.7747ZM35.1607 45.7145C34.9398 45.7145 34.7607 45.8936 34.7607 46.1145V48.6504C34.7607 48.8713 34.9398 49.0504 35.1607 49.0504H37.6966C37.9175 49.0504 38.0966 48.8713 38.0966 48.6504V46.1145C38.0966 45.8936 37.9175 45.7145 37.6966 45.7145H35.1607ZM43.1006 46.1145C43.1006 45.8935 43.2797 45.7145 43.5006 45.7145H46.0365C46.2574 45.7145 46.4365 45.8935 46.4365 46.1145V48.6503C46.4365 48.8713 46.2574 49.0503 46.0365 49.0503H43.5006C43.2797 49.0503 43.1006 48.8713 43.1006 48.6503V46.1145ZM51.8404 37.3747C51.6195 37.3747 51.4404 37.5538 51.4404 37.7747V40.3106C51.4404 40.5315 51.6195 40.7106 51.8404 40.7106H54.3763C54.5972 40.7106 54.7763 40.5315 54.7763 40.3106V37.7747C54.7763 37.5538 54.5972 37.3747 54.3763 37.3747H51.8404ZM43.1005 37.7747C43.1005 37.5538 43.2796 37.3747 43.5005 37.3747H46.0364C46.2573 37.3747 46.4364 37.5538 46.4364 37.7747V40.3106C46.4364 40.5316 46.2573 40.7106 46.0364 40.7106H43.5005C43.2796 40.7106 43.1005 40.5316 43.1005 40.3106V37.7747Z" fill="white"/>
<path d="M49.2844 56.1297V56.7628H51.1838C51.1838 56.6362 51.1838 56.5729 51.1838 56.4462C51.1838 56.3196 51.1838 56.2563 51.1838 56.1297H49.2844Z" fill="white"/>
<path d="M53.8429 50.4315L52.45 49.0386L52.0069 49.4818L53.3997 50.8746C53.5264 50.6847 53.6529 50.5581 53.8429 50.4315Z" fill="white"/>
<path d="M59.7311 48.2155V46.3161H59.0979V48.2155C59.2245 48.2155 59.2879 48.2155 59.4145 48.2155C59.5411 48.2155 59.6044 48.2155 59.7311 48.2155Z" fill="white"/>
<path d="M64.9227 50.3681C65.0493 50.4948 65.2393 50.6847 65.366 50.8113L66.6955 49.4818L66.2524 49.0386L64.9227 50.3681Z" fill="white"/>
<path d="M64.9861 62.461L66.2524 63.7272L66.6955 63.2841L65.4293 62.0178C65.3026 62.2077 65.176 62.3344 64.9861 62.461Z" fill="white"/>
<path d="M67.6452 56.1297C67.6452 56.2563 67.6452 56.3196 67.6452 56.4462C67.6452 56.5729 67.6452 56.6362 67.6452 56.7628H69.5446V56.1297H67.6452Z" fill="white"/>
<path d="M59.0979 64.677V66.5764H59.7311V64.677C59.6044 64.677 59.5411 64.677 59.4145 64.677C59.2879 64.677 59.2245 64.677 59.0979 64.677Z" fill="white"/>
<path d="M52.0069 63.2841L52.45 63.7273L53.7796 62.3977C53.653 62.2711 53.4631 62.0811 53.3364 61.9545L52.0069 63.2841Z" fill="white"/>
<path d="M59.4145 49.4818C55.5524 49.4818 52.45 52.5841 52.45 56.4462C52.45 60.3083 55.5524 63.4107 59.4145 63.4107C63.2766 63.4107 66.379 60.3083 66.379 56.4462C66.379 52.5841 63.2766 49.4818 59.4145 49.4818ZM59.4145 62.1444C56.2488 62.1444 53.7163 59.6119 53.7163 56.4462C53.7163 53.2806 56.2488 50.748 59.4145 50.748C62.5802 50.748 65.1127 53.2806 65.1127 56.4462C65.1127 59.6119 62.5802 62.1444 59.4145 62.1444Z" fill="white"/>
<circle cx="59.4142" cy="56.4462" r="3.81735" fill="white"/>
</svg>
