<svg width="81" height="81" viewBox="0 0 81 81" fill="none" xmlns="http://www.w3.org/2000/svg">
<rect x="1.16476" y="0.925079" width="79" height="79" rx="11.5" fill="#255E2E" stroke="#255E2E"/>
<path d="M62.5434 39.2773V18.6178C62.5434 14.8143 59.6044 11.731 55.9925 11.731H25.3371C21.7191 11.731 18.7862 14.8164 18.7862 18.5963V62.2537C18.7862 66.0454 21.7177 69.1191 25.3391 69.1191H36.2891" stroke="white" stroke-width="2"/>
<path d="M43.9189 63.6764C43.7313 63.8639 43.626 64.1182 43.626 64.3835V67.299C43.626 67.8512 44.0737 68.299 44.626 68.299H47.5415C47.8067 68.299 48.061 68.1936 48.2486 68.0061L60.2305 56.0242C60.5038 55.7508 60.5038 55.3076 60.2305 55.0342L56.8907 51.6945C56.6173 51.4211 56.1741 51.4211 55.9008 51.6945L43.9189 63.6764ZM64.0738 52.1809C64.524 51.7306 64.524 51.0032 64.0738 50.5529L61.372 47.8512C60.9217 47.4009 60.1943 47.4009 59.744 47.8512L57.6312 49.9641L61.9609 54.2938L64.0738 52.1809Z" fill="white"/>
<path fill-rule="evenodd" clip-rule="evenodd" d="M40.6648 37.4503C37.4049 37.4503 30.8972 38.8652 30.8972 41.6741V43.786C30.8972 44.9523 31.9905 45.8979 33.3391 45.8979H47.9904C49.3391 45.8979 50.4323 44.9523 50.4323 43.786V41.6741C50.4323 38.8652 43.9247 37.4503 40.6648 37.4503Z" fill="white"/>
<path fill-rule="evenodd" clip-rule="evenodd" d="M40.6648 35.3383C38.1362 35.3383 36.0863 33.5521 36.0863 31.3486V30.3524C36.0863 28.1488 38.1362 26.3627 40.6648 26.3627C43.1935 26.3627 45.2434 28.1488 45.2434 30.3524V31.3486C45.2434 33.5521 43.1935 35.3383 40.6648 35.3383Z" fill="white"/>
</svg>
