<svg width="80" height="81" viewBox="0 0 80 81" fill="none" xmlns="http://www.w3.org/2000/svg">
<rect x="0.5" y="0.867065" width="79" height="79" rx="11.5" fill="#99220B" stroke="#99220B"/>
<path fill-rule="evenodd" clip-rule="evenodd" d="M54.0618 14.0866C54.0618 13.5343 53.6141 13.0866 53.0618 13.0866C52.5095 13.0866 52.0618 13.5343 52.0618 14.0866V17.0237H28.9536V14.0867C28.9536 13.5344 28.5059 13.0867 27.9536 13.0867C27.4013 13.0867 26.9536 13.5344 26.9536 14.0867V17.0237H16.9025C14.6934 17.0237 12.9025 18.8146 12.9025 21.0237V25.7836H12.8352V27.7836H12.9025V63.6855C12.9025 65.8947 14.6934 67.6855 16.9026 67.6855H48.6703V65.6855H16.9026C15.798 65.6855 14.9025 64.7901 14.9025 63.6855V27.7836H65.4614V42.6966H67.4614V21.0237C67.4614 18.8146 65.6706 17.0237 63.4614 17.0237H54.0618V14.0866ZM52.0618 19.0237V21.7685C52.0618 22.3207 52.5095 22.7685 53.0618 22.7685C53.6141 22.7685 54.0618 22.3207 54.0618 21.7685V19.0237H63.4614C64.566 19.0237 65.4614 19.9191 65.4614 21.0237V25.7836H14.9025V21.0237C14.9025 19.9191 15.798 19.0237 16.9025 19.0237H26.9536V21.7685C26.9536 22.3208 27.4013 22.7685 27.9536 22.7685C28.5059 22.7685 28.9536 22.3208 28.9536 21.7685V19.0237H52.0618ZM20.0813 37.8327C20.0813 37.6118 20.2603 37.4327 20.4813 37.4327H23.0172C23.2381 37.4327 23.4172 37.6118 23.4172 37.8327V40.3686C23.4172 40.5895 23.2381 40.7686 23.0172 40.7686H20.4813C20.2603 40.7686 20.0813 40.5895 20.0813 40.3686V37.8327ZM20.4813 45.7725C20.2603 45.7725 20.0813 45.9516 20.0813 46.1725V48.7084C20.0813 48.9293 20.2603 49.1084 20.4813 49.1084H23.0172C23.2381 49.1084 23.4172 48.9293 23.4172 48.7084V46.1725C23.4172 45.9516 23.2381 45.7725 23.0172 45.7725H20.4813ZM28.421 46.1725C28.421 45.9516 28.6001 45.7725 28.821 45.7725H31.3569C31.5778 45.7725 31.7569 45.9516 31.7569 46.1725V48.7084C31.7569 48.9293 31.5778 49.1084 31.3569 49.1084H28.821C28.6001 49.1084 28.421 48.9293 28.421 48.7084V46.1725ZM28.821 37.4327C28.6001 37.4327 28.421 37.6118 28.421 37.8327V40.3686C28.421 40.5895 28.6001 40.7686 28.821 40.7686H31.3569C31.5778 40.7686 31.7569 40.5895 31.7569 40.3686V37.8327C31.7569 37.6118 31.5778 37.4327 31.3569 37.4327H28.821ZM36.7607 37.8327C36.7607 37.6118 36.9398 37.4327 37.1607 37.4327H39.6966C39.9175 37.4327 40.0966 37.6118 40.0966 37.8327V40.3686C40.0966 40.5895 39.9175 40.7686 39.6966 40.7686H37.1607C36.9398 40.7686 36.7607 40.5895 36.7607 40.3686V37.8327ZM37.1607 45.7725C36.9398 45.7725 36.7607 45.9516 36.7607 46.1725V48.7084C36.7607 48.9293 36.9398 49.1084 37.1607 49.1084H39.6966C39.9175 49.1084 40.0966 48.9293 40.0966 48.7084V46.1725C40.0966 45.9516 39.9175 45.7725 39.6966 45.7725H37.1607ZM45.1006 46.1724C45.1006 45.9515 45.2797 45.7724 45.5006 45.7724H48.0365C48.2574 45.7724 48.4365 45.9515 48.4365 46.1724V48.7083C48.4365 48.9292 48.2574 49.1083 48.0365 49.1083H45.5006C45.2797 49.1083 45.1006 48.9292 45.1006 48.7083V46.1724ZM53.8404 37.4327C53.6195 37.4327 53.4404 37.6118 53.4404 37.8327V40.3686C53.4404 40.5895 53.6195 40.7686 53.8404 40.7686H56.3763C56.5972 40.7686 56.7763 40.5895 56.7763 40.3686V37.8327C56.7763 37.6118 56.5972 37.4327 56.3763 37.4327H53.8404ZM45.1005 37.8327C45.1005 37.6118 45.2796 37.4327 45.5005 37.4327H48.0364C48.2573 37.4327 48.4364 37.6118 48.4364 37.8327V40.3686C48.4364 40.5895 48.2573 40.7686 48.0364 40.7686H45.5005C45.2796 40.7686 45.1005 40.5895 45.1005 40.3686V37.8327Z" fill="white"/>
<path d="M67.4614 57.3832C67.4614 62.0019 63.7172 65.7461 59.0985 65.7461C54.4797 65.7461 50.7355 62.0019 50.7355 57.3832C50.7355 52.7645 54.4797 49.0203 59.0985 49.0203C63.7172 49.0203 67.4614 52.7645 67.4614 57.3832ZM52.1439 57.3832C52.1439 61.2241 55.2575 64.3378 59.0985 64.3378C62.9394 64.3378 66.0531 61.2241 66.0531 57.3832C66.0531 53.5423 62.9394 50.4286 59.0985 50.4286C55.2575 50.4286 52.1439 53.5423 52.1439 57.3832Z" fill="white"/>
<path d="M56.177 59.6887C56.0069 59.8589 56.0069 60.1347 56.177 60.3048C56.3471 60.4749 56.6229 60.4749 56.793 60.3048L59.0985 57.9992L61.404 60.3048C61.5741 60.4749 61.8499 60.4749 62.02 60.3048C62.1901 60.1347 62.1901 59.8589 62.02 59.6887L59.7145 57.3832L62.02 55.0777C62.1901 54.9076 62.1901 54.6318 62.02 54.4617C61.8499 54.2916 61.5741 54.2916 61.404 54.4617L59.0985 56.7672L56.793 54.4617C56.6229 54.2916 56.3471 54.2916 56.177 54.4617C56.0069 54.6318 56.0069 54.9076 56.177 55.0777L58.4825 57.3832L56.177 59.6887Z" fill="white"/>
</svg>
