<svg width="80" height="81" viewBox="0 0 80 81" fill="none" xmlns="http://www.w3.org/2000/svg">
<rect x="0.5" y="0.925079" width="79" height="79" rx="11.5" fill="#77C628" stroke="#77C628"/>
<path fill-rule="evenodd" clip-rule="evenodd" d="M54.0618 14.1446C54.0618 13.5923 53.6141 13.1446 53.0618 13.1446C52.5095 13.1446 52.0618 13.5923 52.0618 14.1446V17.0817H28.9536V14.1447C28.9536 13.5924 28.5059 13.1447 27.9536 13.1447C27.4013 13.1447 26.9536 13.5924 26.9536 14.1447V17.0817H16.9025C14.6934 17.0817 12.9025 18.8726 12.9025 21.0817V25.8416H12.8352V27.8416H12.9025V63.7435C12.9025 65.9527 14.6934 67.7435 16.9026 67.7435H48.6703V65.7435H16.9026C15.798 65.7435 14.9025 64.8481 14.9025 63.7435V27.8416H65.4614V42.7547H67.4614V21.0817C67.4614 18.8726 65.6706 17.0817 63.4614 17.0817H54.0618V14.1446ZM52.0618 19.0817V21.8265C52.0618 22.3788 52.5095 22.8265 53.0618 22.8265C53.6141 22.8265 54.0618 22.3788 54.0618 21.8265V19.0817H63.4614C64.566 19.0817 65.4614 19.9771 65.4614 21.0817V25.8416H14.9025V21.0817C14.9025 19.9771 15.798 19.0817 16.9025 19.0817H26.9536V21.8265C26.9536 22.3788 27.4013 22.8265 27.9536 22.8265C28.5059 22.8265 28.9536 22.3788 28.9536 21.8265V19.0817H52.0618ZM20.0813 37.8907C20.0813 37.6698 20.2603 37.4907 20.4813 37.4907H23.0172C23.2381 37.4907 23.4172 37.6698 23.4172 37.8907V40.4266C23.4172 40.6476 23.2381 40.8266 23.0172 40.8266H20.4813C20.2603 40.8266 20.0813 40.6476 20.0813 40.4266V37.8907ZM20.4813 45.8305C20.2603 45.8305 20.0813 46.0096 20.0813 46.2305V48.7664C20.0813 48.9873 20.2603 49.1664 20.4813 49.1664H23.0172C23.2381 49.1664 23.4172 48.9873 23.4172 48.7664V46.2305C23.4172 46.0096 23.2381 45.8305 23.0172 45.8305H20.4813ZM28.421 46.2305C28.421 46.0096 28.6001 45.8305 28.821 45.8305H31.3569C31.5778 45.8305 31.7569 46.0096 31.7569 46.2305V48.7664C31.7569 48.9873 31.5778 49.1664 31.3569 49.1664H28.821C28.6001 49.1664 28.421 48.9873 28.421 48.7664V46.2305ZM28.821 37.4907C28.6001 37.4907 28.421 37.6698 28.421 37.8907V40.4266C28.421 40.6476 28.6001 40.8266 28.821 40.8266H31.3569C31.5778 40.8266 31.7569 40.6476 31.7569 40.4266V37.8907C31.7569 37.6698 31.5778 37.4907 31.3569 37.4907H28.821ZM36.7607 37.8907C36.7607 37.6698 36.9398 37.4907 37.1607 37.4907H39.6966C39.9175 37.4907 40.0966 37.6698 40.0966 37.8907V40.4266C40.0966 40.6476 39.9175 40.8266 39.6966 40.8266H37.1607C36.9398 40.8266 36.7607 40.6476 36.7607 40.4266V37.8907ZM37.1607 45.8305C36.9398 45.8305 36.7607 46.0096 36.7607 46.2305V48.7664C36.7607 48.9873 36.9398 49.1664 37.1607 49.1664H39.6966C39.9175 49.1664 40.0966 48.9873 40.0966 48.7664V46.2305C40.0966 46.0096 39.9175 45.8305 39.6966 45.8305H37.1607ZM45.1006 46.2304C45.1006 46.0095 45.2797 45.8304 45.5006 45.8304H48.0365C48.2574 45.8304 48.4365 46.0095 48.4365 46.2304V48.7663C48.4365 48.9873 48.2574 49.1663 48.0365 49.1663H45.5006C45.2797 49.1663 45.1006 48.9873 45.1006 48.7663V46.2304ZM53.8404 37.4907C53.6195 37.4907 53.4404 37.6698 53.4404 37.8907V40.4266C53.4404 40.6475 53.6195 40.8266 53.8404 40.8266H56.3763C56.5972 40.8266 56.7763 40.6475 56.7763 40.4266V37.8907C56.7763 37.6698 56.5972 37.4907 56.3763 37.4907H53.8404ZM45.1005 37.8907C45.1005 37.6698 45.2796 37.4907 45.5005 37.4907H48.0364C48.2573 37.4907 48.4364 37.6698 48.4364 37.8907V40.4266C48.4364 40.6476 48.2573 40.8266 48.0364 40.8266H45.5005C45.2796 40.8266 45.1005 40.6476 45.1005 40.4266V37.8907Z" fill="white"/>
<path fill-rule="evenodd" clip-rule="evenodd" d="M50.6897 54.4633L60.711 49.4526C60.928 49.3441 61.1835 49.3441 61.4005 49.4526L71.4217 54.4633C71.9899 54.7473 71.9899 55.5581 71.4217 55.8422L67.9935 57.5564V61.7051C67.9935 63.9128 64.7681 65.5594 61.0557 65.5594C57.3433 65.5594 54.1179 63.9128 54.1179 61.7051V57.5563L50.6897 55.8422C50.1216 55.5581 50.1216 54.7473 50.6897 54.4633ZM55.6596 58.3272V61.7051C55.6596 62.78 58.084 64.0177 61.0557 64.0177C64.0274 64.0177 66.4518 62.78 66.4518 61.7051V58.3272L61.4005 60.8529C61.1835 60.9614 60.928 60.9614 60.711 60.8529L55.6596 58.3272ZM69.5353 58.6216V62.476C69.5353 62.9017 69.8804 63.2468 70.3061 63.2468C70.7319 63.2468 71.077 62.9017 71.077 62.476V58.6216C71.077 58.1959 70.7319 57.8508 70.3061 57.8508C69.8804 57.8508 69.5353 58.1959 69.5353 58.6216ZM61.0558 51.004L69.3533 55.1528L61.0558 59.3015L52.7582 55.1528L61.0558 51.004Z" fill="white"/>
</svg>
