<svg width="81" height="81" viewBox="0 0 81 81" fill="none" xmlns="http://www.w3.org/2000/svg">
<rect x="0.656555" y="0.973877" width="79" height="79" rx="11.5" fill="#9140E3" stroke="#9140E3"/>
<g filter="url(#filter0_d_249_5177)">
<path d="M58.7905 57.9883C60.8054 60.1322 62.9394 61.3349 63.5581 60.6724" stroke="white" stroke-width="0.6" stroke-miterlimit="10"/>
</g>
<g filter="url(#filter1_d_249_5177)">
<path d="M58.7901 57.9882C56.7752 55.8444 55.6448 53.5739 56.2675 52.9156" stroke="white" stroke-width="0.6" stroke-miterlimit="10"/>
</g>
<g filter="url(#filter2_d_249_5177)">
<path d="M51.3734 64.7788C51.2386 65.1248 51.2862 65.5215 51.5004 65.7452C51.7106 65.9688 52.0834 66.0195 52.4087 65.8802C52.4087 65.8802 62.6143 61.6812 63.2807 60.9722C63.4988 60.7401 63.5504 60.6852 63.5623 60.6726C64.1811 60.0142 63.0506 57.7438 61.0396 55.6C59.0247 53.4561 56.8907 52.2534 56.272 52.9159C56.2601 52.9286 56.2085 52.9835 55.9904 53.2156C55.32 53.9203 51.3734 64.7788 51.3734 64.7788Z" stroke="white" stroke-width="0.6" stroke-miterlimit="10"/>
</g>
<g filter="url(#filter3_d_249_5177)">
<path d="M59.4371 58.5624V62.7826" stroke="white" stroke-width="0.6" stroke-miterlimit="10"/>
</g>
<g filter="url(#filter4_d_249_5177)">
<path d="M57.4539 56.4524V63.6266" stroke="white" stroke-width="0.6" stroke-miterlimit="10"/>
</g>
<g filter="url(#filter5_d_249_5177)">
<path d="M55.4709 54.182V64.4707" stroke="white" stroke-width="0.6" stroke-miterlimit="10"/>
</g>
<g filter="url(#filter6_d_249_5177)">
<path d="M53.4868 59.1025V65.3146" stroke="white" stroke-width="0.6" stroke-miterlimit="10"/>
</g>
<g filter="url(#filter7_d_249_5177)">
<path d="M61.023 49.2782C61.6802 49.2782 62.2129 48.7114 62.2129 48.0121C62.2129 47.3129 61.6802 46.7461 61.023 46.7461C60.3658 46.7461 59.8331 47.3129 59.8331 48.0121C59.8331 48.7114 60.3658 49.2782 61.023 49.2782Z" stroke="white" stroke-width="0.6" stroke-miterlimit="10" stroke-linejoin="round"/>
</g>
<g filter="url(#filter8_d_249_5177)">
<path d="M61.0237 58.5625C62.5627 56.5326 64.9902 54.7475 66.9734 56.0304C68.6472 57.1108 67.9967 58.7904 66.9417 58.9676C65.8826 59.1449 65.2877 58.1574 65.3868 57.7185" stroke="white" stroke-width="0.6" stroke-miterlimit="10" stroke-linejoin="round"/>
</g>
<g filter="url(#filter9_d_249_5177)">
<path d="M68.3657 50.2699L67.9611 51.7428L68.8813 52.9582L67.3344 53.0721L66.557 54.2706L65.966 52.9075L64.6412 52.3462L65.7716 51.4516L65.8192 49.8057L66.9933 50.7426L68.3657 50.2699Z" stroke="white" stroke-width="0.6" stroke-miterlimit="10" stroke-linejoin="round"/>
</g>
<g filter="url(#filter10_d_249_5177)">
<path d="M58.0286 54.8444C59.0718 52.7217 59.7342 49.4215 57.8501 48.856C56.676 48.5058 55.8669 49.1725 55.8669 50.1221C55.8669 51.0716 56.9577 51.4936 57.4535 50.9661" stroke="white" stroke-width="0.6" stroke-miterlimit="10" stroke-linejoin="round"/>
</g>
<g filter="url(#filter11_d_249_5177)">
<path d="M63.2929 46.8303C64.3757 48.894 63.6816 51.502 61.742 52.6541" stroke="white" stroke-width="0.6" stroke-miterlimit="10" stroke-linejoin="round"/>
</g>
<path fill-rule="evenodd" clip-rule="evenodd" d="M52.2184 14.1934C52.2184 13.6411 51.7707 13.1934 51.2184 13.1934C50.6661 13.1934 50.2184 13.6411 50.2184 14.1934V17.1304H27.1102V14.1934C27.1102 13.6411 26.6625 13.1934 26.1102 13.1934C25.5579 13.1934 25.1102 13.6411 25.1102 14.1934V17.1304H15.0591C12.85 17.1304 11.0591 18.9213 11.0591 21.1304V25.8904H10.9918V27.8904H11.0591V63.7923C11.0591 66.0014 12.85 67.7923 15.0591 67.7923H46.8269V65.7923H15.0591C13.9545 65.7923 13.0591 64.8968 13.0591 63.7923V27.8904H63.618V42.8034H65.618V21.1304C65.618 18.9213 63.8271 17.1304 61.618 17.1304H52.2184V14.1934ZM50.2184 19.1304V21.8752C50.2184 22.4275 50.6661 22.8752 51.2184 22.8752C51.7707 22.8752 52.2184 22.4275 52.2184 21.8752V19.1304H61.618C62.7226 19.1304 63.618 20.0259 63.618 21.1304V25.8904H13.0591V21.1304C13.0591 20.0259 13.9545 19.1304 15.0591 19.1304H25.1102V21.8753C25.1102 22.4276 25.5579 22.8753 26.1102 22.8753C26.6625 22.8753 27.1102 22.4276 27.1102 21.8753V19.1304H50.2184ZM18.2378 37.9395C18.2378 37.7186 18.4169 37.5395 18.6378 37.5395H21.1737C21.3946 37.5395 21.5737 37.7186 21.5737 37.9395V40.4754C21.5737 40.6963 21.3946 40.8754 21.1737 40.8754H18.6378C18.4169 40.8754 18.2378 40.6963 18.2378 40.4754V37.9395ZM18.6378 45.8792C18.4169 45.8792 18.2378 46.0583 18.2378 46.2792V48.8151C18.2378 49.036 18.4169 49.2151 18.6378 49.2151H21.1737C21.3946 49.2151 21.5737 49.036 21.5737 48.8151V46.2792C21.5737 46.0583 21.3946 45.8792 21.1737 45.8792H18.6378ZM26.5776 46.2792C26.5776 46.0583 26.7566 45.8792 26.9776 45.8792H29.5134C29.7344 45.8792 29.9134 46.0583 29.9134 46.2792V48.8151C29.9134 49.036 29.7344 49.2151 29.5134 49.2151H26.9776C26.7566 49.2151 26.5776 49.036 26.5776 48.8151V46.2792ZM26.9776 37.5395C26.7566 37.5395 26.5776 37.7186 26.5776 37.9395V40.4754C26.5776 40.6963 26.7566 40.8754 26.9776 40.8754H29.5134C29.7344 40.8754 29.9134 40.6963 29.9134 40.4754V37.9395C29.9134 37.7186 29.7344 37.5395 29.5134 37.5395H26.9776ZM34.9173 37.9395C34.9173 37.7186 35.0964 37.5395 35.3173 37.5395H37.8532C38.0741 37.5395 38.2532 37.7186 38.2532 37.9395V40.4754C38.2532 40.6963 38.0741 40.8754 37.8532 40.8754H35.3173C35.0964 40.8754 34.9173 40.6963 34.9173 40.4754V37.9395ZM35.3173 45.8792C35.0964 45.8792 34.9173 46.0583 34.9173 46.2792V48.8151C34.9173 49.036 35.0964 49.2151 35.3173 49.2151H37.8532C38.0741 49.2151 38.2532 49.036 38.2532 48.8151V46.2792C38.2532 46.0583 38.0741 45.8792 37.8532 45.8792H35.3173ZM43.2572 46.2792C43.2572 46.0583 43.4363 45.8792 43.6572 45.8792H46.1931C46.414 45.8792 46.5931 46.0583 46.5931 46.2792V48.8151C46.5931 49.036 46.414 49.2151 46.1931 49.2151H43.6572C43.4363 49.2151 43.2572 49.036 43.2572 48.8151V46.2792ZM51.9969 37.5395C51.776 37.5395 51.5969 37.7186 51.5969 37.9395V40.4754C51.5969 40.6963 51.776 40.8754 51.9969 40.8754H54.5328C54.7538 40.8754 54.9328 40.6963 54.9328 40.4754V37.9395C54.9328 37.7186 54.7538 37.5395 54.5328 37.5395H51.9969ZM43.257 37.9395C43.257 37.7186 43.4361 37.5395 43.657 37.5395H46.1929C46.4138 37.5395 46.5929 37.7186 46.5929 37.9395V40.4754C46.5929 40.6963 46.4138 40.8754 46.1929 40.8754H43.657C43.4361 40.8754 43.257 40.6963 43.257 40.4754V37.9395Z" fill="white"/>
<defs>
<filter id="filter0_d_249_5177" x="54.5718" y="53.7829" width="13.2056" height="11.3713" filterUnits="userSpaceOnUse" color-interpolation-filters="sRGB">
<feFlood flood-opacity="0" result="BackgroundImageFix"/>
<feColorMatrix in="SourceAlpha" type="matrix" values="0 0 0 0 0 0 0 0 0 0 0 0 0 0 0 0 0 0 127 0" result="hardAlpha"/>
<feOffset/>
<feGaussianBlur stdDeviation="2"/>
<feColorMatrix type="matrix" values="0 0 0 0 1 0 0 0 0 1 0 0 0 0 1 0 0 0 0.12 0"/>
<feBlend mode="normal" in2="BackgroundImageFix" result="effect1_dropShadow_249_5177"/>
<feBlend mode="normal" in="SourceGraphic" in2="effect1_dropShadow_249_5177" result="shape"/>
</filter>
<filter id="filter1_d_249_5177" x="51.7965" y="48.7094" width="11.2122" height="13.4843" filterUnits="userSpaceOnUse" color-interpolation-filters="sRGB">
<feFlood flood-opacity="0" result="BackgroundImageFix"/>
<feColorMatrix in="SourceAlpha" type="matrix" values="0 0 0 0 0 0 0 0 0 0 0 0 0 0 0 0 0 0 127 0" result="hardAlpha"/>
<feOffset/>
<feGaussianBlur stdDeviation="2"/>
<feColorMatrix type="matrix" values="0 0 0 0 1 0 0 0 0 1 0 0 0 0 1 0 0 0 0.12 0"/>
<feBlend mode="normal" in2="BackgroundImageFix" result="effect1_dropShadow_249_5177"/>
<feBlend mode="normal" in="SourceGraphic" in2="effect1_dropShadow_249_5177" result="shape"/>
</filter>
<filter id="filter2_d_249_5177" x="46.9982" y="48.4341" width="21.0333" height="21.8232" filterUnits="userSpaceOnUse" color-interpolation-filters="sRGB">
<feFlood flood-opacity="0" result="BackgroundImageFix"/>
<feColorMatrix in="SourceAlpha" type="matrix" values="0 0 0 0 0 0 0 0 0 0 0 0 0 0 0 0 0 0 127 0" result="hardAlpha"/>
<feOffset/>
<feGaussianBlur stdDeviation="2"/>
<feColorMatrix type="matrix" values="0 0 0 0 1 0 0 0 0 1 0 0 0 0 1 0 0 0 0.12 0"/>
<feBlend mode="normal" in2="BackgroundImageFix" result="effect1_dropShadow_249_5177"/>
<feBlend mode="normal" in="SourceGraphic" in2="effect1_dropShadow_249_5177" result="shape"/>
</filter>
<filter id="filter3_d_249_5177" x="55.1371" y="54.5624" width="8.59998" height="12.2202" filterUnits="userSpaceOnUse" color-interpolation-filters="sRGB">
<feFlood flood-opacity="0" result="BackgroundImageFix"/>
<feColorMatrix in="SourceAlpha" type="matrix" values="0 0 0 0 0 0 0 0 0 0 0 0 0 0 0 0 0 0 127 0" result="hardAlpha"/>
<feOffset/>
<feGaussianBlur stdDeviation="2"/>
<feColorMatrix type="matrix" values="0 0 0 0 1 0 0 0 0 1 0 0 0 0 1 0 0 0 0.12 0"/>
<feBlend mode="normal" in2="BackgroundImageFix" result="effect1_dropShadow_249_5177"/>
<feBlend mode="normal" in="SourceGraphic" in2="effect1_dropShadow_249_5177" result="shape"/>
</filter>
<filter id="filter4_d_249_5177" x="53.1539" y="52.4524" width="8.59998" height="15.1743" filterUnits="userSpaceOnUse" color-interpolation-filters="sRGB">
<feFlood flood-opacity="0" result="BackgroundImageFix"/>
<feColorMatrix in="SourceAlpha" type="matrix" values="0 0 0 0 0 0 0 0 0 0 0 0 0 0 0 0 0 0 127 0" result="hardAlpha"/>
<feOffset/>
<feGaussianBlur stdDeviation="2"/>
<feColorMatrix type="matrix" values="0 0 0 0 1 0 0 0 0 1 0 0 0 0 1 0 0 0 0.12 0"/>
<feBlend mode="normal" in2="BackgroundImageFix" result="effect1_dropShadow_249_5177"/>
<feBlend mode="normal" in="SourceGraphic" in2="effect1_dropShadow_249_5177" result="shape"/>
</filter>
<filter id="filter5_d_249_5177" x="51.171" y="50.182" width="8.59998" height="18.2887" filterUnits="userSpaceOnUse" color-interpolation-filters="sRGB">
<feFlood flood-opacity="0" result="BackgroundImageFix"/>
<feColorMatrix in="SourceAlpha" type="matrix" values="0 0 0 0 0 0 0 0 0 0 0 0 0 0 0 0 0 0 127 0" result="hardAlpha"/>
<feOffset/>
<feGaussianBlur stdDeviation="2"/>
<feColorMatrix type="matrix" values="0 0 0 0 1 0 0 0 0 1 0 0 0 0 1 0 0 0 0.12 0"/>
<feBlend mode="normal" in2="BackgroundImageFix" result="effect1_dropShadow_249_5177"/>
<feBlend mode="normal" in="SourceGraphic" in2="effect1_dropShadow_249_5177" result="shape"/>
</filter>
<filter id="filter6_d_249_5177" x="49.1868" y="55.1025" width="8.59998" height="14.212" filterUnits="userSpaceOnUse" color-interpolation-filters="sRGB">
<feFlood flood-opacity="0" result="BackgroundImageFix"/>
<feColorMatrix in="SourceAlpha" type="matrix" values="0 0 0 0 0 0 0 0 0 0 0 0 0 0 0 0 0 0 127 0" result="hardAlpha"/>
<feOffset/>
<feGaussianBlur stdDeviation="2"/>
<feColorMatrix type="matrix" values="0 0 0 0 1 0 0 0 0 1 0 0 0 0 1 0 0 0 0.12 0"/>
<feBlend mode="normal" in2="BackgroundImageFix" result="effect1_dropShadow_249_5177"/>
<feBlend mode="normal" in="SourceGraphic" in2="effect1_dropShadow_249_5177" result="shape"/>
</filter>
<filter id="filter7_d_249_5177" x="55.5331" y="42.4461" width="10.9799" height="11.1321" filterUnits="userSpaceOnUse" color-interpolation-filters="sRGB">
<feFlood flood-opacity="0" result="BackgroundImageFix"/>
<feColorMatrix in="SourceAlpha" type="matrix" values="0 0 0 0 0 0 0 0 0 0 0 0 0 0 0 0 0 0 127 0" result="hardAlpha"/>
<feOffset/>
<feGaussianBlur stdDeviation="2"/>
<feColorMatrix type="matrix" values="0 0 0 0 1 0 0 0 0 1 0 0 0 0 1 0 0 0 0.12 0"/>
<feBlend mode="normal" in2="BackgroundImageFix" result="effect1_dropShadow_249_5177"/>
<feBlend mode="normal" in="SourceGraphic" in2="effect1_dropShadow_249_5177" result="shape"/>
</filter>
<filter id="filter8_d_249_5177" x="56.7847" y="51.2975" width="15.5119" height="11.9913" filterUnits="userSpaceOnUse" color-interpolation-filters="sRGB">
<feFlood flood-opacity="0" result="BackgroundImageFix"/>
<feColorMatrix in="SourceAlpha" type="matrix" values="0 0 0 0 0 0 0 0 0 0 0 0 0 0 0 0 0 0 127 0" result="hardAlpha"/>
<feOffset/>
<feGaussianBlur stdDeviation="2"/>
<feColorMatrix type="matrix" values="0 0 0 0 1 0 0 0 0 1 0 0 0 0 1 0 0 0 0.12 0"/>
<feBlend mode="normal" in2="BackgroundImageFix" result="effect1_dropShadow_249_5177"/>
<feBlend mode="normal" in="SourceGraphic" in2="effect1_dropShadow_249_5177" result="shape"/>
</filter>
<filter id="filter9_d_249_5177" x="60.3412" y="45.5057" width="12.8401" height="13.0649" filterUnits="userSpaceOnUse" color-interpolation-filters="sRGB">
<feFlood flood-opacity="0" result="BackgroundImageFix"/>
<feColorMatrix in="SourceAlpha" type="matrix" values="0 0 0 0 0 0 0 0 0 0 0 0 0 0 0 0 0 0 127 0" result="hardAlpha"/>
<feOffset/>
<feGaussianBlur stdDeviation="2"/>
<feColorMatrix type="matrix" values="0 0 0 0 1 0 0 0 0 1 0 0 0 0 1 0 0 0 0.12 0"/>
<feBlend mode="normal" in2="BackgroundImageFix" result="effect1_dropShadow_249_5177"/>
<feBlend mode="normal" in="SourceGraphic" in2="effect1_dropShadow_249_5177" result="shape"/>
</filter>
<filter id="filter10_d_249_5177" x="51.5669" y="44.4615" width="11.7775" height="14.5153" filterUnits="userSpaceOnUse" color-interpolation-filters="sRGB">
<feFlood flood-opacity="0" result="BackgroundImageFix"/>
<feColorMatrix in="SourceAlpha" type="matrix" values="0 0 0 0 0 0 0 0 0 0 0 0 0 0 0 0 0 0 127 0" result="hardAlpha"/>
<feOffset/>
<feGaussianBlur stdDeviation="2"/>
<feColorMatrix type="matrix" values="0 0 0 0 1 0 0 0 0 1 0 0 0 0 1 0 0 0 0.12 0"/>
<feBlend mode="normal" in2="BackgroundImageFix" result="effect1_dropShadow_249_5177"/>
<feBlend mode="normal" in="SourceGraphic" in2="effect1_dropShadow_249_5177" result="shape"/>
</filter>
<filter id="filter11_d_249_5177" x="57.5888" y="42.6909" width="10.5149" height="14.2211" filterUnits="userSpaceOnUse" color-interpolation-filters="sRGB">
<feFlood flood-opacity="0" result="BackgroundImageFix"/>
<feColorMatrix in="SourceAlpha" type="matrix" values="0 0 0 0 0 0 0 0 0 0 0 0 0 0 0 0 0 0 127 0" result="hardAlpha"/>
<feOffset/>
<feGaussianBlur stdDeviation="2"/>
<feColorMatrix type="matrix" values="0 0 0 0 1 0 0 0 0 1 0 0 0 0 1 0 0 0 0.12 0"/>
<feBlend mode="normal" in2="BackgroundImageFix" result="effect1_dropShadow_249_5177"/>
<feBlend mode="normal" in="SourceGraphic" in2="effect1_dropShadow_249_5177" result="shape"/>
</filter>
</defs>
</svg>
