<svg width="81" height="81" viewBox="0 0 81 81" fill="none" xmlns="http://www.w3.org/2000/svg">
<rect x="0.656555" y="0.809082" width="79" height="79" rx="11.5" fill="#A2DDFB" stroke="#A2DDFB"/>
<path fill-rule="evenodd" clip-rule="evenodd" d="M54.2184 14.0286C54.2184 13.4763 53.7707 13.0286 53.2184 13.0286C52.6661 13.0286 52.2184 13.4763 52.2184 14.0286V16.9657H29.1102V14.0286C29.1102 13.4763 28.6625 13.0286 28.1102 13.0286C27.5579 13.0286 27.1102 13.4763 27.1102 14.0286V16.9657H17.0591C14.85 16.9657 13.0591 18.7565 13.0591 20.9657V25.7256H12.9918V27.7256H13.0591V63.6275C13.0591 65.8366 14.85 67.6275 17.0591 67.6275H48.8269V65.6275H17.0591C15.9545 65.6275 15.0591 64.732 15.0591 63.6275V27.7256H65.618V42.6386H67.618V20.9657C67.618 18.7565 65.8271 16.9657 63.618 16.9657H54.2184V14.0286ZM52.2184 18.9657V21.7104C52.2184 22.2627 52.6661 22.7104 53.2184 22.7104C53.7707 22.7104 54.2184 22.2627 54.2184 21.7104V18.9657H63.618C64.7226 18.9657 65.618 19.8611 65.618 20.9657V25.7256H15.0591V20.9657C15.0591 19.8611 15.9545 18.9657 17.0591 18.9657H27.1102V21.7105C27.1102 22.2628 27.5579 22.7105 28.1102 22.7105C28.6625 22.7105 29.1102 22.2628 29.1102 21.7105V18.9657H52.2184ZM20.2378 37.7747C20.2378 37.5538 20.4169 37.3747 20.6378 37.3747H23.1737C23.3946 37.3747 23.5737 37.5538 23.5737 37.7747V40.3106C23.5737 40.5315 23.3946 40.7106 23.1737 40.7106H20.6378C20.4169 40.7106 20.2378 40.5315 20.2378 40.3106V37.7747ZM20.6378 45.7144C20.4169 45.7144 20.2378 45.8935 20.2378 46.1144V48.6503C20.2378 48.8712 20.4169 49.0503 20.6378 49.0503H23.1737C23.3946 49.0503 23.5737 48.8712 23.5737 48.6503V46.1144C23.5737 45.8935 23.3946 45.7144 23.1737 45.7144H20.6378ZM28.5776 46.1144C28.5776 45.8935 28.7566 45.7144 28.9776 45.7144H31.5134C31.7344 45.7144 31.9134 45.8935 31.9134 46.1144V48.6503C31.9134 48.8712 31.7344 49.0503 31.5134 49.0503H28.9776C28.7566 49.0503 28.5776 48.8712 28.5776 48.6503V46.1144ZM28.9776 37.3747C28.7566 37.3747 28.5776 37.5538 28.5776 37.7747V40.3106C28.5776 40.5315 28.7566 40.7106 28.9776 40.7106H31.5134C31.7344 40.7106 31.9134 40.5315 31.9134 40.3106V37.7747C31.9134 37.5538 31.7344 37.3747 31.5134 37.3747H28.9776ZM36.9173 37.7747C36.9173 37.5538 37.0964 37.3747 37.3173 37.3747H39.8532C40.0741 37.3747 40.2532 37.5538 40.2532 37.7747V40.3106C40.2532 40.5315 40.0741 40.7106 39.8532 40.7106H37.3173C37.0964 40.7106 36.9173 40.5315 36.9173 40.3106V37.7747ZM37.3173 45.7144C37.0964 45.7144 36.9173 45.8935 36.9173 46.1144V48.6503C36.9173 48.8712 37.0964 49.0503 37.3173 49.0503H39.8532C40.0741 49.0503 40.2532 48.8712 40.2532 48.6503V46.1144C40.2532 45.8935 40.0741 45.7144 39.8532 45.7144H37.3173ZM45.2572 46.1144C45.2572 45.8935 45.4363 45.7144 45.6572 45.7144H48.1931C48.414 45.7144 48.5931 45.8935 48.5931 46.1144V48.6503C48.5931 48.8712 48.414 49.0503 48.1931 49.0503H45.6572C45.4363 49.0503 45.2572 48.8712 45.2572 48.6503V46.1144ZM53.9969 37.3747C53.776 37.3747 53.5969 37.5538 53.5969 37.7747V40.3106C53.5969 40.5315 53.776 40.7106 53.9969 40.7106H56.5328C56.7538 40.7106 56.9328 40.5315 56.9328 40.3106V37.7747C56.9328 37.5538 56.7538 37.3747 56.5328 37.3747H53.9969ZM45.257 37.7747C45.257 37.5538 45.4361 37.3747 45.657 37.3747H48.1929C48.4138 37.3747 48.5929 37.5538 48.5929 37.7747V40.3106C48.5929 40.5315 48.4138 40.7106 48.1929 40.7106H45.657C45.4361 40.7106 45.257 40.5315 45.257 40.3106V37.7747Z" fill="white"/>
<path d="M65.1368 56.8427C64.5468 56.8427 64.0551 56.4445 63.8585 55.9468L63.7602 55.7477L62.3835 60.028H61.4002L59.6304 53.3586L59.0403 55.8472C58.942 56.4445 58.352 56.8427 57.7621 56.8427H51.8623V55.8472H57.7621C57.8604 55.8472 58.057 55.7477 58.057 55.6481L59.1387 51.2682H60.122L61.9902 58.1367L63.2685 54.0554H64.1535L64.7435 55.6481C64.8418 55.7477 64.9402 55.8472 65.0385 55.8472H67.1034C67.9884 53.8564 67.6934 51.8655 66.5135 50.0737C64.5469 47.0874 60.122 47.187 57.7621 50.5714C55.5005 47.187 50.9773 47.0874 49.0107 50.0737C47.0441 53.06 47.6341 56.1459 51.2723 59.829C54.1239 62.7157 56.5821 64.9057 57.467 65.702C57.6637 65.9011 57.9588 65.9011 58.1554 65.702C59.0404 64.9057 61.4002 62.7157 64.3501 59.829C65.3334 58.8335 66.1201 57.8381 66.7101 56.9422L65.1368 56.8427Z" fill="white"/>
</svg>
