<svg width="81" height="81" viewBox="0 0 81 81" fill="none" xmlns="http://www.w3.org/2000/svg">
<rect x="0.656555" y="0.867065" width="79" height="79" rx="11.5" fill="#9E0D25" stroke="#9E0D25"/>
<path d="M62.5738 39.2193V18.5598C62.5738 14.7563 59.5625 11.673 55.8616 11.673H24.4515C20.7444 11.673 17.7393 14.7584 17.7393 18.5383V62.1958C17.7393 65.9874 20.743 69.0612 24.4535 69.0612H35.6731" stroke="white" stroke-width="2"/>
<path fill-rule="evenodd" clip-rule="evenodd" d="M24.913 22.4333C24.913 21.4429 25.7159 20.64 26.7063 20.64H41.0534C42.0438 20.64 42.8468 21.4429 42.8468 22.4333C42.8468 23.4238 42.0438 24.2267 41.0534 24.2267H26.7063C25.7159 24.2267 24.913 23.4238 24.913 22.4333Z" fill="white"/>
<path fill-rule="evenodd" clip-rule="evenodd" d="M24.913 29.6068C24.913 28.6163 25.7159 27.8134 26.7063 27.8134H41.0534C42.0438 27.8134 42.8468 28.6163 42.8468 29.6068C42.8468 30.5973 42.0438 31.4002 41.0534 31.4002H26.7063C25.7159 31.4002 24.913 30.5973 24.913 29.6068Z" fill="white"/>
<path fill-rule="evenodd" clip-rule="evenodd" d="M24.913 36.7803C24.913 35.7899 25.7159 34.9869 26.7063 34.9869H35.6732C36.6637 34.9869 37.4666 35.7899 37.4666 36.7803C37.4666 37.7708 36.6637 38.5737 35.6732 38.5737H26.7063C25.7159 38.5737 24.913 37.7708 24.913 36.7803Z" fill="white"/>
<path fill-rule="evenodd" clip-rule="evenodd" d="M24.913 43.9538C24.913 42.9633 25.7159 42.1604 26.7063 42.1604H28.4997C29.4902 42.1604 30.2931 42.9633 30.2931 43.9538C30.2931 44.9442 29.4902 45.7472 28.4997 45.7472H26.7063C25.7159 45.7472 24.913 44.9442 24.913 43.9538Z" fill="white"/>
<path d="M60.7925 58.1224C60.0911 58.1224 59.5066 57.6389 59.2728 57.0346L59.1559 56.7928L57.5194 61.9902H56.3505L54.2465 53.8919L53.545 56.9137C53.4281 57.6389 52.7269 58.1224 52.0255 58.1224H45.012V56.9137H52.0255C52.1424 56.9137 52.3761 56.7928 52.3761 56.6719L53.662 51.3536H54.831L57.0518 59.6937L58.5715 54.738H59.6235L60.3249 56.6719C60.4417 56.7928 60.5587 56.9137 60.6756 56.9137H63.1303C64.1823 54.4963 63.8317 52.0789 62.429 49.9032C60.0911 46.2771 54.8309 46.3979 52.0255 50.5075C49.337 46.3979 43.9599 46.2771 41.6221 49.9032C39.2842 53.5293 39.9856 57.2763 44.3107 61.7485C47.7005 65.2537 50.6228 67.9129 51.6748 68.8798C51.9086 69.1216 52.2593 69.1216 52.4931 68.8798C53.5452 67.9129 56.3505 65.2537 59.8573 61.7485C61.0262 60.5398 61.9613 59.3311 62.6627 58.2433L60.7925 58.1224Z" fill="white"/>
</svg>
