<svg width="81" height="81" viewBox="0 0 81 81" fill="none" xmlns="http://www.w3.org/2000/svg">
<rect x="0.656555" y="0.925079" width="79" height="79" rx="11.5" fill="#84F5BC" stroke="#84F5BC"/>
<path d="M62.5738 39.2773V18.6178C62.5738 14.8143 59.5625 11.731 55.8616 11.731H24.4515C20.7444 11.731 17.7393 14.8164 17.7393 18.5963V62.2538C17.7393 66.0454 20.743 69.1192 24.4535 69.1192H35.6731" stroke="white" stroke-width="2"/>
<path fill-rule="evenodd" clip-rule="evenodd" d="M24.913 22.4913C24.913 21.5009 25.7159 20.6979 26.7063 20.6979H41.0534C42.0438 20.6979 42.8468 21.5009 42.8468 22.4913C42.8468 23.4818 42.0438 24.2847 41.0534 24.2847H26.7063C25.7159 24.2847 24.913 23.4818 24.913 22.4913Z" fill="white"/>
<path fill-rule="evenodd" clip-rule="evenodd" d="M24.913 29.6648C24.913 28.6744 25.7159 27.8714 26.7063 27.8714H41.0534C42.0438 27.8714 42.8468 28.6744 42.8468 29.6648C42.8468 30.6553 42.0438 31.4582 41.0534 31.4582H26.7063C25.7159 31.4582 24.913 30.6553 24.913 29.6648Z" fill="white"/>
<path fill-rule="evenodd" clip-rule="evenodd" d="M24.913 36.8383C24.913 35.8478 25.7159 35.0449 26.7063 35.0449H35.6732C36.6637 35.0449 37.4666 35.8478 37.4666 36.8383C37.4666 37.8288 36.6637 38.6317 35.6732 38.6317H26.7063C25.7159 38.6317 24.913 37.8288 24.913 36.8383Z" fill="white"/>
<path fill-rule="evenodd" clip-rule="evenodd" d="M24.913 44.0118C24.913 43.0213 25.7159 42.2184 26.7063 42.2184H28.4997C29.4902 42.2184 30.2931 43.0213 30.2931 44.0118C30.2931 45.0023 29.4902 45.8052 28.4997 45.8052H26.7063C25.7159 45.8052 24.913 45.0023 24.913 44.0118Z" fill="white"/>
<path d="M62.2572 59.3238C61.7385 59.3238 61.3171 59.7117 61.3171 60.1892V68.0535H42.0354V50.3021H57.1549C57.6736 50.3021 58.095 49.9141 58.095 49.4366C58.095 48.9592 57.6736 48.5712 57.1549 48.5712H41.0967C40.578 48.5712 40.1566 48.9592 40.1566 49.4366V68.9177C40.1566 69.3952 40.5766 69.7831 41.0967 69.7831H62.2586C62.7773 69.7831 63.1987 69.3952 63.1987 68.9177V60.1879C63.1973 59.7104 62.7773 59.3238 62.2572 59.3238Z" fill="white"/>
<path d="M61.8182 50.1805L52.1193 61.7168L48.739 57.6967C48.4233 57.3212 47.9097 57.3212 47.594 57.6967C47.2783 58.0736 47.2783 58.6829 47.594 59.0584L51.5462 63.7587C51.698 63.9392 51.9044 64.0402 52.1193 64.0402C52.3342 64.0402 52.5394 63.9392 52.6912 63.7587L62.962 51.5423C63.2777 51.1668 63.2777 50.5574 62.962 50.1805C62.6463 49.8051 62.1339 49.8051 61.8182 50.1805Z" fill="white"/>
</svg>
