<svg width="80" height="81" viewBox="0 0 80 81" fill="none" xmlns="http://www.w3.org/2000/svg">
<rect x="0.5" y="0.973877" width="79" height="79" rx="11.5" fill="#0F9EBA" stroke="#0F9EBA"/>
<path d="M62.4172 39.3261V18.6666C62.4172 14.8631 59.4059 11.7798 55.7051 11.7798H24.2949C20.5879 11.7798 17.5827 14.8652 17.5827 18.6451V62.3026C17.5827 66.0942 20.5864 69.168 24.297 69.168H35.5165" stroke="white" stroke-width="2"/>
<path fill-rule="evenodd" clip-rule="evenodd" d="M24.7564 22.5401C24.7564 21.5497 25.5593 20.7468 26.5498 20.7468H40.8968C41.8873 20.7468 42.6902 21.5497 42.6902 22.5401C42.6902 23.5306 41.8873 24.3335 40.8968 24.3335H26.5498C25.5593 24.3335 24.7564 23.5306 24.7564 22.5401Z" fill="white"/>
<path fill-rule="evenodd" clip-rule="evenodd" d="M24.7564 29.7136C24.7564 28.7232 25.5593 27.9202 26.5498 27.9202H40.8968C41.8873 27.9202 42.6902 28.7232 42.6902 29.7136C42.6902 30.7041 41.8873 31.507 40.8968 31.507H26.5498C25.5593 31.507 24.7564 30.7041 24.7564 29.7136Z" fill="white"/>
<path fill-rule="evenodd" clip-rule="evenodd" d="M24.7564 36.8871C24.7564 35.8967 25.5593 35.0938 26.5498 35.0938H35.5167C36.5071 35.0938 37.3101 35.8967 37.3101 36.8871C37.3101 37.8776 36.5071 38.6805 35.5167 38.6805H26.5498C25.5593 38.6805 24.7564 37.8776 24.7564 36.8871Z" fill="white"/>
<path fill-rule="evenodd" clip-rule="evenodd" d="M24.7564 44.0606C24.7564 43.0701 25.5593 42.2672 26.5498 42.2672H28.3432C29.3336 42.2672 30.1366 43.0701 30.1366 44.0606C30.1366 45.051 29.3336 45.854 28.3432 45.854H26.5498C25.5593 45.854 24.7564 45.051 24.7564 44.0606Z" fill="white"/>
<path d="M55.9451 60.5293L55.2142 60.3613L55.2142 60.3613L55.9451 60.5293ZM56.0155 59.6092L55.304 59.8464L55.3139 59.8761L55.3262 59.9048L56.0155 59.6092ZM55.2513 59.0763L54.8755 59.7253L54.8953 59.7368L54.9158 59.7471L55.2513 59.0763ZM54.0697 58.4227L54.4369 57.7687L54.4368 57.7686L54.0697 58.4227ZM53.5318 58.1109L53.0818 58.7109L53.1127 58.7341L53.1459 58.754L53.5318 58.1109ZM53.2804 57.935L52.8542 58.5521L52.8542 58.5522L53.2804 57.935ZM52.9234 57.7188L52.5973 58.3942L52.5973 58.3942L52.9234 57.7188ZM52.134 57.935L52.6506 58.4787L52.6506 58.4787L52.134 57.935ZM51.581 58.5584L52.182 59.007L52.1821 59.007L51.581 58.5584ZM51.048 59.1818L50.513 58.6562L50.513 58.6562L51.048 59.1818ZM50.3592 59.4182L50.6198 58.7149L50.6197 58.7148L50.3592 59.4182ZM50.1531 59.3327L49.8177 60.0035L49.8177 60.0035L50.1531 59.3327ZM49.9117 59.1919L49.5176 59.83L49.5177 59.83L49.9117 59.1919ZM49.7207 59.0763L49.3569 59.7321L49.3709 59.7399L49.3853 59.7471L49.7207 59.0763ZM47.3576 57.3266L46.8273 57.8569L46.8273 57.8569L47.3576 57.3266ZM45.608 54.9635L44.9369 55.2984L44.9442 55.313L44.9521 55.3274L45.608 54.9635ZM45.4923 54.7725L46.1304 54.3784L46.1304 54.3783L45.4923 54.7725ZM45.2661 54.325L45.9694 54.0645L45.9694 54.0645L45.2661 54.325ZM45.5024 53.6362L46.028 54.1712L46.028 54.1712L45.5024 53.6362ZM46.1258 53.1032L46.5744 53.7043L46.5744 53.7043L46.1258 53.1032ZM46.7493 52.5502L46.2055 52.0336L46.2055 52.0336L46.7493 52.5502ZM46.9655 51.7608L47.6409 51.4348L47.6409 51.4347L46.9655 51.7608ZM46.7493 51.4039L47.3664 50.9777L47.3664 50.9777L46.7493 51.4039ZM46.5733 51.1525L45.9302 51.5383L45.9501 51.5716L45.9734 51.6026L46.5733 51.1525ZM46.2616 50.6145L46.9156 50.2474L46.9155 50.2473L46.2616 50.6145ZM45.9096 49.976L46.5688 49.6181L46.5688 49.6181L45.9096 49.976ZM45.608 49.433L44.9371 49.7684L44.9474 49.7889L44.9589 49.8087L45.608 49.433ZM45.075 48.6687L44.7794 49.358L44.8082 49.3704L44.8379 49.3803L45.075 48.6687ZM44.1549 48.7391L44.3229 49.4701L44.323 49.4701L44.1549 48.7391ZM43.4661 48.9503L43.7566 49.6419L43.7682 49.6368L43.4661 48.9503ZM42.4002 50.1771L41.7443 49.8134L41.741 49.8194L42.4002 50.1771ZM41.9226 52.5753L42.6656 52.4734L42.6656 52.4732L41.9226 52.5753ZM42.0483 53.1535L41.3263 53.3565L41.3263 53.3566L42.0483 53.1535ZM42.1941 53.6312L41.4872 53.8819L41.4873 53.882L42.1941 53.6312ZM42.4002 54.1892L41.698 54.4526L41.698 54.4526L42.4002 54.1892ZM42.5812 54.682L41.8697 54.9192L41.8722 54.9267L41.8749 54.9342L42.5812 54.682ZM43.4158 56.4417L44.0541 56.0478L44.0523 56.045L43.4158 56.4417ZM45.5828 59.1014L45.0525 59.6317L45.5828 59.1014ZM48.2425 61.2684L48.6393 60.6319L48.6364 60.6302L48.2425 61.2684ZM50.0022 62.103L49.75 62.8093L49.7576 62.812L49.7652 62.8146L50.0022 62.103ZM50.495 62.284L50.2316 62.9862L50.2316 62.9862L50.495 62.284ZM51.0531 62.4901L50.8023 63.197L50.8023 63.197L51.0531 62.4901ZM51.5307 62.636L51.3276 63.3579L51.3277 63.3579L51.5307 62.636ZM52.1089 62.7617L52.2109 62.0186L52.2109 62.0186L52.1089 62.7617ZM54.5071 62.284L54.8648 62.9433L54.8708 62.9399L54.5071 62.284ZM55.7339 61.2181L55.0473 60.9161L55.0424 60.9277L55.7339 61.2181ZM48.9669 69.9179C56.8095 69.9179 63.1673 63.5602 63.1673 55.7176H61.6673C61.6673 62.7318 55.9811 68.4179 48.9669 68.4179V69.9179ZM34.7665 55.7176C34.7665 63.5602 41.1243 69.9179 48.9669 69.9179V68.4179C41.9527 68.4179 36.2665 62.7318 36.2665 55.7176H34.7665ZM48.9669 41.5172C41.1243 41.5172 34.7665 47.8749 34.7665 55.7176H36.2665C36.2665 48.7034 41.9527 43.0172 48.9669 43.0172V41.5172ZM63.1673 55.7176C63.1673 47.8749 56.8095 41.5172 48.9669 41.5172V43.0172C55.9811 43.0172 61.6673 48.7034 61.6673 55.7176H63.1673ZM55.2957 59.8204C55.2957 59.9202 55.2756 60.094 55.2142 60.3613L56.676 60.6974C56.7487 60.3814 56.7957 60.0826 56.7957 59.8204H55.2957ZM55.3262 59.9048C55.3136 59.8755 55.3064 59.8515 55.3023 59.8356C55.2982 59.8196 55.2964 59.8083 55.2956 59.8033C55.2944 59.7943 55.2957 59.7984 55.2957 59.8204H56.7957C56.7957 59.6959 56.7857 59.5024 56.7048 59.3136L55.3262 59.9048ZM54.9158 59.7471C55.1368 59.8576 55.2811 59.942 55.3653 60.0007C55.4075 60.0302 55.4182 60.0419 55.4118 60.0354C55.4078 60.0313 55.3931 60.0161 55.3747 59.9896C55.3567 59.9638 55.3271 59.9157 55.304 59.8464L56.727 59.3721C56.6643 59.1841 56.5499 59.0531 56.4784 58.9807C56.3982 58.8996 56.3083 58.8296 56.2233 58.7703C56.0527 58.6514 55.8349 58.5296 55.5867 58.4054L54.9158 59.7471ZM54.3505 59.4338C54.583 59.56 54.757 59.6567 54.8755 59.7253L55.627 58.4272C55.4908 58.3483 55.3028 58.244 55.0661 58.1155L54.3505 59.4338ZM53.7026 59.0766C53.8973 59.186 54.1133 59.305 54.3505 59.4338L55.0661 58.1155C54.8339 57.9894 54.6243 57.8739 54.4369 57.7687L53.7026 59.0766ZM53.1459 58.754C53.3203 58.8587 53.506 58.9663 53.7026 59.0767L54.4368 57.7686C54.2514 57.6645 54.0784 57.5643 53.9176 57.4678L53.1459 58.754ZM52.8542 58.5522C52.9241 58.6004 52.9787 58.6383 53.0187 58.6663C53.0387 58.6803 53.0543 58.6913 53.0659 58.6995C53.0787 58.7087 53.0828 58.7117 53.0818 58.7109L53.9818 57.5109C53.9401 57.4797 53.8409 57.4106 53.7065 57.3178L52.8542 58.5522ZM52.5973 58.3942C52.6457 58.4175 52.7292 58.4658 52.8542 58.5521L53.7065 57.3178C53.55 57.2097 53.3955 57.1139 53.2495 57.0434L52.5973 58.3942ZM52.6368 58.3984C52.6206 58.3984 52.6079 58.3963 52.6 58.3943C52.5923 58.3924 52.5913 58.3913 52.5973 58.3942L53.2495 57.0434C53.0658 56.9547 52.8594 56.8984 52.6368 56.8984V58.3984ZM52.6506 58.4787C52.6862 58.4449 52.7155 58.4198 52.7389 58.4017C52.7624 58.3834 52.7767 58.3746 52.782 58.3716C52.7875 58.3684 52.7787 58.3742 52.7564 58.3813C52.7337 58.3885 52.6925 58.3984 52.6368 58.3984V56.8984C52.3947 56.8984 52.1895 56.9828 52.0392 57.0684C51.8854 57.1561 51.7445 57.2705 51.6174 57.3912L52.6506 58.4787ZM52.1821 59.007C52.3245 58.8161 52.4806 58.6402 52.6506 58.4787L51.6175 57.3912C51.3852 57.6118 51.1726 57.8516 50.9799 58.1099L52.1821 59.007ZM51.583 59.7075C51.7955 59.4912 51.9951 59.2575 52.182 59.007L50.9799 58.1098C50.8316 58.3085 50.6759 58.4904 50.513 58.6562L51.583 59.7075ZM50.5855 60.2184C50.8388 60.2184 51.0465 60.1212 51.1866 60.0343C51.3326 59.9439 51.4651 59.8275 51.583 59.7075L50.513 58.6562C50.4798 58.6901 50.4527 58.7149 50.4317 58.7325C50.4104 58.7503 50.3988 58.7579 50.3966 58.7593C50.3939 58.7609 50.4074 58.752 50.436 58.7421C50.465 58.732 50.5166 58.7184 50.5855 58.7184V60.2184ZM50.0987 60.1214C50.2287 60.1696 50.3991 60.2184 50.5855 60.2184V58.7184C50.6048 58.7184 50.6197 58.7198 50.6293 58.721C50.6389 58.7221 50.6448 58.7234 50.6464 58.7237C50.6489 58.7243 50.6406 58.7226 50.6198 58.7149L50.0987 60.1214ZM49.8177 60.0035C49.9013 60.0453 50.0002 60.085 50.0988 60.1215L50.6197 58.7148C50.5373 58.6843 50.4987 58.667 50.4885 58.6619L49.8177 60.0035ZM49.5177 59.83C49.6302 59.8996 49.7369 59.9632 49.8177 60.0035L50.4885 58.6619C50.4887 58.662 50.4845 58.6599 50.4744 58.6543C50.4647 58.6489 50.4519 58.6417 50.4355 58.6321C50.4025 58.6128 50.3596 58.587 50.3058 58.5538L49.5177 59.83ZM49.3853 59.7471C49.3759 59.7424 49.369 59.7387 49.3661 59.7371C49.3627 59.7352 49.3603 59.7339 49.3593 59.7334C49.3576 59.7324 49.3577 59.7324 49.3605 59.7341C49.3659 59.7373 49.3755 59.7429 49.3901 59.7518C49.4191 59.7694 49.4613 59.7952 49.5176 59.83L50.3059 58.5538C50.2156 58.498 50.1088 58.4318 50.0561 58.4055L49.3853 59.7471ZM46.8273 57.8569C47.5396 58.5692 48.3852 59.1931 49.3569 59.7321L50.0845 58.4204C49.2194 57.9405 48.4896 57.3979 47.8879 56.7963L46.8273 57.8569ZM44.9521 55.3274C45.4911 56.299 46.115 57.1446 46.8273 57.8569L47.888 56.7963C47.2863 56.1946 46.7437 55.4649 46.2638 54.5997L44.9521 55.3274ZM44.8542 55.1666C44.889 55.2229 44.9149 55.2651 44.9324 55.2941C44.9413 55.3088 44.947 55.3183 44.9501 55.3237C44.9518 55.3264 44.9518 55.3265 44.9508 55.3247C44.9502 55.3238 44.9489 55.3213 44.947 55.3178C44.9453 55.3149 44.9416 55.3078 44.9369 55.2984L46.279 54.6287C46.2525 54.5756 46.186 54.4683 46.1304 54.3784L44.8542 55.1666ZM44.6807 54.8666C44.7211 54.9473 44.7846 55.0539 44.8542 55.1666L46.1304 54.3783C46.0972 54.3246 46.0714 54.2817 46.0521 54.2488C46.0426 54.2324 46.0353 54.2195 46.03 54.2099C46.0244 54.1998 46.0222 54.1955 46.0223 54.1957L44.6807 54.8666ZM44.5628 54.5855C44.5993 54.6841 44.6389 54.7829 44.6807 54.8666L46.0223 54.1957C46.0172 54.1855 45.9999 54.1469 45.9694 54.0645L44.5628 54.5855ZM44.4658 54.0988C44.4658 54.2851 44.5146 54.4555 44.5628 54.5855L45.9694 54.0645C45.9616 54.0436 45.9599 54.0354 45.9605 54.0378C45.9608 54.0395 45.9621 54.0453 45.9633 54.0549C45.9645 54.0645 45.9658 54.0794 45.9658 54.0988H44.4658ZM44.9768 53.1012C44.8567 53.2191 44.7403 53.3516 44.6499 53.4976C44.563 53.6378 44.4658 53.8454 44.4658 54.0988H45.9658C45.9658 54.1676 45.9522 54.2192 45.9421 54.2482C45.9322 54.2768 45.9233 54.2903 45.925 54.2876C45.9263 54.2854 45.9339 54.2738 45.9517 54.2525C45.9693 54.2315 45.9941 54.2045 46.028 54.1712L44.9768 53.1012ZM45.6773 52.5022C45.4268 52.6891 45.193 52.8887 44.9768 53.1012L46.028 54.1712C46.1938 54.0083 46.3757 53.8526 46.5744 53.7043L45.6773 52.5022ZM46.2055 52.0336C46.044 52.2036 45.8681 52.3597 45.6773 52.5022L46.5744 53.7043C46.8327 53.5116 47.0724 53.299 47.293 53.0667L46.2055 52.0336ZM46.2858 52.0474C46.2858 51.9917 46.2957 51.9506 46.3029 51.9279C46.31 51.9056 46.3158 51.8967 46.3126 51.9023C46.3096 51.9075 46.3008 51.9218 46.2825 51.9454C46.2644 51.9687 46.2393 51.9981 46.2055 52.0336L47.293 53.0668C47.4137 52.9397 47.5282 52.7988 47.6158 52.645C47.7015 52.4947 47.7858 52.2895 47.7858 52.0474H46.2858ZM46.2901 52.0869C46.2929 52.0929 46.2918 52.0919 46.2899 52.0842C46.2879 52.0763 46.2858 52.0636 46.2858 52.0474H47.7858C47.7858 51.8249 47.7296 51.6185 47.6409 51.4348L46.2901 52.0869ZM46.1321 51.83C46.2185 51.9551 46.2667 52.0386 46.2901 52.0869L47.6409 51.4347C47.5703 51.2887 47.4745 51.1342 47.3664 50.9777L46.1321 51.83ZM45.9734 51.6026C45.9726 51.6015 45.9756 51.6056 45.9847 51.6183C45.9929 51.6299 46.0039 51.6455 46.0179 51.6655C46.0459 51.7055 46.0839 51.7602 46.1321 51.83L47.3664 50.9777C47.2738 50.8435 47.2045 50.7441 47.1732 50.7023L45.9734 51.6026ZM45.6076 50.9816C45.7179 51.1782 45.8255 51.3639 45.9302 51.5383L47.2164 50.7666C47.12 50.6059 47.0197 50.4329 46.9156 50.2474L45.6076 50.9816ZM45.2505 50.3338C45.3792 50.5709 45.4983 50.7869 45.6076 50.9817L46.9155 50.2473C46.8104 50.06 46.6948 49.8503 46.5688 49.6181L45.2505 50.3338ZM44.9589 49.8087C45.0275 49.9272 45.1242 50.1012 45.2505 50.3338L46.5688 49.6181C46.4403 49.3815 46.3359 49.1934 46.257 49.0572L44.9589 49.8087ZM44.8379 49.3803C44.7685 49.3571 44.7204 49.3275 44.6946 49.3096C44.6681 49.2911 44.6529 49.2764 44.6489 49.2725C44.6424 49.266 44.6541 49.2767 44.6836 49.319C44.7423 49.4032 44.8266 49.5474 44.9371 49.7684L46.2788 49.0976C46.1546 48.8493 46.0329 48.6315 45.9139 48.4609C45.8546 48.3759 45.7846 48.286 45.7035 48.2058C45.6312 48.1343 45.5002 48.0199 45.3121 47.9572L44.8379 49.3803ZM44.8638 49.3886C44.8858 49.3886 44.89 49.3899 44.881 49.3886C44.8759 49.3878 44.8646 49.386 44.8486 49.3819C44.8327 49.3778 44.8087 49.3706 44.7794 49.358L45.3706 47.9794C45.1818 47.8985 44.9883 47.8886 44.8638 47.8886V49.3886ZM44.323 49.4701C44.5902 49.4086 44.764 49.3886 44.8638 49.3886V47.8886C44.6017 47.8886 44.3029 47.9355 43.9869 48.0082L44.323 49.4701ZM43.7682 49.6368C43.8742 49.5901 44.0523 49.5323 44.3229 49.4701L43.9869 48.0082C43.6743 48.0801 43.3932 48.163 43.1641 48.2638L43.7682 49.6368ZM43.0561 50.5408C43.2283 50.2302 43.3822 50.0066 43.5144 49.8545C43.6505 49.6978 43.734 49.6512 43.7565 49.6418L43.1757 48.2588C42.863 48.3901 42.6013 48.6184 42.3821 48.8707C42.159 49.1274 41.9475 49.4468 41.7443 49.8134L43.0561 50.5408ZM42.6374 52.0474C42.6374 51.5745 42.7674 51.073 43.0594 50.5347L41.741 49.8194C41.3493 50.5414 41.1374 51.2868 41.1374 52.0474H42.6374ZM42.6656 52.4732C42.647 52.3378 42.6374 52.196 42.6374 52.0474H41.1374C41.1374 52.2608 41.1512 52.471 41.1796 52.6774L42.6656 52.4732ZM42.7703 52.9505C42.7167 52.7601 42.6833 52.602 42.6656 52.4734L41.1795 52.6772C41.2088 52.8905 41.2592 53.1179 41.3263 53.3565L42.7703 52.9505ZM42.9009 53.3804C42.8728 53.3011 42.8296 53.1616 42.7703 52.9504L41.3263 53.3566C41.3876 53.5745 41.4417 53.7534 41.4872 53.8819L42.9009 53.3804ZM43.1025 53.9259C43.0018 53.6574 42.9352 53.4772 42.9009 53.3803L41.4873 53.882C41.5266 53.993 41.5975 54.1848 41.698 54.4526L43.1025 53.9259ZM43.2927 54.4447C43.2671 54.368 43.2008 54.1882 43.1025 53.9259L41.698 54.4526C41.8007 54.7266 41.8551 54.8752 41.8697 54.9192L43.2927 54.4447ZM44.0523 56.045C43.7627 55.5804 43.5067 55.0434 43.2875 54.4297L41.8749 54.9342C42.125 55.6345 42.4254 56.2707 42.7794 56.8385L44.0523 56.045ZM46.1131 58.5711C45.2283 57.6862 44.5459 56.8447 44.0541 56.0478L42.7776 56.8356C43.3449 57.7548 44.1072 58.6865 45.0525 59.6317L46.1131 58.5711ZM48.6364 60.6302C47.8395 60.1383 46.998 59.456 46.1131 58.5711L45.0525 59.6317C45.9977 60.577 46.9294 61.3393 47.8486 61.9066L48.6364 60.6302ZM50.2545 61.3967C49.6409 61.1775 49.1039 60.9215 48.6393 60.6319L47.8458 61.9049C48.4135 62.2588 49.0497 62.5592 49.75 62.8093L50.2545 61.3967ZM50.7583 61.5818C50.4961 61.4834 50.3161 61.4171 50.2393 61.3915L49.7652 62.8146C49.809 62.8292 49.9576 62.8835 50.2316 62.9862L50.7583 61.5818ZM51.3038 61.7833C51.207 61.749 51.0268 61.6825 50.7583 61.5818L50.2316 62.9862C50.4994 63.0867 50.6913 63.1576 50.8023 63.197L51.3038 61.7833ZM51.7338 61.914C51.5227 61.8546 51.3832 61.8115 51.3038 61.7833L50.8023 63.197C50.9308 63.2425 51.1097 63.2966 51.3276 63.3579L51.7338 61.914ZM52.2109 62.0186C52.0822 62.001 51.9241 61.9675 51.7337 61.914L51.3277 63.3579C51.5663 63.4251 51.7936 63.4754 52.0069 63.5047L52.2109 62.0186ZM52.6368 62.0468C52.4882 62.0468 52.3464 62.0372 52.2109 62.0186L52.0069 63.5047C52.2133 63.533 52.4234 63.5468 52.6368 63.5468V62.0468ZM54.1495 61.6248C53.6112 61.9168 53.1097 62.0468 52.6368 62.0468V63.5468C53.3974 63.5468 54.1428 63.335 54.8648 62.9432L54.1495 61.6248ZM55.0424 60.9277C55.033 60.9502 54.9864 61.0337 54.8298 61.1698C54.6776 61.302 54.454 61.4559 54.1435 61.6281L54.8708 62.9399C55.2374 62.7367 55.5568 62.5252 55.8136 62.3021C56.0658 62.083 56.2941 61.8212 56.4254 61.5085L55.0424 60.9277ZM55.2142 60.3613C55.152 60.6318 55.0941 60.8101 55.0474 60.9161L56.4204 61.5201C56.5212 61.291 56.6042 61.01 56.676 60.6973L55.2142 60.3613Z" fill="white"/>
</svg>
