<svg width="81" height="81" viewBox="0 0 81 81" fill="none" xmlns="http://www.w3.org/2000/svg">
<rect x="0.691895" y="0.809082" width="79" height="79" rx="11.5" fill="#FF3544" stroke="#FF3544"/>
<rect x="18.3162" y="11.6725" width="43.76" height="57.2598" rx="7" stroke="white" stroke-width="2"/>
<mask id="path-3-inside-1_249_5001" fill="white">
<path fill-rule="evenodd" clip-rule="evenodd" d="M34.2507 44.0777C35.0347 42.825 35.407 41.3583 35.3153 39.8833C35.3293 39.3006 35.2124 38.7222 34.9732 38.1907C34.734 37.6592 34.3786 37.1882 33.9332 36.8123C33.4878 36.4363 32.9638 36.1651 32.3997 36.0186C31.8356 35.8721 31.2458 35.8539 30.6737 35.9656C29.8626 36.0503 29.1121 36.4342 28.5688 37.0425C28.0255 37.6507 27.7284 38.4396 27.7355 39.2552C27.7585 40.7026 28.3159 42.0903 29.3004 43.1515C29.976 43.8803 30.8821 44.354 31.8661 44.4929C32.6432 44.5994 33.8249 44.6313 34.2507 44.0777ZM24.9438 46.396C24.4834 46.7979 24.1479 47.3235 23.9773 47.9104C23.3825 49.5659 22.9789 51.284 22.7743 53.0311C22.7729 53.0879 22.7829 53.1444 22.8037 53.1973C22.8244 53.2502 22.8556 53.2984 22.8952 53.3391C22.9349 53.3798 22.9824 53.4121 23.0347 53.4342C23.0871 53.4562 23.1434 53.4676 23.2002 53.4676H26.3939L26.7559 51.9985C26.8426 51.6356 26.9565 51.2797 27.0966 50.9339L27.3521 50.3164L28.2144 50.6784L27.9589 51.2958C27.842 51.5914 27.7425 51.8936 27.6608 52.2007L27.3521 53.4463H38.3173C38.3741 53.4463 38.4304 53.435 38.4828 53.4129C38.5351 53.3908 38.5826 53.3585 38.6223 53.3178C38.6619 53.2772 38.6931 53.2289 38.7138 53.176C38.7346 53.1231 38.7446 53.0666 38.7432 53.0098C38.7181 51.4993 38.547 49.9948 38.2322 48.5173C38.1028 47.9611 37.8228 47.4512 37.4228 47.0437C37.0228 46.6362 36.5183 46.3468 35.9646 46.2071C32.8934 45.4603 29.7134 45.2692 26.5749 45.6429C25.9704 45.7327 25.4043 45.994 24.9438 46.396Z"/>
</mask>
<path d="M35.3153 39.8833L34.3173 39.9453L34.3146 39.9023L34.3156 39.8593L35.3153 39.8833ZM34.2507 44.0777L35.0984 44.6082L35.0728 44.6492L35.0434 44.6874L34.2507 44.0777ZM34.9732 38.1907L34.0613 38.6011V38.6011L34.9732 38.1907ZM33.9332 36.8123L34.5782 36.0481V36.0481L33.9332 36.8123ZM32.3997 36.0186L32.1483 36.9865L32.3997 36.0186ZM30.6737 35.9656L30.8653 36.9471L30.8217 36.9556L30.7776 36.9602L30.6737 35.9656ZM28.5688 37.0425L29.3146 37.7086L28.5688 37.0425ZM27.7355 39.2552L26.7356 39.271L26.7355 39.2638L27.7355 39.2552ZM29.3004 43.1515L30.0335 42.4714L30.0338 42.4717L29.3004 43.1515ZM31.8661 44.4929L31.7303 45.4837L31.7263 45.4831L31.8661 44.4929ZM23.9773 47.9104L24.9376 48.1896L24.9289 48.2194L24.9184 48.2486L23.9773 47.9104ZM24.9438 46.396L25.6014 47.1493L24.9438 46.396ZM22.7743 53.0311L21.7747 53.0061L21.7758 52.9603L21.7811 52.9148L22.7743 53.0311ZM22.8952 53.3391L23.611 52.6408L23.611 52.6408L22.8952 53.3391ZM23.0347 53.4342L22.6465 54.3558L22.6465 54.3557L23.0347 53.4342ZM23.2002 53.4676L23.1999 52.4676H23.2002V53.4676ZM26.3939 53.4676L27.3649 53.7068L27.1775 54.4676H26.3939V53.4676ZM26.7559 51.9985L27.7285 52.231L27.7269 52.2377L26.7559 51.9985ZM27.0966 50.9339L26.1697 50.5585L26.1726 50.5515L27.0966 50.9339ZM27.3521 50.3164L26.4281 49.9341L26.8124 49.0053L27.7391 49.3943L27.3521 50.3164ZM28.2144 50.6784L28.6014 49.7563L29.5188 50.1414L29.1384 51.0607L28.2144 50.6784ZM27.9589 51.2958L27.0289 50.9282L27.0318 50.9208L27.0349 50.9135L27.9589 51.2958ZM27.6608 52.2007L26.6902 51.9601L26.6922 51.9519L26.6944 51.9437L27.6608 52.2007ZM27.3521 53.4463V54.4463H26.0739L26.3814 53.2057L27.3521 53.4463ZM38.3173 53.4463V52.4463H38.3176L38.3173 53.4463ZM38.4828 53.4129L38.871 54.3344L38.871 54.3345L38.4828 53.4129ZM38.6223 53.3178L39.338 54.0161L39.338 54.0162L38.6223 53.3178ZM38.7138 53.176L37.783 52.8107L38.7138 53.176ZM38.7432 53.0098L37.7434 53.0348L37.7433 53.0264L38.7432 53.0098ZM38.2322 48.5173L39.2062 48.2908L39.2083 48.2998L39.2102 48.3089L38.2322 48.5173ZM37.4228 47.0437L36.7091 47.7442L36.7091 47.7442L37.4228 47.0437ZM35.9646 46.2071L36.2009 45.2354L36.2091 45.2375L35.9646 46.2071ZM26.5749 45.6429L26.428 44.6537L26.4423 44.6516L26.4567 44.6499L26.5749 45.6429ZM36.3134 39.8213C36.418 41.5046 35.9931 43.1785 35.0984 44.6082L33.403 43.5473C34.0763 42.4714 34.3959 41.2119 34.3173 39.9453L36.3134 39.8213ZM35.8851 37.7803C36.1857 38.4482 36.3326 39.175 36.315 39.9072L34.3156 39.8593C34.326 39.4262 34.2391 38.9962 34.0613 38.6011L35.8851 37.7803ZM34.5782 36.0481C35.1379 36.5205 35.5845 37.1124 35.8851 37.7803L34.0613 38.6011C33.8835 38.2061 33.6193 37.8559 33.2882 37.5764L34.5782 36.0481ZM32.6511 35.0507C33.36 35.2348 34.0185 35.5757 34.5782 36.0481L33.2882 37.5764C32.9571 37.297 32.5676 37.0954 32.1483 36.9865L32.6511 35.0507ZM30.4822 34.9841C31.201 34.8438 31.9422 34.8666 32.6511 35.0507L32.1483 36.9865C31.7289 36.8775 31.2905 36.8641 30.8653 36.9471L30.4822 34.9841ZM27.823 36.3763C28.532 35.5826 29.5113 35.0815 30.5699 34.971L30.7776 36.9602C30.2138 37.019 29.6922 37.2859 29.3146 37.7086L27.823 36.3763ZM26.7355 39.2638C26.7263 38.1996 27.114 37.1701 27.823 36.3763L29.3146 37.7086C28.937 38.1314 28.7305 38.6797 28.7354 39.2465L26.7355 39.2638ZM28.5673 43.8317C27.4149 42.5896 26.7625 40.9652 26.7356 39.271L28.7353 39.2393C28.7544 40.4399 29.2168 41.5911 30.0335 42.4714L28.5673 43.8317ZM31.7263 45.4831C30.5147 45.3121 29.3989 44.7288 28.5671 43.8314L30.0338 42.4717C30.5531 43.0319 31.2495 43.396 32.0058 43.5027L31.7263 45.4831ZM35.0434 44.6874C34.5666 45.3072 33.7985 45.4732 33.297 45.5271C32.7389 45.5871 32.1602 45.5426 31.7303 45.4837L32.0018 43.5022C32.3491 43.5497 32.7498 43.5744 33.0833 43.5386C33.2487 43.5208 33.3645 43.4914 33.4361 43.4628C33.5077 43.4341 33.4922 43.4238 33.4581 43.468L35.0434 44.6874ZM23.0171 47.6313C23.2411 46.8606 23.6816 46.1704 24.2862 45.6426L25.6014 47.1493C25.2852 47.4254 25.0548 47.7865 24.9376 48.1896L23.0171 47.6313ZM21.7811 52.9148C21.9945 51.092 22.4156 49.2995 23.0362 47.5723L24.9184 48.2486C24.3494 49.8323 23.9632 51.4759 23.7676 53.1474L21.7811 52.9148ZM21.8728 53.5627C21.8033 53.3856 21.7699 53.1963 21.7747 53.0061L23.774 53.0561C23.7759 52.9795 23.7625 52.9033 23.7345 52.832L21.8728 53.5627ZM22.1795 54.0375C22.0466 53.9013 21.9423 53.7398 21.8728 53.5627L23.7345 52.832C23.7065 52.7606 23.6645 52.6956 23.611 52.6408L22.1795 54.0375ZM22.6465 54.3557C22.4711 54.2819 22.3123 54.1736 22.1795 54.0374L23.611 52.6408C23.5575 52.586 23.4936 52.5424 23.423 52.5126L22.6465 54.3557ZM23.2005 54.4676C23.0102 54.4676 22.8219 54.4296 22.6465 54.3558L23.423 52.5126C23.3523 52.4829 23.2765 52.4676 23.1999 52.4676L23.2005 54.4676ZM26.3939 54.4676H23.2002V52.4676H26.3939V54.4676ZM27.7269 52.2377L27.3649 53.7068L25.423 53.2284L25.7849 51.7592L27.7269 52.2377ZM28.0235 51.3092C27.9022 51.6086 27.8036 51.9168 27.7285 52.2309L25.7833 51.766C25.8817 51.3544 26.0108 50.9508 26.1697 50.5585L28.0235 51.3092ZM28.2761 50.6988L28.0206 51.3162L26.1726 50.5515L26.4281 49.9341L28.2761 50.6988ZM27.8273 51.6004L26.965 51.2385L27.7391 49.3943L28.6014 49.7563L27.8273 51.6004ZM27.0349 50.9135L27.2904 50.296L29.1384 51.0607L28.8829 51.6782L27.0349 50.9135ZM26.6944 51.9437C26.7861 51.599 26.8978 51.2599 27.0289 50.9282L28.8889 51.6634C28.7863 51.9229 28.6989 52.1882 28.6272 52.4578L26.6944 51.9437ZM26.3814 53.2057L26.6902 51.9601L28.6314 52.4413L28.3227 53.6869L26.3814 53.2057ZM38.3173 54.4463H27.3521V52.4463H38.3173V54.4463ZM38.871 54.3345C38.6956 54.4083 38.5073 54.4464 38.317 54.4463L38.3176 52.4463C38.241 52.4463 38.1652 52.4616 38.0945 52.4913L38.871 54.3345ZM39.338 54.0162C39.2052 54.1524 39.0464 54.2606 38.871 54.3344L38.0945 52.4913C38.0239 52.5211 37.96 52.5647 37.9065 52.6195L39.338 54.0162ZM39.6447 53.5414C39.5752 53.7185 39.4709 53.88 39.338 54.0161L37.9065 52.6195C37.853 52.6744 37.811 52.7394 37.783 52.8107L39.6447 53.5414ZM39.7428 52.9848C39.7476 53.175 39.7142 53.3643 39.6447 53.5414L37.783 52.8107C37.755 52.882 37.7415 52.9582 37.7435 53.0348L39.7428 52.9848ZM39.2102 48.3089C39.5385 49.8495 39.7169 51.4182 39.743 52.9932L37.7433 53.0264C37.7193 51.5804 37.5555 50.1401 37.2541 48.7257L39.2102 48.3089ZM38.1364 46.3432C38.6651 46.8818 39.0352 47.5557 39.2062 48.2908L37.2581 48.7437C37.1704 48.3665 36.9805 48.0207 36.7091 47.7442L38.1364 46.3432ZM36.2091 45.2375C36.9409 45.422 37.6078 45.8046 38.1364 46.3432L36.7091 47.7442C36.4378 47.4678 36.0956 47.2715 35.72 47.1767L36.2091 45.2375ZM26.4567 44.6499C29.7137 44.2621 33.0138 44.4604 36.2009 45.2354L35.7283 47.1788C32.7731 46.4602 29.7131 46.2763 26.6931 46.6359L26.4567 44.6499ZM24.2862 45.6426C24.8908 45.1149 25.6341 44.7716 26.428 44.6537L26.7218 46.632C26.3066 46.6937 25.9177 46.8732 25.6014 47.1493L24.2862 45.6426Z" fill="white" mask="url(#path-3-inside-1_249_5001)"/>
<mask id="path-5-inside-2_249_5001" fill="white">
<path fill-rule="evenodd" clip-rule="evenodd" d="M46.1334 44.0777C45.3495 42.825 44.9772 41.3583 45.0689 39.8833C45.0549 39.3006 45.1718 38.7222 45.411 38.1907C45.6502 37.6592 46.0056 37.1882 46.451 36.8123C46.8963 36.4363 47.4204 36.1651 47.9845 36.0186C48.5486 35.8721 49.1384 35.8539 49.7105 35.9656C50.5216 36.0503 51.2721 36.4342 51.8154 37.0425C52.3587 37.6507 52.6558 38.4396 52.6487 39.2552C52.6257 40.7026 52.0683 42.0903 51.0838 43.1515C50.4082 43.8803 49.5021 44.354 48.5181 44.4929C47.741 44.5994 46.5593 44.6313 46.1334 44.0777ZM55.44 46.396C55.9004 46.7979 56.2358 47.3235 56.4065 47.9104C57.0013 49.5659 57.4049 51.284 57.6094 53.0311C57.6109 53.0879 57.6009 53.1444 57.5801 53.1973C57.5594 53.2502 57.5282 53.2984 57.4885 53.3391C57.4489 53.3798 57.4014 53.4121 57.3491 53.4342C57.2967 53.4562 57.2404 53.4676 57.1836 53.4676H53.9898L53.6279 51.9985C53.5411 51.6356 53.4273 51.2797 53.2872 50.9339L53.0317 50.3164L52.1694 50.6784L52.4249 51.2958C52.5417 51.5914 52.6413 51.8936 52.723 52.2007L53.0317 53.4463H42.0665C42.0096 53.4463 41.9534 53.435 41.901 53.4129C41.8486 53.3908 41.8012 53.3585 41.7615 53.3178C41.7218 53.2772 41.6907 53.2289 41.6699 53.176C41.6492 53.1231 41.6392 53.0666 41.6406 53.0098C41.6657 51.4993 41.8368 49.9948 42.1516 48.5173C42.281 47.9611 42.561 47.4512 42.961 47.0437C43.361 46.6362 43.8655 46.3468 44.4192 46.2071C47.4904 45.4603 50.6704 45.2692 53.8089 45.6429C54.4134 45.7327 54.9795 45.994 55.44 46.396Z"/>
</mask>
<path d="M45.0689 39.8833L46.0669 39.9453L46.0696 39.9023L46.0686 39.8593L45.0689 39.8833ZM46.1334 44.0777L45.2857 44.6082L45.3114 44.6492L45.3408 44.6874L46.1334 44.0777ZM45.411 38.1907L46.3229 38.6011V38.6011L45.411 38.1907ZM46.451 36.8123L45.806 36.0481V36.0481L46.451 36.8123ZM47.9845 36.0186L48.2359 36.9865L47.9845 36.0186ZM49.7105 35.9656L49.5189 36.9471L49.5625 36.9556L49.6066 36.9602L49.7105 35.9656ZM51.8154 37.0425L51.0696 37.7086L51.8154 37.0425ZM52.6487 39.2552L53.6486 39.271L53.6487 39.2638L52.6487 39.2552ZM51.0838 43.1515L50.3507 42.4714L50.3504 42.4717L51.0838 43.1515ZM48.5181 44.4929L48.6538 45.4837L48.6579 45.4831L48.5181 44.4929ZM56.4065 47.9104L55.4462 48.1896L55.4549 48.2194L55.4654 48.2486L56.4065 47.9104ZM55.44 46.396L54.7823 47.1493L55.44 46.396ZM57.6094 53.0311L58.6091 53.0061L58.608 52.9603L58.6027 52.9148L57.6094 53.0311ZM57.4885 53.3391L58.2043 54.0375L58.2043 54.0374L57.4885 53.3391ZM57.3491 53.4342L57.7373 54.3558L57.7373 54.3557L57.3491 53.4342ZM57.1836 53.4676L57.1839 52.4676H57.1836V53.4676ZM53.9898 53.4676L53.0189 53.7068L53.2063 54.4676H53.9898V53.4676ZM53.6279 51.9985L52.6553 52.231L52.6569 52.2377L53.6279 51.9985ZM53.2872 50.9339L54.2141 50.5585L54.2112 50.5515L53.2872 50.9339ZM53.0317 50.3164L53.9557 49.9341L53.5714 49.0053L52.6447 49.3943L53.0317 50.3164ZM52.1694 50.6784L51.7824 49.7563L50.865 50.1414L51.2454 51.0607L52.1694 50.6784ZM52.4249 51.2958L53.3549 50.9282L53.352 50.9208L53.3489 50.9135L52.4249 51.2958ZM52.723 52.2007L53.6936 51.9601L53.6916 51.9519L53.6894 51.9436L52.723 52.2007ZM53.0317 53.4463V54.4463H54.3098L54.0023 53.2057L53.0317 53.4463ZM42.0665 53.4463V52.4463H42.0662L42.0665 53.4463ZM41.901 53.4129L41.5128 54.3344L41.5128 54.3345L41.901 53.4129ZM41.7615 53.3178L41.0457 54.0161L41.0458 54.0162L41.7615 53.3178ZM41.6699 53.176L42.6008 52.8107L41.6699 53.176ZM41.6406 53.0098L42.6404 53.0348L42.6405 53.0264L41.6406 53.0098ZM42.1516 48.5173L41.1776 48.2908L41.1755 48.2998L41.1736 48.3089L42.1516 48.5173ZM42.961 47.0437L43.6746 47.7442L43.6747 47.7442L42.961 47.0437ZM44.4192 46.2071L44.1829 45.2354L44.1746 45.2375L44.4192 46.2071ZM53.8089 45.6429L53.9558 44.6537L53.9415 44.6516L53.9271 44.6499L53.8089 45.6429ZM44.0708 39.8213C43.9662 41.5046 44.391 43.1785 45.2857 44.6082L46.9811 43.5473C46.3079 42.4714 45.9882 41.2119 46.0669 39.9453L44.0708 39.8213ZM44.4991 37.7803C44.1985 38.4482 44.0516 39.175 44.0691 39.9072L46.0686 39.8593C46.0582 39.4262 46.1451 38.9962 46.3229 38.6011L44.4991 37.7803ZM45.806 36.0481C45.2463 36.5205 44.7997 37.1124 44.4991 37.7803L46.3229 38.6011C46.5007 38.2061 46.7649 37.8559 47.096 37.5764L45.806 36.0481ZM47.7331 35.0507C47.0242 35.2348 46.3657 35.5757 45.806 36.0481L47.096 37.5764C47.427 37.297 47.8166 37.0954 48.2359 36.9865L47.7331 35.0507ZM49.902 34.9841C49.1831 34.8438 48.442 34.8666 47.7331 35.0507L48.2359 36.9865C48.6553 36.8775 49.0937 36.8641 49.5189 36.9471L49.902 34.9841ZM52.5612 36.3763C51.8522 35.5826 50.8728 35.0815 49.8143 34.971L49.6066 36.9602C50.1704 37.019 50.692 37.2859 51.0696 37.7086L52.5612 36.3763ZM53.6487 39.2638C53.6579 38.1996 53.2702 37.1701 52.5612 36.3763L51.0696 37.7086C51.4472 38.1314 51.6537 38.6797 51.6488 39.2465L53.6487 39.2638ZM51.8169 43.8317C52.9693 42.5896 53.6217 40.9652 53.6486 39.271L51.6488 39.2393C51.6298 40.4399 51.1674 41.5911 50.3507 42.4714L51.8169 43.8317ZM48.6579 45.4831C49.8695 45.3121 50.9852 44.7288 51.8171 43.8314L50.3504 42.4717C49.8311 43.0319 49.1347 43.396 48.3784 43.5027L48.6579 45.4831ZM45.3408 44.6874C45.8176 45.3072 46.5857 45.4732 47.0872 45.5271C47.6453 45.5871 48.224 45.5426 48.6538 45.4837L48.3824 43.5022C48.0351 43.5497 47.6344 43.5744 47.3009 43.5386C47.1355 43.5208 47.0197 43.4914 46.9481 43.4628C46.8765 43.4341 46.892 43.4238 46.9261 43.468L45.3408 44.6874ZM57.3667 47.6313C57.1427 46.8606 56.7022 46.1704 56.0976 45.6426L54.7823 47.1493C55.0986 47.4254 55.329 47.7865 55.4462 48.1896L57.3667 47.6313ZM58.6027 52.9148C58.3893 51.092 57.9682 49.2995 57.3476 47.5723L55.4654 48.2486C56.0344 49.8323 56.4205 51.4759 56.6162 53.1474L58.6027 52.9148ZM58.511 53.5627C58.5805 53.3856 58.6139 53.1963 58.6091 53.0061L56.6098 53.0561C56.6078 52.9795 56.6213 52.9033 56.6493 52.832L58.511 53.5627ZM58.2043 54.0374C58.3372 53.9012 58.4415 53.7398 58.511 53.5627L56.6493 52.832C56.6773 52.7606 56.7193 52.6956 56.7728 52.6408L58.2043 54.0374ZM57.7373 54.3557C57.9127 54.2819 58.0715 54.1736 58.2043 54.0375L56.7728 52.6408C56.8263 52.586 56.8902 52.5424 56.9608 52.5126L57.7373 54.3557ZM57.1833 54.4676C57.3736 54.4676 57.5619 54.4296 57.7373 54.3558L56.9608 52.5126C57.0315 52.4829 57.1073 52.4676 57.1839 52.4676L57.1833 54.4676ZM53.9898 54.4676H57.1836V52.4676H53.9898V54.4676ZM52.6569 52.2377L53.0189 53.7068L54.9608 53.2284L54.5989 51.7592L52.6569 52.2377ZM52.3603 51.3092C52.4816 51.6086 52.5802 51.9168 52.6553 52.2309L54.6005 51.766C54.5021 51.3544 54.3729 50.9508 54.2141 50.5585L52.3603 51.3092ZM52.1077 50.6988L52.3632 51.3162L54.2112 50.5515L53.9557 49.9341L52.1077 50.6988ZM52.5564 51.6004L53.4188 51.2385L52.6447 49.3943L51.7824 49.7563L52.5564 51.6004ZM53.3489 50.9135L53.0934 50.296L51.2454 51.0607L51.5009 51.6782L53.3489 50.9135ZM53.6894 51.9436C53.5977 51.599 53.486 51.2599 53.3549 50.9282L51.4949 51.6634C51.5975 51.9229 51.6849 52.1882 51.7566 52.4578L53.6894 51.9436ZM54.0023 53.2057L53.6936 51.9601L51.7524 52.4413L52.0611 53.6869L54.0023 53.2057ZM42.0665 54.4463H53.0317V52.4463H42.0665V54.4463ZM41.5128 54.3345C41.6881 54.4083 41.8765 54.4464 42.0668 54.4463L42.0662 52.4463C42.1428 52.4463 42.2186 52.4616 42.2892 52.4913L41.5128 54.3345ZM41.0458 54.0162C41.1786 54.1524 41.3374 54.2606 41.5128 54.3344L42.2893 52.4913C42.3599 52.5211 42.4238 52.5647 42.4773 52.6195L41.0458 54.0162ZM40.7391 53.5414C40.8086 53.7185 40.9129 53.88 41.0457 54.0161L42.4773 52.6195C42.5308 52.6744 42.5728 52.7394 42.6008 52.8107L40.7391 53.5414ZM40.6409 52.9848C40.6362 53.175 40.6696 53.3643 40.7391 53.5414L42.6008 52.8107C42.6288 52.882 42.6422 52.9582 42.6403 53.0348L40.6409 52.9848ZM41.1736 48.3089C40.8453 49.8495 40.6669 51.4182 40.6408 52.9932L42.6405 53.0264C42.6645 51.5804 42.8283 50.1401 43.1297 48.7257L41.1736 48.3089ZM42.2473 46.3432C41.7187 46.8818 41.3486 47.5557 41.1776 48.2908L43.1257 48.7437C43.2134 48.3665 43.4033 48.0207 43.6746 47.7442L42.2473 46.3432ZM44.1746 45.2375C43.4428 45.422 42.776 45.8046 42.2473 46.3432L43.6747 47.7442C43.946 47.4678 44.2882 47.2715 44.6638 47.1767L44.1746 45.2375ZM53.9271 44.6499C50.6701 44.2621 47.37 44.4604 44.1829 45.2354L44.6555 47.1788C47.6107 46.4602 50.6707 46.2763 53.6906 46.6359L53.9271 44.6499ZM56.0976 45.6426C55.493 45.1149 54.7496 44.7716 53.9558 44.6537L53.662 46.632C54.0772 46.6937 54.4661 46.8732 54.7823 47.1493L56.0976 45.6426Z" fill="white" mask="url(#path-5-inside-2_249_5001)"/>
<path fill-rule="evenodd" clip-rule="evenodd" d="M36.1273 34.4466C35.4976 34.4466 35.1314 33.7349 35.4974 33.2225L43.2387 22.3846C43.7065 21.7297 44.739 22.1349 44.6365 22.9332L43.7538 29.8018H46.9652C47.5948 29.8018 47.9611 30.5135 47.5951 31.0259L39.8538 41.8637C39.386 42.5186 38.3535 42.1135 38.456 41.3152L39.3379 34.4466H36.1273ZM37.6313 32.8983H40.2175C40.6842 32.8983 41.0448 33.3082 40.9853 33.7711L40.3835 38.4579L45.4606 31.3501H42.8735C42.4068 31.3501 42.0462 30.9402 42.1057 30.4773L42.7079 25.791L37.6313 32.8983Z" fill="white"/>
</svg>
