<svg width="81" height="81" viewBox="0 0 81 81" fill="none" xmlns="http://www.w3.org/2000/svg">
<rect x="0.970581" y="1.29895" width="79" height="79" rx="11.5" fill="#82B378" stroke="#82B378"/>
<path d="M62.3492 39.6511V18.9917C62.3492 15.1881 59.4102 12.1048 55.7983 12.1048H25.1429C21.5249 12.1048 18.592 15.1902 18.592 18.9701V62.6276C18.592 66.4192 21.5235 69.4929 25.1449 69.4929H36.0949" stroke="white" stroke-width="2"/>
<path fill-rule="evenodd" clip-rule="evenodd" d="M26.3349 26.9539C26.3349 26.2028 26.9438 25.5939 27.6949 25.5939H48.2912C49.0423 25.5939 49.6512 26.2028 49.6512 26.9539C49.6512 27.705 49.0423 28.3139 48.2912 28.3139H27.6949C26.9438 28.3139 26.3349 27.705 26.3349 26.9539Z" fill="white"/>
<path fill-rule="evenodd" clip-rule="evenodd" d="M26.3349 21.9717C26.3349 21.2206 26.9438 20.6117 27.6949 20.6117H48.2912C49.0423 20.6117 49.6512 21.2206 49.6512 21.9717C49.6512 22.7228 49.0423 23.3317 48.2912 23.3317H27.6949C26.9438 23.3317 26.3349 22.7228 26.3349 21.9717Z" fill="white"/>
<path fill-rule="evenodd" clip-rule="evenodd" d="M26.3349 31.9359C26.3349 31.1848 26.9438 30.5759 27.6949 30.5759H48.2912C49.0423 30.5759 49.6512 31.1848 49.6512 31.9359C49.6512 32.687 49.0423 33.2959 48.2912 33.2959H27.6949C26.9438 33.2959 26.3349 32.687 26.3349 31.9359Z" fill="white"/>
<path fill-rule="evenodd" clip-rule="evenodd" d="M26.3349 36.7541C26.3349 36.0934 26.8704 35.5579 27.5311 35.5579H41.9957C42.6563 35.5579 43.1919 36.0934 43.1919 36.7541C43.1919 37.4147 42.6563 37.9502 41.9957 37.9502H27.5311C26.8704 37.9502 26.3349 37.4147 26.3349 36.7541Z" fill="white"/>
<path fill-rule="evenodd" clip-rule="evenodd" d="M26.3349 41.2168C26.3349 40.662 26.7846 40.2123 27.3393 40.2123H33.59C34.1448 40.2123 34.5945 40.662 34.5945 41.2168C34.5945 41.7715 34.1448 42.2212 33.59 42.2212H27.3393C26.7846 42.2212 26.3349 41.7715 26.3349 41.2168Z" fill="white"/>
<path fill-rule="evenodd" clip-rule="evenodd" d="M57.8249 43.2738C58.2099 43.2738 58.5221 43.5859 58.5221 43.971V44.7441C58.5221 45.0573 58.6886 45.3531 58.9939 45.5614L59.0896 45.6212L59.2076 45.6831C59.5183 45.8267 59.8528 45.8215 60.1198 45.6683L60.7975 45.2778C61.1305 45.086 61.556 45.1998 61.7487 45.5324L63.5739 48.6822C63.7673 49.016 63.653 49.4433 63.3187 49.6359L62.6487 50.0218C62.3508 50.1929 62.1709 50.5315 62.1718 50.9323L62.176 51.062C62.2046 51.4141 62.378 51.7081 62.6494 51.864L63.3187 52.2496C63.653 52.4421 63.7673 52.8695 63.5739 53.2032L61.7487 56.353C61.556 56.6856 61.1305 56.7995 60.7975 56.6076L60.121 56.2178C59.8231 56.0469 59.4431 56.0594 59.1084 56.2537L58.9754 56.335C58.6886 56.5323 58.5221 56.8282 58.5221 57.1413V57.9145C58.5221 58.2995 58.2099 58.6116 57.8249 58.6116H54.1738C53.7887 58.6116 53.4766 58.2995 53.4766 57.9145V57.1413C53.4766 56.8282 53.3101 56.5323 53.0048 56.324L52.9091 56.2642L52.7911 56.2024C52.4804 56.0587 52.1459 56.064 51.8788 56.2172L51.2012 56.6076C50.8682 56.7994 50.4427 56.6856 50.25 56.3531L48.4241 53.2033C48.2306 52.8694 48.345 52.4419 48.6795 52.2494L49.35 51.8636C49.6479 51.6925 49.8278 51.354 49.8269 50.9532L49.8227 50.8234C49.7941 50.4713 49.6207 50.1774 49.3495 50.0216L48.6795 49.636C48.345 49.4436 48.2306 49.016 48.4241 48.6821L50.25 45.5323C50.4427 45.1998 50.8682 45.086 51.2012 45.2778L51.8777 45.6676C52.1756 45.8385 52.5555 45.826 52.8903 45.6317L53.0233 45.5504C53.3101 45.3531 53.4766 45.0573 53.4766 44.7441V43.971C53.4766 43.5859 53.7887 43.2738 54.1738 43.2738H57.8249ZM54.8712 44.6681V44.7441C54.8712 45.556 54.4426 46.2917 53.7761 46.7257L53.6286 46.8155L53.4591 46.9086C52.7318 47.2762 51.8847 47.2789 51.183 46.8764L51.1078 46.8331L49.9814 48.7763L50.0447 48.8127C50.7936 49.2428 51.2234 50.0516 51.2215 50.9322L51.2173 51.1064C51.1718 51.9276 50.7495 52.6678 50.0452 53.0723L49.9814 53.109L51.1078 55.0522L51.1841 55.0083C51.9284 54.5813 52.838 54.611 53.5971 55.0516L53.7556 55.1474C54.4426 55.5936 54.8712 56.3293 54.8712 57.1412V57.2172H57.1279V57.1412C57.1279 56.3293 57.5564 55.5936 58.223 55.1596L58.3704 55.0698L58.54 54.9767C59.2673 54.6091 60.1144 54.6064 60.8161 55.0089L60.8912 55.0522L62.0173 53.1088L61.9544 53.0726C61.2055 52.6425 60.7756 51.8337 60.7776 50.9531L60.7817 50.7789C60.8273 49.9577 61.2495 49.2176 61.9537 48.8131L62.0173 48.7765L60.8912 46.8331L60.815 46.877C60.0707 47.304 59.1611 47.2743 58.402 46.8337L58.2435 46.7379C57.5564 46.2917 57.1279 45.556 57.1279 44.7441V44.6681H54.8712ZM55.9994 48.1539C57.5397 48.1539 58.7881 49.4024 58.7881 50.9426C58.7881 52.4829 57.5397 53.7313 55.9994 53.7313C54.4591 53.7313 53.2107 52.4829 53.2107 50.9426C53.2107 49.4024 54.4591 48.1539 55.9994 48.1539ZM55.9994 49.5482C55.2292 49.5482 54.6051 50.1724 54.6051 50.9426C54.6051 51.7128 55.2292 52.3369 55.9994 52.3369C56.7696 52.3369 57.3938 51.7128 57.3938 50.9426C57.3938 50.1724 56.7696 49.5482 55.9994 49.5482Z" fill="white"/>
<path fill-rule="evenodd" clip-rule="evenodd" d="M48.2443 59.9717C48.5138 59.9717 48.7323 60.1902 48.7323 60.4597V61.0009C48.7323 61.2201 48.8489 61.4272 49.0625 61.573L49.1295 61.6148L49.2121 61.6582C49.4297 61.7587 49.6638 61.755 49.8507 61.6478L50.3251 61.3745C50.5582 61.2402 50.8561 61.3199 50.991 61.5527L52.2686 63.7576C52.404 63.9912 52.3239 64.2904 52.0899 64.4251L51.6209 64.6953C51.4124 64.8151 51.2864 65.052 51.2871 65.3326L51.29 65.4234C51.31 65.6699 51.4314 65.8757 51.6214 65.9848L52.0899 66.2547C52.3239 66.3895 52.404 66.6886 52.2686 66.9223L50.991 69.1271C50.8561 69.3599 50.5582 69.4396 50.3251 69.3053L49.8515 69.0325C49.643 68.9129 49.377 68.9216 49.1427 69.0576L49.0496 69.1145C48.8489 69.2526 48.7323 69.4597 48.7323 69.6789V70.2201C48.7323 70.4897 48.5138 70.7082 48.2443 70.7082H45.6885C45.419 70.7082 45.2005 70.4897 45.2005 70.2201V69.6789C45.2005 69.4597 45.0839 69.2526 44.8702 69.1068L44.8032 69.065L44.7206 69.0217C44.5031 68.9211 44.269 68.9248 44.082 69.032L43.6077 69.3053C43.3746 69.4396 43.0767 69.36 42.9418 69.1272L41.6637 66.9223C41.5282 66.6886 41.6084 66.3893 41.8425 66.2546L42.3118 65.9845C42.5203 65.8648 42.6463 65.6278 42.6457 65.3472L42.6427 65.2564C42.6227 65.0099 42.5014 64.8042 42.3115 64.6951L41.8425 64.4252C41.6084 64.2905 41.5282 63.9912 41.6637 63.7575L42.9418 61.5526C43.0767 61.3199 43.3746 61.2402 43.6077 61.3745L44.0812 61.6473C44.2898 61.767 44.5557 61.7582 44.79 61.6222L44.8831 61.5653C45.0839 61.4272 45.2005 61.2201 45.2005 61.0009V60.4597C45.2005 60.1902 45.419 59.9717 45.6885 59.9717H48.2443ZM46.1765 60.9477V61.0009C46.1765 61.5692 45.8765 62.0842 45.4099 62.388L45.3067 62.4509L45.188 62.5161C44.6789 62.7733 44.086 62.7753 43.5947 62.4935L43.5421 62.4632L42.7536 63.8234L42.7979 63.8489C43.3222 64.15 43.6231 64.7161 43.6217 65.3326L43.6188 65.4545C43.5869 66.0293 43.2913 66.5475 42.7983 66.8307L42.7536 66.8564L43.5421 68.2166L43.5955 68.1858C44.1166 67.8869 44.7532 67.9078 45.2846 68.2162L45.3956 68.2832C45.8765 68.5955 46.1765 69.1106 46.1765 69.6789V69.7321H47.7562V69.6789C47.7562 69.1106 48.0562 68.5955 48.5228 68.2917L48.626 68.2289L48.7446 68.1637C49.2537 67.9064 49.8467 67.9045 50.3379 68.1863L50.3905 68.2166L51.1788 66.8562L51.1347 66.8309C50.6105 66.5298 50.3096 65.9636 50.311 65.3472L50.3139 65.2253C50.3458 64.6504 50.6413 64.1323 51.1342 63.8492L51.1788 63.8236L50.3905 62.4632L50.3372 62.4939C49.8161 62.7928 49.1794 62.772 48.6481 62.4636L48.5371 62.3966C48.0562 62.0842 47.7562 61.5692 47.7562 61.0009V60.9477H46.1765ZM46.9663 63.3878C48.0445 63.3878 48.9184 64.2617 48.9184 65.3399C48.9184 66.4181 48.0445 67.292 46.9663 67.292C45.8881 67.292 45.0142 66.4181 45.0142 65.3399C45.0142 64.2617 45.8881 63.3878 46.9663 63.3878ZM46.9662 64.3637C46.4271 64.3637 45.9901 64.8007 45.9901 65.3398C45.9901 65.8789 46.4271 66.3158 46.9662 66.3158C47.5053 66.3158 47.9422 65.8789 47.9422 65.3398C47.9422 64.8007 47.5053 64.3637 46.9662 64.3637Z" fill="white"/>
</svg>
