<svg width="81" height="81" viewBox="0 0 81 81" fill="none" xmlns="http://www.w3.org/2000/svg">
<rect x="1.16476" y="0.809082" width="79" height="79" rx="11.5" fill="#621010" stroke="#621010"/>
<g filter="url(#filter0_d_249_5005)">
<mask id="path-2-inside-1_249_5005" fill="white">
<path d="M41.3953 67.725H22.9942C20.4525 67.725 18.3939 65.5049 18.3939 62.7639V15.6336C18.3939 12.8926 20.4525 10.6725 22.9942 10.6725H58.6464C61.188 10.6725 63.2467 12.8926 63.2467 15.6336V42.9196"/>
</mask>
<path d="M41.3953 66.225H22.9942V69.225H41.3953V66.225ZM22.9942 66.225C21.3856 66.225 19.8939 64.7851 19.8939 62.7639H16.8939C16.8939 66.2247 19.5195 69.225 22.9942 69.225V66.225ZM19.8939 62.7639V15.6336H16.8939V62.7639H19.8939ZM19.8939 15.6336C19.8939 13.6123 21.3856 12.1725 22.9942 12.1725V9.17249C19.5195 9.17249 16.8939 12.1728 16.8939 15.6336H19.8939ZM22.9942 12.1725H58.6464V9.17249H22.9942V12.1725ZM58.6464 12.1725C60.255 12.1725 61.7467 13.6123 61.7467 15.6336H64.7467C64.7467 12.1728 62.1211 9.17249 58.6464 9.17249V12.1725ZM61.7467 15.6336V42.9196H64.7467V15.6336H61.7467Z" fill="white" mask="url(#path-2-inside-1_249_5005)"/>
<mask id="path-4-inside-2_249_5005" fill="white">
<path d="M36.7947 60.2833H22.9938V18.1141H58.646V40.439"/>
</mask>
<path d="M22.9938 60.2833H21.4938V61.7833H22.9938V60.2833ZM22.9938 18.1141V16.6141H21.4938V18.1141H22.9938ZM58.646 18.1141H60.146V16.6141H58.646V18.1141ZM36.7947 58.7833H22.9938V61.7833H36.7947V58.7833ZM24.4938 60.2833V18.1141H21.4938V60.2833H24.4938ZM22.9938 19.6141H58.646V16.6141H22.9938V19.6141ZM57.146 18.1141V40.439H60.146V18.1141H57.146Z" fill="white" mask="url(#path-4-inside-2_249_5005)"/>
<path d="M37.9455 14.3933H44.8459" stroke="white" stroke-width="1.5" stroke-miterlimit="10"/>
<mask id="path-7-inside-3_249_5005" fill="white">
<path d="M43.6955 68.9653C43.6955 68.9653 43.6955 67.5017 43.6955 66.4351C43.6955 65.3685 40.4408 62.3298 39.6358 60.9655C39.1298 60.1221 35.6451 48.1163 35.6451 48.1163C35.6451 46.9132 38.4627 45.3877 40.3028 48.1163L43.3045 53.1394L44.8456 51.5518V32.9478C44.8456 31.5835 45.8807 30.4672 47.1458 30.4672C48.4108 30.4672 49.4459 31.5835 49.4459 32.9478V49.0713V47.831V41.6793H51.746C52.4706 41.6793 53.6091 41.6793 54.0462 42.9196H56.3463C57.4274 42.9196 58.6465 44.1598 58.6465 45.4001H60.9466C62.0277 45.4001 63.2467 46.4295 63.2467 47.831V61.474C63.2467 63.9794 60.9466 66.0506 60.9466 67.725V68.9653"/>
</mask>
<path d="M39.6358 60.9655L40.9277 60.2032L40.922 60.1938L39.6358 60.9655ZM35.6451 48.1163H34.1451V48.3296L34.2045 48.5344L35.6451 48.1163ZM40.3028 48.1163L41.5904 47.3468L41.5694 47.3116L41.5465 47.2776L40.3028 48.1163ZM43.3045 53.1394L42.0169 53.9088L43.0195 55.5866L44.3808 54.1842L43.3045 53.1394ZM44.8456 51.5518L45.9219 52.5966L46.3456 52.1602V51.5518H44.8456ZM49.4459 41.6793V40.1793H47.9459V41.6793H49.4459ZM54.0462 42.9196L52.6314 43.4181L52.9843 44.4196H54.0462V42.9196ZM58.6465 45.4001H57.1465V46.9001H58.6465V45.4001ZM43.6955 68.9653C45.1955 68.9653 45.1955 68.9652 45.1955 68.9652C45.1955 68.9652 45.1955 68.9652 45.1955 68.9652C45.1955 68.9652 45.1955 68.9651 45.1955 68.9651C45.1955 68.9651 45.1955 68.965 45.1955 68.965C45.1955 68.9649 45.1955 68.9649 45.1955 68.9648C45.1955 68.9648 45.1955 68.9647 45.1955 68.9646C45.1955 68.9646 45.1955 68.9645 45.1955 68.9644C45.1955 68.9644 45.1955 68.9643 45.1955 68.9642C45.1955 68.9641 45.1955 68.964 45.1955 68.9639C45.1955 68.9638 45.1955 68.9637 45.1955 68.9636C45.1955 68.9635 45.1955 68.9634 45.1955 68.9632C45.1955 68.9631 45.1955 68.963 45.1955 68.9629C45.1955 68.9627 45.1955 68.9626 45.1955 68.9625C45.1955 68.9623 45.1955 68.9622 45.1955 68.962C45.1955 68.9619 45.1955 68.9617 45.1955 68.9615C45.1955 68.9614 45.1955 68.9612 45.1955 68.961C45.1955 68.9608 45.1955 68.9607 45.1955 68.9605C45.1955 68.9603 45.1955 68.9601 45.1955 68.9599C45.1955 68.9597 45.1955 68.9595 45.1955 68.9593C45.1955 68.9591 45.1955 68.9589 45.1955 68.9587C45.1955 68.9584 45.1955 68.9582 45.1955 68.958C45.1955 68.9578 45.1955 68.9575 45.1955 68.9573C45.1955 68.9571 45.1955 68.9568 45.1955 68.9566C45.1955 68.9563 45.1955 68.9561 45.1955 68.9558C45.1955 68.9555 45.1955 68.9553 45.1955 68.955C45.1955 68.9547 45.1955 68.9545 45.1955 68.9542C45.1955 68.9539 45.1955 68.9536 45.1955 68.9533C45.1955 68.953 45.1955 68.9527 45.1955 68.9524C45.1955 68.9521 45.1955 68.9518 45.1955 68.9515C45.1955 68.9512 45.1955 68.9509 45.1955 68.9506C45.1955 68.9502 45.1955 68.9499 45.1955 68.9496C45.1955 68.9492 45.1955 68.9489 45.1955 68.9486C45.1955 68.9482 45.1955 68.9479 45.1955 68.9475C45.1955 68.9472 45.1955 68.9468 45.1955 68.9464C45.1955 68.9461 45.1955 68.9457 45.1955 68.9453C45.1955 68.945 45.1955 68.9446 45.1955 68.9442C45.1955 68.9438 45.1955 68.9434 45.1955 68.943C45.1955 68.9426 45.1955 68.9422 45.1955 68.9418C45.1955 68.9414 45.1955 68.941 45.1955 68.9406C45.1955 68.9402 45.1955 68.9398 45.1955 68.9393C45.1955 68.9389 45.1955 68.9385 45.1955 68.9381C45.1955 68.9376 45.1955 68.9372 45.1955 68.9367C45.1955 68.9363 45.1955 68.9358 45.1955 68.9354C45.1955 68.9349 45.1955 68.9345 45.1955 68.934C45.1955 68.9335 45.1955 68.9331 45.1955 68.9326C45.1955 68.9321 45.1955 68.9316 45.1955 68.9312C45.1955 68.9307 45.1955 68.9302 45.1955 68.9297C45.1955 68.9292 45.1955 68.9287 45.1955 68.9282C45.1955 68.9277 45.1955 68.9272 45.1955 68.9267C45.1955 68.9262 45.1955 68.9256 45.1955 68.9251C45.1955 68.9246 45.1955 68.9241 45.1955 68.9235C45.1955 68.923 45.1955 68.9225 45.1955 68.9219C45.1955 68.9214 45.1955 68.9208 45.1955 68.9203C45.1955 68.9197 45.1955 68.9192 45.1955 68.9186C45.1955 68.918 45.1955 68.9175 45.1955 68.9169C45.1955 68.9163 45.1955 68.9157 45.1955 68.9152C45.1955 68.9146 45.1955 68.914 45.1955 68.9134C45.1955 68.9128 45.1955 68.9122 45.1955 68.9116C45.1955 68.911 45.1955 68.9104 45.1955 68.9098C45.1955 68.9092 45.1955 68.9086 45.1955 68.908C45.1955 68.9073 45.1955 68.9067 45.1955 68.9061C45.1955 68.9054 45.1955 68.9048 45.1955 68.9042C45.1955 68.9035 45.1955 68.9029 45.1955 68.9022C45.1955 68.9016 45.1955 68.9009 45.1955 68.9003C45.1955 68.8996 45.1955 68.899 45.1955 68.8983C45.1955 68.8976 45.1955 68.897 45.1955 68.8963C45.1955 68.8956 45.1955 68.8949 45.1955 68.8942C45.1955 68.8936 45.1955 68.8929 45.1955 68.8922C45.1955 68.8915 45.1955 68.8908 45.1955 68.8901C45.1955 68.8894 45.1955 68.8886 45.1955 68.8879C45.1955 68.8872 45.1955 68.8865 45.1955 68.8858C45.1955 68.8851 45.1955 68.8843 45.1955 68.8836C45.1955 68.8829 45.1955 68.8821 45.1955 68.8814C45.1955 68.8806 45.1955 68.8799 45.1955 68.8792C45.1955 68.8784 45.1955 68.8776 45.1955 68.8769C45.1955 68.8761 45.1955 68.8754 45.1955 68.8746C45.1955 68.8738 45.1955 68.8731 45.1955 68.8723C45.1955 68.8715 45.1955 68.8707 45.1955 68.8699C45.1955 68.8691 45.1955 68.8684 45.1955 68.8676C45.1955 68.8668 45.1955 68.866 45.1955 68.8652C45.1955 68.8644 45.1955 68.8635 45.1955 68.8627C45.1955 68.8619 45.1955 68.8611 45.1955 68.8603C45.1955 68.8595 45.1955 68.8586 45.1955 68.8578C45.1955 68.857 45.1955 68.8561 45.1955 68.8553C45.1955 68.8544 45.1955 68.8536 45.1955 68.8528C45.1955 68.8519 45.1955 68.8511 45.1955 68.8502C45.1955 68.8493 45.1955 68.8485 45.1955 68.8476C45.1955 68.8467 45.1955 68.8459 45.1955 68.845C45.1955 68.8441 45.1955 68.8432 45.1955 68.8424C45.1955 68.8415 45.1955 68.8406 45.1955 68.8397C45.1955 68.8388 45.1955 68.8379 45.1955 68.837C45.1955 68.8361 45.1955 68.8352 45.1955 68.8343C45.1955 68.8334 45.1955 68.8325 45.1955 68.8315C45.1955 68.8306 45.1955 68.8297 45.1955 68.8288C45.1955 68.8278 45.1955 68.8269 45.1955 68.826C45.1955 68.825 45.1955 68.8241 45.1955 68.8232C45.1955 68.8222 45.1955 68.8213 45.1955 68.8203C45.1955 68.8194 45.1955 68.8184 45.1955 68.8174C45.1955 68.8165 45.1955 68.8155 45.1955 68.8145C45.1955 68.8136 45.1955 68.8126 45.1955 68.8116C45.1955 68.8106 45.1955 68.8097 45.1955 68.8087C45.1955 68.8077 45.1955 68.8067 45.1955 68.8057C45.1955 68.8047 45.1955 68.8037 45.1955 68.8027C45.1955 68.8017 45.1955 68.8007 45.1955 68.7997C45.1955 68.7987 45.1955 68.7977 45.1955 68.7966C45.1955 68.7956 45.1955 68.7946 45.1955 68.7936C45.1955 68.7925 45.1955 68.7915 45.1955 68.7905C45.1955 68.7894 45.1955 68.7884 45.1955 68.7874C45.1955 68.7863 45.1955 68.7853 45.1955 68.7842C45.1955 68.7832 45.1955 68.7821 45.1955 68.781C45.1955 68.78 45.1955 68.7789 45.1955 68.7778C45.1955 68.7768 45.1955 68.7757 45.1955 68.7746C45.1955 68.7736 45.1955 68.7725 45.1955 68.7714C45.1955 68.7703 45.1955 68.7692 45.1955 68.7681C45.1955 68.767 45.1955 68.7659 45.1955 68.7648C45.1955 68.7637 45.1955 68.7626 45.1955 68.7615C45.1955 68.7604 45.1955 68.7593 45.1955 68.7582C45.1955 68.7571 45.1955 68.7559 45.1955 68.7548C45.1955 68.7537 45.1955 68.7526 45.1955 68.7514C45.1955 68.7503 45.1955 68.7492 45.1955 68.748C45.1955 68.7469 45.1955 68.7457 45.1955 68.7446C45.1955 68.7434 45.1955 68.7423 45.1955 68.7411C45.1955 68.74 45.1955 68.7388 45.1955 68.7377C45.1955 68.7365 45.1955 68.7353 45.1955 68.7341C45.1955 68.733 45.1955 68.7318 45.1955 68.7306C45.1955 68.7294 45.1955 68.7283 45.1955 68.7271C45.1955 68.7259 45.1955 68.7247 45.1955 68.7235C45.1955 68.7223 45.1955 68.7211 45.1955 68.7199C45.1955 68.7187 45.1955 68.7175 45.1955 68.7163C45.1955 68.7151 45.1955 68.7139 45.1955 68.7127C45.1955 68.7114 45.1955 68.7102 45.1955 68.709C45.1955 68.7078 45.1955 68.7065 45.1955 68.7053C45.1955 68.7041 45.1955 68.7028 45.1955 68.7016C45.1955 68.7004 45.1955 68.6991 45.1955 68.6979C45.1955 68.6966 45.1955 68.6954 45.1955 68.6941C45.1955 68.6929 45.1955 68.6916 45.1955 68.6903C45.1955 68.6891 45.1955 68.6878 45.1955 68.6865C45.1955 68.6853 45.1955 68.684 45.1955 68.6827C45.1955 68.6814 45.1955 68.6802 45.1955 68.6789C45.1955 68.6776 45.1955 68.6763 45.1955 68.675C45.1955 68.6737 45.1955 68.6724 45.1955 68.6711C45.1955 68.6698 45.1955 68.6685 45.1955 68.6672C45.1955 68.6659 45.1955 68.6646 45.1955 68.6633C45.1955 68.662 45.1955 68.6607 45.1955 68.6593C45.1955 68.658 45.1955 68.6567 45.1955 68.6554C45.1955 68.654 45.1955 68.6527 45.1955 68.6514C45.1955 68.65 45.1955 68.6487 45.1955 68.6474C45.1955 68.646 45.1955 68.6447 45.1955 68.6433C45.1955 68.642 45.1955 68.6406 45.1955 68.6393C45.1955 68.6379 45.1955 68.6366 45.1955 68.6352C45.1955 68.6338 45.1955 68.6325 45.1955 68.6311C45.1955 68.6297 45.1955 68.6283 45.1955 68.627C45.1955 68.6256 45.1955 68.6242 45.1955 68.6228C45.1955 68.6214 45.1955 68.6201 45.1955 68.6187C45.1955 68.6173 45.1955 68.6159 45.1955 68.6145C45.1955 68.6131 45.1955 68.6117 45.1955 68.6103C45.1955 68.6089 45.1955 68.6075 45.1955 68.6061C45.1955 68.6046 45.1955 68.6032 45.1955 68.6018C45.1955 68.6004 45.1955 68.599 45.1955 68.5975C45.1955 68.5961 45.1955 68.5947 45.1955 68.5933C45.1955 68.5918 45.1955 68.5904 45.1955 68.589C45.1955 68.5875 45.1955 68.5861 45.1955 68.5846C45.1955 68.5832 45.1955 68.5817 45.1955 68.5803C45.1955 68.5788 45.1955 68.5774 45.1955 68.5759C45.1955 68.5745 45.1955 68.573 45.1955 68.5715C45.1955 68.5701 45.1955 68.5686 45.1955 68.5671C45.1955 68.5657 45.1955 68.5642 45.1955 68.5627C45.1955 68.5612 45.1955 68.5597 45.1955 68.5583C45.1955 68.5568 45.1955 68.5553 45.1955 68.5538C45.1955 68.5523 45.1955 68.5508 45.1955 68.5493C45.1955 68.5478 45.1955 68.5463 45.1955 68.5448C45.1955 68.5433 45.1955 68.5418 45.1955 68.5403C45.1955 68.5388 45.1955 68.5373 45.1955 68.5357C45.1955 68.5342 45.1955 68.5327 45.1955 68.5312C45.1955 68.5297 45.1955 68.5281 45.1955 68.5266C45.1955 68.5251 45.1955 68.5235 45.1955 68.522C45.1955 68.5205 45.1955 68.5189 45.1955 68.5174C45.1955 68.5159 45.1955 68.5143 45.1955 68.5128C45.1955 68.5112 45.1955 68.5097 45.1955 68.5081C45.1955 68.5065 45.1955 68.505 45.1955 68.5034C45.1955 68.5019 45.1955 68.5003 45.1955 68.4987C45.1955 68.4972 45.1955 68.4956 45.1955 68.494C45.1955 68.4925 45.1955 68.4909 45.1955 68.4893C45.1955 68.4877 45.1955 68.4861 45.1955 68.4846C45.1955 68.483 45.1955 68.4814 45.1955 68.4798C45.1955 68.4782 45.1955 68.4766 45.1955 68.475C45.1955 68.4734 45.1955 68.4718 45.1955 68.4702C45.1955 68.4686 45.1955 68.467 45.1955 68.4654C45.1955 68.4638 45.1955 68.4622 45.1955 68.4606C45.1955 68.4589 45.1955 68.4573 45.1955 68.4557C45.1955 68.4541 45.1955 68.4525 45.1955 68.4508C45.1955 68.4492 45.1955 68.4476 45.1955 68.4459C45.1955 68.4443 45.1955 68.4427 45.1955 68.441C45.1955 68.4394 45.1955 68.4377 45.1955 68.4361C45.1955 68.4345 45.1955 68.4328 45.1955 68.4312C45.1955 68.4295 45.1955 68.4279 45.1955 68.4262C45.1955 68.4245 45.1955 68.4229 45.1955 68.4212C45.1955 68.4196 45.1955 68.4179 45.1955 68.4162C45.1955 68.4146 45.1955 68.4129 45.1955 68.4112C45.1955 68.4095 45.1955 68.4079 45.1955 68.4062C45.1955 68.4045 45.1955 68.4028 45.1955 68.4011C45.1955 68.3995 45.1955 68.3978 45.1955 68.3961C45.1955 68.3944 45.1955 68.3927 45.1955 68.391C45.1955 68.3893 45.1955 68.3876 45.1955 68.3859C45.1955 68.3842 45.1955 68.3825 45.1955 68.3808C45.1955 68.3791 45.1955 68.3774 45.1955 68.3757C45.1955 68.374 45.1955 68.3722 45.1955 68.3705C45.1955 68.3688 45.1955 68.3671 45.1955 68.3654C45.1955 68.3636 45.1955 68.3619 45.1955 68.3602C45.1955 68.3585 45.1955 68.3567 45.1955 68.355C45.1955 68.3533 45.1955 68.3515 45.1955 68.3498C45.1955 68.3481 45.1955 68.3463 45.1955 68.3446C45.1955 68.3428 45.1955 68.3411 45.1955 68.3393C45.1955 68.3376 45.1955 68.3358 45.1955 68.3341C45.1955 68.3323 45.1955 68.3306 45.1955 68.3288C45.1955 68.327 45.1955 68.3253 45.1955 68.3235C45.1955 68.3217 45.1955 68.32 45.1955 68.3182C45.1955 68.3164 45.1955 68.3147 45.1955 68.3129C45.1955 68.3111 45.1955 68.3093 45.1955 68.3076C45.1955 68.3058 45.1955 68.304 45.1955 68.3022C45.1955 68.3004 45.1955 68.2986 45.1955 68.2968C45.1955 68.2951 45.1955 68.2933 45.1955 68.2915C45.1955 68.2897 45.1955 68.2879 45.1955 68.2861C45.1955 68.2843 45.1955 68.2825 45.1955 68.2807C45.1955 68.2789 45.1955 68.277 45.1955 68.2752C45.1955 68.2734 45.1955 68.2716 45.1955 68.2698C45.1955 68.268 45.1955 68.2662 45.1955 68.2643C45.1955 68.2625 45.1955 68.2607 45.1955 68.2589C45.1955 68.257 45.1955 68.2552 45.1955 68.2534C45.1955 68.2516 45.1955 68.2497 45.1955 68.2479C45.1955 68.2461 45.1955 68.2442 45.1955 68.2424C45.1955 68.2405 45.1955 68.2387 45.1955 68.2369C45.1955 68.235 45.1955 68.2332 45.1955 68.2313C45.1955 68.2295 45.1955 68.2276 45.1955 68.2258C45.1955 68.2239 45.1955 68.2221 45.1955 68.2202C45.1955 68.2183 45.1955 68.2165 45.1955 68.2146C45.1955 68.2127 45.1955 68.2109 45.1955 68.209C45.1955 68.2071 45.1955 68.2053 45.1955 68.2034C45.1955 68.2015 45.1955 68.1997 45.1955 68.1978C45.1955 68.1959 45.1955 68.194 45.1955 68.1921C45.1955 68.1903 45.1955 68.1884 45.1955 68.1865C45.1955 68.1846 45.1955 68.1827 45.1955 68.1808C45.1955 68.1789 45.1955 68.177 45.1955 68.1752C45.1955 68.1733 45.1955 68.1714 45.1955 68.1695C45.1955 68.1676 45.1955 68.1657 45.1955 68.1638C45.1955 68.1618 45.1955 68.1599 45.1955 68.158C45.1955 68.1561 45.1955 68.1542 45.1955 68.1523C45.1955 68.1504 45.1955 68.1485 45.1955 68.1466C45.1955 68.1446 45.1955 68.1427 45.1955 68.1408C45.1955 68.1389 45.1955 68.137 45.1955 68.135C45.1955 68.1331 45.1955 68.1312 45.1955 68.1293C45.1955 68.1273 45.1955 68.1254 45.1955 68.1235C45.1955 68.1215 45.1955 68.1196 45.1955 68.1177C45.1955 68.1157 45.1955 68.1138 45.1955 68.1118C45.1955 68.1099 45.1955 68.108 45.1955 68.106C45.1955 68.1041 45.1955 68.1021 45.1955 68.1002C45.1955 68.0982 45.1955 68.0963 45.1955 68.0943C45.1955 68.0924 45.1955 68.0904 45.1955 68.0884C45.1955 68.0865 45.1955 68.0845 45.1955 68.0826C45.1955 68.0806 45.1955 68.0786 45.1955 68.0767C45.1955 68.0747 45.1955 68.0727 45.1955 68.0708C45.1955 68.0688 45.1955 68.0668 45.1955 68.0648C45.1955 68.0629 45.1955 68.0609 45.1955 68.0589C45.1955 68.0569 45.1955 68.055 45.1955 68.053C45.1955 68.051 45.1955 68.049 45.1955 68.047C45.1955 68.045 45.1955 68.0431 45.1955 68.0411C45.1955 68.0391 45.1955 68.0371 45.1955 68.0351C45.1955 68.0331 45.1955 68.0311 45.1955 68.0291C45.1955 68.0271 45.1955 68.0251 45.1955 68.0231C45.1955 68.0211 45.1955 68.0191 45.1955 68.0171C45.1955 68.0151 45.1955 68.0131 45.1955 68.0111C45.1955 68.0091 45.1955 68.0071 45.1955 68.0051C45.1955 68.003 45.1955 68.001 45.1955 67.999C45.1955 67.997 45.1955 67.995 45.1955 67.993C45.1955 67.9909 45.1955 67.9889 45.1955 67.9869C45.1955 67.9849 45.1955 67.9829 45.1955 67.9808C45.1955 67.9788 45.1955 67.9768 45.1955 67.9747C45.1955 67.9727 45.1955 67.9707 45.1955 67.9687C45.1955 67.9666 45.1955 67.9646 45.1955 67.9625C45.1955 67.9605 45.1955 67.9585 45.1955 67.9564C45.1955 67.9544 45.1955 67.9524 45.1955 67.9503C45.1955 67.9483 45.1955 67.9462 45.1955 67.9442C45.1955 67.9421 45.1955 67.9401 45.1955 67.938C45.1955 67.936 45.1955 67.9339 45.1955 67.9319C45.1955 67.9298 45.1955 67.9278 45.1955 67.9257C45.1955 67.9237 45.1955 67.9216 45.1955 67.9195C45.1955 67.9175 45.1955 67.9154 45.1955 67.9134C45.1955 67.9113 45.1955 67.9092 45.1955 67.9072C45.1955 67.9051 45.1955 67.903 45.1955 67.901C45.1955 67.8989 45.1955 67.8968 45.1955 67.8947C45.1955 67.8927 45.1955 67.8906 45.1955 67.8885C45.1955 67.8864 45.1955 67.8844 45.1955 67.8823C45.1955 67.8802 45.1955 67.8781 45.1955 67.8761C45.1955 67.874 45.1955 67.8719 45.1955 67.8698C45.1955 67.8677 45.1955 67.8656 45.1955 67.8635C45.1955 67.8615 45.1955 67.8594 45.1955 67.8573C45.1955 67.8552 45.1955 67.8531 45.1955 67.851C45.1955 67.8489 45.1955 67.8468 45.1955 67.8447C45.1955 67.8426 45.1955 67.8405 45.1955 67.8384C45.1955 67.8363 45.1955 67.8342 45.1955 67.8321C45.1955 67.83 45.1955 67.8279 45.1955 67.8258C45.1955 67.8237 45.1955 67.8216 45.1955 67.8195C45.1955 67.8174 45.1955 67.8153 45.1955 67.8132C45.1955 67.8111 45.1955 67.8089 45.1955 67.8068C45.1955 67.8047 45.1955 67.8026 45.1955 67.8005C45.1955 67.7984 45.1955 67.7962 45.1955 67.7941C45.1955 67.792 45.1955 67.7899 45.1955 67.7878C45.1955 67.7856 45.1955 67.7835 45.1955 67.7814C45.1955 67.7793 45.1955 67.7772 45.1955 67.775C45.1955 67.7729 45.1955 67.7708 45.1955 67.7686C45.1955 67.7665 45.1955 67.7644 45.1955 67.7622C45.1955 67.7601 45.1955 67.758 45.1955 67.7558C45.1955 67.7537 45.1955 67.7516 45.1955 67.7494C45.1955 67.7473 45.1955 67.7452 45.1955 67.743C45.1955 67.7409 45.1955 67.7387 45.1955 67.7366C45.1955 67.7345 45.1955 67.7323 45.1955 67.7302C45.1955 67.728 45.1955 67.7259 45.1955 67.7237C45.1955 67.7216 45.1955 67.7194 45.1955 67.7173C45.1955 67.7151 45.1955 67.713 45.1955 67.7108C45.1955 67.7087 45.1955 67.7065 45.1955 67.7044C45.1955 67.7022 45.1955 67.7001 45.1955 67.6979C45.1955 67.6958 45.1955 67.6936 45.1955 67.6915C45.1955 67.6893 45.1955 67.6871 45.1955 67.685C45.1955 67.6828 45.1955 67.6807 45.1955 67.6785C45.1955 67.6763 45.1955 67.6742 45.1955 67.672C45.1955 67.6698 45.1955 67.6677 45.1955 67.6655C45.1955 67.6633 45.1955 67.6612 45.1955 67.659C45.1955 67.6568 45.1955 67.6547 45.1955 67.6525C45.1955 67.6503 45.1955 67.6481 45.1955 67.646C45.1955 67.6438 45.1955 67.6416 45.1955 67.6394C45.1955 67.6373 45.1955 67.6351 45.1955 67.6329C45.1955 67.6307 45.1955 67.6286 45.1955 67.6264C45.1955 67.6242 45.1955 67.622 45.1955 67.6198C45.1955 67.6177 45.1955 67.6155 45.1955 67.6133C45.1955 67.6111 45.1955 67.6089 45.1955 67.6067C45.1955 67.6046 45.1955 67.6024 45.1955 67.6002C45.1955 67.598 45.1955 67.5958 45.1955 67.5936C45.1955 67.5914 45.1955 67.5892 45.1955 67.5871C45.1955 67.5849 45.1955 67.5827 45.1955 67.5805C45.1955 67.5783 45.1955 67.5761 45.1955 67.5739C45.1955 67.5717 45.1955 67.5695 45.1955 67.5673C45.1955 67.5651 45.1955 67.5629 45.1955 67.5607C45.1955 67.5585 45.1955 67.5563 45.1955 67.5541C45.1955 67.5519 45.1955 67.5497 45.1955 67.5475C45.1955 67.5453 45.1955 67.5431 45.1955 67.5409C45.1955 67.5387 45.1955 67.5365 45.1955 67.5343C45.1955 67.5321 45.1955 67.5299 45.1955 67.5277C45.1955 67.5255 45.1955 67.5233 45.1955 67.5211C45.1955 67.5189 45.1955 67.5167 45.1955 67.5145C45.1955 67.5123 45.1955 67.51 45.1955 67.5078C45.1955 67.5056 45.1955 67.5034 45.1955 67.5012C45.1955 67.499 45.1955 67.4968 45.1955 67.4946C45.1955 67.4924 45.1955 67.4901 45.1955 67.4879C45.1955 67.4857 45.1955 67.4835 45.1955 67.4813C45.1955 67.4791 45.1955 67.4768 45.1955 67.4746C45.1955 67.4724 45.1955 67.4702 45.1955 67.468C45.1955 67.4658 45.1955 67.4635 45.1955 67.4613C45.1955 67.4591 45.1955 67.4569 45.1955 67.4547C45.1955 67.4524 45.1955 67.4502 45.1955 67.448C45.1955 67.4458 45.1955 67.4436 45.1955 67.4413C45.1955 67.4391 45.1955 67.4369 45.1955 67.4347C45.1955 67.4324 45.1955 67.4302 45.1955 67.428C45.1955 67.4258 45.1955 67.4235 45.1955 67.4213C45.1955 67.4191 45.1955 67.4168 45.1955 67.4146C45.1955 67.4124 45.1955 67.4102 45.1955 67.4079C45.1955 67.4057 45.1955 67.4035 45.1955 67.4012C45.1955 67.399 45.1955 67.3968 45.1955 67.3946C45.1955 67.3923 45.1955 67.3901 45.1955 67.3879C45.1955 67.3856 45.1955 67.3834 45.1955 67.3812C45.1955 67.3789 45.1955 67.3767 45.1955 67.3745C45.1955 67.3722 45.1955 67.37 45.1955 67.3678C45.1955 67.3655 45.1955 67.3633 45.1955 67.3611C45.1955 67.3588 45.1955 67.3566 45.1955 67.3544C45.1955 67.3521 45.1955 67.3499 45.1955 67.3476C45.1955 67.3454 45.1955 67.3432 45.1955 67.3409C45.1955 67.3387 45.1955 67.3364 45.1955 67.3342C45.1955 67.332 45.1955 67.3297 45.1955 67.3275C45.1955 67.3253 45.1955 67.323 45.1955 67.3208C45.1955 67.3185 45.1955 67.3163 45.1955 67.3141C45.1955 67.3118 45.1955 67.3096 45.1955 67.3073C45.1955 67.3051 45.1955 67.3028 45.1955 67.3006C45.1955 67.2984 45.1955 67.2961 45.1955 67.2939C45.1955 67.2916 45.1955 67.2894 45.1955 67.2871C45.1955 67.2849 45.1955 67.2827 45.1955 67.2804C45.1955 67.2782 45.1955 67.2759 45.1955 67.2737C45.1955 67.2714 45.1955 67.2692 45.1955 67.267C45.1955 67.2647 45.1955 67.2625 45.1955 67.2602C45.1955 67.258 45.1955 67.2557 45.1955 67.2535C45.1955 67.2512 45.1955 67.249 45.1955 67.2467C45.1955 67.2445 45.1955 67.2423 45.1955 67.24C45.1955 67.2378 45.1955 67.2355 45.1955 67.2333C45.1955 67.231 45.1955 67.2288 45.1955 67.2265C45.1955 67.2243 45.1955 67.222 45.1955 67.2198C45.1955 67.2175 45.1955 67.2153 45.1955 67.213C45.1955 67.2108 45.1955 67.2085 45.1955 67.2063C45.1955 67.2041 45.1955 67.2018 45.1955 67.1996C45.1955 67.1973 45.1955 67.1951 45.1955 67.1928C45.1955 67.1906 45.1955 67.1883 45.1955 67.1861C45.1955 67.1838 45.1955 67.1816 45.1955 67.1793C45.1955 67.1771 45.1955 67.1748 45.1955 67.1726C45.1955 67.1703 45.1955 67.1681 45.1955 67.1658C45.1955 67.1636 45.1955 67.1613 45.1955 67.1591C45.1955 67.1568 45.1955 67.1546 45.1955 67.1523C45.1955 67.1501 45.1955 67.1478 45.1955 67.1456C45.1955 67.1433 45.1955 67.1411 45.1955 67.1388C45.1955 67.1366 45.1955 67.1343 45.1955 67.1321C45.1955 67.1299 45.1955 67.1276 45.1955 67.1254C45.1955 67.1231 45.1955 67.1209 45.1955 67.1186C45.1955 67.1164 45.1955 67.1141 45.1955 67.1119C45.1955 67.1096 45.1955 67.1074 45.1955 67.1051C45.1955 67.1029 45.1955 67.1006 45.1955 67.0984C45.1955 67.0961 45.1955 67.0939 45.1955 67.0916C45.1955 67.0894 45.1955 67.0871 45.1955 67.0849C45.1955 67.0826 45.1955 67.0804 45.1955 67.0782C45.1955 67.0759 45.1955 67.0737 45.1955 67.0714C45.1955 67.0692 45.1955 67.0669 45.1955 67.0647C45.1955 67.0624 45.1955 67.0602 45.1955 67.0579C45.1955 67.0557 45.1955 67.0534 45.1955 67.0512C45.1955 67.049 45.1955 67.0467 45.1955 67.0445C45.1955 67.0422 45.1955 67.04 45.1955 67.0377C45.1955 67.0355 45.1955 67.0332 45.1955 67.031C45.1955 67.0288 45.1955 67.0265 45.1955 67.0243C45.1955 67.022 45.1955 67.0198 45.1955 67.0175C45.1955 67.0153 45.1955 67.0131 45.1955 67.0108C45.1955 67.0086 45.1955 67.0063 45.1955 67.0041C45.1955 67.0018 45.1955 66.9996 45.1955 66.9974C45.1955 66.9951 45.1955 66.9929 45.1955 66.9906C45.1955 66.9884 45.1955 66.9862 45.1955 66.9839C45.1955 66.9817 45.1955 66.9794 45.1955 66.9772C45.1955 66.975 45.1955 66.9727 45.1955 66.9705C45.1955 66.9682 45.1955 66.966 45.1955 66.9638C45.1955 66.9615 45.1955 66.9593 45.1955 66.9571C45.1955 66.9548 45.1955 66.9526 45.1955 66.9503C45.1955 66.9481 45.1955 66.9459 45.1955 66.9436C45.1955 66.9414 45.1955 66.9392 45.1955 66.9369C45.1955 66.9347 45.1955 66.9325 45.1955 66.9302C45.1955 66.928 45.1955 66.9258 45.1955 66.9235C45.1955 66.9213 45.1955 66.9191 45.1955 66.9168C45.1955 66.9146 45.1955 66.9124 45.1955 66.9101C45.1955 66.9079 45.1955 66.9057 45.1955 66.9035C45.1955 66.9012 45.1955 66.899 45.1955 66.8968C45.1955 66.8945 45.1955 66.8923 45.1955 66.8901C45.1955 66.8879 45.1955 66.8856 45.1955 66.8834C45.1955 66.8812 45.1955 66.879 45.1955 66.8767C45.1955 66.8745 45.1955 66.8723 45.1955 66.8701C45.1955 66.8678 45.1955 66.8656 45.1955 66.8634C45.1955 66.8612 45.1955 66.8589 45.1955 66.8567C45.1955 66.8545 45.1955 66.8523 45.1955 66.8501C45.1955 66.8478 45.1955 66.8456 45.1955 66.8434C45.1955 66.8412 45.1955 66.839 45.1955 66.8367C45.1955 66.8345 45.1955 66.8323 45.1955 66.8301C45.1955 66.8279 45.1955 66.8257 45.1955 66.8234C45.1955 66.8212 45.1955 66.819 45.1955 66.8168C45.1955 66.8146 45.1955 66.8124 45.1955 66.8102C45.1955 66.8079 45.1955 66.8057 45.1955 66.8035C45.1955 66.8013 45.1955 66.7991 45.1955 66.7969C45.1955 66.7947 45.1955 66.7925 45.1955 66.7903C45.1955 66.7881 45.1955 66.7859 45.1955 66.7836C45.1955 66.7814 45.1955 66.7792 45.1955 66.777C45.1955 66.7748 45.1955 66.7726 45.1955 66.7704C45.1955 66.7682 45.1955 66.766 45.1955 66.7638C45.1955 66.7616 45.1955 66.7594 45.1955 66.7572C45.1955 66.755 45.1955 66.7528 45.1955 66.7506C45.1955 66.7484 45.1955 66.7462 45.1955 66.744C45.1955 66.7418 45.1955 66.7396 45.1955 66.7374C45.1955 66.7352 45.1955 66.733 45.1955 66.7309C45.1955 66.7287 45.1955 66.7265 45.1955 66.7243C45.1955 66.7221 45.1955 66.7199 45.1955 66.7177C45.1955 66.7155 45.1955 66.7133 45.1955 66.7111C45.1955 66.7089 45.1955 66.7068 45.1955 66.7046C45.1955 66.7024 45.1955 66.7002 45.1955 66.698C45.1955 66.6958 45.1955 66.6936 45.1955 66.6915C45.1955 66.6893 45.1955 66.6871 45.1955 66.6849C45.1955 66.6827 45.1955 66.6806 45.1955 66.6784C45.1955 66.6762 45.1955 66.674 45.1955 66.6719C45.1955 66.6697 45.1955 66.6675 45.1955 66.6653C45.1955 66.6632 45.1955 66.661 45.1955 66.6588C45.1955 66.6566 45.1955 66.6545 45.1955 66.6523C45.1955 66.6501 45.1955 66.648 45.1955 66.6458C45.1955 66.6436 45.1955 66.6415 45.1955 66.6393C45.1955 66.6371 45.1955 66.635 45.1955 66.6328C45.1955 66.6306 45.1955 66.6285 45.1955 66.6263C45.1955 66.6241 45.1955 66.622 45.1955 66.6198C45.1955 66.6177 45.1955 66.6155 45.1955 66.6133C45.1955 66.6112 45.1955 66.609 45.1955 66.6069C45.1955 66.6047 45.1955 66.6026 45.1955 66.6004C45.1955 66.5983 45.1955 66.5961 45.1955 66.594C45.1955 66.5918 45.1955 66.5897 45.1955 66.5875C45.1955 66.5854 45.1955 66.5832 45.1955 66.5811C45.1955 66.5789 45.1955 66.5768 45.1955 66.5746C45.1955 66.5725 45.1955 66.5704 45.1955 66.5682C45.1955 66.5661 45.1955 66.5639 45.1955 66.5618C45.1955 66.5597 45.1955 66.5575 45.1955 66.5554C45.1955 66.5532 45.1955 66.5511 45.1955 66.549C45.1955 66.5468 45.1955 66.5447 45.1955 66.5426C45.1955 66.5405 45.1955 66.5383 45.1955 66.5362C45.1955 66.5341 45.1955 66.5319 45.1955 66.5298C45.1955 66.5277 45.1955 66.5256 45.1955 66.5234C45.1955 66.5213 45.1955 66.5192 45.1955 66.5171C45.1955 66.515 45.1955 66.5128 45.1955 66.5107C45.1955 66.5086 45.1955 66.5065 45.1955 66.5044C45.1955 66.5023 45.1955 66.5001 45.1955 66.498C45.1955 66.4959 45.1955 66.4938 45.1955 66.4917C45.1955 66.4896 45.1955 66.4875 45.1955 66.4854C45.1955 66.4833 45.1955 66.4812 45.1955 66.4791C45.1955 66.477 45.1955 66.4749 45.1955 66.4728C45.1955 66.4707 45.1955 66.4686 45.1955 66.4665C45.1955 66.4644 45.1955 66.4623 45.1955 66.4602C45.1955 66.4581 45.1955 66.456 45.1955 66.4539C45.1955 66.4518 45.1955 66.4497 45.1955 66.4476C45.1955 66.4455 45.1955 66.4434 45.1955 66.4413C45.1955 66.4393 45.1955 66.4372 45.1955 66.4351H42.1955C42.1955 66.4372 42.1955 66.4393 42.1955 66.4413C42.1955 66.4434 42.1955 66.4455 42.1955 66.4476C42.1955 66.4497 42.1955 66.4518 42.1955 66.4539C42.1955 66.456 42.1955 66.4581 42.1955 66.4602C42.1955 66.4623 42.1955 66.4644 42.1955 66.4665C42.1955 66.4686 42.1955 66.4707 42.1955 66.4728C42.1955 66.4749 42.1955 66.477 42.1955 66.4791C42.1955 66.4812 42.1955 66.4833 42.1955 66.4854C42.1955 66.4875 42.1955 66.4896 42.1955 66.4917C42.1955 66.4938 42.1955 66.4959 42.1955 66.498C42.1955 66.5001 42.1955 66.5023 42.1955 66.5044C42.1955 66.5065 42.1955 66.5086 42.1955 66.5107C42.1955 66.5128 42.1955 66.515 42.1955 66.5171C42.1955 66.5192 42.1955 66.5213 42.1955 66.5234C42.1955 66.5256 42.1955 66.5277 42.1955 66.5298C42.1955 66.5319 42.1955 66.5341 42.1955 66.5362C42.1955 66.5383 42.1955 66.5405 42.1955 66.5426C42.1955 66.5447 42.1955 66.5468 42.1955 66.549C42.1955 66.5511 42.1955 66.5532 42.1955 66.5554C42.1955 66.5575 42.1955 66.5597 42.1955 66.5618C42.1955 66.5639 42.1955 66.5661 42.1955 66.5682C42.1955 66.5704 42.1955 66.5725 42.1955 66.5746C42.1955 66.5768 42.1955 66.5789 42.1955 66.5811C42.1955 66.5832 42.1955 66.5854 42.1955 66.5875C42.1955 66.5897 42.1955 66.5918 42.1955 66.594C42.1955 66.5961 42.1955 66.5983 42.1955 66.6004C42.1955 66.6026 42.1955 66.6047 42.1955 66.6069C42.1955 66.609 42.1955 66.6112 42.1955 66.6133C42.1955 66.6155 42.1955 66.6177 42.1955 66.6198C42.1955 66.622 42.1955 66.6241 42.1955 66.6263C42.1955 66.6285 42.1955 66.6306 42.1955 66.6328C42.1955 66.635 42.1955 66.6371 42.1955 66.6393C42.1955 66.6415 42.1955 66.6436 42.1955 66.6458C42.1955 66.648 42.1955 66.6501 42.1955 66.6523C42.1955 66.6545 42.1955 66.6566 42.1955 66.6588C42.1955 66.661 42.1955 66.6632 42.1955 66.6653C42.1955 66.6675 42.1955 66.6697 42.1955 66.6719C42.1955 66.674 42.1955 66.6762 42.1955 66.6784C42.1955 66.6806 42.1955 66.6827 42.1955 66.6849C42.1955 66.6871 42.1955 66.6893 42.1955 66.6915C42.1955 66.6936 42.1955 66.6958 42.1955 66.698C42.1955 66.7002 42.1955 66.7024 42.1955 66.7046C42.1955 66.7068 42.1955 66.7089 42.1955 66.7111C42.1955 66.7133 42.1955 66.7155 42.1955 66.7177C42.1955 66.7199 42.1955 66.7221 42.1955 66.7243C42.1955 66.7265 42.1955 66.7287 42.1955 66.7309C42.1955 66.733 42.1955 66.7352 42.1955 66.7374C42.1955 66.7396 42.1955 66.7418 42.1955 66.744C42.1955 66.7462 42.1955 66.7484 42.1955 66.7506C42.1955 66.7528 42.1955 66.755 42.1955 66.7572C42.1955 66.7594 42.1955 66.7616 42.1955 66.7638C42.1955 66.766 42.1955 66.7682 42.1955 66.7704C42.1955 66.7726 42.1955 66.7748 42.1955 66.777C42.1955 66.7792 42.1955 66.7814 42.1955 66.7836C42.1955 66.7859 42.1955 66.7881 42.1955 66.7903C42.1955 66.7925 42.1955 66.7947 42.1955 66.7969C42.1955 66.7991 42.1955 66.8013 42.1955 66.8035C42.1955 66.8057 42.1955 66.8079 42.1955 66.8102C42.1955 66.8124 42.1955 66.8146 42.1955 66.8168C42.1955 66.819 42.1955 66.8212 42.1955 66.8234C42.1955 66.8257 42.1955 66.8279 42.1955 66.8301C42.1955 66.8323 42.1955 66.8345 42.1955 66.8367C42.1955 66.839 42.1955 66.8412 42.1955 66.8434C42.1955 66.8456 42.1955 66.8478 42.1955 66.8501C42.1955 66.8523 42.1955 66.8545 42.1955 66.8567C42.1955 66.8589 42.1955 66.8612 42.1955 66.8634C42.1955 66.8656 42.1955 66.8678 42.1955 66.8701C42.1955 66.8723 42.1955 66.8745 42.1955 66.8767C42.1955 66.879 42.1955 66.8812 42.1955 66.8834C42.1955 66.8856 42.1955 66.8879 42.1955 66.8901C42.1955 66.8923 42.1955 66.8945 42.1955 66.8968C42.1955 66.899 42.1955 66.9012 42.1955 66.9035C42.1955 66.9057 42.1955 66.9079 42.1955 66.9101C42.1955 66.9124 42.1955 66.9146 42.1955 66.9168C42.1955 66.9191 42.1955 66.9213 42.1955 66.9235C42.1955 66.9258 42.1955 66.928 42.1955 66.9302C42.1955 66.9325 42.1955 66.9347 42.1955 66.9369C42.1955 66.9392 42.1955 66.9414 42.1955 66.9436C42.1955 66.9459 42.1955 66.9481 42.1955 66.9503C42.1955 66.9526 42.1955 66.9548 42.1955 66.9571C42.1955 66.9593 42.1955 66.9615 42.1955 66.9638C42.1955 66.966 42.1955 66.9682 42.1955 66.9705C42.1955 66.9727 42.1955 66.975 42.1955 66.9772C42.1955 66.9794 42.1955 66.9817 42.1955 66.9839C42.1955 66.9862 42.1955 66.9884 42.1955 66.9906C42.1955 66.9929 42.1955 66.9951 42.1955 66.9974C42.1955 66.9996 42.1955 67.0018 42.1955 67.0041C42.1955 67.0063 42.1955 67.0086 42.1955 67.0108C42.1955 67.0131 42.1955 67.0153 42.1955 67.0175C42.1955 67.0198 42.1955 67.022 42.1955 67.0243C42.1955 67.0265 42.1955 67.0288 42.1955 67.031C42.1955 67.0332 42.1955 67.0355 42.1955 67.0377C42.1955 67.04 42.1955 67.0422 42.1955 67.0445C42.1955 67.0467 42.1955 67.049 42.1955 67.0512C42.1955 67.0534 42.1955 67.0557 42.1955 67.0579C42.1955 67.0602 42.1955 67.0624 42.1955 67.0647C42.1955 67.0669 42.1955 67.0692 42.1955 67.0714C42.1955 67.0737 42.1955 67.0759 42.1955 67.0782C42.1955 67.0804 42.1955 67.0826 42.1955 67.0849C42.1955 67.0871 42.1955 67.0894 42.1955 67.0916C42.1955 67.0939 42.1955 67.0961 42.1955 67.0984C42.1955 67.1006 42.1955 67.1029 42.1955 67.1051C42.1955 67.1074 42.1955 67.1096 42.1955 67.1119C42.1955 67.1141 42.1955 67.1164 42.1955 67.1186C42.1955 67.1209 42.1955 67.1231 42.1955 67.1254C42.1955 67.1276 42.1955 67.1299 42.1955 67.1321C42.1955 67.1343 42.1955 67.1366 42.1955 67.1388C42.1955 67.1411 42.1955 67.1433 42.1955 67.1456C42.1955 67.1478 42.1955 67.1501 42.1955 67.1523C42.1955 67.1546 42.1955 67.1568 42.1955 67.1591C42.1955 67.1613 42.1955 67.1636 42.1955 67.1658C42.1955 67.1681 42.1955 67.1703 42.1955 67.1726C42.1955 67.1748 42.1955 67.1771 42.1955 67.1793C42.1955 67.1816 42.1955 67.1838 42.1955 67.1861C42.1955 67.1883 42.1955 67.1906 42.1955 67.1928C42.1955 67.1951 42.1955 67.1973 42.1955 67.1996C42.1955 67.2018 42.1955 67.2041 42.1955 67.2063C42.1955 67.2085 42.1955 67.2108 42.1955 67.213C42.1955 67.2153 42.1955 67.2175 42.1955 67.2198C42.1955 67.222 42.1955 67.2243 42.1955 67.2265C42.1955 67.2288 42.1955 67.231 42.1955 67.2333C42.1955 67.2355 42.1955 67.2378 42.1955 67.24C42.1955 67.2423 42.1955 67.2445 42.1955 67.2467C42.1955 67.249 42.1955 67.2512 42.1955 67.2535C42.1955 67.2557 42.1955 67.258 42.1955 67.2602C42.1955 67.2625 42.1955 67.2647 42.1955 67.267C42.1955 67.2692 42.1955 67.2714 42.1955 67.2737C42.1955 67.2759 42.1955 67.2782 42.1955 67.2804C42.1955 67.2827 42.1955 67.2849 42.1955 67.2871C42.1955 67.2894 42.1955 67.2916 42.1955 67.2939C42.1955 67.2961 42.1955 67.2984 42.1955 67.3006C42.1955 67.3028 42.1955 67.3051 42.1955 67.3073C42.1955 67.3096 42.1955 67.3118 42.1955 67.3141C42.1955 67.3163 42.1955 67.3185 42.1955 67.3208C42.1955 67.323 42.1955 67.3253 42.1955 67.3275C42.1955 67.3297 42.1955 67.332 42.1955 67.3342C42.1955 67.3364 42.1955 67.3387 42.1955 67.3409C42.1955 67.3432 42.1955 67.3454 42.1955 67.3476C42.1955 67.3499 42.1955 67.3521 42.1955 67.3544C42.1955 67.3566 42.1955 67.3588 42.1955 67.3611C42.1955 67.3633 42.1955 67.3655 42.1955 67.3678C42.1955 67.37 42.1955 67.3722 42.1955 67.3745C42.1955 67.3767 42.1955 67.3789 42.1955 67.3812C42.1955 67.3834 42.1955 67.3856 42.1955 67.3879C42.1955 67.3901 42.1955 67.3923 42.1955 67.3946C42.1955 67.3968 42.1955 67.399 42.1955 67.4012C42.1955 67.4035 42.1955 67.4057 42.1955 67.4079C42.1955 67.4102 42.1955 67.4124 42.1955 67.4146C42.1955 67.4168 42.1955 67.4191 42.1955 67.4213C42.1955 67.4235 42.1955 67.4258 42.1955 67.428C42.1955 67.4302 42.1955 67.4324 42.1955 67.4347C42.1955 67.4369 42.1955 67.4391 42.1955 67.4413C42.1955 67.4436 42.1955 67.4458 42.1955 67.448C42.1955 67.4502 42.1955 67.4524 42.1955 67.4547C42.1955 67.4569 42.1955 67.4591 42.1955 67.4613C42.1955 67.4635 42.1955 67.4658 42.1955 67.468C42.1955 67.4702 42.1955 67.4724 42.1955 67.4746C42.1955 67.4768 42.1955 67.4791 42.1955 67.4813C42.1955 67.4835 42.1955 67.4857 42.1955 67.4879C42.1955 67.4901 42.1955 67.4924 42.1955 67.4946C42.1955 67.4968 42.1955 67.499 42.1955 67.5012C42.1955 67.5034 42.1955 67.5056 42.1955 67.5078C42.1955 67.51 42.1955 67.5123 42.1955 67.5145C42.1955 67.5167 42.1955 67.5189 42.1955 67.5211C42.1955 67.5233 42.1955 67.5255 42.1955 67.5277C42.1955 67.5299 42.1955 67.5321 42.1955 67.5343C42.1955 67.5365 42.1955 67.5387 42.1955 67.5409C42.1955 67.5431 42.1955 67.5453 42.1955 67.5475C42.1955 67.5497 42.1955 67.5519 42.1955 67.5541C42.1955 67.5563 42.1955 67.5585 42.1955 67.5607C42.1955 67.5629 42.1955 67.5651 42.1955 67.5673C42.1955 67.5695 42.1955 67.5717 42.1955 67.5739C42.1955 67.5761 42.1955 67.5783 42.1955 67.5805C42.1955 67.5827 42.1955 67.5849 42.1955 67.5871C42.1955 67.5892 42.1955 67.5914 42.1955 67.5936C42.1955 67.5958 42.1955 67.598 42.1955 67.6002C42.1955 67.6024 42.1955 67.6046 42.1955 67.6067C42.1955 67.6089 42.1955 67.6111 42.1955 67.6133C42.1955 67.6155 42.1955 67.6177 42.1955 67.6198C42.1955 67.622 42.1955 67.6242 42.1955 67.6264C42.1955 67.6286 42.1955 67.6307 42.1955 67.6329C42.1955 67.6351 42.1955 67.6373 42.1955 67.6394C42.1955 67.6416 42.1955 67.6438 42.1955 67.646C42.1955 67.6481 42.1955 67.6503 42.1955 67.6525C42.1955 67.6547 42.1955 67.6568 42.1955 67.659C42.1955 67.6612 42.1955 67.6633 42.1955 67.6655C42.1955 67.6677 42.1955 67.6698 42.1955 67.672C42.1955 67.6742 42.1955 67.6763 42.1955 67.6785C42.1955 67.6807 42.1955 67.6828 42.1955 67.685C42.1955 67.6871 42.1955 67.6893 42.1955 67.6915C42.1955 67.6936 42.1955 67.6958 42.1955 67.6979C42.1955 67.7001 42.1955 67.7022 42.1955 67.7044C42.1955 67.7065 42.1955 67.7087 42.1955 67.7108C42.1955 67.713 42.1955 67.7151 42.1955 67.7173C42.1955 67.7194 42.1955 67.7216 42.1955 67.7237C42.1955 67.7259 42.1955 67.728 42.1955 67.7302C42.1955 67.7323 42.1955 67.7345 42.1955 67.7366C42.1955 67.7387 42.1955 67.7409 42.1955 67.743C42.1955 67.7452 42.1955 67.7473 42.1955 67.7494C42.1955 67.7516 42.1955 67.7537 42.1955 67.7558C42.1955 67.758 42.1955 67.7601 42.1955 67.7622C42.1955 67.7644 42.1955 67.7665 42.1955 67.7686C42.1955 67.7708 42.1955 67.7729 42.1955 67.775C42.1955 67.7772 42.1955 67.7793 42.1955 67.7814C42.1955 67.7835 42.1955 67.7856 42.1955 67.7878C42.1955 67.7899 42.1955 67.792 42.1955 67.7941C42.1955 67.7962 42.1955 67.7984 42.1955 67.8005C42.1955 67.8026 42.1955 67.8047 42.1955 67.8068C42.1955 67.8089 42.1955 67.8111 42.1955 67.8132C42.1955 67.8153 42.1955 67.8174 42.1955 67.8195C42.1955 67.8216 42.1955 67.8237 42.1955 67.8258C42.1955 67.8279 42.1955 67.83 42.1955 67.8321C42.1955 67.8342 42.1955 67.8363 42.1955 67.8384C42.1955 67.8405 42.1955 67.8426 42.1955 67.8447C42.1955 67.8468 42.1955 67.8489 42.1955 67.851C42.1955 67.8531 42.1955 67.8552 42.1955 67.8573C42.1955 67.8594 42.1955 67.8615 42.1955 67.8635C42.1955 67.8656 42.1955 67.8677 42.1955 67.8698C42.1955 67.8719 42.1955 67.874 42.1955 67.8761C42.1955 67.8781 42.1955 67.8802 42.1955 67.8823C42.1955 67.8844 42.1955 67.8864 42.1955 67.8885C42.1955 67.8906 42.1955 67.8927 42.1955 67.8947C42.1955 67.8968 42.1955 67.8989 42.1955 67.901C42.1955 67.903 42.1955 67.9051 42.1955 67.9072C42.1955 67.9092 42.1955 67.9113 42.1955 67.9134C42.1955 67.9154 42.1955 67.9175 42.1955 67.9195C42.1955 67.9216 42.1955 67.9237 42.1955 67.9257C42.1955 67.9278 42.1955 67.9298 42.1955 67.9319C42.1955 67.9339 42.1955 67.936 42.1955 67.938C42.1955 67.9401 42.1955 67.9421 42.1955 67.9442C42.1955 67.9462 42.1955 67.9483 42.1955 67.9503C42.1955 67.9524 42.1955 67.9544 42.1955 67.9564C42.1955 67.9585 42.1955 67.9605 42.1955 67.9625C42.1955 67.9646 42.1955 67.9666 42.1955 67.9687C42.1955 67.9707 42.1955 67.9727 42.1955 67.9747C42.1955 67.9768 42.1955 67.9788 42.1955 67.9808C42.1955 67.9829 42.1955 67.9849 42.1955 67.9869C42.1955 67.9889 42.1955 67.9909 42.1955 67.993C42.1955 67.995 42.1955 67.997 42.1955 67.999C42.1955 68.001 42.1955 68.003 42.1955 68.0051C42.1955 68.0071 42.1955 68.0091 42.1955 68.0111C42.1955 68.0131 42.1955 68.0151 42.1955 68.0171C42.1955 68.0191 42.1955 68.0211 42.1955 68.0231C42.1955 68.0251 42.1955 68.0271 42.1955 68.0291C42.1955 68.0311 42.1955 68.0331 42.1955 68.0351C42.1955 68.0371 42.1955 68.0391 42.1955 68.0411C42.1955 68.0431 42.1955 68.045 42.1955 68.047C42.1955 68.049 42.1955 68.051 42.1955 68.053C42.1955 68.055 42.1955 68.0569 42.1955 68.0589C42.1955 68.0609 42.1955 68.0629 42.1955 68.0648C42.1955 68.0668 42.1955 68.0688 42.1955 68.0708C42.1955 68.0727 42.1955 68.0747 42.1955 68.0767C42.1955 68.0786 42.1955 68.0806 42.1955 68.0826C42.1955 68.0845 42.1955 68.0865 42.1955 68.0884C42.1955 68.0904 42.1955 68.0924 42.1955 68.0943C42.1955 68.0963 42.1955 68.0982 42.1955 68.1002C42.1955 68.1021 42.1955 68.1041 42.1955 68.106C42.1955 68.108 42.1955 68.1099 42.1955 68.1118C42.1955 68.1138 42.1955 68.1157 42.1955 68.1177C42.1955 68.1196 42.1955 68.1215 42.1955 68.1235C42.1955 68.1254 42.1955 68.1273 42.1955 68.1293C42.1955 68.1312 42.1955 68.1331 42.1955 68.135C42.1955 68.137 42.1955 68.1389 42.1955 68.1408C42.1955 68.1427 42.1955 68.1446 42.1955 68.1466C42.1955 68.1485 42.1955 68.1504 42.1955 68.1523C42.1955 68.1542 42.1955 68.1561 42.1955 68.158C42.1955 68.1599 42.1955 68.1618 42.1955 68.1638C42.1955 68.1657 42.1955 68.1676 42.1955 68.1695C42.1955 68.1714 42.1955 68.1733 42.1955 68.1752C42.1955 68.177 42.1955 68.1789 42.1955 68.1808C42.1955 68.1827 42.1955 68.1846 42.1955 68.1865C42.1955 68.1884 42.1955 68.1903 42.1955 68.1921C42.1955 68.194 42.1955 68.1959 42.1955 68.1978C42.1955 68.1997 42.1955 68.2015 42.1955 68.2034C42.1955 68.2053 42.1955 68.2071 42.1955 68.209C42.1955 68.2109 42.1955 68.2127 42.1955 68.2146C42.1955 68.2165 42.1955 68.2183 42.1955 68.2202C42.1955 68.2221 42.1955 68.2239 42.1955 68.2258C42.1955 68.2276 42.1955 68.2295 42.1955 68.2313C42.1955 68.2332 42.1955 68.235 42.1955 68.2369C42.1955 68.2387 42.1955 68.2405 42.1955 68.2424C42.1955 68.2442 42.1955 68.2461 42.1955 68.2479C42.1955 68.2497 42.1955 68.2516 42.1955 68.2534C42.1955 68.2552 42.1955 68.257 42.1955 68.2589C42.1955 68.2607 42.1955 68.2625 42.1955 68.2643C42.1955 68.2662 42.1955 68.268 42.1955 68.2698C42.1955 68.2716 42.1955 68.2734 42.1955 68.2752C42.1955 68.277 42.1955 68.2789 42.1955 68.2807C42.1955 68.2825 42.1955 68.2843 42.1955 68.2861C42.1955 68.2879 42.1955 68.2897 42.1955 68.2915C42.1955 68.2933 42.1955 68.2951 42.1955 68.2968C42.1955 68.2986 42.1955 68.3004 42.1955 68.3022C42.1955 68.304 42.1955 68.3058 42.1955 68.3076C42.1955 68.3093 42.1955 68.3111 42.1955 68.3129C42.1955 68.3147 42.1955 68.3164 42.1955 68.3182C42.1955 68.32 42.1955 68.3217 42.1955 68.3235C42.1955 68.3253 42.1955 68.327 42.1955 68.3288C42.1955 68.3306 42.1955 68.3323 42.1955 68.3341C42.1955 68.3358 42.1955 68.3376 42.1955 68.3393C42.1955 68.3411 42.1955 68.3428 42.1955 68.3446C42.1955 68.3463 42.1955 68.3481 42.1955 68.3498C42.1955 68.3515 42.1955 68.3533 42.1955 68.355C42.1955 68.3567 42.1955 68.3585 42.1955 68.3602C42.1955 68.3619 42.1955 68.3636 42.1955 68.3654C42.1955 68.3671 42.1955 68.3688 42.1955 68.3705C42.1955 68.3722 42.1955 68.374 42.1955 68.3757C42.1955 68.3774 42.1955 68.3791 42.1955 68.3808C42.1955 68.3825 42.1955 68.3842 42.1955 68.3859C42.1955 68.3876 42.1955 68.3893 42.1955 68.391C42.1955 68.3927 42.1955 68.3944 42.1955 68.3961C42.1955 68.3978 42.1955 68.3995 42.1955 68.4011C42.1955 68.4028 42.1955 68.4045 42.1955 68.4062C42.1955 68.4079 42.1955 68.4095 42.1955 68.4112C42.1955 68.4129 42.1955 68.4146 42.1955 68.4162C42.1955 68.4179 42.1955 68.4196 42.1955 68.4212C42.1955 68.4229 42.1955 68.4245 42.1955 68.4262C42.1955 68.4279 42.1955 68.4295 42.1955 68.4312C42.1955 68.4328 42.1955 68.4345 42.1955 68.4361C42.1955 68.4377 42.1955 68.4394 42.1955 68.441C42.1955 68.4427 42.1955 68.4443 42.1955 68.4459C42.1955 68.4476 42.1955 68.4492 42.1955 68.4508C42.1955 68.4525 42.1955 68.4541 42.1955 68.4557C42.1955 68.4573 42.1955 68.4589 42.1955 68.4606C42.1955 68.4622 42.1955 68.4638 42.1955 68.4654C42.1955 68.467 42.1955 68.4686 42.1955 68.4702C42.1955 68.4718 42.1955 68.4734 42.1955 68.475C42.1955 68.4766 42.1955 68.4782 42.1955 68.4798C42.1955 68.4814 42.1955 68.483 42.1955 68.4846C42.1955 68.4861 42.1955 68.4877 42.1955 68.4893C42.1955 68.4909 42.1955 68.4925 42.1955 68.494C42.1955 68.4956 42.1955 68.4972 42.1955 68.4987C42.1955 68.5003 42.1955 68.5019 42.1955 68.5034C42.1955 68.505 42.1955 68.5065 42.1955 68.5081C42.1955 68.5097 42.1955 68.5112 42.1955 68.5128C42.1955 68.5143 42.1955 68.5159 42.1955 68.5174C42.1955 68.5189 42.1955 68.5205 42.1955 68.522C42.1955 68.5235 42.1955 68.5251 42.1955 68.5266C42.1955 68.5281 42.1955 68.5297 42.1955 68.5312C42.1955 68.5327 42.1955 68.5342 42.1955 68.5357C42.1955 68.5373 42.1955 68.5388 42.1955 68.5403C42.1955 68.5418 42.1955 68.5433 42.1955 68.5448C42.1955 68.5463 42.1955 68.5478 42.1955 68.5493C42.1955 68.5508 42.1955 68.5523 42.1955 68.5538C42.1955 68.5553 42.1955 68.5568 42.1955 68.5583C42.1955 68.5597 42.1955 68.5612 42.1955 68.5627C42.1955 68.5642 42.1955 68.5657 42.1955 68.5671C42.1955 68.5686 42.1955 68.5701 42.1955 68.5715C42.1955 68.573 42.1955 68.5745 42.1955 68.5759C42.1955 68.5774 42.1955 68.5788 42.1955 68.5803C42.1955 68.5817 42.1955 68.5832 42.1955 68.5846C42.1955 68.5861 42.1955 68.5875 42.1955 68.589C42.1955 68.5904 42.1955 68.5918 42.1955 68.5933C42.1955 68.5947 42.1955 68.5961 42.1955 68.5975C42.1955 68.599 42.1955 68.6004 42.1955 68.6018C42.1955 68.6032 42.1955 68.6046 42.1955 68.6061C42.1955 68.6075 42.1955 68.6089 42.1955 68.6103C42.1955 68.6117 42.1955 68.6131 42.1955 68.6145C42.1955 68.6159 42.1955 68.6173 42.1955 68.6187C42.1955 68.6201 42.1955 68.6214 42.1955 68.6228C42.1955 68.6242 42.1955 68.6256 42.1955 68.627C42.1955 68.6283 42.1955 68.6297 42.1955 68.6311C42.1955 68.6325 42.1955 68.6338 42.1955 68.6352C42.1955 68.6366 42.1955 68.6379 42.1955 68.6393C42.1955 68.6406 42.1955 68.642 42.1955 68.6433C42.1955 68.6447 42.1955 68.646 42.1955 68.6474C42.1955 68.6487 42.1955 68.65 42.1955 68.6514C42.1955 68.6527 42.1955 68.654 42.1955 68.6554C42.1955 68.6567 42.1955 68.658 42.1955 68.6593C42.1955 68.6607 42.1955 68.662 42.1955 68.6633C42.1955 68.6646 42.1955 68.6659 42.1955 68.6672C42.1955 68.6685 42.1955 68.6698 42.1955 68.6711C42.1955 68.6724 42.1955 68.6737 42.1955 68.675C42.1955 68.6763 42.1955 68.6776 42.1955 68.6789C42.1955 68.6802 42.1955 68.6814 42.1955 68.6827C42.1955 68.684 42.1955 68.6853 42.1955 68.6865C42.1955 68.6878 42.1955 68.6891 42.1955 68.6903C42.1955 68.6916 42.1955 68.6929 42.1955 68.6941C42.1955 68.6954 42.1955 68.6966 42.1955 68.6979C42.1955 68.6991 42.1955 68.7004 42.1955 68.7016C42.1955 68.7028 42.1955 68.7041 42.1955 68.7053C42.1955 68.7065 42.1955 68.7078 42.1955 68.709C42.1955 68.7102 42.1955 68.7114 42.1955 68.7127C42.1955 68.7139 42.1955 68.7151 42.1955 68.7163C42.1955 68.7175 42.1955 68.7187 42.1955 68.7199C42.1955 68.7211 42.1955 68.7223 42.1955 68.7235C42.1955 68.7247 42.1955 68.7259 42.1955 68.7271C42.1955 68.7283 42.1955 68.7294 42.1955 68.7306C42.1955 68.7318 42.1955 68.733 42.1955 68.7341C42.1955 68.7353 42.1955 68.7365 42.1955 68.7377C42.1955 68.7388 42.1955 68.74 42.1955 68.7411C42.1955 68.7423 42.1955 68.7434 42.1955 68.7446C42.1955 68.7457 42.1955 68.7469 42.1955 68.748C42.1955 68.7492 42.1955 68.7503 42.1955 68.7514C42.1955 68.7526 42.1955 68.7537 42.1955 68.7548C42.1955 68.7559 42.1955 68.7571 42.1955 68.7582C42.1955 68.7593 42.1955 68.7604 42.1955 68.7615C42.1955 68.7626 42.1955 68.7637 42.1955 68.7648C42.1955 68.7659 42.1955 68.767 42.1955 68.7681C42.1955 68.7692 42.1955 68.7703 42.1955 68.7714C42.1955 68.7725 42.1955 68.7736 42.1955 68.7746C42.1955 68.7757 42.1955 68.7768 42.1955 68.7778C42.1955 68.7789 42.1955 68.78 42.1955 68.781C42.1955 68.7821 42.1955 68.7832 42.1955 68.7842C42.1955 68.7853 42.1955 68.7863 42.1955 68.7874C42.1955 68.7884 42.1955 68.7894 42.1955 68.7905C42.1955 68.7915 42.1955 68.7925 42.1955 68.7936C42.1955 68.7946 42.1955 68.7956 42.1955 68.7966C42.1955 68.7977 42.1955 68.7987 42.1955 68.7997C42.1955 68.8007 42.1955 68.8017 42.1955 68.8027C42.1955 68.8037 42.1955 68.8047 42.1955 68.8057C42.1955 68.8067 42.1955 68.8077 42.1955 68.8087C42.1955 68.8097 42.1955 68.8106 42.1955 68.8116C42.1955 68.8126 42.1955 68.8136 42.1955 68.8145C42.1955 68.8155 42.1955 68.8165 42.1955 68.8174C42.1955 68.8184 42.1955 68.8194 42.1955 68.8203C42.1955 68.8213 42.1955 68.8222 42.1955 68.8232C42.1955 68.8241 42.1955 68.825 42.1955 68.826C42.1955 68.8269 42.1955 68.8278 42.1955 68.8288C42.1955 68.8297 42.1955 68.8306 42.1955 68.8315C42.1955 68.8325 42.1955 68.8334 42.1955 68.8343C42.1955 68.8352 42.1955 68.8361 42.1955 68.837C42.1955 68.8379 42.1955 68.8388 42.1955 68.8397C42.1955 68.8406 42.1955 68.8415 42.1955 68.8424C42.1955 68.8432 42.1955 68.8441 42.1955 68.845C42.1955 68.8459 42.1955 68.8467 42.1955 68.8476C42.1955 68.8485 42.1955 68.8493 42.1955 68.8502C42.1955 68.8511 42.1955 68.8519 42.1955 68.8528C42.1955 68.8536 42.1955 68.8544 42.1955 68.8553C42.1955 68.8561 42.1955 68.857 42.1955 68.8578C42.1955 68.8586 42.1955 68.8595 42.1955 68.8603C42.1955 68.8611 42.1955 68.8619 42.1955 68.8627C42.1955 68.8635 42.1955 68.8644 42.1955 68.8652C42.1955 68.866 42.1955 68.8668 42.1955 68.8676C42.1955 68.8684 42.1955 68.8691 42.1955 68.8699C42.1955 68.8707 42.1955 68.8715 42.1955 68.8723C42.1955 68.8731 42.1955 68.8738 42.1955 68.8746C42.1955 68.8754 42.1955 68.8761 42.1955 68.8769C42.1955 68.8776 42.1955 68.8784 42.1955 68.8792C42.1955 68.8799 42.1955 68.8806 42.1955 68.8814C42.1955 68.8821 42.1955 68.8829 42.1955 68.8836C42.1955 68.8843 42.1955 68.8851 42.1955 68.8858C42.1955 68.8865 42.1955 68.8872 42.1955 68.8879C42.1955 68.8886 42.1955 68.8894 42.1955 68.8901C42.1955 68.8908 42.1955 68.8915 42.1955 68.8922C42.1955 68.8929 42.1955 68.8936 42.1955 68.8942C42.1955 68.8949 42.1955 68.8956 42.1955 68.8963C42.1955 68.897 42.1955 68.8976 42.1955 68.8983C42.1955 68.899 42.1955 68.8996 42.1955 68.9003C42.1955 68.9009 42.1955 68.9016 42.1955 68.9022C42.1955 68.9029 42.1955 68.9035 42.1955 68.9042C42.1955 68.9048 42.1955 68.9054 42.1955 68.9061C42.1955 68.9067 42.1955 68.9073 42.1955 68.908C42.1955 68.9086 42.1955 68.9092 42.1955 68.9098C42.1955 68.9104 42.1955 68.911 42.1955 68.9116C42.1955 68.9122 42.1955 68.9128 42.1955 68.9134C42.1955 68.914 42.1955 68.9146 42.1955 68.9152C42.1955 68.9157 42.1955 68.9163 42.1955 68.9169C42.1955 68.9175 42.1955 68.918 42.1955 68.9186C42.1955 68.9192 42.1955 68.9197 42.1955 68.9203C42.1955 68.9208 42.1955 68.9214 42.1955 68.9219C42.1955 68.9225 42.1955 68.923 42.1955 68.9235C42.1955 68.9241 42.1955 68.9246 42.1955 68.9251C42.1955 68.9256 42.1955 68.9262 42.1955 68.9267C42.1955 68.9272 42.1955 68.9277 42.1955 68.9282C42.1955 68.9287 42.1955 68.9292 42.1955 68.9297C42.1955 68.9302 42.1955 68.9307 42.1955 68.9312C42.1955 68.9316 42.1955 68.9321 42.1955 68.9326C42.1955 68.9331 42.1955 68.9335 42.1955 68.934C42.1955 68.9345 42.1955 68.9349 42.1955 68.9354C42.1955 68.9358 42.1955 68.9363 42.1955 68.9367C42.1955 68.9372 42.1955 68.9376 42.1955 68.9381C42.1955 68.9385 42.1955 68.9389 42.1955 68.9393C42.1955 68.9398 42.1955 68.9402 42.1955 68.9406C42.1955 68.941 42.1955 68.9414 42.1955 68.9418C42.1955 68.9422 42.1955 68.9426 42.1955 68.943C42.1955 68.9434 42.1955 68.9438 42.1955 68.9442C42.1955 68.9446 42.1955 68.945 42.1955 68.9453C42.1955 68.9457 42.1955 68.9461 42.1955 68.9464C42.1955 68.9468 42.1955 68.9472 42.1955 68.9475C42.1955 68.9479 42.1955 68.9482 42.1955 68.9486C42.1955 68.9489 42.1955 68.9492 42.1955 68.9496C42.1955 68.9499 42.1955 68.9502 42.1955 68.9506C42.1955 68.9509 42.1955 68.9512 42.1955 68.9515C42.1955 68.9518 42.1955 68.9521 42.1955 68.9524C42.1955 68.9527 42.1955 68.953 42.1955 68.9533C42.1955 68.9536 42.1955 68.9539 42.1955 68.9542C42.1955 68.9545 42.1955 68.9547 42.1955 68.955C42.1955 68.9553 42.1955 68.9555 42.1955 68.9558C42.1955 68.9561 42.1955 68.9563 42.1955 68.9566C42.1955 68.9568 42.1955 68.9571 42.1955 68.9573C42.1955 68.9575 42.1955 68.9578 42.1955 68.958C42.1955 68.9582 42.1955 68.9584 42.1955 68.9587C42.1955 68.9589 42.1955 68.9591 42.1955 68.9593C42.1955 68.9595 42.1955 68.9597 42.1955 68.9599C42.1955 68.9601 42.1955 68.9603 42.1955 68.9605C42.1955 68.9607 42.1955 68.9608 42.1955 68.961C42.1955 68.9612 42.1955 68.9614 42.1955 68.9615C42.1955 68.9617 42.1955 68.9619 42.1955 68.962C42.1955 68.9622 42.1955 68.9623 42.1955 68.9625C42.1955 68.9626 42.1955 68.9627 42.1955 68.9629C42.1955 68.963 42.1955 68.9631 42.1955 68.9632C42.1955 68.9634 42.1955 68.9635 42.1955 68.9636C42.1955 68.9637 42.1955 68.9638 42.1955 68.9639C42.1955 68.964 42.1955 68.9641 42.1955 68.9642C42.1955 68.9643 42.1955 68.9644 42.1955 68.9644C42.1955 68.9645 42.1955 68.9646 42.1955 68.9646C42.1955 68.9647 42.1955 68.9648 42.1955 68.9648C42.1955 68.9649 42.1955 68.9649 42.1955 68.965C42.1955 68.965 42.1955 68.9651 42.1955 68.9651C42.1955 68.9651 42.1955 68.9652 42.1955 68.9652C42.1955 68.9652 42.1955 68.9652 42.1955 68.9652C42.1955 68.9652 42.1955 68.9653 43.6955 68.9653ZM45.1955 66.4351C45.1955 65.9645 45.0297 65.5565 44.9053 65.2983C44.7666 65.0108 44.5876 64.7268 44.4053 64.4651C44.0406 63.9415 43.5654 63.3696 43.105 62.8341C42.6119 62.2605 42.1791 61.7771 41.7539 61.2756C41.3307 60.7765 41.0557 60.4201 40.9276 60.2032L38.3439 61.7278C38.6185 62.193 39.0521 62.728 39.4657 63.2158C39.8771 63.701 40.4089 64.2999 40.8301 64.7898C41.284 65.3178 41.6728 65.7908 41.9435 66.1796C42.079 66.3741 42.1605 66.5131 42.203 66.6013C42.2596 66.7188 42.1955 66.639 42.1955 66.4351H45.1955ZM40.922 60.1938C40.9605 60.2579 40.9564 60.2665 40.9017 60.1286C40.8588 60.0206 40.8029 59.8694 40.7342 59.674C40.5974 59.2847 40.4248 58.7621 40.2275 58.1451C39.8336 56.9135 39.3535 55.3435 38.8871 53.7926C38.4211 52.2432 37.9707 50.7194 37.6366 49.5825C37.4696 49.0142 37.3318 48.5428 37.2357 48.2136C37.1877 48.0491 37.1501 47.92 37.1246 47.8322C37.1118 47.7883 37.102 47.7547 37.0955 47.7322C37.0922 47.7209 37.0897 47.7123 37.0881 47.7066C37.0872 47.7038 37.0866 47.7017 37.0862 47.7002C37.086 47.6995 37.0858 47.699 37.0857 47.6987C37.0857 47.6985 37.0857 47.6984 37.0856 47.6983C37.0856 47.6982 37.0856 47.6982 35.6451 48.1163C34.2045 48.5344 34.2045 48.5345 34.2046 48.5346C34.2046 48.5347 34.2046 48.5348 34.2047 48.535C34.2048 48.5354 34.205 48.536 34.2052 48.5367C34.2056 48.5382 34.2062 48.5404 34.2071 48.5433C34.2088 48.5492 34.2113 48.5579 34.2147 48.5693C34.2213 48.5922 34.2312 48.6262 34.244 48.6704C34.2698 48.7589 34.3076 48.8886 34.3558 49.054C34.4523 49.3847 34.5907 49.8579 34.7583 50.4283C35.0934 51.5688 35.5458 53.0991 36.0142 54.6567C36.4822 56.2126 36.9682 57.8022 37.37 59.0589C37.5706 59.686 37.7532 60.2398 37.9039 60.6685C37.9789 60.8821 38.0497 61.0753 38.1135 61.2359C38.1654 61.3665 38.2478 61.5677 38.3496 61.7372L40.922 60.1938ZM37.1451 48.1163C37.1451 48.3858 37.0136 48.4357 37.1298 48.3288C37.2171 48.2484 37.3777 48.1537 37.5838 48.1116C37.777 48.0722 37.9906 48.0825 38.2128 48.1768C38.4326 48.2701 38.738 48.4786 39.0592 48.955L41.5465 47.2776C40.3049 45.4366 38.5441 44.8538 36.984 45.1722C36.2557 45.3208 35.5968 45.6625 35.0983 46.1213C34.6287 46.5535 34.1451 47.2453 34.1451 48.1163H37.1451ZM39.0152 48.8857L42.0169 53.9088L44.5921 52.3699L41.5904 47.3468L39.0152 48.8857ZM44.3808 54.1842L45.9219 52.5966L43.7693 50.507L42.2282 52.0946L44.3808 54.1842ZM46.3456 51.5518V32.9478H43.3456V51.5518H46.3456ZM46.3456 32.9478C46.3456 32.3032 46.8137 31.9672 47.1458 31.9672V28.9672C44.9476 28.9672 43.3456 30.8637 43.3456 32.9478H46.3456ZM47.1458 31.9672C47.4778 31.9672 47.9459 32.3032 47.9459 32.9478H50.9459C50.9459 30.8637 49.3439 28.9672 47.1458 28.9672V31.9672ZM47.9459 32.9478V49.0713H50.9459V32.9478H47.9459ZM50.9459 49.0713V47.831H47.9459V49.0713H50.9459ZM50.9459 47.831V41.6793H47.9459V47.831H50.9459ZM49.4459 43.1793H51.746V40.1793H49.4459V43.1793ZM51.746 43.1793C51.934 43.1793 52.0765 43.1801 52.2153 43.1926C52.3505 43.2048 52.4388 43.2251 52.495 43.2453C52.5444 43.2632 52.5571 43.2765 52.559 43.2784C52.5616 43.2809 52.5692 43.2886 52.5805 43.3066C52.5921 43.3251 52.6109 43.3598 52.6314 43.4181L55.4609 42.421C55.0797 41.3391 54.3279 40.7172 53.5128 40.4233C52.7987 40.1657 52.0724 40.1793 51.746 40.1793V43.1793ZM54.0462 44.4196H56.3463V41.4196H54.0462V44.4196ZM56.3463 44.4196C56.3447 44.4196 56.5517 44.4503 56.812 44.7254C57.059 44.9866 57.1465 45.2549 57.1465 45.4001H60.1465C60.1465 44.305 59.6244 43.3331 58.9916 42.664C58.372 42.009 57.429 41.4196 56.3463 41.4196V44.4196ZM58.6465 46.9001H60.9466V43.9001H58.6465V46.9001ZM60.9466 46.9001C61.0315 46.9001 61.2433 46.9559 61.4504 47.1596C61.6405 47.3465 61.7467 47.5816 61.7467 47.831H64.7467C64.7467 45.5773 62.8321 43.9001 60.9466 43.9001V46.9001ZM61.7467 47.831V61.474H64.7467V47.831H61.7467ZM61.7467 61.474C61.7467 62.2973 61.3659 63.1325 60.7839 64.1854C60.5214 64.6603 60.1894 65.2323 59.9432 65.7674C59.6964 66.3041 59.4466 66.9829 59.4466 67.725H62.4466C62.4466 67.6299 62.4843 67.4219 62.6687 67.0211C62.8539 66.6186 63.0969 66.2022 63.4094 65.6368C63.9775 64.6091 64.7467 63.1561 64.7467 61.474H61.7467ZM59.4466 67.725V68.9653H62.4466V67.725H59.4466Z" fill="white" mask="url(#path-7-inside-3_249_5005)"/>
<path d="M54.0462 42.9194V49.1208" stroke="white" stroke-width="1.5" stroke-miterlimit="10"/>
<path d="M58.6461 45.4001V50.3612" stroke="white" stroke-width="1.5" stroke-miterlimit="10"/>
</g>
<g filter="url(#filter1_d_249_5005)">
<path d="M39.0975 26.6179C39.0908 26.6189 37.5286 26.8332 35.9663 26.218L35.859 26.4906L35.8735 26.4963C36.9509 26.92 37.9785 26.9661 38.6385 26.9446L39.1429 26.9282L39.0975 26.6179ZM39.0975 26.6179L39.1459 26.9281M39.0975 26.6179C39.2426 26.5966 39.3945 26.6438 39.5059 26.7419C39.6179 26.8404 39.6853 26.9857 39.6853 27.1356V32.7128C39.6853 37.279 33.7129 40.1661 33.4584 40.287C33.3899 40.3197 33.3137 40.3358 33.2396 40.3358L39.1459 26.9281M39.1459 26.9281L39.3478 26.9215L39.1459 26.9281ZM38.6534 27.401C38.7613 27.3976 38.8559 27.3923 38.9353 27.3866L35.7061 26.9215C36.8592 27.3722 37.999 27.4216 38.6534 27.401ZM39.1983 27.361C39.2013 27.3606 39.204 27.3602 39.2062 27.3599L39.2062 27.36C39.2035 27.3604 39.2009 27.3607 39.1983 27.361Z" fill="white" stroke="white" stroke-width="1.5"/>
<mask id="path-12-inside-4_249_5005" fill="white">
<path d="M35.7649 30.0766L32.5444 33.6116L30.8518 32.0192C30.6447 31.8241 30.3211 31.8366 30.1294 32.0467C29.9377 32.2568 29.9495 32.5851 30.1565 32.7796L32.2244 34.7258C32.3189 34.815 32.4431 34.8643 32.572 34.8643C32.5786 34.8643 32.5853 34.8643 32.5914 34.8638C32.7274 34.8586 32.8552 34.799 32.9472 34.6978L36.5154 30.781C36.7071 30.5704 36.6943 30.2426 36.4873 30.0481C36.2797 29.8536 35.9566 29.867 35.7649 30.0766Z"/>
</mask>
<path d="M35.7649 30.0766L32.5444 33.6116L30.8518 32.0192C30.6447 31.8241 30.3211 31.8366 30.1294 32.0467C29.9377 32.2568 29.9495 32.5851 30.1565 32.7796L32.2244 34.7258C32.3189 34.815 32.4431 34.8643 32.572 34.8643C32.5786 34.8643 32.5853 34.8643 32.5914 34.8638C32.7274 34.8586 32.8552 34.799 32.9472 34.6978L36.5154 30.781C36.7071 30.5704 36.6943 30.2426 36.4873 30.0481C36.2797 29.8536 35.9566 29.867 35.7649 30.0766Z" fill="white"/>
<path d="M35.7649 30.0766L34.6582 29.0641L34.6561 29.0664L35.7649 30.0766ZM32.5444 33.6116L31.5165 34.7041L32.6267 35.7486L33.6532 34.6218L32.5444 33.6116ZM30.8518 32.0192L29.8232 33.111L29.8239 33.1117L30.8518 32.0192ZM30.1565 32.7796L31.1846 31.6873L31.1836 31.6864L30.1565 32.7796ZM32.2244 34.7258L33.2537 33.6347L33.2524 33.6335L32.2244 34.7258ZM32.5914 34.8638L32.5342 33.3649L32.4996 33.3662L32.465 33.3691L32.5914 34.8638ZM32.9472 34.6978L31.8383 33.6876L31.8376 33.6884L32.9472 34.6978ZM36.5154 30.781L37.6242 31.7912L37.6246 31.7907L36.5154 30.781ZM36.4873 30.0481L37.5144 28.9549L37.513 28.9536L36.4873 30.0481ZM34.6561 29.0664L31.4355 32.6014L33.6532 34.6218L36.8738 31.0868L34.6561 29.0664ZM33.5722 32.5191L31.8796 30.9267L29.8239 33.1117L31.5165 34.7041L33.5722 32.5191ZM31.8803 30.9273C31.0627 30.1571 29.777 30.2075 29.0214 31.0356L31.2375 33.0578C30.8652 33.4657 30.2268 33.4912 29.8232 33.111L31.8803 30.9273ZM29.0214 31.0356C28.2805 31.8475 28.3211 33.1133 29.1294 33.8728L31.1836 31.6864C31.5779 32.0569 31.5949 32.666 31.2375 33.0578L29.0214 31.0356ZM29.1285 33.8719L31.1963 35.8181L33.2524 33.6335L31.1846 31.6873L29.1285 33.8719ZM31.195 35.8169C31.567 36.1679 32.0591 36.3643 32.572 36.3643V33.3643C32.8272 33.3643 33.0708 33.4622 33.2537 33.6347L31.195 35.8169ZM32.572 36.3643C32.5726 36.3643 32.591 36.3644 32.6118 36.364C32.6335 36.3635 32.6713 36.3624 32.7178 36.3585L32.465 33.3691C32.5053 33.3657 32.5368 33.3649 32.552 33.3646C32.5662 33.3643 32.5779 33.3643 32.572 33.3643V36.3643ZM32.6486 36.3627C33.1894 36.3421 33.6956 36.1042 34.0568 35.7072L31.8376 33.6884C32.0148 33.4937 32.2654 33.3751 32.5342 33.3649L32.6486 36.3627ZM34.056 35.708L37.6242 31.7912L35.4065 29.7708L31.8383 33.6876L34.056 35.708ZM37.6246 31.7907C38.3668 30.9754 38.3195 29.7113 37.5144 28.9549L35.4602 31.1413C35.0691 30.7739 35.0474 30.1654 35.4061 29.7713L37.6246 31.7907ZM37.513 28.9536C36.6923 28.1844 35.4105 28.2418 34.6582 29.0642L36.8717 31.0891C36.5028 31.4923 35.8672 31.5227 35.4615 31.1425L37.513 28.9536Z" fill="white" mask="url(#path-12-inside-4_249_5005)"/>
</g>
<defs>
<filter id="filter0_d_249_5005" x="14.3939" y="6.67249" width="52.8528" height="66.2928" filterUnits="userSpaceOnUse" color-interpolation-filters="sRGB">
<feFlood flood-opacity="0" result="BackgroundImageFix"/>
<feColorMatrix in="SourceAlpha" type="matrix" values="0 0 0 0 0 0 0 0 0 0 0 0 0 0 0 0 0 0 127 0" result="hardAlpha"/>
<feOffset/>
<feGaussianBlur stdDeviation="2"/>
<feColorMatrix type="matrix" values="0 0 0 0 1 0 0 0 0 1 0 0 0 0 1 0 0 0 0.12 0"/>
<feBlend mode="normal" in2="BackgroundImageFix" result="effect1_dropShadow_249_5005"/>
<feBlend mode="normal" in="SourceGraphic" in2="effect1_dropShadow_249_5005" result="shape"/>
</filter>
<filter id="filter1_d_249_5005" x="22.803" y="20.2328" width="20.8823" height="24.1029" filterUnits="userSpaceOnUse" color-interpolation-filters="sRGB">
<feFlood flood-opacity="0" result="BackgroundImageFix"/>
<feColorMatrix in="SourceAlpha" type="matrix" values="0 0 0 0 0 0 0 0 0 0 0 0 0 0 0 0 0 0 127 0" result="hardAlpha"/>
<feOffset/>
<feGaussianBlur stdDeviation="2"/>
<feColorMatrix type="matrix" values="0 0 0 0 1 0 0 0 0 1 0 0 0 0 1 0 0 0 0.12 0"/>
<feBlend mode="normal" in2="BackgroundImageFix" result="effect1_dropShadow_249_5005"/>
<feBlend mode="normal" in="SourceGraphic" in2="effect1_dropShadow_249_5005" result="shape"/>
</filter>
</defs>
</svg>
