<svg width="81" height="81" viewBox="0 0 81 81" fill="none" xmlns="http://www.w3.org/2000/svg">
<rect x="0.813538" y="0.973877" width="79" height="79" rx="11.5" fill="#0B260B" stroke="#0B260B"/>
<g filter="url(#filter0_d_249_5176)">
<path d="M50.4709 40.2616L50.4709 40.2615C50.3576 40.1133 50.2157 40.0486 50.1225 40.0486H50.1225H50.1224H50.1224H50.1223H50.1223H50.1222H50.1222H50.1221H50.1221H50.122H50.122H50.1219H50.1219H50.1218H50.1218H50.1217H50.1217H50.1216H50.1216H50.1215H50.1215H50.1214H50.1214H50.1213H50.1213H50.1212H50.1212H50.1211H50.1211H50.121H50.121H50.1209H50.1209H50.1209H50.1208H50.1208H50.1207H50.1207H50.1206H50.1206H50.1205H50.1205H50.1204H50.1204H50.1203H50.1203H50.1202H50.1202H50.1201H50.1201H50.12H50.12H50.1199H50.1199H50.1198H50.1198H50.1197H50.1197H50.1196H50.1196H50.1195H50.1195H50.1194H50.1194H50.1193H50.1193H50.1193H50.1192H50.1192H50.1191H50.1191H50.119H50.119H50.1189H50.1189H50.1188H50.1188H50.1187H50.1187H50.1186H50.1186H50.1185H50.1185H50.1184H50.1184H50.1183H50.1183H50.1182H50.1182H50.1181H50.1181H50.118H50.118H50.118H50.1179H50.1179H50.1178H50.1178H50.1177H50.1177H50.1176H50.1176H50.1175H50.1175H50.1174H50.1174H50.1173H50.1173H50.1172H50.1172H50.1171H50.1171H50.1171H50.117H50.117H50.1169H50.1169H50.1168H50.1168H50.1167H50.1167H50.1166H50.1166H50.1165H50.1165H50.1164H50.1164H50.1163H50.1163H50.1162H50.1162H50.1162H50.1161H50.1161H50.116H50.116H50.1159H50.1159H50.1158H50.1158H50.1157H50.1157H50.1156H50.1156H50.1155H50.1155H50.1154H50.1154H50.1154H50.1153H50.1153H50.1152H50.1152H50.1151H50.1151H50.115H50.115H50.1149H50.1149H50.1148H50.1148H50.1147H50.1147H50.1147H50.1146H50.1146H50.1145H50.1145H50.1144H50.1144H50.1143H50.1143H50.1142H50.1142H50.1141H50.1141H50.114H50.114H50.114H50.1139H50.1139H50.1138H50.1138H50.1137H50.1137H50.1136H50.1136H50.1135H50.1135H50.1134H50.1134H50.1134H50.1133H50.1133H50.1132H50.1132H50.1131H50.1131H50.113H50.113H50.1129H50.1129H50.1128H50.1128H50.1128H50.1127H50.1127H50.1126H50.1126H50.1125H50.1125H50.1124H50.1124H50.1123H50.1123H50.1122H50.1122H50.1122H50.1121H50.1121H50.112H50.112H50.1119H50.1119H50.1118H50.1118H50.1117H50.1117H50.1117H50.1116H50.1116H50.1115H50.1115H50.1114H50.1114H50.1113H50.1113H50.1112H50.1112H50.1111H50.1111H50.1111H50.111H50.111H50.1109H50.1109H50.1108H50.1108H50.1107H50.1107H50.1106H50.1106H50.1106H50.1105H50.1105H50.1104H50.1104H50.1103H50.1103H50.1102H50.1102H50.1101H50.1101H50.1101H50.11H50.11H50.1099H50.1099H50.1098H50.1098H50.1097H50.1097H50.1096H50.1096H50.1096H50.1095H50.1095H50.1094H50.1094H50.1093H50.1093H50.1092H50.1092H50.1092H50.1091H50.1091H50.109H50.109H50.1089H50.1089H50.1088H50.1088H50.1087H50.1087H50.1087H50.1086H50.1086H50.1085H50.1085H50.1084H50.1084H50.1083H50.1083H50.1082H50.1082H50.1082H50.1081H50.1081H50.108H50.108H50.1079H50.1079H50.1078H50.1078H50.1078H50.1077H50.1077H50.1076H50.1076H50.1075H50.1075H50.1074H50.1074H50.1074H50.1073H50.1073H50.1072H50.1072H50.1071H50.1071H50.107H50.107H50.1069H50.1069H50.1069H50.1068H50.1068H50.1067H50.1067H50.1066H50.1066H50.1065H50.1065H50.1065H50.1064H50.1064H50.1063H50.1063H50.1062H50.1062H50.1061H50.1061H50.1061H50.106H50.106H50.1059H50.1059H50.1058H50.1058H50.1057H50.1057H50.1057H50.1056H50.1056H50.1055H50.1055H50.1054H50.1054H50.1053H50.1053H50.1053H50.1052H50.1052H50.1051H50.1051H50.105H50.105H50.1049H50.1049H50.1049H50.1048H50.1048H50.1047H50.1047H50.1046H50.1046H50.1045H50.1045H50.1045H50.1044H50.1044H50.1043H50.1043H50.1042H50.1042H50.1041H50.1041H50.1041H50.104H50.104H50.1039H50.1039H50.1038H50.1038H50.1037H50.1037H50.1037H50.1036H50.1036H50.1035H50.1035H50.1034H50.1034H50.1033H50.1033H50.1033H50.1032H50.1032H50.1031H50.1031H50.103H50.103H50.1029H50.1029H50.1029H50.1028H50.1028H50.1027H50.1027H50.1026H50.1026H50.1025H50.1025H50.1025H50.1024H50.1024H50.1023H50.1023H50.1022H50.1022H50.1022H50.1021H50.1021H50.102H50.102H50.1019H50.1019H50.1018H50.1018H50.1018H50.1017H50.1017H50.1016H50.1016H50.1015H50.1015H50.1014H50.1014H50.1014H50.1013H50.1013H50.1012H50.1012H50.1011H50.1011H50.101H50.101H50.101H50.1009H50.1009H50.1008H50.1008H50.1007H50.1007H50.1006H50.1006H50.1006H50.1005H50.1005H50.1004H50.1004H50.1003H50.1003H50.1003H50.1002H50.1002H50.1001H50.1001H50.1H50.1H50.0999H50.0999H50.0999H50.0998H50.0998H50.0997H50.0997H50.0996H50.0996H50.0995H50.0995H50.0995H50.0994H50.0994H50.0993H50.0993H50.0992H50.0992H50.0992H50.0991H50.0991H50.099C50.018 40.0486 49.8764 40.1141 49.7631 40.2795L49.7594 40.2848L49.7594 40.2848C49.7573 40.2879 49.7482 40.301 49.7381 40.315C49.7241 40.3346 49.7045 40.3616 49.6792 40.3952C49.6287 40.4626 49.5556 40.5565 49.46 40.6711C49.2689 40.9002 48.9868 41.2125 48.6134 41.5596C47.8672 42.253 46.7498 43.0914 45.2571 43.6786C42.3285 44.8309 39.6344 44.4592 39.4941 44.438L39.4941 44.438C39.3721 44.4186 39.2481 44.4529 39.1476 44.5395C39.055 44.6202 38.9967 44.7453 38.9967 44.8878V55.1463C38.9967 59.1229 41.6008 62.4233 44.3688 64.7991C47.1226 67.1627 49.938 68.5235 50.1549 68.6267L50.1554 68.6269C50.2136 68.6547 50.2735 68.6679 50.336 68.6679C50.4021 68.6679 50.4681 68.6532 50.5231 68.6269L50.524 68.6265C50.7411 68.5235 53.5592 67.1626 56.3154 64.799C59.086 62.4231 61.6922 59.1228 61.6922 55.1463V44.8878C61.6922 44.7594 61.6327 44.6277 61.5317 44.5389C61.4323 44.4515 61.2989 44.4134 61.1833 44.4303L61.1833 44.4303C61.0438 44.4498 58.1145 44.8253 55.1683 43.6652L50.4709 40.2616ZM50.4709 40.2616L50.4755 40.2675M50.4709 40.2616L50.4755 40.2675M50.4755 40.2675C50.4744 40.266 50.4846 40.2791 50.4998 40.2981M50.4755 40.2675L50.4998 40.2981M50.4998 40.2981C50.5153 40.3173 50.537 40.344 50.565 40.3775M50.4998 40.2981L50.565 40.3775M50.565 40.3775C50.6208 40.4443 50.7016 40.5381 50.8065 40.6527M50.565 40.3775L50.8065 40.6527M50.8065 40.6527C51.016 40.8817 51.3227 41.1947 51.7203 41.5427M50.8065 40.6527L51.7203 41.5427M51.7203 41.5427C52.514 42.2372 53.6795 43.079 55.1683 43.6652L51.7203 41.5427ZM50.1117 67.5887L50.3448 67.7113L50.5777 67.5884C51.5459 67.0778 54.0809 65.6462 56.3807 63.5253C58.6672 61.4167 60.8116 58.5428 60.8116 55.1463V45.9153V45.3988L60.2953 45.4156C59.016 45.4573 56.9935 45.37 54.8586 44.5303C52.8045 43.7216 51.3238 42.482 50.5058 41.6658L50.1412 41.302L49.7884 41.6772C49.0164 42.498 47.617 43.7264 45.5765 44.5303C43.4806 45.3551 41.4796 45.4525 40.3929 45.4185L39.8773 45.4023V45.9182V55.1463C39.8773 58.5488 42.0209 61.4231 44.3076 63.5308C46.6073 65.6504 49.1424 67.079 50.1117 67.5887Z" fill="white" stroke="white"/>
<path d="M48.7145 57.1638L49.0845 57.5119L49.4267 57.1363L55.3499 50.6348C55.35 50.6347 55.3501 50.6346 55.3502 50.6346C55.5158 50.4538 55.7901 50.4436 55.9674 50.6094C56.1487 50.7799 56.1607 51.0707 55.9916 51.2565L49.4284 58.4608L49.4282 58.461C49.3487 58.5485 49.2397 58.5988 49.1246 58.6032L49.113 58.6036L49.1113 58.6038L49.1079 58.6038C48.9989 58.6038 48.8931 58.5622 48.8116 58.4853L48.8112 58.4849L45.0077 54.9051L45.0074 54.9048C44.827 54.7353 44.8149 54.4439 44.9845 54.2581C45.1491 54.0777 45.4237 54.0674 45.6009 54.2344L45.6012 54.2346L48.7145 57.1638Z" fill="white" stroke="white"/>
</g>
<ellipse cx="30.8825" cy="29.8316" rx="1.57184" ry="1.57184" fill="white"/>
<ellipse cx="37.1699" cy="29.8316" rx="1.57184" ry="1.57184" fill="white"/>
<ellipse cx="43.4571" cy="29.8316" rx="1.57184" ry="1.57184" fill="white"/>
<ellipse cx="49.7446" cy="29.8316" rx="1.57184" ry="1.57184" fill="white"/>
<path d="M62.1921 39.326V18.6666C62.1921 14.8631 59.2532 11.7797 55.6412 11.7797H24.9858C21.3678 11.7797 18.4349 14.8652 18.4349 18.6451V62.3025C18.4349 66.0941 21.3664 69.1679 24.9878 69.1679H35.9378" stroke="white" stroke-width="2"/>
<defs>
<filter id="filter0_d_249_5176" x="34.4967" y="35.5486" width="31.6954" height="37.6193" filterUnits="userSpaceOnUse" color-interpolation-filters="sRGB">
<feFlood flood-opacity="0" result="BackgroundImageFix"/>
<feColorMatrix in="SourceAlpha" type="matrix" values="0 0 0 0 0 0 0 0 0 0 0 0 0 0 0 0 0 0 127 0" result="hardAlpha"/>
<feOffset/>
<feGaussianBlur stdDeviation="2"/>
<feColorMatrix type="matrix" values="0 0 0 0 1 0 0 0 0 1 0 0 0 0 1 0 0 0 0.12 0"/>
<feBlend mode="normal" in2="BackgroundImageFix" result="effect1_dropShadow_249_5176"/>
<feBlend mode="normal" in="SourceGraphic" in2="effect1_dropShadow_249_5176" result="shape"/>
</filter>
</defs>
</svg>
