<svg width="81" height="81" viewBox="0 0 81 81" fill="none" xmlns="http://www.w3.org/2000/svg">
<rect x="0.813538" y="0.809082" width="79" height="79" rx="11.5" fill="#224B9C" stroke="#224B9C"/>
<mask id="path-2-inside-1_249_5181" fill="white">
<path d="M64.6641 48.5942L64.6642 48.5973C64.6682 48.6911 64.6531 48.7856 64.619 48.8742C64.5871 48.957 64.5386 49.0345 64.4735 49.1015L62.6256 51.0014C62.3704 51.2637 61.9568 51.2637 61.7016 51.0014C61.4465 50.7391 61.4465 50.3138 61.7016 50.0514L62.4342 49.2982H57.9137C55.6284 49.2982 53.7759 51.2029 53.7759 53.5524C53.7759 54.9906 54.4694 56.2624 55.5344 57.0334C55.8294 57.247 55.9002 57.666 55.6924 57.9694C55.4847 58.2727 55.0771 58.3454 54.7821 58.1318C53.3845 57.1199 52.4692 55.4461 52.4692 53.5524C52.4692 50.4609 54.9068 47.9548 57.9137 47.9548H62.4343L61.7016 47.2015C61.4465 46.9392 61.4465 46.5139 61.7016 46.2516C61.9567 45.9893 62.3704 45.9893 62.6256 46.2516L64.4735 48.1515C64.5771 48.258 64.6386 48.3913 64.6581 48.5297C64.6611 48.5511 64.6631 48.5726 64.6641 48.5942Z"/>
<path d="M57.2611 58.9581L57.2609 58.955C57.257 58.8612 57.2721 58.7667 57.3062 58.6781C57.3381 58.5954 57.3866 58.5178 57.4517 58.4508L59.2996 56.5509C59.5548 56.2886 59.9684 56.2886 60.2236 56.5509C60.4787 56.8133 60.4787 57.2386 60.2236 57.5009L59.491 58.2541L64.0115 58.2541C66.2968 58.2541 68.1493 56.3494 68.1493 53.9999C68.1493 52.5617 67.4557 51.2899 66.3908 50.5189C66.0957 50.3053 66.025 49.8863 66.2328 49.583C66.4405 49.2796 66.8481 49.2069 67.1431 49.4205C68.5407 50.4324 69.456 52.1062 69.456 53.9999C69.456 57.0914 67.0184 59.5975 64.0115 59.5975L59.4909 59.5975L60.2236 60.3508C60.4787 60.6131 60.4787 61.0384 60.2236 61.3007C59.9684 61.563 59.5548 61.563 59.2996 61.3007L57.4517 59.4008C57.3481 59.2944 57.2866 59.161 57.2671 59.0226C57.2641 59.0012 57.2621 58.9797 57.2611 58.9581Z"/>
</mask>
<path d="M64.6641 48.5942L64.6642 48.5973C64.6682 48.6911 64.6531 48.7856 64.619 48.8742C64.5871 48.957 64.5386 49.0345 64.4735 49.1015L62.6256 51.0014C62.3704 51.2637 61.9568 51.2637 61.7016 51.0014C61.4465 50.7391 61.4465 50.3138 61.7016 50.0514L62.4342 49.2982H57.9137C55.6284 49.2982 53.7759 51.2029 53.7759 53.5524C53.7759 54.9906 54.4694 56.2624 55.5344 57.0334C55.8294 57.247 55.9002 57.666 55.6924 57.9694C55.4847 58.2727 55.0771 58.3454 54.7821 58.1318C53.3845 57.1199 52.4692 55.4461 52.4692 53.5524C52.4692 50.4609 54.9068 47.9548 57.9137 47.9548H62.4343L61.7016 47.2015C61.4465 46.9392 61.4465 46.5139 61.7016 46.2516C61.9567 45.9893 62.3704 45.9893 62.6256 46.2516L64.4735 48.1515C64.5771 48.258 64.6386 48.3913 64.6581 48.5297C64.6611 48.5511 64.6631 48.5726 64.6641 48.5942Z" fill="white"/>
<path d="M57.2611 58.9581L57.2609 58.955C57.257 58.8612 57.2721 58.7667 57.3062 58.6781C57.3381 58.5954 57.3866 58.5178 57.4517 58.4508L59.2996 56.5509C59.5548 56.2886 59.9684 56.2886 60.2236 56.5509C60.4787 56.8133 60.4787 57.2386 60.2236 57.5009L59.491 58.2541L64.0115 58.2541C66.2968 58.2541 68.1493 56.3494 68.1493 53.9999C68.1493 52.5617 67.4557 51.2899 66.3908 50.5189C66.0957 50.3053 66.025 49.8863 66.2328 49.583C66.4405 49.2796 66.8481 49.2069 67.1431 49.4205C68.5407 50.4324 69.456 52.1062 69.456 53.9999C69.456 57.0914 67.0184 59.5975 64.0115 59.5975L59.4909 59.5975L60.2236 60.3508C60.4787 60.6131 60.4787 61.0384 60.2236 61.3007C59.9684 61.563 59.5548 61.563 59.2996 61.3007L57.4517 59.4008C57.3481 59.2944 57.2866 59.161 57.2671 59.0226C57.2641 59.0012 57.2621 58.9797 57.2611 58.9581Z" fill="white"/>
<path d="M64.6642 48.5973L84.6465 47.7559L84.6452 47.7231L84.6437 47.6903L64.6642 48.5973ZM64.6641 48.5942L84.6435 47.6873L84.6431 47.677L84.6426 47.6668L64.6641 48.5942ZM64.619 48.8742L83.283 56.0614L83.283 56.0614L64.619 48.8742ZM64.4735 49.1015L50.1367 35.1567L50.1367 35.1567L64.4735 49.1015ZM62.6256 51.0014L48.2888 37.0566L48.2888 37.0566L62.6256 51.0014ZM61.7016 51.0014L76.0384 37.0566L76.0384 37.0566L61.7016 51.0014ZM61.7016 50.0514L76.0384 63.9962L76.0384 63.9962L61.7016 50.0514ZM62.4342 49.2982L76.771 63.243L109.788 29.2983H62.4342V49.2982ZM55.5344 57.0334L43.8057 73.2334L43.8058 73.2334L55.5344 57.0334ZM55.6924 57.9694L72.1929 69.2713L72.1929 69.2713L55.6924 57.9694ZM54.7821 58.1318L43.0534 74.3318L43.0534 74.3318L54.7821 58.1318ZM62.4343 47.9548V67.9548H109.788L76.7711 34.0101L62.4343 47.9548ZM61.7016 47.2015L47.3648 61.1463L61.7016 47.2015ZM61.7016 46.2516L47.3648 32.3068L47.3648 32.3068L61.7016 46.2516ZM62.6256 46.2516L76.9623 32.3068L76.9623 32.3068L62.6256 46.2516ZM64.4735 48.1515L50.1367 62.0963L50.1367 62.0963L64.4735 48.1515ZM64.6581 48.5297L84.4627 45.7409L84.4627 45.7407L64.6581 48.5297ZM57.2609 58.955L37.2787 59.7964L37.28 59.8291L37.2815 59.8618L57.2609 58.955ZM57.2611 58.9581L37.2817 59.8649L37.2821 59.8752L37.2826 59.8855L57.2611 58.9581ZM57.3062 58.6781L38.6422 51.4909L38.6422 51.4909L57.3062 58.6781ZM57.4517 58.4508L71.7884 72.3956L71.7885 72.3956L57.4517 58.4508ZM59.2996 56.5509L73.6364 70.4957L73.6364 70.4957L59.2996 56.5509ZM60.2236 56.5509L45.8868 70.4957L45.8868 70.4957L60.2236 56.5509ZM60.2236 57.5009L45.8868 43.5561L45.8868 43.5561L60.2236 57.5009ZM59.491 58.2541L45.1542 44.3093L12.1376 78.2541L59.491 78.2541L59.491 58.2541ZM64.0115 58.2541L64.0115 78.2541H64.0115L64.0115 58.2541ZM68.1493 53.9999L48.1493 53.9999L68.1493 53.9999ZM66.3908 50.5189L78.1194 34.319L78.1194 34.319L66.3908 50.5189ZM66.2328 49.583L49.7323 38.281L49.7323 38.281L66.2328 49.583ZM67.1431 49.4205L78.8718 33.2206L78.8718 33.2206L67.1431 49.4205ZM69.456 53.9999L89.456 53.9999L69.456 53.9999ZM64.0115 59.5975L64.0115 79.5975H64.0115L64.0115 59.5975ZM59.4909 59.5975L59.4909 39.5975L12.1374 39.5975L45.1541 73.5423L59.4909 59.5975ZM60.2236 60.3508L45.8868 74.2956H45.8868L60.2236 60.3508ZM60.2236 61.3007L74.5604 75.2455V75.2455L60.2236 61.3007ZM59.2996 61.3007L44.9628 75.2455L44.9629 75.2455L59.2996 61.3007ZM57.4517 59.4008L71.7885 45.4561L71.7885 45.456L57.4517 59.4008ZM57.2671 59.0226L37.4625 61.8114L37.4625 61.8116L57.2671 59.0226ZM84.6437 47.6903L84.6435 47.6873L44.6847 49.5012L44.6848 49.5043L84.6437 47.6903ZM83.283 56.0614C84.3193 53.3702 84.7637 50.5393 84.6465 47.7559L44.6819 49.4387C44.5726 46.8429 44.9869 44.2011 45.955 41.687L83.283 56.0614ZM78.8102 63.0463C80.8135 60.9867 82.3083 58.5926 83.283 56.0614L45.955 41.687C46.866 39.3214 48.2637 37.0824 50.1367 35.1567L78.8102 63.0463ZM76.9623 64.9462L78.8103 63.0463L50.1367 35.1567L48.2888 37.0566L76.9623 64.9462ZM47.3648 64.9462C55.4729 73.2821 68.8543 73.2821 76.9623 64.9462L48.2888 37.0566C55.8865 29.2453 68.4406 29.2453 76.0384 37.0566L47.3648 64.9462ZM47.3648 36.1067C39.5587 44.1322 39.5587 56.9206 47.3648 64.9462L76.0384 37.0566C83.3342 44.5575 83.3342 56.4953 76.0384 63.9962L47.3648 36.1067ZM48.0974 35.3535L47.3648 36.1067L76.0384 63.9962L76.771 63.243L48.0974 35.3535ZM57.9137 69.2983H62.4342V29.2983H57.9137V69.2983ZM73.7759 53.5524C73.7759 61.7223 67.1931 69.2983 57.9137 69.2983V29.2983C44.0637 29.2983 33.7759 40.6835 33.7759 53.5524H73.7759ZM67.2631 40.8335C71.29 43.7489 73.7759 48.4502 73.7759 53.5524H33.7759C33.7759 61.5311 37.6489 68.7758 43.8057 73.2334L67.2631 40.8335ZM72.1929 69.2713C78.4317 60.1628 76.4773 47.5045 67.2631 40.8335L43.8058 73.2334C35.1815 66.9895 33.3687 55.1693 39.1919 46.6674L72.1929 69.2713ZM43.0534 74.3318C52.609 81.2499 65.7315 78.7048 72.1929 69.2713L39.192 46.6674C45.2379 37.8406 57.5452 35.4409 66.5107 41.9319L43.0534 74.3318ZM32.4692 53.5524C32.4692 61.9935 36.5697 69.6376 43.0534 74.3318L66.5108 41.9319C70.1992 44.6023 72.4692 48.8986 72.4692 53.5524H32.4692ZM57.9137 27.9548C43.342 27.9548 32.4692 39.9415 32.4692 53.5524H72.4692C72.4692 60.9804 66.4715 67.9548 57.9137 67.9548V27.9548ZM62.4343 27.9548H57.9137V67.9548H62.4343V27.9548ZM76.7711 34.0101L76.0384 33.2568L47.3648 61.1463L48.0975 61.8996L76.7711 34.0101ZM76.0384 33.2568C83.3342 40.7577 83.3342 52.6955 76.0384 60.1964L47.3648 32.3068C39.5587 40.3324 39.5587 53.1208 47.3648 61.1463L76.0384 33.2568ZM76.0384 60.1964C68.4406 68.0077 55.8865 68.0077 48.2888 60.1964L76.9623 32.3068C68.8543 23.9709 55.4729 23.9709 47.3648 32.3068L76.0384 60.1964ZM48.2888 60.1964L50.1367 62.0963L78.8103 34.2067L76.9623 32.3068L48.2888 60.1964ZM50.1367 62.0963C47.1387 59.014 45.3973 55.1804 44.8535 51.3186L84.4627 45.7407C83.8799 41.6022 82.0154 37.5019 78.8102 34.2067L50.1367 62.0963ZM44.8535 51.3184C44.7694 50.7216 44.7135 50.122 44.6856 49.5216L84.6426 47.6668C84.6127 47.0232 84.5528 46.3806 84.4627 45.7409L44.8535 51.3184ZM37.2815 59.8618L37.2817 59.8649L77.2405 58.0513L77.2404 58.0482L37.2815 59.8618ZM38.6422 51.4909C37.6058 54.1822 37.1615 57.0131 37.2787 59.7964L77.2432 58.1136C77.3525 60.7093 76.9383 63.3512 75.9701 65.8653L38.6422 51.4909ZM43.1149 44.506C41.1117 46.5656 39.6169 48.9597 38.6422 51.4909L75.9701 65.8654C75.0592 68.231 73.6614 70.47 71.7884 72.3956L43.1149 44.506ZM44.9628 42.6061L43.1149 44.506L71.7885 72.3956L73.6364 70.4957L44.9628 42.6061ZM74.5604 42.6062C66.4523 34.2702 53.0709 34.2702 44.9628 42.6062L73.6364 70.4957C66.0387 78.307 53.4845 78.307 45.8868 70.4957L74.5604 42.6062ZM74.5603 71.4457C82.3665 63.4201 82.3665 50.6317 74.5603 42.6061L45.8868 70.4957C38.591 62.9948 38.591 51.057 45.8868 43.5561L74.5603 71.4457ZM73.8278 72.1988L74.5604 71.4456L45.8868 43.5561L45.1542 44.3093L73.8278 72.1988ZM64.0115 38.2541L59.491 38.2541L59.491 78.2541H64.0115L64.0115 38.2541ZM48.1493 53.9999C48.1493 45.83 54.732 38.2541 64.0115 38.2541L64.0115 78.2541C77.8615 78.2541 88.1493 66.8688 88.1493 53.9999L48.1493 53.9999ZM54.6621 66.7188C50.6352 63.8034 48.1493 59.1021 48.1493 53.9999L88.1493 53.9999C88.1493 46.0213 84.2763 38.7765 78.1194 34.319L54.6621 66.7188ZM49.7323 38.281C43.4934 47.3895 45.4479 60.0478 54.6621 66.7189L78.1194 34.319C86.7436 40.5628 88.5566 52.383 82.7332 60.8849L49.7323 38.281ZM78.8718 33.2206C69.3162 26.3024 56.1937 28.8476 49.7323 38.281L82.7332 60.8849C76.6873 69.7117 64.38 72.1114 55.4144 65.6205L78.8718 33.2206ZM89.456 53.9999C89.456 45.5588 85.3555 37.9147 78.8718 33.2206L55.4144 65.6205C51.726 62.95 49.456 58.6537 49.456 53.9999L89.456 53.9999ZM64.0115 79.5975C78.5832 79.5975 89.456 67.6108 89.456 53.9999L49.456 53.9999C49.456 46.572 55.4537 39.5975 64.0115 39.5975L64.0115 79.5975ZM59.4909 79.5975H64.0115L64.0115 39.5975L59.4909 39.5975L59.4909 79.5975ZM45.1541 73.5423L45.8868 74.2956L74.5604 46.406L73.8277 45.6527L45.1541 73.5423ZM45.8868 74.2956C38.591 66.7946 38.591 54.8568 45.8868 47.3559L74.5604 75.2455C82.3665 67.2199 82.3665 54.4315 74.5604 46.406L45.8868 74.2956ZM45.8868 47.3559C53.4845 39.5446 66.0387 39.5446 73.6364 47.3559L44.9629 75.2455C53.0709 83.5814 66.4523 83.5814 74.5604 75.2455L45.8868 47.3559ZM73.6364 47.3559L71.7885 45.4561L43.1149 73.3456L44.9628 75.2455L73.6364 47.3559ZM71.7885 45.456C74.7865 48.5383 76.5279 52.3719 77.0717 56.2337L37.4625 61.8116C38.0453 65.9501 39.9098 70.0504 43.1149 73.3456L71.7885 45.456ZM77.0717 56.2339C77.1558 56.8312 77.2117 57.4308 77.2396 58.0307L37.2826 59.8855C37.3125 60.5286 37.3724 61.1713 37.4625 61.8114L77.0717 56.2339Z" fill="white" mask="url(#path-2-inside-1_249_5181)"/>
<line x1="12.5711" y1="24.2488" x2="38.5029" y2="43.6977" stroke="white" stroke-width="2" stroke-linecap="round"/>
<line x1="38.9033" y1="43.6978" x2="64.8351" y2="24.2489" stroke="white" stroke-width="2" stroke-linecap="round"/>
<mask id="path-6-inside-2_249_5181" fill="white">
<path fill-rule="evenodd" clip-rule="evenodd" d="M17.1711 18.9419H60.2351C62.4443 18.9419 64.2351 20.7328 64.2351 22.9419V42.4333H66.2351V22.9419C66.2351 19.6282 63.5488 16.9419 60.2351 16.9419H17.1711C13.8574 16.9419 11.1711 19.6282 11.1711 22.9419V57.6763C11.1711 60.99 13.8574 63.6763 17.1711 63.6763H51.9594V61.6763H17.1711C14.9619 61.6763 13.1711 59.8854 13.1711 57.6763V22.9419C13.1711 20.7328 14.9619 18.9419 17.1711 18.9419Z"/>
</mask>
<path fill-rule="evenodd" clip-rule="evenodd" d="M17.1711 18.9419H60.2351C62.4443 18.9419 64.2351 20.7328 64.2351 22.9419V42.4333H66.2351V22.9419C66.2351 19.6282 63.5488 16.9419 60.2351 16.9419H17.1711C13.8574 16.9419 11.1711 19.6282 11.1711 22.9419V57.6763C11.1711 60.99 13.8574 63.6763 17.1711 63.6763H51.9594V61.6763H17.1711C14.9619 61.6763 13.1711 59.8854 13.1711 57.6763V22.9419C13.1711 20.7328 14.9619 18.9419 17.1711 18.9419Z" fill="white"/>
<path d="M64.2351 42.4333H62.2351V44.4333H64.2351V42.4333ZM66.2351 42.4333V44.4333H68.2351V42.4333H66.2351ZM51.9594 63.6763V65.6763H53.9594V63.6763H51.9594ZM51.9594 61.6763H53.9594V59.6763H51.9594V61.6763ZM60.2351 16.9419H17.1711V20.9419H60.2351V16.9419ZM66.2351 22.9419C66.2351 19.6282 63.5488 16.9419 60.2351 16.9419V20.9419C61.3397 20.9419 62.2351 21.8373 62.2351 22.9419H66.2351ZM66.2351 42.4333V22.9419H62.2351V42.4333H66.2351ZM64.2351 44.4333H66.2351V40.4333H64.2351V44.4333ZM68.2351 42.4333V22.9419H64.2351V42.4333H68.2351ZM68.2351 22.9419C68.2351 18.5236 64.6534 14.9419 60.2351 14.9419V18.9419C62.4443 18.9419 64.2351 20.7328 64.2351 22.9419H68.2351ZM60.2351 14.9419H17.1711V18.9419H60.2351V14.9419ZM17.1711 14.9419C12.7528 14.9419 9.17108 18.5236 9.17108 22.9419H13.1711C13.1711 20.7328 14.9619 18.9419 17.1711 18.9419V14.9419ZM9.17108 22.9419V57.6763H13.1711V22.9419H9.17108ZM9.17108 57.6763C9.17108 62.0945 12.7528 65.6763 17.1711 65.6763V61.6763C14.9619 61.6763 13.1711 59.8854 13.1711 57.6763H9.17108ZM17.1711 65.6763H51.9594V61.6763H17.1711V65.6763ZM53.9594 63.6763V61.6763H49.9594V63.6763H53.9594ZM17.1711 63.6763H51.9594V59.6763H17.1711V63.6763ZM11.1711 57.6763C11.1711 60.99 13.8574 63.6763 17.1711 63.6763V59.6763C16.0665 59.6763 15.1711 58.7808 15.1711 57.6763H11.1711ZM11.1711 22.9419V57.6763H15.1711V22.9419H11.1711ZM17.1711 16.9419C13.8574 16.9419 11.1711 19.6282 11.1711 22.9419H15.1711C15.1711 21.8373 16.0665 20.9419 17.1711 20.9419V16.9419Z" fill="white" mask="url(#path-6-inside-2_249_5181)"/>
</svg>
