<svg width="80" height="80" viewBox="0 0 80 80" fill="none" xmlns="http://www.w3.org/2000/svg">
<path d="M68 0.5H12C5.64873 0.5 0.5 5.64873 0.5 12V68C0.5 74.3513 5.64873 79.5 12 79.5H68C74.3513 79.5 79.5 74.3513 79.5 68V12C79.5 5.64873 74.3513 0.5 68 0.5Z" fill="#0D8523" stroke="#0D8523"/>
<path d="M37.93 65.042C36.59 64.341 34.953 63.707 33.219 63.036C26.809 60.556 18.834 57.467 19.003 48.569V21.832L22.932 21.83C27.809 21.827 31.996 21.556 37.762 18.171L39.757 17L41.752 18.171C47.519 21.555 51.707 21.827 56.582 21.83L60.512 21.833V48.558C60.696 57.462 52.712 60.552 46.297 63.036C44.563 63.707 42.924 64.341 41.585 65.042L39.755 66L37.929 65.042H37.93Z" stroke="white" stroke-opacity="0.96" stroke-miterlimit="10" stroke-linecap="square" stroke-linejoin="round"/>
<path d="M39.758 61.248C38.24 60.465 36.539 59.806 34.741 59.11C31.827 57.983 28.531 56.706 26.255 54.907C24.1 53.202 23.162 51.272 23.212 48.648L23.213 48.568V26.038C28.406 26.023 33.275 25.652 39.758 21.881C46.242 25.651 51.11 26.024 56.303 26.039V48.603L56.305 48.647C56.36 51.271 55.423 53.2 53.269 54.905C50.994 56.706 47.693 57.985 44.779 59.112C42.979 59.806 41.277 60.465 39.759 61.248H39.758Z" stroke="white" stroke-opacity="0.96" stroke-miterlimit="10" stroke-linecap="square" stroke-linejoin="round"/>
<path d="M47.705 42.717C47.8649 41.614 47.8059 40.4902 47.5315 39.41C47.2571 38.3297 46.7726 37.3141 46.1057 36.4211C45.4388 35.528 44.6026 34.7751 43.6447 34.2053C42.6868 33.6355 41.626 33.2599 40.523 33.1C39.42 32.9401 38.2962 32.9991 37.216 33.2735C36.1357 33.5479 35.1201 34.0323 34.227 34.6993C33.334 35.3662 32.5811 36.2024 32.0113 37.1603C31.4415 38.1182 31.0659 39.179 30.906 40.282C30.5831 42.5097 31.1584 44.7744 32.5052 46.5779C33.8521 48.3815 35.8603 49.5761 38.088 49.899C40.3157 50.2219 42.5804 49.6466 44.3839 48.2998C46.1875 46.9529 47.3821 44.9447 47.705 42.717V42.717Z" stroke="white" stroke-opacity="0.96" stroke-miterlimit="10" stroke-linecap="round" stroke-linejoin="round"/>
<path d="M43.548 34.15L45.131 31.41" stroke="white" stroke-opacity="0.96" stroke-miterlimit="10" stroke-linecap="round" stroke-linejoin="round"/>
<path d="M43.618 30.535L46.641 32.281" stroke="white" stroke-opacity="0.96" stroke-miterlimit="10" stroke-linecap="round" stroke-linejoin="round"/>
<path d="M37.109 33.303L36.289 30.246" stroke="white" stroke-opacity="0.96" stroke-miterlimit="10" stroke-linecap="round" stroke-linejoin="round"/>
<path d="M34.602 30.697L37.975 29.794" stroke="white" stroke-opacity="0.96" stroke-miterlimit="10" stroke-linecap="round" stroke-linejoin="round"/>
<path d="M31.955 37.257L29.215 35.675" stroke="white" stroke-opacity="0.96" stroke-miterlimit="10" stroke-linecap="round" stroke-linejoin="round"/>
<path d="M28.34 37.188L30.087 34.163" stroke="white" stroke-opacity="0.96" stroke-miterlimit="10" stroke-linecap="round" stroke-linejoin="round"/>
<path d="M49.395 47.325L46.655 45.745" stroke="white" stroke-opacity="0.96" stroke-miterlimit="10" stroke-linecap="round" stroke-linejoin="round"/>
<path d="M48.522 48.84L50.268 45.815" stroke="white" stroke-opacity="0.96" stroke-miterlimit="10" stroke-linecap="round" stroke-linejoin="round"/>
<path d="M31.108 43.697L28.05 44.517" stroke="white" stroke-opacity="0.96" stroke-miterlimit="10" stroke-linecap="round" stroke-linejoin="round"/>
<path d="M28.503 46.204L27.598 42.831" stroke="white" stroke-opacity="0.96" stroke-miterlimit="10" stroke-linecap="round" stroke-linejoin="round"/>
<path d="M33.48 51.591L35.061 48.849" stroke="white" stroke-opacity="0.96" stroke-miterlimit="10" stroke-linecap="round" stroke-linejoin="round"/>
<path d="M34.992 52.465L31.967 50.719" stroke="white" stroke-opacity="0.96" stroke-miterlimit="10" stroke-linecap="round" stroke-linejoin="round"/>
<path d="M42.32 52.756L41.502 49.697" stroke="white" stroke-opacity="0.96" stroke-miterlimit="10" stroke-linecap="round" stroke-linejoin="round"/>
<path d="M44.008 52.303L40.635 53.207" stroke="white" stroke-opacity="0.96" stroke-miterlimit="10" stroke-linecap="round" stroke-linejoin="round"/>
<path d="M50.56 38.485L47.501 39.304" stroke="white" stroke-opacity="0.96" stroke-miterlimit="10" stroke-linecap="round" stroke-linejoin="round"/>
<path d="M50.107 36.796L51.011 40.171" stroke="white" stroke-opacity="0.96" stroke-miterlimit="10" stroke-linecap="round" stroke-linejoin="round"/>
<path d="M36.056 38.18C36.081 37.7666 36.2279 37.37 36.4783 37.0402C36.7287 36.7103 37.0712 36.4621 37.4626 36.3269C37.8541 36.1918 38.2768 36.1757 38.6773 36.2807C39.0779 36.3857 39.4383 36.6071 39.713 36.917" stroke="white" stroke-opacity="0.96" stroke-miterlimit="10" stroke-linecap="round" stroke-linejoin="round"/>
<path d="M43.337 40.436C43.7302 40.6743 44.044 41.0238 44.2389 41.4402C44.4337 41.8567 44.5009 42.3215 44.4319 42.7761C44.3629 43.2307 44.1608 43.6547 43.8512 43.9946C43.5416 44.3345 43.1382 44.5751 42.692 44.686" stroke="white" stroke-opacity="0.96" stroke-miterlimit="10" stroke-linecap="round" stroke-linejoin="round"/>
<path d="M37.833 46.33C37.4819 46.4551 37.1016 46.4733 36.7401 46.3823C36.3787 46.2913 36.0523 46.0952 35.8023 45.8187C35.5523 45.5423 35.3899 45.1979 35.3355 44.8292C35.2812 44.4604 35.3374 44.0838 35.497 43.747" stroke="white" stroke-opacity="0.96" stroke-miterlimit="10" stroke-linecap="round" stroke-linejoin="round"/>
<path d="M40.454 42.238C40.3601 42.4008 40.2351 42.5435 40.086 42.6579C39.937 42.7724 39.7669 42.8563 39.5854 42.905C39.4039 42.9537 39.2146 42.9662 39.0283 42.9418C38.842 42.9173 38.6623 42.8564 38.4995 42.7625C38.3367 42.6686 38.194 42.5436 38.0796 42.3945C37.9651 42.2455 37.8812 42.0754 37.8325 41.8939C37.7838 41.7124 37.7713 41.5231 37.7957 41.3368C37.8202 41.1504 37.8811 40.9708 37.975 40.808C38.1646 40.4793 38.4771 40.2393 38.8436 40.141C39.2102 40.0426 39.6008 40.0939 39.9295 40.2835C40.2582 40.4731 40.4982 40.7856 40.5965 41.1521C40.6949 41.5187 40.6436 41.9093 40.454 42.238V42.238Z" stroke="white" stroke-opacity="0.96" stroke-miterlimit="10" stroke-linecap="square" stroke-linejoin="round"/>
</svg>
