<svg width="80" height="80" fill="none" xmlns="http://www.w3.org/2000/svg"><rect x=".5" y=".5" width="79" height="79" rx="11.5" fill="#3B2C96" stroke="#3B2C96"/><path d="M43.655 53.662c-3.592 0-6.513-2.933-6.513-6.538 0-3.605 2.921-6.538 6.513-6.538 3.591 0 6.513 2.933 6.513 6.538 0 3.605-2.922 6.538-6.513 6.538Zm0-11.215c-2.57 0-4.66 2.099-4.66 4.677 0 2.579 2.09 4.677 4.66 4.677 2.57 0 4.659-2.1 4.659-4.677 0-2.58-2.09-4.677-4.66-4.677ZM40.155 62.126H38.3v5.261h1.855v-5.261ZM49.35 62.126h-1.854v5.261h1.854v-5.261Z" fill="#fff"/><path d="M36.804 67.388H34.95v-8.822c0-2.31 1.872-4.188 4.172-4.188h4.533v1.861h-4.533a2.325 2.325 0 0 0-2.318 2.327v8.822ZM52.36 67.388h-1.855v-8.822a2.325 2.325 0 0 0-2.318-2.327h-4.532v-1.861h4.532c2.301 0 4.173 1.878 4.173 4.188v8.822Z" fill="#fff"/><path d="M57.04 66.457H30.27v1.861h26.77v-1.861ZM32.132 55.796h-.134a.928.928 0 0 1-.718-.341l-6.965-8.534h-5.388a.929.929 0 0 1-.927-.93V18.93c0-.515.415-.931.927-.931h43.146c.512 0 .927.416.927.93v27.06c0 .515-.415.931-.927.931h-10.64V45.06h9.713V19.861H19.854V45.06h4.9c.279 0 .542.126.718.34l5.5 6.738-.516-6.068a.931.931 0 0 1 .924-1.01h4.703v1.861H32.39l.667 7.865a.93.93 0 0 1-.925 1.01Z" fill="#fff"/><path d="M32.328 33.27c0-.503.09-.923.27-1.26.192-.335.426-.623.702-.863.288-.24.594-.45.918-.63a9.34 9.34 0 0 0 .918-.594c.288-.204.522-.438.702-.702.192-.276.288-.618.288-1.026 0-.516-.21-.93-.63-1.242-.408-.324-1.032-.486-1.872-.486-.648 0-1.2.072-1.656.216a5.478 5.478 0 0 0-1.26.576v-2.034a6.558 6.558 0 0 1 1.314-.36 10.44 10.44 0 0 1 1.818-.144c1.356 0 2.4.264 3.132.792.744.516 1.116 1.362 1.116 2.538 0 .576-.102 1.062-.306 1.458a3.39 3.39 0 0 1-.738.99 5.104 5.104 0 0 1-.954.72c-.336.192-.654.39-.954.594a3.843 3.843 0 0 0-.738.63 1.243 1.243 0 0 0-.288.828h-1.782Zm-.45 3.115c0-.372.096-.678.288-.918.204-.252.552-.378 1.044-.378s.84.126 1.044.378c.204.24.306.546.306.918s-.102.684-.306.936c-.192.24-.54.36-1.044.36-.48 0-.822-.126-1.026-.378a1.412 1.412 0 0 1-.306-.918ZM47.455 29.67c0-.505.09-.925.27-1.26.192-.337.426-.625.702-.865.288-.24.594-.45.918-.63a9.34 9.34 0 0 0 .918-.594c.288-.204.522-.438.702-.702.192-.276.288-.618.288-1.026 0-.516-.21-.93-.63-1.242-.408-.324-1.032-.486-1.872-.486-.648 0-1.2.072-1.656.216a5.478 5.478 0 0 0-1.26.576v-2.034a6.558 6.558 0 0 1 1.314-.36 10.44 10.44 0 0 1 1.818-.144c1.356 0 2.4.264 3.132.792.744.516 1.116 1.362 1.116 2.538 0 .576-.102 1.062-.306 1.458a3.39 3.39 0 0 1-.738.99 5.104 5.104 0 0 1-.954.72c-.336.192-.654.39-.954.594a3.843 3.843 0 0 0-.738.63 1.243 1.243 0 0 0-.288.828h-1.782Zm-.45 3.113c0-.372.096-.678.288-.918.204-.252.552-.378 1.044-.378s.84.126 1.044.378c.204.24.306.546.306.918s-.102.684-.306.936c-.192.24-.54.36-1.044.36-.48 0-.822-.126-1.026-.378a1.412 1.412 0 0 1-.306-.918Z" fill="#fff"/></svg>