<svg width="80" height="80" viewBox="0 0 80 80" fill="none" xmlns="http://www.w3.org/2000/svg">
<path d="M68 0.5H12C5.64873 0.5 0.5 5.64873 0.5 12V68C0.5 74.3513 5.64873 79.5 12 79.5H68C74.3513 79.5 79.5 74.3513 79.5 68V12C79.5 5.64873 74.3513 0.5 68 0.5Z" fill="#C07DC1" stroke="#C07DC1"/>
<path fill-rule="evenodd" clip-rule="evenodd" d="M29.187 12.4091C26.3488 12.4091 24.0481 14.6986 24.0481 17.5228V61.1591C24.0481 63.9833 26.3488 66.2728 29.187 66.2728H49.2336C52.0716 66.2728 54.3725 63.9833 54.3725 61.1591V55.7046H52.3169V61.1591C52.3169 62.8536 50.9364 64.2273 49.2336 64.2273H29.187C27.4842 64.2273 26.1037 62.8536 26.1037 61.1591V17.5228C26.1037 15.8282 27.4842 14.4546 29.187 14.4546H49.2336C50.9364 14.4546 52.3169 15.8282 52.3169 17.5228V24.3409H54.3725V17.5228C54.3725 14.6986 52.0716 12.4091 49.2336 12.4091H29.187Z" fill="white"/>
<path fill-rule="evenodd" clip-rule="evenodd" d="M59.335 53.2273C59.335 53.4909 59.1203 53.7046 58.8554 53.7046H31.0369C30.772 53.7046 30.5573 53.4909 30.5573 53.2273C30.5573 52.9637 30.772 52.7501 31.0369 52.7501H58.8554C59.1203 52.7501 59.335 52.9637 59.335 53.2273Z" fill="white"/>
<path d="M40.1499 52.75V46.7955C40.1499 46.5695 40.3339 46.3864 40.561 46.3864H42.9363C43.1633 46.3864 43.3474 46.5695 43.3474 46.7955V52.75" stroke="white" stroke-width="0.6"/>
<path d="M33.7548 52.7499V43.6136C33.7548 43.3876 33.9388 43.2045 34.1659 43.2045H36.5411C36.7682 43.2045 36.9522 43.3876 36.9522 43.6136V52.7499" stroke="white" stroke-width="0.6"/>
<path d="M46.5452 52.7501V38.841C46.5452 38.615 46.7292 38.4319 46.9563 38.4319H49.3315C49.5586 38.4319 49.7426 38.615 49.7426 38.841V52.7501" stroke="white" stroke-width="0.6"/>
<path d="M52.9399 52.75V32.4773C52.9399 32.2514 53.124 32.0682 53.3511 32.0682H55.7263C55.9534 32.0682 56.1374 32.2514 56.1374 32.4773V52.75" stroke="white" stroke-width="0.6"/>
<path d="M36.1529 39.6137C37.2503 39.6137 38.14 38.7284 38.14 37.6364C38.14 36.5444 37.2503 35.6591 36.1529 35.6591C35.0555 35.6591 34.1659 36.5444 34.1659 37.6364C34.1659 38.7284 35.0555 39.6137 36.1529 39.6137Z" stroke="white" stroke-width="0.6"/>
<path d="M40.9492 44.3864C42.0466 44.3864 42.9362 43.5011 42.9362 42.4091C42.9362 41.3171 42.0466 40.4318 40.9492 40.4318C39.8518 40.4318 38.9622 41.3171 38.9622 42.4091C38.9622 43.5011 39.8518 44.3864 40.9492 44.3864Z" stroke="white" stroke-width="0.6"/>
<path d="M47.3443 36.4318C48.4417 36.4318 49.3314 35.5466 49.3314 34.4546C49.3314 33.3626 48.4417 32.4773 47.3443 32.4773C46.2469 32.4773 45.3573 33.3626 45.3573 34.4546C45.3573 35.5466 46.2469 36.4318 47.3443 36.4318Z" stroke="white" stroke-width="0.6"/>
<path d="M52.1406 30.0682C53.238 30.0682 54.1276 29.1829 54.1276 28.0909C54.1276 26.9989 53.238 26.1136 52.1406 26.1136C51.0432 26.1136 50.1536 26.9989 50.1536 28.0909C50.1536 29.1829 51.0432 30.0682 52.1406 30.0682Z" stroke="white" stroke-width="0.6"/>
<path d="M37.7517 39.2273L39.3505 40.8181" stroke="white" stroke-width="0.6"/>
<path d="M42.5483 40.8183L46.102 36.1792" stroke="white" stroke-width="0.6"/>
<path d="M48.9431 32.8637L51.1097 29.9123" stroke="white" stroke-width="0.6"/>
</svg>
