<svg width="80" height="80" fill="none" xmlns="http://www.w3.org/2000/svg"><rect x=".5" y=".5" width="79" height="79" rx="11.5" fill="#4C1C73" stroke="#4C1C73"/><path d="M36.469 18.437s-1.004-2.077.646-2.35c1.94-.32 2.047 4.486 1.94 7.262 0 0 0-5.98 1.4-7.048 1.4-1.068 2.154.961 1.507 2.029M25.158 20.038s3.555 1.175 3.34 5.767M28.928 17.69s-.215 4.378 3.232 5.872M26.881 22.922l3.663-2.243M17.187 31.678V29.33h1.508v-2.136h1.292v-2.135h1.185M19.664 32.853v-2.35h1.508v-2.135h1.293v-2.136h1.185M15.355 42.464s-.323-1.495 2.693-1.174" stroke="#fff" stroke-width=".5" stroke-miterlimit="10" stroke-linecap="round" stroke-linejoin="round"/><path d="M21.064 41.61s.216-2.243-3.662-1.922c-3.878.32-2.646 1.44-1.161 1.68" stroke="#fff" stroke-width=".5" stroke-miterlimit="10" stroke-linecap="round" stroke-linejoin="round"/><path d="M19.18 39.688c.683 0 1.238-.55 1.238-1.228 0-.678-.555-1.228-1.239-1.228s-1.239.55-1.239 1.228c0 .678.555 1.228 1.24 1.228ZM23.219 51.114l-6.463-1.602M19.018 48.231l-2.262 1.281 1.4 2.136M21.495 48.979l-.646 3.096M32.16 56.988l-1.616 2.67c-.323.534-1.185 1.602-1.832 1.708-.646.107-.97-.64-.538-1.602 0 0-1.508 1.389-1.832.107-.323-1.281.97-2.883 2.155-4.378 1.185-1.495-.431-1.709-.431-1.709M30.76 56.027l-2.586 3.737" stroke="#fff" stroke-width=".5" stroke-miterlimit="10" stroke-linecap="round" stroke-linejoin="round"/><path d="M29.629 60.792s-.163.681.269 1.215M50.459 54.75l1.91 2.472c.382.494 1.067 1.681.93 2.316-.139.636-.959.659-1.702-.092 0 0 .49 1.92-.573 1.727-1.36-.246-2.133-1.954-3.1-3.596-.966-1.642-1.977-1.87-1.977-1.87M49.042 55.688l2.556 3.758" stroke="#fff" stroke-width=".5" stroke-miterlimit="10" stroke-linecap="round" stroke-linejoin="round"/><path d="M53.097 58.483s.579.4 1.238.199M28.713 53.037l-1.185.534.43.854M35.714 59.123h6.68M35.714 61.366h2.478s-1.185.961-.431 2.243c.754 1.281 2.477 1.068 3.124.107.646-.962 0-2.136-.43-2.35h1.938M48.82 59.123s.682 1.282-.61 1.389c-1.293.106-2.262-3.525-.323-5.446M57.797 49.406c.773 0 1.4-.622 1.4-1.388 0-.767-.627-1.389-1.4-1.389-.773 0-1.4.622-1.4 1.389 0 .766.627 1.388 1.4 1.388Z" stroke="#fff" stroke-width=".5" stroke-miterlimit="10" stroke-linecap="round" stroke-linejoin="round"/><path d="M53.704 51.328s-.754-.854 0-1.709c.754-.854 1.831-.427 2.262.855.43 1.281 1.632 3.538 3.77 2.242 1.94-1.175.647-3.738-1.939-3.31M61.998 38.834c.773 0 1.4-.622 1.4-1.389s-.627-1.388-1.4-1.388c-.773 0-1.4.621-1.4 1.388 0 .767.627 1.389 1.4 1.389ZM60.275 43.319c.773 0 1.4-.622 1.4-1.389 0-.766-.627-1.388-1.4-1.388-.774 0-1.4.622-1.4 1.388 0 .767.626 1.389 1.4 1.389Z" stroke="#fff" stroke-width=".5" stroke-miterlimit="10" stroke-linecap="round" stroke-linejoin="round"/><path d="M63.333 37.025s1.358 3.624-.688 6.08M59.012 42.531s-1.43-4.018.617-6.154M58.551 24.737s.539 3.738 3.447 6.087M52.627 28.261s2.477 2.136 3.339 5.767M58.959 26.297l-4.932 3.032M60.598 29.387l-5.17 2.978M48.91 25.485a2.306 2.306 0 0 0 2.316-2.296 2.306 2.306 0 0 0-2.316-2.296 2.306 2.306 0 0 0-2.316 2.296 2.306 2.306 0 0 0 2.316 2.296Z" stroke="#fff" stroke-width=".5" stroke-miterlimit="10" stroke-linecap="round" stroke-linejoin="round"/><path d="M48.102 17.155s.647.427.754 1.389c.108.96-.224 1.922 1.235 2.67 1.458.747 2.858-1.069 4.151-.535" stroke="#fff" stroke-width=".5" stroke-miterlimit="10" stroke-linecap="round" stroke-linejoin="round"/><path d="M65.058 32.861a26.64 26.64 0 0 0-6.974-11.998 26.967 26.967 0 0 0-11.825-6.869 27.18 27.18 0 0 0-7.259-.98c-2.374 0-4.675.304-6.867.876h-.001A26.985 26.985 0 0 0 20.1 20.68a26.648 26.648 0 0 0-7.158 12.181c-.59 2.195-.902 4.5-.902 6.88 0 2.382.314 4.691.905 6.888A26.654 26.654 0 0 0 20.1 58.802 26.987 26.987 0 0 0 39 66.47a26.998 26.998 0 0 0 19.22-7.983v-.002a26.627 26.627 0 0 0 6.83-11.834h0c.594-2.204.91-4.52.91-6.909 0-2.38-.313-4.685-.902-6.88Zm-22.88 16.806c-1.002.316-2.07.486-3.178.486a10.497 10.497 0 0 1-7.378-3.003h-.001a10.381 10.381 0 0 1-2.785-4.776 10.335 10.335 0 0 1-.338-2.633c0-.94.125-1.851.362-2.716a10.364 10.364 0 0 1 2.762-4.693A10.5 10.5 0 0 1 39 29.33c1.148 0 2.255.183 3.29.522a10.483 10.483 0 0 1 4.303 2.698h0a10.341 10.341 0 0 1 2.546 9.914 10.376 10.376 0 0 1-2.728 4.655 10.5 10.5 0 0 1-4.233 2.55Z" stroke="#fff" stroke-width="1.5" stroke-miterlimit="10" stroke-linecap="round" stroke-linejoin="round"/><path d="m58.084 20.863-11.49 11.686h-.001a10.486 10.486 0 0 0-4.303-2.698l-.111-.522 4.08-15.335a26.973 26.973 0 0 1 11.825 6.869ZM36.145 29.33l-.049.403a10.498 10.498 0 0 0-4.474 2.6h-.001L20.1 20.68a26.986 26.986 0 0 1 12.03-6.79h.002l4.012 15.44ZM28.498 39.741c0 .91.117 1.793.338 2.634l-.123.196-15.769 4.058a26.502 26.502 0 0 1-.904-6.888c0-2.38.313-4.685.902-6.88l15.918 4.164a10.291 10.291 0 0 0-.362 2.716ZM36.166 49.94l-4.055 15.648a26.986 26.986 0 0 1-12.01-6.786L31.62 47.15h.001a10.5 10.5 0 0 0 4.527 2.615l.017.174ZM58.22 58.484v.001a27 27 0 0 1-12.096 7.04L42.178 49.67v-.002a10.502 10.502 0 0 0 4.233-2.549h.001L58.22 58.484ZM65.96 39.741c0 2.39-.316 4.705-.909 6.91h-.001l-15.91-4.187h0c.236-.869.362-1.78.362-2.723 0-.94-.125-1.85-.362-2.716l15.918-4.164c.59 2.195.902 4.5.902 6.88Z" stroke="#fff" stroke-miterlimit="10" stroke-linecap="round" stroke-linejoin="round"/><path d="M49.502 39.741c0 .942-.126 1.854-.363 2.722a10.375 10.375 0 0 1-2.728 4.655 10.5 10.5 0 0 1-4.233 2.55 10.56 10.56 0 0 1-3.178.485 10.497 10.497 0 0 1-7.378-3.003h-.002a10.382 10.382 0 0 1-2.784-4.776 10.34 10.34 0 0 1-.338-2.633c0-.94.125-1.85.362-2.716a10.363 10.363 0 0 1 2.762-4.693A10.498 10.498 0 0 1 39 29.33a10.535 10.535 0 0 1 7.593 3.22h0a10.341 10.341 0 0 1 2.91 7.192Z" stroke="#fff" stroke-miterlimit="10" stroke-linecap="round" stroke-linejoin="round"/><path d="M39.008 41.97A2.483 2.483 0 0 0 41.5 39.5a2.483 2.483 0 0 0-2.493-2.472 2.483 2.483 0 0 0-2.494 2.472 2.483 2.483 0 0 0 2.493 2.472ZM39.054 32.256l-1.673 2.873h3.346l-1.673-2.873ZM39.054 46.741l-1.673-2.873h3.346l-1.673 2.873ZM45.404 43.08l-1.692-2.863-1.654 2.884 3.346-.021ZM32.704 35.918l3.346-.021-1.654 2.883-1.692-2.862ZM45.286 35.72l-3.345.084 1.746 2.83 1.6-2.915ZM32.822 43.278l1.6-2.914 1.745 2.83-3.345.084Z" stroke="#fff" stroke-width=".5" stroke-miterlimit="10" stroke-linecap="round" stroke-linejoin="round"/></svg>