<svg width="80" height="80" fill="none" xmlns="http://www.w3.org/2000/svg"><rect x=".5" y=".5" width="79" height="79" rx="11.5" fill="#DC2A95" stroke="#DC2A95"/><path d="M62.096 48.657a1.021 1.021 0 0 1-.737-1.732c3.923-4.063 5.595-7.456 5.595-11.347 0-7.146-5.326-12.534-12.393-12.534-9.487 0-12.397 10.835-12.425 10.944a1.02 1.02 0 0 1-1.976 0c-.117-.445-2.967-10.944-12.426-10.944-7.065 0-12.393 5.388-12.393 12.534 0 1.56.273 3.025.833 4.477a1.023 1.023 0 0 1-1.906.737 14.245 14.245 0 0 1-.97-5.214C13.298 27.266 19.505 21 27.735 21c7.809 0 11.757 6.168 13.415 9.83C42.806 27.168 46.754 21 54.563 21 62.793 21 69 27.266 69 35.578c0 4.41-1.902 8.345-6.168 12.765-.2.209-.468.313-.736.313ZM41.149 67.232c-.255 0-.511-.097-.71-.287-4.245-4.094-8.312-7.502-11.9-10.512l-.177-.146a1.024 1.024 0 0 1-.128-1.44 1.024 1.024 0 0 1 1.44-.127l.175.145c3.415 2.863 7.26 6.086 11.298 9.927.453-.43.904-.853 1.352-1.27a1.022 1.022 0 1 1 1.391 1.498c-.671.624-1.35 1.266-2.034 1.925-.197.19-.45.287-.707.287Z" fill="#fff"/><path d="M43.196 65.295a1.022 1.022 0 0 1-.695-1.77 190.25 190.25 0 0 1 5.936-5.272 1.025 1.025 0 0 1 1.44.11 1.023 1.023 0 0 1-.11 1.441 191.36 191.36 0 0 0-5.873 5.214 1.017 1.017 0 0 1-.698.277Z" fill="#fff"/><path d="M49.101 60.052a1.023 1.023 0 0 1-.665-1.797 497.697 497.697 0 0 1 4.02-3.392l1.22-1.024a1.022 1.022 0 1 1 1.315 1.566L53.77 56.43c-1.28 1.073-2.62 2.195-4.003 3.38-.193.16-.43.241-.665.241Z" fill="#fff"/><path d="M54.336 55.641a1.022 1.022 0 0 1-.659-1.804c2.825-2.374 5.538-4.69 7.684-6.912a1.021 1.021 0 1 1 1.471 1.418c-2.214 2.294-4.971 4.647-7.84 7.058-.193.16-.424.24-.656.24ZM36.39 56.454c-.453 0-.851-.298-.98-.733l-5.799-19.61-3.094 8.768a1.024 1.024 0 0 1-.964.681H8.022a1.022 1.022 0 0 1 0-2.043h16.81l3.903-11.058c.148-.416.55-.65.991-.68.441.012.827.307.952.732l5.708 19.301 2.212-7.56c.127-.436.527-.735.98-.735h17.214a1.022 1.022 0 0 1 0 2.043H40.344L37.371 55.72a1.02 1.02 0 0 1-.98.735Z" fill="#fff"/></svg>