<svg width="80" height="80" fill="none" xmlns="http://www.w3.org/2000/svg"><path d="M68 .5H12C5.649.5.5 5.649.5 12v56c0 6.351 5.149 11.5 11.5 11.5h56c6.351 0 11.5-5.149 11.5-11.5V12C79.5 5.649 74.351.5 68 .5Z" fill="#344600" stroke="#344600"/><path d="M56.138 21.647h-.001c-1.532 0-2.93.583-3.984 1.538a5.931 5.931 0 0 0-.42 8.389l.001-.001a5.927 5.927 0 0 0 8.388.42v-.001a5.927 5.927 0 0 0 1.957-4.404c0-.053-.002-.105-.003-.158l1.663-1.226c.082.45.124.912.124 1.385a7.7 7.7 0 0 1-2.263 5.463 7.7 7.7 0 0 1-5.463 2.263h-.019a7.701 7.701 0 0 1-5.444-2.263 7.7 7.7 0 0 1-2.263-5.463c0-2.133.864-4.065 2.262-5.463a7.704 7.704 0 0 1 5.464-2.263 7.69 7.69 0 0 1 4.853 1.714l-1.503 1.107a5.903 5.903 0 0 0-3.054-1.029c-.052-.003-.105-.004-.158-.006l-.137-.002Z" fill="#fff" fill-opacity=".96"/><path d="M63.177 24.4a7.741 7.741 0 0 0-.926-1.535l-6.114 4.506-2.94-1.844v2.218l2.94 1.844 7.04-5.188V24.4ZM63.792 63h-46.77a.862.862 0 0 1-.862-.862V16.862c0-.476.386-.862.862-.862h25.166c.476 0 .862.386.862.862V41.51h20.742c.476 0 .862.386.862.862v19.765a.862.862 0 0 1-.862.862V63Zm-45.908-1.724H62.93V43.235H42.188a.862.862 0 0 1-.862-.862v-24.65H17.884v43.553Z" fill="#fff" fill-opacity=".96"/><path d="M42.95 41.511v.1h20.842c.42 0 .762.341.762.762v19.765c0 .42-.341.762-.762.762h-46.77a.762.762 0 0 1-.762-.762V16.862c0-.42.341-.762.762-.762h25.166c.42 0 .762.341.762.762v24.649ZM17.784 61.276v.1H63.03V43.135H42.188a.762.762 0 0 1-.762-.762v-24.75H17.784v43.653Z" stroke="#fff" stroke-opacity=".96" stroke-width=".2"/><path d="M66.722 63h-52.86a.862.862 0 1 1 0-1.724h52.86a.862.862 0 1 1 0 1.724Z" fill="#fff" fill-opacity=".96"/><path d="M66.722 62.75h-52.86a.612.612 0 0 1 0-1.224h52.86a.612.612 0 0 1 0 1.224Z" stroke="#fff" stroke-opacity=".96" stroke-width=".5"/><path d="M29.375 22.55h-1.953a.862.862 0 1 1 0-1.724h1.953a.862.862 0 0 1 0 1.724Z" fill="#fff" fill-opacity=".96"/><path d="M29.375 22.3h-1.953a.612.612 0 1 1 0-1.224h1.953a.612.612 0 0 1 0 1.224Z" stroke="#fff" stroke-opacity=".96" stroke-width=".5"/><path d="M22.94 22.55h-1.953a.862.862 0 1 1 0-1.724h1.953a.862.862 0 1 1 0 1.724Z" fill="#fff" fill-opacity=".96"/><path d="M22.94 22.3h-1.953a.612.612 0 1 1 0-1.224h1.953a.612.612 0 0 1 0 1.224Z" stroke="#fff" stroke-opacity=".96" stroke-width=".5"/><path d="M42.13 22.55h-8.273a.862.862 0 1 1 0-1.724h8.274a.862.862 0 1 1 0 1.724h-.001Z" fill="#fff" fill-opacity=".96"/><path d="M42.13 22.3h-8.273a.612.612 0 0 1 0-1.224h8.274a.612.612 0 0 1 0 1.224h-.001Z" stroke="#fff" stroke-opacity=".96" stroke-width=".5"/><path d="M29.375 27.721h-1.953a.862.862 0 0 1 0-1.723h1.953a.862.862 0 0 1 0 1.723Z" fill="#fff" fill-opacity=".96"/><path d="M29.375 27.471h-1.953a.612.612 0 0 1 0-1.223h1.953a.612.612 0 0 1 0 1.223Z" stroke="#fff" stroke-opacity=".96" stroke-width=".5"/><path d="M22.94 27.721h-1.953a.861.861 0 0 1 0-1.723h1.953a.862.862 0 0 1 0 1.723Z" fill="#fff" fill-opacity=".96"/><path d="M22.94 27.471h-1.953a.612.612 0 0 1 0-1.223h1.953a.612.612 0 0 1 0 1.223Z" stroke="#fff" stroke-opacity=".96" stroke-width=".5"/><path d="M42.13 27.721h-8.273a.862.862 0 0 1 0-1.723h8.274a.862.862 0 0 1 0 1.723Z" fill="#fff" fill-opacity=".96"/><path d="M42.13 27.471h-8.273a.612.612 0 0 1 0-1.223h8.274a.612.612 0 0 1 0 1.223h-.001Z" stroke="#fff" stroke-opacity=".96" stroke-width=".5"/><path d="M29.375 32.892h-1.953a.862.862 0 0 1 0-1.723h1.953a.862.862 0 0 1 0 1.723Z" fill="#fff" fill-opacity=".96"/><path d="M29.375 32.642h-1.953a.612.612 0 0 1 0-1.223h1.953a.612.612 0 0 1 0 1.223Z" stroke="#fff" stroke-opacity=".96" stroke-width=".5"/><path d="M22.94 32.892h-1.953a.862.862 0 0 1 0-1.723h1.953a.862.862 0 0 1 0 1.723Z" fill="#fff" fill-opacity=".96"/><path d="M22.94 32.642h-1.953a.612.612 0 0 1 0-1.223h1.953a.612.612 0 0 1 0 1.223Z" stroke="#fff" stroke-opacity=".96" stroke-width=".5"/><path d="M42.13 32.892h-8.273a.862.862 0 0 1 0-1.723h8.274a.862.862 0 0 1 0 1.723Z" fill="#fff" fill-opacity=".96"/><path d="M42.13 32.642h-8.273a.612.612 0 0 1 0-1.223h8.274a.612.612 0 0 1 0 1.223h-.001Z" stroke="#fff" stroke-opacity=".96" stroke-width=".5"/><path d="M29.375 38.064h-1.953a.862.862 0 1 1 0-1.724h1.953a.862.862 0 0 1 0 1.724Z" fill="#fff" fill-opacity=".96"/><path d="M29.375 37.814h-1.953a.612.612 0 1 1 0-1.224h1.953a.612.612 0 0 1 0 1.224Z" stroke="#fff" stroke-opacity=".96" stroke-width=".5"/><path d="M22.94 38.064h-1.953a.862.862 0 1 1 0-1.724h1.953a.862.862 0 1 1 0 1.724Z" fill="#fff" fill-opacity=".96"/><path d="M22.94 37.814h-1.953a.612.612 0 1 1 0-1.224h1.953a.612.612 0 0 1 0 1.224Z" stroke="#fff" stroke-opacity=".96" stroke-width=".5"/><path d="M42.13 38.064h-8.273a.862.862 0 1 1 0-1.724h8.274a.862.862 0 1 1 0 1.724h-.001Z" fill="#fff" fill-opacity=".96"/><path d="M42.13 37.814h-8.273a.612.612 0 0 1 0-1.224h8.274a.612.612 0 0 1 0 1.224h-.001Z" stroke="#fff" stroke-opacity=".96" stroke-width=".5"/><path d="M29.375 43.235h-1.953a.862.862 0 1 1 0-1.724h1.953a.862.862 0 0 1 0 1.724Z" fill="#fff" fill-opacity=".96"/><path d="M29.375 42.985h-1.953a.612.612 0 1 1 0-1.224h1.953a.612.612 0 0 1 0 1.224Z" stroke="#fff" stroke-opacity=".96" stroke-width=".5"/><path d="M22.94 43.235h-1.953a.862.862 0 1 1 0-1.724h1.953a.862.862 0 1 1 0 1.724Z" fill="#fff" fill-opacity=".96"/><path d="M22.94 42.985h-1.953a.612.612 0 1 1 0-1.224h1.953a.612.612 0 0 1 0 1.224Z" stroke="#fff" stroke-opacity=".96" stroke-width=".5"/><path d="M42.246 43.235h-8.389a.862.862 0 1 1 0-1.724h8.389a.862.862 0 1 1 0 1.724Z" fill="#fff" fill-opacity=".96"/><path d="M42.246 42.985h-8.389a.612.612 0 0 1 0-1.224h8.389a.612.612 0 0 1 0 1.224Z" stroke="#fff" stroke-opacity=".96" stroke-width=".5"/><path d="M29.375 48.636h-1.953a.862.862 0 1 1 0-1.724h1.953a.862.862 0 0 1 0 1.724Z" fill="#fff" fill-opacity=".96"/><path d="M29.375 48.386h-1.953a.612.612 0 1 1 0-1.224h1.953a.612.612 0 0 1 0 1.224Z" stroke="#fff" stroke-opacity=".96" stroke-width=".5"/><path d="M22.94 48.636h-1.953a.862.862 0 1 1 0-1.724h1.953a.862.862 0 1 1 0 1.724Z" fill="#fff" fill-opacity=".96"/><path d="M22.94 48.386h-1.953a.612.612 0 1 1 0-1.224h1.953a.612.612 0 0 1 0 1.224Z" stroke="#fff" stroke-opacity=".96" stroke-width=".5"/><path d="M42.246 48.636h-8.389a.862.862 0 1 1 0-1.724h8.389a.862.862 0 1 1 0 1.724Z" fill="#fff" fill-opacity=".96"/><path d="M42.246 48.386h-8.389a.612.612 0 0 1 0-1.224h8.389a.612.612 0 0 1 0 1.224Z" stroke="#fff" stroke-opacity=".96" stroke-width=".5"/><path d="M50.864 48.636h-4.711a.862.862 0 1 1 0-1.724h4.711a.862.862 0 1 1 0 1.724Z" fill="#fff" fill-opacity=".96"/><path d="M50.864 48.386h-4.711a.612.612 0 1 1 0-1.224h4.711a.612.612 0 0 1 0 1.224Z" stroke="#fff" stroke-opacity=".96" stroke-width=".5"/><path d="M59.828 48.636h-4.712a.862.862 0 0 1 0-1.724h4.712a.862.862 0 0 1 0 1.724Z" fill="#fff" fill-opacity=".96"/><path d="M59.828 48.386h-4.712a.612.612 0 1 1 0-1.224h4.712a.612.612 0 0 1 0 1.224Z" stroke="#fff" stroke-opacity=".96" stroke-width=".5"/><path d="M42.246 53.692h-2.988a.862.862 0 1 1 0-1.724h2.988a.862.862 0 1 1 0 1.724Z" fill="#fff" fill-opacity=".96"/><path d="M42.246 53.442h-2.988a.612.612 0 0 1 0-1.224h2.988a.612.612 0 0 1 0 1.224Z" stroke="#fff" stroke-opacity=".96" stroke-width=".5"/><path d="M50.864 53.692h-4.711a.862.862 0 1 1 0-1.724h4.711a.862.862 0 1 1 0 1.724Z" fill="#fff" fill-opacity=".96"/><path d="M50.864 53.442h-4.711a.612.612 0 1 1 0-1.224h4.711a.612.612 0 0 1 0 1.224Z" stroke="#fff" stroke-opacity=".96" stroke-width=".5"/><path d="M59.828 53.692h-4.712a.862.862 0 0 1 0-1.724h4.712a.862.862 0 0 1 0 1.724Z" fill="#fff" fill-opacity=".96"/><path d="M59.828 53.442h-4.712a.612.612 0 1 1 0-1.224h4.712a.612.612 0 0 1 0 1.224Z" stroke="#fff" stroke-opacity=".96" stroke-width=".5"/><path d="M42.246 58.518h-2.988a.861.861 0 0 1 0-1.723h2.988a.862.862 0 0 1 0 1.723Z" fill="#fff" fill-opacity=".96"/><path d="M42.246 58.268h-2.988a.612.612 0 0 1 0-1.223h2.988a.612.612 0 0 1 0 1.223Z" stroke="#fff" stroke-opacity=".96" stroke-width=".5"/><path d="M50.864 58.518h-4.711a.862.862 0 0 1 0-1.723h4.711a.862.862 0 0 1 0 1.723Z" fill="#fff" fill-opacity=".96"/><path d="M50.864 58.268h-4.711a.612.612 0 0 1 0-1.223h4.71a.612.612 0 0 1 0 1.223Z" stroke="#fff" stroke-opacity=".96" stroke-width=".5"/><path d="M59.828 58.518h-4.712a.862.862 0 0 1 0-1.723h4.712a.862.862 0 0 1 0 1.723Z" fill="#fff" fill-opacity=".96"/><path d="M59.828 58.268h-4.712a.612.612 0 0 1 0-1.223h4.712a.612.612 0 0 1 0 1.223Z" stroke="#fff" stroke-opacity=".96" stroke-width=".5"/><path d="M33.872 63h-9.74a.862.862 0 0 1-.862-.862V52.83c0-.476.386-.862.862-.862h9.74c.475 0 .862.386.862.862v9.308a.862.862 0 0 1-.862.862Zm-8.878-1.724h8.016v-7.584h-8.016v7.584Z" fill="#fff" fill-opacity=".96"/><path d="M33.01 61.526h.25v-8.084h-8.516v7.834h.25v.25h8.016Zm.862 1.224h-9.74a.612.612 0 0 1-.612-.612V52.83c0-.338.274-.612.612-.612h9.74c.337 0 .612.274.612.612v9.308a.611.611 0 0 1-.612.612Z" stroke="#fff" stroke-opacity=".96" stroke-width=".5"/><path d="M28.973 62.598a.862.862 0 0 1-.862-.862v-8.848a.862.862 0 1 1 1.724 0v8.848a.862.862 0 0 1-.862.862Z" fill="#fff" fill-opacity=".96"/><path d="M28.973 62.098a.362.362 0 0 1-.362-.362v-8.848a.362.362 0 1 1 .724 0v8.848c0 .2-.162.362-.362.362Z" stroke="#fff" stroke-opacity=".96"/></svg>