<svg width="80" height="80" fill="none" xmlns="http://www.w3.org/2000/svg"><path d="M68 .5H12C5.649.5.5 5.649.5 12v56c0 6.351 5.149 11.5 11.5 11.5h56c6.351 0 11.5-5.149 11.5-11.5V12C79.5 5.649 74.351.5 68 .5Z" fill="#2969E3" stroke="#2969E3"/><path d="M58.275 62.557h-35.55a.725.725 0 0 1-.725-.724V17.725c0-.4.325-.725.725-.725h35.55c.4 0 .725.325.725.725v44.108c0 .4-.323.724-.725.724ZM23.45 61.108h34.102V18.45H23.449v42.66l.001-.002Z" fill="#fff"/><path d="M23.2 61.108v.25h34.6V18.2H23.2v42.91-.002Zm35.075 1.2h-35.55a.475.475 0 0 1-.475-.475V17.725c0-.262.213-.475.475-.475h35.55c.262 0 .475.213.475.475v44.108a.474.474 0 0 1-.475.474v.001Z" stroke="#fff" stroke-opacity=".96" stroke-width=".5"/><path d="M54.18 32.703H26.642a.725.725 0 0 1-.725-.725v-9.955c0-.4.325-.725.725-.725H54.18c.4 0 .725.325.725.725v9.956a.725.725 0 0 1-.725.724Zm-26.814-1.449h26.09v-8.507h-26.09v8.507Z" fill="#fff"/><path d="M27.116 31.254v.25h26.59v-9.007h-26.59v8.757Zm27.064 1.2H26.642a.475.475 0 0 1-.475-.476v-9.955c0-.262.213-.475.475-.475H54.18c.262 0 .475.213.475.475v9.956a.473.473 0 0 1-.475.474v.001Z" stroke="#fff" stroke-opacity=".96" stroke-width=".5"/><path d="M54.18 57.955H26.642a.725.725 0 0 1-.725-.725V36.165c0-.4.325-.724.725-.724H54.18c.4 0 .725.324.725.724V57.23a.724.724 0 0 1-.725.725Zm-26.814-1.45h26.09V36.89h-26.09v19.616-.001Z" fill="#fff"/><path d="M27.116 56.506v.25h26.59V36.64h-26.59v19.866Zm27.064 1.199H26.642a.475.475 0 0 1-.475-.475V36.165c0-.262.213-.474.475-.474H54.18c.262 0 .475.212.475.474V57.23a.475.475 0 0 1-.475.475Z" stroke="#fff" stroke-opacity=".96" stroke-width=".5"/><path d="M40.5 57.955a.725.725 0 0 1-.725-.725V36.165a.725.725 0 1 1 1.45 0V57.23a.723.723 0 0 1-.725.725Z" fill="#fff"/><path d="M40.5 57.705a.475.475 0 0 1-.475-.475V36.165a.475.475 0 0 1 .95 0V57.23a.471.471 0 0 1-.475.475Z" stroke="#fff" stroke-opacity=".96" stroke-width=".5"/><path d="M54.18 47.422H26.818a.724.724 0 0 1 0-1.449H54.18a.725.725 0 0 1 0 1.45v-.001Z" fill="#fff"/><path d="M54.18 47.172H26.818a.475.475 0 0 1 0-.949H54.18a.475.475 0 1 1 0 .95v-.001Z" stroke="#fff" stroke-opacity=".96" stroke-width=".5"/><path d="M33.295 44.088a.725.725 0 0 1-.725-.725v-3.955a.725.725 0 0 1 1.45 0v3.955a.724.724 0 0 1-.725.725Z" fill="#fff"/><path d="M33.295 43.838a.475.475 0 0 1-.475-.475v-3.955a.475.475 0 0 1 .95 0v3.955a.475.475 0 0 1-.475.475Z" stroke="#fff" stroke-opacity=".96" stroke-width=".5"/><path d="M35.271 42.111h-3.954a.725.725 0 0 1 0-1.45h3.954a.725.725 0 1 1 0 1.45Z" fill="#fff"/><path d="M35.271 41.861h-3.954a.475.475 0 1 1 0-.95h3.954a.475.475 0 1 1 0 .95Z" stroke="#fff" stroke-opacity=".96" stroke-width=".5"/><path d="M45.865 43.51a.725.725 0 0 1-.513-1.236l2.797-2.797a.725.725 0 0 1 1.024 1.024l-2.797 2.797a.723.723 0 0 1-.511.212Z" fill="#fff"/><path d="M45.865 43.26a.474.474 0 0 1-.336-.81l2.797-2.797a.475.475 0 0 1 .67.671L46.2 43.121a.473.473 0 0 1-.335.139Z" stroke="#fff" stroke-opacity=".96" stroke-width=".5"/><path d="M48.66 43.51a.728.728 0 0 1-.513-.212L45.35 40.5a.725.725 0 0 1 1.025-1.024l2.797 2.796a.725.725 0 0 1-.512 1.236v.002Z" fill="#fff"/><path d="M48.66 43.26a.478.478 0 0 1-.336-.14l-2.797-2.796a.475.475 0 0 1 .671-.67l2.797 2.796a.475.475 0 0 1-.335.81Z" stroke="#fff" stroke-opacity=".96" stroke-width=".5"/><path d="M35.271 52.735h-3.954a.725.725 0 0 1 0-1.45h3.954a.725.725 0 1 1 0 1.45Z" fill="#fff"/><path d="M35.271 52.485h-3.954a.475.475 0 1 1 0-.95h3.954a.475.475 0 1 1 0 .95Z" stroke="#fff" stroke-opacity=".96" stroke-width=".5"/><path d="M49.241 50.887h-3.956a.725.725 0 0 1 0-1.449h3.956a.725.725 0 1 1 0 1.45v-.001Z" fill="#fff"/><path d="M49.241 50.637h-3.956a.475.475 0 0 1 0-.949h3.956a.475.475 0 1 1 0 .95v-.001Z" stroke="#fff" stroke-opacity=".96" stroke-width=".5"/><path d="M49.241 54.352h-3.956a.725.725 0 0 1 0-1.449h3.956a.725.725 0 1 1 0 1.45v-.001Z" fill="#fff"/><path d="M49.241 54.102h-3.956a.475.475 0 0 1 0-.949h3.956a.475.475 0 1 1 0 .95v-.001Z" stroke="#fff" stroke-opacity=".96" stroke-width=".5"/></svg>