<svg width="80" height="80" fill="none" xmlns="http://www.w3.org/2000/svg"><path d="M68 .5H12C5.649.5.5 5.649.5 12v56c0 6.351 5.149 11.5 11.5 11.5h56c6.351 0 11.5-5.149 11.5-11.5V12C79.5 5.649 74.351.5 68 .5Z" fill="#7D7D7D" stroke="#7D7D7D"/><path d="M45.522 29.754a.76.76 0 0 1-.763-.758v-2.939a3.134 3.134 0 0 0-3.137-3.123H30.537c-1.73 0-3.137 1.401-3.137 3.123v2.94a.76.76 0 0 1-.762.758.76.76 0 0 1-.763-.759v-2.939c0-2.558 2.091-4.64 4.661-4.64h11.085c2.57 0 4.661 2.082 4.661 4.64v2.94c.001.418-.34.757-.76.757ZM64.452 47.425a.648.648 0 0 1-.287-.068l-4.105-2.073-4.188 1.9a.636.636 0 0 1-.898-.589l.065-3.11a.633.633 0 0 1 .276-.509l2.357-1.61.001-5.949-10.378 2.231a.632.632 0 0 1-.77-.63l.073-3.442a.632.632 0 0 1 .362-.557l10.715-5.086.001-6.464c0-.778.308-1.506.866-2.05a2.86 2.86 0 0 1 2.077-.818 2.866 2.866 0 0 1 2.041.904 2.84 2.84 0 0 1 .78 2.084l-.27 6.458 10.492 5.527a.632.632 0 0 1 .338.572l-.072 3.442a.635.635 0 0 1-.795.598l-10.274-2.66-.248 5.943 2.286 1.708a.634.634 0 0 1 .254.52l-.065 3.11a.631.631 0 0 1-.634.617Zm-4.377-3.475c.098 0 .197.023.287.069l3.477 1.755.037-1.781-2.293-1.713a.632.632 0 0 1-.254-.532l.294-7.057a.629.629 0 0 1 .257-.482.638.638 0 0 1 .538-.104l10.259 2.656.046-2.253-10.5-5.53a.632.632 0 0 1-.337-.585l.285-6.858a1.588 1.588 0 0 0-.435-1.166 1.604 1.604 0 0 0-1.142-.506 1.606 1.606 0 0 0-1.647 1.605l-.002 6.863a.63.63 0 0 1-.361.57L47.86 33.99l-.047 2.252 10.36-2.226a.636.636 0 0 1 .77.618l-.003 7.064a.632.632 0 0 1-.275.52L56.3 43.837l-.037 1.781 3.547-1.609a.63.63 0 0 1 .264-.058Z" fill="#fff"/><path d="M59.981 44.482h-.002c-.26 0-.512.115-.75.272v12.748c0 2.386-1.943 4.32-4.34 4.32H17.271c-2.397 0-4.34-1.934-4.34-4.32V42.666a5.933 5.933 0 0 0 4.34 1.884s28.415-.054 34.063-.016a.787.787 0 1 0 .005-1.572H17.271c-2.397 0-4.34-1.935-4.34-4.322v-4.529c0-2.386 1.943-4.321 4.34-4.321h29.056l-.007-1.59H17.271c-3.28 0-5.938 2.646-5.938 5.91V57.502c0 3.264 2.659 5.91 5.937 5.91h37.62c3.279 0 5.936-2.646 5.936-5.91V44.808c-.27-.184-.556-.327-.845-.327Z" fill="#fff"/><path d="M38.969 46.115h-2.993a.819.819 0 0 1-.82-.817v-2.979c0-.452.367-.817.82-.817h2.993c.453 0 .82.366.82.817v2.979a.819.819 0 0 1-.82.817Z" fill="#fff"/><path d="M38.431 46.747h-1.918a1.99 1.99 0 0 1-1.993-1.983v-1.91a1.99 1.99 0 0 1 1.993-1.984h1.918c1.1 0 1.993.89 1.993 1.984v1.91a1.99 1.99 0 0 1-1.993 1.983Zm-1.918-4.614a.722.722 0 0 0-.723.72v1.91c0 .396.325.72.723.72h1.918a.722.722 0 0 0 .723-.72v-1.91a.723.723 0 0 0-.723-.72h-1.918Z" fill="#fff"/></svg>