<svg width="80" height="80" fill="none" xmlns="http://www.w3.org/2000/svg"><path d="M68 .5H12C5.649.5.5 5.649.5 12v56c0 6.351 5.149 11.5 11.5 11.5h56c6.351 0 11.5-5.149 11.5-11.5V12C79.5 5.649 74.351.5 68 .5Z" fill="#E31227" stroke="#E31227"/><path d="m46.992 45.483-4.487-2.163a21.904 21.904 0 0 0-4.703-1.638l-.215-.049-.198.093c-1.394.65-2.888.98-4.44.98-1.547 0-3.037-.328-4.43-.975l-.198-.092-.214.048c-1.6.362-3.159.904-4.634 1.611l-4.56 2.186c-1.297.622-2.135 1.94-2.135 3.358v13.636c0 1.03.852 1.867 1.9 1.867H47.22c1.048 0 1.9-.837 1.9-1.867V48.837c0-1.415-.835-2.731-2.128-3.354Zm-3.08 7.32c0 1.014-.84 1.839-1.87 1.839-1.033 0-1.872-.825-1.872-1.838 0-1.014.84-1.838 1.871-1.838 1.032 0 1.87.824 1.87 1.838Zm3.941 9.675a.629.629 0 0 1-.634.623H18.68a.629.629 0 0 1-.634-.623V48.842c0-.946.559-1.825 1.424-2.24l3.259-1.561v4.756c-1.762.297-3.108 1.805-3.108 3.62v2.605c0 .653.541 1.184 1.206 1.184h.321c.35 0 .634-.278.634-.622a.628.628 0 0 0-.634-.623h-.26v-2.545c0-1.34 1.11-2.43 2.474-2.43s2.474 1.09 2.474 2.43v2.545h-.25a.628.628 0 0 0-.633.623c0 .344.283.622.633.622h.312c.665 0 1.205-.531 1.205-1.184v-2.606c0-1.814-1.346-3.322-3.107-3.619v-5.364l.034-.016a20.652 20.652 0 0 1 4.153-1.468 11.711 11.711 0 0 0 4.767 1.001c1.666 0 3.273-.339 4.78-1.007 1.273.3 2.517.722 3.708 1.256v5.58c-1.442.278-2.534 1.528-2.534 3.025 0 1.7 1.408 3.082 3.138 3.082s3.138-1.383 3.138-3.082c0-1.477-1.063-2.713-2.475-3.013v-4.99l3.73 1.8a2.504 2.504 0 0 1 1.419 2.236v13.641Zm10.111-45.824H38.416c-1.797 0-3.258 1.437-3.258 3.202v2.208c0 .344.284.622.634.622.35 0 .633-.278.633-.622v-2.208c0-1.08.893-1.957 1.991-1.957h19.548c1.098 0 1.991.878 1.991 1.957V39.31l-4.32-3.534a3.3 3.3 0 0 0-2.084-.74H43.48a.628.628 0 0 0-.634.622c0 .344.284.623.634.623h10.07c.464 0 .917.16 1.274.453l6.397 5.232V19.856c0-1.765-1.461-3.202-3.258-3.202ZM32.95 42.326c4.183 0 7.955-2.593 9.386-6.454.4-1.075.602-2.206.602-3.36 0-4.29-2.795-8.048-6.953-9.35a10.142 10.142 0 0 0-3.035-.463c-5.508 0-9.988 4.402-9.988 9.814 0 5.41 4.48 9.813 9.988 9.813Zm0-18.382c.902 0 1.794.136 2.65.404 3.63 1.137 6.07 4.418 6.07 8.165a8.413 8.413 0 0 1-.524 2.933c-1.25 3.371-4.544 5.636-8.196 5.636-4.809 0-8.721-3.844-8.721-8.569 0-4.725 3.912-8.569 8.72-8.569Zm15.403-1.475a.628.628 0 0 0-.633.623v2.43h-2.475a.628.628 0 0 0-.633.623c0 .344.283.623.633.623h2.474v2.43c0 .345.284.623.634.623.35 0 .634-.278.634-.622v-2.432h2.474c.35 0 .633-.278.633-.622a.628.628 0 0 0-.633-.623h-2.474v-2.43a.628.628 0 0 0-.634-.623Z" fill="#fff"/></svg>