<svg width="80" height="80" viewBox="0 0 80 80" fill="none" xmlns="http://www.w3.org/2000/svg">
<path d="M68 0.5H12C5.64873 0.5 0.5 5.64873 0.5 12V68C0.5 74.3513 5.64873 79.5 12 79.5H68C74.3513 79.5 79.5 74.3513 79.5 68V12C79.5 5.64873 74.3513 0.5 68 0.5Z" fill="#FFBF9A" stroke="#FFBF9A"/>
<path d="M48.431 45.121L51.487 44.921L54.542 37.605L57.61 44.922L65.29 45.414L59.495 50.729L61.192 58.046L54.542 54.323L50.832 56.407" fill="#FFBF9A"/>
<path d="M48.431 45.121L51.487 44.921L54.542 37.605L57.61 44.922L65.29 45.414L59.495 50.729L61.192 58.046L54.542 54.323L50.832 56.407" stroke="white" stroke-opacity="0.96" stroke-width="1.5" stroke-miterlimit="10" stroke-linejoin="round"/>
<path d="M30.858 45.121L27.803 44.921L24.747 37.605L21.68 44.922L14 45.414L19.795 50.729L18.098 58.046L24.748 54.323L28.458 56.407" fill="#FFBF9A"/>
<path d="M30.858 45.121L27.803 44.921L24.747 37.605L21.68 44.922L14 45.414L19.795 50.729L18.098 58.046L24.748 54.323L28.458 56.407" stroke="white" stroke-opacity="0.96" stroke-width="1.5" stroke-miterlimit="10" stroke-linejoin="round"/>
<path d="M48.244 41.585V35.146C48.244 33.366 43.737 31.049 40.049 31.049C36.361 31.049 31.854 33.367 31.854 35.146V41.586" fill="#FFBF9A"/>
<path d="M48.244 41.585V35.146C48.244 33.366 43.737 31.049 40.049 31.049C36.361 31.049 31.854 33.367 31.854 35.146V41.586" stroke="white" stroke-opacity="0.96" stroke-width="1.5" stroke-miterlimit="10"/>
<path d="M40.049 17C37.625 17 35.366 18.698 35.366 20.793V23.743C35.366 25.839 37.626 27.537 40.049 27.537C42.472 27.537 44.732 25.839 44.732 23.743V20.793C44.732 18.698 42.472 17 40.049 17Z" fill="#FFBF9A"/>
<path d="M40.049 17C37.625 17 35.366 18.698 35.366 20.793V23.743C35.366 25.839 37.626 27.537 40.049 27.537C42.472 27.537 44.732 25.839 44.732 23.743V20.793C44.732 18.698 42.472 17 40.049 17Z" stroke="white" stroke-opacity="0.96" stroke-width="1.5" stroke-miterlimit="10"/>
<path d="M40.119 40.297L43.819 49.137L53.102 49.734L46.102 56.161L48.15 65L40.119 60.516L32.099 65L34.137 56.161L27.135 49.734L36.431 49.137L40.119 40.297Z" fill="#FFBF9A"/>
<path d="M40.119 40.297L43.819 49.137L53.102 49.734L46.102 56.161L48.15 65L40.119 60.516L32.099 65L34.137 56.161L27.135 49.734L36.431 49.137L40.119 40.297Z" stroke="white" stroke-opacity="0.96" stroke-width="1.5" stroke-miterlimit="10" stroke-linejoin="round"/>
</svg>
