<svg width="80" height="80" fill="none" xmlns="http://www.w3.org/2000/svg"><rect x=".5" y=".5" width="79" height="79" rx="11.5" fill="#04DA2B" stroke="#04DA2B"/><path d="M17.912 56.145a.595.595 0 0 1-.598-.598V52.57c0-.332.265-.598.598-.598.332 0 .597.266.597.598v2.976a.6.6 0 0 1-.597.598Z" fill="#fff"/><path d="M35.84 53.09H15.367a.595.595 0 0 1-.598-.599c0-.332.266-.597.598-.597H35.84c.332 0 .598.265.598.597a.6.6 0 0 1-.598.598ZM35.84 50.964H15.367a.595.595 0 0 1-.598-.598c0-.332.266-.598.598-.598H35.84c.332 0 .598.266.598.598a.6.6 0 0 1-.598.598ZM35.84 48.838H15.367a.595.595 0 0 1-.598-.598c0-.332.266-.598.598-.598H35.84c.332 0 .598.266.598.598a.6.6 0 0 1-.598.598ZM37.474 59.46h-23.74a.595.595 0 0 1-.599-.598v-3.03c0-.331.266-.597.598-.597h23.734c.332 0 .598.266.598.598v3.029a.59.59 0 0 1-.591.597ZM14.33 58.264h22.538V56.43H14.331v1.834Z" fill="#fff"/><path d="M33.296 56.145a.595.595 0 0 1-.598-.598V52.57c0-.332.266-.598.598-.598.332 0 .598.266.598.598v2.976a.595.595 0 0 1-.598.598ZM19.14 62.402h-2.71a.595.595 0 0 1-.598-.598v-2.756c0-.333.266-.598.598-.598.332 0 .598.265.598.598v2.158h1.515v-2.158c0-.333.265-.598.597-.598.332 0 .598.265.598.598v2.756a.595.595 0 0 1-.598.598ZM34.777 62.402h-2.71a.595.595 0 0 1-.598-.598v-2.756c0-.333.266-.598.598-.598.332 0 .598.265.598.598v2.158h1.514v-2.158c0-.333.266-.598.598-.598.332 0 .598.265.598.598v2.756a.6.6 0 0 1-.598.598ZM42.562 62.402a.598.598 0 0 1-.578-.75c.027-.093 2.452-9.54 1.648-16.667a.598.598 0 1 1 1.189-.14c.83 7.354-1.574 16.707-1.674 17.106a.606.606 0 0 1-.585.451ZM53.768 62.402a.596.596 0 0 1-.578-.445c-.1-.392-2.51-9.751-1.673-17.105a.598.598 0 1 1 1.189.14c-.81 7.134 1.62 16.573 1.647 16.666a.603.603 0 0 1-.425.73c-.06.008-.113.014-.16.014ZM60.391 37.678a.607.607 0 0 1-.332-.1.598.598 0 0 1-.16-.83c1.508-2.238 2.246-4.829 2.12-7.5-.16-3.374-1.668-6.49-4.245-8.76-2.59-2.28-5.952-3.448-9.446-3.282-7.227.338-12.84 6.284-12.515 13.265.047 1.003.127 1.687.419 2.664a.596.596 0 1 1-1.143.345c-.332-1.09-.418-1.873-.471-2.95-.359-7.632 5.772-14.148 13.657-14.513 3.82-.18 7.473 1.096 10.29 3.58 2.83 2.491 4.477 5.899 4.65 9.605a13.42 13.42 0 0 1-2.326 8.224.617.617 0 0 1-.498.252Z" fill="#fff"/><path d="M32.133 46.094a.594.594 0 0 1-.478-.239c-.04-.06-1.063-1.434-1.21-3.959-.225-3.8 1.761-7.406 4.936-8.967 2.285-1.123 4.743-1.05 4.85-1.043a.6.6 0 0 1 .577.618.596.596 0 0 1-.617.578c-.02 0-2.272-.067-4.278.923-2.757 1.355-4.47 4.497-4.271 7.825.126 2.139.97 3.308.976 3.315a.602.602 0 0 1-.126.836.653.653 0 0 1-.359.113ZM40.21 51.21c-.331 0-.663-.014-.989-.047a.608.608 0 0 1-.538-.658.603.603 0 0 1 .657-.538c.419.04.844.053 1.276.033.259-.013.518-.033.77-.073a.59.59 0 0 1 .671.512.594.594 0 0 1-.511.67c-.286.04-.578.067-.877.08-.153.02-.305.02-.458.02ZM56.664 51.993c-.737 0-1.474-.08-2.185-.239a.593.593 0 0 1-.452-.71.593.593 0 0 1 .711-.452c.764.172 1.554.239 2.352.199a8.82 8.82 0 0 0 6.15-2.89 8.801 8.801 0 0 0 2.306-6.397 8.922 8.922 0 0 0-3.953-6.981.605.605 0 0 1-.166-.83.605.605 0 0 1 .83-.166 10.145 10.145 0 0 1 4.484 7.918 9.993 9.993 0 0 1-2.617 7.253 10.005 10.005 0 0 1-6.981 3.282c-.16.007-.32.013-.479.013ZM58.365 62.402H10.598a.595.595 0 0 1-.598-.598c0-.332.266-.598.598-.598h47.767c.332 0 .598.266.598.598a.595.595 0 0 1-.598.598ZM62.63 62.402h-1.714a.595.595 0 0 1-.598-.598c0-.332.266-.598.598-.598h1.714c.332 0 .597.266.597.598a.595.595 0 0 1-.597.598Z" fill="#fff"/></svg>