<svg width="80" height="80" fill="none" xmlns="http://www.w3.org/2000/svg"><rect x=".5" y=".5" width="79" height="79" rx="11.5" fill="#110973" stroke="#110973"/><path d="M25.29 35.164a.816.816 0 0 1-.579-.24l-2.458-2.463a.821.821 0 0 1 1.159-1.16l1.75 1.753 2.724-4.092a.818.818 0 0 1 1.137-.227c.376.251.477.76.227 1.139l-3.278 4.925a.816.816 0 0 1-.681.365ZM25.29 46.657a.816.816 0 0 1-.579-.24l-2.458-2.464a.821.821 0 0 1 1.159-1.16l1.75 1.754 2.724-4.092a.817.817 0 0 1 1.137-.227.823.823 0 0 1 .227 1.138l-3.278 4.925a.816.816 0 0 1-.681.366ZM25.29 58.15a.816.816 0 0 1-.579-.241l-2.458-2.463a.821.821 0 0 1 1.159-1.16l1.75 1.754 2.724-4.092a.817.817 0 0 1 1.137-.227.823.823 0 0 1 .227 1.138l-3.278 4.926a.819.819 0 0 1-.681.364Z" fill="#fff"/><path d="M41.678 63.896H17.916a.82.82 0 0 1-.82-.821V23.672a.82.82 0 0 1 .82-.821h7.374a.82.82 0 0 1 0 1.642h-6.555v37.76h22.943a.82.82 0 0 1 0 1.643ZM50.69 45.836a.82.82 0 0 1-.819-.821V24.493h-6.555a.82.82 0 0 1 0-1.642h7.375a.82.82 0 0 1 .819.82v21.344a.82.82 0 0 1-.82.82Z" fill="#fff"/><path d="M43.316 24.492H25.29a.82.82 0 0 1-.82-.82v-7.388a.82.82 0 0 1 .82-.821h5.27A4.087 4.087 0 0 1 34.303 13c1.641 0 3.102.986 3.743 2.463h5.27a.82.82 0 0 1 .82.82v7.389a.82.82 0 0 1-.82.82ZM26.11 22.852h16.387v-5.746h-5.033a.819.819 0 0 1-.793-.616 2.452 2.452 0 0 0-2.368-1.847c-1.113 0-2.087.76-2.368 1.847a.82.82 0 0 1-.793.616H26.11v5.746Z" fill="#fff"/><path d="M43.316 68H13.82a.82.82 0 0 1-.819-.821V19.567a.82.82 0 0 1 .82-.82h11.47a.82.82 0 0 1 0 1.641H14.64v45.97h28.677a.82.82 0 0 1 0 1.642ZM54.788 45.836a.82.82 0 0 1-.82-.821V20.388H43.316a.82.82 0 0 1 0-1.642h11.471a.82.82 0 0 1 .82.821v25.448a.82.82 0 0 1-.82.82ZM44.955 32.702H33.484a.82.82 0 0 1 0-1.642h11.47a.82.82 0 0 1 0 1.642Z" fill="#fff"/><path d="M44.955 44.194H33.484a.82.82 0 0 1 0-1.642h11.47a.82.82 0 0 1 0 1.642ZM39.22 55.687h-5.736a.82.82 0 0 1 0-1.642h5.735a.82.82 0 0 1 0 1.642ZM64.881 68h-7.716a.817.817 0 0 1-.818-.845l.005-.194a.828.828 0 0 1 .208-.524c.35-.392.766-.994.766-1.635 0-.74-.715-1.35-1.627-1.385h-.042c-.911.035-1.625.644-1.624 1.386 0 .64.417 1.243.767 1.634.127.142.2.323.208.514l.008.193a.82.82 0 0 1-.819.855h-7.69a.82.82 0 0 1-.82-.822v-6.321a3.516 3.516 0 0 1-1.593.41h-.016c-1.59 0-2.9-1.351-3.02-3.099a.817.817 0 0 1 0-.257h-.006c.056-1.798 1.374-3.217 2.998-3.229.518-.01 1.098.134 1.637.409v-6.32a.82.82 0 0 1 .82-.821h7.685a.816.816 0 0 1 .818.845l-.01.326a.826.826 0 0 1-.205.52c-.349.393-.764.998-.763 1.64.002.74.719 1.347 1.63 1.38l.044-.002c.895-.036 1.621-.659 1.62-1.389-.001-.642-.42-1.242-.771-1.632a.824.824 0 0 1-.21-.523l-.01-.317a.82.82 0 0 1 .819-.848h7.728a.82.82 0 0 1 .82.82v6.333c.56-.276 1.13-.415 1.69-.388 1.597.052 2.862 1.457 2.914 3.215.003.03.005.062.005.093a4.755 4.755 0 0 1-.01.162c-.122 1.762-1.444 3.11-3.03 3.11-.03 0-.06 0-.09-.002a3.485 3.485 0 0 1-1.48-.394v6.281a.82.82 0 0 1-.82.821Zm-6.294-1.642h5.475v-6.94a.822.822 0 0 1 .87-.82l.18.012a.818.818 0 0 1 .512.224c.381.362.97.8 1.608.82.718-.01 1.37-.687 1.434-1.583l.001-.023v-.019c-.006-.913-.59-1.649-1.33-1.673-.632.001-1.254.379-1.659.717a.821.821 0 0 1-.524.19h-.274a.82.82 0 0 1-.82-.821v-6.85h-5.543c.293.552.444 1.117.446 1.675.003 1.594-1.34 2.904-3.08 3.026a1.1 1.1 0 0 1-.234.01.725.725 0 0 1-.153-.007c-1.744-.112-3.099-1.416-3.104-3.01 0-.57.147-1.137.442-1.693h-5.51v6.882c0 .22-.089.431-.246.587a.866.866 0 0 1-.59.234l-.265-.006a.819.819 0 0 1-.524-.205c-.394-.35-1.01-.74-1.64-.76-.726.005-1.342.74-1.37 1.638l-.001.026v.016c.042.913.683 1.63 1.394 1.622.638-.005 1.238-.427 1.629-.78a.82.82 0 0 1 .513-.21l.246-.01a.82.82 0 0 1 .854.82v6.911h5.449a3.543 3.543 0 0 1-.38-1.555c0-1.594 1.348-2.903 3.092-3.02a.906.906 0 0 1 .222-.01l.022-.003c.048 0 .095.004.14.013 1.743.118 3.092 1.425 3.093 3.019a3.472 3.472 0 0 1-.375 1.556Z" fill="#fff"/></svg>