<svg width="80" height="80" viewBox="0 0 80 80" fill="none" xmlns="http://www.w3.org/2000/svg">
<path d="M68 0.5H12C5.64873 0.5 0.5 5.64873 0.5 12V68C0.5 74.3513 5.64873 79.5 12 79.5H68C74.3513 79.5 79.5 74.3513 79.5 68V12C79.5 5.64873 74.3513 0.5 68 0.5Z" fill="#F79C01" stroke="#F69C01"/>
<path d="M58.29 24.226L53.935 26.839C53.935 26.839 44.886 26.551 41.899 26.829C40.096 26.995 36.037 28.807 34.008 29.765C33.2333 30.128 32.6193 30.7633 32.283 31.55L28.895 39.459C28.895 39.459 28.895 40.757 30.185 42.063C31.491 43.361 34.373 42.873 35.392 42.063C36.873 40.87 40 35.548 40 35.548H47.839M58.29 24.226C65.571 30.549 67 37.29 67 37.29M58.29 24.226L67 19M61.774 48.613C61.774 48.613 63.577 45.808 64.021 44.215L67 42.516M49.58 42.516L60.076 51.826C60.3866 52.1034 60.6395 52.4392 60.8203 52.8143C61.001 53.1895 61.1061 53.5965 61.1295 54.0123C61.1529 54.428 61.0942 54.8443 60.9567 55.2374C60.8191 55.6304 60.6055 55.9925 60.328 56.303C60.0496 56.6126 59.713 56.8643 59.3373 57.0437C58.9616 57.2231 58.5542 57.3268 58.1384 57.3487C57.7227 57.3706 57.3066 57.3104 56.9142 57.1714C56.5217 57.0325 56.1604 56.8176 55.851 56.539L46.968 49.484M57.184 60.806C56.9648 61.2417 56.6481 61.6211 56.2587 61.9148C55.8692 62.2084 55.4173 62.4085 54.9381 62.4994C54.4588 62.5903 53.9651 62.5696 53.4951 62.4389C53.0252 62.3083 52.5916 62.0712 52.228 61.746L45.226 56.452M49.59 64.29C49.0117 64.6108 48.3479 64.7437 47.6906 64.6702C47.0333 64.5968 46.4152 64.3206 45.922 63.88L44.355 62.548" stroke="white" stroke-opacity="0.96" stroke-width="1.8" stroke-miterlimit="10" stroke-linecap="round" stroke-linejoin="round"/>
<path d="M13 19L23.452 26.839C23.452 26.839 29.418 25.593 34.774 25.968M21.71 31.194C21.71 31.194 19.053 40.216 13 43.386C13 43.386 15.622 45.72 16.484 46.87M29.548 49.353C29.9329 49.3615 30.3116 49.4521 30.6586 49.6189C31.0056 49.7857 31.3129 50.0247 31.56 50.32L32.03 50.869C32.4948 51.4241 32.7211 52.1407 32.6592 52.8621C32.5974 53.5835 32.2525 54.2511 31.7 54.719L26.613 58.751C26.0609 59.2152 25.3471 59.4411 24.6285 59.379C23.9098 59.3169 23.2453 58.972 22.781 58.42L22.311 57.854C21.947 57.4193 21.7279 56.8818 21.6841 56.3166C21.6404 55.7513 21.7742 55.1865 22.067 54.701M36.516 52.924C36.812 53.081 37.082 53.299 37.309 53.569L37.788 54.144C38.2585 54.7049 38.4878 55.4293 38.4258 56.1588C38.3637 56.8883 38.0154 57.5636 37.457 58.037L31.769 62.697C30.611 63.681 28.86 63.524 27.876 62.357L27.397 61.782C26.413 60.624 26.57 58.872 27.728 57.889M40.374 59.996C40.8206 60.5286 41.0375 61.2167 40.9771 61.9091C40.9168 62.6016 40.584 63.2417 40.052 63.689L37.857 65.414C37.5931 65.6355 37.2881 65.8026 36.9594 65.9059C36.6307 66.0092 36.2849 66.0465 35.9417 66.0158C35.5986 65.985 35.2649 65.8868 34.9598 65.7267C34.6548 65.5666 34.3843 65.3479 34.164 65.083L33.703 64.552C33.4813 64.2879 33.3141 63.9825 33.2111 63.6534C33.1081 63.3242 33.0714 62.978 33.103 62.6346C33.1346 62.2912 33.234 61.9575 33.3953 61.6527C33.5567 61.348 33.7768 61.0782 34.043 60.859M25.01 48.822C25.236 49.0901 25.4069 49.4001 25.513 49.7343C25.6192 50.0685 25.6584 50.4204 25.6285 50.7697C25.5986 51.1191 25.5001 51.4591 25.3388 51.7704C25.1774 52.0817 24.9563 52.3582 24.688 52.584L21.544 54.936C20.9968 55.3909 20.2925 55.6122 19.5835 55.5519C18.8744 55.4917 18.2176 55.1547 17.755 54.614L17.311 54.074C16.8557 53.5269 16.6343 52.8224 16.6947 52.1132C16.7552 51.404 17.0927 50.7471 17.634 50.285L20.769 47.934C21.3111 47.4786 22.0116 47.2567 22.7171 47.3171C23.4225 47.3774 24.0752 47.7151 24.532 48.256L25.01 48.822Z" stroke="white" stroke-opacity="0.96" stroke-width="1.8" stroke-miterlimit="10" stroke-linecap="round" stroke-linejoin="round"/>
</svg>
