<svg width="80" height="80" fill="none" xmlns="http://www.w3.org/2000/svg"><rect x=".5" y=".5" width="79" height="79" rx="11.5" fill="#0A9CFC" stroke="#0A9CFC"/><path d="M53.63 19.438a3.708 3.708 0 0 0 2.768-.72 3.713 3.713 0 0 0 1.448-2.465 3.713 3.713 0 0 0-.72-2.768 3.713 3.713 0 0 0-2.465-1.449 3.713 3.713 0 0 0-2.768.72 3.713 3.713 0 0 0-1.449 2.466 3.713 3.713 0 0 0 .72 2.768 3.711 3.711 0 0 0 2.465 1.448Zm-2.166-4.074c.1-.715.472-1.35 1.05-1.785a2.688 2.688 0 0 1 2.004-.523 2.71 2.71 0 0 1 2.308 3.055c-.1.715-.473 1.35-1.05 1.785a2.69 2.69 0 0 1-2.005.523 2.689 2.689 0 0 1-1.785-1.05 2.69 2.69 0 0 1-.522-2.005ZM53.857 20.311a.511.511 0 0 0-.581.439l-.225 1.594-.001.01a.522.522 0 1 0 1.038.085l.208-1.546a.511.511 0 0 0-.44-.582ZM33.75 26.437l3.907.56h.01a.522.522 0 0 0 .143-1.033l-3.622-.505 7.474-4.35.94.975c.226.234.526.387.846.432.32.045.65-.02.93-.184l1.171-.681 1.074 1.134a.516.516 0 0 0 .378.162.522.522 0 0 0 .37-.888l-.905-.942 3.443-2.004a.512.512 0 0 0 .186-.704.515.515 0 0 0-.704-.186l-5.53 3.219a.422.422 0 0 1-.517-.072l-7.502-7.785L48.876 15.4a.513.513 0 0 0 .581-.439.515.515 0 0 0-.439-.58L35.69 12.524a1.448 1.448 0 0 0-1.079.281c-.31.235-.511.576-.565.961l-1.536 11.026c-.054.385.046.769.281 1.08.235.31.576.511.96.565Zm-.178-1.81 1.45-10.41 5.905 6.128-7.355 4.281Z" fill="#fff"/><path d="M63.974 56.54h-1.888l-.042-10.878a.53.53 0 1 0-1.06-.003l.041 10.88H12.781V23.843c0-1.039.845-1.884 1.883-1.884h13.53a.53.53 0 0 0 0-1.06h-13.53a2.947 2.947 0 0 0-2.943 2.944v32.696H9.83c-.717 0-1.351.392-1.656 1.022a1.725 1.725 0 0 0 .206 1.835l1.514 1.91a1.86 1.86 0 0 0 1.45.694H62.46a1.86 1.86 0 0 0 1.45-.693l1.514-1.911a1.725 1.725 0 0 0 .206-1.835 1.818 1.818 0 0 0-1.656-1.022Zm.619 2.197-1.514 1.911a.792.792 0 0 1-.619.291H11.344a.791.791 0 0 1-.62-.29l-1.513-1.912a.656.656 0 0 1-.083-.715.764.764 0 0 1 .702-.422h54.144c.367 0 .602.218.701.422a.656.656 0 0 1-.082.715ZM68.031 22.494a.51.51 0 0 0 .51-.51v-3.282a.51.51 0 0 0-1.02 0v3.281c0 .282.228.51.51.51ZM75.46 26.549h-3.282a.51.51 0 0 0 0 1.021h3.281a.51.51 0 0 0 0-1.021ZM74.18 21.184a.51.51 0 1 0-.723-.722l-2.32 2.32a.51.51 0 1 0 .722.722l2.32-2.32Z" fill="#fff"/><path d="m69.796 38.992-.144-12.06a.517.517 0 0 0-.524-.51l-1.999.028-.001-.13a1.806 1.806 0 0 0-1.797-1.788h-.022l-23.443.323h-.001a1.805 1.805 0 0 0-1.773 1.83l.084 7.1c.004.283.234.51.517.51h.006a.517.517 0 0 0 .51-.522l-.084-7.1a.777.777 0 0 1 .219-.552.752.752 0 0 1 1.075-.013c.147.145.23.34.232.548l.116 9.757c.004.283.234.51.517.51h.006a.517.517 0 0 0 .51-.523l-.115-9.757a1.816 1.816 0 0 0-.184-.777l21.82-.3a.77.77 0 0 1 .773.766l.001.131-20.367.281a.517.517 0 0 0-.51.523l.14 11.773c.004.283.234.51.517.51h.006a.517.517 0 0 0 .51-.522l-.133-11.257 22.366-.309.138 11.542v.038c.014 1.14-.892 2.08-2.018 2.093h-.003l-17.976.322a.517.517 0 0 0 .01 1.033h.009l17.974-.322c1.695-.02 3.058-1.429 3.038-3.139l-.001-.019v-.018Z" fill="#fff"/><path d="m54.491 29.651-5.563.066a.517.517 0 0 0-.511.524l.066 5.563c.003.283.234.51.517.51h.006l5.563-.065a.517.517 0 0 0 .511-.524l-.066-5.563a.517.517 0 0 0-.523-.51Zm-4.98 5.624-.054-4.53 4.53-.054.053 4.53-4.53.054ZM66.006 29.47l-8.097.14a.517.517 0 0 0 .009 1.034h.009l8.096-.14a.517.517 0 0 0-.017-1.034ZM66.039 32.251l-8.097.141a.517.517 0 0 0 .009 1.033h.009l8.096-.14a.517.517 0 0 0-.017-1.034ZM66.072 35.033l-8.097.14a.517.517 0 0 0 .01 1.034h.008l8.097-.14a.517.517 0 0 0-.009-1.034h-.009ZM48.521 39.018c.004.283.235.509.517.509h.008l17.08-.248a.517.517 0 0 0-.007-1.033h-.007l-17.081.247a.517.517 0 0 0-.51.525ZM37.422 52.173l1.44.252c.188.033.377.05.564.05.579 0 1.14-.157 1.621-.457.655-.41 1.086-1.035 1.213-1.761l.178-1.011 4.093.744a1.546 1.546 0 0 0 .849 1.316 1.551 1.551 0 0 0 1.188.095c.395-.129.717-.404.906-.775l1.765-3.465a1.559 1.559 0 0 0-.68-2.094 1.559 1.559 0 0 0-1.655.152L36.975 32.973a1.65 1.65 0 0 0-.82-1.97 1.65 1.65 0 0 0-2.217.72l-6.877 13.498c-.2.392-.235.839-.1 1.257.137.419.428.76.82.96a1.652 1.652 0 0 0 2.068-.483l5.298.964-.186 1.06c-.258 1.479.845 2.912 2.46 3.194Zm-7.059-6.175 3.004-5.895 3.128-6.14 11.801 12.115-1.484 2.913-16.449-2.993Zm19.49-.067a.524.524 0 0 1 .465.76l-1.766 3.466a.524.524 0 0 1-.932-.475l.113-.221 1.653-3.244a.523.523 0 0 1 .466-.286Zm-21.135.622a.61.61 0 0 1-.773-.394.61.61 0 0 1 .037-.469l6.877-13.498a.61.61 0 0 1 .826-.268.614.614 0 0 1 .268.826L33.787 37l-4.66 9.147-.052.1a.61.61 0 0 1-.357.306ZM41.42 49.06l-.178 1.018c-.076.433-.34.81-.742 1.062-.421.263-.94.357-1.46.266l-1.44-.252c-1.054-.184-1.781-1.08-1.62-1.997l.184-1.054 5.256.956ZM27.091 37.253a.517.517 0 0 0 .235-.978l-4.703-2.396a.517.517 0 1 0-.469.922l4.703 2.395a.515.515 0 0 0 .234.057ZM27.672 27.85a.517.517 0 0 0-.167.711l2.258 3.637a.516.516 0 1 0 .878-.545l-2.257-3.637a.517.517 0 0 0-.712-.167ZM27.09 33.748a.515.515 0 0 0 .728-.067.517.517 0 0 0-.067-.728l-1.1-.915a.517.517 0 1 0-.66.794l1.099.916ZM20.002 42.194a.517.517 0 0 0 .543.49l4.33-.23a.517.517 0 0 0-.055-1.033l-4.33.23a.517.517 0 0 0-.488.543ZM24.163 39.456a.517.517 0 0 0 .202-1.014l-1.146-.228a.517.517 0 1 0-.202 1.014l1.146.228ZM53.406 17.518a.588.588 0 0 0 .051.142.581.581 0 0 0 .09.122.47.47 0 0 0 .122.09.521.521 0 0 0 .61-.09.536.536 0 0 0 .14-.264.544.544 0 0 0 0-.202.452.452 0 0 0-.029-.097.56.56 0 0 0-.077-.13.534.534 0 0 0-.202-.15.537.537 0 0 0-.299-.03.542.542 0 0 0-.227.108.42.42 0 0 0-.072.072.456.456 0 0 0-.056.084.595.595 0 0 0-.05.143.56.56 0 0 0-.008.152.58.58 0 0 0 .007.05ZM54.034 16.53a.517.517 0 0 0 .583-.44l.25-1.796a.517.517 0 0 0-1.023-.143l-.25 1.796a.517.517 0 0 0 .44.583Z" fill="#fff"/></svg>