<svg width="80" height="80" viewBox="0 0 80 80" fill="none" xmlns="http://www.w3.org/2000/svg">
<path d="M68 0.5H12C5.64873 0.5 0.5 5.64873 0.5 12V68C0.5 74.3513 5.64873 79.5 12 79.5H68C74.3513 79.5 79.5 74.3513 79.5 68V12C79.5 5.64873 74.3513 0.5 68 0.5Z" fill="#FA6D20" stroke="#FA6D20"/>
<path d="M25.789 21.777H68V61.237H52.97" stroke="white" stroke-opacity="0.96" stroke-miterlimit="10" stroke-linecap="round" stroke-linejoin="round"/>
<path d="M25.687 26.048H57.92C57.92 28.606 60.267 30.677 63.162 30.677V52.338C60.265 52.338 57.92 54.41 57.92 56.967H51.233" stroke="white" stroke-opacity="0.96" stroke-miterlimit="10" stroke-linecap="round" stroke-linejoin="round"/>
<path d="M33.552 32.089H44.404" stroke="white" stroke-opacity="0.96" stroke-miterlimit="10" stroke-linecap="round" stroke-linejoin="round"/>
<path d="M29.366 35.92H48.59" stroke="white" stroke-opacity="0.96" stroke-miterlimit="10" stroke-linecap="round" stroke-linejoin="round"/>
<path d="M35.844 42.618C36.032 42.665 36.234 42.658 36.417 42.598C36.5963 42.5421 36.7545 42.4333 36.871 42.286C37.001 42.118 37.201 41.874 37.398 41.639C37.768 41.194 38.355 40.932 38.978 40.932C39.601 40.932 40.186 41.194 40.558 41.639C40.753 41.874 40.955 42.119 41.085 42.286C41.195 42.43 41.355 42.539 41.538 42.598C41.722 42.658 41.924 42.664 42.112 42.618C42.332 42.564 42.663 42.491 42.985 42.423C43.2809 42.3589 43.587 42.3579 43.8833 42.4199C44.1797 42.4819 44.4596 42.6056 44.705 42.783C45.183 43.139 45.441 43.673 45.405 44.226C45.385 44.518 45.362 44.82 45.339 45.024C45.3214 45.1991 45.3645 45.3749 45.461 45.522C45.559 45.672 45.708 45.792 45.885 45.864C46.095 45.949 46.401 46.082 46.695 46.212C47.251 46.46 47.644 46.926 47.753 47.47C47.86 48.015 47.673 48.573 47.243 48.973C47.016 49.186 46.779 49.404 46.616 49.548C46.4796 49.6642 46.3856 49.8225 46.349 49.998C46.3156 50.1702 46.3428 50.3486 46.426 50.503C46.525 50.688 46.663 50.963 46.795 51.233C47.043 51.74 47.005 52.321 46.695 52.8C46.384 53.28 45.835 53.6 45.216 53.66C44.9177 53.6915 44.6191 53.7189 44.32 53.742C44.128 53.7545 43.9434 53.8215 43.788 53.935C43.6419 54.0416 43.5345 54.1929 43.482 54.366C43.4048 54.6241 43.3232 54.8808 43.237 55.136C43.059 55.666 42.61 56.09 42.025 56.279C41.7358 56.3723 41.4302 56.4041 41.1279 56.3722C40.8257 56.3403 40.5334 56.2456 40.27 56.094C39.995 55.932 39.712 55.764 39.525 55.646C39.3611 55.5438 39.1717 55.4896 38.9785 55.4896C38.7853 55.4896 38.596 55.5438 38.432 55.646C38.246 55.765 37.962 55.933 37.688 56.094C37.4244 56.2456 37.132 56.3404 36.8296 56.3722C36.5272 56.4041 36.2214 56.3723 35.932 56.279C35.347 56.09 34.898 55.666 34.721 55.136C34.6345 54.8808 34.5525 54.6241 34.475 54.366C34.4229 54.193 34.3154 54.0419 34.169 53.936C34.0143 53.8225 33.8305 53.7552 33.639 53.742C33.3396 53.7192 33.0406 53.6922 32.742 53.661C32.124 53.598 31.575 53.278 31.264 52.801C31.1114 52.5713 31.0218 52.3056 31.0042 52.0304C30.9867 51.7552 31.0418 51.4802 31.164 51.233C31.296 50.963 31.434 50.688 31.532 50.503C31.6168 50.3488 31.6444 50.1696 31.61 49.997C31.5735 49.8215 31.4795 49.6632 31.343 49.547C31.179 49.403 30.943 49.185 30.715 48.972C30.286 48.571 30.098 48.012 30.206 47.469C30.314 46.924 30.706 46.457 31.264 46.211C31.56 46.08 31.864 45.947 32.075 45.863C32.2483 45.7946 32.3966 45.6749 32.5 45.52C32.5968 45.373 32.6396 45.197 32.621 45.022C32.5942 44.7568 32.5725 44.4911 32.556 44.225C32.518 43.673 32.777 43.138 33.255 42.782C33.5003 42.6044 33.7802 42.4806 34.0766 42.4185C34.373 42.3565 34.6791 42.3577 34.975 42.422C35.292 42.49 35.623 42.564 35.845 42.619L35.844 42.618ZM34.968 48.844C34.968 50.81 36.763 52.404 38.978 52.404C41.193 52.404 42.988 50.81 42.988 48.844C42.988 46.877 41.193 45.284 38.978 45.284C36.763 45.284 34.968 46.877 34.968 48.844Z" stroke="white" stroke-opacity="0.96" stroke-miterlimit="10" stroke-linecap="round" stroke-linejoin="round"/>
<path d="M32.885 53.677L28.71 63.707C30.456 63.187 31.724 62.527 33.355 61.374C33.772 62.963 34.235 64.142 35.111 65.817L39.522 55.647M45.07 53.677L49.245 63.707C47.498 63.187 46.231 62.527 44.599 61.374C44.183 62.963 43.722 64.142 42.844 65.817L38.99 56.878L45.07 53.677Z" stroke="white" stroke-opacity="0.96" stroke-miterlimit="10" stroke-linecap="round" stroke-linejoin="round"/>
<path d="M24.698 50.606H14.16M14.172 55.533L14.16 31.971C14.16 31.298 14.321 30.661 14.598 30.234L16.372 28.009L22.483 28.006L24.257 30.23C24.535 30.657 24.695 31.295 24.697 31.967L24.709 55.529L14.172 55.533ZM19.425 20.324L19.423 12L19.425 20.324ZM21.892 28.005L21.891 22.125C21.891 21.381 21.207 20.779 20.366 20.779L18.486 20.782C17.644 20.782 16.962 21.384 16.962 22.127L16.964 28.007L21.892 28.005ZM12 55.533L26.88 55.528L12 55.533ZM13.855 61.406L25.015 61.402L13.855 61.406ZM17.333 55.532L17.331 61.405L17.333 55.532ZM21.547 55.53L21.544 61.405L21.547 55.53ZM24.698 34.446H21.014H24.698ZM24.698 39.47H21.014H24.698ZM24.698 44.495H21.014H24.698Z" stroke="white" stroke-opacity="0.96" stroke-miterlimit="10" stroke-linecap="round" stroke-linejoin="round"/>
</svg>
