<svg width="80" height="80" fill="none" xmlns="http://www.w3.org/2000/svg"><rect x=".5" y=".5" width="79" height="79" rx="11.5" fill="#293661" stroke="#293661"/><path d="M28.5 59.395c-.391.655-.785 1.309-1.177 1.964-.65 1.085 1.044 2.072 1.693.99l1.178-1.964c.652-1.085-1.043-2.072-1.693-.99ZM33.74 59.395l-1.178 1.964c-.65 1.085 1.044 2.072 1.693.99l1.178-1.964c.652-1.085-1.042-2.072-1.693-.99ZM38.98 59.395 37.8 61.358c-.65 1.085 1.045 2.072 1.693.99.393-.655.787-1.309 1.179-1.964.652-1.085-1.045-2.072-1.693-.99ZM44.22 59.395l-1.18 1.964c-.65 1.085 1.045 2.072 1.694.99l1.178-1.964c.65-1.085-1.044-2.072-1.693-.99ZM28.931 64.577l-1.178 1.964c-.65 1.085 1.044 2.072 1.693.99l1.178-1.964c.65-1.085-1.044-2.074-1.693-.99ZM34.17 64.577l-1.178 1.964c-.65 1.085 1.044 2.072 1.693.99l1.178-1.964c.65-1.085-1.044-2.074-1.693-.99ZM39.41 64.577l-1.178 1.964c-.65 1.085 1.044 2.072 1.693.99l1.178-1.964c.65-1.085-1.044-2.074-1.693-.99ZM59.982 44.56c-.036 3.302-1.58 6.465-4.276 8.414-1.93 1.394-4.16 1.993-6.519 1.993H27.61c-1.021 0-2.043.004-3.066 0-2.771-.01-4.934-1.18-6.927-3.023-2.677-2.473-3.457-6.553-1.752-9.802 1.627-3.105 5.08-4.869 8.555-4.34.485.074 1.103-.115 1.206-.684.736-4.089 3.846-7.323 7.959-8.077 4.386-.802 8.68 1.625 10.577 5.576.25.52.887.545 1.342.352 3.394-1.438 7.393-.94 10.335 1.27 2.615 1.966 4.112 5.073 4.143 8.321.013 1.262 1.974 1.265 1.96 0a12.542 12.542 0 0 0-5.113-10.013c-3.577-2.63-8.273-2.984-12.314-1.27l1.342.352a11.823 11.823 0 0 0-9.12-6.59c-3.817-.487-7.759.988-10.282 3.903a11.837 11.837 0 0 0-2.72 5.656l1.206-.684c-3.49-.533-7.058.575-9.41 3.278-2.265 2.603-3.108 6.243-2.127 9.568 1.016 3.446 4.05 6.351 7.396 7.557 1.567.566 3.176.615 4.81.615h23.27c2.72 0 5.344-.564 7.624-2.126 3.39-2.326 5.395-6.139 5.439-10.242.014-1.265-1.947-1.267-1.961-.004Z" fill="#fff"/><path d="M44.31 27.791c1.024-4.273 5.526-6.788 9.684-5.244 4.17 1.55 5.854 6.578 3.724 10.397-.616 1.103 1.079 2.094 1.693.99 2.086-3.739 1.419-8.561-1.817-11.444-2.994-2.666-7.498-3.136-10.945-1.05-2.136 1.293-3.649 3.41-4.229 5.83-.296 1.226 1.595 1.75 1.89.521ZM49.171 12.94c.116 1.405.232 2.807.35 4.21.103 1.25 2.066 1.26 1.96 0-.115-1.403-.231-2.805-.349-4.21-.103-1.248-2.066-1.26-1.961 0ZM41.307 16.302l2.41 3.47c.716 1.03 2.416.05 1.693-.99-.804-1.157-1.606-2.315-2.41-3.47-.716-1.03-2.417-.05-1.693.99ZM36.165 23.129l3.826 1.8c1.136.535 2.133-1.155.99-1.692-1.274-.6-2.55-1.202-3.825-1.801-1.136-.536-2.133 1.153-.99 1.693ZM66.847 35.415l-3.825-1.8c-1.136-.535-2.133 1.154-.99 1.692l3.825 1.801c1.136.535 2.133-1.155.99-1.693ZM67.867 26.933l-4.217.35c-1.248.103-1.26 2.066 0 1.961l4.217-.35c1.248-.103 1.26-2.065 0-1.96ZM64.503 19.084l-3.477 2.407c-1.032.714-.05 2.414.99 1.693l3.478-2.407c1.03-.714.05-2.414-.99-1.693ZM57.668 13.954c-.602 1.273-1.205 2.546-1.806 3.82-.536 1.135 1.154 2.132 1.693.991l1.806-3.82c.536-1.135-1.154-2.132-1.693-.991Z" fill="#fff"/></svg>