<svg width="80" height="80" viewBox="0 0 80 80" fill="none" xmlns="http://www.w3.org/2000/svg">
<path d="M68 0.5H12C5.64873 0.5 0.5 5.64873 0.5 12V68C0.5 74.3513 5.64873 79.5 12 79.5H68C74.3513 79.5 79.5 74.3513 79.5 68V12C79.5 5.64873 74.3513 0.5 68 0.5Z" fill="#5394B8" stroke="#5394B8"/>
<path d="M44.847 55.01V51.138C44.847 49.666 41.297 47.278 38.394 47.278C35.49 47.278 31.941 49.666 31.941 51.138V55.009" stroke="white" stroke-opacity="0.96" stroke-width="2" stroke-miterlimit="10"/>
<path d="M38.394 60.172C46.234 60.172 52.591 53.816 52.591 45.975C52.591 38.135 46.234 31.778 38.394 31.778C30.553 31.778 24.197 38.134 24.197 45.975C24.197 53.815 30.553 60.172 38.394 60.172V60.172Z" stroke="white" stroke-opacity="0.96" stroke-width="2" stroke-miterlimit="10"/>
<path d="M38.394 47.214C36.071 47.214 34.522 45.239 34.522 42.813V41.342C34.522 38.915 36.071 36.941 38.394 36.941C40.717 36.941 42.266 38.915 42.266 41.341V42.813C42.266 45.239 40.717 47.214 38.394 47.214Z" stroke="white" stroke-opacity="0.96" stroke-width="2" stroke-miterlimit="10"/>
<path d="M34.522 29.197C34.522 27.726 30.972 25.337 28.069 25.337C25.165 25.337 21.616 27.726 21.616 29.197V33.069" stroke="white" stroke-opacity="0.96" stroke-width="2" stroke-miterlimit="10"/>
<path d="M28.069 25.273C25.746 25.273 24.197 23.299 24.197 20.873V19.4C24.197 16.974 25.746 14.999 28.069 14.999C30.392 14.999 31.941 16.974 31.941 19.4V20.871C31.941 23.298 30.391 25.272 28.069 25.272V25.273Z" stroke="white" stroke-opacity="0.96" stroke-width="2" stroke-miterlimit="10"/>
<path d="M42.266 29.197C42.266 27.726 45.815 25.337 48.719 25.337C51.623 25.337 55.172 27.726 55.172 29.197V33.069" stroke="white" stroke-opacity="0.96" stroke-width="2" stroke-miterlimit="10"/>
<path d="M48.719 25.273C51.042 25.273 52.591 23.299 52.591 20.873V19.4C52.591 16.974 51.041 14.999 48.719 14.999C46.396 14.999 44.847 16.974 44.847 19.4V20.871C44.847 23.298 46.396 25.272 48.719 25.272V25.273Z" stroke="white" stroke-opacity="0.96" stroke-width="2" stroke-miterlimit="10"/>
<path d="M66.787 53.719V49.847C66.787 48.376 63.238 45.987 60.334 45.987C58.528 45.987 56.462 46.917 55.172 47.975" stroke="white" stroke-opacity="0.96" stroke-width="2" stroke-miterlimit="10"/>
<path d="M60.334 45.923C58.011 45.923 56.463 43.949 56.463 41.523V40.05C56.463 37.624 58.011 35.649 60.334 35.649C62.658 35.649 64.206 37.624 64.206 40.05V41.521C64.206 43.948 62.658 45.922 60.334 45.922V45.923Z" stroke="white" stroke-opacity="0.96" stroke-width="2" stroke-miterlimit="10"/>
<path d="M10 53.719V49.847C10 48.376 13.55 45.987 16.453 45.987C18.26 45.987 20.325 46.917 21.616 47.975" stroke="white" stroke-opacity="0.96" stroke-width="2" stroke-miterlimit="10"/>
<path d="M16.4531 45.923C18.7761 45.923 20.3251 43.949 20.3251 41.523V40.05C20.3251 37.624 18.7761 35.649 16.4531 35.649C14.1301 35.649 12.5811 37.624 12.5811 40.05V41.521C12.5811 43.948 14.1301 45.922 16.4531 45.922V45.923Z" stroke="white" stroke-opacity="0.96" stroke-width="2" stroke-miterlimit="10"/>
<path d="M50.422 53.719L61.38 64.676C61.8637 65.1608 62.1354 65.8177 62.1354 66.5025C62.1354 67.1873 61.8637 67.8442 61.38 68.329L60.463 69.245C59.9783 69.7284 59.3216 69.9998 58.637 69.9998C57.9524 69.9998 57.2958 69.7284 56.811 69.245L45.853 58.288" stroke="white" stroke-opacity="0.96" stroke-width="2" stroke-miterlimit="10"/>
</svg>
