<svg width="80" height="80" viewBox="0 0 80 80" fill="none" xmlns="http://www.w3.org/2000/svg">
<path d="M68 0.5H12C5.64873 0.5 0.5 5.64873 0.5 12V68C0.5 74.3513 5.64873 79.5 12 79.5H68C74.3513 79.5 79.5 74.3513 79.5 68V12C79.5 5.64873 74.3513 0.5 68 0.5Z" fill="#8D127A" stroke="#8D127A"/>
<path d="M39.028 44.05C44.414 49.781 50.118 52.996 51.772 51.225" stroke="white" stroke-opacity="0.96" stroke-width="1.6" stroke-miterlimit="10"/>
<path d="M39.028 44.05C33.642 38.32 30.621 32.252 32.285 30.492" stroke="white" stroke-opacity="0.96" stroke-width="1.6" stroke-miterlimit="10"/>
<path d="M19.202 62.2C18.842 63.126 18.969 64.186 19.542 64.784C20.103 65.382 21.1 65.517 21.969 65.144C21.969 65.144 49.249 53.921 51.029 52.026L51.782 51.225C53.436 49.465 50.415 43.397 45.04 37.666C39.654 31.936 33.95 28.721 32.296 30.492L31.543 31.292C29.751 33.176 19.202 62.201 19.202 62.201V62.2Z" stroke="white" stroke-opacity="0.96" stroke-width="1.6" stroke-miterlimit="10"/>
<path d="M40.756 45.585V56.865" stroke="white" stroke-opacity="0.96" stroke-width="1.6" stroke-miterlimit="10"/>
<path d="M35.455 39.945V59.12" stroke="white" stroke-opacity="0.96" stroke-width="1.6" stroke-miterlimit="10"/>
<path d="M30.1541 33.876V61.377" stroke="white" stroke-opacity="0.96" stroke-width="1.6" stroke-miterlimit="10"/>
<path d="M24.853 47.029V63.633" stroke="white" stroke-opacity="0.96" stroke-width="1.6" stroke-miterlimit="10"/>
<path d="M44.997 20.768C46.754 20.768 48.177 19.253 48.177 17.384C48.177 15.515 46.755 14 44.998 14C43.241 14 41.818 15.515 41.818 17.384C41.818 19.254 43.241 20.768 44.998 20.768H44.997Z" stroke="white" stroke-opacity="0.96" stroke-width="1.6" stroke-miterlimit="10" stroke-linejoin="round"/>
<path d="M44.9969 45.585C49.1109 40.159 55.5999 35.388 60.8999 38.817C65.3739 41.704 63.6359 46.194 60.8159 46.667C57.9849 47.141 56.3939 44.502 56.6589 43.329" stroke="white" stroke-opacity="0.96" stroke-width="1.6" stroke-miterlimit="10" stroke-linejoin="round"/>
<path d="M64.622 23.42L63.54 27.356L66 30.605L61.865 30.909L59.787 34.113L58.207 30.469L54.667 28.969L57.687 26.577L57.815 22.178L60.953 24.683L64.622 23.419V23.42Z" stroke="white" stroke-opacity="0.96" stroke-width="1.6" stroke-miterlimit="10" stroke-linejoin="round"/>
<path d="M36.992 35.647C39.781 29.973 41.552 21.152 36.515 19.64C33.377 18.704 31.215 20.486 31.215 23.024C31.215 25.562 34.13 26.69 35.455 25.28" stroke="white" stroke-opacity="0.96" stroke-width="1.6" stroke-miterlimit="10" stroke-linejoin="round"/>
<path d="M51.062 14.226C53.956 19.742 52.101 26.713 46.916 29.792" stroke="white" stroke-opacity="0.96" stroke-width="1.6" stroke-miterlimit="10" stroke-linejoin="round"/>
</svg>
