<svg width="80" height="80" fill="none" xmlns="http://www.w3.org/2000/svg"><rect x=".5" y=".5" width="79" height="79" rx="11.5" fill="#FFC807" stroke="#FFC807"/><path d="M53.623 64.813h-26.78a.92.92 0 0 1-.918-.918c0-4.086 7.932-7.602 10.356-8.584v-6.408C19.296 43.045 20.104 19.129 20.113 18.88a.92.92 0 0 1 .918-.881h38.404c.495 0 .9.386.918.881.009.248.817 24.164-16.168 30.012v6.409c2.433.982 10.356 4.498 10.356 8.584a.917.917 0 0 1-.918.927ZM28.01 62.967h24.448c-1.166-2.295-6.197-4.92-9.52-6.178a.924.924 0 0 1-.597-.863v-7.703c0-.404.266-.762.652-.881C57.46 42.88 58.48 24.152 58.517 19.845H21.949c.037 4.306 1.056 23.035 15.525 27.506.386.12.652.477.652.881v7.703a.924.924 0 0 1-.597.863c-3.323 1.249-8.354 3.874-9.52 6.17Z" fill="#fff"/><path d="M25.75 39.85c-10.916 0-14.579-15.524-14.726-16.186a.916.916 0 0 1 .175-.78.939.939 0 0 1 .716-.34h9.29a.92.92 0 0 1 .919.918.92.92 0 0 1-.918.919h-8.08c1.029 3.452 4.738 13.615 12.634 13.615a.92.92 0 0 1 .918.918.927.927 0 0 1-.928.936ZM54.716 39.85a.92.92 0 0 1-.918-.918.92.92 0 0 1 .918-.918c7.904 0 11.604-10.172 12.633-13.615h-8.08a.92.92 0 0 1-.918-.918.92.92 0 0 1 .918-.918h9.291c.285 0 .542.128.716.349.175.22.24.505.175.78-.156.634-3.81 16.158-14.735 16.158ZM35.409 39.85a.91.91 0 0 1-.872-1.203l1.634-5.04-4.288-3.112a.91.91 0 0 1-.33-1.028.918.918 0 0 1 .872-.634h5.297l1.634-5.04a.918.918 0 0 1 1.745 0l1.634 5.04h5.297c.395 0 .753.257.872.634a.924.924 0 0 1-.33 1.028l-4.278 3.112 1.634 5.04a.924.924 0 0 1-.33 1.029.91.91 0 0 1-1.084 0l-4.288-3.113-4.287 3.113a.923.923 0 0 1-.532.174Zm-.147-9.18 2.534 1.836a.91.91 0 0 1 .33 1.028l-.964 2.974 2.534-1.836a.909.909 0 0 1 1.083 0l2.534 1.836-.964-2.974a.924.924 0 0 1 .33-1.028l2.535-1.837h-3.131a.918.918 0 0 1-.872-.633l-.964-2.975-.964 2.975a.918.918 0 0 1-.872.633h-3.15ZM57.59 70H22.876a.92.92 0 0 1-.918-.918v-5.187a.92.92 0 0 1 .918-.918h34.712a.92.92 0 0 1 .919.918v5.187a.91.91 0 0 1-.919.918Zm-33.795-1.845H56.67v-3.351H23.795v3.35Z" fill="#fff"/></svg>