<svg width="80" height="80" viewBox="0 0 80 80" fill="none" xmlns="http://www.w3.org/2000/svg">
<path d="M68 0.5H12C5.64873 0.5 0.5 5.64873 0.5 12V68C0.5 74.3513 5.64873 79.5 12 79.5H68C74.3513 79.5 79.5 74.3513 79.5 68V12C79.5 5.64873 74.3513 0.5 68 0.5Z" fill="#5993FF" stroke="#5993FF"/>
<path d="M33.7607 50.3091H33.4227V50.6455V53.3134C33.4227 53.389 33.3611 53.4504 33.285 53.4504C33.209 53.4504 33.1473 53.389 33.1473 53.3134V50.1722C33.1473 50.0964 33.209 50.0351 33.285 50.0351H37.0628C37.1388 50.0351 37.2005 50.0964 37.2005 50.1722V53.3134C37.2005 53.389 37.1388 53.4504 37.0628 53.4504C36.9867 53.4504 36.9251 53.389 36.9251 53.3134V50.6455V50.3091H36.5871H33.7607Z" stroke="white" stroke-opacity="0.96" stroke-width="0.5"/>
<path d="M39.7604 47.2128H39.4225V47.5492V53.3134C39.4225 53.389 39.3608 53.4504 39.2848 53.4504C39.2087 53.4504 39.1471 53.389 39.1471 53.3134V47.0759C39.1471 47.0003 39.2087 46.9389 39.2848 46.9389H43.0625C43.1386 46.9389 43.2001 47.0003 43.2001 47.0759V53.3134C43.2001 53.389 43.1386 53.4504 43.0625 53.4504C42.9864 53.4504 42.9248 53.389 42.9248 53.3135V53.3134V47.5492V47.2128H42.5869H39.7604Z" stroke="white" stroke-opacity="0.96" stroke-width="0.5"/>
<path d="M45.7601 40.885H45.4221V41.2214V53.3132C45.4221 53.389 45.3606 53.4503 45.2845 53.4503C45.2084 53.4503 45.1467 53.389 45.1467 53.3132V40.7479C45.1467 40.6722 45.2084 40.6108 45.2845 40.6108H49.0621C49.1382 40.6108 49.1997 40.6722 49.1997 40.7479V53.3132C49.1997 53.389 49.1382 53.4503 49.0621 53.4503C48.9863 53.4503 48.9245 53.389 48.9245 53.3132V41.2214V40.885H48.5865H45.7601Z" stroke="white" stroke-opacity="0.96" stroke-width="0.5"/>
<path d="M51.7599 31.5103H51.422V31.8467V53.3133C51.422 53.389 51.3603 53.4504 51.2844 53.4504C51.2082 53.4504 51.1466 53.389 51.1466 53.3133V31.3733C51.1466 31.2977 51.2081 31.2364 51.2845 31.2364H55.0621C55.138 31.2364 55.1996 31.2976 55.1996 31.3733V53.3133C55.1996 53.3891 55.1381 53.4504 55.0621 53.4504C54.986 53.4504 54.9244 53.389 54.9244 53.3133V31.8467V31.5103H54.5864H51.7599Z" stroke="white" stroke-opacity="0.96" stroke-width="0.5"/>
<path d="M30.8508 55.1218H57.2941C57.37 55.1218 57.4318 55.1833 57.4318 55.2589C57.4318 55.3347 57.3702 55.396 57.2941 55.396H30.8508C30.7747 55.396 30.713 55.3347 30.713 55.2589C30.713 55.1832 30.7747 55.1218 30.8508 55.1218Z" stroke="white" stroke-opacity="0.96" stroke-width="0.5"/>
<path fill-rule="evenodd" clip-rule="evenodd" d="M29.5639 14.4182C26.8388 14.4182 24.6296 16.6169 24.6296 19.3291V62.3836C24.6296 65.0958 26.8388 67.2945 29.5639 67.2945H49.3396C52.0647 67.2945 54.2739 65.0958 54.2739 62.3836V57.6745H52.5165V62.3836C52.5165 64.1299 51.094 65.5455 49.3396 65.5455H29.5639C27.8093 65.5455 26.387 64.1299 26.387 62.3836V19.3291C26.387 17.5829 27.8093 16.1673 29.5639 16.1673H49.3396C51.094 16.1673 52.5165 17.5829 52.5165 19.3291V26.7291H54.2739V19.3291C54.2739 16.6169 52.0647 14.4182 49.3396 14.4182H29.5639Z" fill="white"/>
<path d="M39.9515 36.9603H39.9513C39.1556 37.2954 38.3107 37.4653 37.4386 37.4653C36.5666 37.4653 35.7217 37.2952 34.9258 36.9603C34.1572 36.6368 33.467 36.1738 32.8741 35.5835H32.874C32.2809 34.9932 31.8157 34.3064 31.4906 33.5414V33.5413C31.154 32.7493 30.9833 31.9084 30.9833 31.0405C30.9833 30.1725 31.154 29.3316 31.4906 28.5397V28.5395C31.8157 27.7745 32.2809 27.0878 32.874 26.4975C33.4672 25.9072 34.1572 25.4442 34.9258 25.1207L34.926 25.1206C35.7217 24.7856 36.5666 24.6157 37.4386 24.6157C38.3106 24.6157 39.1555 24.7857 39.9515 25.1207C40.7201 25.4442 41.4101 25.9072 42.0032 26.4975C42.5964 27.0878 43.0615 27.7745 43.3865 28.5395L43.3867 28.5397C43.7233 29.3316 43.894 30.1725 43.894 31.0405C43.894 31.9084 43.7231 32.7493 43.3865 33.5414C43.0615 34.3064 42.5964 34.9932 42.0032 35.5835C41.4101 36.1738 40.7201 36.6368 39.9515 36.9603ZM43.6188 31.0405C43.6188 27.6486 40.8465 24.8896 37.4386 24.8896C34.0305 24.8896 31.2585 27.6486 31.2585 31.0405C31.2585 34.4325 34.0305 37.1914 37.4386 37.1914C40.8467 37.1914 43.6188 34.4322 43.6188 31.0405Z" stroke="white" stroke-opacity="0.96" stroke-width="0.5"/>
<path d="M36.1209 33.7862C36.4025 34.0142 36.746 34.1726 37.122 34.2478L37.388 34.3009L37.3933 34.5711L37.4036 35.1031C37.4049 35.1741 37.4639 35.2305 37.5351 35.2292C37.6065 35.2278 37.6631 35.1692 37.6618 35.0983L37.6525 34.6175L37.6466 34.3148L37.9484 34.2773C38.4306 34.2172 38.8698 34.0244 39.209 33.7274C39.4108 33.5504 39.5657 33.3477 39.6724 33.1246C39.7853 32.8889 39.8391 32.6413 39.8342 32.3866C39.8226 31.7789 39.465 31.2028 38.8414 30.8582C38.7852 30.827 38.4526 30.6527 37.9163 30.5479L37.6441 30.4948L37.6435 30.2186L37.6392 28.0948L37.6383 27.6689L38.0548 27.7667C38.3196 27.8289 38.5675 27.9455 38.7761 28.1147C39.0861 28.3659 39.2817 28.7154 39.2893 29.1045M36.1209 33.7862C35.9124 33.6173 35.75 33.4205 35.6346 33.2018C35.5128 32.9703 35.4495 32.7251 35.4445 32.4706M36.1209 33.7862L35.4445 32.4706M35.4445 32.4706C35.4431 32.3997 35.4998 32.341 35.5712 32.3397C35.6424 32.3383 35.7013 32.3948 35.7028 32.4657M35.4445 32.4706L35.7028 32.4657M38.939 27.9151C38.6645 27.6927 38.3238 27.5438 37.9516 27.4849L37.6723 27.4406L37.6669 27.1591L37.6572 26.6534C37.6557 26.5823 37.5968 26.526 37.5255 26.5273C37.4543 26.5288 37.3975 26.5874 37.3989 26.6584L37.4087 27.1641L37.4141 27.4456L37.1367 27.5005C36.7671 27.5735 36.4326 27.7353 36.1666 27.9682C35.788 28.2995 35.5955 28.7279 35.6041 29.1746C35.6125 29.6095 35.8121 30.022 36.1849 30.336L36.1891 30.3391L36.1935 30.3431C36.4389 30.5429 36.7639 30.6421 37.1316 30.7001L37.416 30.7449L37.4166 31.0316L37.4218 33.6275L37.4228 34.0767L36.9894 33.9511C36.2938 33.7496 35.7169 33.1962 35.7028 32.4657M38.939 27.9151C39.3302 28.232 39.5388 28.6526 39.5475 29.0995M38.939 27.9151L39.5475 29.0995M39.5475 29.0995L39.2893 29.1045M39.5475 29.0995C39.5488 29.1705 39.4922 29.2291 39.4208 29.2305C39.3496 29.2318 39.2906 29.1754 39.2893 29.1045M36.3523 30.14C36.0558 29.8904 35.8698 29.5477 35.8626 29.1696C35.855 28.7807 36.037 28.4239 36.3374 28.161C36.5199 28.0013 36.7362 27.8829 36.9695 27.8083L37.4099 27.6676L37.4107 28.1279L37.4148 30.0856L37.4156 30.5L37.008 30.4155C36.7889 30.3702 36.5422 30.295 36.3562 30.1432L36.3523 30.14ZM38.7162 31.0829L38.7129 31.081L38.711 31.0801L38.7068 31.0778L38.6943 31.0712C38.6843 31.0661 38.6712 31.0595 38.6553 31.0518C38.6232 31.0363 38.5794 31.0163 38.5244 30.9937C38.4145 30.9486 38.26 30.8933 38.0665 30.8446L37.6449 30.7386L37.6457 31.1714L37.6507 33.6713L37.6515 34.0752L38.0504 34.0013C38.8776 33.8481 39.5922 33.2234 39.5761 32.3915C39.5655 31.8414 39.2206 31.3615 38.7162 31.0829Z" stroke="white" stroke-opacity="0.96" stroke-width="0.5"/>
</svg>
