<svg width="80" height="80" viewBox="0 0 80 80" fill="none" xmlns="http://www.w3.org/2000/svg">
<path d="M68 0.5H12C5.64873 0.5 0.5 5.64873 0.5 12V68C0.5 74.3513 5.64873 79.5 12 79.5H68C74.3513 79.5 79.5 74.3513 79.5 68V12C79.5 5.64873 74.3513 0.5 68 0.5Z" fill="#AE4911" stroke="#AE4911"/>
<path d="M33.501 33.178C33.1502 33.177 32.8142 33.0371 32.5663 32.789C32.3184 32.5409 32.1788 32.2048 32.178 31.854V29.207C32.178 27.697 36.558 25.236 40.119 25.236C43.693 25.236 48.061 27.698 48.061 29.206V31.854C48.061 32.582 47.465 33.178 46.737 33.178H33.501Z" stroke="white" stroke-opacity="0.96" stroke-width="1.8" stroke-miterlimit="10"/>
<path d="M40.12 25.236C43.296 25.236 45.414 22.695 45.414 19.558V17.678C45.414 14.541 43.309 12 40.119 12C36.943 12 34.825 14.541 34.825 17.678V19.571C34.825 22.695 36.929 25.236 40.119 25.236H40.12Z" stroke="white" stroke-opacity="0.96" stroke-width="1.8" stroke-miterlimit="10"/>
<path d="M33.501 67.59C33.1504 67.589 32.8145 67.4492 32.5666 67.2014C32.3188 66.9535 32.179 66.6176 32.178 66.267V63.62C32.178 62.111 36.558 59.65 40.119 59.65C43.693 59.65 48.061 62.111 48.061 63.62V66.267C48.061 66.995 47.465 67.591 46.737 67.591H33.501V67.59Z" stroke="white" stroke-opacity="0.96" stroke-width="1.8" stroke-miterlimit="10"/>
<path d="M40.12 59.65C43.296 59.65 45.414 57.108 45.414 53.971V52.078C45.414 48.941 43.309 46.4 40.119 46.4C36.943 46.4 34.825 48.941 34.825 52.078V53.971C34.825 57.108 36.929 59.649 40.119 59.649L40.12 59.65Z" stroke="white" stroke-opacity="0.96" stroke-width="1.8" stroke-miterlimit="10"/>
<path d="M12.324 51.708C11.9731 51.7072 11.6368 51.5674 11.3887 51.3193C11.1405 51.0712 11.0008 50.7349 11 50.384V47.737C11 46.228 15.368 43.767 18.942 43.767C22.515 43.767 26.883 46.228 26.883 47.737V50.384C26.883 51.112 26.288 51.708 25.56 51.708H12.323H12.324Z" stroke="white" stroke-opacity="0.96" stroke-width="1.8" stroke-miterlimit="10"/>
<path d="M18.942 43.766C22.118 43.766 24.236 41.225 24.236 38.088V36.195C24.236 33.072 22.131 30.53 18.942 30.53C15.765 30.53 13.647 33.072 13.647 36.208V38.101C13.647 41.225 15.752 43.766 18.942 43.766Z" stroke="white" stroke-opacity="0.96" stroke-width="1.8" stroke-miterlimit="10"/>
<path d="M54.679 51.708C54.3281 51.7072 53.9918 51.5674 53.7436 51.3193C53.4955 51.0712 53.3558 50.7349 53.355 50.384V47.737C53.355 46.228 57.736 43.767 61.297 43.767C64.87 43.767 69.238 46.228 69.238 47.737V50.384C69.238 51.112 68.642 51.708 67.915 51.708H54.678H54.679Z" stroke="white" stroke-opacity="0.96" stroke-width="1.8" stroke-miterlimit="10"/>
<path d="M61.297 43.766C64.473 43.766 66.591 41.225 66.591 38.088V36.195C66.591 33.058 64.486 30.517 61.297 30.517C58.12 30.517 56.002 33.058 56.002 36.195V38.088C56.002 41.225 58.12 43.766 61.297 43.766Z" stroke="white" stroke-opacity="0.96" stroke-width="1.8" stroke-miterlimit="10"/>
<path d="M19.616 26.56C22.4296 22.5923 26.3332 19.5255 30.854 17.731" stroke="white" stroke-opacity="0.96" stroke-width="1.8" stroke-miterlimit="10"/>
<path d="M28.207 63.276C24.7981 61.4372 21.8587 58.8376 19.617 55.679" stroke="white" stroke-opacity="0.96" stroke-width="1.8" stroke-miterlimit="10"/>
<path d="M60.622 26.56C57.8084 22.5924 53.9048 19.5256 49.384 17.731" stroke="white" stroke-opacity="0.96" stroke-width="1.8" stroke-miterlimit="10"/>
<path d="M52.032 63.276C55.4409 61.4372 58.3803 58.8376 60.622 55.679" stroke="white" stroke-opacity="0.96" stroke-width="1.8" stroke-miterlimit="10"/>
</svg>
