<svg width="80" height="80" fill="none" xmlns="http://www.w3.org/2000/svg"><path d="M68 .5H12C5.649.5.5 5.649.5 12v56c0 6.351 5.149 11.5 11.5 11.5h56c6.351 0 11.5-5.149 11.5-11.5V12C79.5 5.649 74.351.5 68 .5Z" fill="#0E7E85" stroke="#0E7E85"/><path d="M44.855 37.353a.774.774 0 0 0-.774.773v3.72c0 2.148-1.57 4.07-3.712 4.278a4.124 4.124 0 0 1-4.536-4.093v-3.909a.774.774 0 0 0-1.549 0v3.707c0 2.364 1.4 4.52 3.487 5.413.772.332 1.411 1.015 1.411 1.854 0 .925-.75 1.675-1.678 1.675h-.125a.774.774 0 0 0-.775.772c0 .425.346.773.775.773h5.156a.774.774 0 0 0 .775-.773.774.774 0 0 0-.775-.773h-.123c-.928 0-1.68-.75-1.68-1.676 0-.838.636-1.523 1.41-1.846a5.664 5.664 0 0 0 3.487-5.22v-3.906a.773.773 0 0 0-.774-.769Z" fill="#fff"/><path d="M39.957 44.6a2.582 2.582 0 0 0 2.578-2.572v-8.1a2.582 2.582 0 0 0-2.578-2.572 2.58 2.58 0 0 0-2.578 2.572v8.1a2.582 2.582 0 0 0 2.578 2.572ZM34.982 25.287a.699.699 0 0 0 .697-.696.699.699 0 0 0-.697-.696h-.004a.696.696 0 0 0 .004 1.392Z" fill="#fff"/><path d="M48.292 20.908H31.496a2.695 2.695 0 0 0-2.698 2.692v36.654a2.695 2.695 0 0 0 2.698 2.692h16.796a2.695 2.695 0 0 0 2.698-2.691V23.6a2.695 2.695 0 0 0-2.698-2.692ZM29 27h22M29 58h22" stroke="#fff" stroke-width="1.3"/><path fill-rule="evenodd" clip-rule="evenodd" d="M44.257 24.517a.622.622 0 0 1-.624.621h-4.986a.622.622 0 1 1 0-1.243h4.986c.345 0 .624.278.624.622ZM43.01 60.582a.622.622 0 0 1-.623.622H37.4a.622.622 0 1 1 0-1.244h4.986c.344 0 .623.279.623.622ZM54.852 51.255a.622.622 0 0 1-.623-.622V35.709a.622.622 0 0 1 1.247 0v14.924a.623.623 0 0 1-.624.621ZM24.935 51.255a.622.622 0 0 1-.623-.622V35.709a.622.622 0 0 1 1.246 0v14.924c0 .343-.279.621-.623.621ZM62.332 48.767a.622.622 0 0 1-.623-.622V36.953a.623.623 0 0 1 1.246 0v11.192a.622.622 0 0 1-.623.622ZM17.456 48.767a.622.622 0 0 1-.623-.622V36.953a.622.622 0 0 1 1.246 0v11.192a.622.622 0 0 1-.623.622ZM66.072 43.793a.623.623 0 0 1-.624-.622v-2.487a.622.622 0 0 1 1.247 0v2.487c0 .343-.28.622-.623.622ZM13.716 43.367a.622.622 0 0 1-.623-.621v-2.488a.622.622 0 0 1 1.246 0v2.487a.622.622 0 0 1-.623.622ZM58.592 53.742a.622.622 0 0 1-.623-.622V33.222a.622.622 0 0 1 1.246 0V53.12c0 .344-.279.622-.623.622ZM21.195 53.742a.622.622 0 0 1-.623-.622V33.222a.622.622 0 0 1 1.247 0V53.12a.622.622 0 0 1-.624.622Z" fill="#fff"/></svg>