<svg width="80" height="80" viewBox="0 0 80 80" fill="none" xmlns="http://www.w3.org/2000/svg">
<path d="M68 0.5H12C5.64873 0.5 0.5 5.64873 0.5 12V68C0.5 74.3513 5.64873 79.5 12 79.5H68C74.3513 79.5 79.5 74.3513 79.5 68V12C79.5 5.64873 74.3513 0.5 68 0.5Z" fill="#470428" stroke="#470428"/>
<path d="M40.616 45.983H43.078C43.853 45.983 45.068 46.475 45.539 47.213H48.001C49.155 47.213 50.463 48.289 50.463 49.673H52.924C54.078 49.673 55.386 50.749 55.386 52.133V64.936C55.386 67.425 52.924 68.927 52.924 70.585" stroke="white" stroke-opacity="0.96" stroke-width="1.8" stroke-miterlimit="10" stroke-linecap="round" stroke-linejoin="round"/>
<path d="M40.616 50.903V37.372C40.616 37.0489 40.5524 36.7289 40.4287 36.4304C40.305 36.1318 40.1237 35.8606 39.8952 35.6322C39.6666 35.4037 39.3953 35.2225 39.0967 35.099C38.7982 34.9754 38.4782 34.9119 38.155 34.912C37.8318 34.9117 37.5117 34.9752 37.213 35.0987C36.9143 35.2222 36.6429 35.4033 36.4142 35.6318C36.1856 35.8603 36.0042 36.1315 35.8805 36.4301C35.7567 36.7287 35.693 37.0488 35.693 37.372V55.824C35.493 56.0157 35.2531 56.1609 34.9904 56.249C34.7277 56.3372 34.4488 56.3662 34.1736 56.334C33.8984 56.3018 33.6338 56.2092 33.3985 56.0628C33.1633 55.9163 32.9634 55.7197 32.813 55.487L30.833 52.419C28.863 49.709 25.848 51.229 25.848 52.419C25.848 52.419 29.582 61.139 30.118 61.976C30.978 63.321 35.695 68.806 35.695 69.858V70.585" stroke="white" stroke-opacity="0.96" stroke-width="1.8" stroke-miterlimit="10" stroke-linecap="round" stroke-linejoin="round"/>
<path d="M45.54 47.213V52.133" stroke="white" stroke-opacity="0.96" stroke-width="1.8" stroke-miterlimit="10" stroke-linecap="round" stroke-linejoin="round"/>
<path d="M50.463 49.673V53.363" stroke="white" stroke-opacity="0.96" stroke-width="1.8" stroke-miterlimit="10" stroke-linecap="round" stroke-linejoin="round"/>
<path d="M32 39.832H25.846C25.166 39.832 24.616 39.282 24.616 38.602V29.992C24.616 28.629 23.314 28.867 22.943 29.422C22.226 30.494 21.113 31.222 19.829 31.222C17.413 31.222 15.517 28.702 16.109 25.87C16.42 24.384 17.469 23.166 18.782 22.77C20.496 22.25 22.037 23.055 22.942 24.408C23.314 24.965 24.616 25.203 24.616 23.841V15.231C24.616 14.551 25.166 14 25.846 14H36.924C38.287 14 38.048 15.3 37.493 15.671C36.138 16.576 35.333 18.116 35.853 19.831C36.25 21.142 37.467 22.189 38.955 22.501C41.787 23.093 44.309 21.201 44.309 18.784C44.309 17.501 43.581 16.388 42.509 15.671C41.953 15.301 41.715 14 43.078 14H54.155C54.835 14 55.385 14.55 55.385 15.23V23.84C55.385 25.203 56.687 24.965 57.058 24.41C57.963 23.055 59.504 22.25 61.218 22.77C62.531 23.167 63.58 24.385 63.891 25.872C64.483 28.702 62.589 31.223 60.171 31.223C58.887 31.223 57.773 30.496 57.057 29.424C56.684 28.867 55.384 28.631 55.384 29.993V38.603C55.384 39.283 54.834 39.833 54.154 39.833H44.307" stroke="white" stroke-opacity="0.96" stroke-width="1.8" stroke-miterlimit="10"/>
</svg>
