<svg width="80" height="80" viewBox="0 0 80 80" fill="none" xmlns="http://www.w3.org/2000/svg">
<path d="M68 0.5H12C5.64873 0.5 0.5 5.64873 0.5 12V68C0.5 74.3513 5.64873 79.5 12 79.5H68C74.3513 79.5 79.5 74.3513 79.5 68V12C79.5 5.64873 74.3513 0.5 68 0.5Z" fill="#0A4808" stroke="#0A4808"/>
<path d="M18 62.133V20.333C18.0008 18.6536 18.6683 17.0433 19.8558 15.8558C21.0433 14.6683 22.6536 14.0008 24.333 14H61.067V57.067H57.267" fill="#0A4808"/>
<path d="M18 62.133V20.333C18.0008 18.6536 18.6683 17.0433 19.8558 15.8558C21.0433 14.6683 22.6536 14.0008 24.333 14H61.067V57.067H57.267" stroke="white" stroke-opacity="0.96" stroke-width="1.8" stroke-miterlimit="10"/>
<path d="M26.867 68.467H23.8C23.0382 68.467 22.2838 68.3169 21.58 68.0253C20.8762 67.7337 20.2367 67.3063 19.6981 66.7675C19.1595 66.2287 18.7323 65.5891 18.4409 64.8852C18.1496 64.1813 17.9997 63.4269 18 62.665V62.792C18 59.575 20.597 57.067 23.801 57.067H61.067V68.467H39.533" fill="#0A4808"/>
<path d="M26.867 68.467H23.8C23.0382 68.467 22.2838 68.3169 21.58 68.0253C20.8762 67.7337 20.2367 67.3063 19.6981 66.7675C19.1595 66.2287 18.7323 65.5891 18.4409 64.8852C18.1496 64.1813 17.9997 63.4269 18 62.665V62.792C18 59.575 20.597 57.067 23.801 57.067H61.067V68.467H39.533" stroke="white" stroke-opacity="0.96" stroke-width="1.8" stroke-miterlimit="10"/>
<path d="M37 63.4H56V57.067" fill="#0A4808"/>
<path d="M37 63.4H56V57.067H53M21.8 63.4H29.4" stroke="white" stroke-opacity="0.96" stroke-width="1.8" stroke-miterlimit="10"/>
<path d="M29.4 60.867V71L33.2 68.657L37 71V60.867H29.4Z" fill="#0A4808" stroke="white" stroke-opacity="0.96" stroke-width="1.8" stroke-miterlimit="10"/>
<path d="M24.333 17.8V53.267" stroke="white" stroke-opacity="0.96" stroke-width="1.8" stroke-miterlimit="10"/>
<path d="M39.26 42.509C39.42 42.349 39.59 42.086 40.107 42.086H46.033C46.503 42.086 49.089 39.491 49.42 39.123C49.737 38.767 51.147 36.65 51.536 35.736C51.291 35.406 50.626 35.131 49.843 35.313C49.093 35.486 48.653 36.023 48.15 37.006L46.21 38.013" fill="#0A4808"/>
<path d="M39.26 42.509C39.42 42.349 39.59 42.086 40.107 42.086H46.033C46.503 42.086 49.089 39.491 49.42 39.123C49.737 38.767 51.147 36.65 51.536 35.736C51.291 35.406 50.626 35.131 49.843 35.313C49.093 35.486 48.653 36.023 48.15 37.006L46.21 38.013" stroke="white" stroke-opacity="0.96" stroke-miterlimit="10" stroke-linejoin="round"/>
<path d="M41.8 39.5459H45.187C46.88 39.5459 46.88 37.4289 45.187 37.4289H42.95C42.599 37.4289 41.934 36.5829 41.376 36.5829H39.26C38.689 36.5829 37.977 37.0479 37.567 37.4289L35.873 39.1229" fill="#0A4808"/>
<path d="M41.8 39.5459H45.187C46.88 39.5459 46.88 37.4289 45.187 37.4289H42.95C42.599 37.4289 41.934 36.5829 41.376 36.5829H39.26C38.689 36.5829 37.977 37.0479 37.567 37.4289L35.873 39.1229" stroke="white" stroke-opacity="0.96" stroke-miterlimit="10" stroke-linejoin="round"/>
<path d="M35.024 38.276L32.908 40.392L37.988 45.472L40.103 43.355L35.023 38.276H35.024Z" fill="#0A4808" stroke="white" stroke-opacity="0.96" stroke-miterlimit="10" stroke-linejoin="round"/>
<path d="M35.027 40.392L35.873 41.239" stroke="white" stroke-opacity="0.96" stroke-miterlimit="10" stroke-linejoin="round"/>
<path d="M48.573 36.16L47.726 35.313H46.456L45.186 34.466H44.34L43.493 34.043L42.647 34.889H41.377L40.107 35.736V36.583" fill="#0A4808"/>
<path d="M48.573 36.16L47.726 35.313H46.456L45.186 34.466H44.34L43.493 34.043L42.647 34.889H41.377L40.107 35.736V36.583" stroke="white" stroke-opacity="0.96" stroke-miterlimit="10"/>
<path d="M40.975 30.47C42.088 31.118 42.223 32.773 42.223 32.773C42.223 32.773 40.636 33.403 39.523 32.756C38.409 32.108 37.143 29.81 37.143 29.81C37.143 29.81 39.861 29.822 40.975 30.47V30.47Z" fill="#0A4808" stroke="white" stroke-opacity="0.96" stroke-miterlimit="10"/>
<path d="M44.162 32.612C43.129 31.549 43.26 29.687 43.857 28.946C45.457 26.965 47.646 27.545 49.386 26.423C50.296 27.989 49.805 30.529 48.31 32.091C47.303 33.141 45.936 33.001 45.246 32.841" fill="#0A4808"/>
<path d="M44.162 32.612C43.129 31.549 43.26 29.687 43.857 28.946C45.457 26.965 47.646 27.545 49.386 26.423C50.296 27.989 49.805 30.529 48.31 32.091C47.303 33.141 45.936 33.001 45.246 32.841" stroke="white" stroke-opacity="0.96" stroke-miterlimit="10"/>
<path d="M43.493 34.466C43.844 31.291 46.304 30.097 47.943 28.692L43.493 34.466Z" fill="#0A4808"/>
<path d="M43.493 34.466C43.844 31.291 46.304 30.097 47.943 28.692" stroke="white" stroke-opacity="0.96" stroke-miterlimit="10"/>
</svg>
