<svg width="80" height="80" fill="none" xmlns="http://www.w3.org/2000/svg"><rect x=".5" y=".5" width="79" height="79" rx="11.5" fill="#03373E" stroke="#03373E"/><g filter="url(#a)"><path d="M19.935 58.427a.8.8 0 1 0-1.6 0h1.6Zm-1.6 1.107a.8.8 0 0 0 1.6 0h-1.6Zm6.132-3.85a.8.8 0 0 0-1.6 0h1.6Zm-1.6 3.85a.8.8 0 0 0 1.6 0h-1.6Zm6.131-7.14a.8.8 0 0 0-1.6 0h1.6Zm-1.6 7.14a.8.8 0 0 0 1.6 0h-1.6Zm6.132-10.432a.8.8 0 1 0-1.6 0h1.6Zm-1.6 10.432a.8.8 0 0 0 1.6 0h-1.6Zm6.131-5.495a.8.8 0 1 0-1.6 0h1.6Zm-1.6 5.495a.8.8 0 0 0 1.6 0h-1.6Zm6.132-8.238a.8.8 0 1 0-1.6 0h1.6Zm-1.6 8.238a.8.8 0 0 0 1.6 0h-1.6Zm6.131-11.529a.8.8 0 1 0-1.6 0h1.6Zm-1.6 11.529a.8.8 0 0 0 1.6 0h-1.6Zm6.132-15.52a.8.8 0 1 0-1.6 0h1.6Zm-1.6 15.52a.8.8 0 0 0 1.6 0h-1.6Zm6.131-18.307a.8.8 0 1 0-1.6 0h1.6Zm-1.6 18.307a.8.8 0 0 0 1.6 0h-1.6Zm-36.413-6.755a.8.8 0 1 0 .942 1.293l-.942-1.293Zm14.556-9.605.619-.507a.8.8 0 0 0-1.09-.14l.47.647Zm4.531 5.536-.619.507a.8.8 0 0 0 1.09.14l-.47-.647Zm11.5-7.377a.8.8 0 0 0-.942-1.294l.942 1.294ZM14.713 27.48l.565-.567a.8.8 0 0 0-1.13 0l.565.567Zm0 35.817h-.8a.8.8 0 0 0 .8.8v-.8Zm51.143 0 .564.566a.8.8 0 0 0 0-1.133l-.564.567ZM16.86 30.75a.8.8 0 1 0 1.13-1.133l-1.13 1.133Zm-5.425-1.133a.8.8 0 1 0 1.13 1.133l-1.13-1.133Zm51.143 35.815a.8.8 0 0 0 1.13 1.134l-1.13-1.134Zm1.13-5.407a.8.8 0 1 0-1.13 1.134l1.13-1.134Zm-.583-30.886.738.307-.738-.307Zm-4.551-10.944.305-.74-.305.74Zm2.312-3.482a.8.8 0 1 0-1.478-.614l1.478.614Zm-3.61 4.523a.8.8 0 1 0 1.478.613l-1.478-.613Zm-3.869 13.489a.8.8 0 1 0-1.478-.614l1.478.614Zm-3.696 4.728a.8.8 0 1 0 1.478.614l-1.478-.614Zm9.869-24.147a.8.8 0 1 0-.612 1.479l.612-1.479Zm1.135 2.2a.8.8 0 1 0 .612-1.479l-.612 1.479ZM49.882 36.66a.8.8 0 0 0-.611 1.478l.611-1.478Zm1.136 2.2a.8.8 0 0 0 .611-1.479l-.611 1.479ZM44.233 20.48a.8.8 0 1 0-.61 1.48l.61-1.48Zm4.46 3.57a.8.8 0 1 0 .61-1.478l-.61 1.479Zm13.442 3.817a.8.8 0 0 0-.61 1.48l.61-1.48Zm4.484 3.581a.8.8 0 1 0 .61-1.479l-.61 1.48Zm-23.79-9.665a.8.8 0 1 0 1.477.615l-1.477-.615Zm2.2-1.126a.8.8 0 1 0-1.477-.616l1.477.616Zm20.795 10.615a.8.8 0 1 0 1.477.615l-1.477-.615Zm2.2-1.126a.8.8 0 1 0-1.476-.615l1.477.615Zm-15.962-14.47a.8.8 0 1 0-1.477.614l1.477-.615Zm.283 4.846a.8.8 0 1 0 1.477-.614l-1.477.614Zm6.124 10.812a.8.8 0 0 0-1.477.614l1.477-.614Zm.34 4.983a.8.8 0 1 0 1.477-.614l-1.477.614Zm-8.665-20.713a.8.8 0 0 0 .612 1.478l-.612-1.478Zm2.358.758a.8.8 0 1 0-.61-1.48l.61 1.48Zm5.866 19.27a.8.8 0 1 0 .612 1.478l-.612-1.478Zm2.358.757a.8.8 0 1 0-.61-1.48l.61 1.48Zm-17.158-6.48a.8.8 0 0 0 .61 1.479l-.61-1.48Zm6.153-.812a.8.8 0 1 0-.61-1.479l.61 1.479Zm11.355-6.389a.8.8 0 0 0 .61 1.479l-.61-1.479Zm6.867-1.106a.8.8 0 0 0-.611-1.479l.61 1.48ZM43.497 31.827a.8.8 0 1 0 1.477-.615l-1.477.616Zm.755-2.354a.8.8 0 0 0-1.479.611l1.479-.611Zm23.01-7.431a.8.8 0 1 0 1.477-.615l-1.478.615Zm.754-2.355a.8.8 0 0 0-1.479.612l1.479-.612ZM56.149 14a.8.8 0 0 0-1.6 0h1.6Zm-1.599 3.56a.8.8 0 1 0 1.6-.002l-1.6.002Zm1.612 16.783a.8.8 0 0 0-1.6 0h1.6Zm-1.599 3.142a.8.8 0 1 0 1.6-.001l-1.6.001Zm-.16-24.285a.8.8 0 0 0 0 1.6v-1.6Zm1.891 1.6a.8.8 0 0 0 0-1.6v1.6Zm-1.877 21.886a.8.8 0 0 0 0 1.6v-1.6Zm1.891 1.6a.8.8 0 0 0 0-1.6v1.6Zm-11.921-13.13a.8.8 0 0 0 0 1.6v-1.6Zm2.568 1.598a.8.8 0 1 0-.002-1.6l.002 1.6Zm16.81-1.619a.8.8 0 0 0 0 1.6v-1.6Zm3.18 1.599a.8.8 0 1 0-.003-1.6l.002 1.6Zm-23.358.163a.8.8 0 0 0 1.6 0h-1.6Zm1.6-1.885a.8.8 0 1 0-1.6 0h1.6Zm20.957 1.865a.8.8 0 1 0 1.6 0h-1.6Zm1.6-1.885a.8.8 0 0 0-1.6 0h1.6Zm-3.899-6.414a.8.8 0 1 0-1.13-1.133l1.13 1.133Zm-3.122.855a.8.8 0 0 0 1.13 1.132l-1.13-1.132ZM49.983 32.43a.8.8 0 0 0-1.131-1.132l1.13 1.132Zm-3.377 1.108a.8.8 0 1 0 1.13 1.133l-1.13-1.133Zm16.57-16.759a.8.8 0 1 0-1.127 1.135l1.128-1.135Zm.21 2.467a.8.8 0 0 0 1.128-1.135l-1.128 1.135Zm-16.32 13.625a.8.8 0 0 0-1.129 1.134l1.129-1.134Zm.21 2.467a.8.8 0 1 0 1.127-1.135l-1.128 1.135Zm.455-18.132a.8.8 0 1 0-1.129 1.134l1.13-1.134Zm1.119 3.374a.8.8 0 1 0 1.13-1.133l-1.13 1.133ZM61.863 31.3a.8.8 0 1 0-1.13 1.133l1.13-1.133Zm1.505 3.758a.8.8 0 1 0 1.13-1.133l-1.13 1.133ZM45.932 17.874a.8.8 0 1 0 1.131 1.132l-1.13-1.132Zm2.468-.201a.8.8 0 0 0-1.131-1.132l1.13 1.132ZM62.698 34.59a.8.8 0 0 0 1.131 1.132L62.7 34.59Zm2.468-.202a.8.8 0 1 0-1.131-1.131l1.13 1.131Zm-6.875-7.243-.739-.307.739.307Zm-4.145 1.713.305-.74-.305.74Zm-1.718-4.132.739.307-.74-.307Zm4.145-1.713-.306.74.305-.74ZM18.334 58.427v1.107h1.6v-1.107h-1.6Zm4.532-2.743v3.85h1.6v-3.85h-1.6Zm4.531-3.29v7.14h1.6v-7.14h-1.6Zm4.532-3.292v10.432h1.6V49.102h-1.6Zm4.531 4.937v5.495h1.6v-5.495h-1.6Zm4.532-2.743v8.238h1.6v-8.238h-1.6Zm4.531-3.29v11.528h1.6V48.005h-1.6Zm4.532-3.992v15.52h1.6v-15.52h-1.6Zm4.531-2.787v18.307h1.6V41.227h-1.6ZM19.116 54.072 33.2 43.821l-.941-1.294-14.085 10.252.942 1.293ZM32.11 43.681l4.531 5.536 1.238-1.014-4.531-5.536-1.238 1.014Zm5.62 5.676 11.03-8.024-.942-1.294-11.028 8.024.94 1.294ZM13.914 27.48v35.817h1.6V27.48h-1.6Zm.8 36.617h51.143v-1.6H14.713v1.6Zm3.277-34.48-2.712-2.704-1.13 1.133 2.712 2.705 1.13-1.133Zm-3.842-2.704-2.713 2.705 1.13 1.133 2.713-2.705-1.13-1.133Zm49.56 39.654 2.712-2.704-1.129-1.133-2.713 2.703 1.13 1.134Zm2.712-3.837-2.713-2.704-1.13 1.134 2.714 2.703 1.13-1.133Zm-4.034-33.896c-1.606 3.866-6.053 5.705-9.935 4.103l-.61 1.48c4.694 1.937 10.077-.286 12.022-4.97l-1.477-.613Zm-9.935 4.103c-3.881-1.602-5.722-6.033-4.117-9.898l-1.478-.614c-1.946 4.686.288 10.053 4.984 11.991l.61-1.479Zm-4.117-9.898c1.606-3.867 6.052-5.706 9.935-4.104l.61-1.479c-4.695-1.937-10.077.285-12.023 4.97l1.478.613Zm9.935-4.104c3.88 1.602 5.72 6.035 4.117 9.899l1.477.613c1.945-4.684-.289-10.053-4.984-11.99l-.61 1.478Zm1.14-4.835-1.067 2.568-1.066 2.569 1.478.613 1.066-2.568 1.066-2.568-1.478-.614Zm-7.48 18.012-1.109 2.671-1.109 2.671 1.478.614 1.109-2.671 1.109-2.671-1.478-.614Zm7.039-17.327.874.361.873.36.612-1.478-.875-.36-.872-.36-.612 1.478ZM49.27 38.139l.874.361.872.36.612-1.478-.874-.36-.873-.361-.611 1.478ZM43.624 21.96l2.534 1.046 2.535 1.046.61-1.48-2.534-1.045-2.535-1.046-.61 1.48Zm17.902 7.387a21517.688 21517.688 0 0 1 5.094 2.102l.61-1.479-2.547-1.05-2.547-1.052-.61 1.48ZM44.306 22.4c.122-.29.242-.581.363-.872l.361-.87-1.477-.614-.362.871-.361.87 1.477.615Zm22.996 9.489.362-.872.362-.87-1.477-.614-.363.871-.36.87 1.476.615ZM50.586 16.29l.88 2.117.88 2.116 1.477-.614-.88-2.117-.88-2.116-1.477.615Zm6.407 15.66 1.817 4.369 1.477-.615-1.817-4.369-1.477.614Zm-6.236-14.867 1.746-.72-.61-1.48c-.582.24-1.166.48-1.748.722l.612 1.478Zm8.224 20.028 1.746-.72-.61-1.48c-.582.24-1.165.48-1.748.722l.612 1.478ZM44.18 31.389l2.772-1.146 2.771-1.145-.61-1.479a7261.759 7261.759 0 0 0-5.543 2.29l.61 1.48Zm17.509-7.201a10594.142 10594.142 0 0 0 6.256-2.585l-.611-1.479-3.128 1.293-3.128 1.292.61 1.479Zm-16.714 7.024-.722-1.74-1.479.612c.24.583.483 1.164.724 1.744l1.477-.616Zm23.765-9.785-.723-1.74-1.479.612.724 1.743 1.478-.615ZM54.549 14l.001 3.56 1.6-.002V14h-1.6Zm.013 20.343.001 3.142 1.6-.001v-3.14h-1.6ZM54.403 14.8H56.294v-1.6H54.403v1.6Zm.014 23.486H56.308v-1.6H54.417v1.6Zm-10.03-11.53c.855 0 1.712 0 2.568-.002l-.002-1.6-2.566.001v1.6Zm19.378-.021 3.18-.001-.003-1.6-3.177.001v1.6Zm-18.578.162V25.012h-1.6V26.897h1.6Zm22.558-.02V24.992h-1.6V26.877h1.6Zm-5.03-9.432-1.992 1.988 1.13 1.132 1.992-1.987-1.13-1.133ZM48.853 31.298l-2.246 2.24 1.13 1.133 2.246-2.24-1.13-1.133Zm13.197-13.384a834.299 834.299 0 0 1 1.337 1.332l1.128-1.135-.667-.665-.67-.667-1.128 1.135ZM45.938 34.005l.667.666.67.667 1.128-1.135a834.299 834.299 0 0 1-1.337-1.332l-1.129 1.134Zm.664-15.665 2.248 2.24 1.13-1.133-2.249-2.24-1.129 1.133Zm14.131 14.093 1.318 1.313 1.317 1.312 1.13-1.133-1.318-1.313-1.317-1.312-1.13 1.133Zm-13.67-13.427.668-.666.669-.667-1.131-1.132-.668.666-.669.667 1.131 1.132ZM63.83 35.723a599.447 599.447 0 0 1 1.337-1.334l-1.131-1.131-.668.666-.669.667 1.131 1.132Zm-6.277-8.883a2.376 2.376 0 0 1-3.1 1.28l-.611 1.479a3.976 3.976 0 0 0 5.189-2.146l-1.478-.613Zm-3.1 1.28a2.36 2.36 0 0 1-1.285-3.086l-1.478-.613a3.96 3.96 0 0 0 2.152 5.178l.61-1.48Zm-1.285-3.086a2.376 2.376 0 0 1 3.1-1.28l.61-1.48a3.976 3.976 0 0 0-5.188 2.147l1.478.613Zm3.1-1.28a2.36 2.36 0 0 1 1.285 3.085l1.478.614a3.959 3.959 0 0 0-2.153-5.178l-.61 1.479Z" fill="#fff" fill-opacity=".96"/></g><defs><filter id="a" x="7.2" y="9.2" width="65.6" height="61.6" filterUnits="userSpaceOnUse" color-interpolation-filters="sRGB"><feFlood flood-opacity="0" result="BackgroundImageFix"/><feColorMatrix in="SourceAlpha" values="0 0 0 0 0 0 0 0 0 0 0 0 0 0 0 0 0 0 127 0" result="hardAlpha"/><feOffset/><feGaussianBlur stdDeviation="2"/><feColorMatrix values="0 0 0 0 1 0 0 0 0 1 0 0 0 0 1 0 0 0 0.12 0"/><feBlend in2="BackgroundImageFix" result="effect1_dropShadow_36_2223"/><feBlend in="SourceGraphic" in2="effect1_dropShadow_36_2223" result="shape"/></filter></defs></svg>