<svg width="80" height="80" viewBox="0 0 80 80" fill="none" xmlns="http://www.w3.org/2000/svg">
<path d="M68 0.5H12C5.64873 0.5 0.5 5.64873 0.5 12V68C0.5 74.3513 5.64873 79.5 12 79.5H68C74.3513 79.5 79.5 74.3513 79.5 68V12C79.5 5.64873 74.3513 0.5 68 0.5Z" fill="#EF6976" stroke="#EF6A77"/>
<path d="M50.932 36.887H52.756M24.596 49.013H26.421H24.596ZM31.18 49.013H33.005H31.18ZM37.763 49.013H39.588H37.763ZM24.596 42.951H26.421H24.596ZM31.18 42.951H33.005H31.18ZM37.763 42.951H39.588H37.763ZM44.348 42.951H46.173H44.348ZM31.18 36.887H33.005H31.18ZM37.763 36.887H39.588H37.763ZM44.348 36.887H46.173H44.348Z" stroke="white" stroke-opacity="0.96" stroke-width="1.5" stroke-miterlimit="10" stroke-linecap="round" stroke-linejoin="round"/>
<path d="M59.655 56.966L56.998 54.266M48.012 54.597L58.982 43.451C59.2549 43.1728 59.5856 42.958 59.9508 42.8218C60.3159 42.6856 60.7066 42.6314 61.095 42.663L66.308 43.103L66.741 48.4C66.7735 48.7928 66.7211 49.1881 66.5874 49.5588C66.4537 49.9296 66.2418 50.2673 65.966 50.549L54.996 61.695L48.012 54.597ZM44.937 64.821L51.507 58.148L44.937 64.821ZM46.087 52.641L56.923 63.653L46.087 52.641ZM41.726 61.556L48.15 68.086L41.726 61.556ZM66.491 42.921L72.001 37.321L66.491 42.921ZM64.049 52.503L61.39 49.8L64.049 52.503Z" stroke="white" stroke-opacity="0.96" stroke-width="1.5" stroke-miterlimit="10" stroke-linecap="round" stroke-linejoin="round"/>
<path d="M48.252 20.982H31.237M23.288 20.982H19.088C17.382 20.982 16 22.386 16 24.12V29.349H63.004V24.119C63.004 22.386 61.622 20.982 59.916 20.982H56.861H23.288ZM27.404 19V22.961V19ZM52.627 19V23.43V19Z" stroke="white" stroke-opacity="0.96" stroke-width="1.5" stroke-miterlimit="10" stroke-linecap="round" stroke-linejoin="round"/>
<path d="M16 29.347V53.782C16 55.516 17.382 56.92 19.088 56.92H43.094M63.004 25.157V37.88" stroke="white" stroke-opacity="0.96" stroke-width="1.5" stroke-miterlimit="10" stroke-linecap="round" stroke-linejoin="round"/>
</svg>
