<svg width="80" height="80" fill="none" xmlns="http://www.w3.org/2000/svg"><path d="M68 .5H12C5.649.5.5 5.649.5 12v56c0 6.351 5.149 11.5 11.5 11.5h56c6.351 0 11.5-5.149 11.5-11.5V12C79.5 5.649 74.351.5 68 .5Z" fill="#621010" stroke="#621010"/><path d="M40.147 67.095H23.896c-2.245 0-4.063-1.953-4.063-4.364V21.273c0-2.411 1.818-4.364 4.063-4.364h31.486c2.244 0 4.062 1.953 4.062 4.364v24.002" stroke="#fff" stroke-miterlimit="10"/><path d="M36.084 60.55H23.896V23.454h31.486v19.638M37.1 20.182h6.094" stroke="#fff" stroke-miterlimit="10"/><path d="M42.178 68.186V65.96c0-.938-2.874-3.61-3.585-4.81-.447-.743-3.525-11.304-3.525-11.304 0-1.058 2.489-2.4 4.114 0l2.65 4.419 1.362-1.397V36.504c0-1.2.914-2.182 2.031-2.182s2.032.981 2.032 2.181v14.184-6.503h2.03c.64 0 1.646 0 2.032 1.091h2.031c.955 0 2.032 1.091 2.032 2.182h2.031c.955 0 2.032.906 2.032 2.139v12c0 2.204-2.032 4.026-2.032 5.5v1.09M51.32 45.275v5.455M55.382 47.457v4.364" stroke="#fff" stroke-miterlimit="10"/><path d="M38.478 31.044a.454.454 0 0 0-.36-.109c-.007.001-1.386.19-2.766-.351-1.364-.536-2.145-1.542-2.152-1.55a.47.47 0 0 0-.358-.197h-.012c-.144 0-.277.095-.359.215-.007.01-.688 1.003-2.053 1.538a5.687 5.687 0 0 1-2.642.35.444.444 0 0 0-.36.104.457.457 0 0 0-.156.347v4.906c0 4.016 5.27 6.556 5.494 6.662a.44.44 0 0 0 .383 0c.225-.106 5.5-2.646 5.5-6.662V31.39c0-.132-.06-.26-.159-.347Zm-.744 5.253c0 3.045-3.872 5.258-4.786 5.738-.915-.479-4.785-2.687-4.785-5.738v-4.413a6.703 6.703 0 0 0 2.584-.442 5.88 5.88 0 0 0 2.109-1.423 6.505 6.505 0 0 0 2.172 1.423c1.066.418 2.074.46 2.706.44v4.415Z" fill="#fff"/><path d="m35.175 33.978-2.845 3.11-1.495-1.401a.448.448 0 0 0-.637.024.46.46 0 0 0 .023.645l1.827 1.711a.448.448 0 0 0 .306.122h.018a.448.448 0 0 0 .314-.146l3.151-3.446a.46.46 0 0 0-.025-.644.449.449 0 0 0-.637.025Z" fill="#fff"/></svg>