<svg width="80" height="80" fill="none" xmlns="http://www.w3.org/2000/svg"><rect x=".5" y=".5" width="79" height="79" rx="11.5" fill="#22C9A1" stroke="#22C9A1"/><path d="M55.917 53.093v9.945a3.408 3.408 0 0 1-3.408 3.408H27.488a3.408 3.408 0 0 1-3.41-3.408v-9.945M46.42 39.582H33.574V36.45a3.408 3.408 0 0 1 3.408-3.409h6.028a3.408 3.408 0 0 1 3.408 3.409v3.133h.002Z" stroke="#fff" stroke-width="2" stroke-miterlimit="10"/><path d="M43.795 52.147v2.829a.884.884 0 0 1-.887.887h-5.823a.884.884 0 0 1-.887-.887v-2.829a59.173 59.173 0 0 1-10.453-1.555l-.115-.027a4.23 4.23 0 0 1-3.245-4.12V39.58h35.222v6.866a4.234 4.234 0 0 1-3.245 4.119l-.116.027a59.313 59.313 0 0 1-10.45 1.555Z" stroke="#fff" stroke-width="2" stroke-miterlimit="10"/><path d="M70.985 41.341 71 36.508l-10.88-8.104V17.457h-7.303v5.914L39.86 14 9 36.514l.038 5.357" stroke="#fff" stroke-width="2" stroke-miterlimit="10"/></svg>