<svg width="29" height="34" viewBox="0 0 29 34" fill="none" xmlns="http://www.w3.org/2000/svg">
<path d="M11.9393 15.0607C11.3536 14.4749 11.3536 13.5251 11.9393 12.9393L21.4853 3.3934C22.0711 2.80761 23.0208 2.80761 23.6066 3.3934C24.1924 3.97919 24.1924 4.92893 23.6066 5.51472L15.1213 14L23.6066 22.4853C24.1924 23.0711 24.1924 24.0208 23.6066 24.6066C23.0208 25.1924 22.0711 25.1924 21.4853 24.6066L11.9393 15.0607ZM16 15.5H13V12.5H16V15.5Z" fill="currentColor" fill-opacity="0.56"/>
<path d="M1.93934 15.0607C1.35355 14.4749 1.35355 13.5251 1.93934 12.9393L11.4853 3.3934C12.0711 2.80761 13.0208 2.80761 13.6066 3.3934C14.1924 3.97919 14.1924 4.92893 13.6066 5.51472L5.12132 14L13.6066 22.4853C14.1924 23.0711 14.1924 24.0208 13.6066 24.6066C13.0208 25.1924 12.0711 25.1924 11.4853 24.6066L1.93934 15.0607ZM6 15.5H3L3 12.5H6V15.5Z" fill="currentColor" fill-opacity="0.56"/>
</svg>
