<svg width="55" height="56" viewBox="0 0 55 56" fill="none" xmlns="http://www.w3.org/2000/svg">
<g clip-path="url(#clip0_214_2967)">
<path d="M44.8552 27.1159V11.4489C44.8552 8.56456 42.5716 6.22632 39.7651 6.22632H15.9454C13.1342 6.22632 10.8552 8.56614 10.8552 11.4326V44.54C10.8552 47.4154 13.1331 49.7463 15.9469 49.7463H24.4552" stroke="white" stroke-width="1.5"/>
<g filter="url(#filter0_d_214_2967)">
<mask id="path-2-inside-1_214_2967" fill="white">
<path d="M22.3023 29.2113H20.274C20.0675 29.2113 19.8999 29.0538 19.8999 28.8596V22.0464C19.8999 21.8523 20.0675 21.6947 20.274 21.6947H22.3023C22.5088 21.6947 22.6764 21.8523 22.6764 22.0464V28.8596C22.6764 29.0545 22.5096 29.2113 22.3023 29.2113ZM20.6481 28.5079H21.9282V22.3981H20.6481V28.5079Z"/>
</mask>
<path d="M20.6481 28.5079H19.6481V29.5079H20.6481V28.5079ZM21.9282 28.5079V29.5079H22.9282V28.5079H21.9282ZM21.9282 22.3981H22.9282V21.3981H21.9282V22.3981ZM20.6481 22.3981V21.3981H19.6481V22.3981H20.6481ZM22.3023 28.2113H20.274V30.2113H22.3023V28.2113ZM20.274 28.2113C20.5607 28.2113 20.8999 28.4442 20.8999 28.8596H18.8999C18.8999 29.6633 19.5743 30.2113 20.274 30.2113V28.2113ZM20.8999 28.8596V22.0464H18.8999V28.8596H20.8999ZM20.8999 22.0464C20.8999 22.4618 20.5607 22.6947 20.274 22.6947V20.6947C19.5743 20.6947 18.8999 21.2427 18.8999 22.0464H20.8999ZM20.274 22.6947H22.3023V20.6947H20.274V22.6947ZM22.3023 22.6947C22.0156 22.6947 21.6764 22.4618 21.6764 22.0464H23.6764C23.6764 21.2427 23.0021 20.6947 22.3023 20.6947V22.6947ZM21.6764 22.0464V28.8596H23.6764V22.0464H21.6764ZM21.6764 28.8596C21.6764 28.4449 22.0163 28.2113 22.3023 28.2113V30.2113C23.0028 30.2113 23.6764 29.664 23.6764 28.8596H21.6764ZM20.6481 29.5079H21.9282V27.5079H20.6481V29.5079ZM22.9282 28.5079V22.3981H20.9282V28.5079H22.9282ZM21.9282 21.3981H20.6481V23.3981H21.9282V21.3981ZM19.6481 22.3981V28.5079H21.6481V22.3981H19.6481Z" fill="white" mask="url(#path-2-inside-1_214_2967)"/>
<mask id="path-4-inside-2_214_2967" fill="white">
<path d="M26.7039 29.2113H24.6763C24.4698 29.2113 24.3022 29.0537 24.3022 28.8596V24.4246C24.3022 24.2304 24.4698 24.0729 24.6763 24.0729H26.7047C26.9112 24.0729 27.0788 24.2304 27.0788 24.4246V28.8596C27.078 29.0544 26.9112 29.2113 26.7039 29.2113ZM25.0504 28.5079H26.3306V24.7763H25.0504V28.5079Z"/>
</mask>
<path d="M27.0788 28.8596L28.0788 28.8634V28.8596H27.0788ZM25.0504 28.5079H24.0504V29.5079H25.0504V28.5079ZM26.3306 28.5079V29.5079H27.3306V28.5079H26.3306ZM26.3306 24.7763H27.3306V23.7763H26.3306V24.7763ZM25.0504 24.7763V23.7763H24.0504V24.7763H25.0504ZM26.7039 28.2113H24.6763V30.2113H26.7039V28.2113ZM24.6763 28.2113C24.9631 28.2113 25.3022 28.4442 25.3022 28.8596H23.3022C23.3022 29.6632 23.9766 30.2113 24.6763 30.2113V28.2113ZM25.3022 28.8596V24.4246H23.3022V28.8596H25.3022ZM25.3022 24.4246C25.3022 24.84 24.9631 25.0729 24.6763 25.0729V23.0729C23.9766 23.0729 23.3022 23.6209 23.3022 24.4246H25.3022ZM24.6763 25.0729H26.7047V23.0729H24.6763V25.0729ZM26.7047 25.0729C26.4179 25.0729 26.0788 24.84 26.0788 24.4246H28.0788C28.0788 23.6209 27.4044 23.0729 26.7047 23.0729V25.0729ZM26.0788 24.4246V28.8596H28.0788V24.4246H26.0788ZM26.0788 28.8557C26.0804 28.4449 26.4169 28.2113 26.7039 28.2113V30.2113C27.4054 30.2113 28.0757 29.6639 28.0788 28.8634L26.0788 28.8557ZM25.0504 29.5079H26.3306V27.5079H25.0504V29.5079ZM27.3306 28.5079V24.7763H25.3306V28.5079H27.3306ZM26.3306 23.7763H25.0504V25.7763H26.3306V23.7763ZM24.0504 24.7763V28.5079H26.0504V24.7763H24.0504Z" fill="white" mask="url(#path-4-inside-2_214_2967)"/>
<mask id="path-6-inside-3_214_2967" fill="white">
<path d="M31.1644 29.2114H29.1361C28.9296 29.2114 28.762 29.0538 28.762 28.8597V19.9461C28.762 19.7519 28.9296 19.5944 29.1361 19.5944H31.1644C31.3709 19.5944 31.5385 19.7519 31.5385 19.9461V28.8604C31.5385 29.0545 31.3716 29.2114 31.1644 29.2114ZM29.5102 28.5079H30.7903V20.2978H29.5102V28.5079Z"/>
</mask>
<path d="M31.5385 28.8604H32.5385H31.5385ZM29.5102 28.5079H28.5102V29.5079H29.5102V28.5079ZM30.7903 28.5079V29.5079H31.7903V28.5079H30.7903ZM30.7903 20.2978H31.7903V19.2978H30.7903V20.2978ZM29.5102 20.2978V19.2978H28.5102V20.2978H29.5102ZM31.1644 28.2114H29.1361V30.2114H31.1644V28.2114ZM29.1361 28.2114C29.4228 28.2114 29.762 28.4443 29.762 28.8597H27.762C27.762 29.6633 28.4363 30.2114 29.1361 30.2114V28.2114ZM29.762 28.8597V19.9461H27.762V28.8597H29.762ZM29.762 19.9461C29.762 20.3615 29.4228 20.5944 29.1361 20.5944V18.5944C28.4363 18.5944 27.762 19.1424 27.762 19.9461H29.762ZM29.1361 20.5944H31.1644V18.5944H29.1361V20.5944ZM31.1644 20.5944C30.8776 20.5944 30.5385 20.3615 30.5385 19.9461H32.5385C32.5385 19.1424 31.8641 18.5944 31.1644 18.5944V20.5944ZM30.5385 19.9461V28.8604H32.5385V19.9461H30.5385ZM30.5385 28.8604C30.5385 28.4437 30.8797 28.2114 31.1644 28.2114V30.2114C31.8635 30.2114 32.5385 29.6653 32.5385 28.8604H30.5385ZM29.5102 29.5079H30.7903V27.5079H29.5102V29.5079ZM31.7903 28.5079V20.2978H29.7903V28.5079H31.7903ZM30.7903 19.2978H29.5102V21.2978H30.7903V19.2978ZM28.5102 20.2978V28.5079H30.5102V20.2978H28.5102Z" fill="white" mask="url(#path-6-inside-3_214_2967)"/>
<mask id="path-8-inside-4_214_2967" fill="white">
<path d="M35.4818 29.2114H33.4534C33.2469 29.2114 33.0793 29.0538 33.0793 28.8597V16.6823C33.0793 16.4881 33.2469 16.3306 33.4534 16.3306H35.4818C35.6883 16.3306 35.8559 16.4881 35.8559 16.6823V28.8597C35.8559 29.0545 35.689 29.2114 35.4818 29.2114ZM33.8275 28.508H35.1077V17.034H33.8275V28.508Z"/>
</mask>
<path d="M33.8275 28.508H32.8275V29.508H33.8275V28.508ZM35.1077 28.508V29.508H36.1077V28.508H35.1077ZM35.1077 17.034H36.1077V16.034H35.1077V17.034ZM33.8275 17.034V16.034H32.8275V17.034H33.8275ZM35.4818 28.2114H33.4534V30.2114H35.4818V28.2114ZM33.4534 28.2114C33.7402 28.2114 34.0793 28.4443 34.0793 28.8597H32.0793C32.0793 29.6633 32.7537 30.2114 33.4534 30.2114V28.2114ZM34.0793 28.8597V16.6823H32.0793V28.8597H34.0793ZM34.0793 16.6823C34.0793 17.0977 33.7402 17.3306 33.4534 17.3306V15.3306C32.7537 15.3306 32.0793 15.8786 32.0793 16.6823H34.0793ZM33.4534 17.3306H35.4818V15.3306H33.4534V17.3306ZM35.4818 17.3306C35.195 17.3306 34.8559 17.0977 34.8559 16.6823H36.8559C36.8559 15.8786 36.1815 15.3306 35.4818 15.3306V17.3306ZM34.8559 16.6823V28.8597H36.8559V16.6823H34.8559ZM34.8559 28.8597C34.8559 28.445 35.1958 28.2114 35.4818 28.2114V30.2114C36.1823 30.2114 36.8559 29.664 36.8559 28.8597H34.8559ZM33.8275 29.508H35.1077V27.508H33.8275V29.508ZM36.1077 28.508V17.034H34.1077V28.508H36.1077ZM35.1077 16.034H33.8275V18.034H35.1077V16.034ZM32.8275 17.034V28.508H34.8275V17.034H32.8275Z" fill="white" mask="url(#path-8-inside-4_214_2967)"/>
<mask id="path-10-inside-5_214_2967" fill="white">
<path d="M37.7358 29.2113H17.9747C17.7682 29.2113 17.6006 29.0538 17.6006 28.8596C17.6006 28.6655 17.7682 28.5079 17.9747 28.5079H37.7358C37.9423 28.5079 38.1099 28.6655 38.1099 28.8596C38.1099 29.0545 37.9423 29.2113 37.7358 29.2113Z"/>
</mask>
<path d="M37.7358 28.2113H17.9747V30.2113H37.7358V28.2113ZM17.9747 28.2113C18.2614 28.2113 18.6006 28.4442 18.6006 28.8596H16.6006C16.6006 29.6633 17.2749 30.2113 17.9747 30.2113V28.2113ZM18.6006 28.8596C18.6006 29.275 18.2614 29.5079 17.9747 29.5079V27.5079C17.2749 27.5079 16.6006 28.056 16.6006 28.8596H18.6006ZM17.9747 29.5079H37.7358V27.5079H17.9747V29.5079ZM37.7358 29.5079C37.4491 29.5079 37.1099 29.275 37.1099 28.8596H39.1099C39.1099 28.056 38.4356 27.5079 37.7358 27.5079V29.5079ZM37.1099 28.8596C37.1099 28.4437 37.4504 28.2113 37.7358 28.2113V30.2113C38.4342 30.2113 39.1099 29.6653 39.1099 28.8596H37.1099Z" fill="white" mask="url(#path-10-inside-5_214_2967)"/>
<mask id="path-12-inside-6_214_2967" fill="white">
<path d="M21.2884 19.9369C20.2889 19.9369 19.4756 19.1723 19.4756 18.2326C19.4756 17.2928 20.2889 16.5282 21.2884 16.5282C22.288 16.5282 23.1013 17.2928 23.1013 18.2326C23.1013 18.6011 22.9779 18.9514 22.7452 19.2462C22.404 19.6788 21.8593 19.9369 21.2884 19.9369ZM21.2884 17.2309C20.7011 17.2309 20.2238 17.6804 20.2238 18.2319C20.2238 18.7833 20.7019 19.2328 21.2884 19.2328C21.6289 19.2328 21.9409 19.0851 22.1451 18.8269C22.2813 18.6539 22.3531 18.4478 22.3539 18.2311C22.3531 17.6797 21.875 17.2309 21.2884 17.2309ZM22.7272 18.2326H22.7347H22.7272Z"/>
</mask>
<path d="M22.7452 19.2462L21.9603 18.6265L21.96 18.6269L22.7452 19.2462ZM22.1451 18.8269L22.9293 19.4474L22.931 19.4454L22.1451 18.8269ZM22.3539 18.2311L23.3539 18.2346L23.3539 18.2298L22.3539 18.2311ZM21.2884 18.9369C20.7821 18.9369 20.4756 18.5628 20.4756 18.2326H18.4756C18.4756 19.7818 19.7956 20.9369 21.2884 20.9369V18.9369ZM20.4756 18.2326C20.4756 17.9023 20.7821 17.5282 21.2884 17.5282V15.5282C19.7956 15.5282 18.4756 16.6833 18.4756 18.2326H20.4756ZM21.2884 17.5282C21.7948 17.5282 22.1013 17.9023 22.1013 18.2326H24.1013C24.1013 16.6833 22.7813 15.5282 21.2884 15.5282V17.5282ZM22.1013 18.2326C22.1013 18.3707 22.0571 18.5038 21.9603 18.6265L23.53 19.8658C23.8986 19.399 24.1013 18.8316 24.1013 18.2326H22.1013ZM21.96 18.6269C21.8164 18.8089 21.5662 18.9369 21.2884 18.9369V20.9369C22.1524 20.9369 22.9916 20.5486 23.5304 19.8654L21.96 18.6269ZM21.2884 16.2309C20.2074 16.2309 19.2238 17.0713 19.2238 18.2319H21.2238C21.2238 18.2399 21.2217 18.2482 21.2193 18.2536C21.2172 18.2581 21.2166 18.2571 21.221 18.253C21.2302 18.2443 21.2521 18.2309 21.2884 18.2309V16.2309ZM19.2238 18.2319C19.2238 19.3929 20.2086 20.2328 21.2884 20.2328V18.2328C21.2527 18.2328 21.2307 18.2196 21.2211 18.2106C21.2166 18.2063 21.2172 18.2052 21.2192 18.2097C21.2217 18.2152 21.2238 18.2235 21.2238 18.2319H19.2238ZM21.2884 20.2328C21.9221 20.2328 22.5278 19.9549 22.9293 19.4474L21.3609 18.2064C21.3557 18.213 21.3492 18.2185 21.3398 18.2229C21.3301 18.2275 21.3135 18.2328 21.2884 18.2328V20.2328ZM22.931 19.4454C23.2038 19.0986 23.3523 18.6765 23.3539 18.2346L21.3539 18.2277C21.3539 18.2258 21.3543 18.221 21.3564 18.2151C21.3584 18.2093 21.3604 18.207 21.3593 18.2085L22.931 19.4454ZM23.3539 18.2298C23.3523 17.0693 22.3677 16.2309 21.2884 16.2309V18.2309C21.3246 18.2309 21.3468 18.2443 21.3564 18.2533C21.3609 18.2576 21.3604 18.2587 21.3584 18.2542C21.356 18.2488 21.3539 18.2406 21.3539 18.2325L23.3539 18.2298ZM22.7272 19.2326H22.7347V17.2326H22.7272V19.2326ZM22.7347 17.2326H22.7272V19.2326H22.7347V17.2326Z" fill="white" mask="url(#path-12-inside-6_214_2967)"/>
<mask id="path-14-inside-7_214_2967" fill="white">
<path d="M24.5335 20.8449C24.4557 20.8449 24.3778 20.8224 24.3113 20.7753L22.2223 19.3199C22.0562 19.2046 22.0218 18.9837 22.1445 18.8283C22.268 18.6721 22.5021 18.6397 22.6675 18.7551L24.7557 20.2112C24.9218 20.3265 24.9562 20.5474 24.8335 20.7028C24.7609 20.7964 24.6472 20.8449 24.5335 20.8449Z"/>
</mask>
<path d="M24.3113 20.7753L24.889 19.959L24.8829 19.9548L24.3113 20.7753ZM22.2223 19.3199L22.794 18.4994L22.7928 18.4986L22.2223 19.3199ZM22.1445 18.8283L21.36 18.2081L21.3596 18.2087L22.1445 18.8283ZM22.6675 18.7551L22.0953 19.5752L22.0955 19.5754L22.6675 18.7551ZM24.7557 20.2112L24.1837 21.0314L24.1852 21.0325L24.7557 20.2112ZM24.8335 20.7028L24.0485 20.0832L24.0434 20.0899L24.8335 20.7028ZM24.5335 19.8449C24.6484 19.8449 24.7754 19.8787 24.889 19.959L23.7336 21.5915C23.9803 21.7661 24.2629 21.8449 24.5335 21.8449V19.8449ZM24.8829 19.9548L22.794 18.4994L21.6507 20.1404L23.7396 21.5958L24.8829 19.9548ZM22.7928 18.4986C23.0865 18.7026 23.1739 19.1381 22.9294 19.4478L21.3596 18.2087C20.8697 18.8294 21.026 19.7066 21.6519 20.1413L22.7928 18.4986ZM22.929 19.4484C22.7154 19.7186 22.352 19.7543 22.0953 19.5752L23.2397 17.935C22.6523 17.5252 21.8205 17.6256 21.36 18.2081L22.929 19.4484ZM22.0955 19.5754L24.1837 21.0314L25.3276 19.3909L23.2395 17.9348L22.0955 19.5754ZM24.1852 21.0325C23.8915 20.8285 23.804 20.393 24.0486 20.0833L25.6184 21.3224C26.1083 20.7017 25.952 19.8245 25.3261 19.3898L24.1852 21.0325ZM24.0434 20.0899C24.1813 19.9121 24.3743 19.8449 24.5335 19.8449V21.8449C24.9201 21.8449 25.3405 21.6807 25.6236 21.3158L24.0434 20.0899Z" fill="white" mask="url(#path-14-inside-7_214_2967)"/>
<mask id="path-16-inside-8_214_2967" fill="white">
<path d="M25.6901 23.0031C24.6905 23.0031 23.8772 22.2385 23.8772 21.2987C23.8772 20.9308 24.0006 20.5798 24.2333 20.2844C24.8536 19.4987 26.1861 19.3911 26.9388 20.0621C27.2979 20.3829 27.5037 20.8338 27.5037 21.2987C27.5029 22.2385 26.6896 23.0031 25.6901 23.0031ZM25.6901 20.2978C25.3489 20.2978 25.0369 20.4455 24.8334 20.7036C24.6972 20.8774 24.6246 21.0835 24.6246 21.2994C24.6246 21.8516 25.1027 22.3004 25.6893 22.3004C26.2766 22.3004 26.754 21.8516 26.754 21.2994C26.754 21.0223 26.6358 20.7641 26.4218 20.5728C26.2243 20.3948 25.9639 20.2978 25.6901 20.2978Z"/>
</mask>
<path d="M24.2333 20.2844L23.4484 19.6648L23.4477 19.6657L24.2333 20.2844ZM26.9388 20.0621L27.6049 19.3163L27.6043 19.3157L26.9388 20.0621ZM27.5037 21.2987L28.5037 21.2995V21.2987H27.5037ZM24.8334 20.7036L24.0481 20.0845L24.0463 20.0868L24.8334 20.7036ZM26.4218 20.5728L25.7524 21.3157L25.7552 21.3183L26.4218 20.5728ZM25.6901 22.0031C25.1837 22.0031 24.8772 21.6289 24.8772 21.2987H22.8772C22.8772 22.848 24.1972 24.0031 25.6901 24.0031V22.0031ZM24.8772 21.2987C24.8772 21.1612 24.9214 21.027 25.0189 20.9031L23.4477 19.6657C23.0799 20.1327 22.8772 20.7004 22.8772 21.2987H24.8772ZM25.0182 20.904C25.1261 20.7674 25.3369 20.6466 25.6178 20.6237C25.8984 20.6007 26.1349 20.6852 26.2733 20.8085L27.6043 19.3157C26.99 18.768 26.1839 18.5708 25.455 18.6303C24.7264 18.6898 23.9609 19.0157 23.4484 19.6648L25.0182 20.904ZM26.2727 20.808C26.4276 20.9464 26.5037 21.1294 26.5037 21.2987H28.5037C28.5037 20.5381 28.1682 19.8194 27.6049 19.3163L26.2727 20.808ZM26.5037 21.2979C26.5034 21.6289 26.1962 22.0031 25.6901 22.0031V24.0031C27.1831 24.0031 28.5024 22.848 28.5037 21.2995L26.5037 21.2979ZM25.6901 19.2978C25.0564 19.2978 24.4496 19.5752 24.0481 20.0845L25.6187 21.3227C25.6232 21.317 25.6291 21.312 25.6382 21.3076C25.6476 21.3032 25.6643 21.2978 25.6901 21.2978V19.2978ZM24.0463 20.0868C23.7766 20.4309 23.6246 20.8528 23.6246 21.2994H25.6246C25.6246 21.3043 25.6237 21.3107 25.6216 21.3167C25.6195 21.3226 25.6179 21.3237 25.6205 21.3205L24.0463 20.0868ZM23.6246 21.2994C23.6246 22.4616 24.61 23.3004 25.6893 23.3004V21.3004C25.6531 21.3004 25.6311 21.287 25.6218 21.2782C25.6174 21.2741 25.618 21.2731 25.6201 21.2777C25.6226 21.2832 25.6246 21.2914 25.6246 21.2994H23.6246ZM25.6893 23.3004C26.7699 23.3004 27.754 22.4611 27.754 21.2994H25.754C25.754 21.2917 25.756 21.2836 25.7584 21.2781C25.7605 21.2735 25.7612 21.2744 25.7569 21.2784C25.7479 21.2868 25.7261 21.3004 25.6893 21.3004V23.3004ZM27.754 21.2994C27.754 20.7256 27.5053 20.2002 27.0883 19.8273L25.7552 21.3183C25.7595 21.3221 25.7611 21.3242 25.7612 21.3243C25.7612 21.3244 25.7601 21.3229 25.7587 21.3199C25.7573 21.3168 25.756 21.313 25.7551 21.3089C25.7542 21.3048 25.754 21.3014 25.754 21.2994H27.754ZM27.0912 19.8299C26.7017 19.479 26.1998 19.2978 25.6901 19.2978V21.2978C25.728 21.2978 25.7468 21.3107 25.7524 21.3157L27.0912 19.8299Z" fill="white" mask="url(#path-16-inside-8_214_2967)"/>
<mask id="path-18-inside-9_214_2967" fill="white">
<path d="M26.6804 20.6684C26.5876 20.6684 26.4948 20.6368 26.423 20.5721C26.2734 20.4384 26.2674 20.2154 26.4088 20.0747L28.8883 17.6184C29.0312 17.4778 29.2669 17.4721 29.4173 17.6051C29.5669 17.7387 29.5736 17.9617 29.4315 18.1024L26.952 20.5587C26.8779 20.6318 26.7792 20.6684 26.6804 20.6684Z"/>
</mask>
<path d="M26.423 20.5721L27.0924 19.8291L27.0892 19.8262L26.423 20.5721ZM26.4088 20.0747L25.705 19.3643L25.7035 19.3658L26.4088 20.0747ZM28.8883 17.6184L28.1868 16.9058L28.1845 16.908L28.8883 17.6184ZM29.4173 17.6051L30.0834 16.8592L30.0796 16.8559L29.4173 17.6051ZM29.4315 18.1024L28.7281 17.3916L28.7277 17.392L29.4315 18.1024ZM26.952 20.5587L27.6547 21.2702L27.6558 21.2691L26.952 20.5587ZM26.6804 19.6684C26.8113 19.6684 26.9637 19.7132 27.0924 19.8291L25.7537 21.315C26.0259 21.5603 26.364 21.6684 26.6804 21.6684V19.6684ZM27.0892 19.8262C27.3671 20.0744 27.3822 20.5169 27.1141 20.7837L25.7035 19.3658C25.1526 19.9139 25.1797 20.8024 25.7569 21.3179L27.0892 19.8262ZM27.1126 20.7852L29.5921 18.3289L28.1845 16.908L25.705 19.3643L27.1126 20.7852ZM29.5898 18.3311C29.3557 18.5615 28.9955 18.5669 28.7549 18.3543L30.0796 16.8559C29.5383 16.3773 28.7067 16.394 28.1868 16.9058L29.5898 18.3311ZM28.7511 18.3509C28.4759 18.1051 28.4556 17.6612 28.7281 17.3916L30.1349 18.8132C30.6916 18.2622 30.6579 17.3724 30.0834 16.8593L28.7511 18.3509ZM28.7277 17.392L26.2482 19.8483L27.6558 21.2691L30.1353 18.8128L28.7277 17.392ZM26.2493 19.8472C26.3759 19.7222 26.5357 19.6684 26.6804 19.6684V21.6684C27.0227 21.6684 27.38 21.5415 27.6547 21.2702L26.2493 19.8472Z" fill="white" mask="url(#path-18-inside-9_214_2967)"/>
<path d="M30.15 18.0843C29.8177 18.0841 29.5082 17.9714 29.2691 17.7717L31.1634 16.1137C31.3595 16.3315 31.4634 16.6039 31.4636 16.8792C31.4636 16.8794 31.4636 16.8797 31.4636 16.8799C31.4636 17.5149 30.9037 18.0843 30.1508 18.0843C30.1505 18.0843 30.1503 18.0843 30.15 18.0843Z" stroke="white"/>
<mask id="path-21-inside-10_214_2967" fill="white">
<path d="M31.2498 16.3572C31.1436 16.3572 31.0381 16.315 30.964 16.2327C30.8301 16.0843 30.8503 15.8627 31.0074 15.7368L33.3238 13.8918C33.4824 13.7659 33.7181 13.7849 33.8512 13.9326C33.9852 14.081 33.965 14.3026 33.8079 14.4285L31.4915 16.2735C31.4204 16.3298 31.3343 16.3572 31.2498 16.3572Z"/>
</mask>
<path d="M30.964 16.2327L31.7073 15.5638L31.7064 15.5628L30.964 16.2327ZM31.0074 15.7368L30.3843 14.9546L30.382 14.9565L31.0074 15.7368ZM33.3238 13.8918L32.702 13.1086L32.7007 13.1096L33.3238 13.8918ZM33.8512 13.9326L33.1085 14.6022L33.1088 14.6025L33.8512 13.9326ZM33.8079 14.4285L34.4309 15.2107L34.4332 15.2088L33.8079 14.4285ZM31.4915 16.2735L32.1122 17.0576L32.1145 17.0557L31.4915 16.2735ZM31.2498 15.3572C31.4029 15.3572 31.5761 15.418 31.7073 15.5638L30.2207 16.9017C30.5 17.212 30.8842 17.3572 31.2498 17.3572V15.3572ZM31.7064 15.5628C31.9681 15.8528 31.9126 16.2929 31.6327 16.5172L30.382 14.9565C29.7879 15.4326 29.6921 16.3158 30.2216 16.9027L31.7064 15.5628ZM31.6304 16.519L33.9468 14.674L32.7007 13.1096L30.3844 14.9546L31.6304 16.519ZM33.9455 14.675C33.6977 14.8718 33.3349 14.8532 33.1085 14.6022L34.594 13.263C34.1013 12.7165 33.2671 12.66 32.702 13.1086L33.9455 14.675ZM33.1088 14.6025C32.8472 14.3125 32.9027 13.8724 33.1825 13.6481L34.4332 15.2088C35.0273 14.7327 35.1232 13.8495 34.5937 13.2627L33.1088 14.6025ZM33.1848 13.6463L30.8684 15.4913L32.1145 17.0557L34.4309 15.2107L33.1848 13.6463ZM30.8707 15.4895C30.9849 15.3991 31.1202 15.3572 31.2498 15.3572V17.3572C31.5484 17.3572 31.8558 17.2605 32.1122 17.0576L30.8707 15.4895Z" fill="white" mask="url(#path-21-inside-10_214_2967)"/>
<mask id="path-23-inside-11_214_2967" fill="white">
<path d="M34.6644 14.9919C34.131 14.9919 33.626 14.7725 33.2803 14.3884C33.0035 14.081 32.8508 13.6899 32.8508 13.2876C32.8508 12.3471 33.6641 11.5825 34.6644 11.5825C35.664 11.5825 36.4773 12.3471 36.4773 13.2869C36.4773 14.2273 35.664 14.9919 34.6644 14.9919ZM34.6644 12.2859C34.0771 12.2859 33.5998 12.7354 33.5998 13.2869C33.5998 13.5232 33.6895 13.7532 33.8512 13.9333C34.0547 14.1584 34.3509 14.2878 34.6644 14.2878C35.2518 14.2878 35.7291 13.8383 35.7291 13.2869C35.7291 12.7354 35.251 12.2859 34.6644 12.2859Z"/>
</mask>
<path d="M33.2803 14.3884L34.0236 13.7194L34.0234 13.7192L33.2803 14.3884ZM32.8508 13.2876H31.8508H32.8508ZM36.4773 13.2869H35.4773H36.4773ZM33.8512 13.9333L33.1069 14.6012L33.1094 14.604L33.8512 13.9333ZM34.6644 13.9919C34.4025 13.9919 34.1717 13.884 34.0236 13.7194L32.537 15.0574C33.0802 15.6609 33.8595 15.9919 34.6644 15.9919V13.9919ZM34.0234 13.7192C33.9067 13.5897 33.8508 13.4351 33.8508 13.2876H31.8508C31.8508 13.9448 32.1002 14.5724 32.5372 15.0576L34.0234 13.7192ZM33.8508 13.2876C33.8508 12.9567 34.1574 12.5825 34.6644 12.5825V10.5825C33.1709 10.5825 31.8508 11.7376 31.8508 13.2876H33.8508ZM34.6644 12.5825C35.1708 12.5825 35.4773 12.9567 35.4773 13.2869H37.4773C37.4773 11.7376 36.1573 10.5825 34.6644 10.5825V12.5825ZM35.4773 13.2869C35.4773 13.6181 35.1705 13.9919 34.6644 13.9919V15.9919C36.1575 15.9919 37.4773 14.8366 37.4773 13.2869H35.4773ZM34.6644 11.2859C33.5834 11.2859 32.5998 12.1263 32.5998 13.2869H34.5998C34.5998 13.295 34.5977 13.3032 34.5953 13.3086C34.5932 13.3132 34.5926 13.3121 34.597 13.308C34.6062 13.2993 34.6281 13.2859 34.6644 13.2859V11.2859ZM32.5998 13.2869C32.5998 13.7776 32.7859 14.2436 33.1069 14.6012L34.5954 13.2654C34.5932 13.2629 34.5998 13.2688 34.5998 13.2869H32.5998ZM33.1094 14.604C33.5089 15.0458 34.0779 15.2878 34.6644 15.2878V13.2878C34.624 13.2878 34.6005 13.271 34.5929 13.2627L33.1094 14.604ZM34.6644 15.2878C35.7455 15.2878 36.7291 14.4474 36.7291 13.2869H34.7291C34.7291 13.2788 34.7312 13.2706 34.7336 13.2651C34.7357 13.2606 34.7363 13.2616 34.7319 13.2657C34.7226 13.2744 34.7008 13.2878 34.6644 13.2878V15.2878ZM36.7291 13.2869C36.7291 12.1259 35.7443 11.2859 34.6644 11.2859V13.2859C34.7002 13.2859 34.7222 13.2992 34.7318 13.3082C34.7363 13.3124 34.7357 13.3135 34.7337 13.309C34.7312 13.3035 34.7291 13.2952 34.7291 13.2869H36.7291Z" fill="white" mask="url(#path-23-inside-11_214_2967)"/>
</g>
<path fill-rule="evenodd" clip-rule="evenodd" d="M40.9619 36.7683C40.9619 34.9765 39.5092 33.5238 37.7174 33.5238C35.9256 33.5238 34.4729 34.9765 34.4729 36.7683V37.4172C34.4729 39.209 35.9256 40.6617 37.7174 40.6617L37.8629 40.6584C39.6021 40.5731 40.9619 39.1488 40.9619 37.4172V36.7683ZM35.7709 36.7683C35.7709 35.6932 36.6425 34.8216 37.7176 34.8216C38.7926 34.8216 39.6643 35.6932 39.6643 36.7683V37.4172C39.6643 38.456 38.8482 39.3107 37.8153 39.3615L37.7017 39.3641C36.6425 39.3639 35.7709 38.4922 35.7709 37.4172V36.7683ZM40.6373 41.3105C40.4331 41.3105 40.2408 41.4067 40.1182 41.5701L37.7173 44.7714L35.3163 41.5701C35.1938 41.4067 35.0015 41.3105 34.7972 41.3105H34.4728C32.3223 41.3105 30.5793 43.0538 30.5793 45.204V48.189C30.5793 49.0537 31.2802 49.7463 32.1445 49.7463H43.2901C44.1544 49.7463 44.8552 49.0537 44.8552 48.189V45.204C44.8552 43.0538 43.1122 41.3105 40.9618 41.3105H40.6373ZM31.8773 45.204C31.8773 43.8139 32.9699 42.679 34.3434 42.6115L34.4729 42.6084L37.1983 46.2422C37.4579 46.5883 37.977 46.5883 38.2366 46.2422L40.962 42.6084C42.3956 42.6084 43.5576 43.7705 43.5576 45.204V48.189C43.5576 48.3336 43.4412 48.4486 43.2902 48.4486H32.1447C31.9937 48.4486 31.8773 48.3336 31.8773 48.189V45.204ZM41.6107 47.1565H40.3129C39.9545 47.1565 39.664 46.8659 39.664 46.5076C39.664 46.1492 39.9545 45.8587 40.3129 45.8587H41.6107C41.9691 45.8587 42.2596 46.1492 42.2596 46.5076C42.2596 46.8659 41.9691 47.1565 41.6107 47.1565Z" fill="white"/>
</g>
<defs>
<filter id="filter0_d_214_2967" x="13.6006" y="7.58252" width="28.5093" height="25.6289" filterUnits="userSpaceOnUse" color-interpolation-filters="sRGB">
<feFlood flood-opacity="0" result="BackgroundImageFix"/>
<feColorMatrix in="SourceAlpha" type="matrix" values="0 0 0 0 0 0 0 0 0 0 0 0 0 0 0 0 0 0 127 0" result="hardAlpha"/>
<feOffset/>
<feGaussianBlur stdDeviation="2"/>
<feColorMatrix type="matrix" values="0 0 0 0 1 0 0 0 0 1 0 0 0 0 1 0 0 0 0.12 0"/>
<feBlend mode="normal" in2="BackgroundImageFix" result="effect1_dropShadow_214_2967"/>
<feBlend mode="normal" in="SourceGraphic" in2="effect1_dropShadow_214_2967" result="shape"/>
</filter>
<clipPath id="clip0_214_2967">
<rect width="54" height="55" fill="white" transform="translate(0.855225 0.226318)"/>
</clipPath>
</defs>
</svg>
