<svg width="55" height="56" viewBox="0 0 55 56" fill="none" xmlns="http://www.w3.org/2000/svg">
<g clip-path="url(#clip0_214_3044)">
<path d="M44.8552 27.0898V11.4228C44.8552 8.53844 42.5716 6.2002 39.7651 6.2002H15.9454C13.1342 6.2002 10.8552 8.54002 10.8552 11.4065V44.5139C10.8552 47.3893 13.1331 49.7202 15.9469 49.7202H24.4552" stroke="white" stroke-width="1.5"/>
<path fill-rule="evenodd" clip-rule="evenodd" d="M22.4635 18.7996C23.4673 16.8723 25.5422 15.6257 27.8554 15.6257C29.06 15.6257 30.2179 15.9655 31.2017 16.5891C31.431 16.7345 31.7416 16.6768 31.8955 16.4602C32.0494 16.2437 31.9883 15.9503 31.759 15.805C30.612 15.0779 29.2605 14.6812 27.8554 14.6812C25.1573 14.6812 22.7365 16.1357 21.5662 18.3828C21.4443 18.6168 21.5464 18.8998 21.7942 19.0149C22.042 19.1301 22.3417 19.0337 22.4635 18.7996ZM22.0866 22.8554C21.9341 22.3421 21.8552 21.8187 21.8552 21.2925C21.8552 21.1527 21.8605 21.0354 21.8726 20.9255C21.901 20.6661 21.7014 20.434 21.4267 20.4072C21.152 20.3804 20.9063 20.5689 20.8779 20.8283C20.862 20.9737 20.8552 21.1225 20.8552 21.2925C20.8552 21.9065 20.947 22.5156 21.1238 23.1106C21.1985 23.3617 21.4745 23.5082 21.7404 23.4377C22.0062 23.3672 22.1612 23.1065 22.0866 22.8554ZM33.8552 21.2924C33.8552 20.1543 33.4954 19.0607 32.8351 18.1321C32.6812 17.9155 32.7422 17.6222 32.9715 17.4768C33.2007 17.3314 33.5114 17.389 33.6653 17.6056C34.4352 18.6883 34.8552 19.9649 34.8552 21.2924C34.8552 21.9159 34.7641 22.5272 34.5852 23.1059C34.5078 23.3563 34.2301 23.4999 33.9651 23.4268C33.7 23.3537 33.5479 23.0915 33.6253 22.8412C33.7774 22.3492 33.8552 21.827 33.8552 21.2924ZM28.3552 27.4313V25.5424C28.3552 25.2816 28.1314 25.0702 27.8552 25.0702C27.5791 25.0702 27.3552 25.2816 27.3552 25.5424V27.4313C27.3552 27.6921 27.5791 27.9035 27.8552 27.9035C28.1314 27.9035 28.3552 27.6921 28.3552 27.4313ZM28.3552 21.2924V23.6535C28.3552 23.9143 28.1314 24.1258 27.8552 24.1258C27.5791 24.1258 27.3552 23.9143 27.3552 23.6535V21.2924C27.3552 21.0316 27.5791 20.8202 27.8552 20.8202C28.1314 20.8202 28.3552 21.0316 28.3552 21.2924ZM23.9802 25.5424V21.2924C23.9802 20.6778 24.1417 20.0829 24.4451 19.5525C24.5764 19.323 24.4859 19.0365 24.2429 18.9125C24 18.7885 23.6966 18.874 23.5653 19.1035C23.1835 19.7709 22.9802 20.52 22.9802 21.2924V25.5424C22.9802 25.8032 23.2041 26.0146 23.4802 26.0146C23.7564 26.0146 23.9802 25.8032 23.9802 25.5424ZM27.8551 17.5736C27.2044 17.5736 26.5744 17.726 26.0128 18.0126C25.7699 18.1366 25.4665 18.0511 25.3352 17.8217C25.204 17.5922 25.2945 17.3057 25.5374 17.1817C26.2441 16.8211 27.0373 16.6291 27.8551 16.6291C30.5409 16.6291 32.7301 18.6965 32.7301 21.2333V25.4833C32.7301 25.7441 32.5063 25.9555 32.2301 25.9555C31.954 25.9555 31.7301 25.7441 31.7301 25.4833V21.2333C31.7301 19.2182 29.9887 17.5736 27.8551 17.5736ZM30.6052 27.0536V24.362C30.6052 24.1012 30.3814 23.8897 30.1052 23.8897C29.8291 23.8897 29.6052 24.1012 29.6052 24.362V27.0536C29.6052 27.3144 29.8291 27.5258 30.1052 27.5258C30.3814 27.5258 30.6052 27.3144 30.6052 27.0536ZM30.6052 21.2924V22.2369C30.6052 22.4977 30.3814 22.7091 30.1052 22.7091C29.8291 22.7091 29.6052 22.4977 29.6052 22.2369V21.2924C29.6052 20.8465 29.419 20.4301 29.0895 20.1226C28.7683 19.8155 28.3273 19.6396 27.8552 19.6396C26.8864 19.6396 26.1052 20.3774 26.1052 21.2924V27.0535C26.1052 27.3143 25.8814 27.5258 25.6052 27.5258C25.3291 27.5258 25.1052 27.3143 25.1052 27.0535V21.2924C25.1052 19.8558 26.3341 18.6952 27.8552 18.6952C28.5961 18.6952 29.2928 18.9731 29.7966 19.4548C30.311 19.9347 30.6052 20.5927 30.6052 21.2924Z" fill="white"/>
<path fill-rule="evenodd" clip-rule="evenodd" d="M35.8003 31.6104C40.8009 31.6104 44.8552 35.6647 44.8552 40.6653C44.8552 45.6659 40.8009 49.7202 35.8003 49.7202C30.7997 49.7202 26.7454 45.6659 26.7454 40.6653C26.7454 35.6647 30.7997 31.6104 35.8003 31.6104ZM35.8002 33.0034C31.569 33.0034 28.1384 36.434 28.1384 40.6652C28.1384 44.8965 31.569 48.3271 35.8002 48.3271C40.0315 48.3271 43.4621 44.8965 43.4621 40.6652C43.4621 36.434 40.0315 33.0034 35.8002 33.0034ZM33.0143 37.1827C33.0143 36.6356 33.616 36.3021 34.0799 36.592L39.6522 40.0747C40.0887 40.3475 40.0887 40.9832 39.6522 41.256L34.0799 44.7387C33.616 45.0286 33.0143 44.6951 33.0143 44.148V37.1827ZM34.4073 42.8912L37.9688 40.6652L34.4073 38.4393V42.8912Z" fill="white"/>
</g>
<defs>
<clipPath id="clip0_214_3044">
<rect width="54" height="55" fill="white" transform="translate(0.855225 0.200195)"/>
</clipPath>
</defs>
</svg>
