<svg width="55" height="56" viewBox="0 0 55 56" fill="none" xmlns="http://www.w3.org/2000/svg">
<path d="M44.8552 27.0898V11.4228C44.8552 8.53844 42.5716 6.2002 39.7651 6.2002H15.9454C13.1342 6.2002 10.8552 8.54002 10.8552 11.4065V44.5139C10.8552 47.3893 13.1331 49.7202 15.9469 49.7202H24.4552" stroke="white" stroke-width="1.5"/>
<circle cx="18.9796" cy="20.8517" r="1.40561" fill="white"/>
<circle cx="24.6021" cy="20.8517" r="1.40561" fill="white"/>
<circle cx="30.2245" cy="20.8517" r="1.40561" fill="white"/>
<circle cx="35.847" cy="20.8517" r="1.40561" fill="white"/>
<path d="M39.2946 31.3788C39.6889 30.7717 40.5776 30.7717 40.9719 31.3788L51.363 47.3773C51.7951 48.0426 51.3176 48.922 50.5243 48.922H29.7422C28.9489 48.922 28.4715 48.0426 28.9035 47.3773L39.2946 31.3788Z" stroke="white" stroke-width="1.3"/>
<path d="M39.7453 44.4541C39.7453 44.2887 39.788 44.1527 39.8733 44.0461C39.9586 43.9341 40.1133 43.8781 40.3373 43.8781C40.556 43.8781 40.7106 43.9341 40.8013 44.0461C40.892 44.1527 40.9373 44.2887 40.9373 44.4541C40.9373 44.6194 40.892 44.7581 40.8013 44.8701C40.716 44.9767 40.5613 45.0301 40.3373 45.0301C40.1186 45.0301 39.964 44.9741 39.8733 44.8621C39.788 44.7501 39.7453 44.6141 39.7453 44.4541ZM39.8893 39.3421H40.7853L40.7533 43.0621H39.9133L39.8893 39.3421Z" fill="white"/>
</svg>
