<svg width="55" height="55" viewBox="0 0 55 55" fill="none" xmlns="http://www.w3.org/2000/svg">
<rect width="25.999" height="3.05871" rx="1.52936" transform="matrix(-1 0 0 1 40.1995 19.5588)" fill="white"/>
<rect width="25.999" height="3.05871" rx="1.52936" transform="matrix(-1 0 0 1 40.1995 19.5588)" stroke="white"/>
<path fill-rule="evenodd" clip-rule="evenodd" d="M9.00732 12.8657H46.7032C47.5316 12.8657 48.2032 13.5373 48.2032 14.3657V29.1171H49.7032V14.3657C49.7032 12.7089 48.36 11.3657 46.7032 11.3657H9.00732C7.35047 11.3657 6.00732 12.7089 6.00732 14.3657V38.4066C6.00732 40.0635 7.35048 41.4066 9.00733 41.4066H25.124V39.9066H9.00733C8.1789 39.9066 7.50732 39.2351 7.50732 38.4066V14.3657C7.50732 13.5373 8.1789 12.8657 9.00732 12.8657Z" fill="white"/>
<path fill-rule="evenodd" clip-rule="evenodd" d="M41.9948 33.2816V31.6566C41.9948 29.8621 40.3531 28.4066 38.3281 28.4066C36.3035 28.4066 34.6615 29.8617 34.6615 31.6566V33.2816C33.6488 33.2816 32.8281 34.0091 32.8281 34.9066V39.7816C32.8281 40.6792 33.6488 41.4066 34.6615 41.4066H41.9948C43.0074 41.4066 43.8281 40.6792 43.8281 39.7816V34.9066C43.8281 34.0091 43.0074 33.2816 41.9948 33.2816ZM36.4948 31.6566C36.4948 30.7591 37.3157 30.0316 38.3281 30.0316C39.3407 30.0316 40.1615 30.7593 40.1615 31.6566V33.2816H36.4948V31.6566ZM37.6614 35.2399C37.6614 34.7797 38.0345 34.4066 38.4948 34.4066C38.955 34.4066 39.3281 34.7797 39.3281 35.2399V36.0733C39.3281 36.1451 39.319 36.2149 39.3019 36.2814C39.8145 36.5656 40.1614 37.1123 40.1614 37.7399C40.1614 38.6604 39.4152 39.4066 38.4948 39.4066C37.5743 39.4066 36.8281 38.6604 36.8281 37.7399C36.8281 37.1123 37.175 36.5656 37.6876 36.2814C37.6705 36.2149 37.6614 36.1451 37.6614 36.0733V35.2399Z" fill="white"/>
</svg>
