<svg width="55" height="56" viewBox="0 0 55 56" fill="none" xmlns="http://www.w3.org/2000/svg">
<line x1="10.3362" y1="35.8594" x2="45.3742" y2="35.8594" stroke="white" stroke-width="1.5"/>
<line x1="26.1028" y1="32.1053" x2="32.1109" y2="32.1053" stroke="white" stroke-width="1.5" stroke-linecap="round"/>
<mask id="path-3-inside-1_214_2887" fill="white">
<path fill-rule="evenodd" clip-rule="evenodd" d="M24.8501 14.3336H34.615C34.8912 14.3336 35.115 14.5575 35.115 14.8336V19.0904H36.615V14.8336C36.615 13.729 35.7196 12.8336 34.615 12.8336H24.8501C23.7455 12.8336 22.8501 13.729 22.8501 14.8336V23.3472C22.8501 23.3538 22.8501 23.3605 22.8502 23.3671V19.0904H24.3501V14.8336C24.3501 14.5575 24.574 14.3336 24.8501 14.3336Z"/>
</mask>
<path fill-rule="evenodd" clip-rule="evenodd" d="M24.8501 14.3336H34.615C34.8912 14.3336 35.115 14.5575 35.115 14.8336V19.0904H36.615V14.8336C36.615 13.729 35.7196 12.8336 34.615 12.8336H24.8501C23.7455 12.8336 22.8501 13.729 22.8501 14.8336V23.3472C22.8501 23.3538 22.8501 23.3605 22.8502 23.3671V19.0904H24.3501V14.8336C24.3501 14.5575 24.574 14.3336 24.8501 14.3336Z" fill="white"/>
<path d="M35.115 19.0904H34.115V20.0904H35.115V19.0904ZM36.615 19.0904V20.0904H37.615V19.0904H36.615ZM22.8502 23.3671L21.8502 23.3769L23.8502 23.3671H22.8502ZM22.8502 19.0904V18.0904H21.8502V19.0904H22.8502ZM24.3501 19.0904V20.0904H25.3501V19.0904H24.3501ZM34.615 13.3336H24.8501V15.3336H34.615V13.3336ZM36.115 14.8336C36.115 14.0052 35.4435 13.3336 34.615 13.3336V15.3336C34.3389 15.3336 34.115 15.1098 34.115 14.8336H36.115ZM36.115 19.0904V14.8336H34.115V19.0904H36.115ZM35.115 20.0904H36.615V18.0904H35.115V20.0904ZM37.615 19.0904V14.8336H35.615V19.0904H37.615ZM37.615 14.8336C37.615 13.1768 36.2719 11.8336 34.615 11.8336V13.8336C35.1673 13.8336 35.615 14.2813 35.615 14.8336H37.615ZM34.615 11.8336H24.8501V13.8336H34.615V11.8336ZM24.8501 11.8336C23.1932 11.8336 21.8501 13.1768 21.8501 14.8336H23.8501C23.8501 14.2813 24.2978 13.8336 24.8501 13.8336V11.8336ZM21.8501 14.8336V23.3472H23.8501V14.8336H21.8501ZM21.8501 23.3472C21.8501 23.3571 21.8501 23.367 21.8502 23.3769L23.8501 23.3574C23.8501 23.354 23.8501 23.3506 23.8501 23.3472H21.8501ZM23.8502 23.3671V19.0904H21.8502V23.3671H23.8502ZM22.8502 20.0904H24.3501V18.0904H22.8502V20.0904ZM23.3501 14.8336V19.0904H25.3501V14.8336H23.3501ZM24.8501 13.3336C24.0217 13.3336 23.3501 14.0052 23.3501 14.8336H25.3501C25.3501 15.1098 25.1262 15.3336 24.8501 15.3336V13.3336Z" fill="white" mask="url(#path-3-inside-1_214_2887)"/>
<path fill-rule="evenodd" clip-rule="evenodd" d="M36.6149 18.3405H13.3362C11.2651 18.3405 9.58618 20.0194 9.58618 22.0905V41.1176C9.58618 43.1887 11.2651 44.8676 13.3362 44.8676H42.3742C44.4453 44.8676 46.1242 43.1887 46.1242 41.1176V32.8554H44.6242V41.1176C44.6242 42.3602 43.6168 43.3676 42.3742 43.3676H13.3362C12.0935 43.3676 11.0862 42.3602 11.0862 41.1176V22.0905C11.0862 20.8478 12.0935 19.8405 13.3362 19.8405H36.6149V18.3405Z" fill="white"/>
<path d="M44.3689 22.8296C44.3686 22.8297 44.3683 22.8298 44.368 22.8298L44.3685 22.8297L44.3689 22.8296ZM43.0587 27.9181L43.0588 27.9179L43.0587 27.9181ZM38.0566 22.1717L38.0578 22.1711L38.0566 22.1717Z" fill="white" stroke="white" stroke-width="2"/>
</svg>
