<svg width="55" height="56" viewBox="0 0 55 56" fill="none" xmlns="http://www.w3.org/2000/svg">
<g clip-path="url(#clip0_214_3006)">
<path d="M44.8552 27.1159V11.4489C44.8552 8.56456 42.5716 6.22632 39.7651 6.22632H15.9454C13.1342 6.22632 10.8552 8.56614 10.8552 11.4326V44.54C10.8552 47.4154 13.1331 49.7463 15.9469 49.7463H24.4552" stroke="white" stroke-width="1.5"/>
<path fill-rule="evenodd" clip-rule="evenodd" d="M39.9791 27.9863C40.3004 27.9863 40.5609 28.2468 40.5609 28.5681V29.2134C40.5609 29.4747 40.6999 29.7216 40.9546 29.8954L41.0345 29.9453L41.1329 29.997C41.3923 30.1168 41.6714 30.1125 41.8943 29.9846L42.4598 29.6588C42.7377 29.4986 43.0928 29.5937 43.2537 29.8712L44.7769 32.4999C44.9383 32.7784 44.8428 33.135 44.5639 33.2957L44.0047 33.6178C43.7561 33.7606 43.6059 34.0431 43.6067 34.3776L43.6102 34.4859C43.6341 34.7798 43.7788 35.0251 44.0053 35.1552L44.5639 35.4769C44.8428 35.6376 44.9383 35.9943 44.7769 36.2728L43.2537 38.9015C43.0928 39.179 42.7377 39.274 42.4598 39.1139L41.8952 38.7886C41.6466 38.646 41.3296 38.6564 41.0502 38.8186L40.9392 38.8864C40.6999 39.0511 40.5609 39.298 40.5609 39.5593V40.2045C40.5609 40.5258 40.3004 40.7863 39.9791 40.7863H36.9321C36.6107 40.7863 36.3503 40.5258 36.3503 40.2045V39.5593C36.3503 39.298 36.2113 39.0511 35.9565 38.8772L35.8767 38.8273L35.7782 38.7757C35.5189 38.6558 35.2397 38.6602 35.0169 38.7881L34.4513 39.1139C34.1734 39.274 33.8184 39.179 33.6575 38.9015L32.1337 36.2729C31.9722 35.9943 32.0678 35.6374 32.3469 35.4768L32.9064 35.1548C33.155 35.012 33.3052 34.7295 33.3044 34.3951L33.3009 34.2868C33.2771 33.9929 33.1324 33.7476 32.906 33.6176L32.3469 33.2959C32.0678 33.1352 31.9722 32.7784 32.1337 32.4998L33.6575 29.8711C33.8184 29.5936 34.1734 29.4987 34.4513 29.6588L35.0159 29.9841C35.2645 30.1267 35.5816 30.1163 35.8609 29.9541L35.9719 29.8862C36.2113 29.7216 36.3503 29.4747 36.3503 29.2134V28.5681C36.3503 28.2468 36.6107 27.9863 36.9321 27.9863H39.9791ZM37.5141 29.1499V29.2133C37.5141 29.8909 37.1564 30.5049 36.6002 30.8671L36.4771 30.942L36.3357 31.0198C35.7287 31.3265 35.0217 31.3288 34.4361 30.9928L34.3734 30.9567L33.4333 32.5783L33.4862 32.6088C34.1112 32.9677 34.4699 33.6427 34.4682 34.3776L34.4648 34.5229C34.4268 35.2082 34.0744 35.826 33.4866 36.1636L33.4333 36.1942L34.3734 37.8159L34.4371 37.7792C35.0582 37.4229 35.8173 37.4477 36.4508 37.8154L36.5831 37.8953C37.1564 38.2677 37.5141 38.8817 37.5141 39.5592V39.6227H39.3974V39.5592C39.3974 38.8817 39.755 38.2677 40.3113 37.9055L40.4344 37.8306L40.5758 37.7528C41.1828 37.4461 41.8897 37.4438 42.4754 37.7798L42.538 37.8158L43.4778 36.194L43.4253 36.1638C42.8003 35.8048 42.4416 35.1299 42.4432 34.395L42.4467 34.2496C42.4847 33.5643 42.8371 32.9466 43.4247 32.6091L43.4778 32.5785L42.538 30.9567L42.4744 30.9934C41.8532 31.3497 41.0942 31.3249 40.4607 30.9572L40.3284 30.8773C39.755 30.5049 39.3974 29.8909 39.3974 29.2133V29.1499H37.5141ZM38.4556 32.059C39.741 32.059 40.7829 33.1009 40.7829 34.3863C40.7829 35.6717 39.741 36.7135 38.4556 36.7135C37.1702 36.7135 36.1283 35.6717 36.1283 34.3863C36.1283 33.1009 37.1702 32.059 38.4556 32.059ZM38.4557 33.2226C37.8129 33.2226 37.292 33.7435 37.292 34.3862C37.292 35.029 37.8129 35.5499 38.4557 35.5499C39.0984 35.5499 39.6193 35.029 39.6193 34.3862C39.6193 33.7435 39.0984 33.2226 38.4557 33.2226Z" fill="white"/>
<path fill-rule="evenodd" clip-rule="evenodd" d="M33.762 40.7864C33.987 40.7864 34.1693 40.9687 34.1693 41.1936V41.6453C34.1693 41.8282 34.2666 42.0011 34.4449 42.1227L34.5008 42.1577L34.5698 42.1938C34.7513 42.2777 34.9467 42.2747 35.1027 42.1852L35.4986 41.9571C35.6931 41.845 35.9417 41.9115 36.0543 42.1058L37.1205 43.9459C37.2335 44.1408 37.1667 44.3905 36.9714 44.503L36.58 44.7284C36.406 44.8284 36.3009 45.0261 36.3014 45.2603L36.3038 45.3361C36.3206 45.5418 36.4218 45.7135 36.5804 45.8046L36.9714 46.0298C37.1667 46.1423 37.2335 46.3919 37.1205 46.5869L36.0543 48.427C35.9417 48.6212 35.6931 48.6878 35.4986 48.5757L35.1034 48.348C34.9293 48.2481 34.7074 48.2554 34.5118 48.369L34.4342 48.4164C34.2666 48.5317 34.1693 48.7045 34.1693 48.8874V49.3391C34.1693 49.564 33.987 49.7464 33.762 49.7464H31.6292C31.4042 49.7464 31.2219 49.564 31.2219 49.3391V48.8874C31.2219 48.7045 31.1246 48.5317 30.9463 48.41L30.8904 48.3751L30.8214 48.3389C30.6399 48.255 30.4445 48.2581 30.2885 48.3476L29.8926 48.5757C29.6981 48.6877 29.4496 48.6213 29.337 48.427L28.2703 46.587C28.1573 46.3919 28.2241 46.1422 28.4195 46.0297L28.8112 45.8043C28.9852 45.7044 29.0903 45.5066 29.0898 45.2725L29.0874 45.1967C29.0707 44.991 28.9694 44.8193 28.8109 44.7283L28.4195 44.503C28.2241 44.3906 28.1573 44.1408 28.2703 43.9458L29.337 42.1057C29.4496 41.9115 29.6981 41.845 29.8926 41.9571L30.2878 42.1848C30.4619 42.2846 30.6838 42.2773 30.8794 42.1638L30.957 42.1163C31.1246 42.0011 31.2219 41.8282 31.2219 41.6453V41.1936C31.2219 40.9687 31.4042 40.7864 31.6292 40.7864H33.762ZM32.0364 41.6009V41.6453C32.0364 42.1195 31.7861 42.5493 31.3967 42.8029L31.3106 42.8553L31.2115 42.9097C30.7867 43.1245 30.2918 43.1261 29.8819 42.8909L29.8379 42.8656L29.1799 44.0008L29.2169 44.022C29.6544 44.2733 29.9055 44.7458 29.9043 45.2602L29.9019 45.362C29.8753 45.8417 29.6287 46.2741 29.2172 46.5104L29.1799 46.5319L29.8379 47.667L29.8825 47.6414C30.3173 47.3919 30.8487 47.4093 31.2921 47.6667L31.3847 47.7226C31.7861 47.9833 32.0364 48.4131 32.0364 48.8874V48.9318H33.3548V48.8874C33.3548 48.4131 33.6051 47.9833 33.9945 47.7297L34.0806 47.6773L34.1796 47.6229C34.6045 47.4082 35.0994 47.4066 35.5093 47.6417L35.5532 47.667L36.211 46.5318L36.1743 46.5106C35.7368 46.2593 35.4857 45.7869 35.4868 45.2724L35.4892 45.1707C35.5159 44.691 35.7625 44.2586 36.1738 44.0223L36.211 44.0009L35.5532 42.8656L35.5087 42.8913C35.0738 43.1407 34.5425 43.1233 34.0991 42.866L34.0064 42.81C33.6051 42.5493 33.3548 42.1195 33.3548 41.6453V41.6009H32.0364ZM32.6956 43.6373C33.5953 43.6373 34.3247 44.3666 34.3247 45.2664C34.3247 46.1661 33.5953 46.8955 32.6956 46.8955C31.7958 46.8955 31.0665 46.1661 31.0665 45.2664C31.0665 44.3666 31.7958 43.6373 32.6956 43.6373ZM32.6955 44.4517C32.2455 44.4517 31.8809 44.8164 31.8809 45.2663C31.8809 45.7162 32.2455 46.0808 32.6955 46.0808C33.1454 46.0808 33.51 45.7162 33.51 45.2663C33.51 44.8164 33.1454 44.4517 32.6955 44.4517Z" fill="white"/>
<path fill-rule="evenodd" clip-rule="evenodd" d="M26.3563 12.9534C26.1775 13.0376 26.0105 13.1526 25.8641 13.2985L14.1667 24.9543C13.4741 25.6445 13.4741 26.7947 14.1667 27.4849L15.321 28.6351C15.6288 28.9418 16.0906 28.9418 16.3984 28.6351C17.168 27.8683 18.4762 27.8683 19.2458 28.7118C20.0153 29.4786 20.0154 30.7056 19.3228 31.5491C19.015 31.8558 19.015 32.3159 19.3228 32.6226L20.5541 33.8496C20.8619 34.1563 21.3236 34.3864 21.7854 34.3864C22.2471 34.3864 22.7088 34.233 23.0167 33.8496L28.8552 28.0318H26.6235L25.941 28.7118L24.5558 27.3315L24.0171 27.8683L25.4023 29.2486L21.9392 32.6993C21.8623 32.776 21.7085 32.8527 21.6315 32.6993L20.8619 31.9325C21.7085 30.5522 21.4775 28.7885 20.3232 27.5615C19.1688 26.4113 17.3219 26.1813 15.9367 27.0248L15.2441 26.3346C15.1671 26.2579 15.1671 26.1046 15.2441 26.0279L18.7071 22.5771L20.0924 23.9574L20.631 23.4206L19.2458 22.0404L26.3563 14.955V12.9534ZM21.1716 24.9117L21.7158 24.3695L23.6203 26.2673L23.0762 26.8095L21.1716 24.9117Z" fill="white"/>
<path d="M35.6626 11.6521L35.5056 15.433M35.6626 11.6521C35.6626 11.6521 35.6626 11.652 35.6626 11.652L34.8772 11.6188M35.6626 11.6521L34.8772 11.6195M35.6626 11.6521L34.8772 11.6197L34.7106 15.6378L34.7004 15.8853M35.5056 15.433L32.6306 10.3012C32.9761 9.96344 33.4316 9.78227 33.9159 9.79319C33.9162 9.7932 33.9165 9.7932 33.9168 9.79321C34.4003 9.80341 34.8486 10.0029 35.1797 10.3553C35.1798 10.3554 35.18 10.3555 35.1801 10.3556C35.5113 10.7082 35.6824 11.1681 35.6627 11.6514L34.8772 11.6188M35.5056 15.433L35.3774 15.3652C35.4242 15.39 35.4669 15.4204 35.5047 15.4553M35.5056 15.433L35.5047 15.4553M34.8772 11.6188C34.8886 11.3484 34.7927 11.0908 34.6074 10.8936C34.6073 10.8935 34.6073 10.8934 34.6072 10.8933C34.4218 10.696 34.1707 10.5843 33.9002 10.5786C33.9001 10.5786 33.8999 10.5786 33.8997 10.5786C33.8992 10.5786 33.8987 10.5786 33.8982 10.5786C33.6284 10.5734 33.3734 10.6746 33.1804 10.8634C33.1802 10.8636 33.1799 10.8639 33.1796 10.8642M34.8772 11.6188L34.8772 11.6195M34.8772 11.6195L41.429 21.0926C41.5716 20.9978 41.7495 20.9669 41.9179 21.0105L41.437 20.8855L41.6351 20.1239L41.4047 20.0639L41.4075 19.9298L41.5257 19.9923M34.8772 11.6195L33.1796 10.8642M34.7004 15.8853C34.6942 16.0365 34.7755 16.1782 34.9095 16.249L35.1283 16.3648L41.2005 19.578L41.2033 19.4439C41.2023 19.4927 41.2072 19.5406 41.2174 19.5869L41.4124 19.6901L41.4079 19.9107C41.4433 19.9421 41.4828 19.9696 41.5257 19.9923M34.7004 15.8853L35.0931 15.9016L35.0934 15.9016L35.3674 15.9129L35.6995 15.9267L35.6995 15.9261L35.3676 15.9126L35.0935 15.9014L35.0932 15.9014L34.7004 15.8853ZM41.5257 19.9923C41.5259 19.9924 41.5261 19.9925 41.5263 19.9926L41.5262 19.9926L41.5257 19.9923ZM33.1796 10.8642C32.9866 11.0533 32.8804 11.3064 32.8804 11.577L33.1796 10.8642ZM35.5047 15.4553L35.4957 15.6704L35.6859 15.771C35.6969 15.8211 35.7017 15.8731 35.6995 15.9259L35.7055 15.7814L41.78 18.9955L35.5047 15.4553ZM33.3003 26.4971L33.3043 26.4991C33.303 26.4984 33.3017 26.4978 33.3003 26.4971ZM31.4194 27.2315L31.4194 27.2313L31.4194 27.2315ZM40.3886 20.833L40.3836 21.071L41.169 21.0872L41.1586 21.5852C41.1623 21.4119 41.2399 21.2483 41.372 21.1356C41.3806 21.1283 41.3895 21.1211 41.3986 21.1142L40.3886 20.833Z" fill="white" stroke="white" stroke-width="2"/>
</g>
<defs>
<clipPath id="clip0_214_3006">
<rect width="54" height="55" fill="white" transform="translate(0.855225 0.226318)"/>
</clipPath>
</defs>
</svg>
