<svg width="55" height="56" viewBox="0 0 55 56" fill="none" xmlns="http://www.w3.org/2000/svg">
<rect x="10.8945" y="5.31616" width="35.2836" height="44.8201" rx="4.25" stroke="white" stroke-width="1.5"/>
<path d="M24.5708 25.4602L23.7817 26.2466L26.5438 28.999L27.333 28.2126L24.5708 25.4602Z" fill="white"/>
<path d="M43.4221 18.5235L34.2701 9.40401C33.2656 8.40309 31.5916 8.40309 30.5871 9.40401L13.6225 26.3083C12.618 27.3093 12.618 28.9775 13.6225 29.9784L15.2966 31.6466C15.7431 32.0914 16.4127 32.0914 16.8592 31.6466C17.9753 30.5344 19.8726 30.5344 20.9887 31.7578C22.1047 32.8699 22.1049 34.6493 21.1004 35.8727C20.6539 36.3175 20.6539 36.9848 21.1004 37.4296L22.8861 39.209C23.3325 39.6539 24.0021 39.9875 24.6718 39.9875C25.3415 39.9875 26.0111 39.7651 26.4575 39.209L43.4221 22.3047C43.8686 21.8598 44.2033 21.1926 44.2033 20.5253C44.2033 19.6356 43.9802 18.9683 43.4221 18.5235ZM41.8596 20.6365L30.6987 31.7578L28.6897 29.7559L27.9085 30.5344L29.9174 32.5363L24.895 37.5408C24.7834 37.6521 24.5602 37.7633 24.4486 37.5408L23.3325 36.4287C24.5602 34.4269 24.2253 31.869 22.5512 30.0896C20.8771 28.4214 18.1985 28.0878 16.1896 29.3111L15.1851 28.3102C15.0734 28.199 15.0734 27.9765 15.1851 27.8653L20.2074 22.8608L22.2165 24.8626L22.9977 24.0841L20.9887 22.0823L32.1495 10.961C32.2611 10.8498 32.4844 10.8498 32.596 10.961L41.748 20.0804C41.8596 20.1917 41.8596 20.3029 41.8596 20.3029C41.8596 20.3029 41.9712 20.5253 41.8596 20.6365Z" fill="white"/>
<path fill-rule="evenodd" clip-rule="evenodd" d="M32.0695 19.1139L33.652 17.5318C34.2164 16.9662 35.2762 17.0947 35.8592 17.6782C36.4431 18.2616 36.5718 19.3212 36.0067 19.8858L34.4242 21.4682L35.3812 25.8578C35.4411 26.1349 35.3561 26.4237 35.156 26.623L34.4341 27.3452C34.1087 27.6706 33.581 27.6706 33.2565 27.3452C33.2191 27.3078 33.1854 27.2667 33.1524 27.2185L31.3611 24.5316L30.1215 25.7707L30.2195 26.7097C30.2453 26.9592 30.1572 27.2066 29.98 27.3839L29.1276 28.2367C28.9353 28.4291 28.6133 28.3884 28.4749 28.1544L27.3259 26.2118L25.3833 25.0628C25.1493 24.9244 25.1086 24.6023 25.301 24.4101L26.1531 23.5589C26.3304 23.3807 26.5786 23.2928 26.8288 23.3186L27.7671 23.4163L29.0065 22.1769L26.3225 20.3872C26.2756 20.3565 26.2322 20.321 26.1925 20.2812C25.8677 19.9564 25.8677 19.4297 26.1925 19.104L26.9153 18.3812C27.1156 18.1817 27.4039 18.0971 27.6806 18.1571L32.0695 19.1139ZM33.8453 26.7566L34.5677 26.0337L33.7247 22.168L31.9613 23.9311L33.8453 26.7566ZM30.9812 23.7341L29.3925 25.3221C29.3037 25.4108 29.2597 25.5349 29.2728 25.6597L29.3912 26.7952L28.9181 27.2686L27.988 25.696C27.9523 25.6356 27.9019 25.5853 27.8416 25.5496L26.2691 24.6195L26.7428 24.1466L27.878 24.2648C28.0027 24.2778 28.1267 24.2338 28.2154 24.1451L29.954 22.4065C30.1398 22.2208 30.1092 21.9116 29.8906 21.7659L26.7814 19.6922L27.5036 18.9705L32.1143 19.9756C32.2527 20.0058 32.397 19.9635 32.4972 19.8633L34.2408 18.1201C34.4446 17.9159 34.9853 17.9814 35.2704 18.2669C35.5563 18.5525 35.622 19.0932 35.4181 19.297L33.6747 21.0403C33.6709 21.0442 33.6671 21.0481 33.6634 21.052L30.9907 23.7243C30.9875 23.7276 30.9843 23.7308 30.9812 23.7341Z" fill="white"/>
<rect x="30.5798" y="37.2628" width="10.418" height="2.00347" rx="1.00173" fill="white"/>
<rect x="30.5798" y="39.667" width="10.418" height="2.00347" rx="1.00173" fill="white"/>
<rect x="30.5798" y="42.0712" width="10.418" height="2.00347" rx="1.00173" fill="white"/>
</svg>
