<svg width="55" height="56" viewBox="0 0 55 56" fill="none" xmlns="http://www.w3.org/2000/svg">
<g clip-path="url(#clip0_214_2851)">
<path d="M45.1699 27.3478V12.0045C45.1699 9.17971 42.9335 6.88977 40.1849 6.88977H16.8573C14.1042 6.88977 11.8723 9.18126 11.8723 11.9885V44.4119C11.8723 47.2279 14.1031 49.5107 16.8588 49.5107H25.1914" stroke="white" stroke-width="1.5"/>
<path fill-rule="evenodd" clip-rule="evenodd" d="M32.0931 17.7872C32.0931 15.4468 30.1956 13.5493 27.8552 13.5493C25.5148 13.5493 23.6173 15.4468 23.6173 17.7872V18.6348C23.6173 20.9752 25.5148 22.8726 27.8552 22.8726L28.0452 22.8682C30.3168 22.7568 32.0931 20.8965 32.0931 18.6348V17.7872ZM25.3124 17.7872C25.3124 16.383 26.4509 15.2445 27.8551 15.2445C29.2593 15.2445 30.3979 16.383 30.3979 17.7872V18.6348C30.3979 19.9916 29.3319 21.108 27.9827 21.1744L27.8344 21.1777C26.4509 21.1775 25.3124 20.039 25.3124 18.6348V17.7872ZM31.6692 23.7201C31.4024 23.7201 31.1512 23.8457 30.9911 24.0591L27.8551 28.2405L24.719 24.0591C24.559 23.8457 24.3078 23.7201 24.041 23.7201H23.6172C20.8084 23.7201 18.5317 25.997 18.5317 28.8055V32.7045C18.5317 33.834 19.4471 34.7387 20.5761 34.7387H35.134C36.263 34.7387 37.1784 33.834 37.1784 32.7045V28.8055C37.1784 25.997 34.9018 23.7201 32.0929 23.7201H31.6692ZM20.2268 28.8056C20.2268 26.99 21.6539 25.5076 23.4479 25.4194L23.6171 25.4153L27.1769 30.1617C27.516 30.6137 28.194 30.6137 28.533 30.1617L32.0929 25.4153C33.9654 25.4153 35.4832 26.9332 35.4832 28.8056V32.7045C35.4832 32.8933 35.3312 33.0435 35.134 33.0435H20.576C20.3788 33.0435 20.2268 32.8933 20.2268 32.7045V28.8056ZM32.9407 31.3559H31.2455C30.7774 31.3559 30.3979 30.9764 30.3979 30.5083C30.3979 30.0402 30.7774 29.6607 31.2455 29.6607H32.9407C33.4088 29.6607 33.7882 30.0402 33.7882 30.5083C33.7882 30.9764 33.4088 31.3559 32.9407 31.3559Z" fill="white"/>
<path fill-rule="evenodd" clip-rule="evenodd" d="M35.4895 42.5671L35.3179 42.6523L35.2175 42.5493L34.4846 41.8122C33.8045 41.1321 32.856 41.1038 32.155 41.7267L32.065 41.8116L30.8478 43.022L30.3962 43.4797C29.7021 44.1738 29.6732 45.1227 30.3094 45.838L30.3962 45.9299L30.996 46.5203L31.1356 46.6641C31.1571 46.6867 31.1778 46.7089 31.1981 46.7309L31.3171 46.8637C31.8708 47.4733 32.5821 47.7298 33.4376 47.6905C34.3545 47.6457 35.2417 47.3715 36.2351 46.884C38.1018 45.9729 39.7141 44.7115 41.0457 43.1227C42.1041 41.8877 42.8987 40.5875 43.413 39.1927C43.7303 38.3335 43.8759 37.606 43.8298 36.845C43.7895 36.2259 43.5418 35.6943 43.0889 35.2603L42.9841 35.1595L42.1312 34.3148L41.9654 34.157C41.2635 33.5332 40.3144 33.5616 39.6343 34.2417L38.7932 35.0828L38.1214 35.7494L37.8923 35.9888C37.272 36.6836 37.2716 37.5696 37.8835 38.2567L38.0507 38.4322L38.381 38.7655L38.8069 39.1797C38.6293 39.5348 38.3976 39.8803 38.0939 40.2537C37.3577 41.1629 36.5501 41.9062 35.6732 42.4658L35.5567 42.5318C35.5357 42.5431 35.5135 42.5547 35.4895 42.5671ZM40.5761 35.1835C40.7655 34.9941 40.9243 34.9941 41.1236 35.1935L41.2807 35.3459L41.9413 36.0027L42.1684 36.223C42.3799 36.4256 42.482 36.6449 42.5005 36.9285C42.5336 37.4747 42.4224 38.0305 42.1635 38.7316C41.7067 39.9701 40.9944 41.1357 40.0297 42.2616C38.8132 43.7129 37.3497 44.8579 35.6496 45.6876C34.8043 46.1025 34.0829 46.3255 33.3745 46.3601C32.8968 46.382 32.5728 46.2652 32.3124 45.9788C32.1778 45.8241 32.0498 45.6892 31.8627 45.5033L31.338 44.9881C31.1339 44.784 31.1339 44.6256 31.3439 44.4156L31.6736 44.0805L33.0066 42.7537C33.1953 42.5646 33.3534 42.5646 33.5437 42.7549L34.1713 43.3848L34.573 43.7982C34.8703 44.0955 35.2492 44.1713 35.6328 43.9806L36.0552 43.7736L36.2186 43.6878L36.3737 43.5984C37.3934 42.948 38.3063 42.1079 39.1281 41.093C39.5784 40.5392 39.9103 40.0146 40.1629 39.4148C40.2991 39.0538 40.2248 38.7038 39.947 38.4281L39.4607 37.9588L39.1576 37.6588C39.127 37.6279 39.0969 37.5974 39.067 37.5668L38.8728 37.3647C38.7211 37.1918 38.7219 37.0616 38.8818 36.8805L39.0718 36.6826L40.5761 35.1835Z" fill="white"/>
</g>
<defs>
<clipPath id="clip0_214_2851">
<rect width="47.9485" height="47.9485" fill="white" transform="translate(3.88086 4.22595)"/>
</clipPath>
</defs>
</svg>
