<svg width="55" height="56" viewBox="0 0 55 56" fill="none" xmlns="http://www.w3.org/2000/svg">
<path fill-rule="evenodd" clip-rule="evenodd" d="M37.9546 6.12892C38.3688 6.12892 38.7046 6.46471 38.7046 6.87892V9.76889H45.4593C47.6684 9.76889 49.4593 11.5597 49.4593 13.7689V29.9448H47.9593V17.9314H8.08228V45.5833C8.08228 46.964 9.20157 48.0833 10.5823 48.0833H34.6917V49.5833H10.5823C8.37314 49.5833 6.58228 47.7924 6.58228 45.5833V13.7689C6.58228 11.5597 8.37314 9.76889 10.5823 9.76889H16.7886V6.87899C16.7886 6.46478 17.1244 6.12899 17.5386 6.12899C17.9528 6.12899 18.2886 6.46478 18.2886 6.87899V9.76889H37.2046V6.87892C37.2046 6.46471 37.5404 6.12892 37.9546 6.12892ZM37.2046 11.2689H18.2886V12.6587C18.2886 13.0729 17.9528 13.4087 17.5386 13.4087C17.1244 13.4087 16.7886 13.0729 16.7886 12.6587V11.2689H10.5823C9.20157 11.2689 8.08228 12.3882 8.08228 13.7689V16.4314H47.9593V13.7689C47.9593 12.3882 46.84 11.2689 45.4593 11.2689H38.7046V12.6586C38.7046 13.0728 38.3688 13.4086 37.9546 13.4086C37.5404 13.4086 37.2046 13.0728 37.2046 12.6586V11.2689ZM13.6775 24.2382C13.6775 24.0173 13.8566 23.8382 14.0775 23.8382H16.6134C16.8343 23.8382 17.0134 24.0173 17.0134 24.2382V26.7741C17.0134 26.9951 16.8343 27.1741 16.6134 27.1741H14.0775C13.8566 27.1741 13.6775 26.9951 13.6775 26.7741V24.2382ZM14.0775 32.178C13.8566 32.178 13.6775 32.3571 13.6775 32.578V35.1139C13.6775 35.3348 13.8566 35.5139 14.0775 35.5139H16.6134C16.8343 35.5139 17.0134 35.3348 17.0134 35.1139V32.578C17.0134 32.3571 16.8343 32.178 16.6134 32.178H14.0775ZM22.0173 32.578C22.0173 32.3571 22.1964 32.178 22.4173 32.178H24.9532C25.1741 32.178 25.3532 32.3571 25.3532 32.578V35.1139C25.3532 35.3348 25.1741 35.5139 24.9532 35.5139H22.4173C22.1964 35.5139 22.0173 35.3348 22.0173 35.1139V32.578ZM22.4173 23.8382C22.1964 23.8382 22.0173 24.0173 22.0173 24.2382V26.7741C22.0173 26.9951 22.1964 27.1741 22.4173 27.1741H24.9532C25.1741 27.1741 25.3532 26.9951 25.3532 26.7741V24.2382C25.3532 24.0173 25.1741 23.8382 24.9532 23.8382H22.4173ZM30.357 24.2382C30.357 24.0173 30.5361 23.8382 30.757 23.8382H33.2929C33.5138 23.8382 33.6929 24.0173 33.6929 24.2382V26.7741C33.6929 26.9951 33.5138 27.1741 33.2929 27.1741H30.757C30.5361 27.1741 30.357 26.9951 30.357 26.7741V24.2382ZM30.757 32.178C30.5361 32.178 30.357 32.3571 30.357 32.578V35.1139C30.357 35.3348 30.5361 35.5139 30.757 35.5139H33.2929C33.5138 35.5139 33.6929 35.3348 33.6929 35.1139V32.578C33.6929 32.3571 33.5138 32.178 33.2929 32.178H30.757ZM38.6967 24.2382C38.6967 24.0173 38.8758 23.8382 39.0967 23.8382H41.6326C41.8535 23.8382 42.0326 24.0173 42.0326 24.2382V26.7741C42.0326 26.9951 41.8535 27.1741 41.6326 27.1741H39.0967C38.8758 27.1741 38.6967 26.9951 38.6967 26.7741V24.2382Z" fill="white"/>
<path d="M35.96 40.5472V41.0448H37.4527C37.4527 40.9453 37.4527 40.8955 37.4527 40.796C37.4527 40.6965 37.4527 40.6467 37.4527 40.5472H35.96Z" fill="white"/>
<path d="M39.5424 36.0691L38.4478 34.9744L38.0995 35.3227L39.1942 36.4174C39.2937 36.2681 39.3932 36.1686 39.5424 36.0691Z" fill="white"/>
<path d="M44.1699 34.3276V32.8349H43.6723V34.3276C43.7718 34.3276 43.8216 34.3276 43.9211 34.3276C44.0206 34.3276 44.0703 34.3276 44.1699 34.3276Z" fill="white"/>
<path d="M48.2499 36.0193C48.3494 36.1188 48.4987 36.2681 48.5982 36.3676L49.6431 35.3227L49.2949 34.9744L48.2499 36.0193Z" fill="white"/>
<path d="M48.2997 45.5229L49.2949 46.5181L49.6431 46.1698L48.648 45.1746C48.5485 45.3239 48.449 45.4234 48.2997 45.5229Z" fill="white"/>
<path d="M50.3895 40.5472C50.3895 40.6467 50.3895 40.6965 50.3895 40.796C50.3895 40.8955 50.3895 40.9453 50.3895 41.0448H51.8822V40.5472H50.3895Z" fill="white"/>
<path d="M43.6723 47.2644V48.7571H44.1699V47.2644C44.0703 47.2644 44.0206 47.2644 43.9211 47.2644C43.8216 47.2644 43.7718 47.2644 43.6723 47.2644Z" fill="white"/>
<path d="M38.0995 46.1698L38.4478 46.5181L39.4927 45.4732C39.3932 45.3737 39.2439 45.2244 39.1444 45.1249L38.0995 46.1698Z" fill="white"/>
<path d="M43.9211 35.3227C40.8859 35.3227 38.4478 37.7608 38.4478 40.796C38.4478 43.8312 40.8859 46.2693 43.9211 46.2693C46.9563 46.2693 49.3943 43.8312 49.3943 40.796C49.3943 37.7608 46.9563 35.3227 43.9211 35.3227ZM43.9211 45.2741C41.4332 45.2741 39.4429 43.2839 39.4429 40.796C39.4429 38.3082 41.4332 36.3179 43.9211 36.3179C46.4089 36.3179 48.3992 38.3082 48.3992 40.796C48.3992 43.2839 46.4089 45.2741 43.9211 45.2741Z" fill="white"/>
<circle cx="43.9209" cy="40.796" r="3" fill="white"/>
</svg>
