<svg width="55" height="56" viewBox="0 0 55 56" fill="none" xmlns="http://www.w3.org/2000/svg">
<g clip-path="url(#clip0_214_3031)">
<path d="M44.8552 27.1159V11.4489C44.8552 8.56456 42.5716 6.22632 39.7651 6.22632H15.9454C13.1342 6.22632 10.8552 8.56614 10.8552 11.4326V44.54C10.8552 47.4154 13.1331 49.7463 15.9469 49.7463H24.4552" stroke="white" stroke-width="1.5"/>
<path d="M28.1481 44.3135C27.9606 44.501 27.8552 44.7554 27.8552 45.0206V47.4827C27.8552 48.0349 28.3029 48.4827 28.8552 48.4827H31.3173C31.5825 48.4827 31.8368 48.3773 32.0244 48.1898L42.6689 37.5452C42.9423 37.2719 42.9423 36.8287 42.6689 36.5553L39.7826 33.669C39.5092 33.3956 39.066 33.3956 38.7926 33.669L28.1481 44.3135ZM46.1615 34.0526C46.5646 33.6495 46.5646 32.9983 46.1615 32.5952L43.7427 30.1764C43.3396 29.7732 42.6884 29.7732 42.2853 30.1764L40.3936 32.068L44.2699 35.9442L46.1615 34.0526Z" fill="white"/>
<path fill-rule="evenodd" clip-rule="evenodd" d="M27.8551 24.9791C25.1282 24.9791 19.6846 26.1627 19.6846 28.5123V30.2789C19.6846 31.2546 20.5991 32.0455 21.7272 32.0455H33.9829C35.111 32.0455 36.0255 31.2546 36.0255 30.2789V28.5123C36.0255 26.1627 30.582 24.9791 27.8551 24.9791Z" fill="white"/>
<path fill-rule="evenodd" clip-rule="evenodd" d="M27.8551 23.2125C25.7399 23.2125 24.0251 21.7184 24.0251 19.8752V19.0418C24.0251 17.1986 25.7399 15.7045 27.8551 15.7045C29.9703 15.7045 31.685 17.1986 31.685 19.0418V19.8752C31.685 21.7184 29.9703 23.2125 27.8551 23.2125Z" fill="white"/>
</g>
<defs>
<clipPath id="clip0_214_3031">
<rect width="54" height="55" fill="white" transform="translate(0.855225 0.226318)"/>
</clipPath>
</defs>
</svg>
