<svg width="55" height="56" viewBox="0 0 55 56" fill="none" xmlns="http://www.w3.org/2000/svg">
<path fill-rule="evenodd" clip-rule="evenodd" d="M36.5776 5.99915C36.9918 5.99915 37.3276 6.33493 37.3276 6.74915V9.63911H44.0823C46.2915 9.63911 48.0823 11.43 48.0823 13.6391V29.8151H46.5823V17.8016H6.70532V45.4535C6.70532 46.8342 7.82461 47.9535 9.20533 47.9535H33.3147V49.4535H9.20533C6.99619 49.4535 5.20532 47.6626 5.20532 45.4535V13.6391C5.20532 11.43 6.99618 9.63911 9.20532 9.63911H15.4116V6.74921C15.4116 6.335 15.7474 5.99921 16.1616 5.99921C16.5758 5.99921 16.9116 6.335 16.9116 6.74921V9.63911H35.8276V6.74915C35.8276 6.33493 36.1634 5.99915 36.5776 5.99915ZM35.8276 11.1391H16.9116V12.5289C16.9116 12.9431 16.5758 13.2789 16.1616 13.2789C15.7474 13.2789 15.4116 12.9431 15.4116 12.5289V11.1391H9.20532C7.82461 11.1391 6.70532 12.2584 6.70532 13.6391V16.3016H46.5823V13.6391C46.5823 12.2584 45.463 11.1391 44.0823 11.1391H37.3276V12.5288C37.3276 12.943 36.9918 13.2788 36.5776 13.2788C36.1634 13.2788 35.8276 12.943 35.8276 12.5288V11.1391ZM12.3006 24.1085C12.3006 23.8876 12.4797 23.7085 12.7006 23.7085H15.2365C15.4574 23.7085 15.6365 23.8876 15.6365 24.1085V26.6444C15.6365 26.8653 15.4574 27.0444 15.2365 27.0444H12.7006C12.4797 27.0444 12.3006 26.8653 12.3006 26.6444V24.1085ZM12.7006 32.0482C12.4797 32.0482 12.3006 32.2273 12.3006 32.4482V34.9841C12.3006 35.205 12.4797 35.3841 12.7006 35.3841H15.2365C15.4574 35.3841 15.6365 35.205 15.6365 34.9841V32.4482C15.6365 32.2273 15.4574 32.0482 15.2365 32.0482H12.7006ZM20.6403 32.4482C20.6403 32.2273 20.8194 32.0482 21.0403 32.0482H23.5762C23.7971 32.0482 23.9762 32.2273 23.9762 32.4482V34.9841C23.9762 35.205 23.7971 35.3841 23.5762 35.3841H21.0403C20.8194 35.3841 20.6403 35.205 20.6403 34.9841V32.4482ZM21.0403 23.7085C20.8194 23.7085 20.6403 23.8876 20.6403 24.1085V26.6444C20.6403 26.8653 20.8194 27.0444 21.0403 27.0444H23.5762C23.7971 27.0444 23.9762 26.8653 23.9762 26.6444V24.1085C23.9762 23.8876 23.7971 23.7085 23.5762 23.7085H21.0403ZM28.9801 24.1085C28.9801 23.8876 29.1591 23.7085 29.3801 23.7085H31.9159C32.1369 23.7085 32.3159 23.8876 32.3159 24.1085V26.6444C32.3159 26.8653 32.1369 27.0444 31.9159 27.0444H29.3801C29.1591 27.0444 28.9801 26.8653 28.9801 26.6444V24.1085ZM29.3801 32.0482C29.1591 32.0482 28.9801 32.2273 28.9801 32.4482V34.9841C28.9801 35.205 29.1591 35.3841 29.3801 35.3841H31.9159C32.1369 35.3841 32.3159 35.205 32.3159 34.9841V32.4482C32.3159 32.2273 32.1369 32.0482 31.9159 32.0482H29.3801ZM37.3198 24.1085C37.3198 23.8876 37.4989 23.7085 37.7198 23.7085H40.2557C40.4766 23.7085 40.6557 23.8876 40.6557 24.1085V26.6444C40.6557 26.8653 40.4766 27.0444 40.2557 27.0444H37.7198C37.4989 27.0444 37.3198 26.8653 37.3198 26.6444V24.1085Z" fill="white"/>
<path d="M51.0098 40.7535C51.0098 44.8956 47.6519 48.2535 43.5098 48.2535C39.3676 48.2535 36.0098 44.8956 36.0098 40.7535C36.0098 36.6114 39.3676 33.2535 43.5098 33.2535C47.6519 33.2535 51.0098 36.6114 51.0098 40.7535ZM37.2728 40.7535C37.2728 44.1981 40.0652 46.9905 43.5098 46.9905C46.9544 46.9905 49.7468 44.1981 49.7468 40.7535C49.7468 37.3089 46.9544 34.5165 43.5098 34.5165C40.0652 34.5165 37.2728 37.3089 37.2728 40.7535Z" fill="white"/>
<path d="M40.2036 43.2366C40.0152 43.425 40.0152 43.7305 40.2036 43.9189C40.392 44.1073 40.6974 44.1073 40.8858 43.9189L43.4394 41.3654L45.9929 43.9189C46.1813 44.1073 46.4868 44.1073 46.6752 43.9189C46.8636 43.7305 46.8636 43.425 46.6752 43.2366L44.1216 40.6831L46.6752 38.1296C46.8636 37.9412 46.8636 37.6357 46.6752 37.4473C46.4868 37.2589 46.1813 37.2589 45.9929 37.4473L43.4394 40.0008L40.8858 37.4473C40.6974 37.2589 40.392 37.2589 40.2036 37.4473C40.0152 37.6357 40.0152 37.9412 40.2036 38.1296L42.7571 40.6831L40.2036 43.2366Z" fill="white"/>
</svg>
