<svg width="55" height="56" viewBox="0 0 55 56" fill="none" xmlns="http://www.w3.org/2000/svg">
<g clip-path="url(#clip0_214_3098)">
<path fill-rule="evenodd" clip-rule="evenodd" d="M36.5776 6.49915C36.9918 6.49915 37.3276 6.83493 37.3276 7.24915V10.1391H44.0823C46.2915 10.1391 48.0823 11.93 48.0823 14.1391V30.3151H46.5823V18.3016H6.70532V45.9535C6.70532 47.3342 7.82461 48.4535 9.20533 48.4535H33.3147V49.9535H9.20533C6.99619 49.9535 5.20532 48.1626 5.20532 45.9535V14.1391C5.20532 11.93 6.99618 10.1391 9.20532 10.1391H15.4116V7.24921C15.4116 6.835 15.7474 6.49921 16.1616 6.49921C16.5758 6.49921 16.9116 6.835 16.9116 7.24921V10.1391H35.8276V7.24915C35.8276 6.83493 36.1634 6.49915 36.5776 6.49915ZM35.8276 11.6391H16.9116V13.0289C16.9116 13.4431 16.5758 13.7789 16.1616 13.7789C15.7474 13.7789 15.4116 13.4431 15.4116 13.0289V11.6391H9.20532C7.82461 11.6391 6.70532 12.7584 6.70532 14.1391V16.8016H46.5823V14.1391C46.5823 12.7584 45.463 11.6391 44.0823 11.6391H37.3276V13.0288C37.3276 13.443 36.9918 13.7788 36.5776 13.7788C36.1634 13.7788 35.8276 13.443 35.8276 13.0288V11.6391ZM12.3006 24.6085C12.3006 24.3876 12.4797 24.2085 12.7006 24.2085H15.2365C15.4574 24.2085 15.6365 24.3876 15.6365 24.6085V27.1444C15.6365 27.3653 15.4574 27.5444 15.2365 27.5444H12.7006C12.4797 27.5444 12.3006 27.3653 12.3006 27.1444V24.6085ZM12.7006 32.5482C12.4797 32.5482 12.3006 32.7273 12.3006 32.9482V35.4841C12.3006 35.705 12.4797 35.8841 12.7006 35.8841H15.2365C15.4574 35.8841 15.6365 35.705 15.6365 35.4841V32.9482C15.6365 32.7273 15.4574 32.5482 15.2365 32.5482H12.7006ZM20.6403 32.9482C20.6403 32.7273 20.8194 32.5482 21.0403 32.5482H23.5762C23.7971 32.5482 23.9762 32.7273 23.9762 32.9482V35.4841C23.9762 35.705 23.7971 35.8841 23.5762 35.8841H21.0403C20.8194 35.8841 20.6403 35.705 20.6403 35.4841V32.9482ZM21.0403 24.2085C20.8194 24.2085 20.6403 24.3876 20.6403 24.6085V27.1444C20.6403 27.3653 20.8194 27.5444 21.0403 27.5444H23.5762C23.7971 27.5444 23.9762 27.3653 23.9762 27.1444V24.6085C23.9762 24.3876 23.7971 24.2085 23.5762 24.2085H21.0403ZM28.9801 24.6085C28.9801 24.3876 29.1591 24.2085 29.3801 24.2085H31.9159C32.1369 24.2085 32.3159 24.3876 32.3159 24.6085V27.1444C32.3159 27.3653 32.1369 27.5444 31.9159 27.5444H29.3801C29.1591 27.5444 28.9801 27.3653 28.9801 27.1444V24.6085ZM29.3801 32.5482C29.1591 32.5482 28.9801 32.7273 28.9801 32.9482V35.4841C28.9801 35.705 29.1591 35.8841 29.3801 35.8841H31.9159C32.1369 35.8841 32.3159 35.705 32.3159 35.4841V32.9482C32.3159 32.7273 32.1369 32.5482 31.9159 32.5482H29.3801ZM37.3198 24.6085C37.3198 24.3876 37.4989 24.2085 37.7198 24.2085H40.2557C40.4766 24.2085 40.6557 24.3876 40.6557 24.6085V27.1444C40.6557 27.3653 40.4766 27.5444 40.2557 27.5444H37.7198C37.4989 27.5444 37.3198 27.3653 37.3198 27.1444V24.6085Z" fill="white"/>
<path fill-rule="evenodd" clip-rule="evenodd" d="M35.6374 38.6519L43.5818 34.6797C43.7539 34.5937 43.9564 34.5937 44.1284 34.6797L52.0729 38.6519C52.5233 38.8772 52.5233 39.5199 52.0729 39.7451L49.3551 41.104V44.393C49.3551 46.1431 46.7982 47.4485 43.8551 47.4485C40.912 47.4485 38.3551 46.1431 38.3551 44.393V41.104L35.6374 39.7451C35.187 39.5199 35.187 38.8772 35.6374 38.6519ZM39.5773 41.7151V44.393C39.5773 45.2451 41.4993 46.2263 43.8551 46.2263C46.211 46.2263 48.1329 45.2451 48.1329 44.393V41.7151L44.1284 43.7174C43.9564 43.8034 43.7539 43.8034 43.5818 43.7174L39.5773 41.7151ZM50.5773 41.9485V45.0041C50.5773 45.3416 50.8509 45.6152 51.1884 45.6152C51.526 45.6152 51.7996 45.3416 51.7996 45.0041V41.9485C51.7996 41.611 51.526 41.3374 51.1884 41.3374C50.8509 41.3374 50.5773 41.611 50.5773 41.9485ZM43.8551 35.9096L50.4331 39.1985L43.8551 42.4875L37.2772 39.1985L43.8551 35.9096Z" fill="white"/>
</g>
<defs>
<clipPath id="clip0_214_3098">
<rect width="54" height="55" fill="white" transform="translate(0.855225 0.726318)"/>
</clipPath>
</defs>
</svg>
