<svg width="55" height="56" viewBox="0 0 55 56" fill="none" xmlns="http://www.w3.org/2000/svg">
<g clip-path="url(#clip0_214_3123)">
<path fill-rule="evenodd" clip-rule="evenodd" d="M36.5776 5.99915C36.9918 5.99915 37.3276 6.33493 37.3276 6.74915V9.63911H44.0823C46.2915 9.63911 48.0823 11.43 48.0823 13.6391V29.8151H46.5823V17.8016H6.70532V45.4535C6.70532 46.8342 7.82461 47.9535 9.20533 47.9535H33.3147V49.4535H9.20533C6.99619 49.4535 5.20532 47.6626 5.20532 45.4535V13.6391C5.20532 11.43 6.99618 9.63911 9.20532 9.63911H15.4116V6.74921C15.4116 6.335 15.7474 5.99921 16.1616 5.99921C16.5758 5.99921 16.9116 6.335 16.9116 6.74921V9.63911H35.8276V6.74915C35.8276 6.33493 36.1634 5.99915 36.5776 5.99915ZM35.8276 11.1391H16.9116V12.5289C16.9116 12.9431 16.5758 13.2789 16.1616 13.2789C15.7474 13.2789 15.4116 12.9431 15.4116 12.5289V11.1391H9.20532C7.82461 11.1391 6.70532 12.2584 6.70532 13.6391V16.3016H46.5823V13.6391C46.5823 12.2584 45.463 11.1391 44.0823 11.1391H37.3276V12.5288C37.3276 12.943 36.9918 13.2788 36.5776 13.2788C36.1634 13.2788 35.8276 12.943 35.8276 12.5288V11.1391ZM12.3006 24.1085C12.3006 23.8876 12.4797 23.7085 12.7006 23.7085H15.2365C15.4574 23.7085 15.6365 23.8876 15.6365 24.1085V26.6444C15.6365 26.8653 15.4574 27.0444 15.2365 27.0444H12.7006C12.4797 27.0444 12.3006 26.8653 12.3006 26.6444V24.1085ZM12.7006 32.0482C12.4797 32.0482 12.3006 32.2273 12.3006 32.4482V34.9841C12.3006 35.205 12.4797 35.3841 12.7006 35.3841H15.2365C15.4574 35.3841 15.6365 35.205 15.6365 34.9841V32.4482C15.6365 32.2273 15.4574 32.0482 15.2365 32.0482H12.7006ZM20.6403 32.4482C20.6403 32.2273 20.8194 32.0482 21.0403 32.0482H23.5762C23.7971 32.0482 23.9762 32.2273 23.9762 32.4482V34.9841C23.9762 35.205 23.7971 35.3841 23.5762 35.3841H21.0403C20.8194 35.3841 20.6403 35.205 20.6403 34.9841V32.4482ZM21.0403 23.7085C20.8194 23.7085 20.6403 23.8876 20.6403 24.1085V26.6444C20.6403 26.8653 20.8194 27.0444 21.0403 27.0444H23.5762C23.7971 27.0444 23.9762 26.8653 23.9762 26.6444V24.1085C23.9762 23.8876 23.7971 23.7085 23.5762 23.7085H21.0403ZM28.9801 24.1085C28.9801 23.8876 29.1591 23.7085 29.3801 23.7085H31.9159C32.1369 23.7085 32.3159 23.8876 32.3159 24.1085V26.6444C32.3159 26.8653 32.1369 27.0444 31.9159 27.0444H29.3801C29.1591 27.0444 28.9801 26.8653 28.9801 26.6444V24.1085ZM29.3801 32.0482C29.1591 32.0482 28.9801 32.2273 28.9801 32.4482V34.9841C28.9801 35.205 29.1591 35.3841 29.3801 35.3841H31.9159C32.1369 35.3841 32.3159 35.205 32.3159 34.9841V32.4482C32.3159 32.2273 32.1369 32.0482 31.9159 32.0482H29.3801ZM37.3198 24.1085C37.3198 23.8876 37.4989 23.7085 37.7198 23.7085H40.2557C40.4766 23.7085 40.6557 23.8876 40.6557 24.1085V26.6444C40.6557 26.8653 40.4766 27.0444 40.2557 27.0444H37.7198C37.4989 27.0444 37.3198 26.8653 37.3198 26.6444V24.1085Z" fill="white"/>
<g filter="url(#filter0_d_214_3123)">
<path d="M42.8611 41.3633C44.7133 43.3339 46.6748 44.4395 47.2436 43.8305" stroke="white" stroke-width="0.6" stroke-miterlimit="10"/>
</g>
<g filter="url(#filter1_d_214_3123)">
<path d="M42.8607 41.3631C41.0085 39.3925 39.9694 37.3054 40.5418 36.7003" stroke="white" stroke-width="0.6" stroke-miterlimit="10"/>
</g>
<g filter="url(#filter2_d_214_3123)">
<path d="M36.0431 47.6051C35.9191 47.9232 35.9629 48.2878 36.1598 48.4934C36.353 48.699 36.6957 48.7456 36.9947 48.6176C36.9947 48.6176 46.376 44.7577 46.9885 44.106C47.189 43.8926 47.2364 43.8422 47.2474 43.8306C47.8162 43.2254 46.777 41.1384 44.9285 39.1677C43.0763 37.1971 41.1147 36.0915 40.546 36.7005C40.535 36.7122 40.4876 36.7626 40.2871 36.976C39.6709 37.6238 36.0431 47.6051 36.0431 47.6051Z" stroke="white" stroke-width="0.6" stroke-miterlimit="10"/>
</g>
<g filter="url(#filter3_d_214_3123)">
<path d="M43.4553 41.8909V45.7701" stroke="white" stroke-width="0.6" stroke-miterlimit="10"/>
</g>
<g filter="url(#filter4_d_214_3123)">
<path d="M41.6323 39.9513V46.546" stroke="white" stroke-width="0.6" stroke-miterlimit="10"/>
</g>
<g filter="url(#filter5_d_214_3123)">
<path d="M39.8096 37.8643V47.3219" stroke="white" stroke-width="0.6" stroke-miterlimit="10"/>
</g>
<g filter="url(#filter6_d_214_3123)">
<path d="M37.9858 42.3875V48.0977" stroke="white" stroke-width="0.6" stroke-miterlimit="10"/>
</g>
<g filter="url(#filter7_d_214_3123)">
<path d="M44.9131 33.3566C45.5172 33.3566 46.007 32.8356 46.007 32.1928C46.007 31.5501 45.5172 31.0291 44.9131 31.0291C44.3091 31.0291 43.8193 31.5501 43.8193 32.1928C43.8193 32.8356 44.3091 33.3566 44.9131 33.3566Z" stroke="white" stroke-width="0.6" stroke-miterlimit="10" stroke-linejoin="round"/>
</g>
<g filter="url(#filter8_d_214_3123)">
<path d="M44.9141 41.891C46.3287 40.0251 48.5601 38.3841 50.3831 39.5634C51.9217 40.5565 51.3238 42.1005 50.3539 42.2634C49.3805 42.4263 48.8336 41.5186 48.9247 41.1151" stroke="white" stroke-width="0.6" stroke-miterlimit="10" stroke-linejoin="round"/>
</g>
<g filter="url(#filter9_d_214_3123)">
<path d="M51.6626 34.2683L51.2907 35.6222L52.1366 36.7394L50.7147 36.8441L50 37.9458L49.4568 36.6928L48.239 36.1769L49.2781 35.3545L49.3219 33.8416L50.4011 34.7028L51.6626 34.2683Z" stroke="white" stroke-width="0.6" stroke-miterlimit="10" stroke-linejoin="round"/>
</g>
<g filter="url(#filter10_d_214_3123)">
<path d="M42.1607 38.4733C43.1196 36.522 43.7285 33.4885 41.9966 32.9686C40.9174 32.6467 40.1736 33.2596 40.1736 34.1324C40.1736 35.0052 41.1762 35.3932 41.632 34.9083" stroke="white" stroke-width="0.6" stroke-miterlimit="10" stroke-linejoin="round"/>
</g>
<g filter="url(#filter11_d_214_3123)">
<path d="M46.9998 31.1065C47.9952 33.0035 47.3571 35.4009 45.5742 36.4599" stroke="white" stroke-width="0.6" stroke-miterlimit="10" stroke-linejoin="round"/>
</g>
</g>
<defs>
<filter id="filter0_d_214_3123" x="38.6426" y="37.1578" width="12.8203" height="11.1398" filterUnits="userSpaceOnUse" color-interpolation-filters="sRGB">
<feFlood flood-opacity="0" result="BackgroundImageFix"/>
<feColorMatrix in="SourceAlpha" type="matrix" values="0 0 0 0 0 0 0 0 0 0 0 0 0 0 0 0 0 0 127 0" result="hardAlpha"/>
<feOffset/>
<feGaussianBlur stdDeviation="2"/>
<feColorMatrix type="matrix" values="0 0 0 0 1 0 0 0 0 1 0 0 0 0 1 0 0 0 0.12 0"/>
<feBlend mode="normal" in2="BackgroundImageFix" result="effect1_dropShadow_214_3123"/>
<feBlend mode="normal" in="SourceGraphic" in2="effect1_dropShadow_214_3123" result="shape"/>
</filter>
<filter id="filter1_d_214_3123" x="36.0847" y="32.4941" width="10.9946" height="13.0745" filterUnits="userSpaceOnUse" color-interpolation-filters="sRGB">
<feFlood flood-opacity="0" result="BackgroundImageFix"/>
<feColorMatrix in="SourceAlpha" type="matrix" values="0 0 0 0 0 0 0 0 0 0 0 0 0 0 0 0 0 0 127 0" result="hardAlpha"/>
<feOffset/>
<feGaussianBlur stdDeviation="2"/>
<feColorMatrix type="matrix" values="0 0 0 0 1 0 0 0 0 1 0 0 0 0 1 0 0 0 0.12 0"/>
<feBlend mode="normal" in2="BackgroundImageFix" result="effect1_dropShadow_214_3123"/>
<feBlend mode="normal" in="SourceGraphic" in2="effect1_dropShadow_214_3123" result="shape"/>
</filter>
<filter id="filter2_d_214_3123" x="31.6738" y="32.2334" width="20.0291" height="20.755" filterUnits="userSpaceOnUse" color-interpolation-filters="sRGB">
<feFlood flood-opacity="0" result="BackgroundImageFix"/>
<feColorMatrix in="SourceAlpha" type="matrix" values="0 0 0 0 0 0 0 0 0 0 0 0 0 0 0 0 0 0 127 0" result="hardAlpha"/>
<feOffset/>
<feGaussianBlur stdDeviation="2"/>
<feColorMatrix type="matrix" values="0 0 0 0 1 0 0 0 0 1 0 0 0 0 1 0 0 0 0.12 0"/>
<feBlend mode="normal" in2="BackgroundImageFix" result="effect1_dropShadow_214_3123"/>
<feBlend mode="normal" in="SourceGraphic" in2="effect1_dropShadow_214_3123" result="shape"/>
</filter>
<filter id="filter3_d_214_3123" x="39.1553" y="37.8909" width="8.6001" height="11.8792" filterUnits="userSpaceOnUse" color-interpolation-filters="sRGB">
<feFlood flood-opacity="0" result="BackgroundImageFix"/>
<feColorMatrix in="SourceAlpha" type="matrix" values="0 0 0 0 0 0 0 0 0 0 0 0 0 0 0 0 0 0 127 0" result="hardAlpha"/>
<feOffset/>
<feGaussianBlur stdDeviation="2"/>
<feColorMatrix type="matrix" values="0 0 0 0 1 0 0 0 0 1 0 0 0 0 1 0 0 0 0.12 0"/>
<feBlend mode="normal" in2="BackgroundImageFix" result="effect1_dropShadow_214_3123"/>
<feBlend mode="normal" in="SourceGraphic" in2="effect1_dropShadow_214_3123" result="shape"/>
</filter>
<filter id="filter4_d_214_3123" x="37.3323" y="35.9513" width="8.6001" height="14.5947" filterUnits="userSpaceOnUse" color-interpolation-filters="sRGB">
<feFlood flood-opacity="0" result="BackgroundImageFix"/>
<feColorMatrix in="SourceAlpha" type="matrix" values="0 0 0 0 0 0 0 0 0 0 0 0 0 0 0 0 0 0 127 0" result="hardAlpha"/>
<feOffset/>
<feGaussianBlur stdDeviation="2"/>
<feColorMatrix type="matrix" values="0 0 0 0 1 0 0 0 0 1 0 0 0 0 1 0 0 0 0.12 0"/>
<feBlend mode="normal" in2="BackgroundImageFix" result="effect1_dropShadow_214_3123"/>
<feBlend mode="normal" in="SourceGraphic" in2="effect1_dropShadow_214_3123" result="shape"/>
</filter>
<filter id="filter5_d_214_3123" x="35.5095" y="33.8643" width="8.6001" height="17.4576" filterUnits="userSpaceOnUse" color-interpolation-filters="sRGB">
<feFlood flood-opacity="0" result="BackgroundImageFix"/>
<feColorMatrix in="SourceAlpha" type="matrix" values="0 0 0 0 0 0 0 0 0 0 0 0 0 0 0 0 0 0 127 0" result="hardAlpha"/>
<feOffset/>
<feGaussianBlur stdDeviation="2"/>
<feColorMatrix type="matrix" values="0 0 0 0 1 0 0 0 0 1 0 0 0 0 1 0 0 0 0.12 0"/>
<feBlend mode="normal" in2="BackgroundImageFix" result="effect1_dropShadow_214_3123"/>
<feBlend mode="normal" in="SourceGraphic" in2="effect1_dropShadow_214_3123" result="shape"/>
</filter>
<filter id="filter6_d_214_3123" x="33.6858" y="38.3875" width="8.6001" height="13.7102" filterUnits="userSpaceOnUse" color-interpolation-filters="sRGB">
<feFlood flood-opacity="0" result="BackgroundImageFix"/>
<feColorMatrix in="SourceAlpha" type="matrix" values="0 0 0 0 0 0 0 0 0 0 0 0 0 0 0 0 0 0 127 0" result="hardAlpha"/>
<feOffset/>
<feGaussianBlur stdDeviation="2"/>
<feColorMatrix type="matrix" values="0 0 0 0 1 0 0 0 0 1 0 0 0 0 1 0 0 0 0.12 0"/>
<feBlend mode="normal" in2="BackgroundImageFix" result="effect1_dropShadow_214_3123"/>
<feBlend mode="normal" in="SourceGraphic" in2="effect1_dropShadow_214_3123" result="shape"/>
</filter>
<filter id="filter7_d_214_3123" x="39.5193" y="26.7291" width="10.7876" height="10.9275" filterUnits="userSpaceOnUse" color-interpolation-filters="sRGB">
<feFlood flood-opacity="0" result="BackgroundImageFix"/>
<feColorMatrix in="SourceAlpha" type="matrix" values="0 0 0 0 0 0 0 0 0 0 0 0 0 0 0 0 0 0 127 0" result="hardAlpha"/>
<feOffset/>
<feGaussianBlur stdDeviation="2"/>
<feColorMatrix type="matrix" values="0 0 0 0 1 0 0 0 0 1 0 0 0 0 1 0 0 0 0.12 0"/>
<feBlend mode="normal" in2="BackgroundImageFix" result="effect1_dropShadow_214_3123"/>
<feBlend mode="normal" in="SourceGraphic" in2="effect1_dropShadow_214_3123" result="shape"/>
</filter>
<filter id="filter8_d_214_3123" x="40.675" y="34.8655" width="14.9485" height="11.7173" filterUnits="userSpaceOnUse" color-interpolation-filters="sRGB">
<feFlood flood-opacity="0" result="BackgroundImageFix"/>
<feColorMatrix in="SourceAlpha" type="matrix" values="0 0 0 0 0 0 0 0 0 0 0 0 0 0 0 0 0 0 127 0" result="hardAlpha"/>
<feOffset/>
<feGaussianBlur stdDeviation="2"/>
<feColorMatrix type="matrix" values="0 0 0 0 1 0 0 0 0 1 0 0 0 0 1 0 0 0 0.12 0"/>
<feBlend mode="normal" in2="BackgroundImageFix" result="effect1_dropShadow_214_3123"/>
<feBlend mode="normal" in="SourceGraphic" in2="effect1_dropShadow_214_3123" result="shape"/>
</filter>
<filter id="filter9_d_214_3123" x="43.939" y="29.5416" width="12.4976" height="12.7042" filterUnits="userSpaceOnUse" color-interpolation-filters="sRGB">
<feFlood flood-opacity="0" result="BackgroundImageFix"/>
<feColorMatrix in="SourceAlpha" type="matrix" values="0 0 0 0 0 0 0 0 0 0 0 0 0 0 0 0 0 0 127 0" result="hardAlpha"/>
<feOffset/>
<feGaussianBlur stdDeviation="2"/>
<feColorMatrix type="matrix" values="0 0 0 0 1 0 0 0 0 1 0 0 0 0 1 0 0 0 0.12 0"/>
<feBlend mode="normal" in2="BackgroundImageFix" result="effect1_dropShadow_214_3123"/>
<feBlend mode="normal" in="SourceGraphic" in2="effect1_dropShadow_214_3123" result="shape"/>
</filter>
<filter id="filter10_d_214_3123" x="35.8735" y="28.5818" width="11.521" height="14.0238" filterUnits="userSpaceOnUse" color-interpolation-filters="sRGB">
<feFlood flood-opacity="0" result="BackgroundImageFix"/>
<feColorMatrix in="SourceAlpha" type="matrix" values="0 0 0 0 0 0 0 0 0 0 0 0 0 0 0 0 0 0 127 0" result="hardAlpha"/>
<feOffset/>
<feGaussianBlur stdDeviation="2"/>
<feColorMatrix type="matrix" values="0 0 0 0 1 0 0 0 0 1 0 0 0 0 1 0 0 0 0.12 0"/>
<feBlend mode="normal" in2="BackgroundImageFix" result="effect1_dropShadow_214_3123"/>
<feBlend mode="normal" in="SourceGraphic" in2="effect1_dropShadow_214_3123" result="shape"/>
</filter>
<filter id="filter11_d_214_3123" x="41.4209" y="26.9671" width="10.3484" height="13.7507" filterUnits="userSpaceOnUse" color-interpolation-filters="sRGB">
<feFlood flood-opacity="0" result="BackgroundImageFix"/>
<feColorMatrix in="SourceAlpha" type="matrix" values="0 0 0 0 0 0 0 0 0 0 0 0 0 0 0 0 0 0 127 0" result="hardAlpha"/>
<feOffset/>
<feGaussianBlur stdDeviation="2"/>
<feColorMatrix type="matrix" values="0 0 0 0 1 0 0 0 0 1 0 0 0 0 1 0 0 0 0.12 0"/>
<feBlend mode="normal" in2="BackgroundImageFix" result="effect1_dropShadow_214_3123"/>
<feBlend mode="normal" in="SourceGraphic" in2="effect1_dropShadow_214_3123" result="shape"/>
</filter>
<clipPath id="clip0_214_3123">
<rect width="54" height="55" fill="white" transform="translate(0.855225 0.226318)"/>
</clipPath>
</defs>
</svg>
