<svg width="55" height="56" viewBox="0 0 55 56" fill="none" xmlns="http://www.w3.org/2000/svg">
<path fill-rule="evenodd" clip-rule="evenodd" d="M36.5776 5.99915C36.9918 5.99915 37.3276 6.33493 37.3276 6.74915V9.63911H44.0823C46.2915 9.63911 48.0823 11.43 48.0823 13.6391V29.8151H46.5823V17.8016H6.70532V45.4535C6.70532 46.8342 7.82461 47.9535 9.20533 47.9535H33.3147V49.4535H9.20533C6.99619 49.4535 5.20532 47.6626 5.20532 45.4535V13.6391C5.20532 11.43 6.99618 9.63911 9.20532 9.63911H15.4116V6.74921C15.4116 6.335 15.7474 5.99921 16.1616 5.99921C16.5758 5.99921 16.9116 6.335 16.9116 6.74921V9.63911H35.8276V6.74915C35.8276 6.33493 36.1634 5.99915 36.5776 5.99915ZM35.8276 11.1391H16.9116V12.5289C16.9116 12.9431 16.5758 13.2789 16.1616 13.2789C15.7474 13.2789 15.4116 12.9431 15.4116 12.5289V11.1391H9.20532C7.82461 11.1391 6.70532 12.2584 6.70532 13.6391V16.3016H46.5823V13.6391C46.5823 12.2584 45.463 11.1391 44.0823 11.1391H37.3276V12.5288C37.3276 12.943 36.9918 13.2788 36.5776 13.2788C36.1634 13.2788 35.8276 12.943 35.8276 12.5288V11.1391ZM12.3006 24.1085C12.3006 23.8876 12.4797 23.7085 12.7006 23.7085H15.2365C15.4574 23.7085 15.6365 23.8876 15.6365 24.1085V26.6444C15.6365 26.8653 15.4574 27.0444 15.2365 27.0444H12.7006C12.4797 27.0444 12.3006 26.8653 12.3006 26.6444V24.1085ZM12.7006 32.0482C12.4797 32.0482 12.3006 32.2273 12.3006 32.4482V34.9841C12.3006 35.205 12.4797 35.3841 12.7006 35.3841H15.2365C15.4574 35.3841 15.6365 35.205 15.6365 34.9841V32.4482C15.6365 32.2273 15.4574 32.0482 15.2365 32.0482H12.7006ZM20.6403 32.4482C20.6403 32.2273 20.8194 32.0482 21.0403 32.0482H23.5762C23.7971 32.0482 23.9762 32.2273 23.9762 32.4482V34.9841C23.9762 35.205 23.7971 35.3841 23.5762 35.3841H21.0403C20.8194 35.3841 20.6403 35.205 20.6403 34.9841V32.4482ZM21.0403 23.7085C20.8194 23.7085 20.6403 23.8876 20.6403 24.1085V26.6444C20.6403 26.8653 20.8194 27.0444 21.0403 27.0444H23.5762C23.7971 27.0444 23.9762 26.8653 23.9762 26.6444V24.1085C23.9762 23.8876 23.7971 23.7085 23.5762 23.7085H21.0403ZM28.9801 24.1085C28.9801 23.8876 29.1591 23.7085 29.3801 23.7085H31.9159C32.1369 23.7085 32.3159 23.8876 32.3159 24.1085V26.6444C32.3159 26.8653 32.1369 27.0444 31.9159 27.0444H29.3801C29.1591 27.0444 28.9801 26.8653 28.9801 26.6444V24.1085ZM29.3801 32.0482C29.1591 32.0482 28.9801 32.2273 28.9801 32.4482V34.9841C28.9801 35.205 29.1591 35.3841 29.3801 35.3841H31.9159C32.1369 35.3841 32.3159 35.205 32.3159 34.9841V32.4482C32.3159 32.2273 32.1369 32.0482 31.9159 32.0482H29.3801ZM37.3198 24.1085C37.3198 23.8876 37.4989 23.7085 37.7198 23.7085H40.2557C40.4766 23.7085 40.6557 23.8876 40.6557 24.1085V26.6444C40.6557 26.8653 40.4766 27.0444 40.2557 27.0444H37.7198C37.4989 27.0444 37.3198 26.8653 37.3198 26.6444V24.1085Z" fill="white"/>
<path d="M50.5908 41.5603C50.0739 41.5603 49.643 41.2114 49.4707 40.7753L49.3846 40.6009L48.1784 44.3512H47.3168L45.7661 38.5076L45.2491 40.6881C45.1629 41.2114 44.6461 41.5603 44.1292 41.5603H38.9598V40.6881H44.1292C44.2153 40.6881 44.3876 40.6009 44.3876 40.5137L45.3353 36.676H46.1969L47.8338 42.6941L48.9538 39.1182H49.7292L50.2461 40.5137C50.3323 40.6009 50.4185 40.6881 50.5047 40.6881H52.3139C53.0893 38.9437 52.8308 37.1994 51.797 35.6294C50.0739 33.0129 46.1969 33.1001 44.1292 36.0655C42.1476 33.1001 38.1844 33.0129 36.4613 35.6294C34.7382 38.246 35.2552 40.9497 38.4429 44.1768C40.9414 46.7061 43.0952 48.6249 43.8706 49.3227C44.043 49.4971 44.3015 49.4971 44.4738 49.3227C45.2492 48.6249 47.3168 46.7061 49.9015 44.1768C50.7631 43.3046 51.4523 42.4325 51.9692 41.6475L50.5908 41.5603Z" fill="white"/>
</svg>
