<svg width="55" height="56" viewBox="0 0 55 56" fill="none" xmlns="http://www.w3.org/2000/svg">
<path d="M44.8552 27.1159V11.4489C44.8552 8.56456 42.5716 6.22632 39.7651 6.22632H15.9454C13.1342 6.22632 10.8552 8.56614 10.8552 11.4326V44.54C10.8552 47.4154 13.1331 49.7463 15.9469 49.7463H24.4552" stroke="white" stroke-width="1.5"/>
<path fill-rule="evenodd" clip-rule="evenodd" d="M16.2954 14.3863C16.2954 13.6352 16.9043 13.0263 17.6554 13.0263H28.5354C29.2865 13.0263 29.8954 13.6352 29.8954 14.3863C29.8954 15.1374 29.2865 15.7463 28.5354 15.7463H17.6554C16.9043 15.7463 16.2954 15.1374 16.2954 14.3863Z" fill="white"/>
<path fill-rule="evenodd" clip-rule="evenodd" d="M16.2954 19.8263C16.2954 19.0752 16.9043 18.4663 17.6554 18.4663H28.5354C29.2865 18.4663 29.8954 19.0752 29.8954 19.8263C29.8954 20.5774 29.2865 21.1863 28.5354 21.1863H17.6554C16.9043 21.1863 16.2954 20.5774 16.2954 19.8263Z" fill="white"/>
<path fill-rule="evenodd" clip-rule="evenodd" d="M16.2954 25.2663C16.2954 24.5152 16.9043 23.9063 17.6554 23.9063H24.4554C25.2065 23.9063 25.8154 24.5152 25.8154 25.2663C25.8154 26.0174 25.2065 26.6263 24.4554 26.6263H17.6554C16.9043 26.6263 16.2954 26.0174 16.2954 25.2663Z" fill="white"/>
<path fill-rule="evenodd" clip-rule="evenodd" d="M16.2954 30.7063C16.2954 29.9552 16.9043 29.3463 17.6554 29.3463H19.0154C19.7665 29.3463 20.3754 29.9552 20.3754 30.7063C20.3754 31.4574 19.7665 32.0663 19.0154 32.0663H17.6554C16.9043 32.0663 16.2954 31.4574 16.2954 30.7063Z" fill="white"/>
<path d="M44.4744 39.7839C43.8357 39.7839 43.3033 39.3436 43.0904 38.7932L42.984 38.573L41.4935 43.3065H40.4289L38.5127 35.931L37.8739 38.6831C37.7674 39.3436 37.1287 39.7839 36.49 39.7839H30.1024V38.6831H36.49C36.5964 38.6831 36.8093 38.573 36.8093 38.4629L37.9804 33.6193H39.045L41.0676 41.215L42.4517 36.7016H43.4098L44.0485 38.4629C44.155 38.573 44.2615 38.6831 44.368 38.6831H46.6036C47.5617 36.4814 47.2424 34.2798 45.9649 32.2983C43.8357 28.9958 39.045 29.1059 36.49 32.8487C34.0414 29.1059 29.1443 28.9958 27.0151 32.2983C24.8859 35.6008 25.5247 39.0133 29.4637 43.0864C32.551 46.2787 35.2124 48.7006 36.1705 49.5812C36.3835 49.8014 36.7029 49.8014 36.9158 49.5812C37.874 48.7006 40.4289 46.2787 43.6227 43.0864C44.6873 41.9855 45.539 40.8847 46.1777 39.894L44.4744 39.7839Z" fill="white"/>
</svg>
