<svg width="55" height="56" viewBox="0 0 55 56" fill="none" xmlns="http://www.w3.org/2000/svg">
<path d="M44.8552 27.1159V11.4489C44.8552 8.56456 42.5716 6.22632 39.7651 6.22632H15.9454C13.1342 6.22632 10.8552 8.56614 10.8552 11.4326V44.54C10.8552 47.4154 13.1331 49.7463 15.9469 49.7463H24.4552" stroke="white" stroke-width="1.5"/>
<path fill-rule="evenodd" clip-rule="evenodd" d="M16.2954 14.3863C16.2954 13.6352 16.9043 13.0263 17.6554 13.0263H28.5354C29.2865 13.0263 29.8954 13.6352 29.8954 14.3863C29.8954 15.1374 29.2865 15.7463 28.5354 15.7463H17.6554C16.9043 15.7463 16.2954 15.1374 16.2954 14.3863Z" fill="white"/>
<path fill-rule="evenodd" clip-rule="evenodd" d="M16.2954 19.8263C16.2954 19.0752 16.9043 18.4663 17.6554 18.4663H28.5354C29.2865 18.4663 29.8954 19.0752 29.8954 19.8263C29.8954 20.5774 29.2865 21.1863 28.5354 21.1863H17.6554C16.9043 21.1863 16.2954 20.5774 16.2954 19.8263Z" fill="white"/>
<path fill-rule="evenodd" clip-rule="evenodd" d="M16.2954 25.2663C16.2954 24.5152 16.9043 23.9063 17.6554 23.9063H24.4554C25.2065 23.9063 25.8154 24.5152 25.8154 25.2663C25.8154 26.0174 25.2065 26.6263 24.4554 26.6263H17.6554C16.9043 26.6263 16.2954 26.0174 16.2954 25.2663Z" fill="white"/>
<path fill-rule="evenodd" clip-rule="evenodd" d="M16.2954 30.7063C16.2954 29.9552 16.9043 29.3463 17.6554 29.3463H19.0154C19.7665 29.3463 20.3754 29.9552 20.3754 30.7063C20.3754 31.4574 19.7665 32.0663 19.0154 32.0663H17.6554C16.9043 32.0663 16.2954 31.4574 16.2954 30.7063Z" fill="white"/>
<path d="M46.276 41.0285C45.8437 41.0285 45.4924 41.3519 45.4924 41.7499V48.3047H29.4212V33.509H42.0232C42.4556 33.509 42.8068 33.1856 42.8068 32.7876C42.8068 32.3896 42.4556 32.0663 42.0232 32.0663H28.6388C28.2065 32.0663 27.8552 32.3896 27.8552 32.7876V49.025C27.8552 49.423 28.2053 49.7463 28.6388 49.7463H46.2772C46.7095 49.7463 47.0608 49.423 47.0608 49.025V41.7488C47.0596 41.3508 46.7095 41.0285 46.276 41.0285Z" fill="white"/>
<path d="M45.9101 32.301L37.8261 41.9164L35.0086 38.5656C34.7455 38.2527 34.3174 38.2527 34.0543 38.5656C33.7912 38.8798 33.7912 39.3877 34.0543 39.7006L37.3484 43.6183C37.4749 43.7687 37.6469 43.853 37.8261 43.853C38.0052 43.853 38.1762 43.7687 38.3027 43.6183L46.8634 33.436C47.1265 33.123 47.1265 32.6151 46.8634 32.301C46.6003 31.9881 46.1732 31.9881 45.9101 32.301Z" fill="white"/>
</svg>
