<svg width="55" height="56" viewBox="0 0 55 56" fill="none" xmlns="http://www.w3.org/2000/svg">
<path d="M44.8552 27.4522V11.7853C44.8552 8.90088 42.5716 6.56264 39.7651 6.56264H15.9454C13.1342 6.56264 10.8552 8.90246 10.8552 11.7689V44.8763C10.8552 47.7517 13.1331 50.0826 15.9469 50.0826H24.4552" stroke="white" stroke-width="1.5"/>
<path fill-rule="evenodd" clip-rule="evenodd" d="M16.2954 14.7226C16.2954 13.9715 16.9043 13.3626 17.6554 13.3626H28.5354C29.2865 13.3626 29.8954 13.9715 29.8954 14.7226C29.8954 15.4737 29.2865 16.0826 28.5354 16.0826H17.6554C16.9043 16.0826 16.2954 15.4737 16.2954 14.7226Z" fill="white"/>
<path fill-rule="evenodd" clip-rule="evenodd" d="M16.2954 20.1626C16.2954 19.4115 16.9043 18.8026 17.6554 18.8026H28.5354C29.2865 18.8026 29.8954 19.4115 29.8954 20.1626C29.8954 20.9138 29.2865 21.5226 28.5354 21.5226H17.6554C16.9043 21.5226 16.2954 20.9138 16.2954 20.1626Z" fill="white"/>
<path fill-rule="evenodd" clip-rule="evenodd" d="M16.2954 25.6026C16.2954 24.8515 16.9043 24.2426 17.6554 24.2426H24.4554C25.2065 24.2426 25.8154 24.8515 25.8154 25.6026C25.8154 26.3537 25.2065 26.9626 24.4554 26.9626H17.6554C16.9043 26.9626 16.2954 26.3537 16.2954 25.6026Z" fill="white"/>
<path fill-rule="evenodd" clip-rule="evenodd" d="M16.2954 31.0426C16.2954 30.2915 16.9043 29.6826 17.6554 29.6826H19.0154C19.7665 29.6826 20.3754 30.2915 20.3754 31.0426C20.3754 31.7937 19.7665 32.4026 19.0154 32.4026H17.6554C16.9043 32.4026 16.2954 31.7937 16.2954 31.0426Z" fill="white"/>
<path d="M39.9472 43.5315L39.4599 43.4195L39.4599 43.4195L39.9472 43.5315ZM40.0006 42.8338L39.5262 42.9919L39.5328 43.0117L39.541 43.0308L40.0006 42.8338ZM39.421 42.4296L39.1705 42.8623L39.1837 42.87L39.1974 42.8768L39.421 42.4296ZM38.525 41.9339L38.7698 41.498L38.7697 41.4979L38.525 41.9339ZM38.117 41.6976L37.817 42.0976L37.8377 42.113L37.8598 42.1263L38.117 41.6976ZM37.9264 41.5641L37.6423 41.9755L37.6423 41.9756L37.9264 41.5641ZM37.6557 41.4002L37.4383 41.8504L37.4383 41.8504L37.6557 41.4002ZM37.0571 41.5641L37.4014 41.9266L37.4015 41.9266L37.0571 41.5641ZM36.6377 42.0369L37.0384 42.3359L37.0384 42.3359L36.6377 42.0369ZM36.2335 42.5097L35.8768 42.1593L35.8768 42.1593L36.2335 42.5097ZM35.7112 42.6889L35.8849 42.22L35.8848 42.22L35.7112 42.6889ZM35.5548 42.6241L35.3312 43.0713L35.3312 43.0713L35.5548 42.6241ZM35.3718 42.5173L35.1091 42.9427L35.1091 42.9427L35.3718 42.5173ZM35.2269 42.4296L34.9844 42.8668L34.9937 42.872L35.0033 42.8768L35.2269 42.4296ZM33.4349 41.1028L33.0814 41.4563L33.0814 41.4563L33.4349 41.1028ZM32.1081 39.3107L31.6607 39.534L31.6655 39.5438L31.6708 39.5533L32.1081 39.3107ZM32.0204 39.1658L32.4458 38.9031L32.4458 38.9031L32.0204 39.1658ZM31.9136 38.9828L31.4664 39.2064L31.4664 39.2065L31.9136 38.9828ZM31.8488 38.8265L32.3177 38.6529L32.3177 38.6528L31.8488 38.8265ZM32.028 38.3042L32.3784 38.6609L32.3784 38.6608L32.028 38.3042ZM32.5008 37.9L32.7998 38.3007L32.7998 38.3007L32.5008 37.9ZM32.9736 37.4806L32.6111 37.1362L32.6111 37.1362L32.9736 37.4806ZM33.1375 36.882L33.5878 36.6646L33.5878 36.6646L33.1375 36.882ZM32.9736 36.6113L33.385 36.3272L33.385 36.3272L32.9736 36.6113ZM32.8401 36.4206L32.4114 36.6779L32.4247 36.7001L32.4402 36.7207L32.8401 36.4206ZM32.6037 36.0127L33.0397 35.7679L33.0397 35.7679L32.6037 36.0127ZM32.3368 35.5284L32.7763 35.2899L32.7763 35.2899L32.3368 35.5284ZM32.1081 35.1167L31.6608 35.3403L31.6677 35.3539L31.6753 35.3672L32.1081 35.1167ZM31.7039 34.5371L31.5068 34.9966L31.526 35.0049L31.5458 35.0115L31.7039 34.5371ZM31.0062 34.5905L31.1182 35.0778L31.1182 35.0778L31.0062 34.5905ZM30.4838 34.7506L30.6775 35.2117L30.6852 35.2083L30.4838 34.7506ZM29.6755 35.681L29.2382 35.4385L29.236 35.4425L29.6755 35.681ZM29.3133 37.4996L29.8086 37.4317L29.8086 37.4316L29.3133 37.4996ZM29.4086 37.9381L28.9273 38.0735L28.9273 38.0735L29.4086 37.9381ZM29.5192 38.3003L29.0479 38.4675L29.048 38.4676L29.5192 38.3003ZM29.6755 38.7236L29.2073 38.8991L29.2073 38.8991L29.6755 38.7236ZM29.8128 39.0972L29.3383 39.2554L29.3419 39.2654L29.8128 39.0972ZM30.4457 40.4317L30.8712 40.1691L30.87 40.1672L30.4457 40.4317ZM32.089 42.4487L31.7354 42.8022V42.8022L32.089 42.4487ZM34.106 44.092L34.3705 43.6677L34.3686 43.6665L34.106 44.092ZM35.4404 44.7249L35.2722 45.1959L35.2824 45.1993L35.4404 44.7249ZM35.8141 44.8622L35.6385 45.3303L35.6385 45.3303L35.8141 44.8622ZM36.2373 45.0185L36.0702 45.4897L36.0702 45.4897L36.2373 45.0185ZM36.5995 45.1291L36.4642 45.6104L36.4642 45.6104L36.5995 45.1291ZM37.038 45.2244L37.106 44.729L37.106 44.729L37.038 45.2244ZM38.8567 44.8622L39.0952 45.3017L39.0992 45.2995L38.8567 44.8622ZM39.787 44.0539L39.3293 43.8525L39.3261 43.8602L39.787 44.0539ZM34.6553 50.5826C40.5648 50.5826 45.3553 45.7921 45.3553 39.8826H44.3553C44.3553 45.2398 40.0125 49.5826 34.6553 49.5826V50.5826ZM23.9553 39.8826C23.9553 45.7921 28.7459 50.5826 34.6553 50.5826V49.5826C29.2982 49.5826 24.9553 45.2398 24.9553 39.8826H23.9553ZM34.6553 29.1826C28.7459 29.1826 23.9553 33.9732 23.9553 39.8826H24.9553C24.9553 34.5255 29.2982 30.1826 34.6553 30.1826V29.1826ZM45.3553 39.8826C45.3553 33.9732 40.5648 29.1826 34.6553 29.1826V30.1826C40.0125 30.1826 44.3553 34.5255 44.3553 39.8826H45.3553ZM39.5234 42.9939C39.5234 43.077 39.507 43.2146 39.4599 43.4195L40.4345 43.6435C40.489 43.4061 40.5234 43.1853 40.5234 42.9939H39.5234ZM39.541 43.0308C39.5331 43.0124 39.5287 42.9976 39.5263 42.9883C39.5239 42.979 39.523 42.973 39.5227 42.9712C39.5223 42.9684 39.5234 42.975 39.5234 42.9939H40.5234C40.5234 42.9023 40.5159 42.7669 40.4601 42.6367L39.541 43.0308ZM39.1974 42.8768C39.3662 42.9612 39.479 43.0269 39.5468 43.0742C39.5808 43.098 39.5925 43.1095 39.5916 43.1086C39.5907 43.1076 39.5823 43.0991 39.571 43.0829C39.5602 43.0673 39.5412 43.0367 39.5262 42.9919L40.4749 42.6757C40.4322 42.5476 40.3538 42.4571 40.3027 42.4055C40.2459 42.348 40.1814 42.2976 40.1188 42.254C39.9934 42.1665 39.8316 42.0759 39.6446 41.9824L39.1974 42.8768ZM38.7707 42.6403C38.9472 42.7361 39.0798 42.8098 39.1705 42.8623L39.6715 41.9969C39.569 41.9376 39.4271 41.8588 39.2478 41.7614L38.7707 42.6403ZM38.2802 42.3699C38.4276 42.4527 38.5911 42.5428 38.7707 42.6403L39.2478 41.7614C39.0715 41.6657 38.9122 41.5779 38.7698 41.498L38.2802 42.3699ZM37.8598 42.1263C37.9915 42.2053 38.1316 42.2865 38.2803 42.3699L38.7697 41.4979C38.6286 41.4187 38.4968 41.3423 38.3743 41.2688L37.8598 42.1263ZM37.6423 41.9756C37.6953 42.0122 37.7369 42.041 37.7674 42.0624C37.7827 42.0731 37.7947 42.0815 37.8036 42.0879C37.8134 42.0949 37.8171 42.0976 37.817 42.0976L38.417 41.2976C38.3868 41.2749 38.313 41.2234 38.2105 41.1526L37.6423 41.9756ZM37.4383 41.8504C37.4795 41.8703 37.546 41.9091 37.6423 41.9755L38.2105 41.1527C38.0933 41.0717 37.9793 41.0012 37.8731 40.9499L37.4383 41.8504ZM37.4384 41.8468C37.4319 41.8468 37.4277 41.8459 37.4268 41.8457C37.4261 41.8455 37.4298 41.8463 37.4383 41.8504L37.8731 40.9499C37.7417 40.8865 37.5953 40.8468 37.4384 40.8468V41.8468ZM37.4015 41.9266C37.4298 41.8997 37.4538 41.8792 37.4735 41.8638C37.4935 41.8483 37.507 41.8397 37.5144 41.8355C37.5219 41.8312 37.5197 41.8334 37.5083 41.837C37.4966 41.8407 37.4724 41.8468 37.4384 41.8468V40.8468C37.2708 40.8468 37.1271 40.9052 37.0192 40.9667C36.909 41.0295 36.8066 41.1124 36.7127 41.2016L37.4015 41.9266ZM37.0384 42.3359C37.1487 42.1881 37.2697 42.0518 37.4014 41.9266L36.7127 41.2016C36.5394 41.3662 36.3808 41.5451 36.2369 41.7379L37.0384 42.3359ZM36.5902 42.8601C36.749 42.6984 36.8984 42.5235 37.0384 42.3359L36.237 41.7379C36.1228 41.8909 36.0027 42.0312 35.8768 42.1593L36.5902 42.8601ZM35.8827 43.227C36.0572 43.227 36.2019 43.16 36.3024 43.0977C36.4068 43.033 36.5029 42.9489 36.5902 42.8601L35.8768 42.1593C35.8504 42.1862 35.8282 42.2066 35.8103 42.2216C35.7922 42.2368 35.7807 42.2446 35.7757 42.2476C35.7704 42.2509 35.7761 42.2467 35.792 42.2411C35.8082 42.2355 35.8396 42.227 35.8827 42.227V43.227ZM35.5374 43.1577C35.6324 43.1929 35.753 43.227 35.8827 43.227V42.227C35.8943 42.227 35.9027 42.2278 35.9075 42.2284C35.9124 42.229 35.9147 42.2295 35.914 42.2294C35.9122 42.229 35.9029 42.2267 35.8849 42.22L35.5374 43.1577ZM35.3312 43.0713C35.3913 43.1013 35.4635 43.1303 35.5375 43.1578L35.8848 42.22C35.8216 42.1966 35.7895 42.1824 35.7784 42.1769L35.3312 43.0713ZM35.1091 42.9427C35.1946 42.9955 35.2731 43.0422 35.3312 43.0713L35.7784 42.1769C35.7654 42.1703 35.7219 42.1458 35.6345 42.0919L35.1091 42.9427ZM35.0033 42.8768C34.9972 42.8737 34.9927 42.8713 34.9908 42.8703C34.9886 42.8691 34.9872 42.8683 34.9867 42.868C34.9859 42.8676 34.9863 42.8678 34.9886 42.8691C34.9931 42.8718 35.0006 42.8763 35.0119 42.8831C35.0341 42.8965 35.0663 42.9163 35.1091 42.9427L35.6346 42.0919C35.5639 42.0483 35.4869 42.0006 35.4506 41.9824L35.0033 42.8768ZM33.0814 41.4563C33.6165 41.9914 34.2524 42.4608 34.9844 42.8668L35.4695 41.9924C34.8085 41.6257 34.2498 41.2105 33.7885 40.7492L33.0814 41.4563ZM31.6708 39.5533C32.0769 40.2853 32.5463 40.9212 33.0814 41.4563L33.7885 40.7492C33.3272 40.2879 32.912 39.7292 32.5453 39.0682L31.6708 39.5533ZM31.595 39.4286C31.6214 39.4714 31.6411 39.5036 31.6546 39.5258C31.6614 39.537 31.6659 39.5446 31.6685 39.5491C31.6699 39.5513 31.6701 39.5518 31.6696 39.5509C31.6693 39.5504 31.6685 39.5489 31.6673 39.5467C31.6662 39.5448 31.6638 39.5402 31.6607 39.534L32.5555 39.0875C32.5372 39.0509 32.4893 38.9735 32.4458 38.9031L31.595 39.4286ZM31.4664 39.2065C31.4954 39.2646 31.5421 39.343 31.595 39.4286L32.4458 38.9031C32.3919 38.8158 32.3674 38.7723 32.3608 38.7592L31.4664 39.2065ZM31.3799 39.0002C31.4073 39.0742 31.4364 39.1464 31.4664 39.2064L32.3608 38.7592C32.3553 38.7481 32.3411 38.7161 32.3177 38.6529L31.3799 39.0002ZM31.3107 38.6549C31.3107 38.7847 31.3447 38.9052 31.3799 39.0002L32.3177 38.6528C32.311 38.6348 32.3087 38.6255 32.3083 38.6237C32.3081 38.623 32.3087 38.6253 32.3093 38.6301C32.3099 38.635 32.3107 38.6434 32.3107 38.6549H31.3107ZM31.6776 37.9475C31.5888 38.0347 31.5046 38.1309 31.44 38.2353C31.3777 38.3358 31.3107 38.4805 31.3107 38.6549H32.3107C32.3107 38.6981 32.3022 38.7295 32.2965 38.7457C32.291 38.7616 32.2867 38.7673 32.29 38.762C32.2931 38.757 32.3009 38.7455 32.3161 38.7274C32.3311 38.7095 32.3515 38.6873 32.3784 38.6609L31.6776 37.9475ZM32.2018 37.4993C32.0142 37.6393 31.8393 37.7886 31.6776 37.9475L32.3784 38.6608C32.5065 38.535 32.6468 38.4149 32.7998 38.3007L32.2018 37.4993ZM32.6111 37.1362C32.4859 37.268 32.3496 37.389 32.2017 37.4993L32.7998 38.3007C32.9926 38.1569 33.1715 37.9982 33.3361 37.825L32.6111 37.1362ZM32.6909 37.0993C32.6909 37.0653 32.6969 37.0411 32.7006 37.0294C32.7042 37.018 32.7065 37.0158 32.7022 37.0233C32.698 37.0306 32.6894 37.0442 32.6739 37.0641C32.6585 37.0839 32.638 37.1079 32.6111 37.1362L33.336 37.825C33.4253 37.7311 33.5082 37.6287 33.571 37.5185C33.6325 37.4106 33.6909 37.2669 33.6909 37.0993H32.6909ZM32.6872 37.0994C32.6913 37.1078 32.6921 37.1115 32.692 37.1108C32.6917 37.1099 32.6909 37.1058 32.6909 37.0993H33.6909C33.6909 36.9424 33.6512 36.796 33.5878 36.6646L32.6872 37.0994ZM32.5621 36.8954C32.6286 36.9917 32.6674 37.0582 32.6873 37.0994L33.5878 36.6646C33.5365 36.5583 33.4659 36.4444 33.385 36.3272L32.5621 36.8954ZM32.4402 36.7207C32.4401 36.7206 32.4428 36.7243 32.4498 36.734C32.4562 36.743 32.4646 36.755 32.4753 36.7703C32.4967 36.8008 32.5255 36.8424 32.5621 36.8954L33.385 36.3272C33.3143 36.2248 33.2628 36.1508 33.24 36.1205L32.4402 36.7207ZM32.1677 36.2574C32.2511 36.406 32.3324 36.5462 32.4114 36.6779L33.2689 36.1634C33.1954 36.0409 33.119 35.9091 33.0397 35.7679L32.1677 36.2574ZM31.8974 35.767C31.9949 35.9466 32.085 36.1101 32.1677 36.2574L33.0397 35.7679C32.9598 35.6255 32.8719 35.4662 32.7763 35.2899L31.8974 35.767ZM31.6753 35.3672C31.7278 35.4579 31.8016 35.5904 31.8974 35.767L32.7763 35.2899C32.6789 35.1106 32.6001 34.9687 32.5408 34.8662L31.6753 35.3672ZM31.5458 35.0115C31.501 34.9965 31.4703 34.9775 31.4547 34.9666C31.4386 34.9554 31.4301 34.947 31.4291 34.946C31.4282 34.9451 31.4397 34.9568 31.4635 34.9909C31.5107 35.0587 31.5764 35.1714 31.6608 35.3403L32.5553 34.8931C32.4618 34.706 32.3711 34.5443 32.2837 34.4189C32.2401 34.3563 32.1897 34.2918 32.1322 34.2349C32.0805 34.1839 31.9901 34.1055 31.862 34.0628L31.5458 35.0115ZM31.5438 35.0142C31.5627 35.0142 31.5693 35.0153 31.5665 35.0149C31.5647 35.0147 31.5587 35.0137 31.5493 35.0113C31.5401 35.009 31.5253 35.0046 31.5068 34.9966L31.901 34.0776C31.7708 34.0218 31.6353 34.0142 31.5438 34.0142V35.0142ZM31.1182 35.0778C31.3231 35.0307 31.4606 35.0142 31.5438 35.0142V34.0142C31.3524 34.0142 31.1315 34.0486 30.8941 34.1032L31.1182 35.0778ZM30.6852 35.2083C30.7712 35.1704 30.911 35.1254 31.1182 35.0778L30.8942 34.1032C30.659 34.1573 30.4506 34.219 30.2825 34.293L30.6852 35.2083ZM30.1128 35.9234C30.2448 35.6854 30.3641 35.5114 30.4685 35.3912C30.5756 35.268 30.6471 35.2244 30.6774 35.2116L30.2902 34.2896C30.0664 34.3836 29.8761 34.5484 29.7137 34.7353C29.5486 34.9253 29.3909 35.1631 29.2382 35.4385L30.1128 35.9234ZM29.7866 37.0993C29.7866 36.7275 29.8889 36.336 30.115 35.9194L29.236 35.4425C28.9435 35.9816 28.7866 36.5357 28.7866 37.0993H29.7866ZM29.8086 37.4316C29.7941 37.3256 29.7866 37.215 29.7866 37.0993H28.7866C28.7866 37.2582 28.7969 37.4144 28.8179 37.5677L29.8086 37.4316ZM29.8899 37.8028C29.8487 37.6562 29.8226 37.5331 29.8086 37.4317L28.8179 37.5676C28.8396 37.7255 28.877 37.8947 28.9273 38.0735L29.8899 37.8028ZM29.9904 38.1332C29.9682 38.0707 29.935 37.9632 29.8899 37.8027L28.9273 38.0735C28.9737 38.2384 29.0142 38.3723 29.0479 38.4675L29.9904 38.1332ZM30.1437 38.548C30.0673 38.3444 30.0167 38.2072 29.9904 38.1331L29.048 38.4676C29.0776 38.5511 29.1312 38.696 29.2073 38.8991L30.1437 38.548ZM30.2871 38.9391C30.2682 38.8824 30.2185 38.7475 30.1437 38.548L29.2073 38.8991C29.285 39.1063 29.3268 39.2205 29.3384 39.2554L30.2871 38.9391ZM30.87 40.1672C30.6474 39.8102 30.4513 39.3984 30.2836 38.929L29.3419 39.2654C29.5301 39.7925 29.7559 40.2704 30.0214 40.6962L30.87 40.1672ZM32.4426 42.0951C31.7687 41.4213 31.2476 40.779 30.8712 40.1691L30.0202 40.6943C30.447 41.3858 31.0214 42.0882 31.7354 42.8022L32.4426 42.0951ZM34.3686 43.6665C33.7586 43.2901 33.1164 42.7689 32.4426 42.0951L31.7354 42.8022C32.4495 43.5163 33.1519 44.0907 33.8434 44.5175L34.3686 43.6665ZM35.6086 44.2541C35.1393 44.0864 34.7275 43.8903 34.3705 43.6677L33.8415 44.5163C34.2673 44.7818 34.7452 45.0075 35.2723 45.1958L35.6086 44.2541ZM35.9897 44.394C35.7902 44.3192 35.6552 44.2695 35.5985 44.2506L35.2824 45.1993C35.3172 45.2109 35.4313 45.2526 35.6385 45.3303L35.9897 44.394ZM36.4045 44.5473C36.3304 44.521 36.1933 44.4704 35.9897 44.394L35.6385 45.3303C35.8416 45.4065 35.9866 45.4601 36.0702 45.4897L36.4045 44.5473ZM36.7349 44.6478C36.5745 44.6026 36.4669 44.5694 36.4045 44.5473L36.0702 45.4897C36.1653 45.5235 36.2992 45.564 36.4642 45.6104L36.7349 44.6478ZM37.106 44.729C37.0046 44.7151 36.8815 44.689 36.7349 44.6477L36.4642 45.6104C36.6429 45.6607 36.8122 45.6981 36.97 45.7198L37.106 44.729ZM37.4384 44.7511C37.3227 44.7511 37.212 44.7436 37.106 44.729L36.97 45.7198C37.1233 45.7408 37.2795 45.7511 37.4384 45.7511V44.7511ZM38.6183 44.4227C38.2017 44.6487 37.8102 44.7511 37.4384 44.7511V45.7511C38.002 45.7511 38.5561 45.5942 39.0952 45.3017L38.6183 44.4227ZM39.3261 43.8602C39.3133 43.8906 39.2697 43.9621 39.1465 44.0691C39.0263 44.1736 38.8523 44.2929 38.6143 44.4249L39.0992 45.2995C39.3746 45.1468 39.6124 44.989 39.8023 44.824C39.9892 44.6616 40.154 44.4713 40.248 44.2475L39.3261 43.8602ZM39.4599 43.4195C39.4123 43.6266 39.3672 43.7665 39.3294 43.8525L40.2447 44.2552C40.3187 44.0871 40.3804 43.8787 40.4345 43.6435L39.4599 43.4195Z" fill="white"/>
</svg>
