<svg width="55" height="56" viewBox="0 0 55 56" fill="none" xmlns="http://www.w3.org/2000/svg">
<path d="M44.8552 27.1159V11.4489C44.8552 8.56456 42.5716 6.22632 39.7651 6.22632H15.9454C13.1342 6.22632 10.8552 8.56614 10.8552 11.4326V44.54C10.8552 47.4154 13.1331 49.7463 15.9469 49.7463H24.4552" stroke="white" stroke-width="1.5"/>
<path fill-rule="evenodd" clip-rule="evenodd" d="M16.2954 14.3864C16.2954 13.6353 16.9043 13.0264 17.6554 13.0264H28.5354C29.2865 13.0264 29.8954 13.6353 29.8954 14.3864C29.8954 15.1375 29.2865 15.7464 28.5354 15.7464H17.6554C16.9043 15.7464 16.2954 15.1375 16.2954 14.3864Z" fill="white"/>
<path fill-rule="evenodd" clip-rule="evenodd" d="M16.2954 19.8263C16.2954 19.0752 16.9043 18.4663 17.6554 18.4663H28.5354C29.2865 18.4663 29.8954 19.0752 29.8954 19.8263C29.8954 20.5774 29.2865 21.1863 28.5354 21.1863H17.6554C16.9043 21.1863 16.2954 20.5774 16.2954 19.8263Z" fill="white"/>
<path fill-rule="evenodd" clip-rule="evenodd" d="M16.2954 25.2664C16.2954 24.5153 16.9043 23.9064 17.6554 23.9064H24.4554C25.2065 23.9064 25.8154 24.5153 25.8154 25.2664C25.8154 26.0175 25.2065 26.6264 24.4554 26.6264H17.6554C16.9043 26.6264 16.2954 26.0175 16.2954 25.2664Z" fill="white"/>
<path fill-rule="evenodd" clip-rule="evenodd" d="M16.2954 30.7063C16.2954 29.9552 16.9043 29.3463 17.6554 29.3463H19.0154C19.7665 29.3463 20.3754 29.9552 20.3754 30.7063C20.3754 31.4574 19.7665 32.0663 19.0154 32.0663H17.6554C16.9043 32.0663 16.2954 31.4574 16.2954 30.7063Z" fill="white"/>
<g filter="url(#filter0_d_214_2810)">
<path d="M37.5026 40.0715L42.6584 45.2273C43.132 45.701 43.132 46.4723 42.6584 46.9459L42.2272 47.3771C41.7535 47.8508 40.9823 47.8508 40.5086 47.3771L35.3528 42.2213" stroke="white" stroke-miterlimit="10"/>
</g>
<g filter="url(#filter1_d_214_2810)">
<path d="M37.9171 37.0071C37.9171 40.962 34.7111 44.168 30.7563 44.168C26.8015 44.168 23.5955 40.962 23.5955 37.0071C23.5955 33.0523 26.8015 29.8463 30.7563 29.8463C34.7111 29.8463 37.9171 33.0523 37.9171 37.0071Z" stroke="white" stroke-miterlimit="10"/>
</g>
<defs>
<filter id="filter0_d_214_2810" x="30.9993" y="35.718" width="16.5144" height="16.5143" filterUnits="userSpaceOnUse" color-interpolation-filters="sRGB">
<feFlood flood-opacity="0" result="BackgroundImageFix"/>
<feColorMatrix in="SourceAlpha" type="matrix" values="0 0 0 0 0 0 0 0 0 0 0 0 0 0 0 0 0 0 127 0" result="hardAlpha"/>
<feOffset/>
<feGaussianBlur stdDeviation="2"/>
<feColorMatrix type="matrix" values="0 0 0 0 1 0 0 0 0 1 0 0 0 0 1 0 0 0 0.12 0"/>
<feBlend mode="normal" in2="BackgroundImageFix" result="effect1_dropShadow_214_2810"/>
<feBlend mode="normal" in="SourceGraphic" in2="effect1_dropShadow_214_2810" result="shape"/>
</filter>
<filter id="filter1_d_214_2810" x="19.0955" y="25.3463" width="23.3215" height="23.3217" filterUnits="userSpaceOnUse" color-interpolation-filters="sRGB">
<feFlood flood-opacity="0" result="BackgroundImageFix"/>
<feColorMatrix in="SourceAlpha" type="matrix" values="0 0 0 0 0 0 0 0 0 0 0 0 0 0 0 0 0 0 127 0" result="hardAlpha"/>
<feOffset/>
<feGaussianBlur stdDeviation="2"/>
<feColorMatrix type="matrix" values="0 0 0 0 1 0 0 0 0 1 0 0 0 0 1 0 0 0 0.12 0"/>
<feBlend mode="normal" in2="BackgroundImageFix" result="effect1_dropShadow_214_2810"/>
<feBlend mode="normal" in="SourceGraphic" in2="effect1_dropShadow_214_2810" result="shape"/>
</filter>
</defs>
</svg>
