<svg width="55" height="55" viewBox="0 0 55 55" fill="none" xmlns="http://www.w3.org/2000/svg">
<mask id="path-1-inside-1_214_3238" fill="white">
<path fill-rule="evenodd" clip-rule="evenodd" d="M23.6285 32.3294C24.2953 31.2638 24.6119 30.0163 24.534 28.7617C24.5459 28.2661 24.4464 27.7741 24.243 27.3221C24.0395 26.87 23.7372 26.4693 23.3584 26.1496C22.9795 25.8298 22.5338 25.5991 22.054 25.4745C21.5742 25.3499 21.0725 25.3345 20.5859 25.4294C19.896 25.5015 19.2577 25.828 18.7955 26.3454C18.3334 26.8628 18.0807 27.5338 18.0867 28.2274C18.1063 29.4586 18.5804 30.639 19.4178 31.5416C19.9925 32.1615 20.7631 32.5644 21.6001 32.6826C22.2611 32.7731 23.2662 32.8003 23.6285 32.3294ZM15.7122 34.3013C15.3206 34.6431 15.0353 35.0902 14.8901 35.5894C14.3842 36.9975 14.0409 38.4588 13.8669 39.9449C13.8657 39.9933 13.8742 40.0413 13.8918 40.0863C13.9095 40.1313 13.936 40.1723 13.9697 40.2069C14.0035 40.2415 14.0438 40.269 14.0884 40.2878C14.1329 40.3065 14.1808 40.3162 14.2291 40.3162H16.9457L17.2535 39.0666C17.3273 38.7579 17.4242 38.4552 17.5433 38.1611L17.7606 37.6359L18.4941 37.9438L18.2768 38.4689C18.1774 38.7204 18.0927 38.9774 18.0232 39.2386L17.7606 40.2981H27.0874C27.1357 40.2981 27.1836 40.2884 27.2281 40.2697C27.2727 40.2509 27.313 40.2234 27.3468 40.1888C27.3805 40.1542 27.407 40.1132 27.4247 40.0682C27.4423 40.0232 27.4508 39.9751 27.4496 39.9268C27.4283 38.642 27.2827 37.3623 27.0149 36.1056C26.9049 35.6325 26.6668 35.1988 26.3265 34.8522C25.9863 34.5056 25.5572 34.2594 25.0862 34.1406C22.474 33.5054 19.7691 33.3429 17.0996 33.6607C16.5854 33.7371 16.1039 33.9594 15.7122 34.3013Z"/>
</mask>
<path d="M24.534 28.7617L23.5359 28.8237L23.5332 28.7807L23.5343 28.7377L24.534 28.7617ZM23.6285 32.3294L24.4762 32.8599L24.4505 32.9008L24.4211 32.9391L23.6285 32.3294ZM24.243 27.3221L23.331 27.7325V27.7325L24.243 27.3221ZM23.3584 26.1496L24.0034 25.3854V25.3854L23.3584 26.1496ZM22.054 25.4745L22.3054 24.5066V24.5066L22.054 25.4745ZM20.5859 25.4294L20.7775 26.4109L20.7339 26.4194L20.6898 26.424L20.5859 25.4294ZM18.7955 26.3454L18.0497 25.6792V25.6792L18.7955 26.3454ZM18.0867 28.2274L17.0868 28.2433L17.0868 28.2361L18.0867 28.2274ZM19.4178 31.5416L20.1509 30.8615L20.1512 30.8618L19.4178 31.5416ZM21.6001 32.6826L21.4644 33.6733L21.4603 33.6727L21.6001 32.6826ZM14.8901 35.5894L15.8504 35.8686L15.8417 35.8984L15.8312 35.9276L14.8901 35.5894ZM15.7122 34.3013L15.0546 33.5479L15.0546 33.5479L15.7122 34.3013ZM13.8669 39.9449L12.8672 39.9199L12.8684 39.8741L12.8737 39.8287L13.8669 39.9449ZM13.9697 40.2069L13.254 40.9053L13.254 40.9052L13.9697 40.2069ZM14.0884 40.2878L13.7002 41.2093L13.7001 41.2093L14.0884 40.2878ZM14.2291 40.3162L14.2288 39.3162H14.2291V40.3162ZM16.9457 40.3162L17.9166 40.5554L17.7292 41.3162H16.9457V40.3162ZM17.2535 39.0666L18.2262 39.2991L18.2245 39.3058L17.2535 39.0666ZM17.5433 38.1611L16.6164 37.7857L16.6193 37.7787L17.5433 38.1611ZM17.7606 37.6359L16.8366 37.2535L17.2209 36.3248L18.1477 36.7138L17.7606 37.6359ZM18.4941 37.9438L18.8811 37.0217L19.7985 37.4068L19.4181 38.3261L18.4941 37.9438ZM18.2768 38.4689L17.3468 38.1013L17.3497 38.0939L17.3527 38.0866L18.2768 38.4689ZM18.0232 39.2386L17.0526 38.9981L17.0546 38.9898L17.0568 38.9816L18.0232 39.2386ZM17.7606 40.2981V41.2981H16.4825L16.79 40.0575L17.7606 40.2981ZM27.0874 40.2981V39.2981H27.0877L27.0874 40.2981ZM27.2281 40.2697L26.8399 39.3481L26.8399 39.3481L27.2281 40.2697ZM27.3468 40.1888L26.631 39.4905L26.631 39.4905L27.3468 40.1888ZM27.4247 40.0682L26.4938 39.7028L27.4247 40.0682ZM27.4496 39.9268L26.4499 39.9518L26.4497 39.9434L27.4496 39.9268ZM27.0149 36.1056L27.989 35.8791L27.9911 35.8881L27.993 35.8972L27.0149 36.1056ZM25.0862 34.1406L25.3225 33.1689L25.3308 33.171L25.0862 34.1406ZM17.0996 33.6607L16.9527 32.6715L16.967 32.6694L16.9814 32.6677L17.0996 33.6607ZM25.532 28.6997C25.6229 30.1626 25.2537 31.6174 24.4762 32.8599L22.7808 31.7989C23.3368 30.9103 23.6009 29.8699 23.5359 28.8237L25.532 28.6997ZM25.1549 26.9117C25.4197 27.5001 25.5492 28.1405 25.5337 28.7857L23.5343 28.7377C23.5426 28.3917 23.4731 28.0481 23.331 27.7325L25.1549 26.9117ZM24.0034 25.3854C24.4965 25.8016 24.89 26.3232 25.1549 26.9117L23.331 27.7325C23.189 27.4168 22.9779 27.137 22.7134 26.9138L24.0034 25.3854ZM22.3054 24.5066C22.93 24.6689 23.5102 24.9692 24.0034 25.3854L22.7134 26.9138C22.4489 26.6905 22.1376 26.5294 21.8026 26.4424L22.3054 24.5066ZM20.3944 24.4479C21.0278 24.3243 21.6808 24.3444 22.3054 24.5066L21.8026 26.4424C21.4675 26.3553 21.1172 26.3446 20.7775 26.4109L20.3944 24.4479ZM18.0497 25.6792C18.6775 24.9764 19.5447 24.5327 20.4821 24.4348L20.6898 26.424C20.2472 26.4702 19.8378 26.6797 19.5414 27.0116L18.0497 25.6792ZM17.0868 28.2361C17.0786 27.2937 17.4219 26.3821 18.0497 25.6792L19.5414 27.0116C19.2449 27.3434 19.0828 27.7738 19.0867 28.2188L17.0868 28.2361ZM18.6847 32.2218C17.6795 31.1382 17.1103 29.7212 17.0868 28.2433L19.0866 28.2116C19.1022 29.1959 19.4813 30.1398 20.1509 30.8615L18.6847 32.2218ZM21.4603 33.6727C20.3957 33.5225 19.4154 33.0099 18.6845 32.2215L20.1512 30.8618C20.5695 31.313 21.1306 31.6064 21.7399 31.6924L21.4603 33.6727ZM24.4211 32.9391C23.9762 33.5175 23.268 33.6641 22.8332 33.7108C22.3417 33.7636 21.8362 33.7242 21.4644 33.6733L21.7358 31.6918C22.025 31.7314 22.3526 31.7509 22.6195 31.7222C22.7516 31.708 22.8357 31.6853 22.88 31.6676C22.9243 31.6499 22.8858 31.6548 22.8358 31.7197L24.4211 32.9391ZM13.9299 35.3103C14.1284 34.6273 14.5188 34.0156 15.0546 33.5479L16.3698 35.0546C16.1224 35.2706 15.9421 35.5531 15.8504 35.8686L13.9299 35.3103ZM12.8737 39.8287C13.0565 38.2669 13.4173 36.7311 13.949 35.2513L15.8312 35.9276C15.3511 37.2639 15.0252 38.6508 14.8601 40.0612L12.8737 39.8287ZM12.961 40.4517C12.8946 40.2825 12.8627 40.1017 12.8672 39.9199L14.8666 39.9699C14.8687 39.8849 14.8538 39.8002 14.8227 39.721L12.961 40.4517ZM13.254 40.9052C13.127 40.7751 13.0274 40.6209 12.961 40.4517L14.8227 39.721C14.7916 39.6417 14.745 39.5695 14.6855 39.5086L13.254 40.9052ZM13.7001 41.2093C13.5326 41.1388 13.3809 41.0354 13.254 40.9053L14.6855 39.5086C14.6261 39.4477 14.5551 39.3993 14.4766 39.3662L13.7001 41.2093ZM14.2294 41.3162C14.0477 41.3162 13.8677 41.2799 13.7002 41.2093L14.4766 39.3662C14.3982 39.3332 14.3139 39.3162 14.2288 39.3162L14.2294 41.3162ZM16.9457 41.3162H14.2291V39.3162H16.9457V41.3162ZM18.2245 39.3058L17.9166 40.5554L15.9747 40.077L16.2826 38.8274L18.2245 39.3058ZM18.4702 38.5364C18.3698 38.7842 18.2883 39.0391 18.2261 39.2991L16.2809 38.8341C16.3664 38.4767 16.4785 38.1263 16.6164 37.7857L18.4702 38.5364ZM18.6846 38.0182L18.4673 38.5434L16.6193 37.7787L16.8366 37.2535L18.6846 38.0182ZM18.107 38.8658L17.3736 38.5579L18.1477 36.7138L18.8811 37.0217L18.107 38.8658ZM17.3527 38.0866L17.5701 37.5614L19.4181 38.3261L19.2008 38.8513L17.3527 38.0866ZM17.0568 38.9816C17.1363 38.6828 17.2331 38.3889 17.3468 38.1013L19.2067 38.8366C19.1216 39.0519 19.0491 39.272 18.9896 39.4957L17.0568 38.9816ZM16.79 40.0575L17.0526 38.9981L18.9938 39.4792L18.7312 40.5387L16.79 40.0575ZM27.0874 41.2981H17.7606V39.2981H27.0874V41.2981ZM27.6164 41.1912C27.4488 41.2618 27.2689 41.2981 27.0871 41.2981L27.0877 39.2981C27.0026 39.2981 26.9183 39.3151 26.8399 39.3481L27.6164 41.1912ZM28.0625 40.8871C27.9356 41.0173 27.7839 41.1207 27.6163 41.1912L26.8399 39.3481C26.7614 39.3812 26.6904 39.4296 26.631 39.4905L28.0625 40.8871ZM28.3555 40.4336C28.2891 40.6028 28.1895 40.757 28.0625 40.8871L26.631 39.4905C26.5715 39.5514 26.5249 39.6236 26.4938 39.7028L28.3555 40.4336ZM28.4493 39.9018C28.4538 40.0836 28.4219 40.2644 28.3555 40.4336L26.4938 39.7028C26.4627 39.7821 26.4478 39.8667 26.4499 39.9518L28.4493 39.9018ZM27.993 35.8972C28.2742 37.217 28.4271 38.561 28.4495 39.9102L26.4497 39.9434C26.4295 38.7231 26.2912 37.5076 26.0369 36.314L27.993 35.8972ZM27.0402 34.1517C27.5091 34.6294 27.8374 35.2271 27.989 35.8791L26.0409 36.332C25.9725 36.0379 25.8244 35.7682 25.6129 35.5527L27.0402 34.1517ZM25.3308 33.171C25.9798 33.3347 26.5713 33.674 27.0402 34.1517L25.6129 35.5527C25.4013 35.3372 25.1345 35.1841 24.8416 35.1102L25.3308 33.171ZM16.9814 32.6677C19.7694 32.3358 22.5943 32.5055 25.3225 33.1689L24.8499 35.1123C22.3536 34.5053 19.7688 34.3499 17.2178 34.6537L16.9814 32.6677ZM15.0546 33.5479C15.5904 33.0802 16.2492 32.776 16.9527 32.6715L17.2465 34.6498C16.9216 34.6981 16.6173 34.8386 16.3698 35.0546L15.0546 33.5479Z" fill="white" mask="url(#path-1-inside-1_214_3238)"/>
<mask id="path-3-inside-2_214_3238" fill="white">
<path fill-rule="evenodd" clip-rule="evenodd" d="M33.7354 32.3294C33.0686 31.2638 32.7519 30.0163 32.8299 28.7617C32.818 28.2661 32.9174 27.7741 33.1209 27.3221C33.3244 26.87 33.6266 26.4693 34.0055 26.1496C34.3843 25.8298 34.8301 25.5991 35.3099 25.4745C35.7897 25.3499 36.2914 25.3345 36.7779 25.4294C37.4679 25.5015 38.1062 25.828 38.5683 26.3454C39.0304 26.8628 39.2831 27.5338 39.2771 28.2274C39.2576 29.4586 38.7835 30.639 37.946 31.5416C37.3714 32.1615 36.6007 32.5644 35.7637 32.6826C35.1027 32.7731 34.0976 32.8003 33.7354 32.3294ZM41.6513 34.3013C42.0429 34.6431 42.3283 35.0902 42.4734 35.5894C42.9793 36.9975 43.3226 38.4588 43.4966 39.9449C43.4978 39.9933 43.4893 40.0413 43.4717 40.0863C43.454 40.1313 43.4275 40.1723 43.3938 40.2069C43.36 40.2415 43.3197 40.269 43.2751 40.2878C43.2306 40.3065 43.1827 40.3162 43.1344 40.3162H40.4179L40.11 39.0666C40.0362 38.7579 39.9394 38.4552 39.8202 38.1611L39.6029 37.6359L38.8694 37.9438L39.0868 38.4689C39.1862 38.7204 39.2708 38.9774 39.3403 39.2386L39.6029 40.2981H30.2761C30.2278 40.2981 30.1799 40.2884 30.1354 40.2697C30.0909 40.2509 30.0505 40.2234 30.0168 40.1888C29.983 40.1542 29.9565 40.1132 29.9389 40.0682C29.9212 40.0232 29.9127 39.9751 29.9139 39.9268C29.9352 38.642 30.0808 37.3623 30.3486 36.1056C30.4586 35.6325 30.6968 35.1988 31.037 34.8522C31.3772 34.5056 31.8064 34.2594 32.2773 34.1406C34.8896 33.5054 37.5944 33.3429 40.2639 33.6607C40.7782 33.7371 41.2597 33.9594 41.6513 34.3013Z"/>
</mask>
<path d="M32.8299 28.7617L33.828 28.8237L33.8306 28.7807L33.8296 28.7377L32.8299 28.7617ZM33.7354 32.3294L32.8877 32.8599L32.9133 32.9008L32.9428 32.9391L33.7354 32.3294ZM33.1209 27.3221L34.0328 27.7325V27.7325L33.1209 27.3221ZM34.0055 26.1496L34.6505 26.9138L34.6505 26.9138L34.0055 26.1496ZM35.3099 25.4745L35.5613 26.4424L35.3099 25.4745ZM36.7779 25.4294L36.5864 26.4109L36.6299 26.4194L36.6741 26.424L36.7779 25.4294ZM38.5683 26.3454L39.3141 25.6792V25.6792L38.5683 26.3454ZM39.2771 28.2274L40.277 28.2433L40.2771 28.2361L39.2771 28.2274ZM37.946 31.5416L37.2129 30.8615L37.2127 30.8618L37.946 31.5416ZM35.7637 32.6826L35.8995 33.6733L35.9035 33.6727L35.7637 32.6826ZM42.4734 35.5894L41.5131 35.8686L41.5218 35.8984L41.5323 35.9276L42.4734 35.5894ZM41.6513 34.3013L42.3089 33.5479L42.3089 33.5479L41.6513 34.3013ZM43.4966 39.9449L44.4963 39.9199L44.4952 39.8741L44.4898 39.8287L43.4966 39.9449ZM43.3938 40.2069L44.1096 40.9053L44.1096 40.9052L43.3938 40.2069ZM43.2751 40.2878L43.6634 41.2093L43.6634 41.2093L43.2751 40.2878ZM43.1344 40.3162L43.1347 39.3162H43.1344V40.3162ZM40.4179 40.3162L39.4469 40.5554L39.6343 41.3162H40.4179V40.3162ZM40.11 39.0666L39.1374 39.2991L39.139 39.3058L40.11 39.0666ZM39.8202 38.1611L40.7471 37.7857L40.7443 37.7787L39.8202 38.1611ZM39.6029 37.6359L40.5269 37.2535L40.1426 36.3248L39.2159 36.7138L39.6029 37.6359ZM38.8694 37.9438L38.4824 37.0217L37.565 37.4068L37.9454 38.3261L38.8694 37.9438ZM39.0868 38.4689L40.0167 38.1013L40.0138 38.0939L40.0108 38.0866L39.0868 38.4689ZM39.3403 39.2386L40.3109 38.9981L40.3089 38.9898L40.3067 38.9816L39.3403 39.2386ZM39.6029 40.2981V41.2981H40.881L40.5735 40.0575L39.6029 40.2981ZM30.2761 40.2981V39.2981H30.2758L30.2761 40.2981ZM30.1354 40.2697L30.5236 39.3481L30.5236 39.3481L30.1354 40.2697ZM30.0168 40.1888L30.7326 39.4905L30.7325 39.4905L30.0168 40.1888ZM29.9389 40.0682L30.8697 39.7028L29.9389 40.0682ZM29.9139 39.9268L30.9137 39.9518L30.9138 39.9434L29.9139 39.9268ZM30.3486 36.1056L29.3746 35.8791L29.3725 35.8881L29.3705 35.8972L30.3486 36.1056ZM32.2773 34.1406L32.041 33.1689L32.0328 33.171L32.2773 34.1406ZM40.2639 33.6607L40.4108 32.6715L40.3965 32.6694L40.3822 32.6677L40.2639 33.6607ZM31.8318 28.6997C31.7409 30.1626 32.1101 31.6174 32.8877 32.8599L34.5831 31.7989C34.027 30.9103 33.763 29.8699 33.828 28.8237L31.8318 28.6997ZM32.209 26.9117C31.9442 27.5001 31.8147 28.1405 31.8302 28.7857L33.8296 28.7377C33.8213 28.3917 33.8907 28.0481 34.0328 27.7325L32.209 26.9117ZM33.3605 25.3854C32.8673 25.8016 32.4738 26.3232 32.209 26.9117L34.0328 27.7325C34.1749 27.4168 34.3859 27.137 34.6505 26.9138L33.3605 25.3854ZM35.0585 24.5066C34.4339 24.6689 33.8536 24.9692 33.3605 25.3854L34.6505 26.9138C34.915 26.6905 35.2262 26.5294 35.5613 26.4424L35.0585 24.5066ZM36.9695 24.4479C36.3361 24.3243 35.6831 24.3444 35.0585 24.5066L35.5613 26.4424C35.8963 26.3553 36.2466 26.3446 36.5864 26.4109L36.9695 24.4479ZM39.3141 25.6792C38.6863 24.9764 37.8191 24.5327 36.8818 24.4348L36.6741 26.424C37.1166 26.4702 37.5261 26.6797 37.8225 27.0116L39.3141 25.6792ZM40.2771 28.2361C40.2853 27.2937 39.9419 26.3821 39.3141 25.6792L37.8225 27.0116C38.1189 27.3434 38.281 27.7738 38.2772 28.2188L40.2771 28.2361ZM38.6791 32.2218C39.6844 31.1382 40.2535 29.7212 40.277 28.2433L38.2773 28.2116C38.2616 29.1959 37.8825 30.1398 37.2129 30.8615L38.6791 32.2218ZM35.9035 33.6727C36.9681 33.5225 37.9484 33.0099 38.6794 32.2215L37.2127 30.8618C36.7943 31.313 36.2333 31.6064 35.624 31.6924L35.9035 33.6727ZM32.9428 32.9391C33.3877 33.5175 34.0958 33.6641 34.5307 33.7108C35.0221 33.7636 35.5277 33.7242 35.8995 33.6733L35.628 31.6918C35.3388 31.7314 35.0113 31.7509 34.7444 31.7222C34.6123 31.708 34.5281 31.6853 34.4839 31.6676C34.4396 31.6499 34.4781 31.6548 34.528 31.7197L32.9428 32.9391ZM43.4336 35.3103C43.2351 34.6273 42.8447 34.0156 42.3089 33.5479L40.9937 35.0546C41.2412 35.2706 41.4214 35.5531 41.5131 35.8686L43.4336 35.3103ZM44.4898 39.8287C44.307 38.2669 43.9462 36.7311 43.4145 35.2513L41.5323 35.9276C42.0125 37.2639 42.3383 38.6508 42.5034 40.0612L44.4898 39.8287ZM44.4025 40.4517C44.469 40.2825 44.5008 40.1017 44.4963 39.9199L42.4969 39.9699C42.4948 39.8849 42.5097 39.8002 42.5408 39.721L44.4025 40.4517ZM44.1096 40.9052C44.2365 40.7751 44.3361 40.6209 44.4025 40.4517L42.5408 39.721C42.5719 39.6417 42.6186 39.5695 42.678 39.5086L44.1096 40.9052ZM43.6634 41.2093C43.8309 41.1388 43.9826 41.0354 44.1096 40.9053L42.678 39.5086C42.7374 39.4477 42.8084 39.3993 42.8869 39.3662L43.6634 41.2093ZM43.1341 41.3162C43.3159 41.3162 43.4958 41.2799 43.6634 41.2093L42.8869 39.3662C42.9654 39.3332 43.0496 39.3162 43.1347 39.3162L43.1341 41.3162ZM40.4179 41.3162H43.1344V39.3162H40.4179V41.3162ZM39.139 39.3058L39.4469 40.5554L41.3888 40.077L41.081 38.8274L39.139 39.3058ZM38.8933 38.5364C38.9937 38.7842 39.0753 39.0391 39.1374 39.2991L41.0826 38.8341C40.9972 38.4767 40.885 38.1263 40.7471 37.7857L38.8933 38.5364ZM38.6789 38.0182L38.8962 38.5434L40.7443 37.7787L40.5269 37.2535L38.6789 38.0182ZM39.2565 38.8658L39.99 38.5579L39.2159 36.7138L38.4824 37.0217L39.2565 38.8658ZM40.0108 38.0866L39.7935 37.5614L37.9454 38.3261L38.1628 38.8513L40.0108 38.0866ZM40.3067 38.9816C40.2272 38.6828 40.1304 38.3889 40.0167 38.1013L38.1568 38.8366C38.2419 39.0519 38.3144 39.272 38.3739 39.4957L40.3067 38.9816ZM40.5735 40.0575L40.3109 38.9981L38.3697 39.4792L38.6323 40.5387L40.5735 40.0575ZM30.2761 41.2981H39.6029V39.2981H30.2761V41.2981ZM29.7472 41.1912C29.9147 41.2618 30.0947 41.2981 30.2764 41.2981L30.2758 39.2981C30.3609 39.2981 30.4452 39.3151 30.5236 39.3481L29.7472 41.1912ZM29.301 40.8871C29.4279 41.0173 29.5796 41.1207 29.7472 41.1912L30.5236 39.3481C30.6021 39.3812 30.6731 39.4296 30.7326 39.4905L29.301 40.8871ZM29.008 40.4336C29.0744 40.6028 29.174 40.757 29.301 40.8871L30.7325 39.4905C30.792 39.5514 30.8386 39.6236 30.8697 39.7028L29.008 40.4336ZM28.9142 39.9018C28.9097 40.0836 28.9416 40.2644 29.008 40.4336L30.8697 39.7028C30.9008 39.7821 30.9157 39.8667 30.9136 39.9518L28.9142 39.9018ZM29.3705 35.8972C29.0893 37.217 28.9364 38.561 28.9141 39.9102L30.9138 39.9434C30.934 38.7231 31.0723 37.5076 31.3266 36.314L29.3705 35.8972ZM30.3233 34.1517C29.8544 34.6294 29.5262 35.2271 29.3746 35.8791L31.3226 36.332C31.391 36.0379 31.5391 35.7682 31.7507 35.5527L30.3233 34.1517ZM32.0328 33.171C31.3837 33.3347 30.7923 33.674 30.3233 34.1517L31.7507 35.5527C31.9622 35.3372 32.229 35.1841 32.5219 35.1102L32.0328 33.171ZM40.3822 32.6677C37.5941 32.3358 34.7692 32.5055 32.041 33.1689L32.5136 35.1123C35.0099 34.5053 37.5947 34.3499 40.1457 34.6537L40.3822 32.6677ZM42.3089 33.5479C41.7731 33.0802 41.1144 32.776 40.4108 32.6715L40.117 34.6498C40.442 34.6981 40.7462 34.8386 40.9937 35.0546L42.3089 33.5479Z" fill="white" mask="url(#path-3-inside-2_214_3238)"/>
<path fill-rule="evenodd" clip-rule="evenodd" d="M25.2246 24.1375C24.689 24.1375 24.3775 23.5321 24.6888 23.0963L31.2733 13.8779C31.6713 13.3208 32.5495 13.6655 32.4622 14.3445L31.7115 20.1867H34.443C34.9786 20.1867 35.2901 20.7921 34.9788 21.2279L28.3942 30.4463C27.9963 31.0034 27.1181 30.6587 27.2053 29.9797L27.9554 24.1375H25.2246ZM26.5038 22.8206H28.7036C29.1005 22.8206 29.4072 23.1692 29.3567 23.5629L28.8448 27.5494L33.1632 21.5036H30.9628C30.5658 21.5036 30.2591 21.155 30.3097 20.7613L30.8219 16.7753L26.5038 22.8206Z" fill="white"/>
<rect x="10.4199" y="4.69537" width="36.2697" height="46.0618" rx="4.25" stroke="white" stroke-width="1.5"/>
</svg>
