<svg width="55" height="55" viewBox="0 0 55 55" fill="none" xmlns="http://www.w3.org/2000/svg">
<g clip-path="url(#clip0_214_3223)">
<g filter="url(#filter0_d_214_3223)">
<path d="M28.2945 49.0441H14.2376C12.296 49.0441 10.7234 47.3482 10.7234 45.2543V9.25078C10.7234 7.15689 12.296 5.46094 14.2376 5.46094H41.4728C43.4144 5.46094 44.987 7.15689 44.987 9.25078V30.0949" stroke="white" stroke-miterlimit="10"/>
<path d="M24.78 43.3594H14.2373V11.1458H41.4725V28.2" stroke="white" stroke-miterlimit="10"/>
<path d="M25.6592 8.30334H30.9305" stroke="white" stroke-miterlimit="10"/>
<path d="M30.0517 49.9916C30.0517 49.9916 30.0517 48.8736 30.0517 48.0588C30.0517 47.2439 27.5654 44.9227 26.9504 43.8805C26.5639 43.2362 23.9019 34.0648 23.9019 34.0648C23.9019 33.1457 26.0543 31.9804 27.46 34.0648L29.753 37.902L30.9303 36.6892V22.4773C30.9303 21.4351 31.721 20.5824 32.6874 20.5824C33.6538 20.5824 34.4445 21.4351 34.4445 22.4773V34.7943V33.8468V29.1474H36.2016C36.7551 29.1474 37.6249 29.1474 37.9587 30.0949H39.7158C40.5417 30.0949 41.4729 31.0424 41.4729 31.9898H43.2301C44.0559 31.9898 44.9872 32.7762 44.9872 33.8468V44.2689C44.9872 46.1828 43.2301 47.765 43.2301 49.0441V49.9916" stroke="white" stroke-miterlimit="10"/>
<path d="M37.9587 30.0948V34.8322" stroke="white" stroke-miterlimit="10"/>
<path d="M41.4727 31.9897V35.7796" stroke="white" stroke-miterlimit="10"/>
</g>
<g filter="url(#filter1_d_214_3223)">
<path d="M22.2313 28.0838C22.179 28.1088 22.1208 28.1211 22.0642 28.1211C22.0076 28.1211 21.9521 28.1088 21.8998 28.0838H22.2313ZM22.2313 28.0838C22.4258 27.9915 26.9882 25.7859 26.9882 22.2977V18.0372C26.9882 17.9227 26.9367 17.8118 26.8511 17.7365L22.2313 28.0838Z" fill="white" stroke="white"/>
<mask id="path-8-inside-1_214_3223" fill="white">
<path d="M23.9934 20.2839L21.5332 22.9844L20.2402 21.7679C20.082 21.6189 19.8348 21.6284 19.6884 21.7889C19.5419 21.9494 19.5509 22.2002 19.7091 22.3488L21.2887 23.8356C21.361 23.9037 21.4558 23.9413 21.5543 23.9413C21.5593 23.9413 21.5644 23.9413 21.5691 23.941C21.673 23.937 21.7706 23.8914 21.8409 23.8142L24.5667 20.8221C24.7131 20.6612 24.7034 20.4107 24.5452 20.2622C24.3867 20.1136 24.1399 20.1239 23.9934 20.2839Z"/>
</mask>
<path d="M23.9934 20.2839L21.5332 22.9844L20.2402 21.7679C20.082 21.6189 19.8348 21.6284 19.6884 21.7889C19.5419 21.9494 19.5509 22.2002 19.7091 22.3488L21.2887 23.8356C21.361 23.9037 21.4558 23.9413 21.5543 23.9413C21.5593 23.9413 21.5644 23.9413 21.5691 23.941C21.673 23.937 21.7706 23.8914 21.8409 23.8142L24.5667 20.8221C24.7131 20.6612 24.7034 20.4107 24.5452 20.2622C24.3867 20.1136 24.1399 20.1239 23.9934 20.2839Z" fill="white"/>
<path d="M23.9934 20.2839L23.2556 19.609L23.2542 19.6105L23.9934 20.2839ZM21.5332 22.9844L20.8479 23.7127L21.588 24.409L22.2724 23.6579L21.5332 22.9844ZM20.2402 21.7679L19.5545 22.4958L19.5549 22.4962L20.2402 21.7679ZM19.7091 22.3488L20.3944 21.6206L20.3938 21.62L19.7091 22.3488ZM21.2887 23.8356L21.9749 23.1082L21.9741 23.1074L21.2887 23.8356ZM21.5691 23.941L21.531 22.9417L21.5079 22.9426L21.4848 22.9445L21.5691 23.941ZM21.8409 23.8142L21.1017 23.1407L21.1012 23.1412L21.8409 23.8142ZM24.5667 20.8221L25.3059 21.4955L25.3062 21.4952L24.5667 20.8221ZM24.5452 20.2622L25.2299 19.5334L25.229 19.5325L24.5452 20.2622ZM23.2542 19.6105L20.794 22.3109L22.2724 23.6579L24.7326 20.9574L23.2542 19.6105ZM22.2184 22.2561L20.9254 21.0396L19.5549 22.4962L20.8479 23.7127L22.2184 22.2561ZM20.9259 21.04C20.3606 20.5076 19.4721 20.5424 18.9497 21.1149L20.4271 22.463C20.1975 22.7145 19.8034 22.7303 19.5545 22.4958L20.9259 21.04ZM18.9497 21.1149C18.4371 21.6765 18.4653 22.5524 19.0243 23.0776L20.3938 21.62C20.6365 21.8481 20.6467 22.2222 20.4271 22.463L18.9497 21.1149ZM19.0237 23.077L20.6033 24.5637L21.9741 23.1074L20.3944 21.6206L19.0237 23.077ZM20.6025 24.5629C20.8597 24.8056 21.1998 24.9413 21.5543 24.9413V22.9413C21.7119 22.9413 21.8622 23.0018 21.9749 23.1082L20.6025 24.5629ZM21.5543 24.9413C21.555 24.9413 21.5676 24.9414 21.5818 24.9411C21.5966 24.9408 21.6221 24.94 21.6534 24.9374L21.4848 22.9445C21.5114 22.9423 21.5321 22.9417 21.5419 22.9415C21.5511 22.9413 21.5586 22.9413 21.5543 22.9413V24.9413ZM21.6072 24.9402C21.981 24.926 22.3309 24.7616 22.5806 24.4871L21.1012 23.1412C21.2103 23.0212 21.365 22.948 21.531 22.9417L21.6072 24.9402ZM22.5801 24.4876L25.3059 21.4955L23.8275 20.1486L21.1017 23.1407L22.5801 24.4876ZM25.3062 21.4952C25.8196 20.9312 25.7868 20.0566 25.2299 19.5334L23.8605 20.991C23.6199 20.7649 23.6067 20.3912 23.8272 20.1489L25.3062 21.4952ZM25.229 19.5325C24.6617 19.0008 23.7758 19.0403 23.2556 19.609L24.7313 20.9589C24.504 21.2074 24.1116 21.2263 23.8614 20.9918L25.229 19.5325Z" fill="white" mask="url(#path-8-inside-1_214_3223)"/>
</g>
</g>
<defs>
<filter id="filter0_d_214_3223" x="6.22339" y="0.960938" width="43.2637" height="53.0306" filterUnits="userSpaceOnUse" color-interpolation-filters="sRGB">
<feFlood flood-opacity="0" result="BackgroundImageFix"/>
<feColorMatrix in="SourceAlpha" type="matrix" values="0 0 0 0 0 0 0 0 0 0 0 0 0 0 0 0 0 0 127 0" result="hardAlpha"/>
<feOffset/>
<feGaussianBlur stdDeviation="2"/>
<feColorMatrix type="matrix" values="0 0 0 0 1 0 0 0 0 1 0 0 0 0 1 0 0 0 0.12 0"/>
<feBlend mode="normal" in2="BackgroundImageFix" result="effect1_dropShadow_214_3223"/>
<feBlend mode="normal" in="SourceGraphic" in2="effect1_dropShadow_214_3223" result="shape"/>
</filter>
<filter id="filter1_d_214_3223" x="13.1472" y="11.8198" width="17.8411" height="20.3013" filterUnits="userSpaceOnUse" color-interpolation-filters="sRGB">
<feFlood flood-opacity="0" result="BackgroundImageFix"/>
<feColorMatrix in="SourceAlpha" type="matrix" values="0 0 0 0 0 0 0 0 0 0 0 0 0 0 0 0 0 0 127 0" result="hardAlpha"/>
<feOffset/>
<feGaussianBlur stdDeviation="2"/>
<feColorMatrix type="matrix" values="0 0 0 0 1 0 0 0 0 1 0 0 0 0 1 0 0 0 0.12 0"/>
<feBlend mode="normal" in2="BackgroundImageFix" result="effect1_dropShadow_214_3223"/>
<feBlend mode="normal" in="SourceGraphic" in2="effect1_dropShadow_214_3223" result="shape"/>
</filter>
<clipPath id="clip0_214_3223">
<rect width="54" height="54" fill="white" transform="translate(0.855225 0.726318)"/>
</clipPath>
</defs>
</svg>
