<svg width="55" height="56" viewBox="0 0 55 56" fill="none" xmlns="http://www.w3.org/2000/svg">
<path d="M44.8552 27.1159V11.4489C44.8552 8.56456 42.5716 6.22632 39.7651 6.22632H15.9454C13.1342 6.22632 10.8552 8.56614 10.8552 11.4326V44.54C10.8552 47.4154 13.1331 49.7463 15.9469 49.7463H24.4552" stroke="white" stroke-width="1.5"/>
<g filter="url(#filter0_d_214_2830)">
<path d="M34.8536 48.8021L34.6206 48.6795C33.8927 48.2967 31.989 47.2242 30.2603 45.6309C28.5448 44.0496 26.9119 41.872 26.9119 39.278V32.3883V31.8724L27.4275 31.8885C28.2282 31.9136 29.7035 31.8416 31.247 31.2343L34.8536 48.8021ZM34.8536 48.8021L35.0865 48.6792M34.8536 48.8021L35.0865 48.6792M35.0865 48.6792C35.8136 48.2958 37.7171 47.2209 39.4458 45.6268C41.1612 44.0449 42.7947 41.8676 42.7947 39.278V32.3861V31.8696M35.0865 48.6792L42.7947 31.8696M34.6987 28.76L35.0632 29.1238C35.6661 29.7253 36.7573 30.6386 38.2698 31.2342L34.6987 28.76ZM34.6987 28.76L34.3458 29.1351M34.6987 28.76L34.3458 29.1351M34.3458 29.1351C33.7781 29.7388 32.7482 30.6428 31.2471 31.2342L34.3458 29.1351ZM42.7947 31.8696L42.2784 31.8864M42.7947 31.8696L42.2784 31.8864M42.2784 31.8864C41.3327 31.9173 39.8418 31.8524 38.27 31.2342L42.2784 31.8864ZM34.847 28.242L34.847 28.242L34.8516 28.2479C34.8504 28.2463 34.8587 28.257 34.8705 28.2717C34.8825 28.2866 34.8993 28.3072 34.9207 28.3329C34.9636 28.3841 35.0251 28.4556 35.1047 28.5426C35.2639 28.7165 35.4962 28.9536 35.797 29.2169C36.3973 29.7421 37.2797 30.3797 38.4084 30.8241C40.6336 31.7004 42.8422 31.4198 42.9639 31.4027L42.9639 31.4028C43.0119 31.3957 43.0745 31.4119 43.1221 31.4537C43.1707 31.4966 43.1987 31.5605 43.1987 31.619V39.278C43.1987 42.1902 41.2885 44.6221 39.2287 46.3884C37.1832 48.1425 35.0908 49.1528 34.933 49.2278L34.9321 49.2282C34.9091 49.2392 34.8785 49.2464 34.847 49.2464C34.819 49.2464 34.7929 49.2407 34.7667 49.2282L34.7662 49.2279C34.6085 49.1529 32.518 48.1425 30.4744 46.3885C28.4165 44.6223 26.5078 42.1904 26.5078 39.278V31.619C26.5078 31.5471 26.537 31.4895 26.5768 31.4547C26.6241 31.414 26.6792 31.3998 26.7326 31.4083L26.7326 31.4083C26.8558 31.427 28.8894 31.7045 31.1015 30.8341C32.234 30.3886 33.0814 29.7527 33.6471 29.227C33.9304 28.9637 34.1446 28.7266 34.2902 28.552C34.3631 28.4647 34.419 28.3928 34.458 28.3409C34.4774 28.315 34.4927 28.294 34.5036 28.2787C34.5109 28.2686 34.518 28.2584 34.5201 28.2554L34.5201 28.2554L34.5238 28.25C34.553 28.2074 34.5887 28.1737 34.6213 28.1531C34.6533 28.1329 34.6699 28.1328 34.67 28.1328H34.6701H34.6701H34.6701H34.6702H34.6702H34.6702H34.6703H34.6703H34.6703H34.6704H34.6704H34.6704H34.6705H34.6705H34.6705H34.6706H34.6706H34.6706H34.6707H34.6707H34.6707H34.6708H34.6708H34.6708H34.6709H34.6709H34.6709H34.671H34.671H34.671H34.6711H34.6711H34.6711H34.6712H34.6712H34.6712H34.6713H34.6713H34.6713H34.6714H34.6714H34.6714H34.6715H34.6715H34.6715H34.6716H34.6716H34.6716H34.6717H34.6717H34.6717H34.6718H34.6718H34.6718H34.6719H34.6719H34.6719H34.672H34.672H34.672H34.6721H34.6721H34.6721H34.6722H34.6722H34.6722H34.6723H34.6723H34.6723H34.6723H34.6724H34.6724H34.6724H34.6725H34.6725H34.6725H34.6726H34.6726H34.6726H34.6727H34.6727H34.6727H34.6728H34.6728H34.6728H34.6729H34.6729H34.6729H34.673H34.673H34.673H34.6731H34.6731H34.6731H34.6732H34.6732H34.6732H34.6733H34.6733H34.6733H34.6734H34.6734H34.6734H34.6735H34.6735H34.6735H34.6736H34.6736H34.6736H34.6737H34.6737H34.6737H34.6738H34.6738H34.6738H34.6739H34.6739H34.6739H34.674H34.674H34.674H34.6741H34.6741H34.6741H34.6742H34.6742H34.6742H34.6743H34.6743H34.6743H34.6744H34.6744H34.6744H34.6745H34.6745H34.6745H34.6746H34.6746H34.6746H34.6747H34.6747H34.6747H34.6748H34.6748H34.6748H34.6749H34.6749H34.6749H34.675H34.675H34.675H34.6751H34.6751H34.6751H34.6752H34.6752H34.6752H34.6753H34.6753H34.6753H34.6754H34.6754H34.6754H34.6755H34.6755H34.6755H34.6756H34.6756H34.6756H34.6757H34.6757H34.6757H34.6758H34.6758H34.6758H34.6759H34.6759H34.6759H34.676H34.676H34.676H34.6761H34.6761H34.6761H34.6762H34.6762H34.6762H34.6763H34.6763H34.6763H34.6764H34.6764H34.6764H34.6765H34.6765H34.6765H34.6766H34.6766H34.6766H34.6767H34.6767H34.6767H34.6768H34.6768H34.6768H34.6769H34.6769H34.6769H34.677H34.677H34.677H34.6771H34.6771H34.6771H34.6772H34.6772H34.6772H34.6773H34.6773H34.6773H34.6774H34.6774H34.6774H34.6775H34.6775H34.6775H34.6776H34.6776H34.6776H34.6777H34.6777H34.6777H34.6778H34.6778H34.6778H34.6779H34.6779H34.6779H34.678H34.678H34.678H34.6781H34.6781H34.6781H34.6782H34.6782H34.6783H34.6783H34.6783H34.6784H34.6784H34.6784H34.6785H34.6785H34.6785H34.6786H34.6786H34.6786H34.6787H34.6787H34.6787H34.6788H34.6788H34.6788H34.6789H34.6789H34.6789H34.679H34.679H34.679H34.6791H34.6791H34.6791H34.6792H34.6792H34.6792H34.6793H34.6793H34.6793H34.6794H34.6794H34.6794H34.6795H34.6795H34.6795H34.6796H34.6796H34.6796H34.6797H34.6797H34.6797H34.6798H34.6798H34.6799H34.6799H34.6799H34.68H34.68H34.68H34.6801H34.6801H34.6801H34.6802H34.6802H34.6802H34.6803H34.6803H34.6803H34.6804H34.6804H34.6804H34.6805H34.6805H34.6805H34.6806H34.6806H34.6806H34.6807H34.6807H34.6807H34.6808H34.6808H34.6808H34.6809H34.6809H34.681H34.681H34.681H34.6811H34.6811H34.6811H34.6812H34.6812H34.6812H34.6813H34.6813H34.6813H34.6814H34.6814H34.6814H34.6815H34.6815H34.6815H34.6816H34.6816H34.6816H34.6817H34.6817H34.6818H34.6818H34.6818H34.6819H34.6819H34.6819H34.682H34.682H34.682H34.6821H34.6821H34.6821H34.6822H34.6822H34.6822H34.6823H34.6823H34.6823H34.6824H34.6824H34.6824H34.6825H34.6825H34.6826H34.6826H34.6826H34.6827H34.6827H34.6827H34.6828H34.6828H34.6828H34.6829H34.6829H34.6829H34.683H34.683H34.683H34.6831H34.6831H34.6832H34.6832H34.6832H34.6833H34.6833H34.6833H34.6834H34.6834H34.6834H34.6835H34.6835H34.6835H34.6836H34.6836H34.6836H34.6837H34.6837H34.6838H34.6838H34.6838H34.6839H34.6839H34.6839H34.684H34.684H34.684H34.6841H34.6841H34.6841H34.6842H34.6842H34.6843H34.6843H34.6843H34.6844H34.6844H34.6844H34.6845H34.6845H34.6845H34.6846H34.6846H34.6846H34.6847H34.6847H34.6848H34.6848H34.6848H34.6849H34.6849H34.6849H34.685H34.685H34.685H34.6851H34.6851H34.6851H34.6852H34.6852H34.6853H34.6853H34.6853H34.6854H34.6854H34.6854H34.6855H34.6855H34.6855H34.6856H34.6856H34.6857H34.6857H34.6857H34.6858H34.6858H34.6858H34.6859H34.6859H34.6859H34.686H34.686H34.6861H34.6861H34.6861H34.6862H34.6862H34.6862H34.6863H34.6863H34.6863H34.6864H34.6864H34.6865H34.6865H34.6865H34.6866H34.6866H34.6866H34.6867H34.6867H34.6867H34.6868H34.6868H34.6869H34.6869H34.6869H34.687H34.687H34.687H34.6871H34.6871H34.6872H34.6872H34.6872H34.6873H34.6873H34.6873H34.6874H34.6874H34.6874H34.6875H34.6875H34.6876H34.6876C34.6952 28.1328 34.7162 28.1352 34.749 28.154C34.7823 28.173 34.8177 28.2035 34.847 28.242Z" fill="white" stroke="white"/>
<path d="M33.5496 40.8765L33.9197 41.2247L34.2619 40.8491L38.6839 35.9953C38.684 35.9952 38.6841 35.9951 38.6842 35.995C38.7605 35.9119 38.8842 35.908 38.9648 35.9832C39.0495 36.0631 39.0555 36.201 38.9758 36.2886L34.0758 41.6673L34.0756 41.6675C34.0389 41.7078 33.9896 41.7303 33.9378 41.7323L33.9287 41.7326C33.8803 41.7323 33.8329 41.7137 33.7959 41.6787L33.7955 41.6783L30.9558 39.0057L30.9555 39.0054C30.8716 38.9266 30.865 38.7882 30.9452 38.7003C31.0205 38.6178 31.1442 38.6133 31.225 38.6894L31.2252 38.6897L33.5496 40.8765Z" fill="white" stroke="white"/>
</g>
<circle cx="18.9796" cy="20.8778" r="1.40561" fill="white"/>
<circle cx="24.6021" cy="20.8778" r="1.40561" fill="white"/>
<circle cx="30.2245" cy="20.8778" r="1.40561" fill="white"/>
<circle cx="35.847" cy="20.8778" r="1.40561" fill="white"/>
<defs>
<filter id="filter0_d_214_2830" x="22.0078" y="23.6328" width="25.6909" height="30.1136" filterUnits="userSpaceOnUse" color-interpolation-filters="sRGB">
<feFlood flood-opacity="0" result="BackgroundImageFix"/>
<feColorMatrix in="SourceAlpha" type="matrix" values="0 0 0 0 0 0 0 0 0 0 0 0 0 0 0 0 0 0 127 0" result="hardAlpha"/>
<feOffset/>
<feGaussianBlur stdDeviation="2"/>
<feColorMatrix type="matrix" values="0 0 0 0 1 0 0 0 0 1 0 0 0 0 1 0 0 0 0.12 0"/>
<feBlend mode="normal" in2="BackgroundImageFix" result="effect1_dropShadow_214_2830"/>
<feBlend mode="normal" in="SourceGraphic" in2="effect1_dropShadow_214_2830" result="shape"/>
</filter>
</defs>
</svg>
