<svg width="55" height="55" viewBox="0 0 55 55" fill="none" xmlns="http://www.w3.org/2000/svg">
<line x1="6.78218" y1="16.822" x2="27.7052" y2="32.5143" stroke="white" stroke-width="1.5" stroke-linecap="round"/>
<line x1="28.0055" y1="32.5144" x2="48.9284" y2="16.8222" stroke="white" stroke-width="1.5" stroke-linecap="round"/>
<path fill-rule="evenodd" clip-rule="evenodd" d="M8.73218 11.2002H46.9781C47.8066 11.2002 48.4781 11.8718 48.4781 12.7002V29.365H49.9781V12.7002C49.9781 11.0433 48.635 9.7002 46.9781 9.7002H8.73218C7.07532 9.7002 5.73218 11.0433 5.73218 12.7002V42.7525C5.73218 44.4093 7.07532 45.7525 8.73218 45.7525H38.5071V44.2525H8.73218C7.90375 44.2525 7.23218 43.5809 7.23218 42.7525V12.7002C7.23218 11.8718 7.90375 11.2002 8.73218 11.2002Z" fill="white"/>
<path d="M46.1343 32.6665L46.1344 32.669C46.1375 32.7442 46.1254 32.82 46.0981 32.8911C46.0725 32.9575 46.0336 33.0197 45.9814 33.0735L44.4989 34.5976C44.2942 34.808 43.9624 34.808 43.7577 34.5976C43.553 34.3871 43.553 34.0459 43.7577 33.8355L44.3454 33.2313H40.719C38.8857 33.2313 37.3996 34.7592 37.3996 36.644C37.3996 37.7978 37.956 38.818 38.8103 39.4365C39.047 39.6079 39.1037 39.944 38.9371 40.1874C38.7704 40.4307 38.4434 40.489 38.2068 40.3177C37.0856 39.5059 36.3513 38.1632 36.3513 36.644C36.3513 34.164 38.3068 32.1536 40.719 32.1536H44.3455L43.7577 31.5493C43.553 31.3388 43.553 30.9977 43.7577 30.7872C43.9624 30.5768 44.2942 30.5768 44.4989 30.7872L45.9813 32.3113C46.0644 32.3967 46.1138 32.5037 46.1294 32.6147C46.1318 32.6319 46.1335 32.6492 46.1343 32.6665Z" fill="white"/>
<path d="M40.1955 40.9805L40.1953 40.9781C40.1922 40.9028 40.2043 40.827 40.2316 40.756C40.2572 40.6896 40.2961 40.6273 40.3484 40.5736L41.8308 39.0495C42.0355 38.8391 42.3673 38.8391 42.572 39.0495C42.7767 39.2599 42.7767 39.6011 42.572 39.8115L41.9843 40.4158L45.6107 40.4158C47.444 40.4158 48.9302 38.8878 48.9302 37.003C48.9302 35.8493 48.3738 34.829 47.5194 34.2105C47.2827 34.0392 47.226 33.703 47.3927 33.4597C47.5593 33.2164 47.8863 33.158 48.123 33.3294C49.2442 34.1411 49.9784 35.4839 49.9784 37.003C49.9784 39.483 48.0229 41.4935 45.6107 41.4935L41.9842 41.4935L42.572 42.0978C42.7767 42.3082 42.7767 42.6494 42.572 42.8598C42.3673 43.0703 42.0355 43.0703 41.8308 42.8598L40.3484 41.3357C40.2653 41.2503 40.2159 41.1433 40.2003 41.0323C40.1979 41.0151 40.1963 40.9979 40.1955 40.9805Z" fill="white"/>
</svg>
