<svg width="54" height="55" viewBox="0 0 54 55" fill="none" xmlns="http://www.w3.org/2000/svg">
<path d="M25.8706 47.8175C24.6774 47.1928 23.2179 46.6278 21.6724 46.0295C15.9596 43.8187 8.85186 41.0668 9.00235 33.1361V9.30695L12.5043 9.30456C16.8506 9.30217 20.5831 9.0609 25.7213 6.04389L27.4998 5L29.2782 6.04389C34.4176 9.05971 38.1501 9.30217 42.4953 9.30456L45.9972 9.30695V33.1265C46.162 41.062 39.0459 43.8163 33.3284 46.0295C31.7828 46.6278 30.3221 47.1928 29.1289 47.8175L27.4986 48.6714L25.8706 47.8175Z" stroke="white" stroke-miterlimit="10" stroke-linecap="square" stroke-linejoin="round"/>
<path d="M27.5009 44.4362C26.1477 43.7387 24.632 43.151 23.0291 42.5311C20.4325 41.5267 17.4944 40.3884 15.4663 38.7844C13.5457 37.2651 12.7097 35.5452 12.7539 33.2066L12.7551 33.1349V13.055C17.3833 13.0418 21.7225 12.711 27.5009 9.34998C33.2793 12.711 37.6185 13.043 42.2468 13.0561V33.166L42.248 33.2054C42.2969 35.544 41.4621 37.2639 39.5427 38.7832C37.5146 40.3884 34.5729 41.5279 31.9763 42.5323C30.371 43.151 28.8541 43.7387 27.5009 44.4362Z" stroke="white" stroke-miterlimit="10" stroke-linecap="square" stroke-linejoin="round"/>
<path d="M34.583 27.9202C35.1821 23.7857 32.3161 19.9484 28.1816 19.3494C24.0471 18.7503 20.2099 21.6163 19.6108 25.7508C19.0118 29.8853 21.8778 33.7226 26.0122 34.3216C30.1467 34.9207 33.984 32.0547 34.583 27.9202Z" stroke="white" stroke-miterlimit="10" stroke-linecap="round" stroke-linejoin="round"/>
<path d="M30.8787 20.2857L32.2892 17.8431" stroke="white" stroke-miterlimit="10" stroke-linecap="round" stroke-linejoin="round"/>
<path d="M30.9404 17.0631L33.635 18.6194" stroke="white" stroke-miterlimit="10" stroke-linecap="round" stroke-linejoin="round"/>
<path d="M25.1399 19.5298L24.4089 16.8054" stroke="white" stroke-miterlimit="10" stroke-linecap="round" stroke-linejoin="round"/>
<path d="M22.905 17.2077L25.9113 16.4027" stroke="white" stroke-miterlimit="10" stroke-linecap="round" stroke-linejoin="round"/>
<path d="M20.546 23.0544L18.1035 21.6438" stroke="white" stroke-miterlimit="10" stroke-linecap="round" stroke-linejoin="round"/>
<path d="M17.3247 22.9921L18.881 20.2964" stroke="white" stroke-miterlimit="10" stroke-linecap="round" stroke-linejoin="round"/>
<path d="M36.0897 32.0277L33.6472 30.6183" stroke="white" stroke-miterlimit="10" stroke-linecap="round" stroke-linejoin="round"/>
<path d="M35.311 33.3774L36.8673 30.6816" stroke="white" stroke-miterlimit="10" stroke-linecap="round" stroke-linejoin="round"/>
<path d="M19.7913 28.7933L17.0657 29.5243" stroke="white" stroke-miterlimit="10" stroke-linecap="round" stroke-linejoin="round"/>
<path d="M17.4693 31.028L16.6631 28.0217" stroke="white" stroke-miterlimit="10" stroke-linecap="round" stroke-linejoin="round"/>
<path d="M21.9053 35.8296L23.3146 33.3859" stroke="white" stroke-miterlimit="10" stroke-linecap="round" stroke-linejoin="round"/>
<path d="M23.2526 36.6082L20.5569 35.0519" stroke="white" stroke-miterlimit="10" stroke-linecap="round" stroke-linejoin="round"/>
<path d="M29.7847 36.8673L29.0549 34.1417" stroke="white" stroke-miterlimit="10" stroke-linecap="round" stroke-linejoin="round"/>
<path d="M31.2882 36.4635L28.282 37.2697" stroke="white" stroke-miterlimit="10" stroke-linecap="round" stroke-linejoin="round"/>
<path d="M37.1277 24.1483L34.4021 24.8781" stroke="white" stroke-miterlimit="10" stroke-linecap="round" stroke-linejoin="round"/>
<path d="M36.7241 22.6436L37.5303 25.651" stroke="white" stroke-miterlimit="10" stroke-linecap="round" stroke-linejoin="round"/>
<path d="M24.2009 23.8761C24.263 22.8466 25.1481 22.063 26.1764 22.1252C26.6912 22.1562 27.1439 22.3927 27.4604 22.751" stroke="white" stroke-miterlimit="10" stroke-linecap="round" stroke-linejoin="round"/>
<path d="M30.69 25.8873C31.6706 26.4797 31.9847 27.7542 31.3935 28.7347C31.0973 29.2244 30.6303 29.5493 30.1155 29.6759" stroke="white" stroke-miterlimit="10" stroke-linecap="round" stroke-linejoin="round"/>
<path d="M25.7848 31.1404C24.9105 31.4522 23.9502 30.9959 23.6385 30.1228C23.482 29.6857 23.5191 29.227 23.703 28.8389" stroke="white" stroke-miterlimit="10" stroke-linecap="round" stroke-linejoin="round"/>
<path d="M28.121 27.4937C27.7687 28.1041 26.9887 28.3131 26.3784 27.9607C25.7681 27.6084 25.5591 26.8285 25.9114 26.2181C26.2638 25.6078 27.0437 25.3988 27.654 25.7511C28.2643 26.1035 28.4734 26.8834 28.121 27.4937Z" stroke="white" stroke-miterlimit="10" stroke-linecap="square" stroke-linejoin="round"/>
</svg>
