<svg width="54" height="55" viewBox="0 0 54 55" fill="none" xmlns="http://www.w3.org/2000/svg">
<g clip-path="url(#clip0_118_450)">
<path d="M38 47V41.5C38 39.98 33.6 38 30 38C26.4 38 22 39.98 22 41.5V47" fill="white"/>
<path d="M38 47V41.5C38 39.98 33.6 38 30 38C26.4 38 22 39.98 22 41.5V47" stroke="white" stroke-width="1.3" stroke-miterlimit="10"/>
<path d="M30.5 25C28.1713 25 26 26.45 26 28.24V30.76C26 32.55 28.1713 34 30.5 34C32.8287 34 35 32.55 35 30.76V28.24C35 26.45 32.8287 25 30.5 25Z" fill="white" stroke="white" stroke-width="1.3" stroke-miterlimit="10"/>
<path fill-rule="evenodd" clip-rule="evenodd" d="M8.5 7C8.22386 7 8 7.22386 8 7.5V29.5C8 29.7761 8.22386 30 8.5 30H12.0858C12.4836 30 12.8651 30.158 13.1464 30.4393L13.3731 30.666L18.8768 37.5456L18.1444 31.6861C18.0325 30.7908 18.7305 30 19.6328 30H22.5V31H19.6328C19.332 31 19.0993 31.2636 19.1366 31.562L19.9526 38.0896C20.013 38.573 19.6361 39 19.1489 39C18.9029 39 18.6702 38.8882 18.5165 38.696L12.6269 31.334L12.4393 31.1464C12.3456 31.0527 12.2184 31 12.0858 31H8.5C7.67157 31 7 30.3284 7 29.5V7.5C7 6.67157 7.67157 6 8.5 6H45.5C46.3284 6 47 6.67157 47 7.5V29C47 30 46.5 31 45.5 31H41H37V30H41.5H45.5C46 30 46 29.5 46 29V7.5C46 7.22386 45.7761 7 45.5 7H8.5Z" fill="white" stroke="white" stroke-width="0.3"/>
<line x1="17" y1="47.5" x2="43" y2="47.5" stroke="white"/>
<path fill-rule="evenodd" clip-rule="evenodd" d="M25.5 48C25.2239 48 25 47.7761 25 47.5V43.5C25 43.2239 25.2239 43 25.5 43V43C25.7761 43 26 43.2239 26 43.5V47.5C26 47.7761 25.7761 48 25.5 48V48Z" fill="white"/>
<path fill-rule="evenodd" clip-rule="evenodd" d="M34.5 48C34.2239 48 34 47.7761 34 47.5V43.5C34 43.2239 34.2239 43 34.5 43V43C34.7761 43 35 43.2239 35 43.5V47.5C35 47.7761 34.7761 48 34.5 48V48Z" fill="white"/>
<path d="M14.7913 23.192C14.7913 22.856 14.8513 22.576 14.9713 22.352C15.0993 22.128 15.2553 21.936 15.4393 21.776C15.6313 21.616 15.8353 21.476 16.0513 21.356C16.2753 21.228 16.4793 21.096 16.6633 20.96C16.8553 20.824 17.0113 20.668 17.1313 20.492C17.2593 20.308 17.3233 20.08 17.3233 19.808C17.3233 19.464 17.1833 19.188 16.9033 18.98C16.6313 18.764 16.2153 18.656 15.6553 18.656C15.2233 18.656 14.8553 18.704 14.5513 18.8C14.2473 18.896 13.9673 19.024 13.7113 19.184V17.828C13.9433 17.732 14.2353 17.652 14.5873 17.588C14.9473 17.524 15.3513 17.492 15.7993 17.492C16.7033 17.492 17.3993 17.668 17.8873 18.02C18.3833 18.364 18.6313 18.928 18.6313 19.712C18.6313 20.096 18.5633 20.42 18.4273 20.684C18.2993 20.94 18.1353 21.16 17.9353 21.344C17.7433 21.528 17.5313 21.688 17.2993 21.824C17.0753 21.952 16.8633 22.084 16.6633 22.22C16.4713 22.348 16.3073 22.488 16.1713 22.64C16.0433 22.792 15.9793 22.976 15.9793 23.192H14.7913ZM14.4913 25.268C14.4913 25.02 14.5553 24.816 14.6833 24.656C14.8193 24.488 15.0513 24.404 15.3793 24.404C15.7073 24.404 15.9393 24.488 16.0753 24.656C16.2113 24.816 16.2793 25.02 16.2793 25.268C16.2793 25.516 16.2113 25.724 16.0753 25.892C15.9473 26.052 15.7153 26.132 15.3793 26.132C15.0593 26.132 14.8313 26.048 14.6953 25.88C14.5593 25.712 14.4913 25.508 14.4913 25.268Z" fill="white"/>
<path d="M35.7913 17.192C35.7913 16.856 35.8513 16.576 35.9713 16.352C36.0993 16.128 36.2553 15.936 36.4393 15.776C36.6313 15.616 36.8353 15.476 37.0513 15.356C37.2753 15.228 37.4793 15.096 37.6633 14.96C37.8553 14.824 38.0113 14.668 38.1313 14.492C38.2593 14.308 38.3233 14.08 38.3233 13.808C38.3233 13.464 38.1833 13.188 37.9033 12.98C37.6313 12.764 37.2153 12.656 36.6553 12.656C36.2233 12.656 35.8553 12.704 35.5513 12.8C35.2473 12.896 34.9673 13.024 34.7113 13.184V11.828C34.9433 11.732 35.2353 11.652 35.5873 11.588C35.9473 11.524 36.3513 11.492 36.7993 11.492C37.7033 11.492 38.3993 11.668 38.8873 12.02C39.3833 12.364 39.6313 12.928 39.6313 13.712C39.6313 14.096 39.5633 14.42 39.4273 14.684C39.2993 14.94 39.1353 15.16 38.9353 15.344C38.7433 15.528 38.5313 15.688 38.2993 15.824C38.0753 15.952 37.8633 16.084 37.6633 16.22C37.4713 16.348 37.3073 16.488 37.1713 16.64C37.0433 16.792 36.9793 16.976 36.9793 17.192H35.7913ZM35.4913 19.268C35.4913 19.02 35.5553 18.816 35.6833 18.656C35.8193 18.488 36.0513 18.404 36.3793 18.404C36.7073 18.404 36.9393 18.488 37.0753 18.656C37.2113 18.816 37.2793 19.02 37.2793 19.268C37.2793 19.516 37.2113 19.724 37.0753 19.892C36.9473 20.052 36.7153 20.132 36.3793 20.132C36.0593 20.132 35.8313 20.048 35.6953 19.88C35.5593 19.712 35.4913 19.508 35.4913 19.268Z" fill="white"/>
</g>
<defs>
<clipPath id="clip0_118_450">
<rect width="54" height="55" fill="white"/>
</clipPath>
</defs>
</svg>
