<svg width="54" height="55" viewBox="0 0 54 55" fill="none" xmlns="http://www.w3.org/2000/svg">
<path fill-rule="evenodd" clip-rule="evenodd" d="M17.65 6.9C15.5789 6.9 13.9 8.57893 13.9 10.65V42.65C13.9 44.7211 15.5789 46.4 17.65 46.4H32.2786C34.3496 46.4 36.0286 44.7211 36.0286 42.65V38.65H34.5286V42.65C34.5286 43.8926 33.5212 44.9 32.2786 44.9H17.65C16.4074 44.9 15.4 43.8926 15.4 42.65V10.65C15.4 9.40736 16.4074 8.4 17.65 8.4H32.2786C33.5212 8.4 34.5286 9.40736 34.5286 10.65V15.65H36.0286V10.65C36.0286 8.57893 34.3496 6.9 32.2786 6.9H17.65Z" fill="white"/>
<path fill-rule="evenodd" clip-rule="evenodd" d="M39.6499 36.8334C39.6499 37.0267 39.4932 37.1834 39.2999 37.1834H18.9999C18.8066 37.1834 18.6499 37.0267 18.6499 36.8334V36.8334C18.6499 36.6401 18.8066 36.4834 18.9999 36.4834H39.2999C39.4932 36.4834 39.6499 36.6401 39.6499 36.8334V36.8334Z" fill="white"/>
<path d="M25.6499 36.4833V32.1167C25.6499 31.951 25.7842 31.8167 25.9499 31.8167H27.6832C27.8489 31.8167 27.9832 31.951 27.9832 32.1167V36.4833" stroke="white" stroke-width="0.6"/>
<path d="M20.9832 36.4833V29.7833C20.9832 29.6176 21.1175 29.4833 21.2832 29.4833H23.0165C23.1822 29.4833 23.3165 29.6176 23.3165 29.7833V36.4833" stroke="white" stroke-width="0.6"/>
<path d="M30.3167 36.4834V26.2834C30.3167 26.1177 30.451 25.9834 30.6167 25.9834H32.35C32.5157 25.9834 32.65 26.1177 32.65 26.2834V36.4834" stroke="white" stroke-width="0.6"/>
<path d="M34.9832 36.4833V21.6167C34.9832 21.451 35.1175 21.3167 35.2832 21.3167H37.0165C37.1822 21.3167 37.3165 21.451 37.3165 21.6167V36.4833" stroke="white" stroke-width="0.6"/>
<circle cx="22.7332" cy="25.4" r="1.45" stroke="white" stroke-width="0.6"/>
<circle cx="26.2332" cy="28.9" r="1.45" stroke="white" stroke-width="0.6"/>
<circle cx="30.8999" cy="23.0667" r="1.45" stroke="white" stroke-width="0.6"/>
<circle cx="34.3999" cy="18.4" r="1.45" stroke="white" stroke-width="0.6"/>
<path d="M23.8999 26.5667L25.0666 27.7333" stroke="white" stroke-width="0.6"/>
<path d="M27.4001 27.7334L29.9933 24.3314" stroke="white" stroke-width="0.6"/>
<path d="M32.0666 21.9001L33.6476 19.7357" stroke="white" stroke-width="0.6"/>
</svg>
