<svg width="54" height="55" fill="none" xmlns="http://www.w3.org/2000/svg"><path d="M24.935 9.425s-.819-1.694.527-1.917c1.582-.261 1.67 3.66 1.582 5.926 0 0 0-4.88 1.143-5.752 1.143-.871 1.758.785 1.23 1.656M15.705 10.732s2.9.959 2.725 4.706M18.782 8.815s-.176 3.573 2.637 4.793M17.111 13.085l2.989-1.83M9.2 20.23v-1.916h1.23V16.57h1.056v-1.743h.967M11.222 21.19v-1.918h1.23v-1.743h1.056v-1.742h.967M7.706 29.032s-.264-1.22 2.198-.959" stroke="#fff" stroke-width=".5" stroke-miterlimit="10" stroke-linecap="round" stroke-linejoin="round"/><path d="M12.365 28.335s.176-1.83-2.989-1.569c-3.164.262-2.159 1.175-.947 1.372" stroke="#fff" stroke-width=".5" stroke-miterlimit="10" stroke-linecap="round" stroke-linejoin="round"/><path d="M10.827 26.766c.558 0 1.01-.448 1.01-1.002 0-.553-.452-1.002-1.01-1.002-.559 0-1.011.449-1.011 1.002 0 .554.452 1.002 1.01 1.002ZM14.123 36.09l-5.274-1.307M10.694 33.737 8.85 34.783l1.142 1.743M12.717 34.347l-.528 2.527M21.418 40.883 20.1 43.062c-.264.435-.967 1.307-1.495 1.394-.527.087-.79-.523-.44-1.307 0 0-1.23 1.133-1.493.087-.264-1.046.79-2.353 1.758-3.573.966-1.22-.352-1.394-.352-1.394M20.276 40.099l-2.11 3.05" stroke="#fff" stroke-width=".5" stroke-miterlimit="10" stroke-linecap="round" stroke-linejoin="round"/><path d="M19.354 43.987s-.133.556.22.992M36.35 39.057l1.56 2.017c.311.403.87 1.372.758 1.89-.113.518-.782.537-1.388-.075 0 0 .4 1.567-.468 1.41-1.11-.202-1.74-1.595-2.53-2.935-.788-1.34-1.613-1.527-1.613-1.527M35.195 39.822l2.085 3.067" stroke="#fff" stroke-width=".5" stroke-miterlimit="10" stroke-linecap="round" stroke-linejoin="round"/><path d="M38.503 42.102s.473.327 1.01.163M18.606 37.659l-.967.436.352.697M24.32 42.626h5.45M24.32 44.456h2.02s-.966.784-.35 1.83c.615 1.045 2.021.871 2.549.087.527-.784 0-1.743-.352-1.917h1.582M35.013 42.626s.558 1.046-.497 1.133c-1.055.087-1.846-2.876-.264-4.444M42.339 34.696c.63 0 1.142-.507 1.142-1.133 0-.625-.511-1.133-1.142-1.133-.631 0-1.143.508-1.143 1.133 0 .626.512 1.133 1.143 1.133Z" stroke="#fff" stroke-width=".5" stroke-miterlimit="10" stroke-linecap="round" stroke-linejoin="round"/><path d="M38.999 36.264s-.616-.697 0-1.394c.615-.697 1.494-.349 1.845.697.352 1.046 1.332 2.887 3.077 1.83 1.582-.958.528-3.05-1.582-2.701M45.767 26.069c.63 0 1.142-.507 1.142-1.133s-.511-1.133-1.142-1.133c-.631 0-1.143.507-1.143 1.133s.512 1.133 1.143 1.133ZM44.36 29.729c.631 0 1.143-.507 1.143-1.133s-.512-1.133-1.143-1.133c-.63 0-1.142.507-1.142 1.133s.511 1.133 1.142 1.133Z" stroke="#fff" stroke-width=".5" stroke-miterlimit="10" stroke-linecap="round" stroke-linejoin="round"/><path d="M46.856 24.594s1.108 2.956-.562 4.96M43.33 29.087s-1.167-3.28.503-5.022M42.954 14.567s.44 3.05 2.813 4.967M38.12 17.442s2.022 1.743 2.725 4.706M43.287 15.839l-4.024 2.474M44.624 18.36l-4.218 2.43M35.087 15.176c1.044 0 1.89-.838 1.89-1.873a1.882 1.882 0 0 0-1.89-1.874c-1.043 0-1.89.839-1.89 1.874 0 1.034.847 1.873 1.89 1.873Z" stroke="#fff" stroke-width=".5" stroke-miterlimit="10" stroke-linecap="round" stroke-linejoin="round"/><path d="M34.428 8.38s.527.348.615 1.132c.088.785-.183 1.57 1.007 2.18 1.19.609 2.333-.873 3.388-.437" stroke="#fff" stroke-width=".5" stroke-miterlimit="10" stroke-linecap="round" stroke-linejoin="round"/><path d="M48.263 21.196a21.738 21.738 0 0 0-5.69-9.791 22.006 22.006 0 0 0-9.65-5.605A22.18 22.18 0 0 0 27 5c-1.937 0-3.814.248-5.604.715h0a22.022 22.022 0 0 0-9.818 5.54 21.745 21.745 0 0 0-5.841 9.94A21.612 21.612 0 0 0 5 26.81c0 1.944.257 3.828.739 5.621a21.75 21.75 0 0 0 5.839 9.933A22.02 22.02 0 0 0 27 48.62a22.03 22.03 0 0 0 15.683-6.515v0a21.727 21.727 0 0 0 5.574-9.657h0c.485-1.798.742-3.688.742-5.638 0-1.941-.255-3.823-.736-5.613Zm-18.67 13.713a8.615 8.615 0 0 1-2.593.397 8.565 8.565 0 0 1-6.02-2.45h-.002a8.472 8.472 0 0 1-2.272-3.898 8.436 8.436 0 0 1-.276-2.149 8.457 8.457 0 0 1 2.55-6.045 8.567 8.567 0 0 1 6.02-2.45 8.598 8.598 0 0 1 6.196 2.627h0a8.438 8.438 0 0 1 2.078 8.09 8.465 8.465 0 0 1-2.226 3.798 8.566 8.566 0 0 1-3.455 2.08Z" stroke="#fff" stroke-miterlimit="10" stroke-linecap="round" stroke-linejoin="round"/><path d="m42.573 11.405-9.376 9.536h-.001a8.554 8.554 0 0 0-3.511-2.202l-.091-.425L32.924 5.8a22.01 22.01 0 0 1 9.649 5.605ZM24.67 18.314l-.04.329a8.567 8.567 0 0 0-3.65 2.121h-.001l-9.401-9.508a22.02 22.02 0 0 1 9.818-5.541h0l3.275 12.599ZM18.43 26.81c0 .742.096 1.462.276 2.149l-.1.16L5.738 32.43A21.624 21.624 0 0 1 5 26.81c0-1.942.255-3.824.736-5.614l12.99 3.397a8.397 8.397 0 0 0-.296 2.217ZM24.688 35.131l-3.31 12.77a22.021 22.021 0 0 1-9.8-5.538l9.4-9.508h.002a8.568 8.568 0 0 0 3.694 2.134l.014.142ZM42.684 42.104v0a22.031 22.031 0 0 1-9.87 5.746l-3.22-12.94v0a8.57 8.57 0 0 0 3.454-2.08h0l9.636 9.274ZM49 26.81c0 1.95-.258 3.84-.742 5.637l-12.983-3.415-.001-.001a8.42 8.42 0 0 0 .296-2.221c0-.767-.102-1.51-.295-2.217l12.989-3.397c.48 1.79.736 3.672.736 5.614Z" stroke="#fff" stroke-miterlimit="10" stroke-linecap="round" stroke-linejoin="round"/><path d="M35.57 26.81a8.422 8.422 0 0 1-2.522 6.02A8.568 8.568 0 0 1 27 35.306a8.566 8.566 0 0 1-6.02-2.45h-.002a8.472 8.472 0 0 1-2.272-3.897 8.431 8.431 0 0 1-.276-2.15 8.457 8.457 0 0 1 2.55-6.045 8.567 8.567 0 0 1 6.02-2.45 8.595 8.595 0 0 1 6.196 2.627h0a8.439 8.439 0 0 1 2.374 5.869Z" stroke="#fff" stroke-miterlimit="10" stroke-linecap="round" stroke-linejoin="round"/><path d="M27.006 28.629a2.026 2.026 0 0 0 2.035-2.017 2.026 2.026 0 0 0-2.035-2.017 2.026 2.026 0 0 0-2.035 2.017c0 1.114.912 2.017 2.035 2.017ZM27.044 20.702l-1.365 2.345h2.73l-1.365-2.345ZM27.044 32.522l-1.365-2.345h2.73l-1.365 2.345ZM32.226 29.534l-1.38-2.336-1.351 2.353 2.73-.017ZM21.862 23.69l2.731-.018-1.35 2.353-1.38-2.335ZM32.13 23.528l-2.73.069 1.425 2.309 1.305-2.378ZM21.959 29.696l1.305-2.378 1.425 2.309-2.73.069Z" stroke="#fff" stroke-width=".5" stroke-miterlimit="10" stroke-linecap="round" stroke-linejoin="round"/></svg>