<svg width="54" height="55" viewBox="0 0 54 55" fill="none" xmlns="http://www.w3.org/2000/svg">
<path d="M45.7661 29.9654C45.5732 29.9654 45.3788 29.8939 45.2279 29.7477C44.9199 29.4506 44.9106 28.9606 45.2077 28.6527C48.1816 25.5729 49.4493 23.0003 49.4493 20.0512C49.4493 14.6337 45.4115 10.5492 40.0546 10.5492C32.8624 10.5492 30.6568 18.7633 30.635 18.8458C30.5479 19.188 30.2384 19.4259 29.8869 19.4259C29.5338 19.4259 29.2258 19.188 29.1372 18.8458C29.0485 18.5082 26.888 10.5492 19.7176 10.5492C14.3623 10.5492 10.3229 14.6337 10.3229 20.0512C10.3229 21.2333 10.5297 22.3439 10.9544 23.4451C11.1084 23.8449 10.9093 24.2928 10.5111 24.4468C10.1113 24.6008 9.66338 24.4033 9.50939 24.0035C9.01477 22.7203 8.77368 21.4278 8.77368 20.0512C8.77524 13.7502 13.4804 9 19.7191 9C25.639 9 28.6316 13.6756 29.8884 16.452C31.1436 13.6756 34.1363 9 40.0562 9C46.2949 9 51.0001 13.7502 51.0001 20.0512C51.0001 23.3938 49.5582 26.3771 46.3245 29.7274C46.172 29.8861 45.9698 29.9654 45.7661 29.9654Z" fill="white" fill-opacity="0.96" stroke="white" stroke-opacity="0.96" stroke-width="0.1"/>
<path d="M29.8868 44.0465C29.6939 44.0465 29.4995 43.9734 29.3486 43.8288C26.1304 40.7257 23.0476 38.1422 20.3272 35.8604L20.1934 35.7499C19.8652 35.4746 19.8232 34.9862 20.097 34.658C20.3723 34.3314 20.8607 34.2863 21.1889 34.5616L21.3211 34.672C23.9093 36.8418 26.8242 39.2854 29.8852 42.1971C30.229 41.8705 30.5712 41.5501 30.9102 41.2343C31.2229 40.945 31.7113 40.9606 32.0052 41.2748C32.2961 41.5874 32.279 42.0774 31.9648 42.3698C31.4562 42.8426 30.9413 43.3295 30.4234 43.8288C30.2741 43.9734 30.0812 44.0465 29.8868 44.0465Z" fill="white" fill-opacity="0.96" stroke="white" stroke-opacity="0.96" stroke-width="0.1"/>
<path d="M31.4392 42.5782C31.2308 42.5782 31.0239 42.4942 30.8715 42.3309C30.5806 42.0167 30.5977 41.5267 30.9119 41.2359C32.2791 39.9651 33.7086 38.6974 35.4117 37.24C35.7368 36.9631 36.2268 37.0005 36.5036 37.324C36.7821 37.6491 36.7432 38.1375 36.4197 38.4159C34.7336 39.8578 33.3197 41.1145 31.9681 42.3682C31.8187 42.5082 31.629 42.5782 31.4392 42.5782Z" fill="white" fill-opacity="0.96" stroke="white" stroke-opacity="0.96" stroke-width="0.1"/>
<path d="M35.9156 38.6043C35.6979 38.6043 35.4801 38.5125 35.3277 38.3336C35.0493 38.0085 35.0881 37.5201 35.4117 37.2417C36.4647 36.3411 37.4835 35.4872 38.4587 34.6706L39.3842 33.8945C39.714 33.6207 40.2023 33.6643 40.4761 33.9894C40.7514 34.3175 40.7094 34.8059 40.3812 35.0813L39.4542 35.859C38.4836 36.6724 37.4679 37.5233 36.4196 38.4207C36.2734 38.542 36.0929 38.6043 35.9156 38.6043Z" fill="white" fill-opacity="0.96" stroke="white" stroke-opacity="0.96" stroke-width="0.1"/>
<path d="M39.8834 35.26C39.6625 35.26 39.4432 35.1667 39.2892 34.9847C39.0139 34.6565 39.0559 34.1681 39.3841 33.8928C41.5259 32.0932 43.5821 30.3371 45.2091 28.6526C45.5077 28.3462 45.9977 28.3369 46.3041 28.6324C46.6121 28.9295 46.6214 29.4194 46.3243 29.7274C44.646 31.4663 42.5556 33.2504 40.3811 35.078C40.2349 35.1993 40.0591 35.26 39.8834 35.26Z" fill="white" fill-opacity="0.96" stroke="white" stroke-opacity="0.96" stroke-width="0.1"/>
<path d="M26.2798 35.8759C25.936 35.8759 25.6343 35.6504 25.5363 35.3207L21.1407 20.4556L18.7951 27.1019C18.6847 27.4114 18.3922 27.6182 18.0641 27.6182H4.7746C4.34686 27.6182 4 27.2714 4 26.8437C4 26.4159 4.34686 26.0691 4.7746 26.0691H17.5181L20.4765 17.6869C20.5885 17.3712 20.8934 17.1939 21.2278 17.1705C21.5622 17.1799 21.8546 17.4038 21.9495 17.7258L26.2766 32.3576L27.9534 26.6259C28.0498 26.2961 28.3531 26.0691 28.6969 26.0691H41.7452C42.173 26.0691 42.5198 26.4159 42.5198 26.8437C42.5198 27.2714 42.173 27.6182 41.7452 27.6182H29.277L27.0232 35.3191C26.9268 35.6489 26.6251 35.8759 26.2798 35.8759Z" fill="white" fill-opacity="0.96" stroke="white" stroke-opacity="0.96" stroke-width="0.1"/>
</svg>
