<svg width="54" height="55" viewBox="0 0 54 55" fill="none" xmlns="http://www.w3.org/2000/svg">
<g clip-path="url(#clip0_116_164)">
<path d="M40.2485 11.7455H40.2479C38.961 11.7455 37.7865 12.2347 36.9 13.0374C35.8906 13.9515 35.2562 15.2718 35.2557 16.7381C35.2557 18.0252 35.7456 19.2 36.5478 20.0865L36.5484 20.086C37.4625 21.0954 38.7829 21.7306 40.2486 21.7306C41.5356 21.7305 42.7103 21.2406 43.5968 20.4383L43.5963 20.4378C44.6057 19.5237 45.2409 18.2033 45.2409 16.7375C45.2409 16.6932 45.2399 16.6488 45.2389 16.6045L46.6363 15.5746C46.7046 15.9524 46.7403 16.3409 46.7403 16.7381C46.7403 18.5309 46.0134 20.1542 44.8386 21.3286C43.6635 22.5037 42.0406 23.2305 40.2481 23.2305L40.2322 23.2305C38.446 23.2261 36.829 22.5001 35.6578 21.3286C34.4827 20.1535 33.7559 18.5305 33.7559 16.7381C33.7559 14.9456 34.4824 13.3225 35.6571 12.1477C36.8322 10.9726 38.4554 10.2461 40.2479 10.2461H40.2485C41.7933 10.2461 43.2116 10.7855 44.326 11.6863L43.0632 12.6167C42.3254 12.1115 41.4459 11.7984 40.4972 11.752C40.4529 11.7498 40.4084 11.7485 40.3638 11.7472C40.3255 11.7464 40.2871 11.7454 40.2485 11.7455Z" fill="white"/>
<path d="M46.1637 14.059C45.9542 13.5976 45.6922 13.1648 45.3858 12.7686L40.2484 16.555L37.7769 15.0057V16.8696L40.2484 18.4189L46.1637 14.059Z" fill="white"/>
</g>
<path d="M46.6806 46.4942H7.3795C6.97972 46.4942 6.65527 46.1698 6.65527 45.77V7.72422C6.65527 7.32445 6.97972 7 7.3795 7H28.5268C28.9266 7 29.251 7.32445 29.251 7.72422V28.437H46.6806C47.0804 28.437 47.4048 28.7614 47.4048 29.1612V45.77C47.4048 46.1698 47.0804 46.4942 46.6806 46.4942ZM8.10372 45.0458H45.9564V29.8854H28.5268C28.127 29.8854 27.8026 29.561 27.8026 29.1612V8.44844H8.10372V45.0458Z" fill="white"/>
<path d="M49.1432 46.4942H4.72422C4.32445 46.4942 4 46.1698 4 45.77C4 45.3702 4.32445 45.0458 4.72422 45.0458H49.1432C49.543 45.0458 49.8674 45.3702 49.8674 45.77C49.8674 46.1698 49.543 46.4942 49.1432 46.4942Z" fill="white"/>
<path d="M17.7606 12.5041H16.119C15.7192 12.5041 15.3948 12.1797 15.3948 11.7799C15.3948 11.3801 15.7192 11.0557 16.119 11.0557H17.7606C18.1603 11.0557 18.4848 11.3801 18.4848 11.7799C18.4848 12.1797 18.1603 12.5041 17.7606 12.5041Z" fill="white"/>
<path d="M12.3531 12.5041H10.7115C10.3118 12.5041 9.9873 12.1797 9.9873 11.7799C9.9873 11.3801 10.3118 11.0557 10.7115 11.0557H12.3531C12.7529 11.0557 13.0773 11.3801 13.0773 11.7799C13.0773 12.1797 12.7529 12.5041 12.3531 12.5041Z" fill="white"/>
<path d="M28.479 12.5041H21.5265C21.1267 12.5041 20.8022 12.1797 20.8022 11.7799C20.8022 11.3801 21.1267 11.0557 21.5265 11.0557H28.479C28.8788 11.0557 29.2032 11.3801 29.2032 11.7799C29.2032 12.1797 28.8788 12.5041 28.479 12.5041Z" fill="white"/>
<path d="M17.7606 16.8493H16.119C15.7192 16.8493 15.3948 16.5249 15.3948 16.1251C15.3948 15.7253 15.7192 15.4009 16.119 15.4009H17.7606C18.1603 15.4009 18.4848 15.7253 18.4848 16.1251C18.4848 16.5249 18.1603 16.8493 17.7606 16.8493Z" fill="white"/>
<path d="M12.3531 16.8493H10.7115C10.3118 16.8493 9.9873 16.5249 9.9873 16.1251C9.9873 15.7253 10.3118 15.4009 10.7115 15.4009H12.3531C12.7529 15.4009 13.0773 15.7253 13.0773 16.1251C13.0773 16.5249 12.7529 16.8493 12.3531 16.8493Z" fill="white"/>
<path d="M28.479 16.8493H21.5265C21.1267 16.8493 20.8022 16.5249 20.8022 16.1251C20.8022 15.7253 21.1267 15.4009 21.5265 15.4009H28.479C28.8788 15.4009 29.2032 15.7253 29.2032 16.1251C29.2032 16.5249 28.8788 16.8493 28.479 16.8493Z" fill="white"/>
<path d="M17.7606 21.1948H16.119C15.7192 21.1948 15.3948 20.8703 15.3948 20.4706C15.3948 20.0708 15.7192 19.7463 16.119 19.7463H17.7606C18.1603 19.7463 18.4848 20.0708 18.4848 20.4706C18.4848 20.8703 18.1603 21.1948 17.7606 21.1948Z" fill="white"/>
<path d="M12.3531 21.1948H10.7115C10.3118 21.1948 9.9873 20.8703 9.9873 20.4706C9.9873 20.0708 10.3118 19.7463 10.7115 19.7463H12.3531C12.7529 19.7463 13.0773 20.0708 13.0773 20.4706C13.0773 20.8703 12.7529 21.1948 12.3531 21.1948Z" fill="white"/>
<path d="M28.479 21.1948H21.5265C21.1267 21.1948 20.8022 20.8703 20.8022 20.4706C20.8022 20.0708 21.1267 19.7463 21.5265 19.7463H28.479C28.8788 19.7463 29.2032 20.0708 29.2032 20.4706C29.2032 20.8703 28.8788 21.1948 28.479 21.1948Z" fill="white"/>
<path d="M17.7606 25.54H16.119C15.7192 25.54 15.3948 25.2155 15.3948 24.8158C15.3948 24.416 15.7192 24.0916 16.119 24.0916H17.7606C18.1603 24.0916 18.4848 24.416 18.4848 24.8158C18.4848 25.2155 18.1603 25.54 17.7606 25.54Z" fill="white"/>
<path d="M12.3531 25.54H10.7115C10.3118 25.54 9.9873 25.2155 9.9873 24.8158C9.9873 24.416 10.3118 24.0916 10.7115 24.0916H12.3531C12.7529 24.0916 13.0773 24.416 13.0773 24.8158C13.0773 25.2155 12.7529 25.54 12.3531 25.54Z" fill="white"/>
<path d="M28.479 25.54H21.5265C21.1267 25.54 20.8022 25.2155 20.8022 24.8158C20.8022 24.416 21.1267 24.0916 21.5265 24.0916H28.479C28.8788 24.0916 29.2032 24.416 29.2032 24.8158C29.2032 25.2155 28.8788 25.54 28.479 25.54Z" fill="white"/>
<path d="M17.7606 29.8853H16.119C15.7192 29.8853 15.3948 29.5609 15.3948 29.1611C15.3948 28.7613 15.7192 28.4369 16.119 28.4369H17.7606C18.1603 28.4369 18.4848 28.7613 18.4848 29.1611C18.4848 29.5609 18.1603 29.8853 17.7606 29.8853Z" fill="white"/>
<path d="M12.3531 29.8853H10.7115C10.3118 29.8853 9.9873 29.5609 9.9873 29.1611C9.9873 28.7613 10.3118 28.4369 10.7115 28.4369H12.3531C12.7529 28.4369 13.0773 28.7613 13.0773 29.1611C13.0773 29.5609 12.7529 29.8853 12.3531 29.8853Z" fill="white"/>
<path d="M28.5756 29.8853H21.5265C21.1267 29.8853 20.8022 29.5609 20.8022 29.1611C20.8022 28.7613 21.1267 28.4369 21.5265 28.4369H28.5756C28.9753 28.4369 29.2998 28.7613 29.2998 29.1611C29.2998 29.5609 28.9753 29.8853 28.5756 29.8853Z" fill="white"/>
<path d="M17.7606 34.4238H16.119C15.7192 34.4238 15.3948 34.0993 15.3948 33.6996C15.3948 33.2998 15.7192 32.9753 16.119 32.9753H17.7606C18.1603 32.9753 18.4848 33.2998 18.4848 33.6996C18.4848 34.0993 18.1603 34.4238 17.7606 34.4238Z" fill="white"/>
<path d="M12.3531 34.4238H10.7115C10.3118 34.4238 9.9873 34.0993 9.9873 33.6996C9.9873 33.2998 10.3118 32.9753 10.7115 32.9753H12.3531C12.7529 32.9753 13.0773 33.2998 13.0773 33.6996C13.0773 34.0993 12.7529 34.4238 12.3531 34.4238Z" fill="white"/>
<path d="M28.5756 34.4238H21.5265C21.1267 34.4238 20.8022 34.0993 20.8022 33.6996C20.8022 33.2998 21.1267 32.9753 21.5265 32.9753H28.5756C28.9753 32.9753 29.2998 33.2998 29.2998 33.6996C29.2998 34.0993 28.9753 34.4238 28.5756 34.4238Z" fill="white"/>
<path d="M35.8178 34.4238H31.8587C31.459 34.4238 31.1345 34.0993 31.1345 33.6996C31.1345 33.2998 31.459 32.9753 31.8587 32.9753H35.8178C36.2176 32.9753 36.542 33.2998 36.542 33.6996C36.542 34.0993 36.2176 34.4238 35.8178 34.4238Z" fill="white"/>
<path d="M43.3496 34.4238H39.3905C38.9907 34.4238 38.6663 34.0993 38.6663 33.6996C38.6663 33.2998 38.9907 32.9753 39.3905 32.9753H43.3496C43.7493 32.9753 44.0738 33.2998 44.0738 33.6996C44.0738 34.0993 43.7493 34.4238 43.3496 34.4238Z" fill="white"/>
<path d="M28.5754 38.6727H26.0648C25.665 38.6727 25.3406 38.3482 25.3406 37.9485C25.3406 37.5487 25.665 37.2242 26.0648 37.2242H28.5754C28.9752 37.2242 29.2997 37.5487 29.2997 37.9485C29.2997 38.3482 28.9752 38.6727 28.5754 38.6727Z" fill="white"/>
<path d="M35.8178 38.6727H31.8587C31.459 38.6727 31.1345 38.3482 31.1345 37.9485C31.1345 37.5487 31.459 37.2242 31.8587 37.2242H35.8178C36.2176 37.2242 36.542 37.5487 36.542 37.9485C36.542 38.3482 36.2176 38.6727 35.8178 38.6727Z" fill="white"/>
<path d="M43.3496 38.6727H39.3905C38.9907 38.6727 38.6663 38.3482 38.6663 37.9485C38.6663 37.5487 38.9907 37.2242 39.3905 37.2242H43.3496C43.7493 37.2242 44.0738 37.5487 44.0738 37.9485C44.0738 38.3482 43.7493 38.6727 43.3496 38.6727Z" fill="white"/>
<path d="M28.5754 42.7285H26.0648C25.665 42.7285 25.3406 42.404 25.3406 42.0043C25.3406 41.6045 25.665 41.28 26.0648 41.28H28.5754C28.9752 41.28 29.2997 41.6045 29.2997 42.0043C29.2997 42.404 28.9752 42.7285 28.5754 42.7285Z" fill="white"/>
<path d="M35.8178 42.7285H31.8587C31.459 42.7285 31.1345 42.404 31.1345 42.0043C31.1345 41.6045 31.459 41.28 31.8587 41.28H35.8178C36.2176 41.28 36.542 41.6045 36.542 42.0043C36.542 42.404 36.2176 42.7285 35.8178 42.7285Z" fill="white"/>
<path d="M43.3496 42.7285H39.3905C38.9907 42.7285 38.6663 42.404 38.6663 42.0043C38.6663 41.6045 38.9907 41.28 39.3905 41.28H43.3496C43.7493 41.28 44.0738 41.6045 44.0738 42.0043C44.0738 42.404 43.7493 42.7285 43.3496 42.7285Z" fill="white"/>
<path d="M21.539 46.4943H13.3543C12.9546 46.4943 12.6301 46.1698 12.6301 45.7701V37.9485C12.6301 37.5487 12.9546 37.2242 13.3543 37.2242H21.539C21.9388 37.2242 22.2632 37.5487 22.2632 37.9485V45.7701C22.2632 46.1698 21.9388 46.4943 21.539 46.4943ZM14.0786 45.0458H20.8148V38.6727H14.0786V45.0458V45.0458Z" fill="white"/>
<path d="M17.4225 46.1561C17.0227 46.1561 16.6982 45.8317 16.6982 45.4319V37.9966C16.6982 37.5968 17.0227 37.2723 17.4225 37.2723C17.8222 37.2723 18.1467 37.5968 18.1467 37.9966V45.4319C18.1467 45.8317 17.8222 46.1561 17.4225 46.1561Z" fill="white"/>
<defs>
<clipPath id="clip0_116_164">
<path d="M30.5098 16.7383C30.5098 11.36 34.8698 7 40.2481 7V7C45.6264 7 49.9864 11.36 49.9864 16.7383V16.7383C49.9864 22.1166 45.6264 26.4766 40.2481 26.4766V26.4766C34.8698 26.4766 30.5098 22.1166 30.5098 16.7383V16.7383Z" fill="white"/>
</clipPath>
</defs>
</svg>
