<svg width="54" height="55" viewBox="0 0 54 55" fill="none" xmlns="http://www.w3.org/2000/svg">
<path d="M18.8289 27.7578H20.8689V25.7178H21.9969V27.7578H24.0369V28.8978H21.9969V30.9258H20.8689V28.8978H18.8289V27.7578Z" fill="white"/>
<path d="M18.9249 38.3719H22.3209V39.5119H18.9249V38.3719Z" fill="white"/>
<path d="M32.5308 39.8625H37.7868V40.9425H32.5308V39.8625ZM32.5308 37.2945H37.7868V38.3745H32.5308V37.2945Z" fill="white"/>
<path d="M33.3916 26.8984L34.8309 28.3441L36.2766 26.9048L37.0724 27.7042L35.6267 29.1435L37.066 30.5892L36.2582 31.3935L34.8189 29.9478L33.3817 31.3786L32.5858 30.5793L34.023 29.1484L32.5837 27.7027L33.3916 26.8984Z" fill="white"/>
<rect x="9.5" y="5.5" width="34.7183" height="43.4912" rx="1.5" stroke="white" stroke-opacity="0.9"/>
<rect x="13.8865" y="9.88647" width="25.9454" height="9.65283" rx="1.5" stroke="white" stroke-opacity="0.9"/>
<rect x="13.8865" y="23.0458" width="25.9454" height="20.9323" rx="1.5" stroke="white" stroke-opacity="0.9"/>
<line x1="27.0459" y1="23.1725" x2="27.0459" y2="44.4781" stroke="white" stroke-opacity="0.9"/>
<line x1="13.3865" y1="32.6987" x2="40.3319" y2="32.6987" stroke="white" stroke-opacity="0.9"/>
</svg>
