<svg width="54" height="55" viewBox="0 0 54 55" fill="none" xmlns="http://www.w3.org/2000/svg">
<path d="M29.6412 19.404C29.3257 19.404 29.0695 19.1484 29.0695 18.8323V16.6186C29.0695 15.3215 28.0141 14.2656 26.7164 14.2656H18.4029C17.1058 14.2656 16.0499 15.3209 16.0499 16.6186V18.8329C16.0499 19.1484 15.7943 19.4046 15.4782 19.4046C15.1627 19.4046 14.9065 19.149 14.9065 18.8329V16.6186C14.9065 14.6911 16.4748 13.1228 18.4023 13.1228H26.7159C28.6434 13.1228 30.2117 14.6911 30.2117 16.6186V18.8329C30.2123 19.1484 29.9567 19.404 29.6412 19.404Z" fill="white"/>
<path d="M43.8391 32.7171C43.7654 32.7171 43.6917 32.6998 43.6237 32.6659L40.5453 31.1045L37.4041 32.5357C37.255 32.6037 37.0817 32.5904 36.9447 32.5001C36.8077 32.4102 36.7271 32.2559 36.7305 32.0924L36.7795 29.7486C36.7829 29.5955 36.8595 29.4527 36.9862 29.3658L38.7536 28.1521L38.7548 23.6707L30.9715 25.3512C30.8293 25.3817 30.6808 25.346 30.5679 25.2533C30.4557 25.1606 30.3917 25.0219 30.3946 24.8762L30.4487 22.2831C30.4528 22.1029 30.5576 21.9406 30.7199 21.8634L38.756 18.032L38.7571 13.1613C38.7571 12.5752 38.988 12.0271 39.4065 11.6172C39.8251 11.2073 40.3772 10.9873 40.9645 11.0006C41.5505 11.0127 42.094 11.2545 42.4953 11.6817C42.8966 12.1088 43.1039 12.6662 43.0797 13.2517L42.8776 18.1177L50.7467 22.2814C50.9056 22.3655 51.004 22.5324 51 22.7126L50.9459 25.3057C50.943 25.4514 50.8733 25.5878 50.757 25.6753C50.6407 25.7634 50.4911 25.7934 50.35 25.7565L42.6439 23.753L42.4579 28.2304L44.173 29.5172C44.2956 29.6093 44.3664 29.755 44.3636 29.9081L44.3146 32.2519C44.3112 32.4154 44.2237 32.5663 44.0832 32.6503C44.0089 32.6941 43.9243 32.7171 43.8391 32.7171ZM40.5563 30.0993C40.63 30.0993 40.7042 30.1165 40.7716 30.1511L43.3791 31.4735L43.4073 30.1315L41.687 28.8413C41.5615 28.7469 41.4907 28.5972 41.497 28.4406L41.7175 23.1231C41.7233 22.9792 41.7941 22.8456 41.9098 22.7604C42.0255 22.6746 42.1741 22.6459 42.3134 22.6821L50.0074 24.6828L50.0426 22.9855L42.1677 18.8184C42.0054 18.7326 41.9069 18.5611 41.9144 18.378L42.1286 13.2114C42.1424 12.8838 42.0261 12.5717 41.8016 12.3328C41.577 12.0939 41.273 11.9586 40.9455 11.9517C40.6179 11.9448 40.3081 12.0674 40.0738 12.2965C39.8395 12.5257 39.7105 12.8325 39.7105 13.1607L39.7088 18.3313C39.7088 18.515 39.6034 18.682 39.4376 18.7608L31.3952 22.5958L31.3595 24.293L39.1302 22.6153C39.2712 22.5848 39.4175 22.6199 39.5297 22.7103C39.642 22.8007 39.7071 22.9372 39.7071 23.0811L39.7053 28.4032C39.7053 28.5598 39.6282 28.7066 39.4986 28.7958L37.726 30.0135L37.6978 31.3555L40.3582 30.143C40.4215 30.1137 40.4889 30.0993 40.5563 30.0993Z" fill="white"/>
<path d="M40.4857 30.5004H40.4846C40.2888 30.5004 40.1 30.5867 39.9221 30.7054V40.3097C39.9221 42.1077 38.4644 43.5649 36.6669 43.5649H8.45327C6.65527 43.5649 5.19752 42.1071 5.19752 40.3091V29.133C6.01102 30.0053 7.16882 30.5522 8.45327 30.5522C8.45327 30.5522 29.7645 30.5113 34.0007 30.5401C34.3295 30.5424 34.5966 30.2764 34.5966 29.9477C34.5966 29.6207 34.3312 29.3553 34.0042 29.3553H8.45327C6.65527 29.3553 5.19752 27.8975 5.19752 26.0995V22.6872C5.19752 20.8892 6.65527 19.4314 8.45327 19.4314H30.2452L30.24 18.2339H8.45327C5.99375 18.2333 4 20.2271 4 22.6866V26.0989V40.3097C4 42.7692 5.99375 44.7624 8.4527 44.7624H36.6669C39.1264 44.7624 41.1196 42.7686 41.1196 40.3091V30.7462C40.917 30.6075 40.7028 30.5004 40.4857 30.5004Z" fill="white"/>
<path d="M24.7264 31.7302H22.4822C22.1419 31.7302 21.8667 31.4545 21.8667 31.1148V28.8706C21.8667 28.5303 22.1425 28.2551 22.4822 28.2551H24.7264C25.0666 28.2551 25.3418 28.5309 25.3418 28.8706V31.1148C25.3418 31.455 25.066 31.7302 24.7264 31.7302Z" fill="white"/>
<path d="M24.3235 32.2069H22.8847C22.0603 32.2069 21.3901 31.5361 21.3901 30.7123V29.2735C21.3901 28.4491 22.0609 27.7789 22.8847 27.7789H24.3235C25.1479 27.7789 25.8181 28.4497 25.8181 29.2735V30.7123C25.8181 31.5361 25.1474 32.2069 24.3235 32.2069ZM22.8847 28.7306C22.5859 28.7306 22.3424 28.9736 22.3424 29.273V30.7117C22.3424 31.0105 22.5859 31.254 22.8847 31.254H24.3235C24.6223 31.254 24.8658 31.0111 24.8658 30.7117V29.273C24.8658 28.9741 24.6223 28.7306 24.3235 28.7306H22.8847Z" fill="white"/>
</svg>
