<svg width="54" height="55" viewBox="0 0 54 55" fill="none" xmlns="http://www.w3.org/2000/svg">
<path d="M34.1932 31.9927L30.1548 30.0423C28.8093 29.3921 27.385 28.8952 25.9216 28.5655L25.7288 28.5218L25.5503 28.6053C24.2953 29.1913 22.9509 29.4886 21.5541 29.4886C20.1619 29.4886 18.8207 29.1929 17.5679 28.61L17.389 28.5267L17.1962 28.5704C15.7565 28.8969 14.3533 29.3855 13.0258 30.023L8.92201 31.9936C7.75446 32.5544 7 33.7427 7 35.0214V47.3163C7 48.2446 7.76717 49 8.71044 49H34.3977C35.3408 49 36.1082 48.2448 36.1082 47.3163V35.017C36.108 33.7416 35.3564 32.5545 34.1932 31.9927ZM31.4205 38.5934C31.4205 39.5073 30.6653 40.2507 29.737 40.2507C28.8085 40.2507 28.0533 39.5073 28.0533 38.5934C28.0533 37.6796 28.8085 36.9362 29.737 36.9362C30.6653 36.9364 31.4205 37.6798 31.4205 38.5934ZM34.9677 47.3163C34.9677 47.6258 34.7121 47.8776 34.3975 47.8776H8.71044C8.39602 47.8776 8.14023 47.626 8.14023 47.3163V35.0214C8.14023 34.1689 8.64326 33.3762 9.42182 33.0025L12.355 31.5939V35.8829C10.7696 36.1507 9.55825 37.51 9.55825 39.1459V41.4951C9.55825 42.0838 10.045 42.5631 10.6433 42.5631H10.9324C11.2474 42.5631 11.5027 42.3119 11.5027 42.0018C11.5027 41.6918 11.2474 41.4406 10.9324 41.4406H10.6985V39.1457C10.6985 37.9372 11.6973 36.9539 12.9252 36.9539C14.1529 36.9539 15.152 37.9372 15.152 39.1457V41.4406H14.9268C14.6118 41.4406 14.3565 41.6918 14.3565 42.0018C14.3565 42.3119 14.6118 42.5631 14.9268 42.5631H15.2072C15.8055 42.5631 16.2922 42.0838 16.2922 41.4951V39.1459C16.2922 37.51 15.0808 36.1507 13.4954 35.8829V31.0462L13.5258 31.0317C14.7176 30.4594 15.9744 30.0142 17.2639 29.7077C18.6175 30.3071 20.0596 30.6108 21.5541 30.6108C23.0535 30.6108 24.4996 30.3054 25.8556 29.7029C27.0021 29.9739 28.1218 30.354 29.193 30.8354V35.8666C27.8954 36.1171 26.9131 37.244 26.9131 38.5934C26.9131 40.1261 28.1799 41.3731 29.737 41.3731C31.2939 41.3731 32.5607 40.1261 32.5607 38.5934C32.5607 37.2621 31.6046 36.1478 30.3332 35.8775V31.3785L33.6907 33.0002C34.4664 33.3749 34.9677 34.1665 34.9677 35.0171V47.3163ZM44.0679 6H26.4744C24.8575 6 23.5423 7.29481 23.5423 8.88623V10.8772C23.5423 11.1873 23.7975 11.4385 24.1125 11.4385C24.4275 11.4385 24.6827 11.1873 24.6827 10.8772V8.88623C24.6827 7.91363 25.4865 7.1224 26.4746 7.1224H44.0679C45.0562 7.1224 45.8598 7.91363 45.8598 8.88623V26.4278L41.9715 23.2419C41.4459 22.8114 40.7799 22.5742 40.0958 22.5742H31.0328C30.7178 22.5742 30.4626 22.8254 30.4626 23.1354C30.4626 23.4455 30.7178 23.6967 31.0328 23.6967H40.0958C40.5139 23.6967 40.9209 23.8417 41.2421 24.1049L47 28.8224V8.88623C47 7.29481 45.6846 6 44.0679 6ZM21.5539 29.1468C25.3188 29.1468 28.7137 26.808 30.0017 23.3275C30.3609 22.3575 30.5429 21.3382 30.5429 20.2983C30.5429 16.4294 28.0281 13.0413 24.2856 11.8672C23.403 11.5902 22.4839 11.4497 21.5539 11.4497C16.5973 11.4497 12.5649 15.4191 12.5649 20.2982C12.5649 25.1772 16.5975 29.1468 21.5539 29.1468ZM21.5539 12.5725C22.366 12.5725 23.1687 12.695 23.9391 12.9369C27.2068 13.962 29.4027 16.9205 29.4027 20.2985C29.4027 21.2071 29.2438 22.0967 28.9306 22.9434C27.8057 25.9828 24.8412 28.0246 21.5539 28.0246C17.226 28.0246 13.7051 24.5588 13.7051 20.2987C13.7051 16.0387 17.2262 12.5725 21.5539 12.5725ZM35.4169 11.2427C35.1019 11.2427 34.8467 11.494 34.8467 11.804V13.996H32.6199C32.3049 13.996 32.0497 14.2472 32.0497 14.5573C32.0497 14.8673 32.3049 15.1186 32.6199 15.1186H34.8467V17.3105C34.8467 17.6206 35.1019 17.8718 35.4169 17.8718C35.7319 17.8718 35.9871 17.6206 35.9871 17.3105V15.1182H38.2137C38.5287 15.1182 38.7839 14.867 38.7839 14.5569C38.7839 14.2468 38.5287 13.9956 38.2137 13.9956H35.9871V11.8038C35.9871 11.494 35.7319 11.2427 35.4169 11.2427Z" fill="white"/>
</svg>
