<svg width="54" height="55" viewBox="0 0 54 55" fill="none" xmlns="http://www.w3.org/2000/svg">
<path d="M27.3981 25.8708L30.7122 33.7891L39.029 34.324L32.7573 40.0818L34.5927 48.0001L27.3981 43.9833L20.2139 48.0001L22.0388 40.0818L15.7671 34.324L24.0944 33.7891L27.3981 25.8708Z" stroke="white" stroke-miterlimit="10" stroke-linejoin="round"/>
<path d="M34.8447 30.1917L37.582 30.0134L40.3194 23.4585L43.0672 30.0134L49.9471 30.4539L44.7557 35.2153L46.2764 41.7702L40.3194 38.4351L36.9947 40.3019" stroke="white" stroke-miterlimit="10" stroke-linejoin="round"/>
<path d="M19.1024 30.1917L16.3651 30.0134L13.6278 23.4585L10.88 30.0134L4 30.4539L9.19146 35.2153L7.67073 41.7702L13.6278 38.4351L16.9524 40.3019" stroke="white" stroke-miterlimit="10" stroke-linejoin="round"/>
<path d="M35 27V21.5C35 19.98 30.6 18 27 18C23.4 18 19 19.98 19 21.5V27" stroke="white" stroke-miterlimit="10"/>
<path d="M27.3355 5C25.1645 5 23.1404 6.52073 23.1404 8.39804V11.041C23.1404 12.9183 25.1645 14.439 27.3355 14.439C29.5065 14.439 31.5306 12.9183 31.5306 11.041V8.39804C31.5306 6.52073 29.5065 5 27.3355 5Z" stroke="white" stroke-miterlimit="10"/>
</svg>
