<svg width="54" height="55" viewBox="0 0 54 55" fill="none" xmlns="http://www.w3.org/2000/svg">
<path d="M9.64944 40.7406C9.37029 40.7406 9.14697 40.5173 9.14697 40.2381V37.737C9.14697 37.4578 9.37029 37.2345 9.64944 37.2345C9.92859 37.2345 10.1519 37.4578 10.1519 37.737V40.2381C10.1519 40.5173 9.923 40.7406 9.64944 40.7406Z" fill="white"/>
<path d="M24.7179 38.1724H7.51125C7.23211 38.1724 7.00879 37.9491 7.00879 37.6699C7.00879 37.3908 7.23211 37.1675 7.51125 37.1675H24.7179C24.9971 37.1675 25.2204 37.3908 25.2204 37.6699C25.2204 37.9435 24.9971 38.1724 24.7179 38.1724Z" fill="white"/>
<path d="M24.7179 36.3858H7.51125C7.23211 36.3858 7.00879 36.1625 7.00879 35.8833C7.00879 35.6042 7.23211 35.3809 7.51125 35.3809H24.7179C24.9971 35.3809 25.2204 35.6042 25.2204 35.8833C25.2204 36.1569 24.9971 36.3858 24.7179 36.3858Z" fill="white"/>
<path d="M24.7179 34.5993H7.51125C7.23211 34.5993 7.00879 34.376 7.00879 34.0968C7.00879 33.8177 7.23211 33.5944 7.51125 33.5944H24.7179C24.9971 33.5944 25.2204 33.8177 25.2204 34.0968C25.2204 34.3704 24.9971 34.5993 24.7179 34.5993Z" fill="white"/>
<path d="M26.0912 43.5265H6.13772C5.85857 43.5265 5.63525 43.3031 5.63525 43.024V40.4782C5.63525 40.199 5.85857 39.9757 6.13772 39.9757H26.0856C26.3648 39.9757 26.5881 40.199 26.5881 40.4782V43.024C26.5937 43.3031 26.3648 43.5265 26.0912 43.5265ZM6.64019 42.5215H25.5831V40.9806H6.64019V42.5215Z" fill="white"/>
<path d="M22.5794 40.7406C22.3002 40.7406 22.0769 40.5173 22.0769 40.2381V37.737C22.0769 37.4578 22.3002 37.2345 22.5794 37.2345C22.8585 37.2345 23.0818 37.4578 23.0818 37.737V40.2381C23.0818 40.5173 22.8585 40.7406 22.5794 40.7406Z" fill="white"/>
<path d="M10.6822 45.9997H8.40432C8.12517 45.9997 7.90186 45.7764 7.90186 45.4972V43.1803C7.90186 42.9012 8.12517 42.6779 8.40432 42.6779C8.68347 42.6779 8.90679 42.9012 8.90679 43.1803V44.9948H10.1797V43.1803C10.1797 42.9012 10.403 42.6779 10.6822 42.6779C10.9613 42.6779 11.1846 42.9012 11.1846 43.1803V45.4972C11.1846 45.7764 10.9613 45.9997 10.6822 45.9997Z" fill="white"/>
<path d="M23.8245 45.9998H21.5467C21.2675 45.9998 21.0442 45.7765 21.0442 45.4974V43.1804C21.0442 42.9013 21.2675 42.678 21.5467 42.678C21.8258 42.678 22.0491 42.9013 22.0491 43.1804V44.9949H23.322V43.1804C23.322 42.9013 23.5454 42.678 23.8245 42.678C24.1036 42.678 24.327 42.9013 24.327 43.1804V45.4974C24.327 45.7765 24.0981 45.9998 23.8245 45.9998Z" fill="white"/>
<path d="M30.3678 45.9998C30.3232 45.9998 30.2841 45.9942 30.2394 45.983C29.9714 45.9104 29.8095 45.6369 29.8821 45.3689C29.9044 45.2907 31.9422 37.3518 31.2667 31.3613C31.2332 31.0877 31.4342 30.8365 31.7077 30.803C31.9869 30.7695 32.2325 30.9705 32.266 31.244C32.9639 37.4243 30.9429 45.2851 30.8591 45.6201C30.7921 45.8546 30.5911 45.9998 30.3678 45.9998Z" fill="white"/>
<path d="M39.7863 45.9998C39.563 45.9998 39.3564 45.8491 39.3006 45.6257C39.2168 45.2963 37.1902 37.43 37.8937 31.2496C37.9272 30.9761 38.1728 30.7751 38.452 30.8086C38.7256 30.8421 38.9265 31.0877 38.893 31.3669C38.2119 37.363 40.2553 45.2963 40.2776 45.3745C40.3446 45.6425 40.1883 45.9161 39.9203 45.9886C39.8701 45.9942 39.8254 45.9998 39.7863 45.9998Z" fill="white"/>
<path d="M45.3524 25.22C45.2575 25.22 45.157 25.1921 45.0733 25.1362C44.8444 24.9799 44.783 24.6673 44.9393 24.4384C46.2066 22.5569 46.8263 20.3796 46.7202 18.1352C46.5862 15.2991 45.3189 12.6807 43.1527 10.7713C40.9754 8.85636 38.1504 7.87376 35.2138 8.01334C29.1395 8.29807 24.4219 13.2948 24.6955 19.1625C24.7346 20.0055 24.8016 20.5806 25.0472 21.4013C25.1254 21.6692 24.9802 21.9484 24.7122 22.0265C24.4498 22.1047 24.1651 21.9596 24.087 21.6916C23.8078 20.776 23.7352 20.1172 23.6906 19.2127C23.3891 12.7979 28.5421 7.32105 35.1691 7.01399C38.3793 6.86325 41.4499 7.93517 43.8171 10.0232C46.1954 12.1168 47.58 14.9809 47.7252 18.0961C47.8424 20.5582 47.1669 22.9477 45.7711 25.0078C45.6762 25.1418 45.5143 25.22 45.3524 25.22Z" fill="white"/>
<path d="M21.6026 32.2935C21.4519 32.2935 21.3012 32.2265 21.2007 32.0925C21.1672 32.0423 20.3074 30.8866 20.1846 28.7651C19.9948 25.5717 21.6641 22.5401 24.3327 21.2281C26.2532 20.2846 28.3189 20.346 28.4083 20.3516C28.6874 20.3628 28.8996 20.5917 28.894 20.8708C28.8828 21.15 28.6595 21.3621 28.3748 21.3565C28.358 21.3565 26.4654 21.3007 24.7793 22.1326C22.4624 23.2715 21.022 25.9122 21.1895 28.7093C21.2956 30.507 22.0046 31.4896 22.0102 31.4952C22.1721 31.7185 22.1274 32.0311 21.9041 32.1986C21.8092 32.26 21.7087 32.2935 21.6026 32.2935Z" fill="white"/>
<path d="M28.3918 36.5926C28.1126 36.5926 27.8334 36.5815 27.5597 36.5536C27.2861 36.5256 27.0851 36.2799 27.1074 36.0007C27.1353 35.7215 27.381 35.526 27.6603 35.5484C28.0121 35.5819 28.3695 35.593 28.7324 35.5763C28.9502 35.5651 29.168 35.5484 29.3802 35.5149C29.6594 35.4758 29.9107 35.6712 29.9442 35.9449C29.9833 36.2185 29.7879 36.4754 29.5143 36.5089C29.2741 36.5424 29.0284 36.5647 28.7771 36.5759C28.6487 36.5926 28.5202 36.5926 28.3918 36.5926Z" fill="white"/>
<path d="M42.2206 37.2513C41.6009 37.2513 40.9811 37.1843 40.3838 37.0503C40.1102 36.9889 39.9427 36.7209 40.0041 36.4529C40.0655 36.1793 40.3335 36.0118 40.6015 36.0732C41.2435 36.2184 41.9079 36.2742 42.5779 36.2407C44.571 36.1458 46.4078 35.2861 47.7477 33.8122C49.0932 32.3383 49.7799 30.4289 49.685 28.4358C49.5733 26.0742 48.3339 23.8801 46.3631 22.5681C46.1342 22.4118 46.0728 22.1047 46.2235 21.8702C46.3799 21.6413 46.6869 21.5799 46.9214 21.7306C49.1546 23.2213 50.5615 25.7113 50.6899 28.3855C50.796 30.6466 50.0144 32.8128 48.4902 34.4821C46.9661 36.157 44.8836 37.134 42.6225 37.2401C42.4885 37.2457 42.3545 37.2513 42.2206 37.2513Z" fill="white"/>
<path d="M43.6495 45.9998H3.50247C3.22332 45.9998 3 45.7765 3 45.4973C3 45.2182 3.22332 44.9949 3.50247 44.9949H43.6495C43.9286 44.9949 44.1519 45.2182 44.1519 45.4973C44.1519 45.7765 43.9286 45.9998 43.6495 45.9998Z" fill="white"/>
<path d="M47.2344 46.0001H45.7936C45.5144 46.0001 45.291 45.7767 45.291 45.4975C45.291 45.2182 45.5144 44.9949 45.7936 44.9949H47.2344C47.5136 44.9949 47.7369 45.2182 47.7369 45.4975C47.7369 45.7767 47.5136 46.0001 47.2344 46.0001Z" fill="white"/>
</svg>
