<svg width="54" height="55" viewBox="0 0 54 55" fill="none" xmlns="http://www.w3.org/2000/svg">
<path d="M41.5908 12.222L38.0725 14.333C38.0725 14.333 30.7614 14.1008 28.3478 14.326C26.8912 14.4597 23.6121 15.9233 21.9726 16.6974C21.3463 16.9929 20.8537 17.4995 20.5793 18.1399L17.842 24.5292C17.842 24.5292 17.842 25.5776 18.8835 26.6331C19.939 27.6816 22.2681 27.2876 23.0914 26.6331C24.2876 25.6691 26.8138 21.3697 26.8138 21.3697H33.1468" stroke="white" stroke-width="1.3" stroke-miterlimit="10" stroke-linecap="round" stroke-linejoin="round"/>
<path d="M48.6275 22.777C48.6275 22.777 47.4735 17.3306 41.5908 12.222L48.6275 8" stroke="white" stroke-width="1.3" stroke-miterlimit="10" stroke-linecap="round" stroke-linejoin="round"/>
<path d="M44.4055 31.9247C44.4055 31.9247 45.8621 29.6589 46.221 28.3712L48.6275 26.999" stroke="white" stroke-width="1.3" stroke-miterlimit="10" stroke-linecap="round" stroke-linejoin="round"/>
<path d="M34.5544 26.999L43.0335 34.5212C44.0961 35.4712 44.1735 37.0896 43.2376 38.1381C42.2947 39.1865 40.6692 39.278 39.6208 38.3281L32.4434 32.6284" stroke="white" stroke-width="1.3" stroke-miterlimit="10" stroke-linecap="round" stroke-linejoin="round"/>
<path d="M40.6972 41.776C40.5987 41.9731 40.465 42.163 40.3102 42.339C39.3673 43.3874 37.7418 43.4789 36.6934 42.536L31.0359 38.2577" stroke="white" stroke-width="1.3" stroke-miterlimit="10" stroke-linecap="round" stroke-linejoin="round"/>
<path d="M34.5613 44.5907C33.6395 45.1044 32.4433 45.0129 31.5989 44.26L30.3323 43.1833" stroke="white" stroke-width="1.3" stroke-miterlimit="10" stroke-linecap="round" stroke-linejoin="round"/>
<path d="M5 8L13.444 14.333C13.444 14.333 18.2641 13.3268 22.5917 13.6293" stroke="white" stroke-width="1.3" stroke-miterlimit="10" stroke-linecap="round" stroke-linejoin="round"/>
<path d="M12.0367 17.8513C12.0367 17.8513 9.89049 25.1413 5 27.7027C5 27.7027 7.11804 29.5885 7.81467 30.5173" stroke="white" stroke-width="1.3" stroke-miterlimit="10" stroke-linecap="round" stroke-linejoin="round"/>
<path d="M14.7036 32.0935C14.8162 32.2272 14.9147 32.375 14.9851 32.5228C15.4214 33.3953 15.2173 34.486 14.4433 35.1334L11.903 37.0333C10.9812 37.8003 9.63018 37.6806 8.84207 36.7729L8.4832 36.3366C7.71621 35.4148 7.83583 34.0497 8.74356 33.2757L11.2768 31.3758C12.1986 30.6088 13.5496 30.7284 14.3166 31.6361L14.7036 32.0935Z" stroke="white" stroke-width="1.3" stroke-miterlimit="10" stroke-linecap="round" stroke-linejoin="round"/>
<path d="M18.3697 32.5227C18.9749 32.5368 19.58 32.8042 19.9952 33.3038L20.3752 33.7471C21.1563 34.69 21.0366 36.0762 20.1078 36.8573L15.9984 40.1153C15.0766 40.8963 13.6833 40.7767 12.9022 39.8479L12.5223 39.3905C11.903 38.6516 11.8538 37.6243 12.3252 36.8432" stroke="white" stroke-width="1.3" stroke-miterlimit="10" stroke-linecap="round" stroke-linejoin="round"/>
<path d="M23.9991 35.4078C24.2384 35.5345 24.4565 35.7104 24.6395 35.9285L25.0265 36.393C25.8216 37.3359 25.695 38.7432 24.7591 39.5384L20.1641 43.303C19.2283 44.0981 17.8139 43.9715 17.0188 43.0286L16.6317 42.5641C15.8366 41.6283 15.9633 40.2139 16.8991 39.4187" stroke="white" stroke-width="1.3" stroke-miterlimit="10" stroke-linecap="round" stroke-linejoin="round"/>
<path d="M27.1163 41.1216C27.8692 42.0152 27.7496 43.3522 26.8559 44.1051L25.0827 45.4984C24.189 46.2513 22.8521 46.1317 22.0992 45.231L21.7262 44.8018C20.9733 43.9081 21.0929 42.5711 22.0006 41.8182" stroke="white" stroke-width="1.3" stroke-miterlimit="10" stroke-linecap="round" stroke-linejoin="round"/>
</svg>
