<svg width="54" height="55" viewBox="0 0 54 55" fill="none" xmlns="http://www.w3.org/2000/svg">
<path d="M13.6502 22.4031C13.4804 22.4031 13.3163 22.3361 13.1954 22.2143L11.2653 20.2806C11.0138 20.0286 11.0138 19.6206 11.2653 19.3692C11.5169 19.1172 11.9235 19.1172 12.175 19.3692L13.5499 20.7466L15.6884 17.5335C15.8852 17.2376 16.2841 17.1571 16.5807 17.3549C16.876 17.5522 16.9558 17.9525 16.7589 18.249L14.1855 22.1163C14.0787 22.2774 13.905 22.3812 13.7139 22.3999C13.6921 22.4025 13.6708 22.4031 13.6502 22.4031Z" fill="white"/>
<path d="M13.6502 31.427C13.4804 31.427 13.3163 31.36 13.1954 31.2382L11.2653 29.3045C11.0138 29.0525 11.0138 28.6445 11.2653 28.3931C11.5169 28.1411 11.9235 28.1411 12.175 28.3931L13.5499 29.7705L15.6884 26.5574C15.8852 26.2609 16.2841 26.1803 16.5807 26.3788C16.876 26.5761 16.9558 26.9763 16.7589 27.2728L14.1855 31.1402C14.0787 31.3013 13.905 31.4051 13.7139 31.4238C13.6921 31.4264 13.6708 31.427 13.6502 31.427Z" fill="white"/>
<path d="M13.6502 40.4508C13.4804 40.4508 13.3163 40.3838 13.1954 40.2619L11.2653 38.3283C11.0138 38.0762 11.0138 37.6689 11.2653 37.4169C11.5169 37.1648 11.9235 37.1648 12.175 37.4169L13.5499 38.7949L15.6884 35.5818C15.8852 35.2853 16.2841 35.2047 16.5807 35.4033C16.876 35.6005 16.9558 36.0014 16.7589 36.2973L14.1855 40.1646C14.0787 40.3251 13.905 40.4295 13.7139 40.4482C13.6921 40.4495 13.6708 40.4508 13.6502 40.4508Z" fill="white"/>
<path d="M26.5174 44.9627H7.86015C7.50502 44.9627 7.2168 44.6746 7.2168 44.3181V13.3793C7.2168 13.0235 7.50502 12.7347 7.86015 12.7347H13.6503C14.0055 12.7347 14.2937 13.0235 14.2937 13.3793C14.2937 13.7351 14.0055 14.0239 13.6503 14.0239H8.5035V43.6736H26.5174C26.8725 43.6736 27.1607 43.9617 27.1607 44.3181C27.1607 44.6746 26.8725 44.9627 26.5174 44.9627Z" fill="white"/>
<path d="M33.5942 30.7824C33.239 30.7824 32.9508 30.4936 32.9508 30.1378V14.0239H27.804C27.4489 14.0239 27.1606 13.7351 27.1606 13.3793C27.1606 13.0235 27.4489 12.7347 27.804 12.7347H33.5942C33.9493 12.7347 34.2375 13.0235 34.2375 13.3793V30.1378C34.2375 30.4936 33.9493 30.7824 33.5942 30.7824Z" fill="white"/>
<path d="M27.8042 14.0238H13.6504C13.2953 14.0238 13.0071 13.7351 13.0071 13.3793V7.57824C13.0071 7.22244 13.2953 6.93368 13.6504 6.93368H17.7885C18.2922 5.77412 19.4387 5 20.7273 5C22.0159 5 23.1624 5.77412 23.6661 6.93368H27.8042C28.1593 6.93368 28.4475 7.22244 28.4475 7.57824V13.3793C28.4475 13.7351 28.1593 14.0238 27.8042 14.0238ZM14.2938 12.7347H27.1608V8.2228H23.2094C22.916 8.2228 22.6599 8.02427 22.5866 7.73938C22.3659 6.88534 21.6016 6.28912 20.7273 6.28912C19.853 6.28912 19.0887 6.88534 18.868 7.73938C18.7947 8.02363 18.538 8.2228 18.2453 8.2228H14.2938V12.7347Z" fill="white"/>
<path d="M27.8041 48.1854H4.64335C4.28822 48.1854 4 47.8973 4 47.5408V10.1564C4 9.8006 4.28822 9.51184 4.64335 9.51184H13.6503C14.0054 9.51184 14.2936 9.8006 14.2936 10.1564C14.2936 10.5122 14.0054 10.801 13.6503 10.801H5.28671V46.8963H27.8041C28.1592 46.8963 28.4474 47.1844 28.4474 47.5408C28.4474 47.8973 28.1592 48.1854 27.8041 48.1854Z" fill="white"/>
<path d="M36.8109 30.7823C36.4558 30.7823 36.1676 30.4935 36.1676 30.1377V10.801H27.804C27.4489 10.801 27.1606 10.5122 27.1606 10.1564C27.1606 9.8006 27.4489 9.51184 27.804 9.51184H36.8109C37.1661 9.51184 37.4543 9.8006 37.4543 10.1564V30.1377C37.4543 30.4935 37.1661 30.7823 36.8109 30.7823Z" fill="white"/>
<path d="M29.0907 20.4694H20.0838C19.7287 20.4694 19.4404 20.1807 19.4404 19.8249C19.4404 19.4691 19.7287 19.1803 20.0838 19.1803H29.0907C29.4459 19.1803 29.7341 19.4691 29.7341 19.8249C29.7341 20.1807 29.4459 20.4694 29.0907 20.4694Z" fill="white"/>
<path d="M29.0907 29.4932H20.0838C19.7287 29.4932 19.4404 29.2045 19.4404 28.8487C19.4404 28.4929 19.7287 28.2041 20.0838 28.2041H29.0907C29.4459 28.2041 29.7341 28.4929 29.7341 28.8487C29.7341 29.2045 29.4459 29.4932 29.0907 29.4932Z" fill="white"/>
<path d="M24.5873 38.517H20.0838C19.7287 38.517 19.4404 38.2289 19.4404 37.8725C19.4404 37.516 19.7287 37.2279 20.0838 37.2279H24.5873C24.9424 37.2279 25.2306 37.516 25.2306 37.8725C25.2306 38.2289 24.9424 38.517 24.5873 38.517Z" fill="white"/>
<path d="M44.7366 48.1855H38.6782C38.5045 48.1855 38.3379 48.1153 38.2169 47.9902C38.096 47.8652 38.0303 47.6963 38.0355 47.5223L38.04 47.3695C38.0445 47.2174 38.1024 47.0717 38.2028 46.9583C38.4775 46.6502 38.8043 46.1777 38.8043 45.6743C38.8043 45.0929 38.2433 44.6147 37.5272 44.587C37.5157 44.5863 37.5047 44.5863 37.4938 44.587C36.7784 44.6147 36.218 45.0929 36.2187 45.675C36.2187 46.1784 36.5461 46.6508 36.8215 46.9583C36.9205 47.0698 36.9785 47.2122 36.9842 47.3618L36.9907 47.5133C36.9977 47.6879 36.9334 47.8594 36.8125 47.9857C36.6915 48.1121 36.5236 48.1842 36.348 48.1842H30.3095C29.9543 48.1842 29.6661 47.8961 29.6661 47.5397V42.5759C29.255 42.7873 28.8368 42.895 28.4148 42.8982C28.4109 42.8982 28.4071 42.8982 28.4026 42.8982C27.1538 42.8982 26.1257 41.8373 26.0312 40.465C26.026 40.4321 26.0234 40.3986 26.0234 40.3657C26.0234 40.3316 26.026 40.2974 26.0312 40.2633H26.0267C26.0704 38.851 27.1049 37.7372 28.3807 37.7276C28.7873 37.7192 29.2428 37.8326 29.6655 38.0485V33.0861C29.6655 32.7303 29.9537 32.4415 30.3088 32.4415H36.3435C36.5178 32.4415 36.6838 32.5118 36.8047 32.6368C36.9257 32.7619 36.9913 32.9307 36.9862 33.1054L36.9784 33.3607C36.9739 33.5115 36.9167 33.6559 36.817 33.7693C36.5435 34.0781 36.2174 34.5531 36.218 35.0572C36.2199 35.6385 36.7822 36.1149 37.4983 36.14C37.5092 36.14 37.5202 36.1387 37.5324 36.1387C38.2349 36.111 38.8056 35.6218 38.8043 35.0488C38.8036 34.5447 38.4742 34.0736 38.1989 33.7667C38.0979 33.6539 38.0393 33.5089 38.0342 33.3568L38.0258 33.1074C38.02 32.9327 38.085 32.7638 38.2066 32.6381C38.3276 32.5124 38.4948 32.4415 38.6692 32.4415H44.7373C45.0924 32.4415 45.3806 32.7303 45.3806 33.0861V38.0582C45.8213 37.841 46.2685 37.7321 46.7079 37.7533C47.9624 37.7946 48.9551 38.8974 48.9963 40.2781C48.9989 40.3019 49.0001 40.3264 49.0001 40.3509C49.0001 40.3651 48.9976 40.4212 48.9969 40.4366C48.9963 40.4502 48.995 40.4644 48.9931 40.4779C48.8966 41.8618 47.8582 42.9201 46.6139 42.9201C46.5901 42.9201 46.5663 42.9201 46.5425 42.9188C46.1488 42.9066 45.7602 42.8022 45.38 42.6088V47.541C45.38 47.8974 45.0924 48.1855 44.7366 48.1855ZM39.7951 46.8964H44.0933V41.4473C44.0933 41.2694 44.1666 41.0992 44.2959 40.9774C44.4253 40.8556 44.5938 40.7924 44.7765 40.8034L44.9174 40.8124C45.068 40.8221 45.2108 40.884 45.3202 40.9884C45.6193 41.2726 46.0813 41.6162 46.5824 41.6323C47.1466 41.6239 47.6588 41.0928 47.7083 40.3896C47.7083 40.3831 47.7089 40.3767 47.7096 40.3709C47.7096 40.3664 47.7096 40.3612 47.7096 40.3567C47.7044 39.6393 47.2457 39.0618 46.6648 39.0425C46.1687 39.0437 45.6804 39.3402 45.3626 39.6058C45.2468 39.7018 45.1014 39.7547 44.9509 39.7547H44.736C44.3809 39.7547 44.0926 39.4666 44.0926 39.1101V33.7313H39.7397C39.9694 34.1651 40.0884 34.6092 40.0897 35.0468C40.0923 36.2986 39.0378 37.3273 37.6713 37.4227C37.6218 37.4323 37.5414 37.4343 37.488 37.4311C37.4462 37.4336 37.4069 37.4311 37.3677 37.4253C35.998 37.3376 34.9345 36.3134 34.9307 35.0617C34.93 34.6137 35.0458 34.1689 35.2774 33.7326H30.9509V39.1359C30.9509 39.3093 30.8814 39.475 30.7579 39.5968C30.6343 39.718 30.4632 39.7773 30.294 39.7805L30.0869 39.776C29.935 39.7727 29.789 39.7154 29.6751 39.6148C29.3657 39.3409 28.8825 39.0334 28.3878 39.018C27.8171 39.0225 27.3333 39.5994 27.3114 40.3045C27.3114 40.3116 27.3108 40.318 27.3108 40.3251C27.3108 40.329 27.3108 40.3329 27.3114 40.3374C27.3436 41.0541 27.8473 41.6168 28.4051 41.611C28.9063 41.6072 29.3772 41.2759 29.6841 40.9993C29.7954 40.8988 29.9382 40.8401 30.0875 40.8337L30.2805 40.8253C30.46 40.8169 30.6266 40.8827 30.7527 41.0039C30.8795 41.125 30.9509 41.2933 30.9509 41.4692V46.8964H35.2292C35.0323 46.4923 34.9307 46.081 34.9307 45.6756C34.9307 44.4239 35.9896 43.3958 37.3587 43.3036C37.4076 43.2946 37.4809 43.2914 37.533 43.2966L37.5504 43.294C37.5883 43.294 37.625 43.2972 37.6604 43.3036C39.0288 43.3965 40.0884 44.4226 40.0891 45.6743C40.091 46.0862 39.9919 46.4948 39.7951 46.8964Z" fill="white"/>
</svg>
