<svg width="54" height="55" fill="none" xmlns="http://www.w3.org/2000/svg"><path d="M35.198 14.249a2.617 2.617 0 0 0 1.953-.508 2.62 2.62 0 0 0 1.023-1.74 2.62 2.62 0 0 0-.508-1.953 2.62 2.62 0 0 0-1.74-1.022 2.62 2.62 0 0 0-1.953.507 2.62 2.62 0 0 0-1.022 1.74 2.62 2.62 0 0 0 .507 1.954 2.619 2.619 0 0 0 1.74 1.022Zm-1.528-2.875c.07-.505.334-.952.741-1.26a1.897 1.897 0 0 1 1.414-.368 1.912 1.912 0 0 1 1.629 2.155c-.07.504-.334.952-.741 1.26-.408.308-.91.439-1.415.368a1.897 1.897 0 0 1-1.26-.74 1.898 1.898 0 0 1-.368-1.415ZM35.359 14.865a.36.36 0 0 0-.41.31l-.159 1.124v.007a.368.368 0 1 0 .732.06l.147-1.091a.361.361 0 0 0-.31-.41ZM21.171 19.187l2.757.395.006.001a.368.368 0 0 0 .101-.729l-2.555-.357 5.274-3.07.663.69a1.03 1.03 0 0 0 1.254.175l.826-.482.757.8.007.007a.368.368 0 0 0 .522-.52l-.64-.664 2.43-1.414a.36.36 0 0 0 .131-.496.364.364 0 0 0-.496-.131l-3.902 2.27a.298.298 0 0 1-.365-.05l-5.294-5.494 9.197 1.281a.362.362 0 0 0 .41-.31.364.364 0 0 0-.31-.41l-9.405-1.31a1.022 1.022 0 0 0-.761.2 1.02 1.02 0 0 0-.4.677l-1.083 7.78c-.038.273.033.543.198.762.166.22.407.362.678.4Zm-.126-1.277 1.023-7.346 4.167 4.325-5.19 3.02ZM45.361 16.405a.36.36 0 0 0 .36-.36v-2.316a.36.36 0 0 0-.72 0v2.316c0 .199.161.36.36.36ZM50.603 19.266h-2.316a.36.36 0 0 0 0 .721h2.316a.36.36 0 0 0 0-.72ZM49.7 15.48a.36.36 0 1 0-.51-.509l-1.637 1.637a.36.36 0 1 0 .51.51l1.637-1.637Z" fill="#fff"/><path d="m46.606 28.047-.101-8.51a.364.364 0 0 0-.37-.36l-1.41.02-.002-.092a1.274 1.274 0 0 0-1.267-1.262h-.016l-16.543.228a1.273 1.273 0 0 0-1.251 1.292l.06 5.01c.002.2.165.36.364.36h.004a.365.365 0 0 0 .36-.369l-.06-5.01a.548.548 0 0 1 .155-.39.53.53 0 0 1 .759-.009c.104.103.162.24.164.387l.082 6.885c.002.2.165.36.364.36h.005a.365.365 0 0 0 .36-.369l-.082-6.885a1.28 1.28 0 0 0-.13-.548l15.398-.213a.543.543 0 0 1 .545.541l.001.093-14.372.198a.365.365 0 0 0-.36.37l.099 8.307c.002.2.165.36.365.36h.004a.365.365 0 0 0 .36-.369l-.094-7.943 15.782-.218.097 8.144.001.014v.013c.01.805-.63 1.467-1.424 1.477h-.003l-12.684.227a.365.365 0 0 0 .007.73h.006l12.684-.228a2.183 2.183 0 0 0 2.143-2.215v-.026Z" fill="#fff"/><path d="m35.807 21.456-3.926.046a.365.365 0 0 0-.36.37l.046 3.925c.002.2.165.36.364.36h.005l3.926-.046a.365.365 0 0 0 .36-.37l-.047-3.925a.365.365 0 0 0-.368-.36Zm-3.515 3.968-.038-3.197 3.197-.038.038 3.197-3.197.038ZM43.932 21.328l-5.714.099a.365.365 0 0 0 .007.73h.006l5.713-.1a.365.365 0 0 0-.012-.73ZM43.955 23.29l-5.713.1a.365.365 0 0 0 .006.729h.007l5.713-.1a.365.365 0 0 0-.013-.729ZM43.978 25.253l-5.713.1a.365.365 0 0 0 .006.729h.007l5.713-.1a.365.365 0 0 0-.006-.729h-.007ZM31.594 28.065c.003.2.166.36.365.36h.005l12.053-.175a.365.365 0 0 0-.005-.73h-.005l-12.053.175a.365.365 0 0 0-.36.37ZM23.762 37.348l1.016.178c.133.023.266.035.398.035.408 0 .804-.11 1.144-.322a1.83 1.83 0 0 0 .856-1.243l.125-.714 2.888.526a1.09 1.09 0 0 0 .599.929 1.094 1.094 0 0 0 1.478-.48l1.246-2.445a1.1 1.1 0 0 0-1.648-1.37L23.446 23.8a1.164 1.164 0 0 0-.579-1.39 1.164 1.164 0 0 0-1.564.508l-4.853 9.525a1.155 1.155 0 0 0-.07.887 1.155 1.155 0 0 0 1.104.803c.36 0 .711-.169.934-.467l3.738.68-.13.749c-.183 1.043.596 2.054 1.736 2.253ZM18.78 32.99l2.119-4.16 2.208-4.332 8.327 8.549-1.047 2.056L18.78 32.99Zm13.752-.046a.37.37 0 0 1 .329.536l-1.246 2.446a.37.37 0 0 1-.658-.336l.08-.156 1.166-2.289a.369.369 0 0 1 .33-.201Zm-14.913.438a.43.43 0 0 1-.546-.278.43.43 0 0 1 .026-.33l4.853-9.526a.43.43 0 0 1 .583-.189c.212.109.297.37.189.583l-1.528 2.999-3.289 6.455-.036.071a.43.43 0 0 1-.252.215Zm8.963 1.77-.126.718a1.11 1.11 0 0 1-.524.75 1.464 1.464 0 0 1-1.03.188l-1.016-.178c-.744-.13-1.256-.763-1.143-1.41l.13-.743 3.71.675ZM16.472 26.82a.365.365 0 0 0 .166-.69l-3.319-1.69a.365.365 0 1 0-.331.65l3.319 1.69c.053.027.11.04.165.04ZM16.882 20.184a.365.365 0 0 0-.118.502l1.593 2.567a.364.364 0 1 0 .62-.385l-1.593-2.566a.365.365 0 0 0-.502-.118ZM16.47 24.346a.364.364 0 0 0 .515-.046.365.365 0 0 0-.047-.514l-.776-.646a.365.365 0 1 0-.467.56l.776.646ZM11.469 30.307a.365.365 0 0 0 .383.345l3.056-.163a.365.365 0 1 0-.039-.728l-3.055.162a.365.365 0 0 0-.345.384ZM14.405 28.375a.365.365 0 0 0 .143-.715l-.809-.162a.365.365 0 1 0-.142.716l.808.16ZM35.041 12.894a.44.44 0 0 0 .036.1.453.453 0 0 0 .064.086.338.338 0 0 0 .118.08.363.363 0 0 0 .461-.166.43.43 0 0 0 .036-.1.391.391 0 0 0 .005-.108.388.388 0 0 0-.06-.166.338.338 0 0 0-.1-.1.33.33 0 0 0-.097-.046.367.367 0 0 0-.337.066.303.303 0 0 0-.05.051.339.339 0 0 0-.055.092.374.374 0 0 0-.021.21ZM35.484 12.197a.365.365 0 0 0 .412-.311l.176-1.268a.365.365 0 0 0-.722-.1l-.177 1.267c-.028.2.112.384.311.412Z" fill="#fff"/><path fill-rule="evenodd" clip-rule="evenodd" d="M8 16a1.5 1.5 0 0 1 1.5-1.5H19v1H9.5a.5.5 0 0 0-.5.5v23.5h33V32h1v7.5h1.07a.93.93 0 0 1 .882 1.224l-.75 2.25A1.5 1.5 0 0 1 42.78 44H7.08a1.5 1.5 0 0 1-1.302-.756l-1.464-2.562A.79.79 0 0 1 5 39.5h3V16Zm34.78 27a.5.5 0 0 0 .474-.342l.719-2.158H5.362l1.284 2.248A.5.5 0 0 0 7.08 43h35.7Z" fill="#fff"/></svg>