<svg width="54" height="55" viewBox="0 0 54 55" fill="none" xmlns="http://www.w3.org/2000/svg">
<path d="M16.3413 13.5607H47.9999V44.0744H36.7273" stroke="white" stroke-miterlimit="10" stroke-linecap="round" stroke-linejoin="round"/>
<path d="M16.2651 16.8633H40.4409C40.4409 18.8412 42.201 20.4423 44.3727 20.4423V37.1927C42.1999 37.1927 40.4409 38.7949 40.4409 40.7717H35.4254" stroke="white" stroke-miterlimit="10" stroke-linecap="round" stroke-linejoin="round"/>
<path d="M22.1641 21.5342H30.303" stroke="white" stroke-miterlimit="10" stroke-linecap="round" stroke-linejoin="round"/>
<path d="M19.0247 24.4965H33.4423" stroke="white" stroke-miterlimit="10" stroke-linecap="round" stroke-linejoin="round"/>
<path d="M23.8835 29.6765C24.0245 29.7128 24.1757 29.7076 24.3133 29.661C24.4509 29.6155 24.5703 29.5306 24.6533 29.4199C24.7511 29.2894 24.9012 29.1011 25.049 28.9189C25.3264 28.5753 25.7665 28.3724 26.2338 28.3724C26.7011 28.3724 27.14 28.5753 27.4186 28.9189C27.5652 29.1011 27.7165 29.2905 27.8143 29.4199C27.8973 29.5306 28.0167 29.6155 28.1542 29.661C28.2918 29.7065 28.443 29.7117 28.584 29.6765C28.75 29.6341 28.9979 29.5782 29.239 29.5254C29.6926 29.4261 30.1725 29.5296 30.5295 29.8038C30.8877 30.0791 31.081 30.4921 31.0537 30.9196C31.0389 31.1452 31.0218 31.3791 31.0048 31.5364C30.9911 31.6699 31.023 31.8055 31.0958 31.9214C31.1697 32.0374 31.2811 32.1305 31.4141 32.1864C31.571 32.2516 31.8007 32.3551 32.0213 32.4555C32.4386 32.647 32.7331 33.0072 32.815 33.4284C32.8957 33.8496 32.7547 34.2812 32.4329 34.5907C32.2624 34.7553 32.085 34.924 31.9622 35.0347C31.8576 35.1289 31.7871 35.251 31.7621 35.3835C31.737 35.516 31.7575 35.6526 31.82 35.7737C31.894 35.9165 31.9974 36.1297 32.0963 36.3378C32.2828 36.73 32.2544 37.1792 32.0213 37.5498C31.7882 37.9203 31.3766 38.1676 30.9127 38.2153C30.6671 38.2411 30.4124 38.266 30.2407 38.2784C30.094 38.2887 29.9542 38.3415 29.8416 38.4274C29.729 38.5133 29.6494 38.6303 29.6119 38.7607C29.5687 38.9139 29.4982 39.1385 29.4277 39.3558C29.2947 39.7657 28.9581 40.0938 28.5192 40.2397C28.0803 40.3856 27.5914 40.3329 27.2025 40.0969C26.9967 39.9716 26.7841 39.8412 26.6442 39.7502C26.5249 39.6725 26.3805 39.6301 26.2338 39.6301C26.0871 39.6301 25.9438 39.6725 25.8244 39.7502C25.6846 39.8423 25.472 39.9727 25.2662 40.0969C24.8762 40.3329 24.3884 40.3856 23.9495 40.2397C23.5106 40.0938 23.174 39.7657 23.041 39.3558C22.9705 39.1385 22.9 38.9139 22.8568 38.7607C22.8204 38.6303 22.7397 38.5133 22.6271 38.4274C22.5145 38.3415 22.3747 38.2887 22.2291 38.2784C22.0574 38.266 21.8027 38.2411 21.5571 38.2153C21.0932 38.1666 20.6816 37.9192 20.4485 37.5498C20.2154 37.1792 20.187 36.73 20.3735 36.3378C20.4724 36.1297 20.5759 35.9165 20.6498 35.7737C20.7135 35.6526 20.7339 35.5149 20.7078 35.3825C20.6828 35.25 20.6123 35.1279 20.5076 35.0337C20.3848 34.9229 20.2075 34.7542 20.0369 34.5897C19.7151 34.2792 19.5741 33.8476 19.6549 33.4274C19.7356 33.0061 20.0301 32.6449 20.4485 32.4545C20.6702 32.353 20.8988 32.2506 21.0568 32.1854C21.1899 32.1295 21.3024 32.0363 21.3752 31.9204C21.4491 31.8045 21.4798 31.6689 21.4662 31.5354C21.4491 31.3781 21.4321 31.1442 21.4173 30.9185C21.3889 30.4921 21.5833 30.0781 21.9415 29.8028C22.2996 29.5275 22.7783 29.425 23.232 29.5244C23.4696 29.5772 23.7175 29.6341 23.8835 29.6765ZM23.2263 34.4903C23.2263 36.0107 24.5726 37.2434 26.2338 37.2434C27.895 37.2434 29.2412 36.0107 29.2412 34.4903C29.2412 32.9699 27.895 31.7372 26.2338 31.7372C24.5726 31.7372 23.2263 32.9699 23.2263 34.4903Z" stroke="white" stroke-miterlimit="10" stroke-linecap="round" stroke-linejoin="round"/>
<path d="M30.8036 38.2278L33.9339 45.9841C32.624 45.5825 31.6734 45.0712 30.45 44.18C30.1373 45.4086 29.7916 46.3204 29.1333 47.6152L26.2429 40.7035" stroke="white" stroke-miterlimit="10" stroke-linecap="round" stroke-linejoin="round"/>
<path d="M21.6639 38.2278L18.5325 45.9841C19.8423 45.5825 20.7929 45.0712 22.0164 44.18C22.329 45.4086 22.6758 46.3204 23.3331 47.6152L26.6418 39.7513" stroke="white" stroke-miterlimit="10" stroke-linecap="round" stroke-linejoin="round"/>
<path d="M7.62897 39.6633L7.61987 21.4432C7.61987 20.9226 7.7404 20.43 7.94848 20.0998L9.27881 18.3796L13.8622 18.3776L15.1926 20.0967C15.4006 20.4269 15.5212 20.9206 15.5223 21.4401L15.5314 39.6602" stroke="white" stroke-miterlimit="10" stroke-linecap="round" stroke-linejoin="round"/>
<path d="M11.569 12.4366L11.5669 6" stroke="white" stroke-miterlimit="10" stroke-linecap="round" stroke-linejoin="round"/>
<path d="M13.4191 18.3765L13.4179 13.8287C13.4179 13.2543 12.9051 12.7886 12.2741 12.7886L10.8642 12.7906C10.2331 12.7906 9.72144 13.2564 9.72144 13.8308L9.72257 18.3786" stroke="white" stroke-miterlimit="10" stroke-linecap="round" stroke-linejoin="round"/>
<path d="M6 39.6633L17.16 39.6592" stroke="white" stroke-miterlimit="10" stroke-linecap="round" stroke-linejoin="round"/>
<path d="M7.3916 44.2048L15.7613 44.2017" stroke="white" stroke-miterlimit="10" stroke-linecap="round" stroke-linejoin="round"/>
<path d="M10.0001 39.6622L9.99805 44.2047" stroke="white" stroke-miterlimit="10" stroke-linecap="round" stroke-linejoin="round"/>
<path d="M13.1611 39.6613L13.158 44.2048" stroke="white" stroke-miterlimit="10" stroke-linecap="round" stroke-linejoin="round"/>
<path d="M15.5243 23.3568H12.7607" stroke="white" stroke-miterlimit="10" stroke-linecap="round" stroke-linejoin="round"/>
<path d="M15.5243 27.2421H12.7607" stroke="white" stroke-miterlimit="10" stroke-linecap="round" stroke-linejoin="round"/>
<path d="M15.5243 31.1277H12.7607" stroke="white" stroke-miterlimit="10" stroke-linecap="round" stroke-linejoin="round"/>
<path d="M15.5234 35.8535H7.61987" stroke="white" stroke-miterlimit="10" stroke-linecap="round" stroke-linejoin="round"/>
</svg>
