<svg width="54" height="55" viewBox="0 0 54 55" fill="none" xmlns="http://www.w3.org/2000/svg">
<path d="M16.7764 43.0654C16.4531 43.6056 16.1285 44.1444 15.8052 44.6846C15.2691 45.579 16.666 46.3926 17.2007 45.5009C17.524 44.9607 17.8487 44.4219 18.172 43.8817C18.7094 42.9873 17.3125 42.1737 16.7764 43.0654Z" fill="white"/>
<path d="M21.095 43.0653C20.7717 43.6055 20.4471 44.1443 20.1238 44.6845C19.5877 45.5789 20.9846 46.3925 21.5193 45.5008C21.8426 44.9606 22.1673 44.4218 22.4906 43.8816C23.028 42.9872 21.6312 42.1736 21.095 43.0653Z" fill="white"/>
<path d="M25.4131 43.0656C25.0899 43.6057 24.7652 44.1445 24.4419 44.6847C23.9058 45.5791 25.3027 46.3928 25.8375 45.501C26.1608 44.9608 26.4854 44.422 26.8087 43.8819C27.3462 42.9874 25.9479 42.1738 25.4131 43.0656Z" fill="white"/>
<path d="M29.7325 43.0653C29.4092 43.6055 29.0846 44.1443 28.7613 44.6845C28.2251 45.5789 29.622 46.3925 30.1568 45.5008C30.4801 44.9606 30.8047 44.4218 31.128 43.8816C31.6641 42.9872 30.2673 42.1736 29.7325 43.0653Z" fill="white"/>
<path d="M17.1304 47.3367C16.8071 47.8768 16.4825 48.4156 16.1592 48.9558C15.6231 49.8502 17.02 50.6639 17.5547 49.7721C17.878 49.232 18.2027 48.6931 18.526 48.153C19.0621 47.2585 17.6652 46.4436 17.1304 47.3367Z" fill="white"/>
<path d="M21.4495 47.3367C21.1262 47.8768 20.8016 48.4156 20.4783 48.9558C19.9422 49.8502 21.3391 50.6639 21.8738 49.7721C22.1971 49.232 22.5218 48.6931 22.8451 48.153C23.3812 47.2585 21.9843 46.4436 21.4495 47.3367Z" fill="white"/>
<path d="M25.7679 47.3367C25.4446 47.8768 25.12 48.4156 24.7967 48.9558C24.2605 49.8502 25.6574 50.6639 26.1922 49.7721C26.5155 49.232 26.8401 48.6931 27.1634 48.153C27.6995 47.2585 26.3027 46.4436 25.7679 47.3367Z" fill="white"/>
<path d="M42.7247 30.6935C42.6951 33.4145 41.4235 36.0224 39.2008 37.6281C37.61 38.7771 35.7713 39.2715 33.8275 39.2715C31.2277 39.2715 28.6279 39.2715 26.0295 39.2715C22.7009 39.2715 19.371 39.2715 16.0425 39.2715C15.2006 39.2715 14.3587 39.2742 13.5154 39.2715C11.2308 39.2634 9.44871 38.2989 7.80531 36.7795C5.59886 34.7414 4.95632 31.3778 6.36129 28.6999C7.70294 26.1405 10.5492 24.6871 13.4131 25.1235C13.8131 25.1841 14.3223 25.0279 14.4072 24.5591C15.0133 21.1888 17.5768 18.523 20.9673 17.902C24.5827 17.2406 28.1214 19.241 29.6853 22.4981C29.8914 22.9265 30.4168 22.9467 30.7913 22.7877C33.5891 21.6023 36.8853 22.0132 39.3099 23.8344C41.4652 25.4549 42.6991 28.0156 42.7247 30.6935C42.7355 31.7334 44.3519 31.7361 44.3412 30.6935C44.3088 27.4229 42.7624 24.3799 40.1263 22.4402C37.1776 20.2714 33.3075 19.9805 29.9763 21.3935C30.3454 21.4905 30.7131 21.5862 31.0822 21.6832C29.6638 18.7304 26.8161 16.6668 23.5657 16.2519C20.419 15.8505 17.17 17.0655 15.0901 19.4686C13.9397 20.7968 13.1598 22.3998 12.8486 24.1307C13.18 23.9421 13.5114 23.7549 13.8428 23.5663C10.9655 23.1272 8.02488 24.0405 6.08649 26.2685C4.21949 28.4143 3.52441 31.4142 4.33264 34.1554C5.1705 36.995 7.67196 39.39 10.4294 40.3841C11.7212 40.8502 13.0467 40.8906 14.3937 40.8906C20.7868 40.8906 27.1812 40.8906 33.5742 40.8906C35.8157 40.8906 37.9791 40.4259 39.8582 39.1381C42.652 37.2213 44.3048 34.0786 44.3412 30.6962C44.3533 29.6536 42.7368 29.6523 42.7247 30.6935Z" fill="white"/>
<path d="M29.8066 17.016C30.6512 13.4934 34.3623 11.4203 37.7892 12.6933C41.2268 13.9703 42.6143 18.1151 40.8591 21.2632C40.3513 22.1724 41.7481 22.9887 42.2546 22.0795C43.9735 18.9975 43.4239 15.0223 40.7567 12.6462C38.2889 10.4491 34.5765 10.0612 31.7356 11.7814C29.975 12.8469 28.7276 14.5913 28.2494 16.5863C28.0056 17.5965 29.5641 18.0289 29.8066 17.016Z" fill="white"/>
<path d="M33.8144 4.7754C33.91 5.93251 34.0056 7.08827 34.1026 8.24538C34.1875 9.27452 35.8053 9.28395 35.7191 8.24538C35.6234 7.08827 35.5278 5.93251 35.4308 4.7754C35.3459 3.74625 33.7282 3.73683 33.8144 4.7754Z" fill="white"/>
<path d="M27.3326 7.5464C27.9953 8.50011 28.6567 9.45382 29.3195 10.4062C29.9095 11.2548 31.3104 10.4479 30.715 9.58987C30.0523 8.63616 29.3909 7.68246 28.7281 6.7301C28.1381 5.88146 26.7358 6.68834 27.3326 7.5464Z" fill="white"/>
<path d="M23.0942 13.1729C24.1449 13.6673 25.1969 14.163 26.2476 14.6574C27.1838 15.0978 28.0055 13.705 27.0639 13.2618C26.0132 12.7675 24.9612 12.2717 23.9105 11.7774C22.9743 11.3355 22.1526 12.7284 23.0942 13.1729Z" fill="white"/>
<path d="M48.3838 23.2999C47.3331 22.8056 46.281 22.3098 45.2303 21.8155C44.2941 21.375 43.4724 22.7678 44.414 23.211C45.4647 23.7054 46.5168 24.2011 47.5675 24.6955C48.5036 25.1359 49.3253 23.7431 48.3838 23.2999Z" fill="white"/>
<path d="M49.2246 16.3089C48.0662 16.4045 46.9077 16.5015 45.7493 16.5971C44.7201 16.682 44.7107 18.2998 45.7493 18.2136C46.9077 18.1179 48.0662 18.021 49.2246 17.9253C50.2538 17.8405 50.2632 16.2227 49.2246 16.3089Z" fill="white"/>
<path d="M46.4521 9.83886C45.497 10.5003 44.5419 11.1617 43.5855 11.8231C42.7356 12.4117 43.5438 13.8126 44.4019 13.2186C45.3569 12.5572 46.312 11.8958 47.2684 11.2344C48.117 10.6457 47.3101 9.24482 46.4521 9.83886Z" fill="white"/>
<path d="M40.8174 5.61067C40.3217 6.66001 39.8246 7.70936 39.3289 8.76005C38.8871 9.6949 40.2799 10.5166 40.7244 9.57636C41.2201 8.52701 41.7172 7.47767 42.2129 6.42697C42.6547 5.49213 41.2619 4.67043 40.8174 5.61067Z" fill="white"/>
</svg>
