<svg width="54" height="55" viewBox="0 0 54 55" fill="none" xmlns="http://www.w3.org/2000/svg">
<path d="M31.6506 35.8194V33.104C31.6506 32.0722 28.8178 30.3977 26.5 30.3977C24.1822 30.3977 21.3494 32.0722 21.3494 33.104V35.8194" stroke="white" stroke-width="1.3" stroke-miterlimit="10"/>
<path d="M26.5002 39.6146C32.6386 39.6146 37.6147 34.8812 37.6147 29.0423C37.6147 23.2034 32.6386 18.47 26.5002 18.47C20.3619 18.47 15.3857 23.2034 15.3857 29.0423C15.3857 34.8812 20.3619 39.6146 26.5002 39.6146Z" stroke="white" stroke-width="1.3" stroke-miterlimit="10"/>
<path d="M26.5 29.8554C24.7108 29.8554 23.5181 28.3964 23.5181 26.6037V25.5167C23.5181 23.724 24.7108 22.265 26.5 22.265C28.2892 22.265 29.4819 23.724 29.4819 25.5167V26.6037C29.4819 28.3964 28.2892 29.8554 26.5 29.8554Z" stroke="white" stroke-width="1.3" stroke-miterlimit="10"/>
<path d="M23.518 16.5674C23.518 15.4324 20.6852 13.5905 18.3674 13.5905C16.0496 13.5905 13.2168 15.4324 13.2168 16.5674V19.5543" stroke="white" stroke-width="1.3" stroke-miterlimit="10"/>
<path d="M18.3677 13.5904C16.5785 13.5904 15.3857 12.1314 15.3857 10.3387V9.25165C15.3857 7.45895 16.5785 6 18.3677 6C20.1568 6 21.3496 7.45895 21.3496 9.25165V10.3387C21.3496 12.1314 20.1568 13.5904 18.3677 13.5904Z" stroke="white" stroke-width="1.3" stroke-miterlimit="10"/>
<path d="M29.4819 16.5674C29.4819 15.4324 32.3148 13.5905 34.6325 13.5905C36.9503 13.5905 39.7832 15.4324 39.7832 16.5674V19.5543" stroke="white" stroke-width="1.3" stroke-miterlimit="10"/>
<path d="M34.6326 13.5904C36.4217 13.5904 37.6145 12.1314 37.6145 10.3387V9.25165C37.6145 7.45895 36.4217 6 34.6326 6C32.8434 6 31.6506 7.45895 31.6506 9.25165V10.3387C31.6506 12.1314 32.8434 13.5904 34.6326 13.5904Z" stroke="white" stroke-width="1.3" stroke-miterlimit="10"/>
<path d="M49.0001 34.7351V32.0197C49.0001 30.9878 46.1838 29.3134 43.8796 29.3134C42.4459 29.3134 40.8073 29.965 39.7832 30.7072" stroke="white" stroke-width="1.3" stroke-miterlimit="10"/>
<path d="M43.8494 29.3133C42.0602 29.3133 40.8674 27.8543 40.8674 26.0616V24.9746C40.8674 23.1819 42.0602 21.7229 43.8494 21.7229C45.6385 21.7229 46.8313 23.1819 46.8313 24.9746V26.0616C46.8313 27.8543 45.6385 29.3133 43.8494 29.3133Z" stroke="white" stroke-width="1.3" stroke-miterlimit="10"/>
<path d="M4 34.7351V32.0197C4 30.9878 6.81627 29.3134 9.12049 29.3134C10.5542 29.3134 12.1928 29.965 13.2169 30.7072" stroke="white" stroke-width="1.3" stroke-miterlimit="10"/>
<path d="M9.15039 29.3133C10.9395 29.3133 12.1323 27.8543 12.1323 26.0616V24.9746C12.1323 23.1819 10.9395 21.7229 9.15039 21.7229C7.36123 21.7229 6.16846 23.1819 6.16846 24.9746V26.0616C6.16846 27.8543 7.36123 29.3133 9.15039 29.3133Z" stroke="white" stroke-width="1.3" stroke-miterlimit="10"/>
<path d="M35.8443 34.735L44.6015 43.1273C45.4061 43.8984 45.4061 45.1538 44.6015 45.9248L43.8692 46.6266C43.0646 47.3976 41.7547 47.3976 40.9501 46.6266L32.1929 38.2343" stroke="white" stroke-width="1.3" stroke-miterlimit="10"/>
</svg>
