<svg width="54" height="55" viewBox="0 0 54 55" fill="none" xmlns="http://www.w3.org/2000/svg">
<path d="M23.7493 30.4414C28.7914 35.4835 34.1313 38.3123 35.6796 36.754" stroke="white" stroke-width="1.3" stroke-miterlimit="10"/>
<path d="M23.7498 30.4416C18.7077 25.3995 15.8789 20.0596 17.4372 18.5112" stroke="white" stroke-width="1.3" stroke-miterlimit="10"/>
<path d="M5.18913 46.4113C4.85166 47.2252 4.97077 48.1582 5.50674 48.6843C6.03279 49.2103 6.96578 49.3294 7.77966 49.0019C7.77966 49.0019 33.3178 39.1261 34.9853 37.4586C35.5312 36.9127 35.6602 36.7837 35.69 36.7539C37.2383 35.2055 34.4096 29.8656 29.3774 24.8235C24.3353 19.7814 18.9954 16.9527 17.447 18.511C17.4173 18.5407 17.2882 18.6698 16.7423 19.2157C15.0649 20.8732 5.18913 46.4113 5.18913 46.4113Z" stroke="white" stroke-width="1.3" stroke-miterlimit="10"/>
<path d="M25.3672 31.7913V41.7167" stroke="white" stroke-width="1.3" stroke-miterlimit="10"/>
<path d="M20.4045 26.8285V43.7017" stroke="white" stroke-width="1.3" stroke-miterlimit="10"/>
<path d="M15.4419 21.4888V45.687" stroke="white" stroke-width="1.3" stroke-miterlimit="10"/>
<path d="M10.479 33.0616V47.6719" stroke="white" stroke-width="1.3" stroke-miterlimit="10"/>
<path d="M29.3375 9.95526C30.982 9.95526 32.3151 8.62213 32.3151 6.97763C32.3151 5.33313 30.982 4 29.3375 4C27.693 4 26.3599 5.33313 26.3599 6.97763C26.3599 8.62213 27.693 9.95526 29.3375 9.95526Z" stroke="white" stroke-width="1.3" stroke-miterlimit="10" stroke-linejoin="round"/>
<path d="M29.3376 31.7913C33.1887 27.0172 39.2631 22.8187 44.2258 25.836C48.4143 28.377 46.7866 32.3273 44.1464 32.7441C41.4963 33.161 40.0075 30.8385 40.2556 29.8062" stroke="white" stroke-width="1.3" stroke-miterlimit="10" stroke-linejoin="round"/>
<path d="M47.7099 12.2878L46.6975 15.7518L49.0002 18.6103L45.1293 18.8783L43.1839 21.6972L41.705 18.4912L38.3899 17.1712L41.2186 15.067L41.3377 11.196L44.2757 13.3995L47.7099 12.2878Z" stroke="white" stroke-width="1.3" stroke-miterlimit="10" stroke-linejoin="round"/>
<path d="M21.8442 23.0471C24.4546 18.0546 26.1121 10.2929 21.3975 8.96291C18.4596 8.1391 16.4348 9.70731 16.4348 11.9405C16.4348 14.1738 19.1643 15.1663 20.405 13.9256" stroke="white" stroke-width="1.3" stroke-miterlimit="10" stroke-linejoin="round"/>
<path d="M35.0149 4.19861C37.7245 9.05214 35.9876 15.1861 31.134 17.8957" stroke="white" stroke-width="1.3" stroke-miterlimit="10" stroke-linejoin="round"/>
</svg>
