<svg width="54" height="55" viewBox="0 0 54 55" fill="none" xmlns="http://www.w3.org/2000/svg">
<path d="M37.0719 42.2247H16.9208C16.5408 42.2247 16.23 41.9138 16.23 41.5338C16.23 38.4597 22.1986 35.8139 24.0224 35.0747V30.2528C11.2423 25.8454 11.8502 7.8497 11.8571 7.66318C11.8709 7.29014 12.1818 7 12.5479 7H41.4447C41.8178 7 42.1217 7.29014 42.1355 7.66318C42.1424 7.8497 42.7504 25.8454 29.9703 30.2459V35.0678C31.8009 35.807 37.7627 38.4528 37.7627 41.5269C37.7627 41.9138 37.4587 42.2247 37.0719 42.2247ZM17.7981 40.8361H36.1945C35.3172 39.1091 31.5315 37.1333 29.0308 36.1869C28.7613 36.0833 28.5817 35.8277 28.5817 35.5376V29.7416C28.5817 29.4377 28.7821 29.1683 29.0722 29.0784C39.9595 25.7211 40.7263 11.6285 40.7539 8.38854H13.2387C13.2664 11.6285 14.0332 25.7211 24.9204 29.0854C25.2106 29.1752 25.4109 29.4446 25.4109 29.7485V35.5445C25.4109 35.8346 25.2313 36.0902 24.9619 36.1938C22.4611 37.1333 18.6754 39.1091 17.7981 40.8361Z" fill="white"/>
<path d="M16.099 23.4414C7.88524 23.4414 5.12889 11.7597 5.01836 11.2624C4.97 11.0551 5.01836 10.841 5.14961 10.6752C5.28087 10.5163 5.4812 10.4196 5.68845 10.4196H12.6795C13.0594 10.4196 13.3703 10.7304 13.3703 11.1104C13.3703 11.4903 13.0594 11.8012 12.6795 11.8012H6.60032C7.37403 14.3986 10.1649 22.046 16.1059 22.046C16.4859 22.046 16.7967 22.3568 16.7967 22.7368C16.7967 23.1306 16.4859 23.4414 16.099 23.4414Z" fill="white"/>
<path d="M37.8942 23.4414C37.5142 23.4414 37.2034 23.1305 37.2034 22.7506C37.2034 22.3706 37.5142 22.0598 37.8942 22.0598C43.8421 22.0598 46.6261 14.4055 47.3998 11.815H41.3206C40.9407 11.815 40.6298 11.5041 40.6298 11.1242C40.6298 10.7442 40.9407 10.4333 41.3206 10.4333H48.3117C48.5258 10.4333 48.7193 10.5301 48.8505 10.6959C48.9818 10.8617 49.0301 11.0758 48.9818 11.2831C48.8643 11.7597 46.1149 23.4414 37.8942 23.4414Z" fill="white"/>
<path d="M23.3663 23.4413C23.2213 23.4413 23.0831 23.3999 22.9587 23.3101C22.717 23.1374 22.6133 22.8196 22.71 22.5364L23.9397 18.7438L20.7136 16.4019C20.4718 16.2292 20.3682 15.9115 20.4649 15.6282C20.5547 15.345 20.8241 15.1516 21.1212 15.1516H25.1072L26.3368 11.359C26.4266 11.0758 26.6961 10.8823 26.9931 10.8823C27.2902 10.8823 27.5596 11.0758 27.6494 11.359L28.879 15.1516H32.865C33.1621 15.1516 33.4315 15.345 33.5213 15.6282C33.6111 15.9115 33.5144 16.2292 33.2726 16.4019L30.0534 18.7438L31.2831 22.5364C31.3729 22.8196 31.2762 23.1374 31.0344 23.3101C30.7926 23.4897 30.461 23.4897 30.2192 23.3101L26.9931 20.9682L23.767 23.3101C23.6496 23.393 23.5114 23.4413 23.3663 23.4413ZM23.2558 16.5332L25.1624 17.9148C25.4042 18.0875 25.5078 18.4053 25.4111 18.6885L24.6858 20.9268L26.5924 19.5451C26.8342 19.3655 27.1658 19.3655 27.4076 19.5451L29.3142 20.9268L28.5889 18.6885C28.4991 18.4053 28.5958 18.0875 28.8376 17.9148L30.7442 16.5332H28.3885C28.0915 16.5332 27.8221 16.3398 27.7323 16.0565L27.0069 13.8183L26.2816 16.0565C26.1918 16.3398 25.9223 16.5332 25.6253 16.5332H23.2558Z" fill="white"/>
<path d="M40.0561 46.1279H13.9364C13.5565 46.1279 13.2456 45.817 13.2456 45.4371V41.534C13.2456 41.154 13.5565 40.8431 13.9364 40.8431H40.0561C40.4361 40.8431 40.747 41.154 40.747 41.534V45.4371C40.7539 45.817 40.443 46.1279 40.0561 46.1279ZM14.6272 44.7393H39.3653V42.2179H14.6272V44.7393Z" fill="white"/>
</svg>
