<svg width="54" height="55" viewBox="0 0 54 55" fill="none" xmlns="http://www.w3.org/2000/svg">
<path d="M22.7544 33.6757H22.5044V33.9257V35.9086C22.5044 35.9648 22.4588 36.0104 22.4025 36.0104C22.3463 36.0104 22.3007 35.9648 22.3007 35.9086V33.5739C22.3007 33.5176 22.3463 33.472 22.4025 33.472H25.1971C25.2533 33.472 25.2989 33.5176 25.2989 33.5739V35.9086C25.2989 35.9648 25.2533 36.0104 25.1971 36.0104C25.1408 36.0104 25.0952 35.9648 25.0952 35.9086V33.9257V33.6757H24.8452H22.7544Z" stroke="white" stroke-opacity="0.96" stroke-width="0.5"/>
<path d="M27.1926 31.3744H26.9426V31.6244V35.9086C26.9426 35.9648 26.897 36.0104 26.8408 36.0104C26.7845 36.0104 26.7389 35.9648 26.7389 35.9086V31.2726C26.7389 31.2164 26.7845 31.1708 26.8408 31.1708H29.6352C29.6915 31.1708 29.737 31.2164 29.737 31.2726V35.9086C29.737 35.9648 29.6915 36.0104 29.6352 36.0104C29.5789 36.0104 29.5334 35.9648 29.5334 35.9087V35.9086V31.6244V31.3744H29.2834H27.1926Z" stroke="white" stroke-opacity="0.96" stroke-width="0.5"/>
<path d="M31.6307 26.6713H31.3807V26.9213V35.9085C31.3807 35.9648 31.3352 36.0104 31.2789 36.0104C31.2226 36.0104 31.177 35.9648 31.177 35.9085V26.5694C31.177 26.5131 31.2226 26.4675 31.2789 26.4675H34.0733C34.1296 26.4675 34.1751 26.5131 34.1751 26.5694V35.9085C34.1751 35.9648 34.1296 36.0104 34.0733 36.0104C34.0172 36.0104 33.9715 35.9648 33.9715 35.9085V26.9213V26.6713H33.7215H31.6307Z" stroke="white" stroke-opacity="0.96" stroke-width="0.5"/>
<path d="M36.069 19.7036H35.819V19.9536V35.9085C35.819 35.9648 35.7734 36.0104 35.7172 36.0104C35.6609 36.0104 35.6153 35.9648 35.6153 35.9085V19.6018C35.6153 19.5456 35.6608 19.5 35.7173 19.5H38.5117C38.5678 19.5 38.6134 19.5455 38.6134 19.6018V35.9085C38.6134 35.9649 38.5679 36.0104 38.5117 36.0104C38.4554 36.0104 38.4098 35.9648 38.4098 35.9085V19.9536V19.7036H38.1598H36.069Z" stroke="white" stroke-opacity="0.96" stroke-width="0.5"/>
<path d="M20.6019 37.2527H40.1627C40.2189 37.2527 40.2646 37.2984 40.2646 37.3546C40.2646 37.4109 40.219 37.4565 40.1627 37.4565H20.6019C20.5456 37.4565 20.5 37.4109 20.5 37.3546C20.5 37.2983 20.5456 37.2527 20.6019 37.2527Z" stroke="white" stroke-opacity="0.96" stroke-width="0.5"/>
<path fill-rule="evenodd" clip-rule="evenodd" d="M19.65 7C17.6342 7 16 8.63416 16 10.65V42.65C16 44.6658 17.6342 46.3 19.65 46.3H34.2786C36.2944 46.3 37.9286 44.6658 37.9286 42.65V39.15H36.6286V42.65C36.6286 43.9479 35.5764 45 34.2786 45H19.65C18.3521 45 17.3 43.9479 17.3 42.65V10.65C17.3 9.35213 18.3521 8.3 19.65 8.3H34.2786C35.5764 8.3 36.6286 9.35213 36.6286 10.65V16.15H37.9286V10.65C37.9286 8.63416 36.2944 7 34.2786 7H19.65Z" fill="white"/>
<path d="M27.334 23.7543H27.3339C26.7453 24.0033 26.1203 24.1296 25.4752 24.1296C24.8301 24.1296 24.2051 24.0032 23.6164 23.7543C23.0478 23.5138 22.5373 23.1697 22.0987 22.731H22.0986C21.6599 22.2922 21.3158 21.7818 21.0753 21.2132V21.2131C20.8263 20.6245 20.7 19.9995 20.7 19.3544C20.7 18.7093 20.8263 18.0843 21.0753 17.4957V17.4956C21.3158 16.927 21.6599 16.4166 22.0986 15.9779C22.5374 15.5391 23.0478 15.195 23.6164 14.9546L23.6165 14.9545C24.2051 14.7055 24.8301 14.5792 25.4752 14.5792C26.1202 14.5792 26.7452 14.7056 27.334 14.9546C27.9026 15.195 28.413 15.5391 28.8517 15.9779C29.2905 16.4166 29.6346 16.927 29.875 17.4956L29.8751 17.4957C30.1241 18.0843 30.2504 18.7093 30.2504 19.3544C30.2504 19.9995 30.124 20.6245 29.875 21.2132C29.6346 21.7818 29.2905 22.2922 28.8517 22.731C28.413 23.1697 27.9026 23.5138 27.334 23.7543ZM30.0468 19.3544C30.0468 16.8334 27.9961 14.7828 25.4752 14.7828C22.9541 14.7828 20.9036 16.8334 20.9036 19.3544C20.9036 21.8755 22.9541 23.926 25.4752 23.926C27.9962 23.926 30.0468 21.8753 30.0468 19.3544Z" stroke="white" stroke-opacity="0.96" stroke-width="0.5"/>
<path d="M24.5004 21.3951C24.7087 21.5646 24.9628 21.6823 25.2409 21.7382L25.4377 21.7777L25.4416 21.9785L25.4492 22.3739C25.4502 22.4267 25.4938 22.4686 25.5465 22.4676C25.5993 22.4666 25.6412 22.423 25.6402 22.3703L25.6333 22.013L25.629 21.788L25.8522 21.7601C26.2089 21.7155 26.5338 21.5722 26.7847 21.3514C26.934 21.2199 27.0486 21.0692 27.1275 20.9034C27.211 20.7282 27.2508 20.5442 27.2472 20.3549C27.2386 19.9032 26.9741 19.475 26.5128 19.2189C26.4712 19.1957 26.2252 19.0662 25.8285 18.9883L25.6271 18.9488L25.6267 18.7435L25.6235 17.165L25.6228 16.8485L25.9309 16.9212C26.1268 16.9674 26.3102 17.0541 26.4645 17.1798C26.6938 17.3665 26.8385 17.6263 26.8441 17.9155M24.5004 21.3951C24.3461 21.2696 24.226 21.1233 24.1406 20.9608C24.0505 20.7887 24.0037 20.6065 24 20.4173M24.5004 21.3951L24 20.4173M24 20.4173C23.999 20.3646 24.0409 20.321 24.0937 20.32C24.1464 20.319 24.19 20.361 24.1911 20.4137M24 20.4173L24.1911 20.4137M26.585 17.0315C26.3819 16.8662 26.1299 16.7555 25.8546 16.7117L25.648 16.6788L25.644 16.4696L25.6368 16.0937C25.6357 16.0409 25.5921 15.999 25.5394 16C25.4867 16.0011 25.4447 16.0447 25.4457 16.0974L25.453 16.4733L25.457 16.6825L25.2518 16.7233C24.9784 16.7776 24.7309 16.8978 24.5342 17.0709C24.2541 17.3172 24.1117 17.6356 24.1181 17.9676C24.1243 18.2908 24.2719 18.5974 24.5477 18.8308L24.5508 18.8331L24.5541 18.8361C24.7356 18.9846 24.976 19.0583 25.248 19.1014L25.4584 19.1347L25.4588 19.3478L25.4627 21.2772L25.4634 21.611L25.1428 21.5177C24.6283 21.3679 24.2015 20.9566 24.1911 20.4137M26.585 17.0315C26.8744 17.267 27.0287 17.5796 27.0351 17.9118M26.585 17.0315L27.0351 17.9118M27.0351 17.9118L26.8441 17.9155M27.0351 17.9118C27.0361 17.9645 26.9942 18.0081 26.9414 18.0091C26.8887 18.0101 26.8451 17.9682 26.8441 17.9155M24.6715 18.6851C24.4522 18.4996 24.3146 18.2449 24.3093 17.9639C24.3037 17.6748 24.4383 17.4096 24.6605 17.2142C24.7955 17.0955 24.9555 17.0075 25.1281 16.9521L25.4539 16.8475L25.4545 17.1896L25.4575 18.6447L25.4581 18.9527L25.1566 18.8899C24.9945 18.8562 24.812 18.8003 24.6744 18.6875L24.6715 18.6851ZM26.4202 19.3859L26.4177 19.3845L26.4163 19.3838L26.4132 19.3821L26.404 19.3772C26.3966 19.3734 26.3869 19.3685 26.3751 19.3628C26.3514 19.3513 26.319 19.3364 26.2783 19.3196C26.197 19.2861 26.0827 19.245 25.9396 19.2088L25.6277 19.13L25.6283 19.4517L25.632 21.3097L25.6326 21.6099L25.9277 21.555C26.5396 21.4411 27.0682 20.9768 27.0563 20.3585C27.0484 19.9497 26.7933 19.593 26.4202 19.3859Z" stroke="white" stroke-opacity="0.96" stroke-width="0.5"/>
</svg>
