<svg width="54" height="55" viewBox="0 0 54 55" fill="none" xmlns="http://www.w3.org/2000/svg">
<path d="M21.3437 22.3125C20.7766 22.3125 20.3125 21.8484 20.3125 21.2812V19.2187C20.3125 18.0431 23.7259 16.125 26.5 16.125C29.2844 16.125 32.6875 18.0431 32.6875 19.2187V21.2812C32.6875 21.8484 32.2234 22.3125 31.6562 22.3125H21.3437Z" stroke="white" stroke-width="1.3" stroke-miterlimit="10"/>
<path d="M26.4998 16.125C28.8623 16.125 30.4373 14.181 30.4373 11.7814V10.3436C30.4373 7.944 28.8721 6 26.4998 6C24.1373 6 22.5623 7.944 22.5623 10.3436V11.7915C22.5623 14.181 24.1274 16.125 26.4998 16.125Z" stroke="white" stroke-width="1.3" stroke-miterlimit="10"/>
<path d="M21.3437 48.1875C20.7766 48.1875 20.3125 47.7234 20.3125 47.1562V45.0937C20.3125 43.9181 23.7259 42 26.5 42C29.2844 42 32.6875 43.9181 32.6875 45.0937V47.1562C32.6875 47.7234 32.2234 48.1875 31.6562 48.1875H21.3437Z" stroke="white" stroke-width="1.3" stroke-miterlimit="10"/>
<path d="M26.4998 42C28.8623 42 30.4373 40.0579 30.4373 37.6607V36.2143C30.4373 33.8171 28.8721 31.875 26.4998 31.875C24.1373 31.875 22.5623 33.8171 22.5623 36.2143V37.6607C22.5623 40.0579 24.1274 42 26.4998 42Z" stroke="white" stroke-width="1.3" stroke-miterlimit="10"/>
<path d="M5.03125 36.375C4.46406 36.375 4 35.9109 4 35.3437V33.2812C4 32.1056 7.40312 30.1875 10.1875 30.1875C12.9719 30.1875 16.375 32.1056 16.375 33.2812V35.3437C16.375 35.9109 15.9109 36.375 15.3437 36.375H5.03125Z" stroke="white" stroke-width="1.3" stroke-miterlimit="10"/>
<path d="M10.1875 30.1875C12.55 30.1875 14.125 28.2435 14.125 25.8439V24.396C14.125 22.0065 12.5598 20.0625 10.1875 20.0625C7.825 20.0625 6.25 22.0065 6.25 24.4061V25.854C6.25 28.2435 7.81516 30.1875 10.1875 30.1875Z" stroke="white" stroke-width="1.3" stroke-miterlimit="10"/>
<path d="M37.6562 36.375C37.0891 36.375 36.625 35.9109 36.625 35.3437V33.2812C36.625 32.1056 40.0384 30.1875 42.8125 30.1875C45.5969 30.1875 49 32.1056 49 33.2812V35.3437C49 35.9109 48.5359 36.375 47.9687 36.375H37.6562Z" stroke="white" stroke-width="1.3" stroke-miterlimit="10"/>
<path d="M42.8125 30.1875C45.175 30.1875 46.75 28.2454 46.75 25.8482V24.4018C46.75 22.0046 45.1848 20.0625 42.8125 20.0625C40.45 20.0625 38.875 22.0046 38.875 24.4018V25.8482C38.875 28.2454 40.45 30.1875 42.8125 30.1875Z" stroke="white" stroke-width="1.3" stroke-miterlimit="10"/>
<path d="M10.75 17.25C12.847 14.2444 15.7688 11.8763 19.1875 10.5" stroke="white" stroke-width="1.3" stroke-miterlimit="10"/>
<path d="M17.5 44.8125C14.8166 43.4503 12.5077 41.5198 10.75 39.1875" stroke="white" stroke-width="1.3" stroke-miterlimit="10"/>
<path d="M42.25 17.25C40.153 14.2444 37.2312 11.8763 33.8125 10.5" stroke="white" stroke-width="1.3" stroke-miterlimit="10"/>
<path d="M35.5 44.8125C38.1834 43.4503 40.4923 41.5198 42.25 39.1875" stroke="white" stroke-width="1.3" stroke-miterlimit="10"/>
</svg>
