<svg width="54" height="55" viewBox="0 0 54 55" fill="none" xmlns="http://www.w3.org/2000/svg">
<path d="M31.6641 23.0067C31.2934 23.0067 30.9895 23.3075 30.9895 23.6813V26.9295C30.9895 28.8042 29.6222 30.4815 27.7565 30.6638C25.6143 30.8735 23.8064 29.1871 23.8064 27.0905V23.6782C23.8064 23.3075 23.5056 23.0037 23.1318 23.0037C22.7611 23.0037 22.4573 23.3045 22.4573 23.6782V26.9143C22.4573 28.978 23.6761 30.8596 25.4939 31.6403C26.1668 31.9293 26.7234 32.5263 26.7234 33.2587V33.2587C26.7234 34.0659 26.069 34.7203 25.2618 34.7203H25.1525C24.7818 34.7203 24.4779 35.0211 24.4779 35.3948C24.4779 35.7655 24.7787 36.0694 25.1525 36.0694H29.6434C30.0141 36.0694 30.318 35.7686 30.318 35.3948C30.318 35.0241 30.0172 34.7203 29.6434 34.7203H29.5359C28.7277 34.7203 28.0725 34.0651 28.0725 33.2569V33.2569C28.0725 32.5251 28.6266 31.9273 29.3017 31.6447C31.0838 30.8989 32.3386 29.1367 32.3386 27.0875V23.6782C32.3386 23.3075 32.0348 23.0067 31.6641 23.0067Z" fill="white"/>
<path d="M27.3981 29.333C28.6317 29.333 29.6436 28.3242 29.6436 27.0875V20.0168C29.6436 18.7832 28.6348 17.7714 27.3981 17.7714C26.1614 17.7714 25.1526 18.7802 25.1526 20.0168V27.0875C25.1526 28.3242 26.1644 29.333 27.3981 29.333Z" fill="white"/>
<path d="M23.0647 12.4726C23.399 12.4726 23.6724 12.1992 23.6724 11.8649C23.6724 11.5307 23.399 11.2572 23.0647 11.2572H23.0617C22.7275 11.2572 22.457 11.5307 22.457 11.8649C22.457 12.1992 22.7305 12.4726 23.0647 12.4726Z" fill="white"/>
<rect x="17.6786" y="8.65" width="19.3286" height="36.7" rx="2.35" stroke="white" stroke-width="1.3"/>
<line x1="17.0286" y1="13.8643" x2="37.6571" y2="13.8643" stroke="white" stroke-width="1.3"/>
<line x1="17.0286" y1="41.0071" x2="37.6571" y2="41.0071" stroke="white" stroke-width="1.3"/>
<path fill-rule="evenodd" clip-rule="evenodd" d="M31.1429 11.8001C31.1429 12.0999 30.8999 12.3429 30.6001 12.3429L26.2572 12.3429C25.9574 12.3429 25.7144 12.0999 25.7144 11.8001V11.8001C25.7144 11.5002 25.9574 11.2572 26.2572 11.2572L30.6001 11.2572C30.8999 11.2572 31.1429 11.5002 31.1429 11.8001V11.8001Z" fill="white"/>
<path fill-rule="evenodd" clip-rule="evenodd" d="M30.0572 43.2858C30.0572 43.5856 29.8142 43.8286 29.5144 43.8286L25.1715 43.8286C24.8717 43.8286 24.6287 43.5856 24.6287 43.2858V43.2858C24.6287 42.986 24.8717 42.7429 25.1715 42.7429L29.5144 42.7429C29.8142 42.7429 30.0572 42.986 30.0572 43.2858V43.2858Z" fill="white"/>
<path fill-rule="evenodd" clip-rule="evenodd" d="M40.3714 35.1428C40.0716 35.1428 39.8286 34.8998 39.8286 34.6V21.5714C39.8286 21.2716 40.0716 21.0286 40.3714 21.0286V21.0286C40.6713 21.0286 40.9143 21.2716 40.9143 21.5714V34.6C40.9143 34.8998 40.6713 35.1428 40.3714 35.1428V35.1428Z" fill="white"/>
<path fill-rule="evenodd" clip-rule="evenodd" d="M14.3143 35.1428C14.0145 35.1428 13.7715 34.8998 13.7715 34.6V21.5714C13.7715 21.2716 14.0145 21.0286 14.3143 21.0286V21.0286C14.6141 21.0286 14.8572 21.2716 14.8572 21.5714V34.6C14.8572 34.8998 14.6141 35.1428 14.3143 35.1428V35.1428Z" fill="white"/>
<path fill-rule="evenodd" clip-rule="evenodd" d="M46.8859 32.9714C46.586 32.9714 46.343 32.7284 46.343 32.4285V22.6571C46.343 22.3573 46.586 22.1143 46.8859 22.1143V22.1143C47.1857 22.1143 47.4287 22.3573 47.4287 22.6571V32.4285C47.4287 32.7284 47.1857 32.9714 46.8859 32.9714V32.9714Z" fill="white"/>
<path fill-rule="evenodd" clip-rule="evenodd" d="M7.80016 32.9714C7.50035 32.9714 7.2573 32.7284 7.2573 32.4285L7.2573 22.6571C7.2573 22.3573 7.50035 22.1143 7.80016 22.1143V22.1143C8.09997 22.1143 8.34302 22.3573 8.34302 22.6571V32.4285C8.34302 32.7284 8.09997 32.9714 7.80016 32.9714V32.9714Z" fill="white"/>
<path fill-rule="evenodd" clip-rule="evenodd" d="M50.1429 28.6286C49.8431 28.6286 49.6001 28.3856 49.6001 28.0857V25.9143C49.6001 25.6145 49.8431 25.3715 50.1429 25.3715V25.3715C50.4427 25.3715 50.6858 25.6145 50.6858 25.9143V28.0857C50.6858 28.3856 50.4427 28.6286 50.1429 28.6286V28.6286Z" fill="white"/>
<path fill-rule="evenodd" clip-rule="evenodd" d="M4.54284 28.2571C4.24302 28.2571 3.99998 28.0141 3.99998 27.7143V25.5429C3.99998 25.243 4.24302 25 4.54284 25V25C4.84265 25 5.08569 25.243 5.08569 25.5429V27.7143C5.08569 28.0141 4.84265 28.2571 4.54284 28.2571V28.2571Z" fill="white"/>
<path fill-rule="evenodd" clip-rule="evenodd" d="M43.6285 37.3143C43.3287 37.3143 43.0857 37.0713 43.0857 36.7715L43.0857 19.4C43.0857 19.1002 43.3287 18.8572 43.6285 18.8572V18.8572C43.9283 18.8572 44.1714 19.1002 44.1714 19.4L44.1714 36.7715C44.1714 37.0713 43.9283 37.3143 43.6285 37.3143V37.3143Z" fill="white"/>
<path fill-rule="evenodd" clip-rule="evenodd" d="M11.0572 37.3143C10.7574 37.3143 10.5144 37.0713 10.5144 36.7715L10.5144 19.4C10.5144 19.1002 10.7574 18.8572 11.0572 18.8572V18.8572C11.3571 18.8572 11.6001 19.1002 11.6001 19.4L11.6001 36.7715C11.6001 37.0713 11.3571 37.3143 11.0572 37.3143V37.3143Z" fill="white"/>
</svg>
