<svg width="54" height="55" viewBox="0 0 54 55" fill="none" xmlns="http://www.w3.org/2000/svg">
<path d="M27.7065 29.3044H29.5772C30.1664 29.3044 31.09 29.6784 31.4478 30.2392H33.3184C34.1953 30.2392 35.189 31.0572 35.189 32.1088H37.0597C37.9365 32.1088 38.9303 32.9267 38.9303 33.9784V43.7071C38.9303 45.5989 37.0597 46.7405 37.0597 48.0001" stroke="white" stroke-width="1.3" stroke-miterlimit="10" stroke-linecap="round" stroke-linejoin="round"/>
<path d="M27.7065 33.0435V22.7609C27.7065 21.728 26.8694 20.8914 25.8358 20.8914C24.8023 20.8914 23.9652 21.728 23.9652 22.7609V36.7827C23.3175 37.4043 22.2629 37.2804 21.7766 36.5268L20.2719 34.1956C18.7754 32.1356 16.4839 33.2912 16.4839 34.1956C16.4839 34.1956 19.3214 40.8221 19.7282 41.4577C20.3818 42.4801 23.9664 46.6481 23.9664 47.4473V48" stroke="white" stroke-width="1.3" stroke-miterlimit="10" stroke-linecap="round" stroke-linejoin="round"/>
<path d="M31.4475 30.2391V33.9783" stroke="white" stroke-width="1.3" stroke-miterlimit="10" stroke-linecap="round" stroke-linejoin="round"/>
<path d="M35.1887 32.1085V34.9129" stroke="white" stroke-width="1.3" stroke-miterlimit="10" stroke-linecap="round" stroke-linejoin="round"/>
<path d="M21.1591 24.6304H16.4826C15.9658 24.6304 15.5473 24.2121 15.5473 23.6956V17.1522C15.5473 16.1169 14.5582 16.298 14.2764 16.7198C13.7316 17.5343 12.8851 18.0869 11.9101 18.0869C10.0734 18.0869 8.63298 16.1718 9.0831 14.0206C9.31926 12.8907 10.1166 11.9653 11.1139 11.6638C12.4163 11.2689 13.5878 11.8812 14.2752 12.9094C14.5582 13.3324 15.5473 13.5135 15.5473 12.4783V5.93478C15.5473 5.41831 15.9658 5 16.4826 5H24.9004C25.9362 5 25.755 5.98853 25.333 6.27013C24.303 6.9572 23.6915 8.12801 24.0867 9.43087C24.3883 10.4276 25.3131 11.2233 26.4437 11.4605C28.596 11.9104 30.5123 10.472 30.5123 8.63513C30.5123 7.66062 29.9593 6.81465 29.1444 6.27013C28.7223 5.98853 28.5411 5 29.5769 5H37.9948C38.5115 5 38.9301 5.41831 38.9301 5.93478V12.4783C38.9301 13.5135 39.9192 13.3324 40.2009 12.9106C40.8884 11.8812 42.0599 11.27 43.3623 11.665C44.3596 11.9665 45.1569 12.8919 45.3931 14.0218C45.8432 16.173 44.404 18.0881 42.5661 18.0881C41.591 18.0881 40.7446 17.5354 40.1998 16.721C39.9168 16.298 38.9289 16.1181 38.9289 17.1533V23.6968C38.9289 24.2133 38.5103 24.6316 37.9936 24.6316H30.5111" stroke="white" stroke-width="1.3" stroke-miterlimit="10"/>
</svg>
