<svg width="54" height="55" viewBox="0 0 54 55" fill="none" xmlns="http://www.w3.org/2000/svg">
<path d="M10 42.1556V9.88889C10 7.19022 12.1902 5 14.8889 5H43.2444V38.2444H40.3111" stroke="white" stroke-width="1.3" stroke-miterlimit="10"/>
<path d="M16.8444 47.0444H14.4782C12.0044 47.0444 10 45.0399 10 42.5662V42.6639C10 40.1804 12.0044 38.2444 14.4782 38.2444H43.2444V47.0444H26.6222" stroke="white" stroke-width="1.3" stroke-miterlimit="10"/>
<path d="M24.6667 43.1333H39.3334V38.2444" stroke="white" stroke-width="1.3" stroke-miterlimit="10"/>
<path d="M12.9333 43.1333H18.8" stroke="white" stroke-width="1.3" stroke-miterlimit="10"/>
<path d="M18.8 41.1777V49L21.7334 47.1911L24.6667 49V41.1777H18.8Z" stroke="white" stroke-width="1.3" stroke-miterlimit="10"/>
<path d="M14.8889 7.93335V35.3111" stroke="white" stroke-width="1.3" stroke-miterlimit="10"/>
<path d="M26.4111 27.0069C26.5353 26.8827 26.666 26.6801 27.0647 26.6801C27.4633 26.6801 31.2408 26.6801 31.6394 26.6801C32.0022 26.6801 33.9987 24.677 34.2536 24.3927C34.4987 24.1182 35.5868 22.4844 35.8874 21.7786C35.6979 21.5237 35.1849 21.3113 34.5804 21.4518C34.002 21.5858 33.6621 22.0008 33.2733 22.7589L31.7767 23.5366" stroke="white" stroke-width="0.8" stroke-miterlimit="10" stroke-linejoin="round"/>
<path d="M28.3719 24.7195C28.3719 24.7195 30.6593 24.7195 30.986 24.7195C32.2931 24.7195 32.2931 23.0857 30.986 23.0857C30.6593 23.0857 30.1691 23.0857 29.2607 23.0857C28.9895 23.0857 28.4765 22.4321 28.0451 22.4321C27.8523 22.4321 26.8524 22.4321 26.4113 22.4321C25.9701 22.4321 25.4212 22.7916 25.1042 23.0857C24.614 23.5758 23.7971 24.3927 23.7971 24.3927" stroke="white" stroke-width="0.8" stroke-miterlimit="10" stroke-linejoin="round"/>
<path d="M23.1412 23.7393L21.5076 25.3729L25.4286 29.294L27.0622 27.6604L23.1412 23.7393Z" stroke="white" stroke-width="0.8" stroke-miterlimit="10" stroke-linejoin="round"/>
<path d="M23.1436 25.3732L23.7971 26.0267" stroke="white" stroke-width="0.8" stroke-miterlimit="10" stroke-linejoin="round"/>
<path d="M33.6001 22.1053L32.9465 21.4517H31.9662L30.9859 20.7982H30.3324L29.6789 20.4714L29.0253 21.125H28.045L27.0647 21.7785V22.4321" stroke="white" stroke-width="0.8" stroke-miterlimit="10"/>
<path d="M27.7344 17.7136C28.5938 18.2136 28.6983 19.4912 28.6983 19.4912C28.6983 19.4912 27.4729 19.9781 26.6135 19.4782C25.7541 18.9782 24.7771 17.2039 24.7771 17.2039C24.7771 17.2039 26.875 17.2137 27.7344 17.7136Z" stroke="white" stroke-width="0.8" stroke-miterlimit="10"/>
<path d="M30.1953 19.3671C29.3979 18.5469 29.4992 17.1091 29.96 16.5373C31.1952 15.008 32.8846 15.4557 34.2276 14.5897C34.9301 15.7988 34.5511 17.7594 33.3976 18.9652C32.6199 19.7755 31.5644 19.6677 31.0318 19.5435" stroke="white" stroke-width="0.8" stroke-miterlimit="10"/>
<path d="M29.679 20.7983C29.9502 18.3475 31.8487 17.4261 33.1133 16.3412" stroke="white" stroke-width="0.8" stroke-miterlimit="10"/>
</svg>
