<svg width="54" height="55" fill="none" xmlns="http://www.w3.org/2000/svg"><path d="M11.384 41.175a.65.65 0 0 0-1.3 0h1.3Zm-1.3.85a.65.65 0 1 0 1.3 0h-1.3Zm4.941-2.96a.65.65 0 1 0-1.3 0h1.3Zm-1.3 2.96a.65.65 0 0 0 1.3 0h-1.3Zm4.941-5.492a.65.65 0 1 0-1.3 0h1.3Zm-1.3 5.493a.65.65 0 1 0 1.3 0h-1.3ZM22.308 34a.65.65 0 1 0-1.3 0h1.3Zm-1.3 8.025a.65.65 0 1 0 1.3 0h-1.3Zm4.941-4.227a.65.65 0 1 0-1.3 0h1.3Zm-1.3 4.227a.65.65 0 1 0 1.3 0h-1.3Zm4.942-6.337a.65.65 0 1 0-1.3 0h1.3Zm-1.3 6.337a.65.65 0 1 0 1.3 0h-1.3Zm4.941-8.868a.65.65 0 1 0-1.3 0h1.3Zm-1.3 8.868a.65.65 0 1 0 1.3 0h-1.3Zm4.941-11.939a.65.65 0 0 0-1.3 0h1.3Zm-1.3 11.939a.65.65 0 1 0 1.3 0h-1.3Zm4.942-14.082a.65.65 0 0 0-1.3 0h1.3Zm-1.3 14.082a.65.65 0 0 0 1.3 0h-1.3ZM9.968 36.794a.65.65 0 0 0 .743 1.067l-.743-1.067Zm11.69-7.353.494-.422a.65.65 0 0 0-.866-.11l.372.532Zm3.641 4.26-.494.422a.65.65 0 0 0 .866.11l-.372-.533Zm9.234-5.64a.65.65 0 0 0-.743-1.067l.743 1.067ZM7.18 17.37l.45-.47a.65.65 0 0 0-.899 0l.45.47Zm0 27.551h-.65c0 .36.291.65.65.65v-.65Zm41.097 0 .448.47a.65.65 0 0 0 0-.94l-.448.47Zm-39.366-25a.65.65 0 0 0 .897-.94l-.897.94Zm-4.36-.94a.65.65 0 0 0 .898.94l-.898-.94Zm41.097 27.55a.65.65 0 1 0 .897.94l-.897-.94Zm.897-4.16a.65.65 0 1 0-.897.941l.897-.94Zm-.463-23.724.597.26v-.001l-.597-.259Zm-3.656-8.418.238-.605-.238.605Zm1.86-2.656a.65.65 0 0 0-1.193-.518l1.193.518Zm-2.906 3.434a.65.65 0 0 0 1.192.517l-1.192-.517Zm-3.104 10.421a.65.65 0 0 0-1.193-.517l1.193.517Zm-2.975 3.592a.65.65 0 0 0 1.193.517L35.3 25.02Zm7.926-18.588a.65.65 0 1 0-.478 1.209l.478-1.209Zm.925 1.764a.65.65 0 1 0 .479-1.209l-.479 1.209Zm-8.717 16.2a.65.65 0 0 0-.479 1.209l.479-1.209Zm.925 1.763a.65.65 0 1 0 .479-1.208l-.48 1.208ZM30.896 11.95a.65.65 0 1 0-.478 1.209l.478-1.21Zm3.596 2.818a.65.65 0 0 0 .477-1.21l-.477 1.21Zm10.79 2.864a.65.65 0 0 0-.478 1.21l.478-1.21Zm3.616 2.826a.65.65 0 1 0 .477-1.209l-.477 1.21ZM29.77 12.965a.65.65 0 1 0 1.192.518l-1.192-.518Zm1.774-.821a.65.65 0 1 0-1.192-.519l1.192.519Zm16.705 8.12a.65.65 0 1 0 1.192.519l-1.192-.519Zm1.773-.82a.65.65 0 0 0-1.192-.52l1.192.52ZM37.196 8.266a.65.65 0 0 0-1.192.518l1.192-.518Zm.222 3.773a.65.65 0 1 0 1.193-.517l-1.193.517Zm4.927 8.272a.65.65 0 1 0-1.193.518l1.193-.518Zm.268 3.879a.65.65 0 0 0 1.192-.518l-1.192.518ZM35.659 8.199a.65.65 0 0 0 .479 1.208l-.48-1.208Zm1.881.654a.65.65 0 1 0-.476-1.21l.476 1.21Zm4.727 14.752a.65.65 0 1 0 .48 1.208l-.48-1.208Zm1.882.654a.65.65 0 1 0-.477-1.21l.477 1.21Zm-13.775-5.056a.65.65 0 1 0 .478 1.209l-.478-1.21Zm4.932-.553a.65.65 0 1 0-.478-1.21l.478 1.21Zm9.137-4.986a.65.65 0 0 0 .478 1.209l-.478-1.21Zm5.505-.78a.65.65 0 0 0-.478-1.209l.478 1.21Zm-19.64 7.852a.65.65 0 0 0 1.192-.518l-1.192.518Zm.611-1.856a.65.65 0 0 0-1.193.515l1.193-.515Zm18.485-5.671a.65.65 0 1 0 1.192-.519l-1.192.519Zm.611-1.857a.65.65 0 0 0-1.193.516l1.193-.516ZM40.485 7a.65.65 0 1 0-1.3 0h1.3Zm-1.3 2.738a.65.65 0 0 0 1.3-.001l-1.3.001Zm1.31 12.91a.65.65 0 1 0-1.3 0h1.3Zm-1.3 2.418a.65.65 0 1 0 1.3-.002l-1.3.002ZM39.075 6.35a.65.65 0 1 0 0 1.3v-1.3Zm1.52 1.3a.65.65 0 1 0 0-1.3v1.3Zm-1.509 16.766a.65.65 0 1 0 0 1.3v-1.3Zm1.52 1.3a.65.65 0 1 0 0-1.3v1.3Zm-9.58-10.17a.65.65 0 1 0 0 1.3v-1.3Zm2.064 1.3a.65.65 0 0 0-.002-1.3l.002 1.3Zm13.508-1.315a.65.65 0 1 0 0 1.3v-1.3Zm2.555 1.299a.65.65 0 0 0-.002-1.3l.002 1.3Zm-18.777.09a.65.65 0 1 0 1.3 0h-1.3Zm1.3-1.45a.65.65 0 1 0-1.3 0h1.3Zm16.827 1.435a.65.65 0 1 0 1.3 0h-1.3Zm1.3-1.45a.65.65 0 0 0-1.3 0h1.3Zm-3.146-4.899a.65.65 0 0 0-.897-.94l.897.94Zm-2.498.589a.65.65 0 0 0 .898.94l-.898-.94ZM35.516 21.21a.65.65 0 1 0-.898-.94l.898.94Zm-2.703.784a.65.65 0 0 0 .898.94l-.898-.94ZM46.12 9.103a.65.65 0 0 0-.896.942l.896-.942Zm.179 1.967a.65.65 0 1 0 .896-.942l-.896.942ZM33.173 21.482a.65.65 0 0 0-.897.941l.897-.941Zm.178 1.966a.65.65 0 1 0 .896-.942l-.896.942Zm.356-14.016a.65.65 0 0 0-.896.941l.896-.94Zm.91 2.664a.65.65 0 0 0 .897-.94l-.897.94Zm10.446 8.177a.65.65 0 0 0-.897.94l.897-.94Zm1.22 2.96a.65.65 0 0 0 .897-.94l-.897.94ZM32.273 9.946a.65.65 0 0 0 .898.94l-.899-.94Zm1.972-.086a.65.65 0 1 0-.899-.94l.899.94Zm11.5 12.945a.65.65 0 1 0 .899.94l-.9-.94Zm1.972-.086a.65.65 0 0 0-.898-.94l.898.94Zm-5.519-5.607-.596-.258.596.259Zm-3.33 1.318.238-.604-.239.604Zm-1.381-3.178.596.258-.596-.258Zm3.33-1.318-.239.605.24-.605Zm-30.733 27.24v.852h1.3v-.852h-1.3Zm3.641-2.11v2.962h1.3v-2.961h-1.3Zm3.641-2.53v5.492h1.3v-5.493h-1.3ZM21.008 34v8.025h1.3V34h-1.3Zm3.641 3.798v4.227h1.3v-4.227h-1.3Zm3.642-2.11v6.337h1.3v-6.337h-1.3Zm3.641-2.53v8.867h1.3v-8.868h-1.3Zm3.641-3.072v11.939h1.3V30.087h-1.3Zm3.642-2.143v14.082h1.3V27.944h-1.3ZM10.71 37.861l11.318-7.886-.743-1.067-11.318 7.886.743 1.067Zm10.453-7.997 3.641 4.259.988-.845-3.641-4.259-.988.845Zm4.507 4.37 8.862-6.173-.743-1.067-8.862 6.173.743 1.066ZM6.53 17.369V44.92h1.3V17.37h-1.3Zm.65 28.201h41.096v-1.3H7.18v1.3Zm2.627-26.59L7.63 16.898l-.898.94 2.18 2.08.897-.94Zm-3.077-2.081-2.18 2.08.898.94 2.18-2.08-.897-.94ZM46.545 47.47l2.18-2.08-.897-.94-2.18 2.08.897.94Zm2.18-3.02-2.18-2.08-.897.941 2.18 2.08.897-.941Zm-3.239-26.062c-1.28 2.95-4.849 4.383-7.987 3.143l-.478 1.21c3.755 1.483 8.084-.208 9.658-3.836l-1.193-.517Zm-7.987 3.143c-3.125-1.234-4.572-4.623-3.3-7.555l-1.192-.518c-1.581 3.646.246 7.794 4.014 9.282l.478-1.209Zm-3.3-7.555c1.28-2.95 4.85-4.384 7.988-3.144l.477-1.209c-3.754-1.483-8.083.207-9.657 3.835l1.193.518Zm7.988-3.144c3.123 1.234 4.57 4.624 3.299 7.556l1.193.517c1.58-3.644-.248-7.793-4.015-9.282l-.477 1.21Zm.906-3.778-.856 1.976-.857 1.976 1.192.517a9117.983 9117.983 0 0 1 1.714-3.951l-1.193-.518Zm-6.01 13.856-.89 2.054-.892 2.055 1.193.517.89-2.054.892-2.055-1.193-.517ZM42.75 7.64a618.133 618.133 0 0 0 1.403.555l.479-1.209-.703-.278-.7-.277-.48 1.209Zm-7.793 17.964.703.277.7.277.48-1.208-.703-.278-.701-.277-.479 1.209Zm-4.538-12.445a33284.375 33284.375 0 0 1 4.074 1.609l.477-1.21-2.036-.804-2.037-.804-.478 1.209Zm14.386 5.682 2.047.809 2.047.808.477-1.209-2.047-.808-2.046-.809-.478 1.21Zm-13.84-5.358a469.939 469.939 0 0 0 .58-1.339l-1.191-.519-.291.67-.29.67 1.191.518Zm18.478 7.3a619.837 619.837 0 0 0 .581-1.34l-1.192-.518a469.939 469.939 0 0 0-.581 1.34l1.192.518ZM36.004 8.785l.707 1.628.707 1.627 1.193-.517-.708-1.628-.707-1.628-1.192.518Zm5.148 12.045 1.46 3.36 1.193-.518-1.46-3.36-1.193.518ZM36.138 9.407l1.402-.554-.476-1.21-1.405.556.479 1.208Zm6.608 15.406 1.403-.554-.477-1.21-1.404.556.478 1.208Zm-11.894-4.401 2.227-.881 2.227-.881-.478-1.21a6064.56 6064.56 0 0 0-4.454 1.763l.478 1.209Zm14.07-5.54a6941.992 6941.992 0 0 0 5.026-1.988l-.478-1.209-2.513.995-2.514.994.478 1.209ZM31.5 20.219a530.73 530.73 0 0 1-.58-1.338l-1.194.515c.193.448.388.895.582 1.341l1.192-.518Zm19.096-7.528c-.194-.446-.388-.891-.58-1.338l-1.194.516c.193.448.388.895.582 1.34l1.192-.518ZM39.184 7l.001 2.738 1.3-.001V7h-1.3Zm.01 15.649c0 .805 0 1.61.002 2.417l1.3-.002-.001-2.415h-1.3Zm-.12-14.999H40.593v-1.3H39.074v1.3Zm.011 18.066H40.605v-1.3H39.085v1.3Zm-8.06-8.87h2.064l-.002-1.3h-2.062v1.3Zm15.572-.015 2.555-.001-.002-1.3h-2.553v1.3Zm-14.922.09V15.47h-1.3V16.92h1.3Zm18.127-.016V15.455h-1.3V16.905h1.3Zm-4.043-7.29-1.601 1.53.898.94 1.6-1.529-.897-.94Zm-11.14 10.657-1.806 1.723.898.94c.601-.573 1.204-1.148 1.805-1.724l-.898-.94Zm10.604-10.227.537.512.538.513.896-.942-.537-.512-.538-.513-.896.942ZM32.276 22.423a418.998 418.998 0 0 1 1.075 1.025l.896-.942a497.258 497.258 0 0 1-1.074-1.024l-.897.941Zm.535-12.05 1.806 1.723.897-.94c-.601-.575-1.204-1.15-1.807-1.724l-.896.941Zm11.355 10.84 1.058 1.01 1.059 1.01.897-.94a4712.5 4712.5 0 0 0-2.117-2.02l-.897.94ZM33.17 10.886l.536-.512c.18-.17.359-.342.538-.513l-.899-.94-.536.512-.538.514.899.94Zm13.473 12.86a679.552 679.552 0 0 1 1.073-1.026l-.898-.94-.537.513-.537.513.899.94Zm-5.042-6.891c-.392.902-1.503 1.364-2.496.972l-.477 1.209c1.608.635 3.48-.083 4.165-1.664l-1.192-.517Zm-2.496.972c-.98-.387-1.407-1.43-1.023-2.316l-1.193-.517c-.693 1.597.115 3.4 1.739 4.042l.477-1.21Zm-1.023-2.316c.391-.902 1.503-1.363 2.495-.971l.478-1.21c-1.608-.635-3.48.083-4.166 1.664l1.193.517Zm2.495-.971c.98.386 1.407 1.43 1.024 2.315l1.192.517c.693-1.597-.115-3.4-1.738-4.041l-.477 1.209Z" fill="#fff"/></svg>