<svg width="54" height="55" viewBox="0 0 54 55" fill="none" xmlns="http://www.w3.org/2000/svg">
<path d="M41.3015 44.3765V42.8818C41.3015 41.8954 39.5469 41.3872 38.6112 41.3872C37.6756 41.3872 35.9209 41.8954 35.9209 42.8818V44.3765" stroke="white" stroke-width="0.7" stroke-miterlimit="10" stroke-linejoin="round"/>
<path d="M38.6112 40.4905C39.3077 40.4905 39.8069 40.0032 39.8069 39.2948V38.6969C39.8069 37.9885 39.3077 37.5012 38.6112 37.5012C37.9147 37.5012 37.4155 37.9885 37.4155 38.6969V39.2948C37.4155 40.0032 37.9147 40.4905 38.6112 40.4905Z" stroke="white" stroke-width="0.7" stroke-miterlimit="10" stroke-linejoin="round"/>
<path d="M45.7854 35.4086L43.0951 37.8L41.8994 36.0064" stroke="white" stroke-width="0.7" stroke-miterlimit="10" stroke-linejoin="round"/>
<path d="M43.095 32.7184V33.9141" stroke="white" stroke-width="0.7" stroke-miterlimit="10" stroke-linejoin="round"/>
<path d="M47.8781 37.5012H46.6824" stroke="white" stroke-width="0.7" stroke-miterlimit="10" stroke-linejoin="round"/>
<path d="M43.095 42.284V41.0883" stroke="white" stroke-width="0.7" stroke-miterlimit="10" stroke-linejoin="round"/>
<path d="M37.7891 36.6044C38.2165 34.0605 40.4286 32.1205 43.095 32.1205C46.0663 32.1205 48.4756 34.5298 48.4756 37.5011C48.4756 40.4724 46.0663 42.8818 43.095 42.8818C42.7901 42.8818 42.4912 42.8549 42.1982 42.807" stroke="white" stroke-width="0.7" stroke-miterlimit="10" stroke-linejoin="round"/>
<path d="M36.5188 37.5012C36.5188 33.8692 39.4632 30.9248 43.0951 30.9248C46.7271 30.9248 49.6715 33.8692 49.6715 37.5012C49.6715 41.1331 46.7271 44.0775 43.0951 44.0775C42.7902 44.0775 42.4913 44.0566 42.1984 44.0177" stroke="white" stroke-width="0.7" stroke-miterlimit="10" stroke-linejoin="round"/>
<path d="M19.821 44.0533H23.6005" stroke="white" stroke-miterlimit="10"/>
<path d="M14.5295 44.0533H18.309" stroke="white" stroke-miterlimit="10"/>
<path d="M30.4036 44.0533H34.1831" stroke="white" stroke-miterlimit="10"/>
<path d="M25.1121 44.0533H28.8916" stroke="white" stroke-miterlimit="10"/>
<path d="M9.3291 40.5763C9.55587 42.3753 10.977 43.804 12.776 44.0232" stroke="white" stroke-miterlimit="10"/>
<path d="M13.275 36.1013C11.4231 36.1013 9.8659 37.3637 9.41992 39.0796" stroke="white" stroke-miterlimit="10"/>
<path d="M19.0649 35.7383H14.5295" stroke="white" stroke-miterlimit="10"/>
<path d="M24.3564 35.7383H20.5769" stroke="white" stroke-miterlimit="10"/>
<path d="M34.4476 32.6166C34.2209 34.4156 32.7998 35.8443 31.0007 36.0635" stroke="white" stroke-miterlimit="10"/>
<path d="M30.5017 28.1417C32.3537 28.1417 33.9108 29.4116 34.3568 31.1275" stroke="white" stroke-miterlimit="10"/>
<path d="M19.821 28.1794H23.6005" stroke="white" stroke-miterlimit="10"/>
<path d="M29.6477 35.7383H25.8682" stroke="white" stroke-miterlimit="10"/>
<path d="M25.1121 28.1794H28.8916" stroke="white" stroke-miterlimit="10"/>
<path d="M12.2543 15.3291C12.2543 15.3291 12.2619 15.3291 12.2543 15.3291C12.2619 15.3291 12.2619 15.3291 12.2619 15.3291C13.9249 15.3291 15.2779 16.5915 15.2779 18.3451C15.2779 20.0988 13.9324 21.3763 12.2695 21.3763C12.2619 21.3763 12.2619 21.3763 12.2543 21.3763C12.2468 21.3763 12.2468 21.3763 12.2392 21.3763C10.5762 21.3763 9.22319 20.1064 9.23074 18.3451C9.2383 16.5915 10.5914 15.3291 12.2543 15.3291Z" stroke="white" stroke-width="2" stroke-miterlimit="10"/>
<path d="M12.262 10C16.8276 10 20.524 13.6964 20.524 18.262C20.524 20.2349 20.2367 21.6031 19.1104 23.3945C17.9917 25.186 12.262 31.9967 12.262 31.9967C12.262 31.9967 6.53226 25.186 5.41353 23.3945C4.28724 21.6031 4 20.2349 4 18.262C4 13.6964 7.69635 10 12.262 10Z" stroke="white" stroke-width="2" stroke-miterlimit="10"/>
</svg>
