<svg width="54" height="55" viewBox="0 0 54 55" fill="none" xmlns="http://www.w3.org/2000/svg">
<path d="M27.8974 46.4319H15.1795C13.4228 46.4319 12 44.8975 12 43.003V10.4289C12 8.53441 13.4228 7 15.1795 7H39.8205C41.5772 7 43 8.53441 43 10.4289V29.2876" stroke="white" stroke-miterlimit="10"/>
<path d="M24.7179 41.2886H15.1794V12.1433H39.8205V27.5732" stroke="white" stroke-miterlimit="10"/>
<path d="M25.5129 9.57166H30.2822" stroke="white" stroke-miterlimit="10"/>
<path d="M29.4872 47.2891C29.4872 47.2891 29.4872 46.2776 29.4872 45.5404C29.4872 44.8032 27.2377 42.703 26.6813 41.7601C26.3316 41.1772 23.9231 32.8793 23.9231 32.8793C23.9231 32.0478 25.8705 30.9934 27.1423 32.8793L29.2169 36.351L30.2821 35.2538V22.3956C30.2821 21.4526 30.9975 20.6812 31.8718 20.6812C32.7462 20.6812 33.4616 21.4526 33.4616 22.3956V33.5394V32.6822V28.4304H35.0513C35.5521 28.4304 36.339 28.4304 36.641 29.2876H38.2308C38.978 29.2876 39.8205 30.1448 39.8205 31.002H41.4103C42.1575 31.002 43 31.7135 43 32.6822V42.1115C43 43.8431 41.4103 45.2746 41.4103 46.4319V47.2891" stroke="white" stroke-miterlimit="10"/>
<path d="M36.6411 29.2876V33.5737" stroke="white" stroke-miterlimit="10"/>
<path d="M39.8206 31.002V34.4308" stroke="white" stroke-miterlimit="10"/>
<path d="M26.5916 18.1063C26.5146 18.0385 26.4097 18.0059 26.3093 18.0206C26.3047 18.0213 25.225 18.1694 24.1452 17.7442C23.0772 17.3237 22.4663 16.5332 22.4606 16.526C22.3935 16.4382 22.29 16.3722 22.1804 16.3722C22.1773 16.3722 22.1744 16.3722 22.1716 16.3722C22.0589 16.3722 21.9547 16.4468 21.8904 16.5407C21.8851 16.5482 21.3516 17.3291 20.2835 17.7492C19.2083 18.1723 18.2183 18.0242 18.2162 18.0238C18.1145 18.0077 18.0123 18.0375 17.9336 18.1056C17.8551 18.1737 17.812 18.2737 17.812 18.3784V22.2331C17.812 25.389 21.9363 27.3845 22.1119 27.468C22.1592 27.4906 22.2094 27.5017 22.2606 27.5017C22.3119 27.5017 22.3645 27.4906 22.4119 27.468C22.5878 27.3845 26.7156 25.389 26.7156 22.2331V18.3784C26.7156 18.2748 26.669 18.1744 26.5916 18.1063ZM26.009 22.2331C26.009 24.6258 22.9789 26.3649 22.2638 26.742C21.548 26.3656 18.5186 24.6304 18.5186 22.2331V18.7656C18.9426 18.7789 19.7221 18.7412 20.541 18.4189C21.341 18.1038 21.889 17.6227 22.1917 17.3007C22.5108 17.6191 23.0881 18.1027 23.8912 18.4189C24.7261 18.7473 25.5144 18.7807 26.009 18.7645V22.2331Z" fill="white"/>
<path d="M24.0061 20.4111L21.7802 22.8544L20.6103 21.7537C20.4672 21.619 20.2436 21.6276 20.1111 21.7728C19.9786 21.9179 19.9867 22.1449 20.1298 22.2793L21.559 23.6244C21.6243 23.6861 21.7102 23.7202 21.7992 23.7202C21.8038 23.7202 21.8084 23.7202 21.8127 23.7198C21.9066 23.7162 21.995 23.675 22.0586 23.6051L24.5247 20.898C24.6572 20.7524 24.6484 20.5259 24.5053 20.3914C24.3619 20.257 24.1386 20.2663 24.0061 20.4111Z" fill="white"/>
</svg>
