<svg width="54" height="55" viewBox="0 0 54 55" fill="none" xmlns="http://www.w3.org/2000/svg">
<path d="M37.7826 35.4823V42.2189C37.7826 43.4945 36.7491 44.5281 35.4735 44.5281H18.5237C17.2482 44.5281 16.2146 43.4945 16.2146 42.2189V35.4823" stroke="white" stroke-width="1.3" stroke-miterlimit="10"/>
<path d="M31.3491 26.3298H22.6465V24.2072C22.6465 22.9316 23.68 21.8981 24.9556 21.8981H29.0386C30.3142 21.8981 31.3477 22.9316 31.3477 24.2072V26.3298H31.3491Z" stroke="white" stroke-width="1.3" stroke-miterlimit="10"/>
<path d="M29.5711 34.8417V36.7579C29.5711 37.091 29.3035 37.3587 28.9703 37.3587H25.0254C24.6923 37.3587 24.4247 37.091 24.4247 36.7579V34.8417C22.0458 34.7036 19.6811 34.352 17.3435 33.7882L17.2652 33.7697C15.9768 33.4608 15.0671 32.3105 15.0671 30.9794V26.3284H38.9272V30.9794C38.9272 32.309 38.0175 33.4593 36.7291 33.7697L36.6508 33.7882C34.3146 34.352 31.95 34.7022 29.5711 34.8417Z" stroke="white" stroke-width="1.3" stroke-miterlimit="10"/>
<path d="M47.99 27.5215L48 24.2471L40.6299 18.7576V11.3419H35.6827V15.348L26.9046 9L6 24.2514L6.02563 27.8802" stroke="white" stroke-width="1.3" stroke-miterlimit="10"/>
</svg>
