<svg width="90" height="90" viewBox="0 0 90 90" fill="none" xmlns="http://www.w3.org/2000/svg">
<path fill-rule="evenodd" clip-rule="evenodd" d="M86 44.6763C86 67.114 67.671 85.3525 45 85.3525C22.329 85.3525 4 67.114 4 44.6763C4 22.2386 22.329 4 45 4C67.671 4 86 22.2386 86 44.6763ZM90 44.6763C90 69.3503 69.8528 89.3525 45 89.3525C20.1472 89.3525 0 69.3503 0 44.6763C0 20.0022 20.1472 0 45 0C69.8528 0 90 20.0022 90 44.6763ZM48.5609 27.1945C48.5609 24.5562 46.8076 22.3274 44.4026 21.6097C45.0662 21.2663 45.8196 21.0723 46.6184 21.0723C49.2844 21.0723 51.4457 23.2335 51.4457 25.8996C51.4457 28.2932 49.7036 30.2799 47.4182 30.661C48.1363 29.6922 48.5609 28.493 48.5609 27.1945ZM46.6184 20.0723C45.2284 20.0723 43.9521 20.5589 42.9505 21.3712C42.8785 21.3685 42.8062 21.3672 42.7336 21.3672C39.5152 21.3672 36.9062 23.9762 36.9062 27.1945C36.9062 30.4129 39.5152 33.0219 42.7336 33.0219C44.1236 33.0219 45.3999 32.5352 46.4015 31.723C46.4734 31.7256 46.5457 31.7269 46.6184 31.7269C49.8367 31.7269 52.4457 29.118 52.4457 25.8996C52.4457 22.6813 49.8367 20.0723 46.6184 20.0723ZM51.4457 62.8065V42.0871C51.4457 39.421 49.2844 37.2598 46.6184 37.2598C45.8196 37.2598 45.0662 37.4538 44.4026 37.7972C46.8076 38.5149 48.5609 40.7437 48.5609 43.382V64.1014C48.5609 65.3999 48.1363 66.5992 47.4182 67.5679C49.7036 67.1868 51.4457 65.2001 51.4457 62.8065ZM42.9505 37.5587C42.8785 37.556 42.8062 37.5547 42.7336 37.5547C39.5152 37.5547 36.9062 40.1637 36.9062 43.382V64.1014C36.9062 67.3198 39.5152 69.9288 42.7336 69.9288C44.1236 69.9288 45.3999 69.4421 46.4015 68.6299C46.4734 68.6325 46.5457 68.6339 46.6184 68.6339C49.8367 68.6339 52.4457 66.0249 52.4457 62.8065V42.0871C52.4457 38.8688 49.8367 36.2598 46.6184 36.2598C45.2284 36.2598 43.9521 36.7464 42.9505 37.5587Z" fill="url(#paint0_linear_2198_42223)"/>
<defs>
<linearGradient id="paint0_linear_2198_42223" x1="-6.70552e-07" y1="89.3525" x2="83.3483" y2="95.1775" gradientUnits="userSpaceOnUse">
<stop stop-color="#1DD13B"/>
<stop offset="1" stop-color="#27C6E5"/>
</linearGradient>
</defs>
</svg>
