<svg width="36" height="37" viewBox="0 0 36 37" fill="none" xmlns="http://www.w3.org/2000/svg">
<path d="M20.73 31.02C20.22 31.0229 19.7195 30.8818 19.2861 30.6129C18.8527 30.344 18.504 29.9583 18.28 29.5L14.93 22.3C14.9032 22.2346 14.8534 22.1813 14.79 22.15L7.59003 18.8C7.10204 18.5737 6.69277 18.2069 6.41469 17.7464C6.1366 17.286 6.00239 16.753 6.02925 16.2157C6.05611 15.6785 6.24282 15.1616 6.56545 14.7311C6.88807 14.3007 7.3319 13.9765 7.84003 13.8L26.29 7.32003C26.7684 7.15184 27.2845 7.12226 27.7789 7.23472C28.2733 7.34717 28.7259 7.59707 29.0845 7.95561C29.443 8.31414 29.6929 8.76672 29.8053 9.26114C29.9178 9.75556 29.8882 10.2717 29.72 10.75L23.28 29.21C23.1057 29.7175 22.7825 30.1606 22.3526 30.4817C21.9227 30.8028 21.4061 30.9869 20.87 31.01L20.73 31.02ZM27.18 9.56003H27.08L8.63003 16.02C8.57343 16.0418 8.52476 16.0802 8.49044 16.1302C8.45611 16.1802 8.43773 16.2394 8.43773 16.3C8.43773 16.3607 8.45611 16.4199 8.49044 16.4699C8.52476 16.5199 8.57343 16.5583 8.63003 16.58L15.83 19.93C16.406 20.2007 16.8694 20.664 17.14 21.24L20.49 28.44C20.5165 28.4943 20.5577 28.5401 20.609 28.5719C20.6603 28.6038 20.7196 28.6205 20.78 28.62C20.8402 28.6176 20.898 28.5959 20.9448 28.5581C20.9916 28.5202 21.025 28.4683 21.04 28.41L27.46 9.96003C27.4798 9.90715 27.4837 9.84966 27.4713 9.79459C27.4588 9.73952 27.4306 9.68928 27.39 9.65003C27.3335 9.59521 27.2587 9.56317 27.18 9.56003Z" fill="url(#paint0_linear_1664_5282)"/>
<defs>
<linearGradient id="paint0_linear_1664_5282" x1="6.02588" y1="31.0201" x2="28.1115" y2="32.5521" gradientUnits="userSpaceOnUse">
<stop stop-color="#1DD13B"/>
<stop offset="1" stop-color="#27C6E5"/>
</linearGradient>
</defs>
</svg>
