<svg width="63" height="63" viewBox="0 0 63 63" fill="none" xmlns="http://www.w3.org/2000/svg">
<path fill-rule="evenodd" clip-rule="evenodd" d="M31.5 55.75C44.8929 55.75 55.75 44.8929 55.75 31.5C55.75 18.1071 44.8929 7.25 31.5 7.25C18.1071 7.25 7.25 18.1071 7.25 31.5C7.25 44.8929 18.1071 55.75 31.5 55.75ZM57.75 31.5C57.75 45.9975 45.9975 57.75 31.5 57.75C17.0025 57.75 5.25 45.9975 5.25 31.5C5.25 17.0025 17.0025 5.25 31.5 5.25C45.9975 5.25 57.75 17.0025 57.75 31.5ZM28.875 27.25C28.875 26.6977 29.3227 26.25 29.875 26.25H33.125C33.6773 26.25 34.125 26.6977 34.125 27.25V43.625C34.125 44.1773 33.6773 44.625 33.125 44.625H29.875C29.3227 44.625 28.875 44.1773 28.875 43.625V27.25ZM29.875 18.375C29.3227 18.375 28.875 18.8227 28.875 19.375V22.625C28.875 23.1773 29.3227 23.625 29.875 23.625H33.125C33.6773 23.625 34.125 23.1773 34.125 22.625V19.375C34.125 18.8227 33.6773 18.375 33.125 18.375H29.875Z" fill="url(#paint0_linear_551_20179)"/>
<defs>
<linearGradient id="paint0_linear_551_20179" x1="5.25" y1="57.75" x2="53.8732" y2="61.1237" gradientUnits="userSpaceOnUse">
<stop stop-color="#1DD13B"/>
<stop offset="1" stop-color="#27C6E5"/>
</linearGradient>
</defs>
</svg>
