<svg width="88" height="88" viewBox="0 0 88 88" fill="none" xmlns="http://www.w3.org/2000/svg">
<path d="M44.7723 55.6329L45.3625 56.2088L45.88 55.5668L73.7496 20.989C75.5229 18.7888 78.7441 18.4428 80.9442 20.2161C83.1444 21.9894 83.4904 25.2106 81.7171 27.4108L49.7996 67.0108C48.8952 68.1329 47.5596 68.8215 46.1209 68.9074C44.6823 68.9934 43.2741 68.4686 42.2426 67.4621L24.2934 49.949C22.2708 47.9755 22.231 44.736 24.2044 42.7134C26.1779 40.6908 29.4173 40.651 31.4399 42.6245L44.7723 55.6329Z" stroke="#00BC78" stroke-width="1.5"/>
<path fill-rule="evenodd" clip-rule="evenodd" d="M75.5482 19.6322C78.0709 21.6654 78.4676 25.3588 76.4343 27.8814L44.5169 67.4814C43.4799 68.768 41.9484 69.5576 40.2989 69.6561C38.6494 69.7546 37.0349 69.1529 35.8521 67.9989L17.9029 50.4858C15.5839 48.223 15.5382 44.5088 17.8009 42.1897C20.0637 39.8706 23.7779 39.8249 26.097 42.0877L39.4293 55.0961L67.2989 20.5183C69.3322 17.9956 73.0255 17.5989 75.5482 19.6322Z" fill="url(#paint0_linear_2198_42242)"/>
<defs>
<linearGradient id="paint0_linear_2198_42242" x1="46.9331" y1="18.3401" x2="74.6992" y2="71.3678" gradientUnits="userSpaceOnUse">
<stop stop-color="#C1FF83"/>
<stop offset="1" stop-color="#1DBBFF"/>
</linearGradient>
</defs>
</svg>
