<svg width="26" height="26" viewBox="0 0 26 26" fill="none" xmlns="http://www.w3.org/2000/svg">
<path d="M14.0833 17.3333H11.9167C11.3184 17.3333 10.8333 16.8483 10.8333 16.25C10.8333 15.6517 11.3184 15.1667 11.9167 15.1667H14.0833C14.6816 15.1667 15.1667 15.6517 15.1667 16.25C15.1667 16.8483 14.6816 17.3333 14.0833 17.3333Z" fill="url(#paint0_linear_238_16077)"/>
<path fill-rule="evenodd" clip-rule="evenodd" d="M3.25 26H22.75C24.5443 26 26 24.5443 26 22.75V9.75C26 7.95569 24.5443 6.5 22.75 6.5H3.25C1.45569 6.5 0 7.95569 0 9.75V22.75C0 24.5443 1.45569 26 3.25 26ZM23.8333 22.75C23.8333 23.3477 23.3477 23.8333 22.75 23.8333H3.25C2.65231 23.8333 2.16667 23.3477 2.16667 22.75V21.6667H23.8333V22.75ZM23.8333 19.5H2.16667V9.75C2.16667 9.15231 2.65231 8.66667 3.25 8.66667H22.75C23.3477 8.66667 23.8333 9.15231 23.8333 9.75V19.5Z" fill="url(#paint1_linear_238_16077)"/>
<path d="M8.66667 3.25V4.875H6.5V3.25C6.5 1.45569 7.95569 0 9.75 0H16.25C18.0443 0 19.5 1.45569 19.5 3.25V4.875H17.3333V3.25C17.3333 2.65231 16.8477 2.16667 16.25 2.16667H9.75C9.15231 2.16667 8.66667 2.65231 8.66667 3.25Z" fill="url(#paint2_linear_238_16077)"/>
<defs>
<linearGradient id="paint0_linear_238_16077" x1="-1.93715e-07" y1="26" x2="24.0801" y2="27.6708" gradientUnits="userSpaceOnUse">
<stop stop-color="#1DD13B"/>
<stop offset="1" stop-color="#27C6E5"/>
</linearGradient>
<linearGradient id="paint1_linear_238_16077" x1="-1.93715e-07" y1="26" x2="24.0801" y2="27.6708" gradientUnits="userSpaceOnUse">
<stop stop-color="#1DD13B"/>
<stop offset="1" stop-color="#27C6E5"/>
</linearGradient>
<linearGradient id="paint2_linear_238_16077" x1="-1.93715e-07" y1="26" x2="24.0801" y2="27.6708" gradientUnits="userSpaceOnUse">
<stop stop-color="#1DD13B"/>
<stop offset="1" stop-color="#27C6E5"/>
</linearGradient>
</defs>
</svg>
