<svg width="36" height="37" viewBox="0 0 36 37" fill="none" xmlns="http://www.w3.org/2000/svg">
<path fill-rule="evenodd" clip-rule="evenodd" d="M7.5 5.74951H19.5C19.9142 5.74951 20.25 6.0853 20.25 6.49951V9.49951H15.5C14.3954 9.49951 13.5 10.3949 13.5 11.4995V31.2495H6.75V6.49951C6.75 6.0853 7.08579 5.74951 7.5 5.74951ZM14.5 33.4995H6C5.17157 33.4995 4.5 32.8279 4.5 31.9995V6.49951C4.5 4.84266 5.84315 3.49951 7.5 3.49951H19.5C21.1569 3.49951 22.5 4.84266 22.5 6.49951V9.49951H29.5C30.6046 9.49951 31.5 10.3949 31.5 11.4995V32.4995C31.5 33.0518 31.0523 33.4995 30.5 33.4995H26.25V27.9995C26.25 27.7234 26.0261 27.4995 25.75 27.4995H19.25C18.9739 27.4995 18.75 27.7234 18.75 27.9995V33.4995H15H14.5ZM12 7.99951H9V10.9995H12V7.99951ZM9 12.4995H12V15.4995H9V12.4995ZM12 16.9995H9V19.9995H12V16.9995ZM9 21.4995H12V24.4995H9V21.4995ZM12 25.9995H9V28.9995H12V25.9995ZM21 15.4995V12.4995H18V15.4995H21ZM21 19.9995V16.9995H18V19.9995H21ZM18 24.4995V21.4995H21V24.4995H18ZM27 12.4995H24V15.4995H27V12.4995ZM24 16.9995H27V19.9995H24V16.9995ZM27 21.4995H24V24.4995H27V21.4995Z" fill="#FFFFFF8F"/>
</svg>
