<svg width="36" height="36" viewBox="0 0 36 36" fill="none" xmlns="http://www.w3.org/2000/svg">
<path fill-rule="evenodd" clip-rule="evenodd" d="M24.4361 7.05405C25.3999 7.05405 25.9134 7.15052 26.4484 7.42895C26.9486 7.68923 27.3472 8.07699 27.6147 8.56367C27.9008 9.08429 28 9.58388 28 10.5216V24.2932C28 24.8355 27.9354 25.1612 27.7482 25.5016C27.5679 25.8298 27.2973 26.0931 26.96 26.2686C26.6739 26.4174 26.398 26.4866 26.0022 26.5069L26 27.973C26 28.5103 25.5523 28.9459 25 28.9459C24.4872 28.9459 24.0645 28.5703 24.0067 28.0864L24 27.973V26.5135H12V27.973C12 28.5103 11.5523 28.9459 11 28.9459C10.4872 28.9459 10.0645 28.5703 10.0067 28.0864L10 27.973L9.99885 26.5069C9.60248 26.4867 9.32631 26.4175 9.03998 26.2686C8.70275 26.0931 8.43211 25.8298 8.25175 25.5016C8.06464 25.1612 8 24.8355 8 24.2932V10.5216C8 9.58388 8.09916 9.08429 8.38532 8.56367C8.65283 8.07699 9.05136 7.68923 9.55156 7.42895C10.0866 7.15052 10.6001 7.05405 11.5639 7.05405H24.4361ZM25.998 17.7567H10.001L10.002 24.4892L10.007 24.5598L10.0806 24.5656L25.7181 24.5676C25.8138 24.5676 25.8769 24.567 25.9194 24.5656L25.992 24.5598L25.998 24.4892L25.998 17.7567ZM12 19.7027C12.5523 19.7027 13 20.1383 13 20.6757C13 21.213 12.5523 21.6486 12 21.6486C11.4477 21.6486 11 21.213 11 20.6757C11 20.1383 11.4477 19.7027 12 19.7027ZM24 19.7027C24.5523 19.7027 25 20.1383 25 20.6757C25 21.213 24.5523 21.6486 24 21.6486C23.4477 21.6486 23 21.213 23 20.6757C23 20.1383 23.4477 19.7027 24 19.7027ZM30.5 13.8649C31.0128 13.8649 31.4355 14.2405 31.4933 14.7244L31.5 14.8378V16.7838C31.5 17.3211 31.0523 17.7567 30.5 17.7567C29.9872 17.7567 29.5645 17.3811 29.5067 16.8972L29.5 16.7838V14.8378C29.5 14.3005 29.9477 13.8649 30.5 13.8649ZM5.5 13.8649C6.01284 13.8649 6.43551 14.2405 6.49327 14.7244L6.5 14.8378V16.7838C6.5 17.3211 6.05228 17.7567 5.5 17.7567C4.98716 17.7567 4.56449 17.3811 4.50673 16.8972L4.5 16.7838V14.8378C4.5 14.3005 4.94772 13.8649 5.5 13.8649ZM24.6056 9.00095H11.3944C10.8654 9.00745 10.6818 9.04759 10.4948 9.14491C10.3431 9.22383 10.2301 9.33382 10.1489 9.48137C10.0389 9.68154 10 9.87765 10 10.5216V15.8108H25.999L25.999 10.3567C25.9931 9.89916 25.9598 9.70719 25.8823 9.54237L25.8511 9.48137C25.7699 9.33382 25.6569 9.22383 25.5052 9.14491C25.2995 9.03786 25.098 8.99999 24.4361 8.99999L24.6056 9.00095Z" fill="url(#paint0_linear_3851_22086)"/>
<defs>
<linearGradient id="paint0_linear_3851_22086" x1="4.5" y1="28.9459" x2="29.444" y2="31.0805" gradientUnits="userSpaceOnUse">
<stop stop-color="#1DD13B"/>
<stop offset="1" stop-color="#27C6E5"/>
</linearGradient>
</defs>
</svg>
