<svg width="36" height="36" viewBox="0 0 36 36" fill="none" xmlns="http://www.w3.org/2000/svg">
<path fill-rule="evenodd" clip-rule="evenodd" d="M24 7C24.5523 7 25 7.44772 25 8V9H28C29.1043 9 30 9.89572 30 11V27C30 28.1043 29.1043 29 28 29H8C6.89572 29 6 28.1043 6 27V11C6 9.89572 6.89572 9 8 9H11V8C11 7.48716 11.386 7.06449 11.8834 7.00673L12 7C12.5523 7 13 7.44772 13 8V9H23V8C23 7.48716 23.386 7.06449 23.8834 7.00673L24 7ZM28 17H8V27H28V17ZM11 11H8V15H28V11H25V12C25 12.5128 24.614 12.9355 24.1166 12.9933L24 13C23.4477 13 23 12.5523 23 12V11H13V12C13 12.5128 12.614 12.9355 12.1166 12.9933L12 13C11.4477 13 11 12.5523 11 12V11Z" fill="url(#paint0_linear_1664_2110)"/>
<defs>
<linearGradient id="paint0_linear_1664_2110" x1="6" y1="29" x2="28.2075" y2="30.6809" gradientUnits="userSpaceOnUse">
<stop stop-color="#1DD13B"/>
<stop offset="1" stop-color="#27C6E5"/>
</linearGradient>
</defs>
</svg>
