<svg width="77" height="13" viewBox="0 0 77 13" fill="none" xmlns="http://www.w3.org/2000/svg">
<path d="M0.511498 0.799999H2.3035V7.44C2.3035 7.792 2.2875 8.17067 2.2555 8.576C2.23417 8.97067 2.20217 9.37067 2.1595 9.776C2.33017 9.44533 2.50617 9.12 2.6875 8.8C2.86883 8.48 3.06083 8.16 3.2635 7.84L7.9355 0.799999H9.7915V12H8.0155V5.424C8.0155 5.072 8.02617 4.68267 8.0475 4.256C8.06883 3.82933 8.10083 3.39733 8.1435 2.96C7.96217 3.312 7.78083 3.65867 7.5995 4C7.41817 4.34133 7.24217 4.64 7.0715 4.896L2.3835 12H0.511498V0.799999ZM12.1274 9.808C12.4367 10.0427 12.8527 10.256 13.3754 10.448C13.898 10.64 14.49 10.736 15.1514 10.736C15.7914 10.736 16.266 10.6347 16.5754 10.432C16.8847 10.2293 17.0394 9.88267 17.0394 9.392C17.0394 8.976 16.89 8.688 16.5914 8.528C16.2927 8.368 15.7487 8.288 14.9594 8.288H13.7114V7.088H15.0554C15.6207 7.088 16.026 6.98667 16.2714 6.784C16.5274 6.57067 16.6554 6.256 16.6554 5.84C16.6554 5.44533 16.538 5.15733 16.3034 4.976C16.0687 4.79467 15.6154 4.704 14.9434 4.704C14.3567 4.704 13.8554 4.784 13.4394 4.944C13.034 5.104 12.6447 5.31733 12.2714 5.584V3.808C12.6234 3.65867 13.0287 3.536 13.4874 3.44C13.9567 3.33333 14.5647 3.28 15.3114 3.28C15.898 3.28 16.3887 3.33333 16.7834 3.44C17.178 3.536 17.4927 3.67467 17.7274 3.856C17.962 4.03733 18.1274 4.26133 18.2234 4.528C18.3194 4.784 18.3674 5.072 18.3674 5.392C18.3674 5.97867 18.2607 6.448 18.0474 6.8C17.8447 7.14133 17.482 7.38667 16.9594 7.536C17.5247 7.58933 17.962 7.77067 18.2714 8.08C18.5914 8.38933 18.7514 8.832 18.7514 9.408C18.7514 9.87733 18.682 10.288 18.5434 10.64C18.4047 10.9813 18.1807 11.2693 17.8714 11.504C17.5727 11.7387 17.178 11.9093 16.6874 12.016C16.2074 12.1333 15.6207 12.192 14.9274 12.192C14.7034 12.192 14.4634 12.176 14.2074 12.144C13.9514 12.1227 13.6954 12.0853 13.4394 12.032C13.194 11.9893 12.954 11.936 12.7194 11.872C12.4954 11.808 12.298 11.7333 12.1274 11.648V9.808ZM20.7881 3.456H22.9961L25.4761 8.288L27.8601 3.456H30.0041V12H28.3561V7.44C28.3561 7.024 28.3721 6.61333 28.4041 6.208C28.4361 5.792 28.4735 5.36533 28.5161 4.928C28.3028 5.39733 28.1055 5.84 27.9241 6.256C27.7428 6.672 27.5721 7.024 27.4121 7.312L25.9561 10.064H24.8521L23.4601 7.328C23.3001 7.01867 23.1188 6.66133 22.9161 6.256C22.7135 5.84 22.5055 5.408 22.2921 4.96C22.3241 5.38667 22.3561 5.808 22.3881 6.224C22.4201 6.64 22.4361 7.06667 22.4361 7.504V12H20.7881V3.456ZM33.7459 8.24C33.7565 9.91467 34.6632 10.752 36.4659 10.752C37.0419 10.752 37.5645 10.6613 38.0339 10.48C38.5139 10.288 38.9139 10.064 39.2339 9.808V11.424C39.0205 11.584 38.6632 11.7547 38.1619 11.936C37.6605 12.1067 37.0525 12.192 36.3379 12.192C34.8765 12.192 33.7939 11.8293 33.0899 11.104C32.3859 10.3787 32.0339 9.20533 32.0339 7.584C32.0339 6.16533 32.3805 5.09333 33.0739 4.368C33.7672 3.64267 34.7645 3.28 36.0659 3.28C36.7699 3.28 37.3619 3.376 37.8419 3.568C38.3219 3.76 38.7059 4.03733 38.9939 4.4C39.2925 4.752 39.5059 5.17867 39.6339 5.68C39.7725 6.17067 39.8419 6.72 39.8419 7.328V8.24H33.7459ZM36.0499 4.688C35.3139 4.688 34.7485 4.87467 34.3539 5.248C33.9592 5.62133 33.7565 6.208 33.7459 7.008H38.1619C38.1619 6.21867 37.9965 5.63733 37.6659 5.264C37.3352 4.88 36.7965 4.688 36.0499 4.688ZM41.852 3.456H43.548V6.928H47.516V3.456H49.196V12H47.516V8.448H43.548V12H41.852V3.456ZM51.7667 3.456H53.4627V7.504C53.4627 7.952 53.4521 8.384 53.4307 8.8C53.4094 9.20533 53.3881 9.51467 53.3667 9.728L53.4307 9.76C53.6121 9.44 53.7987 9.136 53.9907 8.848C54.1934 8.56 54.4014 8.26667 54.6147 7.968L57.6867 3.456H59.2227V12H57.5427V8.512C57.5427 8.24533 57.5427 7.97333 57.5427 7.696C57.5534 7.41867 57.5587 7.15733 57.5587 6.912C57.5694 6.656 57.5801 6.42133 57.5907 6.208C57.6014 5.99467 57.6121 5.81867 57.6227 5.68L57.5907 5.664C57.4521 5.90933 57.2814 6.192 57.0787 6.512C56.8761 6.832 56.6681 7.14667 56.4547 7.456L53.3187 12H51.7667V3.456ZM63.4705 4.992H60.7025V3.456H67.9025V4.992H65.1505V12H63.4705V4.992ZM69.3619 3.456H71.0579V6.176C71.3032 6.15467 71.5432 6.13867 71.7779 6.128C72.0232 6.11733 72.3005 6.112 72.6099 6.112C73.2605 6.112 73.8152 6.16533 74.2739 6.272C74.7325 6.368 75.1112 6.528 75.4099 6.752C75.7085 6.976 75.9272 7.27467 76.0659 7.648C76.2045 8.01067 76.2739 8.45333 76.2739 8.976C76.2739 9.49867 76.2045 9.95733 76.0659 10.352C75.9272 10.7467 75.6979 11.0773 75.3779 11.344C75.0579 11.6 74.6312 11.792 74.0979 11.92C73.5752 12.048 72.9299 12.112 72.1619 12.112C71.6179 12.112 71.1059 12.1013 70.6259 12.08C70.1459 12.0587 69.7245 12.032 69.3619 12V3.456ZM71.0419 10.64C71.2339 10.6613 71.4205 10.6773 71.6019 10.688C71.7939 10.688 72.0605 10.688 72.4019 10.688C72.8179 10.688 73.1645 10.6613 73.4419 10.608C73.7192 10.544 73.9379 10.448 74.0979 10.32C74.2685 10.1813 74.3859 10.0107 74.4499 9.808C74.5245 9.59467 74.5619 9.33333 74.5619 9.024C74.5619 8.736 74.5245 8.49067 74.4499 8.288C74.3859 8.08533 74.2632 7.92 74.0819 7.792C73.9005 7.664 73.6445 7.57333 73.3139 7.52C72.9939 7.456 72.5779 7.424 72.0659 7.424C71.9059 7.424 71.7459 7.43467 71.5859 7.456C71.4259 7.46667 71.2445 7.48267 71.0419 7.504V10.64Z" fill="url(#paint0_linear_1817_10219)"/>
<defs>
<linearGradient id="paint0_linear_1817_10219" x1="-2" y1="16" x2="66.3822" y2="34.7414" gradientUnits="userSpaceOnUse">
<stop stop-color="#1DD13B"/>
<stop offset="1" stop-color="#27C6E5"/>
</linearGradient>
</defs>
</svg>
