<?xml version="1.0" encoding="UTF-8" standalone="no"?>
<svg
   width="36"
   height="36"
   viewBox="0 0 36 36"
   fill="none"
   version="1.1"
   id="svg116"
   sodipodi:docname="community.svg"
   inkscape:version="1.1.1 (3bf5ae0d25, 2021-09-20)"
   xmlns:inkscape="http://www.inkscape.org/namespaces/inkscape"
   xmlns:sodipodi="http://sodipodi.sourceforge.net/DTD/sodipodi-0.dtd"
   xmlns="http://www.w3.org/2000/svg"
   xmlns:svg="http://www.w3.org/2000/svg">
  <sodipodi:namedview
     id="namedview118"
     pagecolor="#ffffff"
     bordercolor="#666666"
     borderopacity="1.0"
     inkscape:pageshadow="2"
     inkscape:pageopacity="0.0"
     inkscape:pagecheckerboard="0"
     showgrid="false"
     inkscape:zoom="16.342023"
     inkscape:cx="17.041953"
     inkscape:cy="19.917974"
     inkscape:window-width="1920"
     inkscape:window-height="1017"
     inkscape:window-x="-8"
     inkscape:window-y="-8"
     inkscape:window-maximized="1"
     inkscape:current-layer="svg116" />
  <path
     fill-rule="evenodd"
     clip-rule="evenodd"
     d="m 15.177747,16.243884 c -2.7613,0 -5,-2.2387 -5,-5 v -1 c 0,-2.7612797 2.2387,-4.9999997 5,-4.9999997 2.7613,0 5,2.23872 5,4.9999997 v 1 c 0,2.7613 -2.2387,5 -5,5 z m 0,-2 c 1.6567,0 3,-1.3433 3,-3 v -1 c 0,-1.6566997 -1.3433,-2.9999997 -3,-2.9999997 -1.6567,0 -3,1.3433 -3,2.9999997 v 1 c 0,1.6567 1.3433,3 3,3 z m 7,14 H 8.1777472 c -1.6562796,0 -2.9999998,-1.3437 -2.9999998,-3 v -1 c 0,-3.314 2.6864003,-6 5.9999996,-6 h 8 c 3.3136,0 6,2.686 6,6 v 1 c 0,1.6563 -1.3437,3 -3,3 z m 0,-2 c 0.5517,0 1,-0.4483 1,-1 v -1 c 0,-2.2093 -1.7909,-4 -4,-4 h -8 c -2.2090998,0 -3.9999994,1.7907 -3.9999994,4 v 1 c 0,0.5517 0.4483001,1 0.9999996,1 z"
     fill="url(#paint0_linear_1664_8988)"
     id="path107"
     style="fill:url(#paint0_linear_1664_8988)" />
  <defs
     id="defs114">
    <linearGradient
       id="paint0_linear_1664_8988"
       x1="8"
       y1="30"
       x2="26.5448"
       y2="31.1189"
       gradientUnits="userSpaceOnUse"
       gradientTransform="translate(-2.8222527,-1.7561157)">
      <stop
         stop-color="#1DD13B"
         id="stop109" />
      <stop
         offset="1"
         stop-color="#27C6E5"
         id="stop111" />
    </linearGradient>
    <linearGradient
       id="paint0_linear_1664_8988-0"
       x1="8"
       y1="30"
       x2="26.5448"
       y2="31.1189"
       gradientUnits="userSpaceOnUse">
      <stop
         stop-color="#1DD13B"
         id="stop122" />
      <stop
         offset="1"
         stop-color="#27C6E5"
         id="stop124" />
    </linearGradient>
  </defs>
  <g
     style="fill:none"
     id="g137"
     transform="matrix(0.70933832,0,0,0.68605878,11.861663,2.9730475)">
    <path
       fill-rule="evenodd"
       clip-rule="evenodd"
       d="m 18,18 c -2.7613,0 -5,-2.2387 -5,-5 v -1 c 0,-2.76128 2.2387,-5 5,-5 2.7613,0 5,2.23872 5,5 v 1 c 0,2.7613 -2.2387,5 -5,5 z m 0,-2 c 1.6567,0 3,-1.3433 3,-3 v -1 c 0,-1.6567 -1.3433,-3 -3,-3 -1.6567,0 -3,1.3433 -3,3 v 1 c 0,1.6567 1.3433,3 3,3 z m 7,14 H 11 C 9.34372,30 8,28.6563 8,27 v -1 c 0,-3.314 2.6864,-6 6,-6 h 8 c 3.3136,0 6,2.686 6,6 v 1 c 0,1.6563 -1.3437,3 -3,3 z m 0,-2 c 0.5517,0 1,-0.4483 1,-1 v -1 c 0,-2.2093 -1.7909,-4 -4,-4 h -8 c -2.2091,0 -4,1.7907 -4,4 v 1 c 0,0.5517 0.4483,1 1,1 z"
       fill="url(#paint0_linear_1664_8988)"
       id="path120"
       style="fill:url(#paint0_linear_1664_8988-0)" />
  </g>
</svg>
