<svg width="24" height="25" viewBox="0 0 24 25" fill="none" xmlns="http://www.w3.org/2000/svg">
<path d="M10.9485 13.1667L5.41987 7.63807C5.15952 7.37772 5.15952 6.95561 5.41987 6.69526C5.68022 6.43491 6.10233 6.43491 6.36268 6.69526L11.8913 12.2239L17.4199 6.69526C17.6802 6.43491 18.1023 6.43491 18.3627 6.69526C18.623 6.95561 18.623 7.37772 18.3627 7.63807L12.8341 13.1667L18.3627 18.6953C18.623 18.9556 18.623 19.3777 18.3627 19.6381C18.1023 19.8984 17.6802 19.8984 17.4199 19.6381L11.8913 14.1095L6.36268 19.6381C6.10233 19.8984 5.68022 19.8984 5.41987 19.6381C5.15952 19.3777 5.15952 18.9556 5.41987 18.6953L10.9485 13.1667Z" fill="white" fill-opacity="0.96"/>
</svg>
