<svg width="36" height="36" viewBox="0 0 36 36" fill="none" xmlns="http://www.w3.org/2000/svg">
<path fill-rule="evenodd" clip-rule="evenodd" d="M26 21C26 20.4477 26.4477 20 27 20H27.7476C28.8872 20 29.6103 21.0084 29.4846 21.9806C30.4273 23.044 31 24.4449 31 25.98C31 29.3047 28.3137 32 25 32C21.6863 32 19 29.3047 19 25.98C19 24.3683 19.6312 22.9046 20.6592 21.824C20.672 21.8099 20.6852 21.7962 20.6988 21.7828C20.7101 21.7711 20.7214 21.7595 20.7328 21.7479L20.7343 21.7495C20.9111 21.5916 21.1444 21.4957 21.4 21.4957C21.9523 21.4957 22.4 21.9434 22.4 22.4957C22.4 22.7906 22.2724 23.0557 22.0693 23.2387C21.3819 23.9777 20.9934 24.9457 20.9934 25.98C20.9934 28.2002 22.7872 30 25 30C27.2128 30 29.0066 28.2002 29.0066 25.98C29.0066 25.0424 28.6854 24.1609 28.1227 23.4601C27.1092 23.68 26 22.9427 26 21.7476V21Z" fill="#F4F4F4"/>
<path d="M28 17V8.00012C28 6.3432 26.6567 5 25.0058 5H10.9942C9.34055 5 8 6.34411 8 7.99075V27.0092C8 28.661 9.33991 30 10.9951 30H16" stroke="#19BB4F" stroke-width="2"/>
<path fill-rule="evenodd" clip-rule="evenodd" d="M13 12C13 11.4477 13.4477 11 14 11H22C22.5523 11 23 11.4477 23 12C23 12.5523 22.5523 13 22 13H14C13.4477 13 13 12.5523 13 12Z" fill="#19BB4F"/>
<path fill-rule="evenodd" clip-rule="evenodd" d="M13 17C13 16.4477 13.4477 16 14 16H19C19.5523 16 20 16.4477 20 17C20 17.5523 19.5523 18 19 18H14C13.4477 18 13 17.5523 13 17Z" fill="#19BB4F"/>
</svg>
