<svg width="36" height="36" viewBox="0 0 36 36" fill="none" xmlns="http://www.w3.org/2000/svg">
<path fill-rule="evenodd" clip-rule="evenodd" d="M28 8C28 6.34372 26.6563 5 25 5H11C9.34372 5 8 6.34372 8 8V27C8 28.6563 9.34372 30 11 30H25C26.6563 30 28 28.6563 28 27V8ZM11 7H25C25.5517 7 26 7.44828 26 8V27C26 27.5517 25.5517 28 25 28H11C10.4483 28 10 27.5517 10 27V8C10 7.44828 10.4483 7 11 7ZM13 12H23C23.5523 12 24 11.5523 24 11C24 10.4477 23.5523 10 23 10H13C12.4477 10 12 10.4477 12 11C12 11.5523 12.4477 12 13 12ZM23 16H13C12.4477 16 12 15.5523 12 15C12 14.4477 12.4477 14 13 14H23C23.5523 14 24 14.4477 24 15C24 15.5523 23.5523 16 23 16ZM13 20H16C16.5523 20 17 19.5523 17 19C17 18.4477 16.5523 18 16 18H13C12.4477 18 12 18.4477 12 19C12 19.5523 12.4477 20 13 20ZM18.0507 22.8788C18.4412 22.4883 19.0744 22.4883 19.4649 22.8788L20.1717 23.5856L22.2926 21.4639C22.683 21.0733 23.3162 21.0732 23.7068 21.4637C24.0974 21.8541 24.0975 22.4873 23.707 22.8779L20.879 25.7069C20.4885 26.0975 19.8553 26.0976 19.4647 25.707L18.0507 24.293C17.6602 23.9025 17.6602 23.2693 18.0507 22.8788Z" fill="url(#paint0_linear_1169_2550)"/>
<defs>
<linearGradient id="paint0_linear_1169_2550" x1="8" y1="30" x2="26.5551" y2="31.0299" gradientUnits="userSpaceOnUse">
<stop stop-color="#1DD13B"/>
<stop offset="1" stop-color="#27C6E5"/>
</linearGradient>
</defs>
</svg>
