<svg width="36" height="36" viewBox="0 0 36 36" fill="none" xmlns="http://www.w3.org/2000/svg">
<path d="M28 17V8.00012C28 6.3432 26.6567 5 25.0058 5H10.9942C9.34055 5 8 6.34411 8 7.99075V27.0092C8 28.661 9.33991 30 10.9951 30H16" stroke="#19BB4F" stroke-width="2"/>
<path fill-rule="evenodd" clip-rule="evenodd" d="M13 12C13 11.4477 13.4477 11 14 11H22C22.5523 11 23 11.4477 23 12V12C23 12.5523 22.5523 13 22 13H14C13.4477 13 13 12.5523 13 12V12Z" fill="#19BB4F"/>
<path fill-rule="evenodd" clip-rule="evenodd" d="M13 17C13 16.4477 13.4477 16 14 16H19C19.5523 16 20 16.4477 20 17V17C20 17.5523 19.5523 18 19 18H14C13.4477 18 13 17.5523 13 17V17Z" fill="#19BB4F"/>
<path d="M21.2651 23L28.2651 30" stroke="#C22222" stroke-width="2" stroke-linecap="round"/>
<path d="M21 29.7809L28.0248 23.2191" stroke="#C22222" stroke-width="2" stroke-linecap="round"/>
</svg>
