<svg width="36" height="37" viewBox="0 0 36 37" fill="none" xmlns="http://www.w3.org/2000/svg">
<path d="M28.5 23V27.5H7.5V23C7.5 22.1716 6.82843 21.5 6 21.5C5.17157 21.5 4.5 22.1716 4.5 23V27.5C4.5 29.1576 5.84329 30.5 7.5 30.5H28.5C30.1567 30.5 31.5 29.1576 31.5 27.5V23C31.5 22.1716 30.8284 21.5 30 21.5C29.1716 21.5 28.5 22.1716 28.5 23Z" fill="url(#paint0_linear_1103_32333)"/>
<path d="M16.5 16.4093L14.5556 14.4914C13.967 13.9084 13.0173 13.913 12.4343 14.5015C11.8513 15.0901 11.8558 16.0399 12.4444 16.6228L16.9444 21.0658C17.529 21.6449 18.471 21.6449 19.0556 21.0658L23.5556 16.6228C24.1442 16.0399 24.1487 15.0901 23.5657 14.5015C22.9827 13.913 22.033 13.9084 21.4444 14.4914L19.5 16.4093V6.5C19.5 5.67157 18.8284 5 18 5C17.1716 5 16.5 5.67157 16.5 6.5V16.4093Z" fill="url(#paint1_linear_1103_32333)"/>
<defs>
<linearGradient id="paint0_linear_1103_32333" x1="4.5" y1="30.5" x2="29.4917" y2="32.336" gradientUnits="userSpaceOnUse">
<stop stop-color="#1DD13B"/>
<stop offset="1" stop-color="#27C6E5"/>
</linearGradient>
<linearGradient id="paint1_linear_1103_32333" x1="4.5" y1="30.5" x2="29.4917" y2="32.336" gradientUnits="userSpaceOnUse">
<stop stop-color="#1DD13B"/>
<stop offset="1" stop-color="#27C6E5"/>
</linearGradient>
</defs>
</svg>
