<svg width="36" height="37" viewBox="0 0 36 37" fill="none" xmlns="http://www.w3.org/2000/svg">
<path fill-rule="evenodd" clip-rule="evenodd" d="M16.1887 8.42395C15.2858 7.82162 14.2237 7.5 13.138 7.5H10C9.44772 7.5 9 7.94772 9 8.5V10V22.5V29.5C9 30.0523 9.44772 30.5 10 30.5C10.5523 30.5 11 30.0523 11 29.5V23.5H13.138C13.8288 23.5 14.5046 23.7047 15.079 24.0879L17.3113 25.576C18.2142 26.1784 19.2763 26.5 20.362 26.5H28C28.5523 26.5 29 26.0523 29 25.5V11.5C29 10.9477 28.5523 10.5 28 10.5H20.362C19.6712 10.5 18.9954 10.2953 18.421 9.91212L16.1887 8.42395ZM27 12.5H20.362C19.2763 12.5 18.2142 12.1784 17.3113 11.5761L15.079 10.0879C14.5046 9.70466 13.8288 9.5 13.138 9.5H11V21.5H13.138C14.2237 21.5 15.2858 21.8216 16.1887 22.4239L18.421 23.9121C18.9954 24.2953 19.6712 24.5 20.362 24.5H27V12.5Z" fill="#FFFFFF8F"/>
</svg>
