<svg width="36" height="36" viewBox="0 0 36 36" fill="none" xmlns="http://www.w3.org/2000/svg">
<path fill-rule="evenodd" clip-rule="evenodd" d="M30 18C30 24.6273 24.6273 30 18 30C11.3727 30 6 24.6273 6 18C6 11.3727 11.3727 6 18 6C24.6273 6 30 11.3727 30 18ZM20.0159 8.20329C20.8872 9.46841 21.577 10.9939 22.0458 12.6825C23.2499 12.3296 24.3559 11.8203 25.3104 11.1766C23.922 9.68982 22.0854 8.62691 20.0159 8.20329ZM26.252 12.35C27.3547 13.9575 28 15.9034 28 18C28 20.096 27.3551 22.0415 26.2528 23.6488C25.1237 22.8697 23.8127 22.2628 22.3883 21.8543C22.625 20.6241 22.75 19.3285 22.75 18C22.75 16.6712 22.625 15.3753 22.3881 14.1449C23.8121 13.7362 25.1228 13.1292 26.252 12.35ZM25.3114 24.8223C24.3569 24.1788 23.2506 23.6694 22.046 23.3167C21.5772 25.0056 20.8874 26.5314 20.0159 27.7967C22.0859 27.373 23.9229 26.3097 25.3114 24.8223ZM15.9841 27.7967C15.1126 26.5314 14.4228 25.0056 13.954 23.3167C12.7493 23.6694 11.643 24.1787 10.6886 24.8222C12.0771 26.3096 13.9141 27.373 15.9841 27.7967ZM9.7471 23.6487C10.8762 22.8696 12.1872 22.2627 13.6117 21.8543C13.375 20.6241 13.25 19.3285 13.25 18C13.25 16.6718 13.3749 15.3765 13.6115 14.1465C12.1869 13.7382 10.8756 13.1315 9.74624 12.3526C8.64456 13.9596 8 15.9045 8 18C8 20.096 8.6449 22.0414 9.7471 23.6487ZM10.6875 11.1789C11.6423 11.8223 12.7488 12.3316 13.9538 12.6841C14.4226 10.9948 15.1125 9.46882 15.9841 8.20329C13.9136 8.62713 12.0761 9.69091 10.6875 11.1789ZM18 8.06416C19.1303 9.30907 20.0226 11.0298 20.584 13.0245C19.7497 13.1728 18.8823 13.2501 17.9967 13.2501C17.1133 13.2501 16.248 13.1731 15.4157 13.0255C15.9429 11.1519 16.7621 9.51989 17.7962 8.29684L18 8.06416ZM17.9967 14.7501C16.9977 14.7501 16.0175 14.6605 15.0735 14.488C14.8624 15.6054 14.75 16.786 14.75 18C14.75 19.2142 14.8624 20.395 15.0736 21.5126C16.0186 21.3397 17.0001 21.2499 18.0004 21.2499C19.0004 21.2499 19.9816 21.3397 20.9264 21.5125C21.1376 20.395 21.25 19.2142 21.25 18C21.25 16.7856 21.1375 15.6046 20.9263 14.4869C19.9803 14.6601 18.998 14.7501 17.9967 14.7501ZM15.4158 22.975C15.9773 24.9699 16.8696 26.6908 18 27.9358C19.1304 26.6908 20.0227 24.9699 20.5842 22.975C19.751 22.827 18.8848 22.7499 18.0004 22.7499C17.1157 22.7499 16.2492 22.827 15.4158 22.975Z" fill="url(#paint0_linear_2198_42928)"/>
<defs>
<linearGradient id="paint0_linear_2198_42928" x1="6" y1="30" x2="28.2278" y2="31.5423" gradientUnits="userSpaceOnUse">
<stop stop-color="#1DD13B"/>
<stop offset="1" stop-color="#27C6E5"/>
</linearGradient>
</defs>
</svg>
