<svg width="36" height="36" viewBox="0 0 36 36" fill="none" xmlns="http://www.w3.org/2000/svg">
<path fill-rule="evenodd" clip-rule="evenodd" d="M6.02734 28V18H4.02734C3.47506 18 3.02734 17.5523 3.02734 17C3.02734 16.4477 3.47506 16 4.02734 16H7.02734C7.57963 16 8.02734 16.4477 8.02734 17V18.2635C8.07618 18.231 8.12607 18.1985 8.17699 18.1661C9.2869 17.4582 10.5019 17.0277 11.7924 17.0277C13.0485 17.0277 13.957 17.3673 15.3025 18.1428L15.8729 18.4712L16.1199 18.6058C16.6307 18.8744 16.9963 18.9907 17.3524 18.9907H20.8984C21.9574 18.9907 22.8825 19.5998 23.2856 20.486L27.1712 18.6829C28.6797 17.9997 30.2469 18.1915 31.0998 19.5174C31.7598 20.5476 31.5905 22.2398 30.5017 22.8647L21.2746 28.2205C19.7895 29.0754 18.6513 29.4998 17.3817 29.4998C15.3236 29.4998 13.8738 29.1654 11.5517 28.3418L10.9584 28.1309L10.2169 27.8768C9.38379 27.6041 8.70181 27.4356 8.02734 27.3553V29C8.02734 29.5523 7.57963 30 7.02734 30H4.02734C3.47506 30 3.02734 29.5523 3.02734 29C3.02734 28.4477 3.47506 28 4.02734 28H6.02734ZM8.02734 25.3433C9.02865 25.4374 9.99444 25.6832 11.2101 26.1005L12.609 26.5928C14.5048 27.2459 15.7103 27.4998 17.3817 27.4998C18.2174 27.4998 19.0699 27.1819 20.2737 26.4889L29.502 21.1325C29.4937 21.1372 29.4927 21.0958 29.4911 21.0327C29.4881 20.9088 29.483 20.7013 29.4167 20.5978C29.1913 20.2474 28.6978 20.187 28.0047 20.5009L23.1325 22.7619C22.6754 23.4913 21.8399 23.9727 20.8984 23.9727H17.3524C16.8002 23.9727 16.3524 23.525 16.3524 22.9727C16.3524 22.4204 16.8002 21.9727 17.3524 21.9727H20.8984C21.1169 21.9727 21.2983 21.8797 21.403 21.7477C21.4253 21.6676 21.4575 21.5903 21.4988 21.5179C21.4999 21.5063 21.5004 21.4945 21.5004 21.4827L21.493 21.4053C21.4487 21.1819 21.2118 20.9907 20.8984 20.9907H17.3524C16.6171 20.9907 15.9615 20.7821 15.1891 20.376C15.0496 20.3026 14.9072 20.2236 14.735 20.125L14.0651 19.7404C13.1397 19.2261 12.5505 19.0277 11.7924 19.0277C10.9287 19.0277 10.0662 19.3333 9.2524 19.8523C8.95972 20.039 8.69568 20.2394 8.4667 20.4386L8.39282 20.5038L8.12011 20.762C8.09025 20.7867 8.05927 20.8094 8.02734 20.8301V25.3433ZM21.4883 6C20.5883 6 19.6873 6.345 19.0003 7.034C18.3133 6.345 17.4123 6 16.5113 6C15.3883 6 14.2663 6.535 13.5563 7.606C12.6273 9.01 12.9003 10.898 14.0903 12.091L17.6913 15.702C18.0523 16.064 18.5263 16.245 19.0003 16.245C19.4733 16.245 19.9473 16.064 20.3093 15.702L23.9103 12.091C25.0993 10.898 25.3733 9.01 24.4433 7.606C23.7343 6.535 22.6113 6 21.4883 6ZM21.4883 8C22.0073 8 22.4763 8.259 22.7763 8.71C23.1583 9.288 23.0373 10.134 22.4943 10.679L19.0003 14.182L15.5063 10.679C14.9633 10.134 14.8423 9.288 15.2243 8.71C15.5233 8.259 15.9923 8 16.5113 8C16.9163 8 17.2973 8.158 17.5843 8.446L19.0003 9.866L20.4163 8.446C20.7023 8.158 21.0833 8 21.4883 8Z" fill="url(#paint0_linear_1783_15687)"/>
<defs>
<linearGradient id="paint0_linear_1783_15687" x1="3.02734" y1="30" x2="29.3354" y2="32.1646" gradientUnits="userSpaceOnUse">
<stop stop-color="#1DD13B"/>
<stop offset="1" stop-color="#27C6E5"/>
</linearGradient>
</defs>
</svg>
