<svg width="24" height="24" viewBox="0 0 24 24" fill="none" xmlns="http://www.w3.org/2000/svg">
<path fill-rule="evenodd" clip-rule="evenodd" d="M12 20.6406C16.4183 20.6406 20 17.0589 20 12.6406C20 8.22235 16.4183 4.64062 12 4.64062C7.58172 4.64062 4 8.22235 4 12.6406C4 17.0589 7.58172 20.6406 12 20.6406ZM22 12.6406C22 18.1635 17.5228 22.6406 12 22.6406C6.47715 22.6406 2 18.1635 2 12.6406C2 7.11778 6.47715 2.64062 12 2.64062C17.5228 2.64062 22 7.11778 22 12.6406ZM11 11.6406C11 11.0883 11.4477 10.6406 12 10.6406C12.5523 10.6406 13 11.0883 13 11.6406V16.6406C13 17.1929 12.5523 17.6406 12 17.6406C11.4477 17.6406 11 17.1929 11 16.6406V11.6406ZM12 7.64062C11.4477 7.64062 11 8.08834 11 8.64062C11 9.19291 11.4477 9.64062 12 9.64062C12.5523 9.64062 13 9.19291 13 8.64062C13 8.08834 12.5523 7.64062 12 7.64062Z" fill="white" fill-opacity="0.56"/>
</svg>



