<svg width="36" height="36" viewBox="0 0 36 36" fill="none" xmlns="http://www.w3.org/2000/svg">
<path fill-rule="evenodd" clip-rule="evenodd" d="M21.9752 9.92278L28.6061 7.08096C29.2659 6.79815 30 7.28219 30 8.0001V26.0001C30 26.4001 29.7616 26.7617 29.3939 26.9192L22.3939 29.9192C22.1236 30.0351 21.8159 30.0261 21.5528 29.8945L14.0315 26.1339L7.49614 29.8683C6.82948 30.2493 6 29.7679 6 29.0001V11.0001C6 10.6001 6.2384 10.2385 6.60608 10.081L13.6061 7.08096C13.8429 6.97945 14.1098 6.97329 14.3511 7.06377L21.9752 9.92278ZM22.3939 11.9192C22.1571 12.0208 21.8902 12.0269 21.6489 11.9364L14.0248 9.07742L8 11.6595V27.2769L13.5039 24.1319C13.7942 23.966 14.1482 23.9561 14.4472 24.1057L22.0324 27.8983L28 25.3407V9.51664L22.3939 11.9192ZM13 13.0001V21.0001C13 21.5524 13.4477 22.0001 14 22.0001C14.5523 22.0001 15 21.5524 15 21.0001V13.0001C15 12.4478 14.5523 12.0001 14 12.0001C13.4477 12.0001 13 12.4478 13 13.0001ZM21 16.0001V24.0001C21 24.5524 21.4477 25.0001 22 25.0001C22.5523 25.0001 23 24.5524 23 24.0001V16.0001C23 15.4478 22.5523 15.0001 22 15.0001C21.4477 15.0001 21 15.4478 21 16.0001Z" fill="url(#paint0_linear_1664_1458)"/>
<defs>
<linearGradient id="paint0_linear_1664_1458" x1="6" y1="30.0016" x2="28.2183" y2="31.61" gradientUnits="userSpaceOnUse">
<stop stop-color="#1DD13B"/>
<stop offset="1" stop-color="#27C6E5"/>
</linearGradient>
</defs>
</svg>
