<svg width="36" height="37" viewBox="0 0 36 37" fill="none" xmlns="http://www.w3.org/2000/svg">
<path  fill-rule="evenodd" clip-rule="evenodd" d="M25.9086 27.4903C28.4121 23.9096 30.5 19.2795 30.5 15.2969C30.5 8.22935 24.7916 2.5 17.75 2.5C10.7084 2.5 5 8.22935 5 15.2969C5 19.2795 7.08787 23.9096 9.59142 27.4903C10.8539 29.2959 12.2581 30.8874 13.6255 32.0393C14.3745 32.6702 15.0597 33.125 15.6762 33.436C16.194 33.6971 16.9401 34 17.75 34C18.5599 34 19.306 33.6971 19.8238 33.436C20.4403 33.125 21.1255 32.6702 21.8745 32.0393C23.2419 30.8874 24.6461 29.2959 25.9086 27.4903ZM23.5001 25.7939C25.8491 22.4344 27.5577 18.4055 27.5577 15.2969C27.5577 9.86032 23.1666 5.45312 17.75 5.45312C12.3334 5.45312 7.94231 9.86032 7.94231 15.2969C7.94231 18.4055 9.65092 22.4344 11.9999 25.7939C13.1528 27.4429 14.3901 28.828 15.517 29.7773C16.7366 30.8046 17.5009 31.0469 17.75 31.0469C17.9991 31.0469 18.7634 30.8046 19.983 29.7773C21.1099 28.828 22.3472 27.4429 23.5001 25.7939ZM17.75 21.6954C21.5417 21.6954 24.6154 18.6104 24.6154 14.8048C24.6154 10.9992 21.5417 7.91418 17.75 7.91418C13.9584 7.91418 10.8846 10.9992 10.8846 14.8048C10.8846 18.6104 13.9584 21.6954 17.75 21.6954ZM17.75 18.7423C19.9167 18.7423 21.6731 16.9794 21.6731 14.8048C21.6731 12.6302 19.9167 10.8673 17.75 10.8673C15.5834 10.8673 13.827 12.6302 13.827 14.8048C13.827 16.9794 15.5834 18.7423 17.75 18.7423Z" fill="#FFFFFF8F"/>
</svg>
