<svg width="24" height="25" viewBox="0 0 24 25" fill="none" xmlns="http://www.w3.org/2000/svg">
<path d="M3.29289 17.4572C3.10536 17.6447 3 17.8991 3 18.1643V20.5001C3 21.0523 3.44772 21.5001 4 21.5001H6.33579C6.601 21.5001 6.85536 21.3947 7.04289 21.2072L17.315 10.935C17.5884 10.6617 17.5884 10.2185 17.315 9.94508L14.555 7.18503C14.2816 6.91167 13.8384 6.91167 13.565 7.18503L3.29289 17.4572ZM20.71 7.54006C21.1 7.15006 21.1 6.52006 20.71 6.13006L18.37 3.79006C17.98 3.40006 17.35 3.40006 16.96 3.79006L15.13 5.62006L18.88 9.37006L20.71 7.54006Z" fill="white" fill-opacity="0.96"/>
</svg>
