<svg width="36" height="36" viewBox="0 0 36 36" fill="none" xmlns="http://www.w3.org/2000/svg">
<path fill-rule="evenodd" clip-rule="evenodd" d="M20.4465 10.7104L24.2483 6.90941C25.6043 5.55071 28.1503 5.8593 29.5509 7.26132C30.9538 8.66273 31.2631 11.2084 29.9053 12.5649L26.1036 16.3666L28.4026 26.9125C28.5465 27.5782 28.3423 28.2719 27.8615 28.7507L26.1273 30.4859C25.3456 31.2676 24.0777 31.2676 23.2981 30.4859C23.2083 30.3961 23.1273 30.2972 23.0481 30.1815L18.7446 23.7262L15.7663 26.7031L16.0019 28.959C16.0638 29.5584 15.8522 30.153 15.4265 30.5787L13.3785 32.6277C12.9166 33.0898 12.143 32.9922 11.8105 32.4299L9.05014 27.7628L4.3831 25.0025C3.82073 24.6699 3.72318 23.8961 4.18542 23.4343L6.23242 21.3893C6.65841 20.9614 7.25466 20.7501 7.85572 20.8122L10.1099 21.0468L13.0876 18.0691L6.63952 13.7695C6.5268 13.6957 6.42251 13.6103 6.32707 13.5149C5.5467 12.7345 5.5467 11.4691 6.32707 10.6867L8.06354 8.95022C8.54489 8.47086 9.23734 8.26756 9.90217 8.41174L20.4465 10.7104ZM24.7129 29.0719L26.4485 27.3352L24.4232 18.0474L20.1865 22.2834L24.7129 29.0719ZM17.8254 21.8172L14.0152 25.6255C13.802 25.8387 13.6963 26.1367 13.7276 26.4367L14.0121 29.1647L12.8755 30.3018L10.6409 26.5237C10.5552 26.3788 10.4342 26.2578 10.2893 26.1721L6.51141 23.9377L7.64939 22.8015L10.3766 23.0854C10.6764 23.1166 10.9742 23.011 11.1873 22.7979L15.3643 18.6209C15.8105 18.1747 15.737 17.4319 15.212 17.0818L7.74219 12.1L9.47724 10.3661L20.5542 12.7808C20.8868 12.8534 21.2335 12.7517 21.4742 12.511L25.6632 8.32298C26.1528 7.83235 27.4516 7.98977 28.1367 8.67554C28.8236 9.36171 28.9815 10.6608 28.4914 11.1503L24.3031 15.3387C24.2962 15.3455 24.2895 15.3524 24.2829 15.3594L17.8545 21.7868C17.8446 21.7968 17.8349 21.8069 17.8254 21.8172Z" fill="url(#paint0_linear_1664_10812)"/>
<defs>
<linearGradient id="paint0_linear_1664_10812" x1="3.89209" y1="32.9209" x2="28.7928" y2="34.6486" gradientUnits="userSpaceOnUse">
<stop stop-color="#1DD13B"/>
<stop offset="1" stop-color="#27C6E5"/>
</linearGradient>
</defs>
</svg>
