<svg width="24" height="24" viewBox="0 0 24 24" fill="none" xmlns="http://www.w3.org/2000/svg">
<path d="M9 10C8.71636 8.85888 7.481 8 6 8C4.519 8 3.28364 8.85888 3 10M9 21C8.71636 19.8589 7.481 19 6 19C4.519 19 3.28364 19.8589 3 21M6 4H6.01M6 15H6.01M13.6 8H19.4C19.9601 8 20.2401 8 20.454 7.89101C20.6422 7.79513 20.7951 7.64215 20.891 7.45399C21 7.24008 21 6.96005 21 6.4V5.6C21 5.03995 21 4.75992 20.891 4.54601C20.7951 4.35785 20.6422 4.20487 20.454 4.10899C20.2401 4 19.9601 4 19.4 4H13.6C13.0399 4 12.7599 4 12.546 4.10899C12.3578 4.20487 12.2049 4.35785 12.109 4.54601C12 4.75992 12 5.03995 12 5.6V6.4C12 6.96005 12 7.24008 12.109 7.45399C12.2049 7.64215 12.3578 7.79513 12.546 7.89101C12.7599 8 13.0399 8 13.6 8ZM13.6 19H19.4C19.9601 19 20.2401 19 20.454 18.891C20.6422 18.7951 20.7951 18.6422 20.891 18.454C21 18.2401 21 17.9601 21 17.4V16.6C21 16.0399 21 15.7599 20.891 15.546C20.7951 15.3578 20.6422 15.2049 20.454 15.109C20.2401 15 19.9601 15 19.4 15H13.6C13.0399 15 12.7599 15 12.546 15.109C12.3578 15.2049 12.2049 15.3578 12.109 15.546C12 15.7599 12 16.0399 12 16.6V17.4C12 17.9601 12 18.2401 12.109 18.454C12.2049 18.6422 12.3578 18.7951 12.546 18.891C12.7599 19 13.0399 19 13.6 19ZM7 4C7 4.55228 6.55228 5 6 5C5.44772 5 5 4.55228 5 4C5 3.44772 5.44772 3 6 3C6.55228 3 7 3.44772 7 4ZM7 15C7 15.5523 6.55228 16 6 16C5.44772 16 5 15.5523 5 15C5 14.4477 5.44772 14 6 14C6.55228 14 7 14.4477 7 15Z" stroke="white" stroke-opacity="0.96" stroke-width="2" stroke-linecap="round" stroke-linejoin="round"/>
</svg>
