<svg width="36" height="36" viewBox="0 0 36 36" fill="none" xmlns="http://www.w3.org/2000/svg">
<path fill-rule="evenodd" clip-rule="evenodd" d="M15 11C15 13.1833 13.1833 15 11 15H8.98909L8.99223 16.15H11C11.4694 16.15 11.85 16.5306 11.85 17C11.85 17.4694 11.4694 17.85 11 17.85H8.99687L9 18.9973C9.0015 19.5496 8.55501 19.9985 8.00273 20C7.45044 20.0015 7.00151 19.555 7 19.0027L6.99686 17.85H6C5.53056 17.85 5.15 17.4694 5.15 17C5.15 16.5306 5.53056 16.15 6 16.15H6.99222L6.98909 15H6C5.44772 15 5 14.5523 5 14C5 13.4477 5.44772 13 6 13H6.98363L6.97 8.00273C6.96849 7.44938 7.41665 7 7.97 7H10.923C13.1131 7 15 8.8227 15 11ZM8.98357 13L8.97266 9H10.9229C12.0236 9 12.9999 9.94307 12.9999 11C12.9999 12.0787 12.0786 13 10.9999 13H8.98357Z" fill="url(#paint0_linear_1736_37006)"/>
<path d="M27 28H27.043C28.6751 28 30 26.6349 30 25C30 23.3651 28.6751 22 27.043 22H24.957C24.4431 22 24 21.5435 24 21C24 20.4853 24.4993 20 25.042 20H28C28.5523 20 29 19.5523 29 19C29 18.4477 28.5523 18 28 18H27V17.5C27 16.9477 26.5523 16.5 26 16.5C25.4477 16.5 25 16.9477 25 17.5V18.0003C23.3832 18.0235 22 19.3818 22 21C22 22.6349 23.3249 24 24.957 24H27.043C27.5569 24 28 24.4565 28 25C28 25.5435 27.5569 26 27.043 26H24.043C23.4907 26 23.043 26.4477 23.043 27C23.043 27.5523 23.4907 28 24.043 28H25V28.5C25 29.0523 25.4477 29.5 26 29.5C26.5523 29.5 27 29.0523 27 28.5V28Z" fill="url(#paint1_linear_1736_37006)"/>
<path d="M11.817 27.5767L23.817 10.5767C24.1355 10.1255 24.0279 9.50153 23.5767 9.18303C23.1255 8.86454 22.5015 8.97212 22.183 9.42332L10.183 26.4233C9.86454 26.8745 9.97212 27.4985 10.4233 27.817C10.8745 28.1355 11.4985 28.0279 11.817 27.5767Z" fill="url(#paint2_linear_1736_37006)"/>
<defs>
<linearGradient id="paint0_linear_1736_37006" x1="5" y1="29.5" x2="28.1279" y2="31.283" gradientUnits="userSpaceOnUse">
<stop stop-color="#1DD13B"/>
<stop offset="1" stop-color="#27C6E5"/>
</linearGradient>
<linearGradient id="paint1_linear_1736_37006" x1="5" y1="29.5" x2="28.1279" y2="31.283" gradientUnits="userSpaceOnUse">
<stop stop-color="#1DD13B"/>
<stop offset="1" stop-color="#27C6E5"/>
</linearGradient>
<linearGradient id="paint2_linear_1736_37006" x1="5" y1="29.5" x2="28.1279" y2="31.283" gradientUnits="userSpaceOnUse">
<stop stop-color="#1DD13B"/>
<stop offset="1" stop-color="#27C6E5"/>
</linearGradient>
</defs>
</svg>
