<svg width="167" height="180" viewBox="0 0 167 180" fill="none" xmlns="http://www.w3.org/2000/svg">
<g clip-path="url(#clip0_21_56301)">
<path d="M105.933 102.126L33.7449 120.747C31.2962 121.376 28.6986 121.006 26.5218 119.719C24.3451 118.431 22.767 116.331 22.1339 113.88L0.302332 28.955C-0.325288 26.5021 0.0440309 23.9 1.32927 21.7195C2.61451 19.539 4.71071 17.9583 7.15798 17.324L74.3171 1.52588e-05L91.5067 7.70847L112.789 90.495C113.416 92.948 113.047 95.5501 111.762 97.7306C110.476 99.9111 108.38 101.492 105.933 102.126Z" fill="#F2F2F2"/>
<path d="M7.84242 19.9867C6.09966 20.4383 4.60691 21.564 3.69167 23.1168C2.77642 24.6696 2.51342 26.5226 2.96036 28.2694L24.7919 113.194C25.2428 114.94 26.3666 116.435 27.9167 117.352C29.4668 118.269 31.3166 118.532 33.0604 118.085L105.248 99.4634C106.991 99.0117 108.484 97.886 109.399 96.3333C110.314 94.7805 110.577 92.9275 110.13 91.1807L89.1783 9.67687L74.0718 2.9025L7.84242 19.9867Z" fill="white"/>
<path d="M91.3233 8.14655L80.1513 11.0284C79.3357 11.2388 78.47 11.116 77.7448 10.6871C77.0196 10.2582 76.4942 9.55821 76.2841 8.74121L74.1593 0.475484C74.15 0.439297 74.151 0.401215 74.1624 0.365608C74.1737 0.33 74.1948 0.298308 74.2233 0.274165C74.2517 0.250021 74.2864 0.234405 74.3233 0.229106C74.3603 0.223807 74.3979 0.22904 74.432 0.244205L91.3544 7.77233C91.392 7.78908 91.4235 7.81716 91.4446 7.85267C91.4656 7.88818 91.475 7.92936 91.4716 7.97049C91.4682 8.01163 91.4521 8.05068 91.4255 8.08223C91.3989 8.11378 91.3632 8.13626 91.3233 8.14655Z" fill="#F2F2F2"/>
<path d="M85.4457 80.6705L52.5795 89.1485C52.3776 89.2006 52.1674 89.2123 51.961 89.1831C51.7545 89.1538 51.5559 89.084 51.3763 88.9779C51.1968 88.8717 51.0399 88.7311 50.9146 88.5641C50.7892 88.3972 50.698 88.2072 50.646 88.0049C50.594 87.8026 50.5823 87.5921 50.6115 87.3853C50.6407 87.1785 50.7103 86.9795 50.8164 86.7996C50.9224 86.6198 51.0627 86.4626 51.2294 86.3371C51.396 86.2115 51.5857 86.1201 51.7876 86.068L84.6538 77.59C84.8557 77.5379 85.0659 77.5262 85.2724 77.5555C85.4788 77.5848 85.6775 77.6545 85.8571 77.7607C86.0366 77.8669 86.1935 78.0075 86.3188 78.1744C86.4441 78.3413 86.5354 78.5314 86.5874 78.7336C86.6394 78.9359 86.6511 79.1465 86.6218 79.3533C86.5926 79.5601 86.523 79.7591 86.417 79.9389C86.311 80.1188 86.1707 80.276 86.004 80.4015C85.8373 80.527 85.6476 80.6184 85.4457 80.6705Z" fill="#CCCCCC"/>
<path d="M93.1247 84.2327L53.9159 94.3468C53.5081 94.452 53.0753 94.3906 52.7127 94.1762C52.3501 93.9617 52.0874 93.6117 51.9824 93.2032C51.8773 92.7947 51.9386 92.3612 52.1527 91.9979C52.3668 91.6347 52.7162 91.3715 53.124 91.2663L92.3328 81.1523C92.7405 81.0475 93.173 81.1091 93.5353 81.3236C93.8976 81.5381 94.16 81.888 94.265 82.2962C94.3699 82.7045 94.3088 83.1378 94.095 83.5009C93.8812 83.864 93.5322 84.1272 93.1247 84.2327Z" fill="#CCCCCC"/>
<path d="M39.1655 99.3594C42.2648 99.3594 44.7773 96.8426 44.7773 93.7379C44.7773 90.6332 42.2648 88.1164 39.1655 88.1164C36.0661 88.1164 33.5536 90.6332 33.5536 93.7379C33.5536 96.8426 36.0661 99.3594 39.1655 99.3594Z" fill="#E6E6E6"/>
<path d="M81.9511 65.9586L38.3015 77.214C37.04 77.5378 35.7019 77.3471 34.5806 76.6838C33.4593 76.0204 32.6464 74.9386 32.3204 73.6757L23.173 38.0794C22.8498 36.8157 23.0402 35.4752 23.7024 34.352C24.3646 33.2288 25.4445 32.4146 26.7053 32.0879L70.3549 20.8325C71.6164 20.5088 72.9545 20.6995 74.0758 21.3628C75.1971 22.0261 76.01 23.1079 76.336 24.3708L85.4834 59.9672C85.8066 61.2309 85.6162 62.5713 84.954 63.6945C84.2918 64.8178 83.2119 65.632 81.9511 65.9586Z" fill="white"/>
<path d="M81.9511 65.9586L38.3015 77.214C37.04 77.5378 35.7019 77.3471 34.5806 76.6838C33.4593 76.0204 32.6464 74.9386 32.3204 73.6757L23.173 38.0794C22.8498 36.8157 23.0402 35.4752 23.7024 34.352C24.3646 33.2288 25.4445 32.4146 26.7053 32.0879L70.3549 20.8325C71.6164 20.5088 72.9545 20.6995 74.0758 21.3628C75.1971 22.0261 76.01 23.1079 76.336 24.3708L85.4834 59.9672C85.8066 61.2309 85.6162 62.5713 84.954 63.6945C84.2918 64.8178 83.2119 65.632 81.9511 65.9586ZM26.8493 32.6485C25.7369 32.9367 24.784 33.6551 24.1998 34.6462C23.6155 35.6373 23.4475 36.8201 23.7327 37.9351L32.88 73.5314C33.1677 74.6458 33.8849 75.6003 34.8743 76.1856C35.8637 76.7709 37.0444 76.9391 38.1575 76.6535L81.8071 65.398C82.9195 65.1098 83.8724 64.3914 84.4567 63.4003C85.041 62.4093 85.2089 61.2265 84.9238 60.1115L75.7764 24.5151C75.4887 23.4008 74.7715 22.4463 73.7821 21.861C72.7927 21.2757 71.612 21.1074 70.4989 21.3931L26.8493 32.6485Z" fill="#E6E6E6"/>
<path d="M68.1405 32.8014L46.1111 38.4819C45.9185 38.5357 45.7127 38.5143 45.5352 38.422C45.3578 38.3297 45.2219 38.1733 45.1552 37.9845C45.1241 37.8859 45.1134 37.7819 45.1238 37.679C45.1341 37.5761 45.1653 37.4764 45.2154 37.386C45.2655 37.2955 45.3334 37.2163 45.4151 37.153C45.4968 37.0897 45.5905 37.0438 45.6905 37.018L68.115 31.2357C69.0209 31.6954 68.7825 32.6358 68.1402 32.8015L68.1405 32.8014Z" fill="#F2F2F2"/>
<path d="M69.1351 36.6722L47.1058 42.3526C46.9132 42.4065 46.7073 42.3851 46.5299 42.2927C46.3524 42.2004 46.2166 42.044 46.1499 41.8552C46.1188 41.7566 46.1081 41.6527 46.1185 41.5498C46.1288 41.4468 46.16 41.3471 46.2101 41.2567C46.2602 41.1663 46.3281 41.087 46.4098 41.0237C46.4915 40.9605 46.5852 40.9146 46.6852 40.8888L69.1097 35.1064C70.0156 35.5662 69.7772 36.5066 69.1349 36.6722L69.1351 36.6722Z" fill="#F2F2F2"/>
<path d="M42.9099 45.7845L36.1867 47.5181C35.9671 47.5745 35.7342 47.5413 35.539 47.4259C35.3439 47.3104 35.2024 47.1221 35.1457 46.9022L33.1033 38.9547C33.0471 38.7348 33.0802 38.5014 33.1954 38.3059C33.3107 38.1104 33.4987 37.9687 33.7182 37.9119L40.4413 36.1782C40.6609 36.1219 40.8938 36.1552 41.0889 36.2706C41.2841 36.3861 41.4256 36.5743 41.4824 36.7941L43.5247 44.7416C43.581 44.9616 43.5479 45.1949 43.4326 45.3904C43.3173 45.586 43.1293 45.7277 42.9099 45.7845V45.7845Z" fill="#E6E6E6"/>
<path d="M71.1077 44.6141L37.4868 53.2835C37.2942 53.3373 37.0884 53.3159 36.9109 53.2236C36.7335 53.1313 36.5977 52.9749 36.5309 52.7861C36.4998 52.6875 36.4891 52.5835 36.4995 52.4806C36.5099 52.3777 36.541 52.278 36.5911 52.1876C36.6412 52.0971 36.7092 52.0179 36.7909 51.9546C36.8726 51.8913 36.9662 51.8454 37.0662 51.8196L71.0825 43.0482C71.9884 43.508 71.75 44.4484 71.1077 44.614L71.1077 44.6141Z" fill="#F2F2F2"/>
<path d="M72.1027 48.4859L38.4818 57.1554C38.2892 57.2092 38.0834 57.1878 37.9059 57.0955C37.7285 57.0032 37.5927 56.8468 37.5259 56.658C37.4948 56.5593 37.4841 56.4554 37.4945 56.3525C37.5048 56.2496 37.536 56.1499 37.5861 56.0594C37.6362 55.969 37.7042 55.8897 37.7859 55.8265C37.8675 55.7632 37.9612 55.7173 38.0612 55.6915L72.0775 46.9201C72.9834 47.3799 72.745 48.3203 72.1027 48.4859V48.4859Z" fill="#F2F2F2"/>
<path d="M73.097 52.3553L39.4761 61.0247C39.2835 61.0786 39.0777 61.0572 38.9003 60.9649C38.7228 60.8725 38.587 60.7161 38.5202 60.5273C38.4891 60.4287 38.4785 60.3248 38.4888 60.2219C38.4992 60.119 38.5303 60.0192 38.5804 59.9288C38.6305 59.8384 38.6985 59.7591 38.7802 59.6958C38.8619 59.6326 38.9556 59.5867 39.0556 59.5609L73.0719 50.7895C73.9777 51.2492 73.7393 52.1897 73.097 52.3553Z" fill="#F2F2F2"/>
<path d="M74.0919 56.2269L40.471 64.8963C40.2784 64.9502 40.0726 64.9288 39.8951 64.8364C39.7177 64.7441 39.5819 64.5877 39.5151 64.3989C39.484 64.3003 39.4733 64.1964 39.4837 64.0935C39.494 63.9905 39.5252 63.8908 39.5753 63.8004C39.6254 63.71 39.6934 63.6307 39.7751 63.5674C39.8567 63.5042 39.9504 63.4583 40.0504 63.4325L74.0667 54.6611C74.9726 55.1208 74.7342 56.0613 74.0919 56.2269L74.0919 56.2269Z" fill="#F2F2F2"/>
<path d="M75.0862 60.0965L41.4654 68.7659C41.2728 68.8198 41.067 68.7984 40.8895 68.7061C40.7121 68.6137 40.5762 68.4574 40.5095 68.2685C40.4784 68.1699 40.4677 68.066 40.4781 67.9631C40.4884 67.8602 40.5196 67.7605 40.5697 67.67C40.6198 67.5796 40.6877 67.5003 40.7694 67.4371C40.8511 67.3738 40.9448 67.3279 41.0448 67.3021L75.0611 58.5307C75.967 58.9905 75.7286 59.9309 75.0862 60.0965Z" fill="#F2F2F2"/>
<path d="M39.5794 95.7084C39.4572 95.7401 39.328 95.7312 39.2113 95.683L39.2041 95.68L37.6753 95.0308C37.6044 95.0007 37.54 94.9569 37.486 94.9019C37.432 94.8468 37.3893 94.7817 37.3604 94.7101C37.3315 94.6386 37.317 94.562 37.3177 94.4849C37.3184 94.4077 37.3343 94.3314 37.3644 94.2604C37.3946 94.1893 37.4384 94.125 37.4934 94.0709C37.5484 94.0169 37.6135 93.9743 37.685 93.9454C37.7565 93.9166 37.8329 93.9022 37.91 93.903C37.987 93.9038 38.0631 93.9199 38.134 93.9502L39.1246 94.3723L40.4227 91.3133C40.4528 91.2423 40.4966 91.178 40.5515 91.1241C40.6064 91.0701 40.6714 91.0274 40.7427 90.9986C40.8141 90.9698 40.8904 90.9553 40.9673 90.956C41.0443 90.9568 41.1203 90.9727 41.1911 91.0028L41.1913 91.0029L41.1835 91.0229L41.1916 91.0028C41.3345 91.0639 41.4474 91.1792 41.5055 91.3236C41.5636 91.4679 41.5621 91.6294 41.5014 91.7727L39.9742 95.3694C39.9388 95.4524 39.8848 95.526 39.8164 95.5846C39.748 95.6433 39.667 95.6854 39.5798 95.7076L39.5794 95.7084Z" fill="white"/>
<path d="M133.621 134.489H59.0783C56.5505 134.486 54.127 133.479 52.3395 131.688C50.5521 129.898 49.5466 127.47 49.5438 124.938V37.2423C49.5466 34.7101 50.5521 32.2825 52.3395 30.4919C54.127 28.7014 56.5505 27.6942 59.0783 27.6913H128.428L143.156 39.4503V124.938C143.153 127.47 142.148 129.898 140.36 131.688C138.573 133.479 136.149 134.486 133.621 134.489Z" fill="#E6E6E6"/>
<path d="M59.0784 30.4409C57.2782 30.4429 55.5524 31.1601 54.2795 32.4352C53.0066 33.7103 52.2906 35.4391 52.2886 37.2423V124.938C52.2906 126.741 53.0066 128.47 54.2795 129.745C55.5524 131.02 57.2782 131.737 59.0784 131.739H133.621C135.422 131.737 137.147 131.02 138.42 129.745C139.693 128.47 140.409 126.741 140.411 124.938V40.7749L127.468 30.4409H59.0784Z" fill="white"/>
<path d="M119.123 55.9403H85.1844C84.7633 55.9403 84.3594 55.7728 84.0617 55.4745C83.7639 55.1762 83.5966 54.7717 83.5966 54.3498C83.5966 53.928 83.7639 53.5235 84.0617 53.2252C84.3594 52.9269 84.7633 52.7593 85.1844 52.7593H119.123C119.544 52.7593 119.948 52.9269 120.246 53.2252C120.543 53.5235 120.711 53.928 120.711 54.3498C120.711 54.7717 120.543 55.1762 120.246 55.4745C119.948 55.7728 119.544 55.9403 119.123 55.9403Z" fill="#00D62A"/>
<path d="M125.672 61.3082H85.1844C84.7636 61.3077 84.3603 61.1399 84.063 60.8416C83.7657 60.5434 83.5988 60.1392 83.5988 59.7177C83.5988 59.2963 83.7657 58.8921 84.063 58.5939C84.3603 58.2956 84.7636 58.1278 85.1844 58.1273H125.672C125.881 58.127 126.088 58.1679 126.281 58.2477C126.473 58.3275 126.649 58.4446 126.796 58.5923C126.944 58.7401 127.061 58.9155 127.141 59.1086C127.221 59.3017 127.262 59.5087 127.262 59.7177C127.262 59.9268 127.221 60.1338 127.141 60.3269C127.061 60.52 126.944 60.6954 126.796 60.8432C126.649 60.9909 126.473 61.108 126.281 61.1878C126.088 61.2676 125.881 61.3085 125.672 61.3082Z" fill="#00D62A"/>
<path d="M119.123 76.8147H85.1857C84.7646 76.8147 84.3608 76.9822 84.063 77.2805C83.7653 77.5787 83.598 77.9832 83.598 78.405C83.598 78.8268 83.7653 79.2314 84.063 79.5296C84.3608 79.8279 84.7646 79.9954 85.1857 79.9954H119.123C119.544 79.9954 119.948 79.8279 120.246 79.5296C120.543 79.2314 120.711 78.8268 120.711 78.405C120.711 77.9832 120.543 77.5787 120.246 77.2805C119.948 76.9822 119.544 76.8147 119.123 76.8147Z" fill="#CCCCCC"/>
<path d="M125.673 82.1835H85.1857C84.7646 82.1835 84.3608 82.351 84.063 82.6493C83.7653 82.9475 83.598 83.3521 83.598 83.7739C83.598 84.1957 83.7653 84.6002 84.063 84.8984C84.3608 85.1967 84.7646 85.3642 85.1857 85.3642H125.673C126.094 85.3642 126.498 85.1967 126.796 84.8984C127.093 84.6002 127.261 84.1957 127.261 83.7739C127.261 83.3521 127.093 82.9475 126.796 82.6493C126.498 82.351 126.094 82.1835 125.673 82.1835Z" fill="#CCCCCC"/>
<path d="M119.123 104.053H85.1844C84.7633 104.053 84.3594 103.885 84.0617 103.587C83.7639 103.289 83.5966 102.884 83.5966 102.462C83.5966 102.04 83.7639 101.636 84.0617 101.338C84.3594 101.039 84.7633 100.872 85.1844 100.872H119.123C119.544 100.872 119.948 101.039 120.246 101.338C120.543 101.636 120.711 102.04 120.711 102.462C120.711 102.884 120.543 103.289 120.246 103.587C119.948 103.885 119.544 104.053 119.123 104.053Z" fill="#CCCCCC"/>
<path d="M125.672 109.421H85.1844C84.7636 109.42 84.3603 109.252 84.063 108.954C83.7657 108.656 83.5988 108.252 83.5988 107.83C83.5988 107.409 83.7657 107.005 84.063 106.706C84.3603 106.408 84.7636 106.24 85.1844 106.24H125.672C125.881 106.239 126.088 106.28 126.281 106.36C126.473 106.44 126.649 106.557 126.796 106.705C126.944 106.852 127.061 107.028 127.141 107.221C127.221 107.414 127.262 107.621 127.262 107.83C127.262 108.039 127.221 108.246 127.141 108.439C127.061 108.632 126.944 108.808 126.796 108.956C126.649 109.103 126.473 109.22 126.281 109.3C126.088 109.38 125.881 109.421 125.672 109.421Z" fill="#CCCCCC"/>
<path d="M71.0516 62.6553C74.1509 62.6553 76.6634 60.1385 76.6634 57.0338C76.6634 53.9291 74.1509 51.4123 71.0516 51.4123C67.9522 51.4123 65.4397 53.9291 65.4397 57.0338C65.4397 60.1385 67.9522 62.6553 71.0516 62.6553Z" fill="#00D62A"/>
<path d="M70.4955 59.1782C70.3692 59.1785 70.2463 59.1375 70.1453 59.0617L70.139 59.057L68.8202 58.0463C68.7589 57.9995 68.7075 57.941 68.6688 57.8742C68.6301 57.8074 68.605 57.7337 68.5948 57.6571C68.5846 57.5806 68.5896 57.5028 68.6095 57.4282C68.6294 57.3536 68.6637 57.2837 68.7106 57.2224C68.7575 57.1612 68.816 57.1098 68.8828 57.0712C68.9495 57.0326 69.0232 57.0075 69.0996 56.9975C69.1761 56.9875 69.2537 56.9926 69.3281 57.0127C69.4026 57.0328 69.4723 57.0674 69.5333 57.1145L70.3876 57.7707L72.4062 55.1326C72.4531 55.0714 72.5114 55.0201 72.578 54.9815C72.6447 54.943 72.7182 54.9179 72.7945 54.9079C72.8707 54.8978 72.9483 54.9028 73.0226 54.9227C73.0969 54.9426 73.1666 54.977 73.2276 55.0239L73.2278 55.024L73.2153 55.0415L73.2281 55.024C73.3513 55.1189 73.4319 55.2588 73.4522 55.4131C73.4725 55.5674 73.4309 55.7234 73.3365 55.847L70.9621 58.9486C70.9072 59.02 70.8366 59.0779 70.7557 59.1176C70.6749 59.1573 70.586 59.1778 70.496 59.1775L70.4955 59.1782Z" fill="white"/>
<path d="M77.2402 81.0894C77.2405 81.8278 77.0956 82.5589 76.8138 83.2411C76.5319 83.9233 76.1187 84.5432 75.5976 85.0654C75.0766 85.5877 74.458 86.0019 73.7771 86.2846C73.0962 86.5673 72.3664 86.7128 71.6293 86.7129C71.5811 86.7139 71.5328 86.712 71.4848 86.7071C70.3814 86.6788 69.3108 86.3251 68.407 85.6903C67.5033 85.0555 66.8065 84.1678 66.4038 83.1383C66.0012 82.1088 65.9106 80.9832 66.1434 79.9024C66.3761 78.8215 66.9219 77.8335 67.7125 77.0618C68.5031 76.2902 69.5032 75.7692 70.5879 75.5642C71.6725 75.3591 72.7935 75.479 73.8104 75.9089C74.8274 76.3388 75.6952 77.0596 76.3053 77.981C76.9153 78.9025 77.2406 79.9837 77.2402 81.0894Z" fill="#CCCCCC"/>
<path d="M71.0516 110.768C74.1509 110.768 76.6634 108.251 76.6634 105.146C76.6634 102.042 74.1509 99.5247 71.0516 99.5247C67.9522 99.5247 65.4397 102.042 65.4397 105.146C65.4397 108.251 67.9522 110.768 71.0516 110.768Z" fill="#CCCCCC"/>
<path d="M142.869 39.8288H131.333C130.491 39.8288 129.683 39.4936 129.087 38.8971C128.492 38.3005 128.157 37.4914 128.157 36.6478V28.1124C128.157 28.075 128.168 28.0384 128.188 28.0067C128.207 27.9751 128.236 27.9497 128.269 27.9334C128.303 27.9171 128.34 27.9107 128.377 27.9148C128.415 27.9188 128.45 27.9333 128.479 27.9565L142.993 39.4741C143.025 39.4997 143.048 39.5348 143.06 39.5744C143.071 39.6141 143.07 39.6563 143.057 39.6953C143.043 39.7343 143.018 39.7681 142.984 39.792C142.951 39.8159 142.911 39.8288 142.869 39.8288Z" fill="#CCCCCC"/>
<path d="M77.2402 81.0894C77.2405 81.8278 77.0956 82.5589 76.8137 83.2411C76.5319 83.9233 76.1187 84.5432 75.5976 85.0655C75.0766 85.5877 74.4579 86.0019 73.777 86.2846C73.0961 86.5673 72.3663 86.7128 71.6293 86.7129C71.5811 86.7139 71.5328 86.712 71.4848 86.7072C70.7598 84.8957 70.4803 82.9362 70.6699 80.9939C70.8595 79.0516 71.5126 77.1834 72.5741 75.547C73.8795 75.7711 75.0638 76.4503 75.9176 77.4646C76.7715 78.4788 77.2399 79.7627 77.2402 81.0894Z" fill="#00D62A"/>
<path d="M83.5966 78.4065C83.5973 77.9845 83.765 77.5801 84.0628 77.2817C84.3607 76.9834 84.7644 76.8154 85.1857 76.8147H93.6426C94.1365 77.821 94.4876 78.8917 94.6855 79.9954H85.1857C84.7647 79.9953 84.361 79.828 84.0631 79.5301C83.7652 79.2322 83.5974 78.8281 83.5966 78.4065Z" fill="#00D62A"/>
<path d="M94.8821 82.1835C94.8827 83.2578 94.7408 84.3274 94.4602 85.3642H85.1857C84.7646 85.3642 84.3608 85.1967 84.063 84.8984C83.7653 84.6002 83.598 84.1957 83.598 83.7739C83.598 83.3521 83.7653 82.9475 84.063 82.6493C84.3608 82.351 84.7646 82.1835 85.1857 82.1835H94.8821Z" fill="#00D62A"/>
<path d="M115.807 101.8C115.567 102.193 115.182 102.475 114.735 102.583C114.288 102.692 113.816 102.618 113.424 102.378L93.1977 90.0196C93.0033 89.9009 92.8342 89.7449 92.7 89.5607C92.5658 89.3765 92.4692 89.1676 92.4156 88.946C92.362 88.7244 92.3525 88.4943 92.3876 88.269C92.4228 88.0437 92.5019 87.8275 92.6204 87.6328C92.739 87.4381 92.8946 87.2687 93.0785 87.1343C93.2624 86.9999 93.471 86.9031 93.6922 86.8494C93.9135 86.7957 94.1431 86.7862 94.368 86.8214C94.593 86.8566 94.8088 86.9358 95.0031 87.0546L115.229 99.4131C115.622 99.6529 115.903 100.039 116.011 100.487C116.12 100.934 116.046 101.407 115.807 101.8Z" fill="#3F3D56"/>
<path d="M95.5803 89.4414C94.152 91.7871 92.0613 93.6559 89.5727 94.8113C87.0842 95.9668 84.3094 96.3571 81.5994 95.9329C78.8893 95.5087 76.3657 94.289 74.3477 92.4281C72.3297 90.5672 70.9078 88.1486 70.262 85.4782C69.6161 82.8078 69.7753 80.0055 70.7194 77.4257C71.6634 74.846 73.35 72.6045 75.5657 70.9849C77.7814 69.3653 80.4269 68.4402 83.1674 68.3267C85.908 68.2131 88.6207 68.9162 90.9624 70.347C94.0992 72.2685 96.3471 75.358 97.2128 78.9377C98.0785 82.5173 97.4914 86.2948 95.5803 89.4414ZM74.8607 76.7815C73.7895 78.5408 73.2631 80.5788 73.3481 82.6377C73.4331 84.6967 74.1257 86.6842 75.3383 88.3488C76.551 90.0135 78.2291 91.2806 80.1606 91.9898C82.0922 92.6991 84.1902 92.8187 86.1896 92.3335C88.1889 91.8483 89.9998 90.7801 91.3931 89.2639C92.7864 87.7478 93.6996 85.8518 94.0172 83.8158C94.3348 81.7798 94.0426 79.6952 93.1775 77.8255C92.3123 75.9558 90.9132 74.3852 89.1569 73.3121C86.801 71.8762 83.9728 71.4352 81.2926 72.0856C78.6125 72.736 76.2994 74.4248 74.8607 76.7815Z" fill="#3F3D56"/>
<path d="M140.015 84.4346C143.934 84.4346 147.111 81.252 147.111 77.3261C147.111 73.4001 143.934 70.2175 140.015 70.2175C136.096 70.2175 132.918 73.4001 132.918 77.3261C132.918 81.252 136.096 84.4346 140.015 84.4346Z" fill="#A0616A"/>
<path d="M139.556 117.177C139.419 116.75 139.374 116.299 139.423 115.853C139.473 115.407 139.616 114.977 139.843 114.59C140.07 114.203 140.376 113.869 140.741 113.609C141.106 113.349 141.522 113.169 141.961 113.081C142.1 113.054 142.241 113.037 142.382 113.029L149.857 101.012L143.029 94.5092C142.768 94.2607 142.559 93.963 142.414 93.6331C142.268 93.3033 142.19 92.9478 142.182 92.5873C142.175 92.2268 142.239 91.8684 142.37 91.5327C142.502 91.1971 142.699 90.8909 142.949 90.6318C143.199 90.3728 143.498 90.166 143.829 90.0233C144.16 89.8807 144.515 89.8051 144.875 89.8009C145.235 89.7967 145.592 89.864 145.926 89.9989C146.26 90.1338 146.564 90.3335 146.82 90.5867L156.248 99.8986L156.267 99.9217C156.558 100.366 156.699 100.893 156.668 101.424C156.637 101.955 156.436 102.462 156.095 102.869L145.621 115.278C145.653 115.377 145.679 115.478 145.699 115.581C145.787 116.021 145.781 116.474 145.681 116.911C145.582 117.349 145.391 117.76 145.121 118.119C144.852 118.477 144.51 118.774 144.118 118.991C143.726 119.208 143.292 119.339 142.846 119.377C142.756 119.385 142.666 119.389 142.577 119.389C141.905 119.386 141.251 119.17 140.709 118.773C140.166 118.376 139.763 117.818 139.556 117.177Z" fill="#A0616A"/>
<path d="M128.327 176.259L124.785 176.259L123.1 162.573L128.328 162.573L128.327 176.259Z" fill="#A0616A"/>
<path d="M129.23 179.699L117.809 179.698V179.554C117.809 178.969 117.924 178.39 118.147 177.849C118.371 177.309 118.698 176.818 119.111 176.405C119.524 175.991 120.014 175.663 120.553 175.439C121.093 175.216 121.671 175.1 122.255 175.101H122.255L129.231 175.101L129.23 179.699Z" fill="#2F2E41"/>
<path d="M163.535 171.353L160.491 173.169L152.053 162.273L156.545 159.594L163.535 171.353Z" fill="#A0616A"/>
<path d="M166.067 173.846L156.254 179.699L156.18 179.574C155.881 179.072 155.684 178.515 155.6 177.937C155.516 177.358 155.547 176.768 155.69 176.202C155.834 175.635 156.087 175.102 156.436 174.633C156.786 174.164 157.223 173.769 157.725 173.47L157.725 173.47L163.719 169.895L166.067 173.846Z" fill="#2F2E41"/>
<path d="M122.653 170.232C120.28 142.243 118.868 116.241 127.543 105.634L127.61 105.552L142.208 111.402L142.232 111.454C142.281 111.561 147.136 122.259 146.004 129.455L149.605 146.047L161.345 165.739C161.44 165.898 161.5 166.075 161.521 166.258C161.542 166.442 161.524 166.627 161.468 166.803C161.412 166.979 161.319 167.141 161.196 167.279C161.073 167.416 160.922 167.525 160.753 167.6L155.651 169.848C155.363 169.974 155.039 169.991 154.74 169.897C154.44 169.804 154.184 169.605 154.019 169.337L141.247 148.476L134.033 132.475C133.994 132.388 133.927 132.316 133.843 132.271C133.76 132.226 133.663 132.21 133.569 132.225C133.475 132.24 133.389 132.285 133.324 132.355C133.258 132.424 133.217 132.513 133.207 132.607L129.208 170.26C129.175 170.58 129.024 170.877 128.785 171.092C128.547 171.307 128.237 171.426 127.916 171.425H123.949C123.624 171.423 123.311 171.3 123.071 171.079C122.831 170.859 122.682 170.557 122.653 170.232Z" fill="#2F2E41"/>
<path d="M127.592 105.856L127.522 105.823L127.512 105.746C126.966 101.923 127.612 97.675 129.43 93.1203C130.326 90.8911 131.992 89.0585 134.124 87.9566C136.256 86.8546 138.712 86.5566 141.045 87.1167C142.389 87.4484 143.65 88.0561 144.747 88.9013C145.844 89.7464 146.754 90.8106 147.419 92.0265C148.076 93.2299 148.476 94.5568 148.594 95.9231C148.712 97.2894 148.545 98.6654 148.105 99.9639C145.813 106.679 142.839 112.961 142.809 113.024L142.747 113.155L127.592 105.856Z" fill="#00D62A"/>
<path d="M111.665 96.3333C112.016 96.0553 112.422 95.8548 112.857 95.7451C113.291 95.6353 113.743 95.6186 114.184 95.6962C114.625 95.7738 115.045 95.9439 115.416 96.1953C115.787 96.4468 116.101 96.7739 116.337 97.1552C116.411 97.2762 116.476 97.4024 116.533 97.5326L130.388 100.338L134.077 91.654C134.218 91.3222 134.423 91.0217 134.681 90.7697C134.938 90.5178 135.243 90.3195 135.578 90.1862C135.912 90.053 136.27 89.9874 136.63 89.9933C136.989 89.9993 137.345 90.0766 137.675 90.2208C138.004 90.365 138.303 90.5732 138.552 90.8335C138.801 91.0938 138.996 91.4009 139.126 91.7372C139.256 92.0734 139.318 92.4321 139.309 92.7926C139.3 93.1531 139.219 93.5082 139.072 93.8373L133.667 105.944L133.652 105.97C133.338 106.399 132.895 106.716 132.387 106.873C131.88 107.03 131.336 107.019 130.835 106.841L115.565 101.359C115.483 101.423 115.397 101.483 115.309 101.538C114.928 101.775 114.502 101.928 114.058 101.987C113.614 102.047 113.163 102.012 112.733 101.885C112.304 101.758 111.906 101.541 111.566 101.249C111.226 100.957 110.951 100.596 110.76 100.191C110.721 100.109 110.686 100.026 110.655 99.942C110.422 99.3106 110.394 98.6218 110.576 97.9737C110.757 97.3257 111.138 96.7515 111.665 96.3333Z" fill="#A0616A"/>
<path d="M165.651 84.9387C164.967 83.7255 163.971 82.6143 162.655 82.1658C160.955 81.5867 159.114 82.2033 157.365 82.615C156.019 82.9322 154.611 83.1264 153.254 82.8587C151.896 82.591 150.587 81.7996 149.969 80.5595C149.061 78.7351 149.826 76.5595 149.771 74.5214C149.742 73.4119 149.463 72.3234 148.953 71.3378C148.444 70.3523 147.718 69.4955 146.83 68.8319C145.942 68.1684 144.915 67.7154 143.827 67.5072C142.738 67.299 141.617 67.341 140.547 67.63C138.873 67.1461 137.358 67.1014 136.322 68.3904C135.02 68.3904 133.77 68.9088 132.849 69.8315C131.928 70.7542 131.411 72.0057 131.411 73.3106H136.107C135.885 74.5102 136.139 75.7495 136.816 76.7637C137.645 77.9839 139.087 78.8665 139.365 80.3161C139.634 81.7208 138.68 83.0537 137.68 84.0748C136.681 85.0959 135.521 86.1076 135.209 87.5034C135.017 88.5629 135.234 89.6557 135.816 90.5611C136.397 91.4554 137.118 92.2504 137.95 92.9157C141.702 96.1355 146.161 98.4205 150.963 99.5841C154.345 100.4 158.043 100.611 161.183 99.1108C162.438 98.5106 163.558 97.6582 164.471 96.6065C165.384 95.5547 166.071 94.3261 166.49 92.9971C166.909 91.668 167.051 90.2668 166.906 88.8805C166.762 87.4942 166.335 86.1525 165.651 84.9387Z" fill="#2F2E41"/>
<path d="M166.711 180H111.815C111.738 180 111.665 179.969 111.611 179.915C111.556 179.861 111.526 179.787 111.526 179.711C111.526 179.634 111.556 179.56 111.611 179.506C111.665 179.452 111.738 179.421 111.815 179.421H166.711C166.788 179.421 166.861 179.452 166.915 179.506C166.97 179.56 167 179.634 167 179.711C167 179.787 166.97 179.861 166.915 179.915C166.861 179.969 166.788 180 166.711 180Z" fill="#CCCCCC"/>
</g>
<defs>
<clipPath id="clip0_21_56301">
<rect width="167" height="180" fill="white"/>
</clipPath>
</defs>
</svg>
