<svg width="276" height="234" viewBox="0 0 276 234" fill="none" xmlns="http://www.w3.org/2000/svg">
<g clip-path="url(#clip0_2392_108043)">
<path d="M147.616 32.8675C156.773 26.0876 169.663 23.4885 179.75 28.7778C168.395 33.7197 159.15 42.5284 153.65 53.6453C151.545 57.9403 149.649 62.9371 145.305 64.9222C142.602 66.1574 139.412 65.9188 136.613 64.9215C133.814 63.9241 131.324 62.2297 128.869 60.5533L128.133 60.4644C132.502 49.9278 138.46 39.6474 147.616 32.8675Z" fill="#F0F0F0"/>
<path d="M179.669 29.0029C170.251 29.2987 161.166 32.5614 153.703 38.3276C152.075 39.5403 150.647 41.0028 149.473 42.6612C148.381 44.3136 147.751 46.229 147.648 48.2083C147.514 50.0518 147.591 51.953 147.013 53.7319C146.703 54.6381 146.206 55.4685 145.554 56.1686C144.902 56.8687 144.11 57.4228 143.229 57.7944C141.059 58.7777 138.665 58.9206 136.32 58.9788C133.716 59.0435 131.01 59.0693 128.642 60.2984C128.355 60.4473 128.141 59.9923 128.428 59.8436C132.548 57.7052 137.363 59.1004 141.693 57.8277C143.714 57.2339 145.569 56.026 146.38 54.0051C147.089 52.238 147.012 50.2773 147.131 48.4096C147.204 46.4773 147.748 44.5922 148.715 42.919C149.801 41.2061 151.17 39.6909 152.763 38.4384C156.305 35.5612 160.276 33.2602 164.532 31.6196C169.378 29.7202 174.512 28.6657 179.713 28.5019C180.035 28.4918 179.988 28.9929 179.669 29.0029V29.0029Z" fill="white"/>
<path d="M155.997 36.3291C155.202 34.9428 154.924 33.3182 155.214 31.7456C155.503 30.173 156.341 28.7547 157.577 27.7441C157.828 27.5404 158.156 27.9216 157.904 28.1255C156.751 29.0645 155.971 30.3857 155.705 31.8507C155.438 33.3157 155.703 34.8279 156.451 36.1144C156.613 36.3942 156.159 36.6073 155.997 36.3291V36.3291Z" fill="white"/>
<path d="M147.593 47.2646C150.733 48.1446 154.09 47.8056 156.992 46.3153C157.28 46.1674 157.494 46.6223 157.206 46.77C154.183 48.3153 150.69 48.6609 147.423 47.738C147.112 47.6498 147.283 47.1769 147.593 47.2646Z" fill="white"/>
<path d="M169.354 30.3866C169.55 30.9873 169.892 31.5297 170.349 31.9652C170.806 32.4007 171.363 32.7155 171.972 32.8816C172.284 32.9657 172.113 33.4386 171.802 33.3549C171.131 33.1684 170.516 32.8199 170.01 32.3399C169.504 31.8599 169.123 31.2629 168.9 30.6013C168.874 30.5407 168.872 30.4724 168.894 30.4102C168.916 30.348 168.961 30.2967 169.02 30.2666C169.08 30.2384 169.149 30.2353 169.211 30.2578C169.274 30.2802 169.325 30.3265 169.354 30.3866H169.354Z" fill="white"/>
<path d="M187.747 66.5708C187.551 66.5238 187.354 66.4768 187.154 66.4326C184.51 65.8143 181.82 65.4124 179.11 65.2308C178.901 65.2134 178.689 65.199 178.479 65.1877C171.947 64.82 165.403 65.6711 159.181 67.6979C156.706 68.5066 154.296 69.503 151.971 70.6783C148.761 72.3017 145.409 74.3179 141.953 74.7701C141.593 74.8214 141.231 74.8502 140.867 74.8565L128.082 61.3716C128.068 61.3264 128.051 61.2838 128.037 61.2384L127.502 60.7234C127.618 60.6544 127.739 60.5853 127.855 60.5163C127.922 60.476 127.992 60.4387 128.059 60.3984C128.104 60.3725 128.15 60.3467 128.189 60.3207C128.204 60.312 128.22 60.3035 128.232 60.2977C128.271 60.2717 128.311 60.2517 128.347 60.2287C129.025 59.8406 129.707 59.4567 130.392 59.0769C130.395 59.074 130.395 59.074 130.401 59.074C135.632 56.1933 141.149 53.7249 146.864 52.1743C147.036 52.1278 147.211 52.0781 147.388 52.0377C149.968 51.3531 152.6 50.881 155.257 50.6261C156.712 50.4913 158.173 50.4303 159.634 50.4435C163.41 50.485 167.155 51.1215 170.734 52.3297C177.867 54.7393 184.152 59.4089 187.496 66.0601C187.582 66.2303 187.665 66.3977 187.747 66.5708Z" fill="#F0F0F0"/>
<path d="M187.548 66.7032C179.85 61.2557 170.637 58.3778 161.215 58.4783C159.186 58.4638 157.168 58.7699 155.234 59.3854C153.37 60.046 151.717 61.1949 150.445 62.7129C149.231 64.1043 148.15 65.6684 146.62 66.7399C145.829 67.2766 144.933 67.6397 143.992 67.8052C143.051 67.9707 142.086 67.9349 141.159 67.7001C138.836 67.1754 136.839 65.8451 134.931 64.4762C132.813 62.9563 130.637 61.344 128.008 60.8961C127.69 60.8418 127.792 60.3495 128.111 60.4037C132.685 61.183 135.691 65.2027 139.913 66.8001C141.883 67.5454 144.089 67.7001 145.951 66.5762C147.579 65.5934 148.695 63.9814 149.912 62.5619C151.131 61.0629 152.697 59.8858 154.474 59.1335C156.37 58.4213 158.373 58.0377 160.398 57.9992C164.954 57.8396 169.507 58.3991 173.89 59.6571C178.9 61.0652 183.633 63.3219 187.884 66.3297C188.147 66.516 187.809 66.8883 187.548 66.7032L187.548 66.7032Z" fill="white"/>
<path d="M164.247 58.2669C164.445 56.6801 165.199 55.2154 166.374 54.1345C167.55 53.0535 169.071 52.4267 170.665 52.3658C170.988 52.3546 171.02 52.8566 170.697 52.8678C169.212 52.9217 167.796 53.5058 166.703 54.5146C165.61 55.5234 164.913 56.8906 164.738 58.3693C164.7 58.6906 164.209 58.5864 164.247 58.2669H164.247Z" fill="white"/>
<path d="M150.968 61.9261C152.947 64.5242 155.831 66.2791 159.043 66.8409C159.362 66.8963 159.259 67.3886 158.941 67.3332C155.599 66.7424 152.602 64.91 150.548 62.2018C150.353 61.9436 150.773 61.6692 150.968 61.9261V61.9261Z" fill="white"/>
<path d="M178.481 61.5828C178.276 62.1808 178.224 62.8202 178.327 63.4437C178.43 64.0672 178.686 64.6553 179.072 65.155C179.271 65.4106 178.85 65.6847 178.653 65.4307C178.229 64.8766 177.947 64.2269 177.831 63.5383C177.715 62.8497 177.77 62.1431 177.989 61.4804C178.005 61.4162 178.044 61.3603 178.099 61.3241C178.154 61.2879 178.221 61.2741 178.286 61.2854C178.351 61.2993 178.408 61.3383 178.444 61.394C178.481 61.4497 178.494 61.5176 178.481 61.5828V61.5828Z" fill="white"/>
<path d="M145.201 42.9539H144.21V15.7468C144.21 13.6789 143.804 11.6312 143.014 9.72074C142.225 7.81025 141.067 6.07435 139.609 4.61212C138.15 3.1499 136.418 1.99001 134.512 1.19866C132.606 0.407306 130.564 1.11481e-06 128.501 0H70.9955C68.9325 -4.45906e-06 66.8897 0.407292 64.9838 1.19864C63.0778 1.98998 61.3461 3.14987 59.8873 4.61209C58.4286 6.07431 57.2714 7.81022 56.4819 9.7207C55.6925 11.6312 55.2861 13.6788 55.2861 15.7467V165.007C55.2861 169.184 56.9412 173.189 59.8873 176.142C62.8333 179.095 66.8291 180.754 70.9954 180.754H128.5C132.667 180.754 136.663 179.095 139.609 176.142C142.555 173.189 144.21 169.184 144.21 165.007V62.3204H145.201V42.9539Z" fill="#3F3D56"/>
<path d="M129.134 4.09675H121.628C121.973 4.94508 122.105 5.86547 122.012 6.77687C121.918 7.68826 121.603 8.56268 121.093 9.32309C120.583 10.0835 119.895 10.7066 119.088 11.1374C118.282 11.5682 117.382 11.7936 116.468 11.7937H83.5237C82.6097 11.7936 81.7098 11.5682 80.9031 11.1374C80.0965 10.7066 79.4079 10.0835 78.8981 9.3231C78.3883 8.56269 78.0729 7.68827 77.9796 6.77687C77.8863 5.86547 78.0181 4.94507 78.3633 4.09674H71.3524C68.241 4.09674 65.257 5.33569 63.0569 7.54102C60.8568 9.74635 59.6208 12.7374 59.6208 15.8562V164.898C59.6208 166.442 59.9243 167.971 60.5138 169.398C61.1034 170.825 61.9675 172.121 63.0569 173.213C64.1463 174.305 65.4396 175.171 66.8629 175.762C68.2862 176.353 69.8118 176.657 71.3524 176.657H129.134C130.675 176.657 132.2 176.353 133.624 175.762C135.047 175.171 136.34 174.305 137.43 173.213C138.519 172.121 139.383 170.825 139.973 169.398C140.562 167.971 140.866 166.442 140.866 164.898V15.8562C140.866 12.7374 139.63 9.74634 137.43 7.54102C135.23 5.33569 132.246 4.09675 129.134 4.09675Z" fill="white"/>
<path d="M101.354 128.779C97.0987 128.783 92.8847 127.946 88.9528 126.316C85.0209 124.686 81.4484 122.294 78.4397 119.278C75.4309 116.262 73.0451 112.681 71.4186 108.74C69.7921 104.799 68.9569 100.575 68.9609 96.3096C68.9549 90.3205 70.6038 84.4468 73.7249 79.3398C76.846 74.2328 81.3173 70.0921 86.6428 67.377C90.5032 65.4083 94.7176 64.2339 99.0377 63.9231C103.358 63.6123 107.696 64.1714 111.798 65.5673C119.061 68.0484 125.21 73.0332 129.149 79.634C133.089 86.2348 134.563 94.023 133.309 101.611C132.055 109.2 128.155 116.096 122.303 121.071C116.451 126.046 109.027 128.778 101.354 128.779L101.354 128.779ZM101.354 65.113C96.4395 65.0985 91.5933 66.2636 87.2204 68.511C83.398 70.4631 80.0195 73.1861 77.2969 76.5092C74.5744 79.8323 72.5666 83.6837 71.3995 87.8216C70.2325 91.9595 69.9315 96.2946 70.5153 100.555C71.0992 104.815 72.5553 108.908 74.7923 112.577C77.0293 116.246 79.9989 119.412 83.5146 121.876C87.0303 124.34 91.0162 126.049 95.2221 126.896C99.428 127.742 103.763 127.708 107.955 126.795C112.147 125.882 116.106 124.111 119.583 121.592C121.263 120.376 122.818 118.994 124.222 117.465C128.329 113.011 131.051 107.453 132.055 101.472C133.058 95.491 132.301 89.3462 129.874 83.7903C127.447 78.2343 123.456 73.5083 118.391 70.191C113.325 66.8736 107.404 65.109 101.354 65.113Z" fill="#F0F0F0"/>
<path d="M31.1634 67.4936C32.0525 67.6053 32.9064 67.9111 33.6649 68.3894C34.4233 68.8678 35.068 69.507 35.5533 70.262C36.0387 71.0171 36.353 71.8697 36.4741 72.7597C36.5952 73.6496 36.5202 74.5554 36.2543 75.4132L47.0168 84.3994L43.164 92.2872L28.1431 79.383C26.7351 78.8397 25.5749 77.7976 24.8822 76.4541C24.1896 75.1106 24.0126 73.5591 24.3849 72.0936C24.7572 70.628 25.6528 69.3503 26.9021 68.5025C28.1515 67.6547 29.6676 67.2957 31.1634 67.4935L31.1634 67.4936Z" fill="#FFB6B6"/>
<path d="M131.68 104.968C131.464 102.642 130.572 98.4613 129.815 96.9154C127.487 90.8085 112.447 85.7894 110.428 85.1424L109.916 79.4337L89.019 77.1799L86.3682 84.4803L78.8736 87.2986C78.3647 87.4888 77.9042 87.7895 77.5249 88.1792C77.1457 88.5688 76.8572 89.0378 76.6801 89.5524L69.956 91.5006L63.3208 93.4233L40.2691 77.1417L39.1807 77.8547L31.9062 82.6127L30.784 83.347L60.615 110.325L71.6963 107.719L80.0295 105.753L80.7408 108.648L78.899 118.818C84.2352 124.169 91.2988 127.439 98.8227 128.042C106.347 128.644 113.839 126.541 119.955 122.107L124.689 117.897C127.988 114.321 130.424 110.032 131.807 105.363L131.68 104.968Z" fill="#E4E4E4"/>
<path d="M106.033 72.511C113.921 69.893 118.199 61.3607 115.587 53.4536C112.975 45.5464 104.463 41.2587 96.5749 43.8767C88.6865 46.4946 84.409 55.027 87.0207 62.9341C89.6325 70.8413 98.1445 75.129 106.033 72.511Z" fill="#FFB6B6"/>
<path d="M89.4196 41.0006C90.8823 38.9068 93.0774 37.4412 95.5686 36.8951C98.0317 36.3873 100.595 36.8586 102.718 38.2096C105.027 37.2775 107.516 36.659 109.961 36.9734C112.407 37.2878 114.804 38.6571 115.935 40.9128C116.173 41.4972 116.462 42.0594 116.798 42.5931C117.795 43.9263 119.648 44.0992 121.284 44.1633C120.457 44.6469 119.63 45.1305 118.802 45.614C119.627 45.9992 120.451 46.3843 121.276 46.7695C120.154 47.1989 119.031 47.6284 117.909 48.0578C120.521 50.3593 121.153 54.4551 120.164 57.8891C119.228 61.1403 117.081 63.8771 114.684 66.2202C114.216 64.4719 114.73 62.5764 115.073 60.7663C115.435 58.8537 115.493 56.6174 114.157 55.2671C113.256 54.3562 111.934 54.081 110.687 53.86C104.4 52.7454 98.0538 51.9901 91.6806 51.5979C90.8276 51.4798 89.9588 51.5687 89.1473 51.8572C87.5963 52.548 86.9732 54.4452 86.5237 56.1275C86.3085 53.1747 86.4804 50.2063 87.0353 47.2984C87.4605 45.0727 88.1302 42.8451 89.4196 41.0006Z" fill="#2F2E41"/>
<path d="M108.975 144.077H91.1912C90.5736 144.077 89.9812 143.832 89.5444 143.394C89.1077 142.956 88.8623 142.362 88.8623 141.743C88.8623 141.124 89.1077 140.53 89.5444 140.092C89.9812 139.655 90.5736 139.409 91.1912 139.409H108.975C109.593 139.409 110.185 139.655 110.622 140.092C111.059 140.53 111.304 141.124 111.304 141.743C111.304 142.362 111.059 142.956 110.622 143.394C110.185 143.832 109.593 144.077 108.975 144.077Z" fill="#03D263"/>
<path d="M50.6184 19.1531H1.70129C1.25052 19.1524 0.818446 18.9724 0.499954 18.6526C0.181462 18.3329 0.00257874 17.8995 0.00257874 17.4476C0.00257874 16.9958 0.181462 16.5624 0.499954 16.2427C0.818446 15.9229 1.25052 15.7429 1.70129 15.7422H50.6184C51.0697 15.7422 51.5024 15.9219 51.8215 16.2417C52.1405 16.5615 52.3198 16.9953 52.3198 17.4476C52.3198 17.8999 52.1405 18.3337 51.8215 18.6536C51.5024 18.9734 51.0697 19.1531 50.6184 19.1531Z" fill="#03D263"/>
<path d="M78.8616 30.0456H1.70128C1.25008 30.0456 0.817346 29.866 0.498293 29.5461C0.17924 29.2263 0 28.7926 0 28.3403C0 27.888 0.17924 27.4542 0.498293 27.1344C0.817346 26.8146 1.25008 26.6349 1.70128 26.6349H78.8616C79.3128 26.6349 79.7455 26.8146 80.0646 27.1344C80.3836 27.4542 80.5629 27.888 80.5629 28.3403C80.5629 28.7926 80.3836 29.2263 80.0646 29.5461C79.7455 29.866 79.3128 30.0456 78.8616 30.0456Z" fill="#03D263"/>
<path d="M64.0338 40.3075H1.7013C1.25009 40.3075 0.817361 40.1279 0.498308 39.808C0.179255 39.4882 1.52588e-05 39.0545 1.52588e-05 38.6022C1.52588e-05 38.1499 0.179255 37.7161 0.498308 37.3963C0.817361 37.0765 1.25009 36.8969 1.7013 36.8969H64.0338C64.485 36.8969 64.9177 37.0765 65.2368 37.3963C65.5559 37.7161 65.7351 38.1499 65.7351 38.6022C65.7351 39.0545 65.5559 39.4882 65.2368 39.808C64.9177 40.1279 64.485 40.3075 64.0338 40.3075Z" fill="#CACACA"/>
<path d="M36.8502 50.5316H1.7013C1.25009 50.5316 0.817361 50.352 0.498308 50.0322C0.179255 49.7124 1.52588e-05 49.2786 1.52588e-05 48.8263C1.52588e-05 48.374 0.179255 47.9403 0.498308 47.6205C0.817361 47.3006 1.25009 47.121 1.7013 47.121H36.8502C37.3014 47.121 37.7341 47.3006 38.0532 47.6205C38.3722 47.9403 38.5514 48.374 38.5514 48.8263C38.5514 49.2786 38.3722 49.7124 38.0532 50.0322C37.7341 50.352 37.3014 50.5316 36.8502 50.5316Z" fill="#CACACA"/>
<path d="M56.2672 60.755H1.70127C1.25053 60.7543 0.8185 60.5743 0.500027 60.2545C0.181554 59.9348 0.00267792 59.5015 0.00267792 59.0496C0.00267792 58.5978 0.181554 58.1645 0.500027 57.8447C0.8185 57.525 1.25053 57.345 1.70127 57.3443H56.2672C56.7179 57.345 57.1499 57.525 57.4684 57.8447C57.7869 58.1645 57.9658 58.5978 57.9658 59.0496C57.9658 59.5015 57.7869 59.9348 57.4684 60.2545C57.1499 60.5743 56.7179 60.7543 56.2672 60.755Z" fill="#CACACA"/>
<path d="M210.049 227.598L205.665 227.598L203.579 210.646L210.05 210.647L210.049 227.598Z" fill="#9F616A"/>
<path d="M211.774 233.68L195.035 233.679V233.467C195.035 231.735 195.722 230.074 196.944 228.849C198.165 227.625 199.822 226.937 201.55 226.936H201.551L204.608 224.611L210.313 226.937L211.774 226.937L211.774 233.68Z" fill="#2F2E41"/>
<path d="M207.494 147.93L205.561 124.297L204.042 115.427L212.547 113.544L215.369 125.688L212.91 148.586C213.406 149.195 213.709 149.939 213.78 150.722C213.851 151.505 213.687 152.292 213.308 152.98C212.93 153.669 212.355 154.229 211.657 154.588C210.958 154.946 210.169 155.088 209.39 154.993C208.612 154.899 207.879 154.573 207.286 154.058C206.693 153.543 206.267 152.862 206.064 152.103C205.86 151.344 205.887 150.541 206.142 149.797C206.397 149.053 206.868 148.403 207.494 147.93H207.494Z" fill="#9F616A"/>
<path d="M186.76 227.598L182.376 227.598L180.29 210.646L186.761 210.647L186.76 227.598Z" fill="#9F616A"/>
<path d="M179.743 153.287L177.8 156.657C177.8 156.657 175.664 157.242 176.362 164.22C177.06 171.199 177.09 212.543 180.469 217.631L181.08 221.999L187.46 222.61L187.621 218.734L195.228 164.879C195.228 164.879 199.708 217.747 203.414 219.041L204.753 223.446L210.6 223.448L210.255 218.258L210.632 152.741L179.743 153.287Z" fill="#2F2E41"/>
<path d="M177.607 156.4L177.472 156.366C181.484 141.325 180.327 121.849 177.494 100.935L177.494 100.848L187.734 91.4465H196.626L205.441 97.1488C211.14 100.005 212.435 106.053 212.448 106.114L212.457 106.157L208.965 118.374L211.595 153.706L211.598 153.747L211.583 153.786C210.732 155.949 208.451 155.641 205.809 155.284C203.172 154.928 193.455 158.187 190.476 158.187C184.653 158.187 178.023 156.507 177.607 156.4Z" fill="#E4E4E4"/>
<path d="M203.596 101.911L207.415 100.245L212.448 106.43L216.528 126.251L202.555 124.129L203.596 101.911Z" fill="#E4E4E4"/>
<path d="M144.84 138.46L162.303 122.465L168.372 115.832L175.062 121.422L167.208 131.091L147.637 143.155C147.46 143.921 147.058 144.616 146.483 145.152C145.909 145.687 145.188 146.038 144.413 146.16C143.638 146.281 142.844 146.168 142.134 145.834C141.424 145.5 140.829 144.961 140.427 144.286C140.025 143.611 139.833 142.83 139.877 142.045C139.92 141.26 140.197 140.506 140.672 139.88C141.146 139.253 141.796 138.784 142.539 138.531C143.282 138.278 144.083 138.253 144.84 138.46L144.84 138.46Z" fill="#9F616A"/>
<path d="M161.923 122.639L166.759 116.343C166.799 116.253 170.812 107.264 174.29 103.359C177.858 99.3522 180.667 101.401 180.695 101.423L180.765 101.476L180.959 116.271L167.567 132.311L161.923 122.639Z" fill="#E4E4E4"/>
<path d="M199.345 82.5908C200.066 78.1365 197.048 73.9395 192.604 73.2167C188.16 72.4938 183.973 75.5188 183.252 79.9732C182.531 84.4275 185.549 88.6245 189.993 89.3473C194.436 90.0702 198.623 87.0452 199.345 82.5908Z" fill="#9F616A"/>
<path d="M183.846 80.0691C183.846 80.0691 183.781 77.1966 183.419 75.9256C183.056 74.6545 182.332 73.5651 182.694 73.5651C183.056 73.5651 183.237 72.6572 183.237 72.6572C183.237 72.6572 183.6 72.4756 183.781 72.6572C183.962 72.8388 184.143 71.3862 184.143 71.3862C184.143 71.3862 184.324 70.8415 184.505 71.2046C184.687 71.5678 184.687 71.3862 184.868 70.8415C185.049 70.2967 185.955 69.9336 185.955 69.9336C185.955 69.9336 189.396 70.1152 189.94 69.3889C190.483 68.6626 196.642 69.2073 197.91 70.1152C199.178 71.023 204.794 74.2914 203.888 77.015C202.982 79.7386 200.375 86.0097 199.721 86.6384C198.688 87.6327 197.973 87.9911 193.085 88.9662C192.128 89.157 187.244 86.0265 187.244 85.4818C187.244 84.9371 187.833 83.2096 186.887 82.9725C185.456 82.614 185.295 84.4268 184.933 83.8821C184.571 83.3374 183.846 80.0691 183.846 80.0691Z" fill="#2F2E41"/>
<path d="M188.485 233.68L171.746 233.679V233.467C171.746 231.735 172.433 230.074 173.655 228.849C174.877 227.625 176.534 226.937 178.261 226.936H178.262L181.319 224.611L187.024 226.937L188.485 226.937L188.485 233.68Z" fill="#2F2E41"/>
<path d="M275.496 234H1.40919C1.27548 234 1.14725 233.947 1.0527 233.852C0.958145 233.757 0.905022 233.629 0.905022 233.495C0.905022 233.361 0.958145 233.232 1.0527 233.137C1.14725 233.042 1.27548 232.989 1.40919 232.989H275.496C275.63 232.989 275.758 233.042 275.852 233.137C275.947 233.232 276 233.361 276 233.495C276 233.629 275.947 233.757 275.852 233.852C275.758 233.947 275.63 234 275.496 234Z" fill="#CACACA"/>
</g>
<defs>
<clipPath id="clip0_2392_108043">
<rect width="276" height="234" fill="white"/>
</clipPath>
</defs>
</svg>
