<svg width="20" height="32" viewBox="0 0 20 32" fill="none" xmlns="http://www.w3.org/2000/svg">
<path d="M19.9352 23.9132V3.88061C19.934 2.85178 19.5475 1.86545 18.8604 1.13796C18.1734 0.410469 17.2418 0.00122626 16.2702 0H3.6653C2.69363 0.00122626 1.76209 0.410469 1.07502 1.13796C0.387945 1.86545 0.00143845 2.85178 0.000280317 3.88061V23.9132C0.000266362 24.071 0.0296253 24.2274 0.0866806 24.3732C0.143736 24.5191 0.22737 24.6516 0.332806 24.7633C0.438242 24.8749 0.563416 24.9635 0.701177 25.0239C0.838939 25.0843 0.986591 25.1154 1.1357 25.1154H2.91515L0.161687 29.9744C0.00678921 30.248 -0.0391451 30.5754 0.0339886 30.8848C0.107122 31.1942 0.293334 31.4601 0.551658 31.6242C0.809982 31.7882 1.11926 31.8368 1.41145 31.7594C1.70364 31.6819 1.95482 31.4848 2.10971 31.2112L5.56403 25.1154H14.3714L17.8257 31.2112C17.9024 31.3467 18.0036 31.4648 18.1234 31.5588C18.2432 31.6529 18.3793 31.721 18.524 31.7594C18.6687 31.7977 18.8191 31.8055 18.9666 31.7823C19.1141 31.7591 19.2559 31.7054 19.3838 31.6242C19.5117 31.5429 19.6233 31.4359 19.7121 31.309C19.8009 31.1821 19.8653 31.038 19.9015 30.8848C19.9377 30.7316 19.945 30.5724 19.9231 30.4162C19.9012 30.26 19.8505 30.1099 19.7738 29.9744L17.0203 25.1154H18.7998C18.9489 25.1154 19.0965 25.0843 19.2343 25.0239C19.372 24.9635 19.4972 24.8749 19.6027 24.7633C19.7081 24.6516 19.7917 24.5191 19.8488 24.3732C19.9058 24.2274 19.9352 24.071 19.9352 23.9132ZM4.92109 21.9092C4.54677 21.9092 4.18086 21.7917 3.86963 21.5715C3.5584 21.3513 3.31582 21.0384 3.17257 20.6722C3.02933 20.306 2.99185 19.9031 3.06488 19.5144C3.1379 19.1257 3.31815 18.7686 3.58283 18.4884C3.84752 18.2081 4.18474 18.0173 4.55187 17.9399C4.91899 17.8626 5.29952 17.9023 5.64535 18.054C5.99117 18.2056 6.28675 18.4625 6.49471 18.792C6.70267 19.1216 6.81367 19.509 6.81367 19.9053C6.81367 20.1685 6.76473 20.4291 6.66962 20.6722C6.57451 20.9153 6.4351 21.1362 6.25936 21.3223C6.08362 21.5084 5.87498 21.656 5.64535 21.7567C5.41573 21.8574 5.16963 21.9093 4.92109 21.9092ZM15.0148 21.9092C14.6405 21.9092 14.2746 21.7917 13.9634 21.5715C13.6521 21.3513 13.4096 21.0384 13.2663 20.6722C13.1231 20.306 13.0856 19.9031 13.1586 19.5144C13.2317 19.1257 13.4119 18.7686 13.6766 18.4884C13.9413 18.2081 14.2785 18.0173 14.6456 17.9399C15.0127 17.8626 15.3933 17.9023 15.7391 18.054C16.0849 18.2056 16.3805 18.4625 16.5885 18.792C16.7964 19.1216 16.9074 19.509 16.9074 19.9053C16.9074 20.1685 16.8585 20.4291 16.7634 20.6722C16.6683 20.9153 16.5289 21.1362 16.3531 21.3223C16.1774 21.5084 15.9687 21.656 15.7391 21.7567C15.5095 21.8574 15.2634 21.9093 15.0148 21.9092ZM17.6643 14.6953H2.27112V6.41223H17.6643V14.6953Z" fill="url(#paint0_linear_238_16629)"/>
<defs>
<linearGradient id="paint0_linear_238_16629" x1="-1.48531e-07" y1="31.7954" x2="18.5172" y2="32.6009" gradientUnits="userSpaceOnUse">
<stop stop-color="#1DD13B"/>
<stop offset="1" stop-color="#27C6E5"/>
</linearGradient>
</defs>
</svg>
