<svg width="43" height="42" viewBox="0 0 43 42" fill="none" xmlns="http://www.w3.org/2000/svg">
<path fill-rule="evenodd" clip-rule="evenodd" d="M10.6184 14.0002V12.8335C10.6184 12.1898 11.1473 11.6668 11.7982 11.6668H31.855C32.5066 11.6668 33.0348 11.1445 33.0348 10.5002C33.0348 9.85583 32.5066 9.3335 31.855 9.3335H11.7982C9.84412 9.3335 8.25879 10.9012 8.25879 12.8335V29.1668C8.25879 31.0992 9.84412 32.6668 11.7982 32.6668H31.855C33.8091 32.6668 35.3945 31.0992 35.3945 29.1668V17.5002C35.3945 15.5678 33.8091 14.0002 31.855 14.0002H10.6184ZM10.6184 16.3335H31.855C32.506 16.3335 33.0348 16.8565 33.0348 17.5002V29.1668C33.0348 29.8105 32.506 30.3335 31.855 30.3335H11.7982C11.1473 30.3335 10.6184 29.8105 10.6184 29.1668V16.3335ZM30.6251 23.3586C30.6251 23.9897 30.1083 24.5007 29.47 24.5007C28.8318 24.5007 28.315 23.9897 28.315 23.3586C28.315 22.7274 28.8318 22.2164 29.47 22.2164C30.1083 22.2164 30.6251 22.7274 30.6251 23.3586Z" fill="url(#paint0_linear_238_16078)"/>
<defs>
<linearGradient id="paint0_linear_238_16078" x1="8.25879" y1="32.6668" x2="33.3483" y2="34.6913" gradientUnits="userSpaceOnUse">
<stop stop-color="#1DD13B"/>
<stop offset="1" stop-color="#27C6E5"/>
</linearGradient>
</defs>
</svg>
