<svg width="101" height="97" viewBox="0 0 101 97" fill="none" xmlns="http://www.w3.org/2000/svg">
<path d="M45.8127 68.4544C45.8127 69.6498 46.3065 70.7962 47.1856 71.6415C48.0647 72.4867 49.257 72.9616 50.5002 72.9616C51.7434 72.9616 52.9356 72.4867 53.8147 71.6415C54.6938 70.7962 55.1877 69.6498 55.1877 68.4544C55.1877 67.259 54.6938 66.1126 53.8147 65.2673C52.9356 64.4221 51.7434 63.9472 50.5002 63.9472C49.257 63.9472 48.0647 64.4221 47.1856 65.2673C46.3065 66.1126 45.8127 67.259 45.8127 68.4544ZM47.3752 39.9087V57.1864C47.3752 57.5995 47.7267 57.9376 48.1564 57.9376H52.8439C53.2736 57.9376 53.6252 57.5995 53.6252 57.1864V39.9087C53.6252 39.4956 53.2736 39.1575 52.8439 39.1575H48.1564C47.7267 39.1575 47.3752 39.4956 47.3752 39.9087ZM93.8302 81.2248L53.2052 13.6167C52.5998 12.6119 51.5548 12.1143 50.5002 12.1143C49.4455 12.1143 48.3908 12.6119 47.7951 13.6167L7.17008 81.2248C5.96891 83.2343 7.47281 85.732 9.87516 85.732H91.1252C93.5275 85.732 95.0314 83.2343 93.8302 81.2248ZM17.3166 78.605L50.5002 23.3729L83.6838 78.605H17.3166Z" fill="url(#paint0_linear_694_86741)"/>
<defs>
<linearGradient id="paint0_linear_694_86741" x1="6.74768" y1="85.7321" x2="146.118" y2="123.89" gradientUnits="userSpaceOnUse">
<stop stop-color="#FF870D"/>
<stop offset="1" stop-color="#FF52C5"/>
</linearGradient>
</defs>
</svg>
