<svg width="30" height="34" viewBox="0 0 30 34" fill="none" xmlns="http://www.w3.org/2000/svg">
<g opacity="0.7">
<path d="M17.5763 15.0607C18.1621 14.4749 18.1621 13.5251 17.5763 12.9393L8.03034 3.3934C7.44456 2.80761 6.49481 2.80761 5.90902 3.3934C5.32324 3.97919 5.32324 4.92893 5.90902 5.51472L14.3943 14L5.90902 22.4853C5.32324 23.0711 5.32324 24.0208 5.90902 24.6066C6.49481 25.1924 7.44456 25.1924 8.03034 24.6066L17.5763 15.0607ZM13.5156 15.5H16.5156V12.5H13.5156V15.5Z" fill="url(#paint0_linear_1033_131350)"/>
<path d="M27.5763 15.0607C28.1621 14.4749 28.1621 13.5251 27.5763 12.9393L18.0303 3.3934C17.4446 2.80761 16.4948 2.80761 15.909 3.3934C15.3232 3.97919 15.3232 4.92893 15.909 5.51472L24.3943 14L15.909 22.4853C15.3232 23.0711 15.3232 24.0208 15.909 24.6066C16.4948 25.1924 17.4446 25.1924 18.0303 24.6066L27.5763 15.0607ZM23.5156 15.5H26.5156V12.5H23.5156V15.5Z" fill="url(#paint1_linear_1033_131350)"/>
</g>
<defs>
<linearGradient id="paint0_linear_1033_131350" x1="13.5156" y1="15" x2="16.1915" y2="15.557" gradientUnits="userSpaceOnUse">
<stop stop-color="#1DD13B"/>
<stop offset="1" stop-color="#27C6E5"/>
</linearGradient>
<linearGradient id="paint1_linear_1033_131350" x1="23.5156" y1="15" x2="26.1915" y2="15.557" gradientUnits="userSpaceOnUse">
<stop stop-color="#1DD13B"/>
<stop offset="1" stop-color="#27C6E5"/>
</linearGradient>
</defs>
</svg>
