<svg width="36" height="36" viewBox="0 0 36 36" fill="none" xmlns="http://www.w3.org/2000/svg">
<path fill-rule="evenodd" clip-rule="evenodd" d="M8 18C8 12.4772 12.4772 8 18 8C23.5228 8 28 12.4772 28 18C28 23.5228 23.5228 28 18 28C12.4772 28 8 23.5228 8 18ZM11.5363 23.5202C12.4118 22.2664 14.0808 21.3749 15.7499 21.3749H20.2499C21.919 21.3749 23.5881 22.2664 24.4636 23.5204C25.7333 22.0352 26.5 20.1071 26.5 18C26.5 13.3056 22.6944 9.5 18 9.5C13.3056 9.5 9.5 13.3056 9.5 18C9.5 20.107 10.2667 22.035 11.5363 23.5202ZM21 16V17C21 18.6667 19.6667 20 18 20C16.3333 20 15 18.3333 15 17V16C15 14.3333 16.3333 13 18 13C19.6667 13 21 14.3333 21 16Z" fill="url(#paint0_linear_1161_9695)"/>
<defs>
<linearGradient id="paint0_linear_1161_9695" x1="8" y1="28" x2="26.5231" y2="29.2852" gradientUnits="userSpaceOnUse">
<stop stop-color="#1DD13B"/>
<stop offset="1" stop-color="#27C6E5"/>
</linearGradient>
</defs>
</svg>
