<svg width="37" height="36" viewBox="0 0 37 36" fill="none" xmlns="http://www.w3.org/2000/svg">
<path fill-rule="evenodd" clip-rule="evenodd" d="M25.4621 6C26.1047 6 26.6257 6.46807 26.6257 7.04545V8.09091H30.1168C31.4019 8.09091 32.4442 9.02734 32.4442 10.1818V26.9091C32.4442 28.0636 31.4019 29 30.1168 29H6.84301C5.55796 29 4.51562 28.0636 4.51562 26.9091V10.1818C4.51562 9.02734 5.55796 8.09091 6.84301 8.09091H10.3341V7.04545C10.3341 6.50931 10.7833 6.06742 11.3621 6.00703L11.4978 6C12.1405 6 12.6615 6.46807 12.6615 7.04545V8.09091H24.2984V7.04545C24.2984 6.50931 24.7476 6.06742 25.3263 6.00703L25.4621 6ZM30.1168 16.4545H6.84301V26.9091H30.1168V16.4545ZM10.3341 10.1818H6.84301V14.3636H30.1168V10.1818H26.6257V11.2273C26.6257 11.7634 26.1765 12.2053 25.5978 12.2657L25.4621 12.2727C24.8194 12.2727 24.2984 11.8047 24.2984 11.2273V10.1818H12.6615V11.2273C12.6615 11.7634 12.2122 12.2053 11.6335 12.2657L11.4978 12.2727C10.8551 12.2727 10.3341 11.8047 10.3341 11.2273V10.1818Z" fill="url(#paint0_linear_1033_131357)"/>
<defs>
<linearGradient id="paint0_linear_1033_131357" x1="4.51562" y1="29" x2="30.3232" y2="31.1743" gradientUnits="userSpaceOnUse">
<stop stop-color="#1DD13B"/>
<stop offset="1" stop-color="#27C6E5"/>
</linearGradient>
</defs>
</svg>
