<svg width="36" height="34" viewBox="0 0 36 34" fill="none" xmlns="http://www.w3.org/2000/svg">
<path fill-rule="evenodd" clip-rule="evenodd" d="M10 11.169H9C7.34772 11.169 6 12.4195 6 13.9527V21.3761C6 22.9093 7.34772 24.1598 9 24.1598H11V27.8715C11 28.6583 11.9889 29.088 12.6402 28.5844L18.3621 24.1598H24C25.6523 24.1598 27 22.9093 27 21.3761V20.4142H28C29.6523 20.4142 31 19.1636 31 17.6304V10.2071C31 8.67391 29.6523 7.42334 28 7.42334H13C11.3477 7.42334 10 8.67391 10 10.2071V11.169ZM12 11.169H24C25.6523 11.169 27 12.4195 27 13.9527V18.5584H28C28.5477 18.5584 29 18.1387 29 17.6304V10.2071C29 9.69886 28.5477 9.27918 28 9.27918H13C12.4523 9.27918 12 9.69886 12 10.2071V11.169ZM13 25.8904L17.3598 22.5191C17.5395 22.3801 17.7661 22.304 18 22.304H24C24.5477 22.304 25 21.8843 25 21.3761V13.9527C25 13.4445 24.5477 13.0248 24 13.0248H9C8.45228 13.0248 8 13.4445 8 13.9527V21.3761C8 21.8843 8.45228 22.304 9 22.304H12C12.5523 22.304 13 22.7195 13 23.2319V25.8904Z" fill="white" fill-opacity="0.56"/>
</svg>
