<svg width="43" height="46" viewBox="0 0 43 46" fill="none" xmlns="http://www.w3.org/2000/svg">
<g opacity="0.7">
<path fill-rule="evenodd" clip-rule="evenodd" d="M23.5991 15.3332L28.6667 9.912L33.7343 15.3332L28.6667 20.7543L23.5991 15.3332ZM21.9099 17.1402C20.9769 16.1422 20.977 14.5241 21.9099 13.5261L26.9775 8.10495C27.9104 7.10694 29.4229 7.10694 30.3559 8.10495L35.4235 13.5261C36.3564 14.5241 36.3564 16.1422 35.4235 17.1402L30.3559 22.5614C29.4229 23.5594 27.9104 23.5594 26.9775 22.5614L21.9099 17.1402ZM10.75 11.4998H17.9166V19.1665H10.75V11.4998ZM8.36108 11.4998C8.36108 10.0884 9.43063 8.94426 10.75 8.94426H17.9166C19.236 8.94426 20.3055 10.0884 20.3055 11.4998V19.1665C20.3055 20.5779 19.236 21.722 17.9166 21.722H10.75C9.43063 21.722 8.36108 20.5779 8.36108 19.1665V11.4998ZM17.9166 26.8332H10.75V34.4998H17.9166V26.8332ZM10.75 24.2776C9.43063 24.2776 8.36108 25.4218 8.36108 26.8332V34.4998C8.36108 35.9112 9.43063 37.0554 10.75 37.0554H17.9166C19.236 37.0554 20.3055 35.9112 20.3055 34.4998V26.8332C20.3055 25.4218 19.236 24.2776 17.9166 24.2776H10.75ZM25.0833 26.8332H32.25V34.4998H25.0833V26.8332ZM22.6944 26.8332C22.6944 25.4218 23.764 24.2776 25.0833 24.2776H32.25C33.5693 24.2776 34.6389 25.4218 34.6389 26.8332V34.4998C34.6389 35.9112 33.5693 37.0554 32.25 37.0554H25.0833C23.764 37.0554 22.6944 35.9112 22.6944 34.4998V26.8332Z" fill="url(#paint0_linear_1072_135938)"/>
</g>
<defs>
<linearGradient id="paint0_linear_1072_135938" x1="8.36108" y1="37.0554" x2="34.0887" y2="38.724" gradientUnits="userSpaceOnUse">
<stop stop-color="#1DD13B"/>
<stop offset="1" stop-color="#27C6E5"/>
</linearGradient>
</defs>
</svg>
