<svg width="36" height="34" viewBox="0 0 36 34" fill="none" xmlns="http://www.w3.org/2000/svg">
<path fill-rule="evenodd" clip-rule="evenodd" d="M18 7.42334C23.1136 7.42334 27.7945 10.3838 30.8656 15.31C31.0448 15.5974 31.0448 15.9518 30.8656 16.2393C27.7945 21.1654 23.1136 24.1259 18 24.1259C12.8868 24.1259 8.20689 21.1659 5.13448 16.2394C4.95517 15.9519 4.95517 15.5974 5.13448 15.3098C8.20689 10.3834 12.8868 7.42334 18 7.42334ZM28.6283 15.4698C25.9089 11.549 22.0759 9.27918 18 9.27918C13.82 9.27918 9.89587 11.6665 7.16481 15.7746C9.89587 19.8827 13.82 22.27 18 22.27C22.0759 22.27 25.9089 20.0002 28.6283 16.0795L28.8353 15.7746L28.6283 15.4698ZM18 11.135C20.7613 11.135 23 13.2124 23 15.7746C23 18.3369 20.7613 20.4142 18 20.4142C15.2387 20.4142 13 18.3369 13 15.7746C13 13.2124 15.2387 11.135 18 11.135ZM18 12.9909C16.3433 12.9909 15 14.2373 15 15.7746C15 17.3119 16.3433 18.5584 18 18.5584C19.6567 18.5584 21 17.3119 21 15.7746C21 14.2373 19.6567 12.9909 18 12.9909Z" fill="white" fill-opacity="0.28"/>
</svg>
