<svg width="24" height="24" viewBox="0 0 24 24" fill="none" xmlns="http://www.w3.org/2000/svg">
<path fill-rule="evenodd" clip-rule="evenodd" d="M16 3.5H15.4999C15.4999 4.05228 15.0522 4.5 14.4999 4.5H10.4999C9.94759 4.5 9.49988 4.05228 9.49988 3.5H9C8.17157 3.5 7.5 4.17157 7.5 5V19C7.5 19.8284 8.17157 20.5 9 20.5H16C16.8284 20.5 17.5 19.8284 17.5 19V5C17.5 4.17157 16.8284 3.5 16 3.5ZM9 2C7.34315 2 6 3.34315 6 5V19C6 20.6569 7.34315 22 9 22H16C17.6569 22 19 20.6569 19 19V5C19 3.34315 17.6569 2 16 2H9ZM11 18.25C10.5858 18.25 10.25 18.5858 10.25 19C10.25 19.4142 10.5858 19.75 11 19.75H14C14.4142 19.75 14.75 19.4142 14.75 19C14.75 18.5858 14.4142 18.25 14 18.25H11Z" fill="white" fill-opacity="0.96"/>
</svg>
