<svg width="40" height="40" viewBox="0 0 40 40" fill="none" xmlns="http://www.w3.org/2000/svg">
<g opacity="0.7">
<path fill-rule="evenodd" clip-rule="evenodd" d="M21.1112 6.66699C20.4975 6.66699 20.0001 7.16445 20.0001 7.7781V18.8892C20.0001 19.5029 20.4975 20.0003 21.1112 20.0003H32.2223C32.8359 20.0003 33.3334 19.5029 33.3334 18.8892C33.3334 12.1389 27.8615 6.66699 21.1112 6.66699ZM16.3641 7.16883C16.9546 7.0018 17.5686 7.34508 17.7357 7.93556C17.9027 8.52604 17.5594 9.14013 16.9689 9.30715C12.2257 10.6489 8.88873 14.9966 8.88873 20.0002C8.88873 26.1366 13.8635 31.1113 19.9998 31.1113C25.0104 31.1113 29.3624 27.7655 30.698 23.014C30.864 22.4232 31.4775 22.0789 32.0683 22.245C32.659 22.4111 33.0033 23.0246 32.8373 23.6153C31.234 29.3193 26.0125 33.3335 19.9998 33.3335C12.6362 33.3335 6.6665 27.3639 6.6665 20.0002C6.6665 13.9958 10.6701 8.77948 16.3641 7.16883ZM22.2223 8.95033V17.7781H31.0489L31.0047 17.4249C30.3519 12.9752 26.7685 9.4781 22.2774 8.95649L22.2223 8.95033Z" fill="url(#paint0_linear_1072_135936)"/>
</g>
<defs>
<linearGradient id="paint0_linear_1072_135936" x1="6.6665" y1="33.3335" x2="31.3642" y2="35.0472" gradientUnits="userSpaceOnUse">
<stop stop-color="#1DD13B"/>
<stop offset="1" stop-color="#27C6E5"/>
</linearGradient>
</defs>
</svg>
