<svg width="17" height="15" viewBox="0 0 17 15" fill="none" xmlns="http://www.w3.org/2000/svg">
<g opacity="0.5">
<path d="M1.3374 8.4375V7.1875C1.3374 5.4375 2.80837 4.0625 4.68051 4.0625H12.3697L10.8318 2.625C10.5644 2.375 10.5644 2 10.8318 1.75C11.0993 1.5 11.5005 1.5 11.7679 1.75L14.4424 4.25C14.4758 4.28125 14.4925 4.3125 14.5093 4.34375C14.526 4.375 14.5427 4.40625 14.5761 4.4375C14.643 4.625 14.643 4.8125 14.5761 4.9375C14.5761 5 14.5093 5.0625 14.4424 5.125L11.7679 7.625C11.6342 7.75 11.5005 7.8125 11.2999 7.8125C11.0993 7.8125 10.9656 7.75 10.8318 7.625C10.5644 7.375 10.5644 7 10.8318 6.75L12.3697 5.3125H4.68051C3.5727 5.3125 2.67465 6.15197 2.67465 7.1875V8.4375C2.67465 9.47303 3.5727 10.3125 4.68051 10.3125H8.35793C8.7272 10.3125 9.02655 10.5923 9.02655 10.9375C9.02655 11.2827 8.7272 11.5625 8.35793 11.5625H4.68051C2.83416 11.5625 1.3374 10.1634 1.3374 8.4375Z" fill="white" fill-opacity="0.96"/>
</g>
</svg>
