<svg width="16" height="15" viewBox="0 0 16 15" fill="none" xmlns="http://www.w3.org/2000/svg">
<g clip-path="url(#clip0_576_713)">
<path d="M13.7411 3.42404C14.0781 3.83083 14.366 4.2751 14.5959 4.74939L8.09682 9.22619L5.38184 7.63523V5.72134L8.09682 7.3123L13.7411 3.42404Z" fill="#8c8c8c"/>
<path d="M2.61214 7.50024C2.61214 7.41421 2.6145 7.32906 2.61922 7.24392L0.973812 7.16714C0.968148 7.27744 0.964844 7.38861 0.964844 7.50024C0.964844 9.34133 1.763 11.0082 3.05394 12.2144L4.22074 11.1238C3.22717 10.1955 2.61214 8.91384 2.61214 7.50024Z" fill="#8c8c8c"/>
<path d="M8.09686 2.37355C8.18889 2.37355 8.27998 2.37664 8.37108 2.38061L8.45321 0.841726C8.33522 0.836432 8.21628 0.833344 8.09686 0.833344C6.12716 0.833344 4.34393 1.5794 3.05347 2.78607L4.22025 3.87671C5.21338 2.94843 6.58454 2.37355 8.09686 2.37355Z" fill="#8c8c8c"/>
<path d="M8.09683 12.6269C8.0048 12.6269 7.91371 12.6247 7.82261 12.6203L7.74048 14.1583C7.85847 14.1636 7.97741 14.1667 8.09683 14.1667C10.0665 14.1667 11.8498 13.4206 13.1402 12.2139L11.9734 11.1233C10.9803 12.052 9.60916 12.6269 8.09683 12.6269Z" fill="#8c8c8c"/>
<path d="M11.1889 3.2683L12.5761 2.31267C11.3518 1.38792 9.79368 0.833344 8.0968 0.833344V2.37355C9.24284 2.37355 10.3082 2.70401 11.1889 3.2683Z" fill="#8c8c8c"/>
<path d="M15.2294 7.50023C15.2294 7.09258 15.1902 6.69327 15.1152 6.30591L13.5797 7.36346C13.5812 7.4089 13.5816 7.45434 13.5816 7.50023C13.5816 9.00559 12.884 10.3614 11.7748 11.3002L12.8816 12.4438C14.3236 11.2243 15.2294 9.4609 15.2294 7.50023Z" fill="#8c8c8c"/>
<path d="M8.0968 12.6269C6.48631 12.6269 5.03584 11.9748 4.03142 10.938L2.80798 11.9726C4.11307 13.32 5.99921 14.1667 8.0968 14.1667V12.6269Z" fill="#8c8c8c"/>
<path d="M4.41899 3.70024L3.31213 2.55666C1.87062 3.77656 0.964844 5.53957 0.964844 7.50024H2.61262C2.61214 5.99488 3.30977 4.63909 4.41899 3.70024Z" fill="#8c8c8c"/>
</g>
<defs>
<clipPath id="clip0_576_713">
<rect width="14.2645" height="13.3333" fill="#8c8c8c" transform="translate(0.964844 0.833328)"/>
</clipPath>
</defs>
</svg>
