<svg width="36" height="34" viewBox="0 0 36 34" fill="none" xmlns="http://www.w3.org/2000/svg">
<path fill-rule="evenodd" clip-rule="evenodd" d="M16.2929 6.76723C16.9229 6.18268 18 6.59668 18 7.42337V25.9818C18 26.8084 16.9229 27.2224 16.2929 26.6379L10.5858 21.3422H7C5.34372 21.3422 4 20.0953 4 18.5584V14.8467C4 13.3098 5.34372 12.063 7 12.063H10.5858L16.2929 6.76723ZM11.7071 13.647C11.5196 13.821 11.2652 13.9188 11 13.9188H7C6.44828 13.9188 6 14.3348 6 14.8467V18.5584C6 19.0703 6.44828 19.4863 7 19.4863H11C11.2652 19.4863 11.5196 19.5841 11.7071 19.7581L16 23.7416V9.66356L11.7071 13.647ZM26.1279 10.5674C29.7794 13.9557 29.7794 19.4498 26.1279 22.8381C25.7374 23.2004 25.7374 23.788 26.1279 24.1503C26.5184 24.5127 27.1516 24.5127 27.5421 24.1503C31.9746 20.0373 31.9746 13.3682 27.5421 9.25517C27.1516 8.89279 26.5184 8.89279 26.1279 9.25517C25.7374 9.61754 25.7374 10.2051 26.1279 10.5674ZM21.6599 14.8078L21.7431 14.8953C22.8186 15.8933 22.8186 17.5116 21.7429 18.5105C21.3525 18.873 21.3527 19.4605 21.7433 19.8227C22.134 20.185 22.7672 20.1848 23.1575 19.8223C25.0138 18.0987 25.0138 15.3057 23.1573 13.583C22.7668 13.2206 22.1336 13.2206 21.7431 13.583C21.3826 13.9175 21.3549 14.4438 21.6599 14.8078Z" fill="#24B23E"/>
</svg>
