<svg width="342" height="218" viewBox="0 0 342 218" fill="none" xmlns="http://www.w3.org/2000/svg">
<path d="M46.3787 154.2H47.9467V158.386H48.7027L52.1047 154.2H54.0367L50.0187 158.904L54.4987 164H52.5527L48.7167 159.618H47.9467V164H46.3787V154.2ZM54.942 160.234C54.942 159.59 55.0306 159.025 55.208 158.54C55.3853 158.055 55.6373 157.653 55.964 157.336C56.2906 157.009 56.6826 156.767 57.14 156.608C57.6066 156.449 58.1293 156.37 58.708 156.37C59.828 156.37 60.696 156.683 61.312 157.308C61.928 157.933 62.236 158.923 62.236 160.276C62.236 160.967 62.1473 161.559 61.97 162.054C61.7926 162.539 61.5406 162.941 61.214 163.258C60.8966 163.575 60.514 163.809 60.066 163.958C59.618 164.098 59.1233 164.168 58.582 164.168C57.378 164.168 56.468 163.832 55.852 163.16C55.2453 162.488 54.942 161.513 54.942 160.234ZM56.44 160.29C56.44 161.13 56.622 161.774 56.986 162.222C57.3593 162.67 57.9193 162.894 58.666 162.894C59.338 162.894 59.8513 162.693 60.206 162.292C60.5606 161.881 60.738 161.214 60.738 160.29V160.234C60.738 159.338 60.5606 158.68 60.206 158.26C59.8513 157.831 59.31 157.616 58.582 157.616C57.154 157.616 56.44 158.489 56.44 160.234V160.29ZM64.0113 156.524H68.9673V157.868H65.4953V164H64.0113V156.524ZM68.7676 162.67H69.6216C69.8643 162.147 70.051 161.438 70.1816 160.542C70.3123 159.637 70.3823 158.563 70.3916 157.322V156.524H75.6976V162.67H76.8176V165.82H75.4456V164H70.1536V165.82H68.7676V162.67ZM74.2136 157.84H71.7636L71.7496 158.344C71.731 159.165 71.6703 159.954 71.5676 160.71C71.465 161.466 71.3016 162.119 71.0776 162.67H74.2136V157.84ZM82.556 162.922C82.3693 163.249 82.08 163.538 81.688 163.79C81.296 164.033 80.806 164.154 80.218 164.154C79.4246 164.154 78.818 163.958 78.398 163.566C77.9873 163.165 77.782 162.609 77.782 161.9C77.782 161.079 78.02 160.495 78.496 160.15C78.972 159.805 79.7606 159.632 80.862 159.632H82.486V159.016C82.486 158.484 82.3506 158.125 82.08 157.938C81.8093 157.751 81.3613 157.658 80.736 157.658C80.512 157.658 80.288 157.681 80.064 157.728C79.84 157.775 79.6253 157.835 79.42 157.91C79.2146 157.985 79.0233 158.073 78.846 158.176C78.6686 158.269 78.5146 158.367 78.384 158.47V156.902C78.5333 156.818 78.7106 156.743 78.916 156.678C79.1213 156.613 79.336 156.557 79.56 156.51C79.7933 156.463 80.0266 156.431 80.26 156.412C80.5026 156.384 80.7313 156.37 80.946 156.37C81.478 156.37 81.9353 156.417 82.318 156.51C82.7006 156.594 83.0133 156.739 83.256 156.944C83.508 157.14 83.69 157.406 83.802 157.742C83.914 158.078 83.97 158.493 83.97 158.988V164H82.626L82.556 162.922ZM79.28 161.704C79.28 162.059 79.3826 162.339 79.588 162.544C79.7933 162.749 80.1386 162.852 80.624 162.852C81.268 162.852 81.7393 162.693 82.038 162.376C82.3366 162.059 82.486 161.653 82.486 161.158V160.584H80.974C80.6473 160.584 80.372 160.603 80.148 160.64C79.9333 160.677 79.7606 160.743 79.63 160.836C79.4993 160.92 79.406 161.037 79.35 161.186C79.3033 161.326 79.28 161.499 79.28 161.704ZM89.9079 156.524H91.2799L91.3499 157.784C91.5553 157.317 91.8679 156.967 92.2879 156.734C92.7079 156.501 93.2679 156.384 93.9679 156.384C94.9759 156.384 95.7179 156.673 96.1939 157.252C96.6793 157.831 96.9219 158.787 96.9219 160.122C96.9219 161.541 96.6606 162.567 96.1379 163.202C95.6246 163.837 94.8359 164.154 93.7719 164.154C93.1186 164.154 92.6053 164.042 92.2319 163.818C91.8586 163.585 91.5786 163.319 91.3919 163.02V166.52H89.9079V156.524ZM91.3919 160.864C91.3919 161.489 91.5599 161.984 91.8959 162.348C92.2319 162.703 92.7359 162.88 93.4079 162.88C93.7813 162.88 94.0939 162.833 94.3459 162.74C94.6073 162.637 94.8173 162.479 94.9759 162.264C95.1346 162.049 95.2466 161.774 95.3119 161.438C95.3866 161.093 95.4239 160.673 95.4239 160.178C95.4239 159.245 95.2559 158.591 94.9199 158.218C94.5839 157.835 94.0799 157.644 93.4079 157.644C92.7079 157.644 92.1946 157.831 91.8679 158.204C91.5506 158.568 91.3919 159.044 91.3919 159.632V160.864ZM99.7424 160.71C99.7517 162.175 100.545 162.908 102.122 162.908C102.626 162.908 103.084 162.829 103.494 162.67C103.914 162.502 104.264 162.306 104.544 162.082V163.496C104.358 163.636 104.045 163.785 103.606 163.944C103.168 164.093 102.636 164.168 102.01 164.168C100.732 164.168 99.7844 163.851 99.1684 163.216C98.5524 162.581 98.2444 161.555 98.2444 160.136C98.2444 158.895 98.5477 157.957 99.1544 157.322C99.7611 156.687 100.634 156.37 101.772 156.37C102.388 156.37 102.906 156.454 103.326 156.622C103.746 156.79 104.082 157.033 104.334 157.35C104.596 157.658 104.782 158.031 104.894 158.47C105.016 158.899 105.076 159.38 105.076 159.912V160.71H99.7424ZM101.758 157.602C101.114 157.602 100.62 157.765 100.274 158.092C99.9291 158.419 99.7517 158.932 99.7424 159.632H103.606C103.606 158.941 103.462 158.433 103.172 158.106C102.883 157.77 102.412 157.602 101.758 157.602ZM106.835 156.524H108.319V162.67H110.811V156.524H112.281V162.67H114.773V156.524H116.257V164H106.835V156.524ZM122.788 162.922C122.602 163.249 122.312 163.538 121.92 163.79C121.528 164.033 121.038 164.154 120.45 164.154C119.657 164.154 119.05 163.958 118.63 163.566C118.22 163.165 118.014 162.609 118.014 161.9C118.014 161.079 118.252 160.495 118.728 160.15C119.204 159.805 119.993 159.632 121.094 159.632H122.718V159.016C122.718 158.484 122.583 158.125 122.312 157.938C122.042 157.751 121.594 157.658 120.968 157.658C120.744 157.658 120.52 157.681 120.296 157.728C120.072 157.775 119.858 157.835 119.652 157.91C119.447 157.985 119.256 158.073 119.078 158.176C118.901 158.269 118.747 158.367 118.616 158.47V156.902C118.766 156.818 118.943 156.743 119.148 156.678C119.354 156.613 119.568 156.557 119.792 156.51C120.026 156.463 120.259 156.431 120.492 156.412C120.735 156.384 120.964 156.37 121.178 156.37C121.71 156.37 122.168 156.417 122.55 156.51C122.933 156.594 123.246 156.739 123.488 156.944C123.74 157.14 123.922 157.406 124.034 157.742C124.146 158.078 124.202 158.493 124.202 158.988V164H122.858L122.788 162.922ZM119.512 161.704C119.512 162.059 119.615 162.339 119.82 162.544C120.026 162.749 120.371 162.852 120.856 162.852C121.5 162.852 121.972 162.693 122.27 162.376C122.569 162.059 122.718 161.653 122.718 161.158V160.584H121.206C120.88 160.584 120.604 160.603 120.38 160.64C120.166 160.677 119.993 160.743 119.862 160.836C119.732 160.92 119.638 161.037 119.582 161.186C119.536 161.326 119.512 161.499 119.512 161.704ZM127.83 157.868H125.408V156.524H131.708V157.868H129.3V164H127.83V157.868ZM136.765 156.524H143.065V164H141.595V157.868H138.249V164H136.765V156.524ZM145.317 156.524H146.689L146.759 157.784C146.965 157.317 147.277 156.967 147.697 156.734C148.117 156.501 148.677 156.384 149.377 156.384C150.385 156.384 151.127 156.673 151.603 157.252C152.089 157.831 152.331 158.787 152.331 160.122C152.331 161.541 152.07 162.567 151.547 163.202C151.034 163.837 150.245 164.154 149.181 164.154C148.528 164.154 148.015 164.042 147.641 163.818C147.268 163.585 146.988 163.319 146.801 163.02V166.52H145.317V156.524ZM146.801 160.864C146.801 161.489 146.969 161.984 147.305 162.348C147.641 162.703 148.145 162.88 148.817 162.88C149.191 162.88 149.503 162.833 149.755 162.74C150.017 162.637 150.227 162.479 150.385 162.264C150.544 162.049 150.656 161.774 150.721 161.438C150.796 161.093 150.833 160.673 150.833 160.178C150.833 159.245 150.665 158.591 150.329 158.218C149.993 157.835 149.489 157.644 148.817 157.644C148.117 157.644 147.604 157.831 147.277 158.204C146.96 158.568 146.801 159.044 146.801 159.632V160.864ZM153.654 160.234C153.654 159.59 153.743 159.025 153.92 158.54C154.097 158.055 154.349 157.653 154.676 157.336C155.003 157.009 155.395 156.767 155.852 156.608C156.319 156.449 156.841 156.37 157.42 156.37C158.54 156.37 159.408 156.683 160.024 157.308C160.64 157.933 160.948 158.923 160.948 160.276C160.948 160.967 160.859 161.559 160.682 162.054C160.505 162.539 160.253 162.941 159.926 163.258C159.609 163.575 159.226 163.809 158.778 163.958C158.33 164.098 157.835 164.168 157.294 164.168C156.09 164.168 155.18 163.832 154.564 163.16C153.957 162.488 153.654 161.513 153.654 160.234ZM155.152 160.29C155.152 161.13 155.334 161.774 155.698 162.222C156.071 162.67 156.631 162.894 157.378 162.894C158.05 162.894 158.563 162.693 158.918 162.292C159.273 161.881 159.45 161.214 159.45 160.29V160.234C159.45 159.338 159.273 158.68 158.918 158.26C158.563 157.831 158.022 157.616 157.294 157.616C155.866 157.616 155.152 158.489 155.152 160.234V160.29ZM169.009 154.704C168.851 154.788 168.575 154.858 168.183 154.914C167.801 154.97 167.236 155.021 166.489 155.068C165.985 155.105 165.556 155.18 165.201 155.292C164.856 155.395 164.571 155.563 164.347 155.796C164.133 156.02 163.965 156.314 163.843 156.678C163.731 157.042 163.657 157.495 163.619 158.036L163.661 158.106C163.997 157.63 164.413 157.275 164.907 157.042C165.402 156.809 165.957 156.692 166.573 156.692C167.077 156.692 167.521 156.753 167.903 156.874C168.295 156.986 168.622 157.182 168.883 157.462C169.145 157.733 169.341 158.092 169.471 158.54C169.611 158.988 169.681 159.539 169.681 160.192C169.681 160.892 169.597 161.494 169.429 161.998C169.271 162.502 169.037 162.913 168.729 163.23C168.421 163.547 168.043 163.781 167.595 163.93C167.147 164.079 166.634 164.154 166.055 164.154C165.439 164.154 164.898 164.07 164.431 163.902C163.965 163.725 163.573 163.449 163.255 163.076C162.947 162.703 162.714 162.217 162.555 161.62C162.397 161.023 162.317 160.295 162.317 159.436C162.317 158.419 162.392 157.56 162.541 156.86C162.691 156.16 162.915 155.581 163.213 155.124C163.521 154.667 163.909 154.321 164.375 154.088C164.842 153.855 165.393 153.696 166.027 153.612C166.261 153.584 166.517 153.556 166.797 153.528C167.087 153.5 167.367 153.472 167.637 153.444C167.917 153.407 168.179 153.365 168.421 153.318C168.664 153.271 168.86 153.211 169.009 153.136V154.704ZM166.083 162.838C166.783 162.838 167.301 162.637 167.637 162.236C167.973 161.835 168.141 161.191 168.141 160.304C168.141 159.856 168.095 159.483 168.001 159.184C167.917 158.885 167.791 158.647 167.623 158.47C167.455 158.293 167.245 158.167 166.993 158.092C166.741 158.017 166.447 157.98 166.111 157.98C165.421 157.98 164.875 158.162 164.473 158.526C164.072 158.89 163.871 159.408 163.871 160.08C163.871 161.069 164.058 161.779 164.431 162.208C164.805 162.628 165.355 162.838 166.083 162.838ZM170.558 162.446C170.67 162.483 170.792 162.502 170.922 162.502C171.072 162.502 171.216 162.465 171.356 162.39C171.506 162.306 171.641 162.101 171.762 161.774C171.884 161.447 171.986 160.953 172.07 160.29C172.154 159.627 172.21 158.713 172.238 157.546L172.266 156.524H177.586V164H176.116V157.882H173.596L173.582 158.316C173.545 159.548 173.461 160.547 173.33 161.312C173.2 162.077 173.032 162.67 172.826 163.09C172.621 163.51 172.378 163.795 172.098 163.944C171.828 164.093 171.529 164.168 171.202 164.168C171.072 164.168 170.955 164.163 170.852 164.154C170.759 164.145 170.661 164.121 170.558 164.084V162.446ZM180.877 160.71C180.887 162.175 181.68 162.908 183.257 162.908C183.761 162.908 184.219 162.829 184.629 162.67C185.049 162.502 185.399 162.306 185.679 162.082V163.496C185.493 163.636 185.18 163.785 184.741 163.944C184.303 164.093 183.771 164.168 183.145 164.168C181.867 164.168 180.919 163.851 180.303 163.216C179.687 162.581 179.379 161.555 179.379 160.136C179.379 158.895 179.683 157.957 180.289 157.322C180.896 156.687 181.769 156.37 182.907 156.37C183.523 156.37 184.041 156.454 184.461 156.622C184.881 156.79 185.217 157.033 185.469 157.35C185.731 157.658 185.917 158.031 186.029 158.47C186.151 158.899 186.211 159.38 186.211 159.912V160.71H180.877ZM182.893 157.602C182.249 157.602 181.755 157.765 181.409 158.092C181.064 158.419 180.887 158.932 180.877 159.632H184.741C184.741 158.941 184.597 158.433 184.307 158.106C184.018 157.77 183.547 157.602 182.893 157.602ZM187.97 156.524H189.902L192.072 160.752L194.158 156.524H196.034V164H194.592V160.01C194.592 159.646 194.606 159.287 194.634 158.932C194.662 158.568 194.695 158.195 194.732 157.812C194.546 158.223 194.373 158.61 194.214 158.974C194.056 159.338 193.906 159.646 193.766 159.898L192.492 162.306H191.526L190.308 159.912C190.168 159.641 190.01 159.329 189.832 158.974C189.655 158.61 189.473 158.232 189.286 157.84C189.314 158.213 189.342 158.582 189.37 158.946C189.398 159.31 189.412 159.683 189.412 160.066V164H187.97V156.524ZM199.77 158.904C199.957 158.885 200.13 158.871 200.288 158.862C200.447 158.853 200.62 158.848 200.806 158.848C201.413 158.848 201.922 158.899 202.332 159.002C202.743 159.105 203.074 159.259 203.326 159.464C203.578 159.669 203.76 159.931 203.872 160.248C203.984 160.556 204.04 160.925 204.04 161.354C204.04 161.746 203.98 162.11 203.858 162.446C203.746 162.782 203.55 163.076 203.27 163.328C202.99 163.571 202.622 163.762 202.164 163.902C201.707 164.033 201.138 164.098 200.456 164.098C200.074 164.098 199.705 164.089 199.35 164.07C199.005 164.061 198.65 164.037 198.286 164V156.524H199.77V158.904ZM199.756 162.824C199.915 162.833 200.05 162.843 200.162 162.852C200.274 162.852 200.428 162.852 200.624 162.852C200.998 162.852 201.306 162.819 201.548 162.754C201.8 162.679 202.001 162.581 202.15 162.46C202.3 162.329 202.402 162.175 202.458 161.998C202.514 161.821 202.542 161.62 202.542 161.396C202.542 161.191 202.514 161.004 202.458 160.836C202.412 160.659 202.314 160.509 202.164 160.388C202.024 160.267 201.824 160.173 201.562 160.108C201.301 160.033 200.96 159.996 200.54 159.996C200.4 159.996 200.27 160.005 200.148 160.024C200.036 160.033 199.906 160.047 199.756 160.066V162.824ZM205.02 156.524H206.504V164H205.02V156.524ZM217.882 158.316C217.648 158.148 217.354 158.003 217 157.882C216.654 157.761 216.258 157.7 215.81 157.7C215.464 157.7 215.152 157.742 214.872 157.826C214.601 157.91 214.368 158.05 214.172 158.246C213.985 158.433 213.84 158.689 213.738 159.016C213.635 159.333 213.584 159.73 213.584 160.206C213.584 160.682 213.635 161.088 213.738 161.424C213.84 161.751 213.994 162.017 214.2 162.222C214.414 162.427 214.676 162.577 214.984 162.67C215.292 162.763 215.651 162.81 216.062 162.81C216.454 162.81 216.827 162.754 217.182 162.642C217.546 162.53 217.849 162.376 218.092 162.18V163.65C217.886 163.79 217.592 163.911 217.21 164.014C216.827 164.117 216.365 164.168 215.824 164.168C215.208 164.168 214.666 164.098 214.2 163.958C213.733 163.809 213.341 163.575 213.024 163.258C212.706 162.941 212.464 162.525 212.296 162.012C212.137 161.499 212.058 160.873 212.058 160.136C212.058 158.848 212.366 157.901 212.982 157.294C213.607 156.678 214.559 156.37 215.838 156.37C216.351 156.37 216.766 156.412 217.084 156.496C217.401 156.571 217.667 156.659 217.882 156.762V158.316ZM223.623 156.524H229.923V164H228.453V157.868H225.107V164H223.623V156.524ZM233.211 160.71C233.22 162.175 234.013 162.908 235.591 162.908C236.095 162.908 236.552 162.829 236.963 162.67C237.383 162.502 237.733 162.306 238.013 162.082V163.496C237.826 163.636 237.513 163.785 237.075 163.944C236.636 164.093 236.104 164.168 235.479 164.168C234.2 164.168 233.253 163.851 232.637 163.216C232.021 162.581 231.713 161.555 231.713 160.136C231.713 158.895 232.016 157.957 232.623 157.322C233.229 156.687 234.102 156.37 235.241 156.37C235.857 156.37 236.375 156.454 236.795 156.622C237.215 156.79 237.551 157.033 237.803 157.35C238.064 157.658 238.251 158.031 238.363 158.47C238.484 158.899 238.545 159.38 238.545 159.912V160.71H233.211ZM235.227 157.602C234.583 157.602 234.088 157.765 233.743 158.092C233.397 158.419 233.22 158.932 233.211 159.632H237.075C237.075 158.941 236.93 158.433 236.641 158.106C236.351 157.77 235.88 157.602 235.227 157.602ZM240.29 156.524H241.662L241.732 157.784C241.937 157.317 242.25 156.967 242.67 156.734C243.09 156.501 243.65 156.384 244.35 156.384C245.358 156.384 246.1 156.673 246.576 157.252C247.061 157.831 247.304 158.787 247.304 160.122C247.304 161.541 247.042 162.567 246.52 163.202C246.006 163.837 245.218 164.154 244.154 164.154C243.5 164.154 242.987 164.042 242.614 163.818C242.24 163.585 241.96 163.319 241.774 163.02V166.52H240.29V156.524ZM241.774 160.864C241.774 161.489 241.942 161.984 242.278 162.348C242.614 162.703 243.118 162.88 243.79 162.88C244.163 162.88 244.476 162.833 244.728 162.74C244.989 162.637 245.199 162.479 245.358 162.264C245.516 162.049 245.628 161.774 245.694 161.438C245.768 161.093 245.806 160.673 245.806 160.178C245.806 159.245 245.638 158.591 245.302 158.218C244.966 157.835 244.462 157.644 243.79 157.644C243.09 157.644 242.576 157.831 242.25 158.204C241.932 158.568 241.774 159.044 241.774 159.632V160.864ZM250.124 160.71C250.133 162.175 250.927 162.908 252.504 162.908C253.008 162.908 253.465 162.829 253.876 162.67C254.296 162.502 254.646 162.306 254.926 162.082V163.496C254.739 163.636 254.427 163.785 253.988 163.944C253.549 164.093 253.017 164.168 252.392 164.168C251.113 164.168 250.166 163.851 249.55 163.216C248.934 162.581 248.626 161.555 248.626 160.136C248.626 158.895 248.929 157.957 249.536 157.322C250.143 156.687 251.015 156.37 252.154 156.37C252.77 156.37 253.288 156.454 253.708 156.622C254.128 156.79 254.464 157.033 254.716 157.35C254.977 157.658 255.164 158.031 255.276 158.47C255.397 158.899 255.458 159.38 255.458 159.912V160.71H250.124ZM252.14 157.602C251.496 157.602 251.001 157.765 250.656 158.092C250.311 158.419 250.133 158.932 250.124 159.632H253.988C253.988 158.941 253.843 158.433 253.554 158.106C253.265 157.77 252.793 157.602 252.14 157.602ZM256.114 162.67H256.968C257.211 162.147 257.397 161.438 257.528 160.542C257.659 159.637 257.729 158.563 257.738 157.322V156.524H263.044V162.67H264.164V165.82H262.792V164H257.5V165.82H256.114V162.67ZM261.56 157.84H259.11L259.096 158.344C259.077 159.165 259.017 159.954 258.914 160.71C258.811 161.466 258.648 162.119 258.424 162.67H261.56V157.84ZM269.902 162.922C269.716 163.249 269.426 163.538 269.034 163.79C268.642 164.033 268.152 164.154 267.564 164.154C266.771 164.154 266.164 163.958 265.744 163.566C265.334 163.165 265.128 162.609 265.128 161.9C265.128 161.079 265.366 160.495 265.842 160.15C266.318 159.805 267.107 159.632 268.208 159.632H269.832V159.016C269.832 158.484 269.697 158.125 269.426 157.938C269.156 157.751 268.708 157.658 268.082 157.658C267.858 157.658 267.634 157.681 267.41 157.728C267.186 157.775 266.972 157.835 266.766 157.91C266.561 157.985 266.37 158.073 266.192 158.176C266.015 158.269 265.861 158.367 265.73 158.47V156.902C265.88 156.818 266.057 156.743 266.262 156.678C266.468 156.613 266.682 156.557 266.906 156.51C267.14 156.463 267.373 156.431 267.606 156.412C267.849 156.384 268.078 156.37 268.292 156.37C268.824 156.37 269.282 156.417 269.664 156.51C270.047 156.594 270.36 156.739 270.602 156.944C270.854 157.14 271.036 157.406 271.148 157.742C271.26 158.078 271.316 158.493 271.316 158.988V164H269.972L269.902 162.922ZM266.626 161.704C266.626 162.059 266.729 162.339 266.934 162.544C267.14 162.749 267.485 162.852 267.97 162.852C268.614 162.852 269.086 162.693 269.384 162.376C269.683 162.059 269.832 161.653 269.832 161.158V160.584H268.32C267.994 160.584 267.718 160.603 267.494 160.64C267.28 160.677 267.107 160.743 266.976 160.836C266.846 160.92 266.752 161.037 266.696 161.186C266.65 161.326 266.626 161.499 266.626 161.704ZM273.082 156.524H274.552V158.862C274.552 159.814 275.084 160.29 276.148 160.29C276.446 160.29 276.731 160.267 277.002 160.22C277.282 160.164 277.529 160.089 277.744 159.996V156.524H279.214V164H277.744V161.2C277.501 161.321 277.212 161.415 276.876 161.48C276.54 161.545 276.218 161.578 275.91 161.578C275.023 161.578 274.328 161.387 273.824 161.004C273.329 160.621 273.082 160.001 273.082 159.142V156.524ZM282.488 160.71C282.497 162.175 283.29 162.908 284.868 162.908C285.372 162.908 285.829 162.829 286.24 162.67C286.66 162.502 287.01 162.306 287.29 162.082V163.496C287.103 163.636 286.79 163.785 286.352 163.944C285.913 164.093 285.381 164.168 284.756 164.168C283.477 164.168 282.53 163.851 281.914 163.216C281.298 162.581 280.99 161.555 280.99 160.136C280.99 158.895 281.293 157.957 281.9 157.322C282.506 156.687 283.379 156.37 284.518 156.37C285.134 156.37 285.652 156.454 286.072 156.622C286.492 156.79 286.828 157.033 287.08 157.35C287.341 157.658 287.528 158.031 287.64 158.47C287.761 158.899 287.822 159.38 287.822 159.912V160.71H282.488ZM284.504 157.602C283.86 157.602 283.365 157.765 283.02 158.092C282.674 158.419 282.497 158.932 282.488 159.632H286.352C286.352 158.941 286.207 158.433 285.918 158.106C285.628 157.77 285.157 157.602 284.504 157.602ZM289.581 156.524H291.065V160.066C291.065 160.458 291.055 160.836 291.037 161.2C291.018 161.555 290.999 161.825 290.981 162.012L291.037 162.04C291.195 161.76 291.359 161.494 291.527 161.242C291.704 160.99 291.886 160.733 292.073 160.472L294.761 156.524H296.105V164H294.635V160.948C294.635 160.715 294.635 160.477 294.635 160.234C294.644 159.991 294.649 159.763 294.649 159.548C294.658 159.324 294.667 159.119 294.677 158.932C294.686 158.745 294.695 158.591 294.705 158.47L294.677 158.456C294.555 158.671 294.406 158.918 294.229 159.198C294.051 159.478 293.869 159.753 293.683 160.024L290.939 164H289.581V156.524ZM291.863 153.234C291.863 153.579 291.937 153.855 292.087 154.06C292.236 154.256 292.488 154.354 292.843 154.354C293.197 154.354 293.454 154.256 293.613 154.06C293.771 153.855 293.851 153.579 293.851 153.234H295.083C295.083 153.598 295.022 153.911 294.901 154.172C294.789 154.433 294.63 154.653 294.425 154.83C294.229 154.998 293.995 155.124 293.725 155.208C293.454 155.292 293.16 155.334 292.843 155.334C292.525 155.334 292.231 155.292 291.961 155.208C291.69 155.124 291.452 154.998 291.247 154.83C291.051 154.653 290.892 154.433 290.771 154.172C290.659 153.911 290.603 153.598 290.603 153.234H291.863ZM40.1726 176.524H41.6566V180.066C41.6566 180.458 41.6473 180.836 41.6286 181.2C41.61 181.555 41.5913 181.825 41.5726 182.012L41.6286 182.04C41.7873 181.76 41.9506 181.494 42.1186 181.242C42.296 180.99 42.478 180.733 42.6646 180.472L45.3526 176.524H46.6966V184H45.2266V180.948C45.2266 180.715 45.2266 180.477 45.2266 180.234C45.236 179.991 45.2406 179.763 45.2406 179.548C45.25 179.324 45.2593 179.119 45.2686 178.932C45.278 178.745 45.2873 178.591 45.2966 178.47L45.2686 178.456C45.1473 178.671 44.998 178.918 44.8206 179.198C44.6433 179.478 44.4613 179.753 44.2746 180.024L41.5306 184H40.1726V176.524ZM48.1034 182.446C48.2154 182.483 48.3367 182.502 48.4674 182.502C48.6167 182.502 48.7614 182.465 48.9014 182.39C49.0507 182.306 49.1861 182.101 49.3074 181.774C49.4287 181.447 49.5314 180.953 49.6154 180.29C49.6994 179.627 49.7554 178.713 49.7834 177.546L49.8114 176.524H55.1314V184H53.6614V177.882H51.1414L51.1274 178.316C51.0901 179.548 51.0061 180.547 50.8754 181.312C50.7447 182.077 50.5767 182.67 50.3714 183.09C50.1661 183.51 49.9234 183.795 49.6434 183.944C49.3727 184.093 49.0741 184.168 48.7474 184.168C48.6167 184.168 48.5001 184.163 48.3974 184.154C48.3041 184.145 48.2061 184.121 48.1034 184.084V182.446ZM56.5464 182.446C56.6584 182.483 56.7797 182.502 56.9104 182.502C57.0597 182.502 57.2044 182.465 57.3444 182.39C57.4937 182.306 57.6291 182.101 57.7504 181.774C57.8717 181.447 57.9744 180.953 58.0584 180.29C58.1424 179.627 58.1984 178.713 58.2264 177.546L58.2544 176.524H63.5744V184H62.1044V177.882H59.5844L59.5704 178.316C59.5331 179.548 59.4491 180.547 59.3184 181.312C59.1877 182.077 59.0197 182.67 58.8144 183.09C58.6091 183.51 58.3664 183.795 58.0864 183.944C57.8157 184.093 57.5171 184.168 57.1904 184.168C57.0597 184.168 56.9431 184.163 56.8404 184.154C56.7471 184.145 56.6491 184.121 56.5464 184.084V182.446ZM72.2554 176.37C72.834 176.37 73.338 176.44 73.7674 176.58C74.206 176.72 74.57 176.944 74.8594 177.252C75.158 177.56 75.382 177.961 75.5314 178.456C75.6807 178.951 75.7554 179.553 75.7554 180.262C75.7554 180.971 75.676 181.573 75.5174 182.068C75.368 182.563 75.1394 182.969 74.8314 183.286C74.5327 183.594 74.1594 183.818 73.7114 183.958C73.2634 184.098 72.75 184.168 72.1714 184.168C71.0047 184.168 70.146 183.883 69.5954 183.314C69.0447 182.735 68.7367 181.905 68.6714 180.822H67.3274V184H65.8434V176.524H67.3274V179.534H68.6854C68.788 178.47 69.1194 177.677 69.6794 177.154C70.2394 176.631 71.098 176.37 72.2554 176.37ZM70.0854 180.262C70.0854 181.195 70.258 181.867 70.6034 182.278C70.958 182.679 71.4854 182.88 72.1854 182.88C72.5027 182.88 72.7874 182.843 73.0394 182.768C73.3007 182.684 73.5154 182.544 73.6834 182.348C73.8607 182.143 73.996 181.877 74.0894 181.55C74.1827 181.214 74.2294 180.794 74.2294 180.29C74.2294 179.767 74.1874 179.338 74.1034 179.002C74.0287 178.657 73.9074 178.381 73.7394 178.176C73.5714 177.971 73.352 177.831 73.0814 177.756C72.82 177.672 72.5027 177.63 72.1294 177.63C71.7654 177.63 71.4527 177.677 71.1914 177.77C70.93 177.854 70.7154 177.999 70.5474 178.204C70.3887 178.409 70.272 178.68 70.1974 179.016C70.1227 179.352 70.0854 179.767 70.0854 180.262ZM82.9019 178.316C82.6686 178.148 82.3746 178.003 82.0199 177.882C81.6746 177.761 81.2779 177.7 80.8299 177.7C80.4846 177.7 80.1719 177.742 79.8919 177.826C79.6213 177.91 79.3879 178.05 79.1919 178.246C79.0053 178.433 78.8606 178.689 78.7579 179.016C78.6553 179.333 78.6039 179.73 78.6039 180.206C78.6039 180.682 78.6553 181.088 78.7579 181.424C78.8606 181.751 79.0146 182.017 79.2199 182.222C79.4346 182.427 79.6959 182.577 80.0039 182.67C80.3119 182.763 80.6713 182.81 81.0819 182.81C81.4739 182.81 81.8473 182.754 82.2019 182.642C82.5659 182.53 82.8693 182.376 83.1119 182.18V183.65C82.9066 183.79 82.6126 183.911 82.2299 184.014C81.8473 184.117 81.3853 184.168 80.8439 184.168C80.2279 184.168 79.6866 184.098 79.2199 183.958C78.7533 183.809 78.3613 183.575 78.0439 183.258C77.7266 182.941 77.4839 182.525 77.3159 182.012C77.1573 181.499 77.0779 180.873 77.0779 180.136C77.0779 178.848 77.3859 177.901 78.0019 177.294C78.6273 176.678 79.5793 176.37 80.8579 176.37C81.3713 176.37 81.7866 176.412 82.1039 176.496C82.4213 176.571 82.6873 176.659 82.9019 176.762V178.316ZM86.4685 177.868H84.0465V176.524H90.3465V177.868H87.9385V184H86.4685V177.868ZM91.6095 176.524H92.9815L93.0515 177.784C93.2568 177.317 93.5695 176.967 93.9895 176.734C94.4095 176.501 94.9695 176.384 95.6695 176.384C96.6775 176.384 97.4195 176.673 97.8955 177.252C98.3808 177.831 98.6235 178.787 98.6235 180.122C98.6235 181.541 98.3622 182.567 97.8395 183.202C97.3262 183.837 96.5375 184.154 95.4735 184.154C94.8202 184.154 94.3068 184.042 93.9335 183.818C93.5602 183.585 93.2802 183.319 93.0935 183.02V186.52H91.6095V176.524ZM93.0935 180.864C93.0935 181.489 93.2615 181.984 93.5975 182.348C93.9335 182.703 94.4375 182.88 95.1095 182.88C95.4828 182.88 95.7955 182.833 96.0475 182.74C96.3088 182.637 96.5188 182.479 96.6775 182.264C96.8362 182.049 96.9482 181.774 97.0135 181.438C97.0882 181.093 97.1255 180.673 97.1255 180.178C97.1255 179.245 96.9575 178.591 96.6215 178.218C96.2855 177.835 95.7815 177.644 95.1095 177.644C94.4095 177.644 93.8962 177.831 93.5695 178.204C93.2522 178.568 93.0935 179.044 93.0935 179.632V180.864ZM104.692 182.922C104.505 183.249 104.216 183.538 103.824 183.79C103.432 184.033 102.942 184.154 102.354 184.154C101.561 184.154 100.954 183.958 100.534 183.566C100.123 183.165 99.918 182.609 99.918 181.9C99.918 181.079 100.156 180.495 100.632 180.15C101.108 179.805 101.897 179.632 102.998 179.632H104.622V179.016C104.622 178.484 104.487 178.125 104.216 177.938C103.945 177.751 103.497 177.658 102.872 177.658C102.648 177.658 102.424 177.681 102.2 177.728C101.976 177.775 101.761 177.835 101.556 177.91C101.351 177.985 101.159 178.073 100.982 178.176C100.805 178.269 100.651 178.367 100.52 178.47V176.902C100.669 176.818 100.847 176.743 101.052 176.678C101.257 176.613 101.472 176.557 101.696 176.51C101.929 176.463 102.163 176.431 102.396 176.412C102.639 176.384 102.867 176.37 103.082 176.37C103.614 176.37 104.071 176.417 104.454 176.51C104.837 176.594 105.149 176.739 105.392 176.944C105.644 177.14 105.826 177.406 105.938 177.742C106.05 178.078 106.106 178.493 106.106 178.988V184H104.762L104.692 182.922ZM101.416 181.704C101.416 182.059 101.519 182.339 101.724 182.544C101.929 182.749 102.275 182.852 102.76 182.852C103.404 182.852 103.875 182.693 104.174 182.376C104.473 182.059 104.622 181.653 104.622 181.158V180.584H103.11C102.783 180.584 102.508 180.603 102.284 180.64C102.069 180.677 101.897 180.743 101.766 180.836C101.635 180.92 101.542 181.037 101.486 181.186C101.439 181.326 101.416 181.499 101.416 181.704ZM108.277 176.524H109.761V182.67H113.051V176.524H114.521V182.67H115.613V185.82H114.241V184H108.277V176.524ZM117.062 176.524H118.546V180.066C118.546 180.458 118.537 180.836 118.518 181.2C118.499 181.555 118.481 181.825 118.462 182.012L118.518 182.04C118.677 181.76 118.84 181.494 119.008 181.242C119.185 180.99 119.367 180.733 119.554 180.472L122.242 176.524H123.586V184H122.116V180.948C122.116 180.715 122.116 180.477 122.116 180.234C122.125 179.991 122.13 179.763 122.13 179.548C122.139 179.324 122.149 179.119 122.158 178.932C122.167 178.745 122.177 178.591 122.186 178.47L122.158 178.456C122.037 178.671 121.887 178.918 121.71 179.198C121.533 179.478 121.351 179.753 121.164 180.024L118.42 184H117.062V176.524ZM125.847 176.524H127.331V180.066C127.331 180.458 127.321 180.836 127.303 181.2C127.284 181.555 127.265 181.825 127.247 182.012L127.303 182.04C127.461 181.76 127.625 181.494 127.793 181.242C127.97 180.99 128.152 180.733 128.339 180.472L131.027 176.524H132.371V184H130.901V180.948C130.901 180.715 130.901 180.477 130.901 180.234C130.91 179.991 130.915 179.763 130.915 179.548C130.924 179.324 130.933 179.119 130.943 178.932C130.952 178.745 130.961 178.591 130.971 178.47L130.943 178.456C130.821 178.671 130.672 178.918 130.495 179.198C130.317 179.478 130.135 179.753 129.949 180.024L127.205 184H125.847V176.524ZM138.734 179.226H147.89V180.528H138.734V179.226ZM153.812 182.082C154.082 182.287 154.446 182.474 154.904 182.642C155.361 182.81 155.879 182.894 156.458 182.894C157.018 182.894 157.433 182.805 157.704 182.628C157.974 182.451 158.11 182.147 158.11 181.718C158.11 181.354 157.979 181.102 157.718 180.962C157.456 180.822 156.98 180.752 156.29 180.752H155.198V179.702H156.374C156.868 179.702 157.223 179.613 157.438 179.436C157.662 179.249 157.774 178.974 157.774 178.61C157.774 178.265 157.671 178.013 157.466 177.854C157.26 177.695 156.864 177.616 156.276 177.616C155.762 177.616 155.324 177.686 154.96 177.826C154.605 177.966 154.264 178.153 153.938 178.386V176.832C154.246 176.701 154.6 176.594 155.002 176.51C155.412 176.417 155.944 176.37 156.598 176.37C157.111 176.37 157.54 176.417 157.886 176.51C158.231 176.594 158.506 176.715 158.712 176.874C158.917 177.033 159.062 177.229 159.146 177.462C159.23 177.686 159.272 177.938 159.272 178.218C159.272 178.731 159.178 179.142 158.992 179.45C158.814 179.749 158.497 179.963 158.04 180.094C158.534 180.141 158.917 180.299 159.188 180.57C159.468 180.841 159.608 181.228 159.608 181.732C159.608 182.143 159.547 182.502 159.426 182.81C159.304 183.109 159.108 183.361 158.838 183.566C158.576 183.771 158.231 183.921 157.802 184.014C157.382 184.117 156.868 184.168 156.262 184.168C156.066 184.168 155.856 184.154 155.632 184.126C155.408 184.107 155.184 184.075 154.96 184.028C154.745 183.991 154.535 183.944 154.33 183.888C154.134 183.832 153.961 183.767 153.812 183.692V182.082ZM160.465 182.67H161.319C161.561 182.147 161.748 181.438 161.879 180.542C162.009 179.637 162.079 178.563 162.089 177.322V176.524H167.395V182.67H168.515V185.82H167.143V184H161.851V185.82H160.465V182.67ZM165.911 177.84H163.461L163.447 178.344C163.428 179.165 163.367 179.954 163.265 180.71C163.162 181.466 162.999 182.119 162.775 182.67H165.911V177.84ZM170.964 180.71C170.973 182.175 171.767 182.908 173.344 182.908C173.848 182.908 174.305 182.829 174.716 182.67C175.136 182.502 175.486 182.306 175.766 182.082V183.496C175.579 183.636 175.267 183.785 174.828 183.944C174.389 184.093 173.857 184.168 173.232 184.168C171.953 184.168 171.006 183.851 170.39 183.216C169.774 182.581 169.466 181.555 169.466 180.136C169.466 178.895 169.769 177.957 170.376 177.322C170.983 176.687 171.855 176.37 172.994 176.37C173.61 176.37 174.128 176.454 174.548 176.622C174.968 176.79 175.304 177.033 175.556 177.35C175.817 177.658 176.004 178.031 176.116 178.47C176.237 178.899 176.298 179.38 176.298 179.912V180.71H170.964ZM172.98 177.602C172.336 177.602 171.841 177.765 171.496 178.092C171.151 178.419 170.973 178.932 170.964 179.632H174.828C174.828 178.941 174.683 178.433 174.394 178.106C174.105 177.77 173.633 177.602 172.98 177.602ZM183.405 178.316C183.172 178.148 182.878 178.003 182.523 177.882C182.178 177.761 181.781 177.7 181.333 177.7C180.988 177.7 180.675 177.742 180.395 177.826C180.124 177.91 179.891 178.05 179.695 178.246C179.508 178.433 179.364 178.689 179.261 179.016C179.158 179.333 179.107 179.73 179.107 180.206C179.107 180.682 179.158 181.088 179.261 181.424C179.364 181.751 179.518 182.017 179.723 182.222C179.938 182.427 180.199 182.577 180.507 182.67C180.815 182.763 181.174 182.81 181.585 182.81C181.977 182.81 182.35 182.754 182.705 182.642C183.069 182.53 183.372 182.376 183.615 182.18V183.65C183.41 183.79 183.116 183.911 182.733 184.014C182.35 184.117 181.888 184.168 181.347 184.168C180.731 184.168 180.19 184.098 179.723 183.958C179.256 183.809 178.864 183.575 178.547 183.258C178.23 182.941 177.987 182.525 177.819 182.012C177.66 181.499 177.581 180.873 177.581 180.136C177.581 178.848 177.889 177.901 178.505 177.294C179.13 176.678 180.082 176.37 181.361 176.37C181.874 176.37 182.29 176.412 182.607 176.496C182.924 176.571 183.19 176.659 183.405 176.762V178.316ZM185.365 176.524H186.849V178.904C187.064 178.885 187.274 178.871 187.479 178.862C187.694 178.853 187.936 178.848 188.207 178.848C188.776 178.848 189.262 178.895 189.663 178.988C190.064 179.072 190.396 179.212 190.657 179.408C190.918 179.604 191.11 179.865 191.231 180.192C191.352 180.509 191.413 180.897 191.413 181.354C191.413 181.811 191.352 182.213 191.231 182.558C191.11 182.903 190.909 183.193 190.629 183.426C190.349 183.65 189.976 183.818 189.509 183.93C189.052 184.042 188.487 184.098 187.815 184.098C187.339 184.098 186.891 184.089 186.471 184.07C186.051 184.051 185.682 184.028 185.365 184V176.524ZM186.835 182.81C187.003 182.829 187.166 182.843 187.325 182.852C187.493 182.852 187.726 182.852 188.025 182.852C188.389 182.852 188.692 182.829 188.935 182.782C189.178 182.726 189.369 182.642 189.509 182.53C189.658 182.409 189.761 182.259 189.817 182.082C189.882 181.895 189.915 181.667 189.915 181.396C189.915 181.144 189.882 180.929 189.817 180.752C189.761 180.575 189.654 180.43 189.495 180.318C189.336 180.206 189.112 180.127 188.823 180.08C188.543 180.024 188.179 179.996 187.731 179.996C187.591 179.996 187.451 180.005 187.311 180.024C187.171 180.033 187.012 180.047 186.835 180.066V182.81ZM203.109 174.704C202.951 174.788 202.675 174.858 202.283 174.914C201.901 174.97 201.336 175.021 200.589 175.068C200.085 175.105 199.656 175.18 199.301 175.292C198.956 175.395 198.671 175.563 198.447 175.796C198.233 176.02 198.065 176.314 197.943 176.678C197.831 177.042 197.757 177.495 197.719 178.036L197.761 178.106C198.097 177.63 198.513 177.275 199.007 177.042C199.502 176.809 200.057 176.692 200.673 176.692C201.177 176.692 201.621 176.753 202.003 176.874C202.395 176.986 202.722 177.182 202.983 177.462C203.245 177.733 203.441 178.092 203.571 178.54C203.711 178.988 203.781 179.539 203.781 180.192C203.781 180.892 203.697 181.494 203.529 181.998C203.371 182.502 203.137 182.913 202.829 183.23C202.521 183.547 202.143 183.781 201.695 183.93C201.247 184.079 200.734 184.154 200.155 184.154C199.539 184.154 198.998 184.07 198.531 183.902C198.065 183.725 197.673 183.449 197.355 183.076C197.047 182.703 196.814 182.217 196.655 181.62C196.497 181.023 196.417 180.295 196.417 179.436C196.417 178.419 196.492 177.56 196.641 176.86C196.791 176.16 197.015 175.581 197.313 175.124C197.621 174.667 198.009 174.321 198.475 174.088C198.942 173.855 199.493 173.696 200.127 173.612C200.361 173.584 200.617 173.556 200.897 173.528C201.187 173.5 201.467 173.472 201.737 173.444C202.017 173.407 202.279 173.365 202.521 173.318C202.764 173.271 202.96 173.211 203.109 173.136V174.704ZM200.183 182.838C200.883 182.838 201.401 182.637 201.737 182.236C202.073 181.835 202.241 181.191 202.241 180.304C202.241 179.856 202.195 179.483 202.101 179.184C202.017 178.885 201.891 178.647 201.723 178.47C201.555 178.293 201.345 178.167 201.093 178.092C200.841 178.017 200.547 177.98 200.211 177.98C199.521 177.98 198.975 178.162 198.573 178.526C198.172 178.89 197.971 179.408 197.971 180.08C197.971 181.069 198.158 181.779 198.531 182.208C198.905 182.628 199.455 182.838 200.183 182.838ZM206.467 185.302C206.588 185.302 206.695 185.288 206.789 185.26C206.891 185.232 206.989 185.171 207.083 185.078C207.176 184.994 207.265 184.868 207.349 184.7C207.433 184.532 207.521 184.308 207.615 184.028L204.521 176.524H206.215L208.343 182.152L210.093 176.524H211.633L209.071 183.762C208.837 184.425 208.613 184.947 208.399 185.33C208.193 185.713 207.988 185.997 207.783 186.184C207.587 186.38 207.386 186.501 207.181 186.548C206.975 186.604 206.765 186.632 206.551 186.632C206.383 186.632 206.229 186.618 206.089 186.59C205.949 186.571 205.827 186.539 205.725 186.492L205.739 185.106C205.841 185.162 205.953 185.209 206.075 185.246C206.205 185.283 206.336 185.302 206.467 185.302ZM211.663 182.67H212.517C212.76 182.147 212.947 181.438 213.077 180.542C213.208 179.637 213.278 178.563 213.287 177.322V176.524H218.593V182.67H219.713V185.82H218.341V184H213.049V185.82H211.663V182.67ZM217.109 177.84H214.659L214.645 178.344C214.627 179.165 214.566 179.954 214.463 180.71C214.361 181.466 214.197 182.119 213.973 182.67H217.109V177.84ZM222.163 180.71C222.172 182.175 222.965 182.908 224.543 182.908C225.047 182.908 225.504 182.829 225.915 182.67C226.335 182.502 226.685 182.306 226.965 182.082V183.496C226.778 183.636 226.465 183.785 226.027 183.944C225.588 184.093 225.056 184.168 224.431 184.168C223.152 184.168 222.205 183.851 221.589 183.216C220.973 182.581 220.665 181.555 220.665 180.136C220.665 178.895 220.968 177.957 221.575 177.322C222.181 176.687 223.054 176.37 224.193 176.37C224.809 176.37 225.327 176.454 225.747 176.622C226.167 176.79 226.503 177.033 226.755 177.35C227.016 177.658 227.203 178.031 227.315 178.47C227.436 178.899 227.497 179.38 227.497 179.912V180.71H222.163ZM224.179 177.602C223.535 177.602 223.04 177.765 222.695 178.092C222.349 178.419 222.172 178.932 222.163 179.632H226.027C226.027 178.941 225.882 178.433 225.593 178.106C225.303 177.77 224.832 177.602 224.179 177.602ZM230.711 177.868H228.289V176.524H234.589V177.868H232.181V184H230.711V177.868ZM242.265 180.766H241.131V184H239.647V176.524H241.131V179.604H242.265L244.519 176.524H246.213L243.511 180.08L246.521 184H244.729L242.265 180.766ZM251.977 182.922C251.791 183.249 251.501 183.538 251.109 183.79C250.717 184.033 250.227 184.154 249.639 184.154C248.846 184.154 248.239 183.958 247.819 183.566C247.409 183.165 247.203 182.609 247.203 181.9C247.203 181.079 247.441 180.495 247.917 180.15C248.393 179.805 249.182 179.632 250.283 179.632H251.907V179.016C251.907 178.484 251.772 178.125 251.501 177.938C251.231 177.751 250.783 177.658 250.157 177.658C249.933 177.658 249.709 177.681 249.485 177.728C249.261 177.775 249.047 177.835 248.841 177.91C248.636 177.985 248.445 178.073 248.267 178.176C248.09 178.269 247.936 178.367 247.805 178.47V176.902C247.955 176.818 248.132 176.743 248.337 176.678C248.543 176.613 248.757 176.557 248.981 176.51C249.215 176.463 249.448 176.431 249.681 176.412C249.924 176.384 250.153 176.37 250.367 176.37C250.899 176.37 251.357 176.417 251.739 176.51C252.122 176.594 252.435 176.739 252.677 176.944C252.929 177.14 253.111 177.406 253.223 177.742C253.335 178.078 253.391 178.493 253.391 178.988V184H252.047L251.977 182.922ZM248.701 181.704C248.701 182.059 248.804 182.339 249.009 182.544C249.215 182.749 249.56 182.852 250.045 182.852C250.689 182.852 251.161 182.693 251.459 182.376C251.758 182.059 251.907 181.653 251.907 181.158V180.584H250.395C250.069 180.584 249.793 180.603 249.569 180.64C249.355 180.677 249.182 180.743 249.051 180.836C248.921 180.92 248.827 181.037 248.771 181.186C248.725 181.326 248.701 181.499 248.701 181.704ZM255.549 176.524H256.921L256.991 177.784C257.196 177.317 257.509 176.967 257.929 176.734C258.349 176.501 258.909 176.384 259.609 176.384C260.617 176.384 261.359 176.673 261.835 177.252C262.32 177.831 262.563 178.787 262.563 180.122C262.563 181.541 262.301 182.567 261.779 183.202C261.265 183.837 260.477 184.154 259.413 184.154C258.759 184.154 258.246 184.042 257.873 183.818C257.499 183.585 257.219 183.319 257.033 183.02V186.52H255.549V176.524ZM257.033 180.864C257.033 181.489 257.201 181.984 257.537 182.348C257.873 182.703 258.377 182.88 259.049 182.88C259.422 182.88 259.735 182.833 259.987 182.74C260.248 182.637 260.458 182.479 260.617 182.264C260.775 182.049 260.887 181.774 260.953 181.438C261.027 181.093 261.065 180.673 261.065 180.178C261.065 179.245 260.897 178.591 260.561 178.218C260.225 177.835 259.721 177.644 259.049 177.644C258.349 177.644 257.835 177.831 257.509 178.204C257.191 178.568 257.033 179.044 257.033 179.632V180.864ZM265.817 177.868H263.395V176.524H269.695V177.868H267.287V184H265.817V177.868ZM270.972 176.524H272.456V180.066C272.456 180.458 272.447 180.836 272.428 181.2C272.409 181.555 272.391 181.825 272.372 182.012L272.428 182.04C272.587 181.76 272.75 181.494 272.918 181.242C273.095 180.99 273.277 180.733 273.464 180.472L276.152 176.524H277.496V184H276.026V180.948C276.026 180.715 276.026 180.477 276.026 180.234C276.035 179.991 276.04 179.763 276.04 179.548C276.049 179.324 276.059 179.119 276.068 178.932C276.077 178.745 276.087 178.591 276.096 178.47L276.068 178.456C275.947 178.671 275.797 178.918 275.62 179.198C275.443 179.478 275.261 179.753 275.074 180.024L272.33 184H270.972V176.524ZM279.757 176.524H281.241V179.562H284.713V176.524H286.183V184H284.713V180.892H281.241V184H279.757V176.524ZM291.05 180.766H289.916V184H288.432V176.524H289.916V179.604H291.05L293.304 176.524H294.998L292.296 180.08L295.306 184H293.514L291.05 180.766ZM300.762 182.922C300.576 183.249 300.286 183.538 299.894 183.79C299.502 184.033 299.012 184.154 298.424 184.154C297.631 184.154 297.024 183.958 296.604 183.566C296.194 183.165 295.988 182.609 295.988 181.9C295.988 181.079 296.226 180.495 296.702 180.15C297.178 179.805 297.967 179.632 299.068 179.632H300.692V179.016C300.692 178.484 300.557 178.125 300.286 177.938C300.016 177.751 299.568 177.658 298.942 177.658C298.718 177.658 298.494 177.681 298.27 177.728C298.046 177.775 297.832 177.835 297.626 177.91C297.421 177.985 297.23 178.073 297.052 178.176C296.875 178.269 296.721 178.367 296.59 178.47V176.902C296.74 176.818 296.917 176.743 297.122 176.678C297.328 176.613 297.542 176.557 297.766 176.51C298 176.463 298.233 176.431 298.466 176.412C298.709 176.384 298.938 176.37 299.152 176.37C299.684 176.37 300.142 176.417 300.524 176.51C300.907 176.594 301.22 176.739 301.462 176.944C301.714 177.14 301.896 177.406 302.008 177.742C302.12 178.078 302.176 178.493 302.176 178.988V184H300.832L300.762 182.922ZM297.486 181.704C297.486 182.059 297.589 182.339 297.794 182.544C298 182.749 298.345 182.852 298.83 182.852C299.474 182.852 299.946 182.693 300.244 182.376C300.543 182.059 300.692 181.653 300.692 181.158V180.584H299.18C298.854 180.584 298.578 180.603 298.354 180.64C298.14 180.677 297.967 180.743 297.836 180.836C297.706 180.92 297.612 181.037 297.556 181.186C297.51 181.326 297.486 181.499 297.486 181.704Z" fill="white" fill-opacity="0.96"/>
<g clip-path="url(#clip0_1161_9677)">
<path d="M223.475 42.4473H125.727C125.384 42.4473 125.043 42.5198 124.726 42.6608C124.408 42.8018 124.119 43.0084 123.876 43.2689C123.633 43.5294 123.44 43.8387 123.309 44.1791C123.177 44.5194 123.109 44.8843 123.109 45.2527V120.547C123.109 120.915 123.177 121.28 123.309 121.62C123.44 121.961 123.633 122.27 123.876 122.53C124.119 122.791 124.408 122.997 124.726 123.138C125.043 123.279 125.384 123.352 125.727 123.352H223.475C223.819 123.352 224.159 123.279 224.477 123.138C224.795 122.997 225.083 122.791 225.326 122.53C225.57 122.27 225.762 121.961 225.894 121.62C226.026 121.28 226.093 120.915 226.093 120.547V45.2527C226.093 44.8842 226.026 44.5194 225.894 44.1791C225.762 43.8387 225.57 43.5294 225.326 43.2689C225.083 43.0084 224.795 42.8018 224.477 42.6608C224.159 42.5198 223.819 42.4473 223.475 42.4473V42.4473ZM128.48 46.8479C128.23 46.8479 127.985 46.7685 127.778 46.6197C127.57 46.4709 127.408 46.2595 127.312 46.0121C127.217 45.7646 127.192 45.4924 127.24 45.2297C127.289 44.9671 127.409 44.7258 127.586 44.5364C127.763 44.3471 127.988 44.2181 128.233 44.1658C128.478 44.1136 128.732 44.1404 128.963 44.2429C129.194 44.3454 129.391 44.5189 129.53 44.7416C129.669 44.9643 129.743 45.2261 129.743 45.4939C129.743 45.853 129.61 46.1974 129.373 46.4513C129.136 46.7053 128.815 46.8479 128.48 46.8479V46.8479ZM136.061 46.8479C135.811 46.8479 135.567 46.7685 135.359 46.6197C135.152 46.4709 134.99 46.2595 134.894 46.0121C134.798 45.7646 134.773 45.4924 134.822 45.2297C134.871 44.9671 134.991 44.7258 135.168 44.5364C135.345 44.3471 135.57 44.2181 135.815 44.1658C136.06 44.1136 136.314 44.1404 136.545 44.2429C136.776 44.3454 136.973 44.5189 137.112 44.7416C137.251 44.9643 137.325 45.2261 137.325 45.4939C137.325 45.853 137.192 46.1974 136.955 46.4513C136.718 46.7053 136.396 46.8479 136.061 46.8479V46.8479ZM143.643 46.8479C143.393 46.8479 143.149 46.7685 142.941 46.6197C142.733 46.4709 142.571 46.2595 142.476 46.0121C142.38 45.7646 142.355 45.4924 142.404 45.2297C142.452 44.9671 142.573 44.7258 142.749 44.5364C142.926 44.3471 143.151 44.2181 143.396 44.1658C143.642 44.1136 143.896 44.1404 144.127 44.2429C144.357 44.3454 144.555 44.5189 144.694 44.7416C144.832 44.9643 144.907 45.2261 144.907 45.4939C144.907 45.853 144.773 46.1974 144.536 46.4513C144.299 46.7053 143.978 46.8479 143.643 46.8479L143.643 46.8479ZM151.225 46.8479C150.975 46.8479 150.73 46.7685 150.523 46.6197C150.315 46.4709 150.153 46.2595 150.057 46.0121C149.962 45.7646 149.937 45.4924 149.985 45.2297C150.034 44.9671 150.154 44.7258 150.331 44.5364C150.508 44.3471 150.733 44.2181 150.978 44.1658C151.223 44.1136 151.477 44.1404 151.708 44.2429C151.939 44.3454 152.136 44.5189 152.275 44.7416C152.414 44.9643 152.488 45.2261 152.488 45.4939C152.488 45.853 152.355 46.1974 152.118 46.4513C151.881 46.7053 151.56 46.8479 151.225 46.8479L151.225 46.8479ZM158.806 46.8479C158.556 46.8479 158.312 46.7685 158.104 46.6197C157.896 46.4709 157.734 46.2595 157.639 46.0121C157.543 45.7646 157.518 45.4924 157.567 45.2297C157.616 44.9671 157.736 44.7258 157.913 44.5364C158.089 44.3471 158.315 44.2181 158.56 44.1658C158.805 44.1136 159.059 44.1404 159.29 44.2429C159.521 44.3454 159.718 44.5189 159.857 44.7416C159.996 44.9643 160.07 45.2261 160.07 45.4939C160.07 45.853 159.937 46.1974 159.7 46.4513C159.463 46.7053 159.141 46.8479 158.806 46.8479L158.806 46.8479ZM166.388 46.8479C166.138 46.8479 165.894 46.7685 165.686 46.6197C165.478 46.4709 165.316 46.2595 165.22 46.0121C165.125 45.7646 165.1 45.4924 165.149 45.2297C165.197 44.9671 165.318 44.7258 165.494 44.5364C165.671 44.3471 165.896 44.2181 166.141 44.1658C166.386 44.1136 166.641 44.1404 166.871 44.2429C167.102 44.3454 167.3 44.5189 167.439 44.7416C167.577 44.9643 167.651 45.2261 167.651 45.4939C167.651 45.853 167.518 46.1974 167.281 46.4513C167.044 46.7053 166.723 46.8479 166.388 46.8479L166.388 46.8479ZM173.97 46.8479C173.72 46.8479 173.475 46.7685 173.267 46.6197C173.06 46.4709 172.898 46.2595 172.802 46.0121C172.706 45.7646 172.681 45.4924 172.73 45.2297C172.779 44.9671 172.899 44.7258 173.076 44.5364C173.253 44.3471 173.478 44.2181 173.723 44.1658C173.968 44.1136 174.222 44.1404 174.453 44.2429C174.684 44.3454 174.881 44.5189 175.02 44.7416C175.159 44.9643 175.233 45.2261 175.233 45.4939C175.233 45.853 175.1 46.1974 174.863 46.4513C174.626 46.7053 174.305 46.8479 173.97 46.8479L173.97 46.8479ZM181.551 46.8479C181.301 46.8479 181.057 46.7685 180.849 46.6197C180.641 46.4709 180.479 46.2595 180.384 46.0121C180.288 45.7646 180.263 45.4924 180.312 45.2297C180.361 44.9671 180.481 44.7258 180.658 44.5364C180.834 44.3471 181.06 44.2181 181.305 44.1658C181.55 44.1136 181.804 44.1404 182.035 44.2429C182.266 44.3454 182.463 44.5189 182.602 44.7416C182.741 44.9643 182.815 45.2261 182.815 45.4939C182.815 45.853 182.682 46.1974 182.445 46.4513C182.208 46.7053 181.886 46.8479 181.551 46.8479L181.551 46.8479ZM189.133 46.8479C188.883 46.8479 188.639 46.7685 188.431 46.6197C188.223 46.4709 188.061 46.2595 187.965 46.0121C187.87 45.7646 187.845 45.4924 187.893 45.2297C187.942 44.9671 188.063 44.7258 188.239 44.5364C188.416 44.3471 188.641 44.2181 188.886 44.1658C189.131 44.1136 189.385 44.1404 189.616 44.2429C189.847 44.3454 190.045 44.5189 190.183 44.7416C190.322 44.9643 190.396 45.2261 190.396 45.4939C190.396 45.853 190.263 46.1974 190.026 46.4513C189.789 46.7053 189.468 46.8479 189.133 46.8479L189.133 46.8479ZM196.714 46.8479C196.464 46.8479 196.22 46.7685 196.012 46.6197C195.805 46.4709 195.643 46.2595 195.547 46.0121C195.451 45.7646 195.426 45.4924 195.475 45.2297C195.524 44.9671 195.644 44.7258 195.821 44.5364C195.998 44.3471 196.223 44.2181 196.468 44.1658C196.713 44.1136 196.967 44.1404 197.198 44.2429C197.429 44.3454 197.626 44.5189 197.765 44.7416C197.904 44.9643 197.978 45.2261 197.978 45.4939C197.978 45.853 197.845 46.1974 197.608 46.4513C197.371 46.7053 197.05 46.8479 196.714 46.8479L196.714 46.8479ZM204.296 46.8479C204.046 46.8479 203.802 46.7685 203.594 46.6197C203.386 46.4709 203.224 46.2595 203.129 46.0121C203.033 45.7646 203.008 45.4924 203.057 45.2297C203.105 44.9671 203.226 44.7258 203.403 44.5364C203.579 44.3471 203.804 44.2181 204.05 44.1658C204.295 44.1136 204.549 44.1404 204.78 44.2429C205.01 44.3454 205.208 44.5189 205.347 44.7416C205.486 44.9643 205.56 45.2261 205.56 45.4939C205.56 45.853 205.427 46.1974 205.19 46.4513C204.953 46.7053 204.631 46.8479 204.296 46.8479L204.296 46.8479ZM211.878 46.8479C211.628 46.8479 211.383 46.7685 211.176 46.6197C210.968 46.4709 210.806 46.2595 210.71 46.0121C210.615 45.7646 210.59 45.4924 210.638 45.2297C210.687 44.9671 210.807 44.7258 210.984 44.5364C211.161 44.3471 211.386 44.2181 211.631 44.1658C211.876 44.1136 212.13 44.1404 212.361 44.2429C212.592 44.3454 212.789 44.5189 212.928 44.7416C213.067 44.9643 213.141 45.2261 213.141 45.4939C213.141 45.853 213.008 46.1974 212.771 46.4513C212.534 46.7053 212.213 46.8479 211.878 46.8479L211.878 46.8479ZM219.459 46.8479C219.209 46.8479 218.965 46.7685 218.757 46.6197C218.549 46.4709 218.388 46.2595 218.292 46.0121C218.196 45.7646 218.171 45.4924 218.22 45.2297C218.269 44.9671 218.389 44.7258 218.566 44.5364C218.743 44.3471 218.968 44.2181 219.213 44.1658C219.458 44.1136 219.712 44.1404 219.943 44.2429C220.174 44.3454 220.371 44.5189 220.51 44.7416C220.649 44.9643 220.723 45.2261 220.723 45.4939C220.723 45.853 220.59 46.1974 220.353 46.4513C220.116 46.7053 219.794 46.8479 219.459 46.8479L219.459 46.8479Z" fill="#CACACA"/>
<path d="M218.421 35H120.673C120.329 35 119.989 35.0726 119.671 35.2135C119.354 35.3545 119.065 35.5612 118.822 35.8217C118.579 36.0822 118.386 36.3914 118.254 36.7318C118.123 37.0722 118.055 37.437 118.055 37.8054V113.099C118.055 113.468 118.123 113.833 118.254 114.173C118.386 114.513 118.579 114.823 118.822 115.083C119.065 115.344 119.354 115.55 119.671 115.691C119.989 115.832 120.329 115.905 120.673 115.905H218.421C218.765 115.905 219.105 115.832 219.423 115.691C219.741 115.55 220.029 115.344 220.272 115.083C220.515 114.823 220.708 114.513 220.84 114.173C220.971 113.833 221.039 113.468 221.039 113.099V37.8054C221.039 37.437 220.971 37.0722 220.84 36.7318C220.708 36.3914 220.515 36.0822 220.272 35.8217C220.029 35.5612 219.741 35.3545 219.423 35.2135C219.105 35.0726 218.765 35 218.421 35V35ZM123.425 39.4007C123.176 39.4007 122.931 39.3213 122.723 39.1725C122.516 39.0237 122.354 38.8122 122.258 38.5648C122.162 38.3174 122.137 38.0451 122.186 37.7825C122.235 37.5198 122.355 37.2785 122.532 37.0892C122.709 36.8998 122.934 36.7708 123.179 36.7186C123.424 36.6663 123.678 36.6932 123.909 36.7956C124.14 36.8981 124.337 37.0717 124.476 37.2943C124.615 37.517 124.689 37.7788 124.689 38.0466C124.689 38.4057 124.556 38.7501 124.319 39.0041C124.082 39.258 123.761 39.4007 123.426 39.4007H123.425ZM131.007 39.4007C130.757 39.4007 130.513 39.3213 130.305 39.1725C130.097 39.0237 129.935 38.8122 129.84 38.5648C129.744 38.3174 129.719 38.0451 129.768 37.7825C129.817 37.5198 129.937 37.2785 130.114 37.0892C130.29 36.8998 130.516 36.7708 130.761 36.7186C131.006 36.6663 131.26 36.6932 131.491 36.7956C131.722 36.8981 131.919 37.0717 132.058 37.2943C132.197 37.517 132.271 37.7788 132.271 38.0466C132.271 38.4057 132.138 38.7501 131.901 39.0041C131.664 39.258 131.342 39.4007 131.007 39.4007H131.007ZM138.589 39.4007C138.339 39.4007 138.095 39.3213 137.887 39.1725C137.679 39.0237 137.517 38.8122 137.421 38.5648C137.326 38.3174 137.301 38.0451 137.349 37.7825C137.398 37.5198 137.519 37.2785 137.695 37.0892C137.872 36.8998 138.097 36.7708 138.342 36.7186C138.587 36.6663 138.841 36.6932 139.072 36.7956C139.303 36.8981 139.501 37.0717 139.639 37.2943C139.778 37.517 139.852 37.7788 139.852 38.0466C139.852 38.4057 139.719 38.7501 139.482 39.0041C139.245 39.258 138.924 39.4007 138.589 39.4007H138.589ZM146.17 39.4007C145.92 39.4007 145.676 39.3213 145.468 39.1725C145.261 39.0237 145.099 38.8122 145.003 38.5648C144.907 38.3174 144.882 38.0451 144.931 37.7825C144.98 37.5198 145.1 37.2785 145.277 37.0892C145.454 36.8998 145.679 36.7708 145.924 36.7186C146.169 36.6663 146.423 36.6932 146.654 36.7956C146.885 36.8981 147.082 37.0717 147.221 37.2943C147.36 37.517 147.434 37.7788 147.434 38.0466C147.434 38.4057 147.301 38.7501 147.064 39.0041C146.827 39.258 146.506 39.4007 146.17 39.4007H146.17ZM153.752 39.4007C153.502 39.4007 153.258 39.3213 153.05 39.1725C152.842 39.0237 152.68 38.8122 152.585 38.5648C152.489 38.3174 152.464 38.0451 152.513 37.7825C152.561 37.5198 152.682 37.2785 152.859 37.0892C153.035 36.8998 153.26 36.7708 153.506 36.7186C153.751 36.6663 154.005 36.6932 154.236 36.7956C154.467 36.8981 154.664 37.0717 154.803 37.2943C154.942 37.517 155.016 37.7788 155.016 38.0466C155.016 38.4057 154.883 38.7501 154.646 39.0041C154.409 39.258 154.087 39.4007 153.752 39.4007H153.752ZM161.334 39.4007C161.084 39.4007 160.839 39.3213 160.632 39.1725C160.424 39.0237 160.262 38.8122 160.166 38.5648C160.071 38.3174 160.046 38.0451 160.094 37.7825C160.143 37.5198 160.263 37.2785 160.44 37.0892C160.617 36.8998 160.842 36.7708 161.087 36.7186C161.332 36.6663 161.586 36.6932 161.817 36.7956C162.048 36.8981 162.245 37.0717 162.384 37.2943C162.523 37.517 162.597 37.7788 162.597 38.0466C162.597 38.4057 162.464 38.7501 162.227 39.0041C161.99 39.258 161.669 39.4007 161.334 39.4007H161.334ZM168.915 39.4007C168.665 39.4007 168.421 39.3213 168.213 39.1725C168.005 39.0237 167.844 38.8122 167.748 38.5648C167.652 38.3174 167.627 38.0451 167.676 37.7825C167.725 37.5198 167.845 37.2785 168.022 37.0892C168.199 36.8998 168.424 36.7708 168.669 36.7186C168.914 36.6663 169.168 36.6932 169.399 36.7956C169.63 36.8981 169.827 37.0717 169.966 37.2943C170.105 37.517 170.179 37.7788 170.179 38.0466C170.179 38.4057 170.046 38.7501 169.809 39.0041C169.572 39.258 169.25 39.4007 168.915 39.4007H168.915ZM176.497 39.4007C176.247 39.4007 176.003 39.3213 175.795 39.1725C175.587 39.0237 175.425 38.8122 175.33 38.5648C175.234 38.3174 175.209 38.0451 175.258 37.7825C175.306 37.5198 175.427 37.2785 175.603 37.0892C175.78 36.8998 176.005 36.7708 176.25 36.7186C176.496 36.6663 176.75 36.6932 176.981 36.7956C177.211 36.8981 177.409 37.0717 177.548 37.2943C177.686 37.517 177.761 37.7788 177.761 38.0466C177.761 38.4057 177.627 38.7501 177.39 39.0041C177.154 39.258 176.832 39.4007 176.497 39.4007H176.497ZM184.079 39.4007C183.829 39.4007 183.584 39.3213 183.377 39.1725C183.169 39.0237 183.007 38.8122 182.911 38.5648C182.816 38.3174 182.791 38.0451 182.839 37.7825C182.888 37.5198 183.008 37.2785 183.185 37.0892C183.362 36.8998 183.587 36.7708 183.832 36.7186C184.077 36.6663 184.331 36.6932 184.562 36.7956C184.793 36.8981 184.99 37.0717 185.129 37.2943C185.268 37.517 185.342 37.7788 185.342 38.0466C185.342 38.4057 185.209 38.7501 184.972 39.0041C184.735 39.258 184.414 39.4007 184.079 39.4007H184.079ZM191.66 39.4007C191.41 39.4007 191.166 39.3213 190.958 39.1725C190.75 39.0237 190.588 38.8122 190.493 38.5648C190.397 38.3174 190.372 38.0451 190.421 37.7825C190.47 37.5198 190.59 37.2785 190.767 37.0892C190.943 36.8998 191.169 36.7708 191.414 36.7186C191.659 36.6663 191.913 36.6932 192.144 36.7956C192.375 36.8981 192.572 37.0717 192.711 37.2943C192.85 37.517 192.924 37.7788 192.924 38.0466C192.924 38.4057 192.791 38.7501 192.554 39.0041C192.317 39.258 191.995 39.4007 191.66 39.4007H191.66ZM199.242 39.4007C198.992 39.4007 198.748 39.3213 198.54 39.1725C198.332 39.0237 198.17 38.8122 198.074 38.5648C197.979 38.3174 197.954 38.0451 198.003 37.7825C198.051 37.5198 198.172 37.2785 198.348 37.0892C198.525 36.8998 198.75 36.7708 198.995 36.7186C199.24 36.6663 199.495 36.6932 199.725 36.7956C199.956 36.8981 200.154 37.0717 200.293 37.2943C200.431 37.517 200.505 37.7788 200.505 38.0466C200.505 38.4057 200.372 38.7501 200.135 39.0041C199.898 39.258 199.577 39.4007 199.242 39.4007H199.242ZM206.824 39.4007C206.574 39.4007 206.329 39.3213 206.121 39.1725C205.914 39.0237 205.752 38.8122 205.656 38.5648C205.56 38.3174 205.535 38.0451 205.584 37.7825C205.633 37.5198 205.753 37.2785 205.93 37.0892C206.107 36.8998 206.332 36.7708 206.577 36.7186C206.822 36.6663 207.076 36.6932 207.307 36.7956C207.538 36.8981 207.735 37.0717 207.874 37.2943C208.013 37.517 208.087 37.7788 208.087 38.0466C208.087 38.4057 207.954 38.7501 207.717 39.0041C207.48 39.258 207.159 39.4007 206.824 39.4007H206.824ZM214.405 39.4007C214.155 39.4007 213.911 39.3213 213.703 39.1725C213.495 39.0237 213.333 38.8122 213.238 38.5648C213.142 38.3174 213.117 38.0451 213.166 37.7825C213.215 37.5198 213.335 37.2785 213.512 37.0892C213.688 36.8998 213.914 36.7708 214.159 36.7186C214.404 36.6663 214.658 36.6932 214.889 36.7956C215.12 36.8981 215.317 37.0717 215.456 37.2943C215.595 37.517 215.669 37.7788 215.669 38.0466C215.669 38.4057 215.536 38.7501 215.299 39.0041C215.062 39.258 214.74 39.4007 214.405 39.4007H214.405Z" fill="#F0F0F0"/>
<path d="M144.781 76.439C144.776 73.4516 145.468 70.4203 147.033 67.9214C147.775 66.7194 148.734 65.6888 149.854 64.8903C150.973 64.0918 152.231 63.5416 153.552 63.2722C154.857 63.0108 156.201 63.0944 157.468 63.5158C158.616 63.919 159.649 64.6303 160.468 65.582C162.036 67.3781 163.003 70.2446 162.093 72.6365C161.881 73.1946 161.564 73.7 161.161 74.1213C160.759 74.5427 160.28 74.8711 159.755 75.0861C158.819 75.4327 157.665 75.1643 157.263 74.0922C156.918 73.173 157.278 72.0678 157.854 71.3495C158.188 70.9224 158.634 70.6116 159.134 70.457C159.633 70.3023 160.165 70.3108 160.66 70.4813C161.892 70.8549 162.864 71.9303 163.445 73.1182C164.121 74.499 164.262 76.1319 164.12 77.6637C163.807 81.0399 162.178 84.0449 160.979 87.1183C159.864 89.975 158.937 93.2802 159.795 96.3591C160.148 97.5845 160.79 98.6919 161.657 99.5754C162.525 100.459 163.59 101.089 164.75 101.404C166.963 102.04 169.552 101.588 171.124 99.6905C171.865 98.7958 172.406 97.6319 172.414 96.4162C172.424 95.8477 172.292 95.2867 172.033 94.7908C171.774 94.2948 171.396 93.8819 170.938 93.5944C169.023 92.4462 166.437 93.6265 165.634 95.7265C165.143 97.0118 165.236 98.4893 165.7 99.7675C166.195 101.085 167.031 102.223 168.11 103.049C169.23 103.941 170.538 104.534 171.86 104.987C173.235 105.468 174.653 105.798 176.09 105.971C178.832 106.285 181.693 105.795 183.842 103.826C185.732 102.094 186.773 99.5308 187.302 96.978C187.916 94.0158 187.824 90.9905 187.83 87.9765C187.836 84.7645 187.912 81.2587 189.356 78.3552C190.491 76.072 192.498 74.0734 194.894 73.4761C195.999 73.1949 197.16 73.2972 198.208 73.7683C198.555 73.9241 198.706 73.3178 198.363 73.1638C196.061 72.1292 193.528 72.941 191.628 74.5159C190.625 75.3493 189.775 76.3729 189.118 77.5357C188.41 78.8455 187.924 80.2784 187.679 81.7689C186.571 87.8255 188.285 94.3644 185.703 100.121C185.195 101.291 184.48 102.345 183.597 103.223C182.582 104.191 181.351 104.861 180.024 105.17C177.222 105.851 174.182 105.205 171.515 104.203C168.959 103.244 166.404 101.443 165.947 98.3618C165.758 97.0917 166.026 95.672 166.93 94.7708C167.312 94.3967 167.766 94.1179 168.26 93.9543C168.755 93.7908 169.276 93.7467 169.789 93.8251C170.289 93.9029 170.754 94.1496 171.115 94.5295C171.477 94.9094 171.716 95.4027 171.797 95.9379C171.98 97.1311 171.436 98.373 170.71 99.2472C169.118 101.167 166.457 101.436 164.296 100.594C163.23 100.182 162.28 99.4828 161.537 98.5642C160.678 97.4373 160.168 96.051 160.079 94.5987C159.826 91.312 161.153 88.1508 162.399 85.2365C163.668 82.2675 165.032 79.007 164.71 75.6582C164.598 74.1761 164.072 72.7645 163.2 71.608C162.4 70.5832 161.263 69.8133 159.998 69.7286C159.484 69.6973 158.972 69.8024 158.505 70.0345C158.039 70.2667 157.633 70.6187 157.324 71.0592C156.726 71.879 156.376 72.9983 156.631 74.032C156.773 74.5587 157.069 75.0223 157.477 75.3539C157.884 75.6855 158.381 75.8673 158.892 75.8724C160.011 75.8935 161.077 75.1747 161.794 74.3003C163.414 72.3238 163.257 69.3985 162.206 67.1627C161.649 65.9706 160.837 64.9368 159.835 64.1463C158.834 63.3557 157.672 62.8308 156.444 62.6146C153.836 62.1808 151.119 63.0432 149.03 64.7397C146.804 66.5467 145.359 69.2567 144.681 72.1306C144.353 73.5396 144.19 74.9869 144.196 76.439C144.199 76.5203 144.231 76.5973 144.286 76.6537C144.34 76.7102 144.413 76.7418 144.489 76.7418C144.565 76.7418 144.638 76.7102 144.692 76.6537C144.747 76.5973 144.779 76.5203 144.781 76.439H144.781Z" fill="#21C52F"/>
<path d="M106.343 74.6929L102.397 73.441L102.028 74.7764L105.974 76.0282L106.343 74.6929Z" fill="#CACACA"/>
<path d="M106.922 72.3947L103.079 71.1764C102.739 71.0689 102.374 71.1082 102.061 71.286C101.748 71.4639 101.513 71.766 101.406 72.1276C101.299 72.4892 101.328 72.8814 101.488 73.22C101.647 73.5587 101.924 73.8168 102.26 73.9389C102.276 73.9464 102.293 73.9527 102.31 73.9577L106.154 75.178C106.17 75.1842 106.187 75.1884 106.204 75.1906H106.206C106.55 75.2835 106.913 75.2286 107.219 75.0374C107.525 74.8463 107.749 74.5343 107.843 74.1684C107.936 73.8024 107.892 73.4117 107.72 73.0801C107.548 72.7485 107.262 72.5024 106.922 72.3947V72.3947Z" fill="#CACACA"/>
<path d="M106.28 75.642L106.097 75.5835L102.15 74.3318L102.094 74.313L100.559 74.8208L97.1836 84.7191L93.4318 95.7187L89.0677 108.515C89.0166 108.658 88.994 108.811 89.0014 108.963C89.0087 109.116 89.0459 109.265 89.1105 109.401C89.174 109.539 89.2633 109.66 89.3726 109.759C89.482 109.857 89.6093 109.931 89.7463 109.974L98.3965 112.718C98.5319 112.76 98.6739 112.773 98.814 112.755C98.9541 112.737 99.0893 112.689 99.2115 112.613C99.3336 112.538 99.4402 112.436 99.5247 112.315C99.6092 112.194 99.6699 112.056 99.7031 111.909L102.61 98.9221L105.167 87.5066L107.507 77.0566L107.515 77.0253L106.28 75.642Z" fill="#E4E4E4"/>
<path d="M132.579 91.6353C132.474 91.6353 132.371 91.6414 132.269 91.6521C132.366 91.0561 132.311 90.443 132.109 89.8779C131.908 89.3127 131.567 88.8164 131.124 88.4417C130.681 88.0669 130.151 87.8275 129.591 87.7489C129.032 87.6703 128.462 87.7554 127.944 87.9951C127.425 88.2349 126.977 88.6204 126.647 89.1109C126.316 89.6013 126.115 90.1785 126.066 90.7812C126.016 91.3839 126.12 91.9897 126.365 92.5346C126.611 93.0794 126.989 93.5429 127.461 93.876C127.228 94.0257 127.03 94.2288 126.88 94.4707C126.73 94.7127 126.633 94.9873 126.594 95.2747C126.556 95.5622 126.577 95.8552 126.658 96.1325C126.738 96.4098 126.875 96.6645 127.059 96.8781C127.242 97.0917 127.468 97.2588 127.719 97.3674C127.97 97.4759 128.241 97.5231 128.512 97.5056C128.782 97.4881 129.046 97.4062 129.283 97.2661C129.52 97.1259 129.725 96.9308 129.884 96.6951C130.162 97.2013 130.56 97.6202 131.037 97.9098C131.514 98.1995 132.054 98.3497 132.603 98.3455C133.151 98.3414 133.689 98.1829 134.162 97.886C134.635 97.5892 135.028 97.1643 135.3 96.6539C135.571 96.1435 135.714 95.5656 135.711 94.9779C135.709 94.3903 135.563 93.8135 135.288 93.3053C135.012 92.7971 134.617 92.3754 134.142 92.0823C133.667 91.7893 133.128 91.6351 132.579 91.6353V91.6353Z" fill="#21C52F"/>
<path d="M130.345 97.3077L125.826 94.5291L125.007 96.0583L129.526 98.8369L130.345 97.3077Z" fill="#CACACA"/>
<path d="M124.54 87.0134C124.28 86.6148 123.883 86.3429 123.436 86.2575C122.989 86.1721 122.528 86.2802 122.155 86.5579L117.992 89.6651C117.619 89.9436 117.365 90.3694 117.285 90.8489C117.205 91.3283 117.306 91.8221 117.566 92.2217C117.826 92.6213 118.223 92.8939 118.671 92.9795C119.118 93.0651 119.579 92.9568 119.952 92.6783L124.115 89.5711C124.487 89.2917 124.741 88.8657 124.821 88.3863C124.9 87.907 124.799 87.4133 124.54 87.0134V87.0134Z" fill="#CACACA"/>
<path d="M130.01 98.4561L129.799 98.3265L125.281 95.5495L125.213 95.5077L123.187 95.654L116.077 106.971L109.964 116.702L101.661 129.919C101.561 130.08 101.492 130.261 101.46 130.451C101.428 130.641 101.433 130.837 101.474 131.025C101.515 131.213 101.592 131.391 101.699 131.546C101.807 131.701 101.943 131.831 102.1 131.927L112.006 138.018C112.161 138.114 112.332 138.175 112.51 138.197C112.688 138.22 112.868 138.203 113.039 138.148C113.211 138.093 113.37 138.001 113.507 137.878C113.644 137.754 113.756 137.602 113.837 137.431L120.506 123.224L125.422 112.753L131.135 100.583L131.153 100.548L130.01 98.4561Z" fill="#E4E4E4"/>
<path d="M114.698 136.578L102.035 128.744L100.73 131.166L113.393 139L114.698 136.578Z" fill="#CACACA"/>
<path d="M221.706 59.0191C222.212 57.2938 223.36 55.7113 224.949 55.1281C226.538 54.5448 228.865 55.4333 230.059 56.709C232.244 59.0425 232.312 61.8992 230.81 64.4325C230.512 64.4156 229.481 64.403 229.179 64.3909L228.752 62.864V64.3759C226.393 64.2977 223.937 64.3467 221.48 64.3972C221.26 62.6036 221.201 60.7444 221.706 59.0191Z" fill="#2F2E41"/>
<path d="M211.198 86.3785C211.105 86.1673 211.057 85.9371 211.057 85.7039C211.056 85.4707 211.104 85.2402 211.195 85.0288C211.287 84.8173 211.421 84.63 211.588 84.4799C211.754 84.3299 211.949 84.2209 212.16 84.1605L218.509 71.3236L221.071 73.4431L214.025 85.3948C214.096 85.7799 214.033 86.1797 213.847 86.5183C213.662 86.8569 213.367 87.1109 213.019 87.2322C212.67 87.3534 212.292 87.3335 211.957 87.1761C211.621 87.0188 211.351 86.735 211.198 86.3785V86.3785Z" fill="#FFB6B6"/>
<path d="M219.54 127.235H217.389L216.365 118.342L219.541 118.342L219.54 127.235Z" fill="#FFB6B6"/>
<path d="M232.8 127.235H230.649L229.625 118.342L232.801 118.342L232.8 127.235Z" fill="#FFB6B6"/>
<path d="M228.166 76.6553L228.654 78.0135L228.556 79.3717L219.196 78.118L219.489 76.9687L220.561 75.6105L228.166 76.6553Z" fill="#FFB6B6"/>
<path d="M225.15 64.4325C227.032 64.4325 228.558 62.7977 228.558 60.781C228.558 58.7643 227.032 57.1294 225.15 57.1294C223.268 57.1294 221.742 58.7643 221.742 60.781C221.742 62.7977 223.268 64.4325 225.15 64.4325Z" fill="#FFB7B7"/>
<path d="M221.536 67.0431L223.486 65.7894L227.386 65.3715L230.833 66.2073L230.799 72.9985L228.612 78.9581L219.447 77.7044L219.099 75.6022C219.099 75.6022 216.564 71.9537 219.294 69.8641L221.536 67.0431Z" fill="#21C52F"/>
<path d="M228.654 78.8493V81.17C228.654 81.17 231.189 84.7001 229.824 87.4166L233.735 123.568H229.64L222.804 93.0585L219.89 122.941H216.38L215.795 89.7164C215.795 89.7164 216.174 81.1478 218.319 79.6851L219.305 77.8058L228.654 78.8493Z" fill="#807AE7"/>
<path d="M222.809 56.0259C223.463 55.5982 224.213 55.3668 224.98 55.356C225.747 55.3452 226.502 55.5553 227.167 55.9644C227.832 56.3735 228.383 56.9665 228.761 57.6815C229.139 58.3965 229.33 59.2071 229.316 60.0287C227.411 60.1226 225.41 60.147 223.381 60.1513L222.902 58.8937L222.619 60.1522C222.001 60.1521 221.381 60.1513 220.761 60.1496C220.735 59.3303 220.911 58.5183 221.271 57.7946C221.63 57.071 222.16 56.4611 222.809 56.0259V56.0259Z" fill="#2F2E41"/>
<path d="M200.473 75.4282L198.95 74.7871C198.849 74.7452 198.758 74.6825 198.68 74.6026C198.603 74.5227 198.541 74.4272 198.498 74.3216C198.455 74.216 198.431 74.1023 198.429 73.987C198.427 73.8717 198.447 73.7572 198.486 73.6499C198.525 73.5426 198.584 73.4447 198.659 73.3617C198.733 73.2787 198.822 73.2124 198.921 73.1664C199.02 73.1204 199.126 73.0957 199.233 73.0938C199.341 73.0918 199.448 73.1126 199.548 73.1549L201.071 73.796C201.273 73.8813 201.435 74.0488 201.521 74.2618C201.607 74.4748 201.611 74.7159 201.532 74.9321C201.453 75.1483 201.297 75.3219 201.098 75.4149C200.9 75.508 200.675 75.5127 200.473 75.4282V75.4282Z" fill="#21C52F"/>
<path d="M234.39 86.2495L204.29 73.5808C204.099 73.5004 203.892 73.4705 203.687 73.4937C203.483 73.5168 203.286 73.5924 203.115 73.714L201.91 73.207C201.772 73.1491 201.626 73.1208 201.478 73.1237C201.33 73.1267 201.184 73.1607 201.049 73.224C200.913 73.2873 200.791 73.3786 200.688 73.4926C200.586 73.6066 200.505 73.7412 200.451 73.8886L200.077 74.9082C200.023 75.0556 199.997 75.2129 200 75.3713C200.002 75.5296 200.034 75.6858 200.093 75.831C200.152 75.9761 200.238 76.1074 200.344 76.2173C200.45 76.3272 200.576 76.4136 200.713 76.4715L201.715 76.8931C201.647 77.2135 201.688 77.5495 201.832 77.8401C201.975 78.1308 202.21 78.3569 202.496 78.4775L232.595 91.1461C232.913 91.2798 233.267 91.2728 233.58 91.1267C233.893 90.9806 234.138 90.7073 234.263 90.367L235.117 88.0365C235.242 87.6962 235.236 87.3168 235.099 86.9816C234.963 86.6465 234.708 86.3831 234.39 86.2495V86.2495Z" fill="#5651A4"/>
<path d="M241.509 95.84L230.193 91.0772L232.586 84.5483L243.902 89.3111C244.402 89.5221 244.803 89.9368 245.018 90.4642C245.232 90.9917 245.243 91.5887 245.047 92.1245L244.135 94.6133C243.938 95.1486 243.551 95.5783 243.059 95.8083C242.567 96.0382 242.009 96.0496 241.509 95.84V95.84Z" fill="#2A2759"/>
<path d="M243.295 94.3933L237.782 92.0729C237.503 91.9553 237.279 91.7239 237.16 91.4297C237.04 91.1354 237.034 90.8023 237.143 90.5035L237.314 90.037C237.424 89.7383 237.64 89.4985 237.914 89.3702C238.189 89.2419 238.5 89.2355 238.779 89.3526L244.292 91.673C244.571 91.7906 244.794 92.022 244.914 92.3162C245.034 92.6105 245.04 92.9436 244.93 93.2424L244.759 93.7089C244.65 94.0076 244.434 94.2474 244.159 94.3757C243.885 94.504 243.574 94.5103 243.295 94.3933Z" fill="#21C52F"/>
<path d="M225.413 83.6476C225.491 83.6665 225.569 83.6921 225.643 83.724L231.592 79.336L231.456 77.4616L234.069 76.8717L234.611 80.1649C234.655 80.4309 234.617 80.705 234.503 80.946C234.389 81.187 234.205 81.3818 233.979 81.5013L226.61 85.3957C226.582 85.727 226.461 86.0413 226.262 86.2968C226.063 86.5524 225.797 86.737 225.498 86.8262C225.199 86.9155 224.881 86.905 224.588 86.7962C224.295 86.6875 224.039 86.4856 223.855 86.2174C223.672 85.9493 223.569 85.6275 223.56 85.295C223.551 84.9625 223.637 84.635 223.806 84.356C223.975 84.0771 224.219 83.8598 224.506 83.7333C224.793 83.6068 225.109 83.5769 225.413 83.6476Z" fill="#FFB6B6"/>
<path d="M125.422 112.753L120.506 123.224L109.964 116.702L116.077 106.971L125.422 112.753Z" fill="#21C52F"/>
<path d="M105.167 87.5065L102.61 98.9219L93.4316 95.7186L97.1835 84.719L105.167 87.5065Z" fill="#CACACA"/>
<path d="M231.005 79.4775L234.32 81.5671C235.1 81.1492 234.949 78.4389 234.473 78.2801L234.114 69.2372C233.919 65.0581 230.834 66.2073 230.834 66.2073L229.434 66.5208L230.409 70.9089L231.468 78.4803C231.324 78.5968 231.208 78.7476 231.127 78.9206C231.047 79.0936 231.005 79.2842 231.005 79.4775V79.4775Z" fill="#21C52F"/>
<path d="M221.612 66.986C221.612 66.986 218.935 67.0312 218.099 68.5751C217.429 69.8111 216.177 74.7414 215.704 76.66C215.444 76.6522 215.19 76.7371 214.98 76.9013C214.771 77.0655 214.618 77.2998 214.547 77.5671L218.135 79.0595C218.915 78.6416 218.699 78.0624 218.501 77.7627L219.837 75.6147L221.397 74.7789L222.044 67.382L221.612 66.986Z" fill="#21C52F"/>
<path d="M220.502 131.613H218.976L218.703 130.068L218.005 131.613H213.956C213.762 131.613 213.573 131.546 213.417 131.423C213.26 131.3 213.145 131.126 213.087 130.928C213.029 130.729 213.032 130.516 213.096 130.319C213.159 130.123 213.279 129.953 213.439 129.835L216.672 127.442V125.88L220.074 126.098L220.502 131.613Z" fill="#AAA6FF"/>
<path d="M233.957 131.613H232.431L232.158 130.068L231.46 131.613H227.411C227.217 131.613 227.028 131.546 226.872 131.423C226.715 131.3 226.6 131.126 226.542 130.928C226.484 130.729 226.487 130.516 226.551 130.319C226.614 130.123 226.734 129.953 226.894 129.835L230.128 127.442V125.88L233.529 126.098L233.957 131.613Z" fill="#AAA6FF"/>
</g>
<defs>
<clipPath id="clip0_1161_9677">
<rect width="183" height="104" fill="white" transform="translate(89 35)"/>
</clipPath>
</defs>
</svg>
